<?xml version="1.0" encoding="utf-8"?>
<!-- Generator: Adobe Illustrator 21.0.2, SVG Export Plug-In . SVG Version: 6.00 Build 0)  -->
<svg version="1.1" id="Layer_1" xmlns="http://www.w3.org/2000/svg" xmlns:xlink="http://www.w3.org/1999/xlink" x="0px" y="0px"
	 viewBox="0 0 62 41" style="enable-background:new 0 0 62 41;" xml:space="preserve">
<style type="text/css">
	.st0{clip-path:url(#SVGID_2_);fill:#56A4C2;}
	.st1{clip-path:url(#SVGID_4_);fill:#56A4C2;}
	.st2{clip-path:url(#SVGID_6_);fill:#56A4C2;}
</style>
<g>
	<g>
		<g>
			<defs>
				<path id="SVGID_1_" d="M3.8,29.5c-0.1,0-0.3,0-0.4-0.1c-0.7-0.2-1.1-1-0.9-1.7c0.6-1.9,2-3.9,3.6-4.9c1.8-1.2,3.8-1.5,5.6-1.1
					c0.9,0.2,1.8,0.7,2.5,1.3L17,7.5c0.1-0.7,0.8-1.2,1.6-1.1c0.7,0.1,1.2,0.8,1.1,1.6l-3.6,19.7c-0.1,0.7-0.8,1.2-1.5,1.1
					s-1.2-0.7-1.2-1.4c0-0.5-0.1-0.9-0.3-1.4c-0.5-0.9-1.2-1.4-2.1-1.7c-1.1-0.3-2.3,0-3.5,0.7c-1.1,0.7-2.1,2.1-2.5,3.4
					C4.9,29.1,4.3,29.5,3.8,29.5"/>
			</defs>
			<clipPath id="SVGID_2_">
				<use xlink:href="#SVGID_1_"  style="overflow:visible;"/>
			</clipPath>
			<rect x="-2.6" y="1.4" class="st0" width="27.4" height="33"/>
		</g>
	</g>
	<g>
		<g>
			<defs>
				<path id="SVGID_3_" d="M14.5,4.6c-0.8,0-1.5,0.2-2.1,0.6c-0.7,0.4-1.2,1-1.6,2.2L5.2,28.6c-0.4,1.4-0.3,2.7,0.3,4
					c1.6,3.3,4.4,3.9,10.2,3.9h30.6c5.7,0,8.6-0.6,10.2-3.9c0.6-1.2,0.7-2.6,0.3-3.9L51.1,7.3c-0.3-1.2-0.9-1.7-1.6-2.2
					c-1.5-1-3.9-0.6-4.5,0.5c-0.2,0.3-0.3,1.2-0.3,2l0.1,2H17.2l0.1-2c0-0.8-0.1-1.7-0.3-2C16.6,5,15.6,4.6,14.5,4.6z M46.3,40.3
					H15.7c-4.8,0-10.7,0-13.6-6c-1-2.1-1.2-4.5-0.6-6.7L7.2,6.4C7.8,4.4,8.8,3,10.4,2c1.2-0.8,2.7-1.2,4.2-1.2
					c2.5,0,4.8,1.2,5.8,3.2c0.3,0.6,0.5,1.3,0.6,2h20c0.1-0.7,0.3-1.4,0.6-2c1-2,3.3-3.2,5.8-3.2c1.5,0,2.9,0.4,4.2,1.2
					c1.6,1,2.6,2.4,3.2,4.4l5.7,21.3c0.6,2.2,0.4,4.6-0.6,6.6C57,40.3,51.1,40.3,46.3,40.3z"/>
			</defs>
			<clipPath id="SVGID_4_">
				<use xlink:href="#SVGID_3_"  style="overflow:visible;"/>
			</clipPath>
			<rect x="-3.9" y="-4.3" class="st1" width="69.8" height="49.6"/>
		</g>
	</g>
	<g>
		<g>
			<defs>
				<path id="SVGID_5_" d="M57.5,29.3c-0.6,0-1.1-0.4-1.3-1c-0.3-1.2-1.4-2.5-2.5-3.2c-1.2-0.7-2.4-1-3.5-0.7
					c-0.9,0.2-1.6,0.8-2.1,1.7c-0.2,0.5-0.4,0.9-0.3,1.4c0,0.7-0.5,1.3-1.2,1.4s-1.4-0.4-1.5-1.1L41.6,8c-0.1-0.7,0.4-1.5,1.1-1.6
					c0.7-0.1,1.5,0.4,1.6,1.1L47.1,23c0.7-0.6,1.5-1.1,2.5-1.3c1.8-0.5,3.8-0.1,5.6,1.1c1.7,1.1,3.1,2.9,3.7,4.8
					c0.2,0.7-0.2,1.5-0.9,1.7C57.8,29.3,57.7,29.3,57.5,29.3"/>
			</defs>
			<clipPath id="SVGID_6_">
				<use xlink:href="#SVGID_5_"  style="overflow:visible;"/>
			</clipPath>
			<rect x="36.5" y="1.4" class="st2" width="27.4" height="32.9"/>
		</g>
	</g>
</g>
</svg>
