<?xml version="1.0" encoding="utf-8"?>
<!-- Generator: Adobe Illustrator 21.0.2, SVG Export Plug-In . SVG Version: 6.00 Build 0)  -->
<svg version="1.1" id="Layer_1" xmlns="http://www.w3.org/2000/svg" xmlns:xlink="http://www.w3.org/1999/xlink" x="0px" y="0px"
	 viewBox="0 0 97.3 104" style="enable-background:new 0 0 97.3 104;" xml:space="preserve">
<style type="text/css">
	.st0{fill:#56A4C2;}
</style>
<polygon class="st0" points="52,86.1 48.7,87.5 45.3,86.1 16.5,74 0,80.9 48.7,101.3 97.3,80.9 80.8,74 "/>
<polygon class="st0" points="52,66.8 48.7,68.2 45.3,66.8 16.5,54.5 0,61.6 48.7,82.3 97.3,61.6 80.8,54.5 "/>
<path class="st0" d="M48.5,1c-7.1,0-12.9,6.1-12.9,13.7c0,7.5,12.9,27.3,12.9,27.3s12.9-19.8,12.9-27.3C61.4,7.1,55.6,1,48.5,1z
	 M48.5,20.1c-2.9,0-5.2-2.4-5.2-5.5c0-3,2.3-5.5,5.2-5.5c2.9,0,5.2,2.4,5.2,5.5C53.6,17.7,51.3,20.1,48.5,20.1z"/>
<path class="st0" d="M65.2,28.8c-1.7,2.6-3.6,5.2-5.3,7.5c5.2,1.3,8.6,3.5,8.6,6c0,4-8.9,7.3-19.8,7.3s-19.8-3.3-19.8-7.3
	c0-2.5,3.4-4.7,8.6-6c-1.7-2.3-3.6-4.9-5.3-7.5L0,42.3l48.7,20.4l48.7-20.4L65.2,28.8z"/>
</svg>
