<?xml version="1.0" encoding="UTF-8" standalone="no"?>
<!-- Generator: Adobe Illustrator 21.0.2, SVG Export Plug-In . SVG Version: 6.00 Build 0)  -->

<svg
   xmlns:dc="http://purl.org/dc/elements/1.1/"
   xmlns:cc="http://creativecommons.org/ns#"
   xmlns:rdf="http://www.w3.org/1999/02/22-rdf-syntax-ns#"
   xmlns:svg="http://www.w3.org/2000/svg"
   xmlns="http://www.w3.org/2000/svg"
   xmlns:xlink="http://www.w3.org/1999/xlink"
   xmlns:sodipodi="http://sodipodi.sourceforge.net/DTD/sodipodi-0.dtd"
   xmlns:inkscape="http://www.inkscape.org/namespaces/inkscape"
   version="1.1"
   id="Layer_1"
   x="0px"
   y="0px"
   viewBox="0 0 47.1 41"
   style="enable-background:new 0 0 47.1 41;"
   xml:space="preserve"
   inkscape:version="0.91 r13725"
   sodipodi:docname="Indicators.svg"><metadata
     id="metadata3458"><rdf:RDF><cc:Work
         rdf:about=""><dc:format>image/svg+xml</dc:format><dc:type
           rdf:resource="http://purl.org/dc/dcmitype/StillImage" /><dc:title></dc:title></cc:Work></rdf:RDF></metadata><defs
     id="defs3456" /><sodipodi:namedview
     pagecolor="#ffffff"
     bordercolor="#666666"
     borderopacity="1"
     objecttolerance="10"
     gridtolerance="10"
     guidetolerance="10"
     inkscape:pageopacity="0"
     inkscape:pageshadow="2"
     inkscape:window-width="1680"
     inkscape:window-height="986"
     id="namedview3454"
     showgrid="false"
     inkscape:zoom="18.414634"
     inkscape:cx="23.549999"
     inkscape:cy="20.5"
     inkscape:window-x="0"
     inkscape:window-y="27"
     inkscape:window-maximized="1"
     inkscape:current-layer="Layer_1" /><style
     type="text/css"
     id="style3426">
	.st0{clip-path:url(#SVGID_2_);fill:#A2D166;}
	.st1{clip-path:url(#SVGID_4_);fill:#A2D166;}
</style><g
     id="g3428"><g
       id="g3430"><g
         id="g3432"><defs
           id="defs3434"><path
             id="SVGID_1_"
             d="M23.5,0.6C11.1,0.6,1,10.7,1,23.2C1,29.6,3.7,35.7,8.4,40l0.5,0.5l1.2-1.3l1.8-1.8c0.7-0.7,0.7-1.8,0-2.4      c-0.6-0.6-1.8-0.6-2.4,0L9,35.5c-2.5-3-4-6.7-4.4-10.5h0.7C6.2,25,7,24.2,7,23.3c0-0.9-0.8-1.7-1.7-1.7H4.5      c0.3-3.9,1.9-7.5,4.4-10.5l0.5,0.5c0.6,0.6,1.8,0.6,2.4,0c0.7-0.7,0.7-1.8,0-2.4l-0.5-0.5c3-2.5,6.7-4,10.5-4.4V5      c0,0.9,0.8,1.7,1.7,1.7c0.9,0,1.7-0.8,1.7-1.7V4.2c3.9,0.3,7.5,1.9,10.5,4.4L35.3,9c-0.7,0.7-0.7,1.8,0,2.4      c0.6,0.6,1.8,0.6,2.4,0l0.5-0.5c2.5,3,4,6.7,4.4,10.5h-0.7c-0.9,0-1.7,0.8-1.7,1.7c0,0.9,0.8,1.7,1.7,1.7h0.7      c-0.3,3.9-1.9,7.6-4.4,10.5l-0.5-0.5c-0.6-0.6-1.8-0.6-2.4,0c-0.7,0.7-0.7,1.8,0,2.4l1.7,1.7l1.2,1.3l0.5-0.5      c4.7-4.3,7.4-10.4,7.4-16.8C46.1,10.7,36,0.6,23.5,0.6" /></defs><clipPath
           id="SVGID_2_"><use
             xlink:href="#SVGID_1_"
             style="overflow:visible;"
             id="use3438" /></clipPath><rect
           x="-4"
           y="-4.4"
           class="st0"
           width="55.1"
           height="49.8"
           id="rect3440"
           clip-path="url(#SVGID_2_)" /></g></g><g
       id="g3442"><g
         id="g3444"><defs
           id="defs3446"><path
             id="SVGID_3_"
             d="M23.2,19.5l-10.1-7.9l-0.3,0.3l7,10.8c-0.4,1.5-0.1,3.1,1,4.3c1.7,1.8,4.5,2,6.3,0.3s2-4.5,0.3-6.4      C26.3,19.6,24.7,19.2,23.2,19.5" /></defs><clipPath
           id="SVGID_4_"><use
             xlink:href="#SVGID_3_"
             style="overflow:visible;"
             id="use3450" /></clipPath><rect
           x="7.8"
           y="6.6"
           class="st1"
           width="25.8"
           height="26.8"
           id="rect3452"
           clip-path="url(#SVGID_4_)" /></g></g></g><path
     style="fill:#a0a0a0;stroke:none;stroke-width:1px;stroke-linecap:butt;stroke-linejoin:miter;stroke-opacity:1"
     d="M 7.9460069,39.526956 C 6.6064945,38.202344 5.7799411,37.209643 4.8317979,35.786755 0.29179407,28.973523 -0.2220908,20.167037 3.4965557,12.904603 5.4264689,9.135525 8.3706903,5.9855771 12.003915,3.8027932 c 2.736321,-1.643938 5.687365,-2.6368833 9.075223,-3.05356429 1.081854,-0.1330598 3.756585,-0.13161655 4.88718,0.002637 1.741338,0.20677684 3.166288,0.52036243 4.724741,1.03976293 5.246695,1.7486158 9.718392,5.4058054 12.466817,10.1960211 4.763418,8.302136 3.605826,18.781558 -2.880873,26.0799 -0.26546,0.298675 -0.839537,0.895612 -1.275727,1.326526 l -0.793071,0.78348 -0.443553,-0.484804 c -0.243954,-0.266643 -0.973404,-1.022421 -1.621002,-1.679507 -1.086055,-1.101969 -1.184246,-1.217597 -1.26502,-1.489658 -0.108871,-0.366695 -0.110569,-0.612525 -0.0067,-0.96246 0.15247,-0.513421 0.609494,-0.983065 1.081422,-1.111283 0.328326,-0.0892 0.84763,-0.07439 1.172272,0.03344 0.209914,0.06972 0.389967,0.193979 0.679208,0.468729 l 0.393574,0.373857 0.243757,-0.285451 c 0.359583,-0.421089 1.132272,-1.492504 1.489485,-2.065327 0.465899,-0.747109 1.207717,-2.24875 1.527778,-3.092635 0.532678,-1.404478 0.885605,-2.803705 1.069425,-4.239873 0.119159,-0.930981 0.168317,-0.83627 -0.447445,-0.86206 -0.632398,-0.02648 -1.01919,-0.177276 -1.362713,-0.531252 -0.344459,-0.354942 -0.470272,-0.661502 -0.468945,-1.142648 0.0014,-0.503357 0.130145,-0.812935 0.486189,-1.168979 0.371023,-0.371023 0.649797,-0.477262 1.323779,-0.504485 l 0.562085,-0.0227 -0.03595,-0.30589 c -0.379927,-3.233038 -1.626213,-6.450219 -3.536824,-9.130007 -0.219304,-0.307591 -0.499914,-0.67925 -0.623579,-0.825909 l -0.224845,-0.266653 -0.334703,0.321399 c -0.518845,0.49822 -0.712677,0.580718 -1.364299,0.580668 -0.485174,-3.7e-5 -0.572697,-0.01568 -0.821268,-0.146767 -0.587065,-0.3096 -0.936621,-0.926957 -0.873137,-1.542062 0.04357,-0.4221121 0.211275,-0.7455097 0.59248,-1.1424951 0.291601,-0.3036721 0.328705,-0.3639812 0.25719,-0.418042 C 35.610956,8.4999517 35.366787,8.3098518 35.114323,8.1122535 32.866832,6.35319 30.162391,5.0785273 27.480671,4.5143438 26.752338,4.361116 25.71463,4.2086093 25.40035,4.2086093 l -0.20949,0 -0.02198,0.6109271 c -0.01904,0.529402 -0.04116,0.6479403 -0.165771,0.8882934 -0.181818,0.3507098 -0.61806,0.7458814 -0.947209,0.8580335 -0.324192,0.1104637 -0.796227,0.1104637 -1.120419,0 C 22.588934,6.4477816 22.176832,6.0635448 21.992371,5.6865182 21.863906,5.4239463 21.838107,5.294175 21.820657,4.8227879 l -0.02053,-0.5547331 -0.143274,0.023211 c -0.0788,0.012766 -0.412082,0.0622 -0.740625,0.109854 -3.264832,0.4735512 -6.512294,1.8542855 -9.107938,3.8724521 l -0.527806,0.4103801 0.370627,0.3825278 c 0.505045,0.5212626 0.623416,0.7624664 0.627449,1.2785537 0.0038,0.485711 -0.15791,0.890634 -0.487162,1.219886 -0.32671,0.32671 -0.619922,0.433168 -1.19305,0.433168 -0.6139262,0 -0.8482909,-0.0986 -1.3500489,-0.567967 C 9.0385852,11.233946 8.8635554,11.109321 8.8374094,11.13756 8.4103756,11.598773 7.3662631,13.113956 6.821687,14.062713 5.5767371,16.231655 4.734756,18.85017 4.5116855,21.246689 l -0.036647,0.393708 0.5956941,0 c 0.5548122,0 0.618339,0.01132 0.9256565,0.164884 0.6213584,0.310497 0.9606054,0.837202 0.9606054,1.491408 0,0.455732 -0.127869,0.775251 -0.4501865,1.124924 -0.3597682,0.390303 -0.6405966,0.501035 -1.3253519,0.522596 l -0.5837748,0.01838 5.75e-4,0.144534 c 3.15e-4,0.07949 0.047973,0.451572 0.1059029,0.826843 0.5098784,3.302979 1.8212894,6.381588 3.8442734,9.024643 0.2228901,0.291209 0.4173267,0.52947 0.4320813,0.52947 0.014755,0 0.1987115,-0.159139 0.4087934,-0.353642 0.3204071,-0.296648 0.4430145,-0.372185 0.7607656,-0.468699 0.689388,-0.209395 1.343506,-0.04317 1.822304,0.46309 0.316306,0.334446 0.415212,0.58939 0.413252,1.065212 -0.0027,0.651536 -0.08619,0.767169 -1.869694,2.58904 -0.8720051,0.890763 -1.6014527,1.625767 -1.6209948,1.633343 -0.019543,0.0076 -0.4465622,-0.392685 -0.9489333,-0.889467 z"
     id="path3460"
     inkscape:connector-curvature="0" /><path
     style="fill:#a0a0a0;stroke:none;stroke-width:1px;stroke-linecap:butt;stroke-linejoin:miter;stroke-opacity:1"
     d="m 23.197019,28.33834 c -1.645638,-0.351878 -2.963193,-1.611752 -3.398376,-3.249598 -0.139834,-0.526277 -0.167708,-1.503949 -0.05831,-2.045163 l 0.07312,-0.36172 -3.354106,-5.177353 c -1.844759,-2.847545 -3.415254,-5.270381 -3.489991,-5.384081 l -0.135884,-0.206726 0.13928,-0.13928 0.13928,-0.13928 5.041486,3.943792 c 4.98404,3.898852 5.043664,3.943326 5.232561,3.90296 0.374856,-0.0801 1.41654,-0.0311 1.862935,0.08764 1.202821,0.319944 2.280647,1.239646 2.84058,2.423847 0.350884,0.742085 0.423988,1.073579 0.425145,1.927815 8.15e-4,0.600856 -0.02127,0.811487 -0.122417,1.16755 -0.261019,0.918863 -0.787922,1.750411 -1.490872,2.352862 -0.411769,0.3529 -1.279094,0.78363 -1.814488,0.90111 -0.486685,0.106791 -1.379721,0.104725 -1.889942,-0.0044 l 0,-2e-6 z"
     id="path3462"
     inkscape:connector-curvature="0" /><path
     style="color:#000000;clip-rule:nonzero;display:inline;overflow:visible;visibility:visible;opacity:1;isolation:auto;mix-blend-mode:normal;color-interpolation:sRGB;color-interpolation-filters:linearRGB;solid-color:#000000;solid-opacity:1;fill:#a0a0a0;fill-opacity:1;fill-rule:nonzero;stroke:none;stroke-width:1px;stroke-linecap:butt;stroke-linejoin:miter;stroke-miterlimit:4;stroke-dasharray:none;stroke-dashoffset:0;stroke-opacity:1;color-rendering:auto;image-rendering:auto;shape-rendering:auto;text-rendering:auto;enable-background:accumulate"
     d="m 23.539692,28.374844 c -0.76358,-0.09536 -1.469508,-0.392531 -2.137994,-0.900022 -0.831097,-0.63094 -1.436304,-1.603695 -1.631081,-2.621652 -0.09211,-0.481378 -0.09865,-1.291301 -0.01454,-1.800584 l 0.0617,-0.373633 -0.289369,-0.451397 c -0.159153,-0.248268 -1.728404,-2.67267 -3.487223,-5.387558 l -3.197854,-4.936161 0.131285,-0.131285 0.131286,-0.131285 1.515757,1.186988 c 7.391807,5.788517 8.49753,6.638032 8.646534,6.643041 0.05046,0.0017 0.360547,8.31e-4 0.68909,-0.0019 0.890483,-0.0075 1.412864,0.101594 2.068699,0.4319 0.919908,0.463304 1.623247,1.200977 2.085414,2.187216 0.297927,0.635761 0.378569,1.026217 0.379521,1.837595 9.02e-4,0.766334 -0.09562,1.251618 -0.36875,1.853991 -0.827704,1.825464 -2.619314,2.839941 -4.582476,2.594772 l 0,2e-6 z"
     id="path3483"
     inkscape:connector-curvature="0" /></svg>