<?xml version="1.0" encoding="UTF-8" standalone="no"?>
<!-- Generator: Adobe Illustrator 21.0.2, SVG Export Plug-In . SVG Version: 6.00 Build 0)  -->

<svg
   xmlns:dc="http://purl.org/dc/elements/1.1/"
   xmlns:cc="http://creativecommons.org/ns#"
   xmlns:rdf="http://www.w3.org/1999/02/22-rdf-syntax-ns#"
   xmlns:svg="http://www.w3.org/2000/svg"
   xmlns="http://www.w3.org/2000/svg"
   xmlns:xlink="http://www.w3.org/1999/xlink"
   xmlns:sodipodi="http://sodipodi.sourceforge.net/DTD/sodipodi-0.dtd"
   xmlns:inkscape="http://www.inkscape.org/namespaces/inkscape"
   version="1.1"
   id="Layer_1"
   x="0px"
   y="0px"
   viewBox="0 0 47.1 41"
   style="enable-background:new 0 0 47.1 41;"
   xml:space="preserve"
   inkscape:version="0.91 r13725"
   sodipodi:docname="Indicatorsactive.svg"><metadata
     id="metadata3458"><rdf:RDF><cc:Work
         rdf:about=""><dc:format>image/svg+xml</dc:format><dc:type
           rdf:resource="http://purl.org/dc/dcmitype/StillImage" /><dc:title></dc:title></cc:Work></rdf:RDF></metadata><defs
     id="defs3456" /><sodipodi:namedview
     pagecolor="#ffffff"
     bordercolor="#666666"
     borderopacity="1"
     objecttolerance="10"
     gridtolerance="10"
     guidetolerance="10"
     inkscape:pageopacity="0"
     inkscape:pageshadow="2"
     inkscape:window-width="1680"
     inkscape:window-height="986"
     id="namedview3454"
     showgrid="false"
     inkscape:zoom="18.414634"
     inkscape:cx="15.024171"
     inkscape:cy="20.5"
     inkscape:window-x="0"
     inkscape:window-y="27"
     inkscape:window-maximized="1"
     inkscape:current-layer="Layer_1" /><style
     type="text/css"
     id="style3426">
	.st0{clip-path:url(#SVGID_2_);fill:#A2D166;}
	.st1{clip-path:url(#SVGID_4_);fill:#A2D166;}
</style><g
     id="g3428"><g
       id="g3430"><g
         id="g3432"><defs
           id="defs3434"><path
             id="SVGID_1_"
             d="M23.5,0.6C11.1,0.6,1,10.7,1,23.2C1,29.6,3.7,35.7,8.4,40l0.5,0.5l1.2-1.3l1.8-1.8c0.7-0.7,0.7-1.8,0-2.4      c-0.6-0.6-1.8-0.6-2.4,0L9,35.5c-2.5-3-4-6.7-4.4-10.5h0.7C6.2,25,7,24.2,7,23.3c0-0.9-0.8-1.7-1.7-1.7H4.5      c0.3-3.9,1.9-7.5,4.4-10.5l0.5,0.5c0.6,0.6,1.8,0.6,2.4,0c0.7-0.7,0.7-1.8,0-2.4l-0.5-0.5c3-2.5,6.7-4,10.5-4.4V5      c0,0.9,0.8,1.7,1.7,1.7c0.9,0,1.7-0.8,1.7-1.7V4.2c3.9,0.3,7.5,1.9,10.5,4.4L35.3,9c-0.7,0.7-0.7,1.8,0,2.4      c0.6,0.6,1.8,0.6,2.4,0l0.5-0.5c2.5,3,4,6.7,4.4,10.5h-0.7c-0.9,0-1.7,0.8-1.7,1.7c0,0.9,0.8,1.7,1.7,1.7h0.7      c-0.3,3.9-1.9,7.6-4.4,10.5l-0.5-0.5c-0.6-0.6-1.8-0.6-2.4,0c-0.7,0.7-0.7,1.8,0,2.4l1.7,1.7l1.2,1.3l0.5-0.5      c4.7-4.3,7.4-10.4,7.4-16.8C46.1,10.7,36,0.6,23.5,0.6" /></defs><clipPath
           id="SVGID_2_"><use
             xlink:href="#SVGID_1_"
             style="overflow:visible;"
             id="use3438" /></clipPath><rect
           x="-4"
           y="-4.4"
           class="st0"
           width="55.1"
           height="49.8"
           id="rect3440"
           clip-path="url(#SVGID_2_)" /></g></g><g
       id="g3442"><g
         id="g3444"><defs
           id="defs3446"><path
             id="SVGID_3_"
             d="M23.2,19.5l-10.1-7.9l-0.3,0.3l7,10.8c-0.4,1.5-0.1,3.1,1,4.3c1.7,1.8,4.5,2,6.3,0.3s2-4.5,0.3-6.4      C26.3,19.6,24.7,19.2,23.2,19.5" /></defs><clipPath
           id="SVGID_4_"><use
             xlink:href="#SVGID_3_"
             style="overflow:visible;"
             id="use3450" /></clipPath><rect
           x="7.8"
           y="6.6"
           class="st1"
           width="25.8"
           height="26.8"
           id="rect3452"
           clip-path="url(#SVGID_4_)" /></g></g></g><path
     style="fill:#00aeff;stroke:none;stroke-width:1px;stroke-linecap:butt;stroke-linejoin:miter;stroke-opacity:1;fill-opacity:0"
     d="M 7.9460069,39.526956 C 6.6064945,38.202344 5.7799411,37.209643 4.8317979,35.786755 0.29179407,28.973523 -0.2220908,20.167037 3.4965557,12.904603 5.4264689,9.135525 8.3706903,5.9855771 12.003915,3.8027932 c 2.736321,-1.643938 5.687365,-2.6368833 9.075223,-3.05356429 1.081854,-0.1330598 3.756585,-0.13161655 4.88718,0.002637 1.741338,0.20677684 3.166288,0.52036243 4.724741,1.03976293 5.246695,1.7486158 9.718392,5.4058054 12.466817,10.1960211 4.763418,8.302136 3.605826,18.781558 -2.880873,26.0799 -0.26546,0.298675 -0.839537,0.895612 -1.275727,1.326526 l -0.793071,0.78348 -0.443553,-0.484804 c -0.243954,-0.266643 -0.973404,-1.022421 -1.621002,-1.679507 -1.086055,-1.101969 -1.184246,-1.217597 -1.26502,-1.489658 -0.108871,-0.366695 -0.110569,-0.612525 -0.0067,-0.96246 0.15247,-0.513421 0.609494,-0.983065 1.081422,-1.111283 0.328326,-0.0892 0.84763,-0.07439 1.172272,0.03344 0.209914,0.06972 0.389967,0.193979 0.679208,0.468729 l 0.393574,0.373857 0.243757,-0.285451 c 0.359583,-0.421089 1.132272,-1.492504 1.489485,-2.065327 0.465899,-0.747109 1.207717,-2.24875 1.527778,-3.092635 0.532678,-1.404478 0.885605,-2.803705 1.069425,-4.239873 0.119159,-0.930981 0.168317,-0.83627 -0.447445,-0.86206 -0.632398,-0.02648 -1.01919,-0.177276 -1.362713,-0.531252 -0.344459,-0.354942 -0.470272,-0.661502 -0.468945,-1.142648 0.0014,-0.503357 0.130145,-0.812935 0.486189,-1.168979 0.371023,-0.371023 0.649797,-0.477262 1.323779,-0.504485 l 0.562085,-0.0227 -0.03595,-0.30589 c -0.379927,-3.233038 -1.626213,-6.450219 -3.536824,-9.130007 -0.219304,-0.307591 -0.499914,-0.67925 -0.623579,-0.825909 l -0.224845,-0.266653 -0.334703,0.321399 c -0.518845,0.49822 -0.712677,0.580718 -1.364299,0.580668 -0.485174,-3.7e-5 -0.572697,-0.01568 -0.821268,-0.146767 -0.587065,-0.3096 -0.936621,-0.926957 -0.873137,-1.542062 0.04357,-0.4221121 0.211275,-0.7455097 0.59248,-1.1424951 0.291601,-0.3036721 0.328705,-0.3639812 0.25719,-0.418042 C 35.610956,8.4999517 35.366787,8.3098518 35.114323,8.1122535 32.866832,6.35319 30.162391,5.0785273 27.480671,4.5143438 26.752338,4.361116 25.71463,4.2086093 25.40035,4.2086093 l -0.20949,0 -0.02198,0.6109271 c -0.01904,0.529402 -0.04116,0.6479403 -0.165771,0.8882934 -0.181818,0.3507098 -0.61806,0.7458814 -0.947209,0.8580335 -0.324192,0.1104637 -0.796227,0.1104637 -1.120419,0 C 22.588934,6.4477816 22.176832,6.0635448 21.992371,5.6865182 21.863906,5.4239463 21.838107,5.294175 21.820657,4.8227879 l -0.02053,-0.5547331 -0.143274,0.023211 c -0.0788,0.012766 -0.412082,0.0622 -0.740625,0.109854 -3.264832,0.4735512 -6.512294,1.8542855 -9.107938,3.8724521 l -0.527806,0.4103801 0.370627,0.3825278 c 0.505045,0.5212626 0.623416,0.7624664 0.627449,1.2785537 0.0038,0.485711 -0.15791,0.890634 -0.487162,1.219886 -0.32671,0.32671 -0.619922,0.433168 -1.19305,0.433168 -0.6139262,0 -0.8482909,-0.0986 -1.3500489,-0.567967 C 9.0385852,11.233946 8.8635554,11.109321 8.8374094,11.13756 8.4103756,11.598773 7.3662631,13.113956 6.821687,14.062713 5.5767371,16.231655 4.734756,18.85017 4.5116855,21.246689 l -0.036647,0.393708 0.5956941,0 c 0.5548122,0 0.618339,0.01132 0.9256565,0.164884 0.6213584,0.310497 0.9606054,0.837202 0.9606054,1.491408 0,0.455732 -0.127869,0.775251 -0.4501865,1.124924 -0.3597682,0.390303 -0.6405966,0.501035 -1.3253519,0.522596 l -0.5837748,0.01838 5.75e-4,0.144534 c 3.15e-4,0.07949 0.047973,0.451572 0.1059029,0.826843 0.5098784,3.302979 1.8212894,6.381588 3.8442734,9.024643 0.2228901,0.291209 0.4173267,0.52947 0.4320813,0.52947 0.014755,0 0.1987115,-0.159139 0.4087934,-0.353642 0.3204071,-0.296648 0.4430145,-0.372185 0.7607656,-0.468699 0.689388,-0.209395 1.343506,-0.04317 1.822304,0.46309 0.316306,0.334446 0.415212,0.58939 0.413252,1.065212 -0.0027,0.651536 -0.08619,0.767169 -1.869694,2.58904 -0.8720051,0.890763 -1.6014527,1.625767 -1.6209948,1.633343 -0.019543,0.0076 -0.4465622,-0.392685 -0.9489333,-0.889467 z"
     id="path3460"
     inkscape:connector-curvature="0" /><path
     style="fill:#a0a0a0;stroke:none;stroke-width:1px;stroke-linecap:butt;stroke-linejoin:miter;stroke-opacity:1"
     d="m 23.197019,28.33834 c -1.645638,-0.351878 -2.963193,-1.611752 -3.398376,-3.249598 -0.139834,-0.526277 -0.167708,-1.503949 -0.05831,-2.045163 l 0.07312,-0.36172 -3.354106,-5.177353 c -1.844759,-2.847545 -3.415254,-5.270381 -3.489991,-5.384081 l -0.135884,-0.206726 0.13928,-0.13928 0.13928,-0.13928 5.041486,3.943792 c 4.98404,3.898852 5.043664,3.943326 5.232561,3.90296 0.374856,-0.0801 1.41654,-0.0311 1.862935,0.08764 1.202821,0.319944 2.280647,1.239646 2.84058,2.423847 0.350884,0.742085 0.423988,1.073579 0.425145,1.927815 8.15e-4,0.600856 -0.02127,0.811487 -0.122417,1.16755 -0.261019,0.918863 -0.787922,1.750411 -1.490872,2.352862 -0.411769,0.3529 -1.279094,0.78363 -1.814488,0.90111 -0.486685,0.106791 -1.379721,0.104725 -1.889942,-0.0044 l 0,-2e-6 z"
     id="path3462"
     inkscape:connector-curvature="0" /><path
     style="color:#000000;clip-rule:nonzero;display:inline;overflow:visible;visibility:visible;opacity:1;isolation:auto;mix-blend-mode:normal;color-interpolation:sRGB;color-interpolation-filters:linearRGB;solid-color:#000000;solid-opacity:1;fill:#00aeff;fill-opacity:0;fill-rule:nonzero;stroke:none;stroke-width:1px;stroke-linecap:butt;stroke-linejoin:miter;stroke-miterlimit:4;stroke-dasharray:none;stroke-dashoffset:0;stroke-opacity:1;color-rendering:auto;image-rendering:auto;shape-rendering:auto;text-rendering:auto;enable-background:accumulate"
     d="m 23.539692,28.374844 c -0.76358,-0.09536 -1.469508,-0.392531 -2.137994,-0.900022 -0.831097,-0.63094 -1.436304,-1.603695 -1.631081,-2.621652 -0.09211,-0.481378 -0.09865,-1.291301 -0.01454,-1.800584 l 0.0617,-0.373633 -0.289369,-0.451397 c -0.159153,-0.248268 -1.728404,-2.67267 -3.487223,-5.387558 l -3.197854,-4.936161 0.131285,-0.131285 0.131286,-0.131285 1.515757,1.186988 c 7.391807,5.788517 8.49753,6.638032 8.646534,6.643041 0.05046,0.0017 0.360547,8.31e-4 0.68909,-0.0019 0.890483,-0.0075 1.412864,0.101594 2.068699,0.4319 0.919908,0.463304 1.623247,1.200977 2.085414,2.187216 0.297927,0.635761 0.378569,1.026217 0.379521,1.837595 9.02e-4,0.766334 -0.09562,1.251618 -0.36875,1.853991 -0.827704,1.825464 -2.619314,2.839941 -4.582476,2.594772 l 0,2e-6 z"
     id="path3483"
     inkscape:connector-curvature="0" /><path
     style="color:#000000;clip-rule:nonzero;display:inline;overflow:visible;visibility:visible;opacity:1;isolation:auto;mix-blend-mode:normal;color-interpolation:sRGB;color-interpolation-filters:linearRGB;solid-color:#000000;solid-opacity:1;fill:#00aeff;fill-opacity:0;fill-rule:nonzero;stroke:none;stroke-width:1px;stroke-linecap:butt;stroke-linejoin:miter;stroke-miterlimit:4;stroke-dasharray:none;stroke-dashoffset:0;stroke-opacity:1;color-rendering:auto;image-rendering:auto;shape-rendering:auto;text-rendering:auto;enable-background:accumulate"
     d="M 8.0455413,39.601656 C 6.2971242,37.881931 5.0833267,36.321096 3.9808545,34.374834 1.1137887,29.313427 0.30346696,23.198151 1.752499,17.558047 3.0250981,12.604677 5.9700154,8.2026707 10.066158,5.1309464 13.205273,2.7769031 16.498854,1.4381158 20.709867,0.80445043 c 0.959712,-0.14441573 4.631234,-0.14381015 5.62053,9.2705e-4 1.546914,0.22631862 2.555588,0.44310702 3.745867,0.80507712 0.667868,0.2031023 1.873273,0.6379935 2.241219,0.8085971 l 0.149337,0.069243 0,1.9190979 c 0,1.0555038 -0.01266,1.9190979 -0.02814,1.9190979 -0.01548,0 -0.265956,-0.1191944 -0.556622,-0.2648769 -1.97135,-0.9880429 -4.417342,-1.7086067 -6.235513,-1.8369169 l -0.439514,-0.031017 -0.03567,0.3412588 c -0.01962,0.1876924 -0.03591,0.4537503 -0.0362,0.5912398 -7.38e-4,0.3486718 -0.200966,0.74272 -0.535679,1.0542256 -0.37525,0.3492304 -0.594474,0.4371659 -1.092929,0.438397 -0.492659,0.00122 -0.809008,-0.1238346 -1.133067,-0.4478938 -0.374135,-0.3741344 -0.504371,-0.7009506 -0.537426,-1.3486235 -0.0157,-0.3076531 -0.04167,-0.5593693 -0.05772,-0.5593693 -0.01604,0 -0.433353,0.062983 -0.927358,0.1399622 -3.057352,0.4764173 -6.007631,1.6736644 -8.457781,3.4322358 -0.362838,0.2604234 -0.759997,0.5590272 -0.882576,0.6635636 l -0.222872,0.1900662 0.379511,0.42211 c 0.466946,0.5193597 0.550963,0.6773574 0.584879,1.0998883 0.05186,0.646061 -0.240957,1.244077 -0.769014,1.57055 -0.235074,0.145335 -0.318662,0.164672 -0.794429,0.183781 -0.479764,0.01927 -0.560025,0.008 -0.821501,-0.114926 C 9.7078214,11.77519 9.4221285,11.576065 9.2323317,11.407646 8.9497597,11.1569 8.872949,11.113295 8.8083167,11.166935 8.663811,11.286864 7.99534,12.208737 7.474798,13.00596 5.7390742,15.664265 4.8422561,18.181163 4.4827315,21.403125 l -0.02503,0.224316 0.6320432,0.02267 c 0.5702618,0.02046 0.6600389,0.03793 0.9184497,0.178735 0.4059949,0.221223 0.7451409,0.60235 0.8498962,0.955098 0.18819,0.633704 0.069691,1.135133 -0.3840875,1.625268 -0.3566034,0.385174 -0.5881631,0.476385 -1.3334009,0.525223 l -0.5320594,0.03487 1.06e-5,0.222632 c 1.62e-5,0.337728 0.1991846,1.48809 0.4068012,2.349612 0.548802,2.277299 1.4907648,4.441627 2.7612826,6.344543 0.3748687,0.561458 1.0935683,1.523718 1.1761792,1.574774 0.030729,0.01899 0.220491,-0.114182 0.4216929,-0.295942 0.4525124,-0.408787 0.8080192,-0.555858 1.3463642,-0.556985 0.524985,-0.0011 0.862824,0.149907 1.235178,0.552093 0.312687,0.33774 0.41823,0.593708 0.417751,1.013155 -4.89e-4,0.419302 -0.0905,0.643171 -0.428514,1.065687 -0.369932,0.462407 -2.9769393,3.136622 -3.0577946,3.136622 -0.03036,0 -0.4092386,-0.348229 -0.8419521,-0.773841 z"
     id="path4285"
     inkscape:connector-curvature="0" /><path
     style="color:#000000;clip-rule:nonzero;display:inline;overflow:visible;visibility:visible;opacity:1;isolation:auto;mix-blend-mode:normal;color-interpolation:sRGB;color-interpolation-filters:linearRGB;solid-color:#000000;solid-opacity:1;fill:#00aeff;fill-opacity:0;fill-rule:nonzero;stroke:none;stroke-width:1px;stroke-linecap:butt;stroke-linejoin:miter;stroke-miterlimit:4;stroke-dasharray:none;stroke-dashoffset:0;stroke-opacity:1;color-rendering:auto;image-rendering:auto;shape-rendering:auto;text-rendering:auto;enable-background:accumulate"
     d="m 23.520621,28.371844 c -1.062452,-0.132291 -2.14539,-0.73791 -2.841269,-1.588943 -0.345492,-0.422523 -0.77597,-1.301299 -0.888358,-1.813489 -0.10088,-0.459746 -0.114378,-1.539276 -0.02482,-1.985208 l 0.06094,-0.303447 -3.489991,-5.384928 -3.489992,-5.384928 0.132122,-0.132122 0.132122,-0.132121 2.441631,1.910942 c 4.163767,3.258772 7.046274,5.494134 7.370141,5.715489 l 0.310416,0.212163 0.665968,-0.0107 c 1.148602,-0.01845 1.919441,0.200973 2.724694,0.77559 0.86472,0.617051 1.580503,1.703989 1.797947,2.730236 0.116357,0.549159 0.103556,1.482949 -0.02748,2.00464 -0.231137,0.92021 -0.880288,1.955911 -1.563505,2.494522 -0.370215,0.291857 -1.169679,0.69515 -1.600444,0.80735 -0.406282,0.105823 -1.218465,0.146168 -1.71012,0.08495 z"
     id="path4289"
     inkscape:connector-curvature="0" /><path
     style="color:#000000;clip-rule:nonzero;display:inline;overflow:visible;visibility:visible;opacity:1;isolation:auto;mix-blend-mode:normal;color-interpolation:sRGB;color-interpolation-filters:linearRGB;solid-color:#000000;solid-opacity:1;fill:#a0a0a0;fill-opacity:1;fill-rule:nonzero;stroke:none;stroke-width:1px;stroke-linecap:butt;stroke-linejoin:miter;stroke-miterlimit:4;stroke-dasharray:none;stroke-dashoffset:0;stroke-opacity:1;color-rendering:auto;image-rendering:auto;shape-rendering:auto;text-rendering:auto;enable-background:accumulate"
     d="m 23.520621,28.371844 c -1.062452,-0.132291 -2.14539,-0.73791 -2.841269,-1.588943 -0.345492,-0.422523 -0.77597,-1.301299 -0.888358,-1.813489 -0.10088,-0.459746 -0.114378,-1.539276 -0.02482,-1.985208 l 0.06094,-0.303447 -3.489991,-5.384928 -3.489992,-5.384928 0.132122,-0.132122 0.132122,-0.132121 2.441631,1.910942 c 4.163767,3.258772 7.046274,5.494134 7.370141,5.715489 l 0.310416,0.212163 0.665968,-0.0107 c 1.148602,-0.01845 1.919441,0.200973 2.724694,0.77559 0.86472,0.617051 1.580503,1.703989 1.797947,2.730236 0.116357,0.549159 0.103556,1.482949 -0.02748,2.00464 -0.231137,0.92021 -0.880288,1.955911 -1.563505,2.494522 -0.370215,0.291857 -1.169679,0.69515 -1.600444,0.80735 -0.406282,0.105823 -1.218465,0.146168 -1.71012,0.08495 z"
     id="path4291"
     inkscape:connector-curvature="0" /><path
     style="color:#000000;clip-rule:nonzero;display:inline;overflow:visible;visibility:visible;opacity:1;isolation:auto;mix-blend-mode:normal;color-interpolation:sRGB;color-interpolation-filters:linearRGB;solid-color:#000000;solid-opacity:1;fill:#00adff;fill-opacity:1;fill-rule:nonzero;stroke:none;stroke-width:1px;stroke-linecap:butt;stroke-linejoin:miter;stroke-miterlimit:4;stroke-dasharray:none;stroke-dashoffset:0;stroke-opacity:1;color-rendering:auto;image-rendering:auto;shape-rendering:auto;text-rendering:auto;enable-background:accumulate"
     d="M 7.8870348,39.465894 C 6.8437645,38.432633 6.1457915,37.630807 5.4093042,36.619497 2.4296523,32.527978 0.89951801,27.622256 1.0420879,22.617881 c 0.037612,-1.320232 0.090071,-1.891098 0.2844445,-3.095364 0.991062,-6.14026 4.551263,-11.665731 9.7442616,-15.123201 3.054569,-2.0337153 6.204124,-3.1833446 9.992053,-3.64723204 0.980326,-0.12005528 3.651064,-0.13725809 4.643046,-0.0299069 2.187299,0.23670708 4.362068,0.76614493 6.217881,1.51371573 l 0.515894,0.2078158 0.01431,1.9549669 0.01431,1.9549669 -0.812603,-0.3958356 C 29.917306,5.1110071 28.114308,4.5579591 26.221787,4.2910241 25.908178,4.2467903 25.55087,4.2101513 25.427769,4.2096041 l -0.223819,-9.948e-4 -0.02475,0.5837748 c -0.02874,0.67783 -0.127642,0.957717 -0.469479,1.3285667 -0.302199,0.327848 -0.656653,0.4954315 -1.103595,0.5217736 C 23.121689,6.6712762 22.771881,6.5506754 22.419075,6.2334727 21.984874,5.8430883 21.86035,5.5482933 21.833482,4.8471579 21.811944,4.2851225 21.806892,4.2647292 21.694935,4.2879041 c -0.06391,0.013229 -0.336128,0.052341 -0.604936,0.086916 -3.385922,0.4355097 -7.097452,2.0484911 -9.666225,4.2008119 L 11.26086,8.712134 11.662458,9.1050785 c 0.495422,0.4847471 0.623966,0.7457846 0.623966,1.2671065 0,0.45959 -0.127746,0.778683 -0.453003,1.131545 -0.344135,0.373343 -0.636065,0.491321 -1.224216,0.494747 -0.6125296,0.0036 -0.8717756,-0.104917 -1.3514712,-0.565544 -0.1876584,-0.1802 -0.3551676,-0.327635 -0.3722426,-0.327635 -0.046883,0 -0.9560081,1.209464 -1.3266334,1.764901 -1.2912568,1.93514 -2.2449402,4.15627 -2.728054,6.353642 -0.1288022,0.585838 -0.3301649,1.930297 -0.3305765,2.207194 l -2.943e-4,0.197923 0.6380795,0.02026 c 0.5835564,0.01852 0.6627603,0.03385 0.9269178,0.179299 0.4669372,0.257109 0.7646352,0.66823 0.8827798,1.219121 0.1078251,0.50277 -0.174377,1.209616 -0.6180286,1.548005 -0.3643139,0.277876 -0.6235523,0.354869 -1.1991594,0.356148 l -0.5369605,0.0012 0.03798,0.420861 c 0.020889,0.231474 0.096983,0.74072 0.1690973,1.131659 0.5744035,3.113879 1.8704057,6.031679 3.7666861,8.480262 0.2139586,0.276275 0.4044968,0.502318 0.4234181,0.502318 0.018922,0 0.1879419,-0.147436 0.3756002,-0.327635 0.4674782,-0.448896 0.739335,-0.564664 1.324318,-0.563954 0.560032,6.79e-4 0.903767,0.132234 1.238199,0.473883 0.433951,0.443317 0.565494,1.057532 0.359839,1.68021 -0.0831,0.251615 -0.225943,0.419391 -1.213707,1.425575 -0.615736,0.627219 -1.3484773,1.390878 -1.6283145,1.69702 -0.2798372,0.306142 -0.5262554,0.556622 -0.5475965,0.556622 -0.021341,0 -0.4767616,-0.433758 -1.0120462,-0.963907 l 0,-2e-6 z"
     id="path4293"
     inkscape:connector-curvature="0" /><path
     style="color:#000000;clip-rule:nonzero;display:inline;overflow:visible;visibility:visible;opacity:1;isolation:auto;mix-blend-mode:normal;color-interpolation:sRGB;color-interpolation-filters:linearRGB;solid-color:#000000;solid-opacity:1;fill:#a0a0a0;fill-opacity:1;fill-rule:nonzero;stroke:none;stroke-width:1px;stroke-linecap:butt;stroke-linejoin:miter;stroke-miterlimit:4;stroke-dasharray:none;stroke-dashoffset:0;stroke-opacity:1;color-rendering:auto;image-rendering:auto;shape-rendering:auto;text-rendering:auto;enable-background:accumulate"
     d="m 23.425099,28.372502 c -1.149487,-0.177299 -2.289497,-0.896201 -2.953374,-1.862429 -0.271555,-0.39523 -0.600055,-1.13358 -0.687111,-1.544381 -0.09142,-0.431395 -0.104402,-1.628455 -0.02184,-2.013453 l 0.05755,-0.268339 -3.453762,-5.328934 c -1.899569,-2.930913 -3.465722,-5.360103 -3.480341,-5.398199 -0.01462,-0.03809 0.03178,-0.124093 0.103114,-0.191105 l 0.129693,-0.12184 1.758993,1.375472 c 4.40748,3.446497 6.763025,5.280658 7.501984,5.841472 l 0.800404,0.607446 0.728493,0 c 0.890377,0 1.443034,0.09881 1.980692,0.354148 1.125106,0.53431 1.955731,1.464848 2.417318,2.708087 0.157596,0.42447 0.163606,0.473836 0.166015,1.363593 0.0028,1.036923 -0.04954,1.276225 -0.455994,2.084517 -0.555938,1.105566 -1.389488,1.830592 -2.573993,2.238874 -0.360265,0.124178 -0.573854,0.160118 -1.071013,0.180219 -0.341553,0.01381 -0.767627,0.0025 -0.946832,-0.02515 z"
     id="path4295"
     inkscape:connector-curvature="0" /><path
     style="color:#000000;clip-rule:nonzero;display:inline;overflow:visible;visibility:visible;opacity:1;isolation:auto;mix-blend-mode:normal;color-interpolation:sRGB;color-interpolation-filters:linearRGB;solid-color:#000000;solid-opacity:1;fill:#00aeff;fill-opacity:1;fill-rule:nonzero;stroke:none;stroke-width:1px;stroke-linecap:butt;stroke-linejoin:miter;stroke-miterlimit:4;stroke-dasharray:none;stroke-dashoffset:0;stroke-opacity:1;color-rendering:auto;image-rendering:auto;shape-rendering:auto;text-rendering:auto;enable-background:accumulate"
     d="m 23.38471,28.373366 c -1.689142,-0.268105 -3.198482,-1.685809 -3.597777,-3.379346 -0.09212,-0.390701 -0.109853,-1.615522 -0.02953,-2.039085 l 0.05217,-0.275121 -3.352493,-5.176331 c -1.843872,-2.846982 -3.41024,-5.27017 -3.48082,-5.384864 l -0.128325,-0.208532 0.136274,-0.136275 0.136275,-0.136274 3.224488,2.518612 c 3.704078,2.893216 5.684178,4.433022 6.354981,4.941892 l 0.469564,0.356212 0.942356,0.02798 c 1.032145,0.03065 1.273259,0.08092 1.907166,0.397641 0.930762,0.465043 1.633365,1.205987 2.111893,2.22714 0.277831,0.592877 0.369755,1.043896 0.369755,1.814177 0,0.994614 -0.202002,1.685677 -0.732401,2.505589 -0.58362,0.902185 -1.392862,1.510296 -2.442534,1.835462 -0.436114,0.135099 -1.431111,0.192062 -1.941051,0.111123 z"
     id="path4297"
     inkscape:connector-curvature="0" /><path
     style="color:#000000;clip-rule:nonzero;display:inline;overflow:visible;visibility:visible;opacity:1;isolation:auto;mix-blend-mode:normal;color-interpolation:sRGB;color-interpolation-filters:linearRGB;solid-color:#000000;solid-opacity:1;fill:#00aeff;fill-opacity:1;fill-rule:nonzero;stroke:none;stroke-width:1px;stroke-linecap:butt;stroke-linejoin:miter;stroke-miterlimit:4;stroke-dasharray:none;stroke-dashoffset:0;stroke-opacity:1;color-rendering:auto;image-rendering:auto;shape-rendering:auto;text-rendering:auto;enable-background:accumulate"
     d="m 37.728793,39.655119 c -0.249535,-0.275812 -0.95834,-1.014655 -1.575121,-1.641874 -0.616781,-0.627219 -1.166924,-1.225927 -1.222541,-1.330464 -0.156603,-0.294351 -0.14215,-1.033776 0.02654,-1.357615 0.273778,-0.525593 0.680081,-0.826482 1.236039,-0.915353 0.652856,-0.104361 1.120347,0.05555 1.646007,0.563031 l 0.368369,0.35563 0.296805,-0.368211 c 2.355641,-2.922368 3.681638,-6.116333 4.089585,-9.850693 l 0.03332,-0.305 -0.559624,-0.02618 c -0.672784,-0.03147 -0.974484,-0.152094 -1.356481,-0.542346 -0.670966,-0.685468 -0.623123,-1.738581 0.108231,-2.382344 0.349721,-0.307836 0.725456,-0.430524 1.318494,-0.430524 l 0.490032,0 -0.03473,-0.257947 c -0.0191,-0.141871 -0.0821,-0.560331 -0.139991,-0.929911 -0.496842,-3.171878 -1.951118,-6.48346 -3.944941,-8.983165 L 38.214424,10.88312 37.843803,11.232744 C 37.262665,11.780961 36.625137,11.943673 35.900942,11.72861 35.49981,11.609487 35.06061,11.194411 34.907976,10.790185 34.669517,10.158669 34.834901,9.5413457 35.41217,8.9081927 L 35.707204,8.5845974 35.425562,8.3551739 C 34.830711,7.8706114 33.861866,7.1937346 33.178706,6.7854234 l -0.711886,-0.4254796 0,-1.9445414 c 0,-1.0694978 0.01548,-1.9445415 0.0344,-1.9445415 0.09242,0 1.970355,0.9611861 2.528506,1.2941701 4.977203,2.9693166 8.607555,7.6211 10.178457,13.042254 1.265241,4.366324 1.13847,9.0439 -0.364338,13.443235 -1.214838,3.556329 -3.301192,6.779493 -6.034871,9.323142 l -0.626483,0.582933 -0.4537,-0.501476 z"
     id="path4299"
     inkscape:connector-curvature="0" /></svg>