<svg xmlns="http://www.w3.org/2000/svg" viewBox="0 0 54.705734 54.710266" height="54.71" width="54.71"><defs><clipPath id="a"><path d="M0 41.03h41.03V0H0v41.03z"/></clipPath><clipPath id="b"><path d="M22.7 20.96c-.1-.2-.17-.47-.2-.6 0-.15.2-.54.35-1.28.13-.76.28-1.88.4-2.04.1-.13.2-.1.44-.26.1-.08.2-.23.32-.3.15-.05.64-.2.57-.1-.08.1-.73.46-.5.46.2 0 .2-.04.47-.1.28-.06 1.1-.16 1.07-.08-.04.08-.96.3-1.22.36-.26.07-.3.05-.56.26-.27.22-.65 2.4-.63 2.53 0 .15.04.17.05.33 0 .16 0 .14-.07.3-.05.16.07.7.07.7l-.16.4-.23.03s-.07-.4-.16-.6"/></clipPath><clipPath id="c"><path d="M0 41.03h41.03V0H0v41.03z"/></clipPath><clipPath id="d"><path d="M21.38 21.43s-.08-.27-.24-.44c-.16-.18-.42-.3-.5-.45-.1-.17-.12-.4-.2-.74-.1-.33-.37-1.07-.58-1.5-.22-.46-.44-.64-.48-.87-.05-.22-.06-.57.02-.62.07-.04.2-.07.3-.08.02 0 .02.06.03.13 0 .07.02.15.06.12.07-.05.12-.26.25-.42.13-.15.34-.1.62-.2.3-.1.5-.1.57-.07.06.04-.8.4-.8.48.03.1.22.04.4.1.2.05.24.08.43.08.17 0 .27 0 .38.04.1.03.25.08.23.16-.02.08-.18.1-.34.1-.17-.03-.55-.13-.88-.13-.32.02-.4.02-.46.1-.06.06-.06.17-.1.28-.02.1.1.7.3 1.06.18.36.44 1.05.5 1.13.04.07.17.08.25.17.07.1.06.32.16.54.1.2.37.52.37.52l.1.72-.4-.2z"/></clipPath><clipPath id="e"><path d="M0 41.03h41.03V0H0v41.03z"/></clipPath><clipPath id="f"><path d="M23.16 21.97l-.42-.46H22.9c.03 0 .06-.07.1-.1 0 0 .03 0 .05-.02.02-.02 0-.08 0-.1.03-.05.08-.08.1-.13.05-.07.03-.26.12-.12.08.1.12.24.2.35.04.08.1.15.18.18.1.04.23.05.34.1.13.06.3.12.4.23.1.08.13.18.2.27l-1.44-.2z"/></clipPath><clipPath id="g"><path d="M0 41.03h41.03V0H0v41.03z"/></clipPath><clipPath id="h"><path d="M23.54 25.5l-7.8-1.72h-.07-.02c-.06 0-.1-.02-.14-.03-.04 0-.18 0-.22-.03-.08-.06.3-.2.3-.3-.06-.02-.14 0-.2-.02-.1 0-.16 0-.24-.02-.08-.02-.15-.05-.2-.1-.06-.02-.12-.08-.18-.1l1.07.1 1.56-.4s.4-.17.5-.23h-.02c-.02-.13.1-.12.18-.15.06-.02.12-.06.2-.08.06 0 .12-.02.18-.04v-.07c.12-.03.26 0 .38-.05.1-.04.2-.15.3-.24.1-.1.2-.12.35-.08.08.02.14.06.22.07l.25.02c.1 0 .23-.04.34-.06.1-.03.2-.05.3-.1.16-.04.32-.1.47-.15.08-.02.26-.1.3-.18 0-.06-.05-.1-.07-.13l-.06-.18.1.07c.05.07.22.17.3.2.03-.05 0-.12 0-.17.08-.02-.03-.18-.04-.23 0-.07-.02-.14-.03-.2.02 0 .04-.03.05-.03 0-.06-.03-.1-.05-.17v-.17c.03.12.1.2.17.28.07.1.13.2.2.27.13.1.28.13.4.2 0-.08-.07-.12-.1-.17.06.02.12.1.18.15.07.06.12.12.2.16.07.07.17.1.25.16l.3.17c.18.1.36.14.55.18.25.05.5.07.73.1.22.05.44.07.65.13.2.07.44.16.64.27l.26.13c.1.07.2.13.28.2.15.16.2.34.36.47.18.13.33.38.45.58.06.1.22.44.23.5v.14l-.34 1.3-1.27.55-2.2-.77z"/></clipPath><clipPath id="i"><path d="M0 41.03h41.03V0H0v41.03z"/></clipPath><clipPath id="j"><path d="M27.53 29.82c-.36-.12-.57-.47-.78-.7-.2-.26-.73-.82-.87-1.06-.14-.24-.18-.42-.23-.58-.05-.17-.95-.25-1.44-.37-.5-.1-.57-.06-1.23-.1-1.14-.14-3.37-1.22-3.8-1.43-.44-.2-.86-.47-.86-.47l2.35.34 5.3.75.44-.25.3-.67.05-.06.06-.04c.06-.05.04-.1.05-.15.02-.07.07-.07.1-.13.04-.06 0-.13.03-.2.04-.05.1 0 .14-.05l.04-.08c0-.03.03-.07.05-.1.04-.06 0-.26.13-.26 0 0 .83 1.02 1.02 1.34.2.32.27.75.25 1.07-.03.32-.08.56-.05.7.03.14.14.2.23.23l.6-.04.2.7s-.2.27-.23.4c-.04.13.08.3-.02.57-.1.27-.46.57-.8.62-.2.03-.4.08-.63.08-.12 0-.24-.02-.37-.06"/></clipPath><clipPath id="k"><path d="M0 41.03h41.03V0H0v41.03z"/></clipPath><clipPath id="l"><path d="M14.58 23.78c-.06 0-.12-.05-.18-.06l-.25-.1-.45-.14c-.05-.02-.34-.1-.3-.2.03-.1.3 0 .36 0 .3.02.62-.02.93.05.17.03.34.02.52.04.18 0 .37.03.54.08l-.53.34h-.38c-.14 0-.27 0-.27-.02"/></clipPath><clipPath id="m"><path d="M0 41.03h41.03V0H0v41.03z"/></clipPath><clipPath id="n"><path d="M14.95 24.25c-.15-.1-.42-.35-.3-.43.1-.08.45-.13.6-.14.17-.02 1.74.3 1.74.3l-.15.33-1.1.1s-.66-.07-.8-.15"/></clipPath><clipPath id="o"><path d="M0 41.03h41.03V0H0v41.03z"/></clipPath><clipPath id="p"><path d="M16.8 24.2s-.75-.12-.92-.23c-.17-.1-.37-.18-.3-.27.07-.08 1-.13 1.3-.1.28 0 .97.2.97.2l.5.73-1.56-.33z"/></clipPath><clipPath id="q"><path d="M0 41.03h41.03V0H0v41.03z"/></clipPath><clipPath id="r"><path d="M17.28 24.96s-1.98-.23-2.18-.24h-.35c-.05 0-.2-.08-.13-.14.08-.05 1.14-.4 1.82-.47.66-.06 3.8.8 3.8.8l.1.26-3.06-.2z"/></clipPath><clipPath id="s"><path d="M0 41.03h41.03V0H0v41.03z"/></clipPath><clipPath id="t"><path d="M22.27 26.62c-.7-.16-2.22-.88-2.6-1.02-.37-.14-.7-.35-.95-.35l-.76.04v-.02l-.65.04c-.15 0-.22-.06-.24-.1-.03-.06-.1-.1-.07-.15h.07c.05.02.1.04.13-.02.05-.1-.24-.24-.16-.25.1-.02.6-.13.84-.14.23 0 .8.15 1 .2.2.05.5.04.77.08.26.03.43.07.43.07s-1.86-.6-1.98-.67c-.12-.07-.26-.22-.26-.22l-.72-.9c-.1-.15 0-.17.1-.13.1.03.3.1.4.1.1.02.2.03.26-.06.05-.07-.2-.33-.06-.28.13.04 1.64.53 1.8.48.18-.06-.1-.12-.02-.14.07-.02.98.4 1.1.4.07 0 .04-.02 0-.06-.03-.04-.07-.07-.04-.07h.15c.07-.02.07-.08.1-.12.03-.06.07-.04.1-.02.03 0 .06.02.1 0 .05-.02.17-.12.26-.15.13-.06.2.02.3.08.1.07.17.02.27-.02.13-.06.22-.02.33.06.06.03.28.18.3.13.03-.04 0-.13 0-.18-.02-.06-.02-.1-.02-.17.02 0 .05.03.07.05.04.03.06.05.1.05.06-.02.02-.1.12-.1l.08.05h.1c.05 0 .07.02.13.05.04.02.05.05.1.04.02-.04 0-.1.03-.13.06 0 .22.15.2 0 .05-.02.06.03.08.07 0 .06.03.1.1.1l.03-.06c.03 0 .05-.02.07-.03.05 0 .08 0 .12.03.07.05.14.18.18.25.04.07 0 .24.13.2 0 .04.04.07.05.12l.03.16c.1-.1-.04-.3.02-.42.03.03.07.05.1.03 0-.08-.03-.16-.05-.24l-.04-.28c0-.05-.06-.2-.04-.25.03-.04.07-.02.1 0s.06.04.1.02c0-.06-.06-.17 0-.2.07-.06.2.02.24.06l.14.08c.03.03.05.08.1.1.08.1.18.2.28.28.1.1.24.13.36.2.1.03.2.05.26.1.1.08.25.3.25.42-.1.04-.18-.04-.26-.05 0 .04.07.1.1.13.03.07.04.1.03.15l-.02.05c0 .02.05.06.05.08.03.05.08.1.07.16-.17.03.05.27.07.34-.04.02-.1 0-.15-.04-.06-.03-.12-.07-.13-.03-.03.05.05.1.07.12l.02.17c-.03 0-.06-.03-.1-.04.03.07.06.36-.05.35l-.08-.15c-.03-.06-.07-.13-.13-.14-.02.07-.04.18-.02.25h-.03-.02l-.02.02c-.06-.04-.07-.18-.17-.12-.03.02-.04.07-.07.1-.03.04-.07.04-.1.1-.04-.04-.04.03-.07.05-.04.02-.07 0-.1 0-.05 0-.07-.04-.13-.03-.04 0-.07.05-.1.07-.06.02-.1 0-.16 0h-.12c-.1.04-.22.03-.32.07.06.05.17.06.25.1.08 0 .17.06.25.08h.2c.06 0 .13.04.2.07.12.05.23.1.37.08.06 0 .13-.03.2-.02.06 0 .1.05.17.08.05.02.16 0 .2.04.03.07-.07.12 0 .18.12.1.17-.27.2-.33l.03-.06c.04-.05.04-.03.1-.06.06-.04.1-.1.15-.16.07-.1.06-.28.23-.28 0 .1-.14.25-.08.35l.06-.1c.03-.05.07-.1.07-.13.02-.02.05-.04.07-.02.04.02 0 .06 0 .1 0 .05-.05.17 0 .22-.02.03-.02.06-.03.1 0 .08-.05.15-.1.22-.18.22-.43.37-.66.53-.2.13-.4.24-.65.3l-.25.1-.75.07h-.23c-.5 0-1.25-.07-1.85-.22"/></clipPath><clipPath id="u"><path d="M0 41.03h41.03V0H0v41.03z"/></clipPath><clipPath id="v"><path d="M29.4 28.1c-.1-.05-.38-.12-.34-.16.05-.05.16-.1.16-.1s.15-.14.1-.24c-.06-.1-.26-.07-.18-.1.07 0 .27-.14.54-.36.27-.23.48-.47 1.13-.92.66-.46 1.86-1.2 1.97-1.2.1 0 .08.08.08.08s.1-.02.1.03-.15.22-.35.42c-.2.2-.7.7-1.12 1.07-.42.37-.92.8-1.25 1-.3.22-.7.73-.75.76-.05 0 0-.26-.1-.3"/></clipPath><clipPath id="w"><path d="M0 41.03h41.03V0H0v41.03z"/></clipPath><clipPath id="x"><path d="M29.2 27.95c.06-.03.1 0 .16-.06.22-.18.65-.64.92-.86.28-.23 2.34-1.82 2.46-1.9.12-.07.13-.07.1-.04 0 .02-.56.47-.8.65-.26.18-1.66 1.24-2.1 1.67-.24.22-.5.5-.55.54l-.1.02c-.06 0-.13-.02-.1-.04"/></clipPath><clipPath id="y"><path d="M0 41.03h41.03V0H0v41.03z"/></clipPath><clipPath id="z"><path d="M28.4 28.93c-.02-.14.15-.3.3-.32.17-.03.4.1.42.2.02.1-.04.35-.25.4h-.06c-.18 0-.4-.15-.4-.28"/></clipPath><clipPath id="A"><path d="M0 41.03h41.03V0H0v41.03z"/></clipPath></defs><g clip-path="url(#a)" transform="matrix(1.33333 0 0 -1.33333 0 54.71)"><path d="M39.88 16.16s-.86-1-1.6-1c-.85 0-1.5 1-1.5 1s-.56-.98-1.54-1c-.98 0-1.6 1-1.6 1s-.7-1.02-1.58-1c-.9.04-1.5 0-1.5 0v-4.5l2.13-3.43s.5-.5 1.34-1c.86-.5 5.84 9.93 5.84 9.93" fill="#1d81a4"/><path d="M38.7 12.23c-4.14-4.67-8.57-11-20.12-11.7C12.02.13 1.03 9.38.38 20.78c5.64-2.56 6.78 4.84 11.35.86 6.56-5.7 6-5.56 14.55-5.7 7.86-.13 7.24-4.1 12.4-3.7" fill="#bcd8e4"/><path d="M20.52 38.88c-10.13 0-18.36-8.24-18.36-18.36S10.4 2.16 20.52 2.16c10.12 0 18.35 8.24 18.35 18.36s-8.23 18.35-18.35 18.35m0-38.87C9.2 0 0 9.2 0 20.52c0 11.3 9.2 20.5 20.52 20.5 11.3 0 20.5-9.2 20.5-20.5C41.03 9.2 31.83 0 20.53 0" fill="#737577"/><path d="M22.87 21.56s-.07-.4-.16-.6c-.1-.2-.17-.47-.2-.6 0-.15.22-.54.35-1.28.14-.76.3-1.9.4-2.04.1-.13.2-.1.44-.26.1-.08.2-.23.32-.3.15-.05.64-.2.57-.1-.08.1-.73.46-.5.46.22 0 .2-.04.48-.1.27-.06 1.1-.16 1.06-.08-.04.08-.96.3-1.22.36-.26.07-.3.05-.56.26-.27.22-.65 2.4-.63 2.53 0 .15.04.17.05.33 0 .16 0 .14-.07.3-.05.16.07.7.07.7l-.15.4-.25.03z" fill="#408cad"/></g><g clip-path="url(#b)" transform="matrix(1.33333 0 0 -1.33333 0 54.71)"><path d="M21.8 16.86l3.78-.77.96 4.75-3.8.77-.95-4.76z" fill="#408cad"/></g><g clip-path="url(#c)" transform="matrix(1.33333 0 0 -1.33333 0 54.71)"><path d="M22.87 21.56s-.07-.4-.16-.6c-.1-.2-.18-.47-.2-.6 0-.15.22-.54.35-1.28.14-.76.3-1.9.4-2.04.1-.13.2-.1.44-.26.1-.08.2-.23.32-.3.15-.05.64-.2.57-.1-.08.1-.73.46-.5.46.22 0 .2-.04.48-.1.27-.06 1.1-.16 1.06-.08-.04.08-.96.3-1.22.36-.26.07-.3.05-.56.26-.27.22-.65 2.4-.63 2.53 0 .15.04.17.05.33 0 .16 0 .14-.07.3-.05.16.07.7.07.7l-.15.4-.25.03zM21.38 21.43s-.08-.27-.24-.44c-.16-.18-.42-.3-.5-.45-.1-.16-.12-.4-.2-.74-.1-.33-.37-1.07-.58-1.5-.22-.46-.44-.64-.48-.87-.05-.22-.06-.56.02-.62.07-.04.2-.07.3-.08.05 0 0 .3.1.25.07-.05.12-.26.25-.42.13-.15.34-.1.62-.2.3-.1.5-.1.57-.07.06.04-.8.4-.8.48.03.1.2.04.4.1.2.05.24.08.43.08.17 0 .27 0 .38.04.1.03.25.08.23.16-.02.08-.18.1-.34.1-.17-.03-.56-.13-.88-.12-.32 0-.4 0-.46.08-.07.06-.06.17-.1.28-.02.1.1.7.3 1.06.18.36.44 1.05.5 1.13.04.08.17.08.25.17.07.1.06.32.16.54.1.2.37.52.37.52l.1.72-.4-.2z" fill="#408cad"/></g><g clip-path="url(#d)" transform="matrix(1.33333 0 0 -1.33333 0 54.71)"><path d="M20.3 21.92l-1.1-5.32 2.5-.5 1.08 5.3-2.5.52z" fill="#408cad"/></g><g clip-path="url(#e)" transform="matrix(1.33333 0 0 -1.33333 0 54.71)"><path d="M21.38 21.43s-.08-.27-.24-.44c-.16-.18-.42-.3-.5-.45-.1-.16-.12-.4-.2-.74-.1-.33-.37-1.07-.58-1.5-.22-.45-.44-.64-.48-.87-.05-.22-.06-.56.02-.62.07-.04.2-.07.3-.08.05 0 0 .3.1.25.07-.05.12-.26.25-.42.13-.15.34-.1.62-.2.3-.1.5-.1.57-.07.06.04-.8.4-.8.48.03.1.2.04.4.1.2.05.24.08.43.08.17 0 .27 0 .38.04.1.03.25.08.23.16-.02.08-.18.1-.34.1-.17-.03-.56-.13-.88-.12-.32 0-.4 0-.46.08-.07.06-.06.17-.1.28-.02.1.1.7.3 1.06.18.36.44 1.05.5 1.13.04.08.17.08.25.17.07.1.06.32.16.54.1.2.37.52.37.52l.1.72-.4-.2zM22.74 21.5c.05 0 .1.02.15 0 .03 0 .06-.07.1-.1.02 0 .03 0 .05-.02.02-.02 0-.08 0-.1.03-.05.08-.08.1-.13.05-.07.03-.26.12-.12.08.1.12.24.2.35.04.08.1.15.18.18.1.04.23.05.34.1.13.06.3.12.4.23.1.08.13.18.2.27l-1.44-.2-.42-.46z" fill="#408cad"/></g><g clip-path="url(#f)" transform="matrix(1.33333 0 0 -1.33333 0 54.71)"><path d="M22.64 21l1.65-.34.3 1.5-1.66.34-.3-1.5z" fill="#408cad"/></g><g clip-path="url(#g)" transform="matrix(1.33333 0 0 -1.33333 0 54.71)"><path d="M22.74 21.5c.05 0 .1.02.15 0 .03 0 .06-.07.1-.1.02 0 .03 0 .05-.02.02-.02 0-.08 0-.1.03-.05.08-.08.1-.13.05-.07.03-.26.12-.12.08.1.12.24.2.35.04.08.1.15.18.18.1.04.23.05.34.1.13.06.3.12.4.23.1.08.13.18.2.27l-1.44-.2-.42-.46z" fill="#408cad"/><path d="M17.4 22.87l-1.57.4-1.07-.1c.06.03.12.1.17.12l.2.08c.1.03.16.02.24.03.08.02.15 0 .23.03-.03.1-.4.23-.32.3.04.03.18.02.23.03l.15.02c.02 0 .06-.02.08 0l7.8 1.72 2.2.77L27 25.7l.34-1.28v-.14c-.02-.06-.18-.4-.25-.5-.13-.2-.28-.45-.46-.58-.17-.13-.2-.3-.36-.46-.08-.08-.2-.14-.28-.2-.08-.07-.18-.1-.26-.14-.2-.1-.43-.2-.64-.27-.2-.06-.44-.08-.65-.12l-.73-.1c-.2-.03-.37-.08-.54-.17l-.3-.17-.27-.15c-.06-.03-.1-.1-.18-.15-.06-.05-.12-.13-.2-.15.05.05.12.1.13.16-.13-.06-.28-.08-.4-.2-.08-.06-.14-.16-.2-.25-.1-.08-.15-.15-.2-.27.02.06 0 .1.02.17.02.06.06.1.05.17 0 0-.03 0-.05.02l.03.2c0 .05.12.2.03.23 0 .05.04.12 0 .17-.07-.03-.24-.13-.28-.2l-.1-.08c0 .04.03.13.05.17.02.03.07.06.06.12-.03.1-.2.15-.3.18-.14.07-.3.1-.46.17l-.3.1c-.12 0-.24.05-.35.05-.1 0-.18-.02-.26-.03-.1-.02-.15-.06-.23-.08-.14-.04-.25 0-.36.1-.08.08-.17.18-.28.23-.12.04-.26.02-.38.06v.08l-.2.04-.18.08c-.1.03-.2.02-.17.15-.1.06-.5.22-.5.22z" fill="#408cad"/></g><g clip-path="url(#h)" transform="matrix(1.33333 0 0 -1.33333 0 54.71)"><path d="M14.52 21.96l11.86-2.4 1.28 6.32-11.86 2.4-1.28-6.32z" fill="#408cad"/></g><g clip-path="url(#i)" transform="matrix(1.33333 0 0 -1.33333 0 54.71)"><path d="M17.4 22.87l-1.57.4-1.07-.1c.06.03.12.1.17.12l.2.08c.1.03.16.02.24.03.08.02.15 0 .23.03-.03.1-.4.23-.32.3.04.03.18.02.23.03l.15.02c.02 0 .06-.02.08 0l7.8 1.72 2.2.77L27 25.7l.34-1.28v-.14c-.02-.06-.18-.4-.25-.5-.13-.2-.28-.45-.46-.58-.17-.13-.2-.3-.36-.46-.08-.08-.2-.14-.28-.2-.08-.07-.18-.1-.26-.14-.2-.1-.43-.2-.64-.27-.2-.06-.44-.08-.65-.12l-.73-.1c-.2-.03-.37-.08-.54-.17l-.3-.17-.27-.15c-.06-.03-.1-.1-.18-.15-.06-.05-.12-.13-.2-.15.05.05.12.1.13.16-.13-.06-.28-.08-.4-.2-.08-.06-.14-.16-.2-.25-.1-.08-.15-.15-.2-.27.02.06 0 .1.02.17.02.06.06.1.05.17 0 0-.03 0-.05.02l.03.2c0 .05.12.2.03.23 0 .05.04.12 0 .17-.07-.03-.24-.13-.28-.2l-.1-.08c0 .04.03.13.05.17.02.03.07.06.06.12-.03.1-.2.15-.3.18-.14.07-.3.1-.46.17l-.3.1c-.12 0-.25.05-.35.05-.1 0-.18-.02-.26-.03-.1-.02-.15-.06-.23-.08-.14-.04-.25-.02-.36.1-.08.08-.17.18-.28.23-.12.04-.26.02-.38.06v.08l-.2.04-.18.08c-.1.03-.2.02-.17.15-.1.06-.5.22-.5.22z" fill="#408cad"/><path d="M26.7 25.28l.05-.06.06-.04c.06-.05.04-.1.05-.15.02-.07.07-.07.1-.13.04-.06 0-.13.03-.2.04-.05.08 0 .14-.05l.04-.08c0-.03.04-.07.05-.1.04-.06 0-.27.13-.26 0 0 .83 1.02 1.02 1.34.2.32.27.75.25 1.07-.03.32-.07.56-.05.7.03.14.14.2.23.23l.6-.04.2.7s-.2.27-.23.4c-.04.13.08.3-.02.57-.1.27-.46.57-.8.62-.32.04-.63.14-1 .02-.36-.13-.57-.47-.78-.7-.2-.26-.73-.82-.87-1.06-.14-.24-.18-.42-.23-.58-.05-.18-.95-.25-1.45-.37-.5-.1-.57-.06-1.22-.1-1.15-.14-3.38-1.22-3.8-1.43-.45-.2-.87-.47-.87-.47l2.35.34 5.3.75.44-.25.3-.67z" fill="#408cad"/></g><g clip-path="url(#j)" transform="matrix(1.33333 0 0 -1.33333 0 54.71)"><path d="M18.48 22.4l11.78.73-.57 9.1-11.8-.72.58-9.1z" fill="#408cad"/></g><g clip-path="url(#k)" transform="matrix(1.33333 0 0 -1.33333 0 54.71)"><path d="M26.7 25.28l.05-.06.06-.04c.06-.05.04-.1.05-.15.02-.07.07-.07.1-.13.04-.06 0-.13.03-.2.04-.05.08 0 .14-.05l.04-.08c0-.03.04-.07.05-.1.04-.06 0-.27.13-.26 0 0 .83 1.02 1.02 1.34.2.32.27.75.25 1.07-.03.32-.07.56-.05.7.03.14.14.2.23.23l.6-.04.2.7s-.2.27-.23.4c-.04.13.08.3-.02.57-.1.27-.46.57-.8.62-.32.04-.63.14-1 .02-.36-.13-.57-.47-.78-.7-.2-.26-.73-.82-.87-1.06-.14-.24-.18-.42-.23-.58-.05-.18-.95-.25-1.45-.37-.5-.1-.57-.06-1.22-.1-1.15-.14-3.38-1.22-3.8-1.43-.45-.2-.87-.47-.87-.47l2.35.34 5.3.75.44-.25.3-.67zM13.56 23.28c-.02-.06-.05-.12-.05-.2l.34-.1c.12-.02.22 0 .34.04.15.05.3.1.46.13l.2.07c.05 0 .13.02.16.06l.2.14-1.64-.14z" fill="#408cad"/><path d="M13.56 23.28c-.02-.06-.05-.12-.05-.2l.34-.1c.12-.02.22 0 .34.04.15.05.3.1.46.13l.2.07c.05 0 .13.02.16.06l.2.14-1.64-.14z" fill="#408cad"/><path d="M14.58 23.78c-.06 0-.12-.04-.18-.06-.08-.02-.16-.06-.25-.1l-.44-.14c-.05-.02-.34-.1-.3-.2.03-.1.3 0 .36 0 .3.02.62-.02.93.05.17.03.34.02.52.04.2 0 .37.03.54.08l-.53.34s-.65 0-.65-.02z" fill="#408cad"/></g><g clip-path="url(#l)" transform="matrix(1.33333 0 0 -1.33333 0 54.71)"><path d="M13.33 23.2l2.3-.46.18.94-2.3.46-.17-.93z" fill="#408cad"/></g><g clip-path="url(#m)" transform="matrix(1.33333 0 0 -1.33333 0 54.71)"><path d="M14.58 23.78c-.06 0-.12-.04-.18-.06-.08-.02-.16-.06-.25-.1l-.44-.14c-.05-.02-.34-.1-.3-.2.03-.1.3 0 .36 0 .3.02.62-.02.93.05.17.03.34.02.52.04.2 0 .37.03.54.08l-.53.34s-.65 0-.65-.02zM14.87 24.57s-.46-.02-.68-.06c-.24-.04-.36-.07-.28-.18.1-.1 1.1-.25 1.1-.25l.67.35-.83.15z" fill="#408cad"/><path d="M14.87 24.57s-.46-.02-.68-.06c-.24-.04-.36-.07-.28-.18.1-.1 1.1-.25 1.1-.25l.67.35-.83.15zM14.8 24.02s-.3.03-.52-.04c-.2-.06-.48-.13-.5-.22 0-.1 1.2 0 1.2 0l-.2.26z" fill="#408cad"/><path d="M14.8 24.02s-.3.03-.52-.04c-.2-.06-.48-.13-.5-.22 0-.1 1.2 0 1.2 0l-.2.26z" fill="#408cad"/><path d="M15.75 24.4s-.66-.07-.8-.15c-.15-.1-.42-.35-.3-.43.1-.08.46-.13.6-.14.17-.02 1.74.3 1.74.3l-.15.33-1.1.1z" fill="#408cad"/></g><g clip-path="url(#n)" transform="matrix(1.33333 0 0 -1.33333 0 54.71)"><path d="M14.5 23.8l2.35-.48.2.95-2.35.48-.2-.96z" fill="#408cad"/></g><g clip-path="url(#o)" transform="matrix(1.33333 0 0 -1.33333 0 54.71)"><path d="M15.75 24.4s-.66-.07-.8-.15c-.15-.1-.42-.35-.3-.43.1-.08.46-.13.6-.14.17-.02 1.74.3 1.74.3l-.15.33-1.1.1z" fill="#408cad"/><path d="M16.8 24.2s-.75-.13-.92-.23c-.17-.12-.37-.18-.3-.27.07-.08 1-.13 1.3-.1.28 0 .97.2.97.2l.5.73-1.56-.33z" fill="#408cad"/></g><g clip-path="url(#p)" transform="matrix(1.33333 0 0 -1.33333 0 54.71)"><path d="M15.48 23.65l2.58-.52.28 1.4-2.58.52-.28-1.4z" fill="#408cad"/></g><g clip-path="url(#q)" transform="matrix(1.33333 0 0 -1.33333 0 54.71)"><path d="M16.8 24.2s-.75-.13-.92-.23c-.17-.12-.37-.18-.3-.27.07-.08 1-.13 1.3-.1.28 0 .97.2.97.2l.5.73-1.56-.33z" fill="#408cad"/><path d="M17.28 24.96s-1.98-.23-2.18-.24h-.35c-.05 0-.2-.08-.13-.14.08-.05 1.14-.4 1.82-.47.66-.06 3.8.8 3.8.8l.1.26-3.06-.2z" fill="#408cad"/></g><g clip-path="url(#r)" transform="matrix(1.33333 0 0 -1.33333 0 54.71)"><path d="M14.5 24.43l5.47-1.1.37 1.83-5.47 1.1-.38-1.83z" fill="#408cad"/></g><g clip-path="url(#s)" transform="matrix(1.33333 0 0 -1.33333 0 54.71)"><path d="M17.28 24.96s-1.98-.23-2.18-.24h-.35c-.05 0-.2-.08-.13-.14.08-.05 1.14-.4 1.82-.47.66-.06 3.8.8 3.8.8l.1.26-3.06-.2z" fill="#408cad"/><path d="M19.6 23.16c-.07.02.2.08.03.14-.17.05-1.68-.44-1.8-.48-.15-.05.1.2.05.3-.06.08-.15.07-.26.06-.1 0-.3-.08-.4-.1-.1-.05-.2-.03-.1.1.1.15.72.93.72.93s.14.16.26.23c.12.06 1.98.68 1.98.68l-.43-.06c-.26-.04-.58-.03-.77-.1-.2-.03-.77-.2-1-.18-.23 0-.75.12-.84.14-.08.02.2.15.16.25-.05.1-.17-.02-.2.02-.05.05.03.1.06.14.02.06.1.12.25.12.17 0 1.17-.07 1.42-.07.26 0 .58.2.96.35.37.14 1.9.86 2.6 1.02.7.17 1.6.24 2.07.22.47-.04.7-.07.75-.08l.25-.08c.24-.07.46-.18.66-.3.24-.16.5-.32.67-.54.05-.07.1-.14.1-.22 0-.04 0-.06.04-.1-.05-.05 0-.17 0-.23 0-.04.04-.07 0-.1-.02-.02-.05 0-.07.02 0 .04-.04.08-.07.12l-.06.1c-.05-.08.1-.23.08-.34-.17 0-.16.18-.23.28-.05.06-.1.12-.16.16-.06.03-.06 0-.1.05l-.04.05c-.02.06-.07.44-.2.33-.06-.06.04-.1 0-.18-.03-.04-.14-.02-.2-.04-.05-.03-.1-.07-.17-.08l-.2.02c-.14 0-.25-.03-.38-.08-.06-.03-.13-.07-.2-.08-.06 0-.13.02-.2 0-.07 0-.16-.06-.24-.08-.08-.03-.2-.04-.25-.1.1-.03.22-.02.32-.05.1 0 .2.03.27 0 .04-.03.07-.07.1-.08.07 0 .1.02.13.03.04 0 .07.02.1 0 .04-.02.04-.1.1-.06 0-.06.05-.06.08-.1.03-.03.04-.08.08-.1.1-.06.12.08.18.12 0 0 0-.02.02-.03h.05c-.02-.08 0-.2.02-.26.06 0 .1.08.12.14 0 .05.05.1.07.16.1 0 .08-.3.06-.35l.1.02c0-.05-.02-.13-.04-.17-.03-.03-.1-.07-.08-.12.03-.07.2.1.27.07-.03-.07-.25-.3-.08-.34 0-.06-.04-.1-.07-.15l-.04-.07c0-.02.03-.03.03-.04 0-.08 0-.1-.04-.17-.03-.03-.1-.08-.1-.12.1.02.18.1.27.06 0-.12-.15-.34-.25-.4-.07-.06-.17-.1-.26-.13-.12-.06-.25-.1-.36-.2l-.3-.26c-.02-.03-.05-.08-.08-.1l-.14-.1c-.05-.03-.17-.1-.23-.06-.07.05-.02.17-.02.22-.06.04-.14-.1-.2-.02l.05.25.04.28.05.24c-.03.02-.07 0-.1-.02-.06.1.08.32-.02.4l-.03-.15c0-.04-.04-.08-.05-.13-.12.05-.1-.12-.13-.2-.04-.06-.1-.2-.18-.24-.04-.03-.07-.03-.12 0h-.07c0 .03-.03.06-.04.06-.12.02-.07-.18-.16-.17 0 .16-.15 0-.2 0-.03.05-.02.1-.04.15-.05 0-.06-.03-.1-.05-.05-.03-.08-.04-.13-.04-.02 0-.07 0-.1-.02l-.08-.04c-.1 0-.06.08-.12.1-.06 0-.1-.1-.16-.1v.15c0 .04.05.13.03.17-.03.05-.25-.1-.3-.13-.12-.08-.2-.12-.34-.06-.1.04-.17.1-.26.03-.1-.05-.18-.13-.3-.07-.1.04-.22.13-.28.16-.08.02-.14-.1-.2 0-.03.05-.03.1-.1.12-.06.02-.06.02-.14 0-.07 0 .18.16.05.14-.12 0-1.03-.42-1.1-.4z" fill="#408cad"/></g><g clip-path="url(#t)" transform="matrix(1.33333 0 0 -1.33333 0 54.71)"><path d="M16.68 20.5l10.7.67-.46 7.7-10.72-.68.48-7.7z" fill="#408cad"/></g><g clip-path="url(#u)" transform="matrix(1.33333 0 0 -1.33333 0 54.71)"><path d="M19.6 23.16c-.07.02.2.08.03.14-.17.05-1.68-.44-1.8-.48-.15-.05.1.2.05.3-.06.08-.15.07-.26.06-.1 0-.3-.08-.4-.1-.1-.05-.2-.03-.1.1.1.15.72.93.72.93s.14.16.26.23c.12.06 1.98.68 1.98.68l-.43-.06c-.26-.04-.58-.03-.77-.1-.2-.03-.77-.2-1-.18-.23 0-.75.12-.84.14-.08.02.2.15.16.25-.05.1-.17-.02-.2.02-.05.05.03.1.06.14.02.06.1.12.25.12.17 0 1.17-.07 1.42-.07.26 0 .58.2.96.35.37.14 1.9.86 2.6 1.02.7.17 1.6.24 2.07.22.47-.04.7-.07.75-.08l.25-.08c.24-.07.46-.18.66-.3.24-.16.5-.32.67-.54.05-.07.1-.14.1-.22 0-.04 0-.07.04-.1-.05-.05 0-.17 0-.23 0-.04.04-.07 0-.1-.02-.02-.05 0-.07.02 0 .04-.04.08-.07.12l-.06.1c-.05-.08.1-.23.08-.34-.17 0-.16.18-.23.28-.05.06-.1.12-.16.16-.06.03-.06 0-.1.05l-.04.05c-.02.06-.07.44-.2.33-.06-.06.04-.1 0-.18-.03-.04-.14-.02-.2-.04-.05-.03-.1-.07-.17-.08l-.2.02c-.14 0-.25-.03-.38-.08-.06-.03-.13-.07-.2-.08-.06 0-.13.02-.2 0-.07 0-.16-.06-.24-.08-.08-.03-.2-.04-.25-.1.1-.03.22-.02.32-.05.1 0 .2.03.27 0 .04-.03.07-.07.1-.08.07 0 .1.02.13.03.04 0 .07.02.1 0 .04-.02.04-.1.1-.06 0-.06.05-.06.08-.1.03-.03.04-.08.08-.1.1-.06.12.08.18.12 0 0 0-.02.02-.03h.05c-.02-.08 0-.2.02-.26.06 0 .1.08.12.14 0 .05.05.1.07.16.1 0 .08-.3.06-.35l.1.02c0-.05-.02-.13-.04-.17-.03-.03-.1-.06-.08-.12.03-.07.2.1.27.07-.03-.07-.25-.3-.08-.34 0-.06-.04-.1-.07-.15l-.04-.07c0-.02.03-.03.03-.04 0-.08 0-.1-.04-.17-.03-.03-.1-.08-.1-.12.1.02.18.1.27.06 0-.12-.15-.34-.25-.4-.07-.06-.17-.1-.26-.13-.12-.06-.25-.1-.36-.2l-.3-.26c-.02-.03-.05-.08-.08-.1l-.14-.1c-.05-.03-.17-.1-.23-.06-.07.05-.02.17-.02.22-.06.04-.14-.1-.2-.02l.05.25.04.28.05.24c-.03.02-.07 0-.1-.02-.06.1.08.32-.02.4l-.03-.15c0-.04-.04-.08-.05-.13-.12.05-.1-.12-.13-.2-.04-.06-.1-.2-.18-.24-.04-.03-.07-.03-.12 0h-.07c0 .03-.03.06-.04.06-.12.02-.07-.18-.16-.17 0 .16-.15 0-.2 0-.03.05-.02.1-.04.15-.05 0-.06-.03-.1-.05-.05-.03-.08-.04-.13-.04-.02 0-.07 0-.1-.02l-.08-.04c-.1 0-.06.08-.12.1-.06 0-.1-.1-.16-.1v.15c0 .04.05.13.03.17-.03.05-.25-.1-.3-.13-.12-.08-.2-.12-.34-.06-.1.04-.17.1-.26.03-.1-.05-.18-.13-.3-.07-.1.04-.22.13-.28.16-.08.02-.14-.1-.2 0-.03.05-.03.1-.1.12-.06.02-.06.02-.14 0-.07 0 .18.16.05.14-.12 0-1.03-.42-1.1-.4zM29.06 27.94c-.04.04.23.1.33.15.08.02.03.3.08.28.04-.03.44-.54.75-.75.33-.2.83-.64 1.25-1 .43-.4.93-.87 1.13-1.08.2-.2.36-.37.35-.42 0-.05-.1-.03-.1-.03s.03-.1-.07-.1c-.12.02-1.32.76-1.97 1.22-.64.45-.85.7-1.12.92-.27.22-.47.35-.54.37-.08.03.13 0 .18.1.05.1-.1.23-.1.23l-.16.1" fill="#408cad"/></g><g clip-path="url(#v)" transform="matrix(1.33333 0 0 -1.33333 0 54.71)"><path d="M27.58 26.73l3.88-3.42 3 3.4-3.88 3.43-3-3.4z" fill="#408cad"/></g><g clip-path="url(#w)" transform="matrix(1.33333 0 0 -1.33333 0 54.71)"><path d="M29.06 27.94c-.04.04.23.1.33.15.08.02.03.3.08.28.04-.03.44-.54.75-.75.33-.2.83-.64 1.25-1 .43-.4.93-.87 1.13-1.08.2-.2.36-.37.35-.42 0-.05-.1-.03-.1-.03s.03-.1-.07-.1c-.12.02-1.32.76-1.97 1.22-.64.45-.85.7-1.12.92-.27.22-.47.35-.54.37-.08.03.13 0 .18.1.05.1-.1.23-.1.23l-.16.1" fill="#408cad"/><path d="M29.7 27.86c-.12-.03 0-.16.06-.2.06-.06.15-.26.23-.16.05.1-.17.16-.25.28 0 0 0 .07-.05.08" fill="#408cad"/><path d="M29.7 27.86c-.12-.03 0-.16.06-.2.06-.06.15-.26.23-.16.05.1-.17.16-.25.28 0 0 0 .07-.05.08" fill="#408cad"/><path d="M29.2 27.94c-.05.03.15.05.2.02.04-.03.3-.32.53-.54.45-.43 1.85-1.5 2.1-1.67l.82-.65c.02-.03 0-.03-.1.05-.13.07-2.2 1.66-2.47 1.9-.27.2-.7.67-.92.84-.06.05-.1.02-.15.04" fill="#408cad"/></g><g clip-path="url(#x)" transform="matrix(1.33333 0 0 -1.33333 0 54.71)"><path d="M27.92 26.62l3.55-3.14 2.64 3-3.54 3.13-2.64-2.98z" fill="#408cad"/></g><g clip-path="url(#y)" transform="matrix(1.33333 0 0 -1.33333 0 54.71)"><path d="M28.4 28.92c0 .14.28.3.47.27.2-.05.27-.3.25-.4-.02-.1-.25-.23-.4-.2-.17.04-.35.2-.33.32" fill="#408cad"/></g><g clip-path="url(#z)" transform="matrix(1.33333 0 0 -1.33333 0 54.71)"><path d="M28.63 28.24l.8.53-.54.8-.8-.53.53-.8z" fill="#408cad"/></g><g clip-path="url(#A)" transform="matrix(1.33333 0 0 -1.33333 0 54.71)"><path d="M28.4 28.92c0 .14.28.3.47.27.2-.05.27-.3.25-.4-.02-.1-.25-.23-.4-.2-.17.04-.35.2-.33.32" fill="#408cad"/><path d="M28.53 28.94c0-.13.12-.2.22-.23.1 0 .26.08.27.15 0 .07-.07.22-.16.24-.1 0-.32-.04-.33-.16" fill="#408cad"/><path d="M28.53 28.94c0-.13.12-.2.22-.23.1 0 .26.08.27.15 0 .07-.07.22-.16.24-.1 0-.32-.04-.33-.16" fill="#408cad"/><path d="M28.75 29c-.05-.04-.06-.06-.04-.1.02-.05.04-.1.08-.1.05-.02.1.04.1.08 0 .06-.04.1-.06.12h-.07" fill="#408cad"/><path d="M28.75 29c-.05-.04-.06-.06-.04-.1.02-.05.04-.1.08-.1.05-.02.1.04.1.08 0 .06-.04.1-.06.12h-.07M28.85 29s0-.03.03-.04c.02 0 .05-.02.06 0 0 0 0 .04-.02.05-.03.04-.06.04-.06.04-.02 0 0-.03 0-.03M25.65 27.3c.1-.1.23-.18.36-.28.22-.16.55-.3.83-.35.13-.02.26 0 .4-.02.1 0 .3.03.37.15.06.12.04.24-.03.34-.13.2-.15.12-.3-.03-.18.12.1.5.17.62.06.1.2.2.17.3-.02.08-.2.14-.24.2-.06.1-.1.24-.03.33.08.14.15.04.27.07.2.05-.06.45.23.45.03.08.07.08.04.18-.03.08-.1.1-.14.16-.1.1-.12.32-.3.15-.1-.1-.13-.27-.23-.36-.1-.1-.3-.1-.43-.07l-.02-.02c-.22-.24-.73-.8-.87-1.04s-.18-.42-.23-.6l-.07-.05.07-.1" fill="#408cad"/><path d="M25.65 27.3c.1-.1.23-.18.36-.28.22-.16.55-.3.83-.35.13-.02.26 0 .4-.02.1 0 .3.03.37.15.06.12.04.24-.03.34-.13.2-.15.12-.3-.03-.18.12.1.5.17.62.06.1.2.2.17.3-.02.08-.2.14-.24.2-.06.1-.1.24-.03.33.08.14.15.04.27.07.2.05-.06.45.23.45.03.08.07.08.04.18-.03.08-.1.1-.14.16-.1.1-.12.32-.3.15-.1-.1-.13-.27-.23-.36-.1-.1-.3-.1-.43-.07l-.02-.02c-.22-.24-.73-.8-.87-1.04s-.18-.42-.23-.6l-.07-.05.07-.1" fill="#408cad"/></g></svg>