<svg xmlns="http://www.w3.org/2000/svg" viewBox="0 0 54.705734 54.710266" height="54.7" width="54.7"><defs><clipPath id="a"><path d="M30 27c-2.2 0-4 1-4 1s-2.3-1-4.3-1c-2.3 0-4 1-4 1s-1.5-1-4-1c-2.8 0-4.4 1-4.4 1s-2-1-4.2-1c-2.3.2-4 0-4 0V15l5.7-9S12 .4 19.7.4 37 9.3 37 9.3 41.6 22 38.3 27c-1.7 0-4 1-4 1s-1.6-1-4.2-1"/></clipPath><linearGradient id="b" gradientTransform="matrix(38.39795 0 0 -38.39795 1.045 14.257)" gradientUnits="userSpaceOnUse" x2="1"><stop offset="0" stop-color="#bcd8e4"/><stop offset=".3" stop-color="#a2c6d8"/><stop offset=".6" stop-color="#93bbcf"/><stop offset=".8" stop-color="#71a5c0"/><stop offset=".9" stop-color="#5998b7"/><stop offset="1" stop-color="#5998b7"/></linearGradient><clipPath id="c"><path d="M0 41h41V0H0v41z"/></clipPath></defs><g clip-path="url(#a)" transform="matrix(1.33333 0 0 -1.33333 0 54.71)"><path d="M30 27c-2.2 0-4 1-4 1s-2.3-1-4.3-1c-2.3 0-4 1-4 1s-1.5-1-4-1c-2.8 0-4.4 1-4.4 1s-2-1-4.2-1c-2.3.2-4 0-4 0V15l5.7-9S12 .4 19.7.4 37 9.3 37 9.3 41.6 22 38.3 27c-1.7 0-4 1-4 1s-1.6-1-4.2-1" fill="url(#b)"/></g><g clip-path="url(#c)" transform="matrix(1.33333 0 0 -1.33333 0 54.71)"><path d="M37 9.5C33 4.3 25 .7 20.5.7 15 .7 6 4.7 2.4 13 15.2 8 29.6 9 37 9.4" fill="#fff"/><path d="M20.5 39c-10 0-18.3-8.4-18.3-18.5 0-10 8.2-18.3 18.3-18.3 10 0 18.4 8.2 18.4 18.3 0 10-8.4 18.4-18.5 18.4m0-39C9.2 0 0 9.2 0 20.5S9.2 41 20.5 41 41 31.8 41 20.5 31.8 0 20.5 0" fill="#737577"/><path d="M20.4 12.4c.2.3.5 2.7 1 4.4l1 5c.2 1.2.4 3 1.3 1.3 1-1.4-3-14.8-3.8-15.4-.8-.6.4 4.8.4 4.8" fill="#1d81a4"/><path d="M19.7 7c-.5-.5-.2 4-.6 8 0 2-.2 3.4-.4 4.6 0 1.2.2 1.8.2 2 0 .7.8 1.5 1.2 0 .6-1.4.6-8.7.5-10.2 0-1.5-.3-3.7-.8-4.3M30 13.6c0 .3 0 2-.2 3.5l-.3 4.3c0 1 0 2.4-1 1.3-1-1.2 1-12.4 1.6-13 .6-.5 0 4 0 4" fill="#1d81a4"/><path d="M30.2 9.3c.3-.6.5 3 1.2 6.3l.8 3.6c.4 1 .2 1.4.2 1.6 0 .5-.5 1.3-1 .2-.6-1.2-1.3-7-1.4-8.2 0-1.2 0-3 .2-3.5M12.5 13.2c0 .3 0 3-.4 5.2-.2 2.5-.4 5.6-.3 6.2 0 1.5 0 3.6-1.6 2C9 24.5 12 8 12.7 7.2c.7-.8 0 6 0 6" fill="#1d81a4"/><path d="M12.7 6.7c.4-.8.7 4.6 1.8 9.4.6 2.2.8 4 1.2 5.4.5 1.4.3 2 .3 2.4 0 .8-.8 2-1.6.3-.7-1.7-2-10.2-2-12 0-1.8 0-4.5.3-5.3" fill="#1d81a4"/></g></svg>