<svg xmlns="http://www.w3.org/2000/svg" viewBox="0 0 54.705734 54.710266" height="54.710266" width="54.705734"><defs><clipPath id="a"><path d="M0 41.033h41.029V0H0v41.033z"/></clipPath></defs><g clip-path="url(#a)" transform="matrix(1.33333 0 0 -1.33333 0 54.710267)"><path d="M6.1006 6.9824h29.396s-8.429-6.052-14.698-6.269c-6.267-.216-14.698 6.269-14.698 6.269" fill="#a2c5d7"/><path d="M20.5171 38.8726c-10.122 0-18.358-8.237-18.358-18.358 0-10.122 8.236-18.357 18.358-18.357 10.121 0 18.355 8.235 18.355 18.357 0 10.121-8.234 18.358-18.355 18.358m0-38.877c-11.314 0-20.517 9.206-20.517 20.519 0 11.312 9.203 20.518 20.517 20.518 11.312 0 20.516-9.206 20.516-20.518 0-11.313-9.204-20.519-20.516-20.519" fill="#737577"/><path d="M20.1831 10.589l-.674-2.058-.963-1.969c-.013 0-.029-.002-.045-.002-.148 0-.236-.058-.374-.093-.133-.038-.312-.047-.461-.021-.348.064-.32.245-.338.472-.019.224.184.46.395.633.236.192.42.421.612.641.241.275.412.538.562.844.122.249.325.521.305.785-.014.191-.032.344.068.526.044.077.133.194.155.278.013.066-.01.127.013.184.013.041.051.11.08.153.059.092.042.171.085.257.044.087.204.227.271.332.064.105.321.984.321.984l.091-.484-.101-1.461-.002-.001z" fill="#1d81a4"/><path d="M14.8681 14.3074c.067.033.025.056.055.096-.031.012-.055.05-.086.062.115.145.329-.146.51-.008.078.056.03.131.132.163.083.028.175-.053.241-.056.076-.003.163.052.243.042.086-.008.12-.068.216-.068.125 0 .412.055.478.141-.011.009-.022.016-.03.027.076.073.347.182.448.104.127.066.231.076.332-.01.052-.042-.02-.102.086-.117.056-.01.178.065.228.082.151.052.757.114.451.302.043.019.074.051.133.059-.192.087.145.319.196-.001.009-.067-.042-.198.004-.246.03-.032.211-.08.268-.118.039.034.098.064.137.099.04-.043.102-.043.15-.061.021-.007.1-.043.135-.051.14-.037.179-.037.253-.126.055.057.017.123-.016.183.059.014.093.046.128.085-.037.037-.069.084-.076.128-.003.014.07.04.071.051.003.034-.039.049-.039.08-.003.066-.018.063-.046.131-.019.046-.067.072-.055.129.069-.037.174-.136.272-.122.152.019.088.137.255.065.028-.012.002-.07.041-.1.016-.012.095-.003.134-.036.081-.07-.033-.163.095-.214.145.056.255-.067.255-.144 0-.058-.091-.081-.067-.142.014-.035.127-.082.158-.11-.07-.093-.192-.044-.283-.091.135-.138.142-.015.273.004.093.013.284-.027.172-.128.114.014.18-.012.235-.103.016-.023.063-.03.073-.055.012-.028-.061-.059-.048-.085.028-.053.095-.062.126-.114.15-.248-.598-.208-.174-.462.119.055.388.209.494.088-.049-.048-.106-.07-.166-.094.058-.056.064-.11.132-.163.111.128.325.03.337-.073.01-.091-.258-.303-.38-.308-.181.111-.341.19-.536.011-.062.014-.103.033-.156.061.053-.035.106-.068.158-.103.213.114.342.048.489-.084-.055-.118-.163-.088-.298-.113-.16-.028-.174-.092-.308-.151-.13-.059-.229-.04-.352-.118-.094-.055-.177-.169-.273-.181.005.006.034.031.041.039-.305-.027-.451.002-.718.063-.19.045-.513-.019-.659.115.091.073-.009.169-.099.217-.172.092-.25-.013-.424.011s-.152.143-.333.005c-.086-.064-.142-.23-.297-.173-.106-.128-.077-.21-.275-.098-.161.089-.089.144-.148.25-.072.136-.231.101-.389.129-.193.035-.174.077-.252.213-.089.147-.147.124-.309.197-.125.059-.153.161-.218.249-.092.131-.562.33-.451.488-.087.093-.224-.006-.342.027-.103.028-.129.119-.189.175.002.002-.209.028-.141.06l-.002-.004zM21.0949 22.4012s-1.472.591-2.122.673c-.653.079-2.632-.144-3.114-.102-.482.042-.737.203-1.107.181-.368-.018-.933-.139-.877-.181.055-.042.593.102.877.081.284-.019.709-.225 1.218-.225s2.236.206 3.003.122c.763-.08 2.068-.713 2.068-.713l.054.164zM27.6677 26.4793c.055-.041-1.417-.265-1.756-.347-.341-.082-.681-.122-1.079-.327-.905-.465-2.67-1.69-2.491-1.59.37.204-.907-.754-.907-.754v.244s1.162.879 1.587 1.162c.424.287 1.36.877 1.984 1.122.62.246 2.605.533 2.661.491l.001-.001z" fill="#1d81a4"/><path d="M13.0515 25.7652l.341-.182 1.247-.021.594-.183s1.076-.103 1.981-.307c1.447-.388 2.382-2.713 2.522-3.141.144-.429.399-1.386.538-1.693.142-.306.596-1.204.596-1.204l-.427-.734s-.282.449-.396.692c-.112.246-.394 1.918-.651 2.857-.313 1.386-1.36 2.835-2.264 3.121-.539.122-1.672.264-1.899.306-.226.041-.425.164-.623.184-.197.019-1.048-.02-1.216.041-.171.061-.343.264-.343.264" fill="#1d81a4"/><path d="M20.1503 6.2333c-.919.006-2.083-.056-2.326.17-.246.224 1.009 1.95 1.219 2.473.207.521 1.023 1.272.942 1.692-.052.271.583 1.923-.105 2.107-.546.335-2.086.145-2.819.145h-.626c.367.119.831.04 1.272.073.413.03.885.072 1.369.071.609 0 .756.083.995.461.178.288.203.606.245.922.094.661.204 1.298.204 1.975 0 .346-.14.749-.17 1.04-.033.291-.082.622-.508.939-1.023.763-2.947.405-3.573.189-.852-.17-3.426-1.043-3.473-.975-.045.068 3.32 1.15 3.749 1.253.92.301 2.55.111 2.619.119.072.006-.496.39-.612.615-.113.222-.256.752-.535.961-.281.202-.902.4-.858.446.045.046.892-.255 1.054-.396.163-.144.459-.893.701-1.156.241-.265.906-.722 1.555-.832.245-.029.383 2.834.479 3.106.1.272-.144 3.594-.227 3.865-.087.269-1.125.916-1.586 1.155-.459.238-1.385.515-1.906.506-.755.048-1.516-.049-1.624 0-.107.048.96.109 1.302.108.346-.002 1.329-.137 1.988-.362.659-.224 1.826-1.011 1.826-1.011s-.156 1.944-.201 2.601c-.046.655-1.869 1.557-2.928 1.849-.517.188-1.731.653-1.636.678.096.023 2.676-.924 3.308-1.181.817-.328 1.221-.945 1.311-.867.085.081-.022 2.013-.156 2.336-.136.327-3.457 1.506-3.361 1.517.098.011 1.433-.5 1.807-.614.371-.113 1.316-.562 1.418-.576.104-.016.027.933-.236 1.307-.26.374-1.517 1.309-1.382 1.292.133-.018 1.199-.906 1.504-1.264.305-.357.818-2.738.644-2.664-.057.026 1.059.186 1.944.399.09.021.293.138.381.159.939.227 1.812.439 1.834.411.02-.031-.909-.25-1.874-.487-.048-.012-.257-.129-.308-.139-.953-.237-1.732-.375-1.769-.461-.077-.175-.066-1.577.051-1.66.115-.082 1.116.24 1.451.299.337.06 2.397.54 2.408.495.012-.045-2.356-.612-2.758-.722-.399-.107-1.087-.243-1.101-.432-.014-.19.018-1.415.134-1.471.114-.057 1.535.588 1.922.685.385.101.836.253.836.206 0-.043-1.317-.49-1.692-.612-.37-.122-.616-.22-.849-.433-.236-.216-.163-1.927-.1-1.914.058.013.904.962 1.336 1.552.432.591 2.395 2.048 2.449 2.036.058-.011-2.291-1.863-2.419-2.216-.125-.354-1.025-1.298-1.133-1.419-.104-.125.086-2.286.235-2.327.152-.04.631.206 1.837.134 1.202-.073 1.474-.162 1.867-.278.389-.115 1.593-.48 1.642-.589.051-.108-1.304.435-1.855.542-.551.108-2.86.435-3.508 0-.253-.252-.202-1.877-.202-1.877s1.65.539 2.003.575c.349.037 2.158.256 2.208.147.05-.11-1.855-.216-2.254-.29-.401-.069-1.554-.469-1.755-.612-.202-.147.253-.543.253-1.193s-.153-3.203-.003-3.345c.149-.146.749.132 1.838-.172.752-.18 2.874-.962 3.023-1.07.151-.107-2.503.795-3.058.939-.55.147-1.555.109-1.654 0-.101-.107.14-1.371.193-1.623.047-.253-.043-.543-.094-.76-.049-.215-.2-.566 0-.639.203-.072 1.344.41 2.097.337.752-.072 3.52-.708 3.672-.817.15-.109-3.165.794-4.117.686-.952-.107-1.389-.352-1.601-.505-.21-.15-.114-.829-.065-1.372.05-.542.515-1.12.717-1.697.201-.577.715-1.247.852-1.444.14-.199.215-.802-.46-.889-.306-.04-.622-.203-.957-.182-.403.02-.836.227-1.319.138-.188-.035-.681-.17-.937-.166h-.004z" fill="#1d81a4"/><path d="M18.2367 33.5875c-.048-.025-.115-.118-.124-.194.06.009.11-.001.144-.035-.043-.011-.104-.017-.158-.014.003-.04.007-.122-.058-.137-.102-.026-.071.078-.078.128-.079-.004-.153-.04-.226-.053-.015.076.016.139.019.207.004.037.109.056-.01.086-.031.01-.107-.037-.121-.049-.023.022-.03.061-.017.091.126.007.24-.008.212.115-.06.006-.167.062-.153.116.009.032.105.047.134.057-.089-.002-.179-.006-.251.015-.04.011-.056.053-.106.064-.032.009-.104 0-.142 0-.266-.007-.166-.1-.194-.26-.04.003-.063-.017-.102-.016.002-.018-.01-.046-.009-.063-.206-.003-.094.217-.062.287-.041.008-.099.006-.135-.006-.02-.037-.018-.021-.059-.041-.04.085.072.108.139.142.107.048.111.051.156.15.02.054.039.165.126.172.053.005.094-.091.214-.064.015.05.017.1-.028.144.043.054.111.03.162-.003.074.089-.134.166-.181.072-.063.017-.105.024-.177.008-.042-.01-.01-.091-.129-.063-.047.114.141.193.261.193.035.08-.044.068-.07.117-.038.061-.036.082-.021.15.018.088.011.201.05.286.064.001.114-.012.169-.016.002.013.005.026.005.039.059-.005.146.03.167.03.078 0 .055-.018.099-.028.122-.033.165-.021.273.002.146.031.18.031.217-.073.026-.064.048-.179.026-.246-.055-.011-.109-.019-.166-.026-.013-.076.057-.031.096-.076.048-.051.056-.045.06-.13.005-.056-.041-.042.016-.103.032-.038.104-.045.123-.099.036-.101-.103-.163.115-.193.065-.013.14.007.207 0 .093-.013.09-.027.167-.05.098-.028.255-.046.195-.165-.023-.047-.115-.05-.128-.105-.007-.03.048-.113.064-.138.057-.078.169-.139.22-.225.035-.059.117-.195.097-.263-.006-.019-.005-.039-.006-.056-.22-.048-.318-.212-.412-.003-.03.006-.089.006-.118 0-.006-.043 0-.09-.008-.132-.15.001-.25.179-.136.255-.135.088-.117.091-.117.207-.111-.006-.116.071-.111.135-.063.014-.106 0-.12-.043 0 0 .048-.079 0-.1" fill="#1d81a4"/><path d="M17.8561 35.3173c-.037.027-.231.154-.223.204.022.086.167.039.239.01.005.009.014.023.019.035.027.004.061.003.088-.001.017-.052.022-.12.1-.138.064.127-.083.192-.062.321.026.006.08.005.105 0 .012-.031.041-.051.055-.076.028.047.038.125.137.11.019-.06.047-.142.026-.202-.021-.059-.132-.067-.09-.163.035-.072.069-.046.065-.112-.001-.029-.076-.027-.065-.067.012-.038.103-.06.146-.072.012.048.026.104.105.102.008-.078-.014-.163.036-.234.149-.034.126.088.186.144.053-.079-.016-.141-.012-.214.106-.003.201-.017.236.07.067-.043.216.01.265-.028.091-.065-.042-.109-.121-.112-.029-.129.118-.206.159-.047.027.003.048 0 .075-.01.004-.063.011-.13.001-.191-.009-.069-.057-.112-.061-.171.136-.002.471-.046.419-.194-.03.005-.072-.006-.102-.002-.005-.07.037-.159-.096-.159-.002-.049-.009-.101.007-.147.02-.038.099-.083.103-.113.007-.05-.062-.069-.087-.106-.035-.053-.041-.078-.039-.146.002-.112.126-.613-.201-.496-.121.042-.223.216-.26.292-.046.101-.123.203-.188.303-.067.103-.17.195-.189.309-.019.104.027.204.031.307.007.119-.009.148-.111.227-.096.075-.232.099-.32.162-.06.047-.053.06-.075.115-.028.07-.018.076-.065.137-.032.045-.052.068-.08.112-.033.061.012.095-.092.138l-.065.103h.001z" fill="#1d81a4"/><path d="M19.4057 34.7778c.064-.012.06.021.11.032-.01.019.009.052.002.071.184.033.06-.235.271-.237.087 0 .123.066.206.039.069-.022.05-.111.085-.144.039-.035.129-.043.168-.084.041-.043.012-.095.063-.138.07-.056.268-.155.374-.133.001.009.005.018.005.028.104.009.338-.052.33-.143.122-.018.187-.061.175-.155-.008-.051-.095-.051-.05-.109.024-.031.147-.045.19-.056.125-.038.508-.277.495-.028.038-.01.081-.003.12-.026-.034.138.34.121.103-.089-.045-.043-.183-.097-.198-.147-.01-.03.05-.142.052-.19.049.003.104-.004.154-.004-.011-.042.019-.071.033-.103.005-.013.019-.072.031-.091.045-.086.066-.103.035-.19.077.01.111.065.139.115.048-.018.091-.014.141-.008.011.037.033.081.062.11.012.008.072-.011.083-.003.029.02.019.047.041.064.054.041.043.045.086.097.026.036.022.072.075.103.006-.054-.018-.162.046-.197.101-.058.162.04.195-.077.005-.021-.059-.042-.06-.077-.003-.015.048-.044.043-.082-.013-.08-.154-.082-.123-.168.123-.033.084-.153.02-.199-.046-.035-.115-.008-.153-.053-.019-.026.002-.107-.003-.136-.111-.024-.138.06-.229.077-.038-.145.065-.077.154-.124.061-.033.132-.143-.013-.15.075-.045.088-.091.048-.168-.014-.023.009-.047-.008-.068-.014-.02-.081-.006-.097-.028-.024-.041.003-.077-.022-.122-.121-.212-.498.149-.472-.191.11-.022.38-.053.338-.17-.063-.008-.111.004-.166.017-.014-.057-.053-.093-.062-.156.165.026.202-.13.126-.194-.069-.057-.39-.059-.457-.007-.01.147-.033.266-.286.25-.02.036-.031.064-.034.105.003-.041-.002-.088.003-.13.208-.031.224-.127.197-.271-.126-.045-.164.023-.255.07-.11.056-.169.024-.291.051-.119.024-.158.08-.288.09-.097.008-.235-.018-.299.018.01 0 .046.002.055.003-.186.125-.243.207-.339.364-.066.111-.296.22-.266.366.11 0 .133.103.124.171-.019.132-.146.108-.223.2-.075.093.037.151-.176.153-.098.003-.265-.071-.303.034-.162-.026-.215-.09-.231.067-.014.126.069.126.124.213.071.112-.046.164-.11.254-.074.107-.029.122.039.236.073.127.023.139-.006.258-.021.09.045.163.084.243.055.117-.036.449.153.488.025.095-.127.098-.167.171-.032.065.03.129.042.19 0 .001-.095.108-.033.098" fill="#1d81a4"/><path d="M20.3877 34.1671c-.077.083-.127.154-.077.26.047.009.069.025.121.028.014.063.023.126.011.189-.172-.002-.415.091-.515.202.029-.008.077-.006.113-.019-.003.011.018.046.016.067.17.019.246-.106.365-.158.062.107-.102.142-.062.259.036-.025.094-.066.167-.057-.005-.052-.019-.119.064-.135-.037-.102-.052-.166-.044-.293.088.001.214-.011.266-.063.04-.035.099-.168.074-.221-.11-.003-.193.259-.319.148-.036-.031.026-.2.026-.263l-.206.056zM20.8459 34.6803c.054-.057.206-.122.141-.197-.02.007-.038.009-.062.015-.012.048-.048.066-.109.052.039-.046.104-.107.181-.112 0-.045-.016-.092-.007-.143.128-.018.142.075.265.087.12.012.189-.077.303-.034-.029.078-.232.132-.33.139-.018.077.081.115.062.201.016.003.036.003.055.003-.002.068.074.056.083.111.002.019-.05.098-.049.136-.024.008-.08.008-.105.002-.003-.013-.006-.028-.006-.04-.021.001-.063-.008-.09-.006-.003-.019-.014-.033-.017-.05-.029.027-.032.013-.061.027-.005-.106.064-.211.016-.307-.108.038-.103.21-.252.193-.003-.017-.006-.038-.003-.056l-.015-.021z" fill="#1d81a4"/><path d="M21.7462 33.8914l-.048.093c-.032.029-.039.064-.029.102.107.004.134-.006.198.041.06.042.04.105.129.134.019.06.033.113-.012.165-.033-.042-.082-.077-.155-.068 0-.013-.007-.03-.01-.042-.116-.004-.297.019-.267-.102-.103-.017-.166.029-.246.042 0-.058-.298-.175-.341-.058-.026.005-.062.007-.086 0-.007-.006-.033-.049-.033-.054.131-.052.063-.148.184-.209.102-.05.258-.058.324-.033.057.021-.005.094.119.069.033-.007.092-.066.101-.091.038-.117-.139-.131.042-.231-.01.075.063.05.087.09.019.037.022.098.043.131M16.3521 34.2582c-.07.03-.112.091-.2.097.021.062 0 .104-.048.151.045.005.058.026.107.03-.003.019.008.042.005.061h.04c.003-.026.035-.049.039-.074.203.025.081-.141.094-.206.113-.012.172-.199.202-.266.056-.118.073-.249.124-.366.052-.122.183-.122.162-.269-.015-.105-.091-.233.051-.318.032.058.121.141.174.045.046-.016.08-.027.123-.048.055.113-.021.116-.088.191-.074.077-.045.1-.021.208.078.016.147-.007.171-.058.014.046.022.099.035.149.109 0 .073-.427.03-.487.085-.003.222-.025.264.015.068.063-.033.146-.008.219.03.007.097.01.131.003.016-.073.068-.254-.052-.265-.007-.016-.007-.035 0-.051.059-.013.126-.018.185-.018-.007.039.012.068.019.105.14.004.245-.049.374-.028.007.022.022.042.02.061-.003.004.048.004.045 0 .003-.01-.002-.019.003-.03.097-.003.168-.001.247-.028.053-.015.079-.055.143-.066-.021-.078.105-.134.183-.095.032.014.018.095.06.115.034.016.13.005.169.008-.045.172.366.199.257.008-.037-.06-.149-.074-.192-.136-.026-.036.015-.073-.023-.106-.031-.027-.117-.014-.143-.046-.061-.069.071-.126.076-.176.009-.086-.091-.076-.115-.151-.017-.057.034-.123.11-.137.117-.021.169.06.221.116.163-.048.266-.079.321.077.1.047.348.036.403-.056.023-.034.014-.144.004-.182-.027-.1-.071-.057-.134-.135-.033-.037.02-.107-.014-.138-.056-.045-.212.001-.252.016-.077.024-.136.106-.241.055-.074-.036-.043-.094-.091-.139-.129-.002-.21-.007-.272.088-.043.065-.011.17-.179.137.021-.126-.157-.043-.205.002-.069.06-.055.153-.205.157-.098.002-.148-.081-.256-.035-.104.046-.131.181-.271.196-.096.014-.179-.06-.282-.044-.14.017-.119.11-.233.175-.091.053-.188.049-.282.103-.117.07-.147.135-.306.084-.006-.006-.004-.023-.009-.03-.114-.009-.038-.127-.148-.173-.195-.085-.181.082-.317.1-.102-.161-.204.023-.325.042-.114.017-.255-.049-.385-.053-.003-.012-.01-.031-.01-.042-.098-.007-.098.076-.093.13-.095.008-.2 0-.294.007.007.047-.013.054.028.083-.043.048-.133.103-.14.164.128.004.222.02.33.028-.058.216.321.014.41.025-.002.013.005.032.005.049.071.009.152.004.208-.02.028.072-.156.167-.242.181-.053.009-.102-.016-.158-.011-.059.006-.082.042-.156.045-.111.004-.249-.09-.335-.036-.072.044-.01.07-.026.109-.016.042-.044.084-.049.131.075.003.159-.002.232.005-.006.024.01.053.003.075.064.008.074-.031.096-.033.01-.002.054-.03.076-.036.042-.006.06.027.078.027.108-.009.165-.047.259-.059.021.059-.037.035-.059.084-.015.034-.023.083-.039.117-.048.094-.051.091-.203.099-.001.016-.004.026 0 .039.066.003.133.004.2-.002.049.117-.233.119-.185.266.164.033.093-.081.155-.128.091-.07.287.007.366-.074.055-.052-.003-.178.012-.243.026-.097.075-.092.16-.16.042.15.119.267-.107.36-.01.106-.012.208-.034.3.085.008.147-.022.217-.045.026.019.049.044.051.07l-.048.091h-.003zM25.5069 31.3773c.142-.004.209-.133.327-.135.006.026.029.108.007.136-.023.033-.081.014-.111.042-.039.04-.131.233-.201.094-.034.036-.085.052-.144.044-.003-.049-.081-.136-.002-.146.08-.013.124-.035.124-.035m-3.366-.296c-.01.051.093.104.127.137.048.049-.01.109.136.092 0 .013.009.038.009.052.122.007.181-.017.218.07.024.061-.032.103.019.158.114-.02.169-.138.308-.109-.008.051-.049.089-.04.145.014 0 .025.002.04.002.027.086-.062.157-.02.236.01.018.087.016.098.028.015.014-.006.056.006.064.038.026.03.063.12.046.02-.064.049-.117.073-.177.061-.008.094.015.094.062.035-.005.084.01.119.005.017.108-.132.302.094.315.012-.045.073-.053.087-.088.013-.027-.017-.068-.001-.093.048-.082.103-.088.215-.104-.024-.09-.107-.122-.04-.218.029-.046.103-.065.125-.111.017-.032 0-.096 0-.131.115.028.212.115.155.208-.04.068-.168.069-.137.159.136.009.296.061.269.173.075-.009.142.008.142.068.014 0 .025.002.039.004.016.01 0 .018.008.029.014.001.029.003.039.004.027.075-.009.167-.024.239-.019.072-.096.165-.079.236.181.002.175-.246.34-.274.023-.052-.019-.105-.039-.151.206-.034.495.115.458-.143-.011-.076-.021-.159-.032-.239-.011-.072-.089-.147-.059-.223.322-.054.114.158.28.235.151.069.41.025.382.203.353-.037-.027.247-.002.342.041 0 .096.022.127.023-.045.073-.012.155.121.122-.009-.076-.128-.325.045-.349.013.068.003.144.009.215.113-.011.212.025.191.115.097.007.178.016.203-.057.032-.1-.07-.074-.13-.102-.041-.019-.155-.05-.11-.105.034-.042.197-.021.24.002.054.031.009.074.11.102.062.019.18.023.251.012.151-.025.208-.158.189-.278-.008.003-.018.003-.026.003.008-.04-.016-.07-.035-.102 0 .013-.022.053-.018.08-.118-.006-.086-.111-.11-.175-.013.067-.181.293-.267.129-.047.159-.349.03-.156-.045.065-.025.186.033.243-.016.054-.046.006-.111-.07-.12.006-.091.221-.079.11-.184-.04.024-.087.039-.138.037-.047-.003-.133-.041-.133-.041-.127 0-.12.038-.159.119-.115.005-.271.017-.359-.022-.003-.079-.032-.158-.016-.235.032 0 .112.033.128.028.053-.009.077-.057.122-.068.078-.017.215 0 .295.005 0 .061.105.123.189.12.042-.069.264-.153.198-.237-.064.023-.113.063-.189.054.004-.017-.009-.042-.005-.061-.118-.009-.271.13-.348.04.065-.082.283-.125.287-.222-.097-.006-.139.074-.252.049.089-.049.107-.22.094-.3-.152-.028-.251.021-.335.085-.117.084-.147.119-.308.156.009-.001-.051-.001-.071.004-.022.003-.028.046-.048.047-.095.013-.084-.04-.169-.035-.113.009-.125.134-.267.113-.002-.008-.005-.018-.006-.028-.093-.019-.091.057-.17.053-.117-.007-.047-.077-.122-.109-.053-.024-.181.067-.269.09.04.118.137.222-.134.246-.274.026-.291-.098-.092-.182.143-.058.088-.064.141-.157.042-.074.167-.111.176-.187.022-.188-.211-.079-.257.023-.114.026-.117-.077-.184-.112.021.027.014.061.028.089-.062.002-.126.001-.187.002-.018.064.058.089.132.094.015.08.034.204-.104.215-.186.014-.086-.165-.249-.15-.009-.12.044-.223.026-.336-.043-.007-.098 0-.135.018.004.074-.004.178-.145.157-.002-.051 0-.109-.002-.164-.096-.017-.199.019-.298.003.005-.034-.008-.07-.004-.105-.188-.019-.282.042-.26.187.003.003.05.033.056.058.009.023-.024.04-.014.058.025.047.017.085.12.081.072.149-.455.296-.42.015.044-.02.086-.042.134-.054.014-.029.011-.065-.007-.09-.046.02-.083.042-.098.08h-.043c-.019-.048-.037-.111-.051-.148-.028.05-.158.101-.236.102-.005-.077-.08-.144-.174-.09-.097.058-.114.184-.114.184h.002z" fill="#1d81a4"/><path d="M17.2561 31.4327c.014-.001.027 0 .041.001-.003.017.014.049.009.066.025-.002.062.007.087.005.056.118-.162.091-.261.087-.002-.039-.002-.089-.002-.123 0-.036.126-.036.126-.036m-.19.764c-.11-.013-.127.057-.127.057-.034.188.36.2.537.192.041-.084.007-.104.097-.156.089-.051.205-.075.208.042.14.03.196.08.206-.075.14-.048.147-.025.155-.152.006-.1-.068-.157-.061-.236.069-.004.22-.023.282-.004.105.032.071.107.129.159.1.088.444.046.284-.099.064-.011.13-.049.188-.069.057-.022.199-.041.238-.079.134-.136-.007-.231-.183-.284-.188-.054-.343-.087-.279-.234.055-.13.052-.252.299-.219-.003.041-.014.067-.075.08.029.086-.056.099-.141.137-.061.266.585.279.52.076.107-.003.215.001.318-.003.055-.003.029-.017.093-.01.066.01.066.036.129.044.045.009.114-.012.157-.001.044.015.067.063.107.076.079.032.18.026.251-.03.09-.07.067-.131-.029-.168-.033-.015-.095-.012-.136-.024-.038-.011-.107-.054-.112-.056-.105-.03-.201-.009-.224-.102-.019-.083.088-.115.057-.19-.014-.003-.026-.005-.039-.005.005-.128-.04-.243-.111-.327.134-.021.106-.104.113-.183.218-.052-.078-.157-.075-.217-.07-.002-.141 0-.205-.009-.14-.017-.093-.014-.212.02-.074.022-.145.019-.22.038-.09.024-.097.068-.216.068-.005.058-.039.096-.049.155-.114-.009-.245.116-.322.177-.085.064-.117.197-.069.285.043.082.251.166.004.188-.09.008-.304-.039-.281-.113.104-.014.079-.09.07-.148-.127-.038-.245-.001-.367-.011-.107-.008-.225-.021-.356-.038-.232-.023-.508.008-.735-.042-.059-.011-.09-.064-.162-.062-.111.004-.043.031-.113.081-.108.075-.263.038-.323.148-.048.081.016.173.086.234.059.053.095.047.142.106.027.036.036.088.05.127.195.051.189.045.348-.053.247-.148.078.122-.097.104-.031.061-.009.12-.031.182-.025.066-.164.101-.144.179.013.053.09.053.127.112.03.044.039.121.064.17.083.005.141-.033.237-.01.098.025.112.184.002.172h-.004zM13.7775 29.896c-.118.054-.102.194-.064.284.032.073.067.195.173.211.019.038.022.081.012.119-.029.007-.09.007-.118 0-.018-.041-.067-.067-.127-.062.013.072-.019.164-.141.154-.01-.068-.173-.14-.269-.132.006.05.047.135.096.172.085.07.108.039.233.039.032 0 .097-.009.126 0 .044.015.038.064.075.076.074.025.178.012.268.022.013.071.058.274-.103.256.002-.018-.009-.04-.009-.054-.031-.009-.088-.006-.118.002-.008.021-.008.063 0 .085.094.022.152.254.136.319-.03.005-.091.005-.12 0-.004-.069.004-.146-.008-.213-.03-.013-.088-.023-.119-.019-.018.132.078.27.077.403 0 .107-.077.13-.12.219-.029.059-.009.16-.004.225.026.005.081.005.107 0 .002-.058-.029-.16.094-.133.069.201-.434.217-.373.372.045.005.107.005.153 0 .003-.004.014-.033.016-.035.048.063-.11.143-.099.218.038-.05.103-.058.153-.099.038-.034.032-.069.06-.105.047-.049.16-.155.248-.142-.007.02.01.051.004.072.244-.054.133.236.312.227.02-.047.06-.157.115-.193.081-.049.304-.007.27-.132.087-.025.173.007.229-.051.06-.057.007-.118.117-.172.044.052.047.122.124.143-.007.027.011.063.003.087.073-.024.105-.111.128-.166.131.007.177-.053.281-.085.051-.015.108.009.155-.023.03-.022.025-.084.067-.112.1-.068.148-.062.205-.157.044-.073.108-.175.064-.275-.023-.048-.142-.16-.199-.201-.112-.087-.218-.044-.371-.073-.165-.031-.124-.103-.181-.201-.033-.057-.157-.155-.276-.154-.004-.056-.083-.078-.156-.073 0 .089.107.344-.113.325-.001-.082-.03-.174-.015-.248.139-.023.245-.401 0-.402-.003-.012-.008-.034-.008-.043-.077.071.043.169.008.258-.02.056-.167.225-.236.218.014-.093-.055-.091-.09-.15-.046-.077-.014-.055.019-.136.029-.066.106-.346-.038-.335-.007.081.027.209-.027.276-.12.14-.203.023-.213-.074-.01-.061.047-.243-.104-.239-.144.005-.024.191-.031.248-.208-.016-.186-.171-.215-.282l-.063-.059z" fill="#1d81a4"/><path d="M14.1738 32.4918c.001.018.03.044.032.069.101.016.174-.056.251-.08.094-.027.157.01.219-.068.033-.041.04-.144.047-.185.004-.025.047-.045.036-.076-.008-.035-.08-.042-.101-.077-.054-.08-.019-.133.088-.124.095.009.143.084.234.098.085.014.23-.018.327-.012.09.006.18.036.286.012.03-.082-.113-.082-.024-.156.059-.049.164.018.174-.082.149-.01.163-.049.252-.113.114-.079.193-.051.329-.088-.06.126-.18.214-.155.369.081.003.119.031.2.031-.019.065.027.116.126.093.024-.059.007-.185.142-.165-.022.092.078.097.174.094.018.057.08.083.076.141-.131.01-.104.089-.16.144-.054.055-.177.09-.069.15-.03.014-.084.022-.128.013-.032-.09-.134-.141-.283-.136.003-.082-.103-.139-.222-.138-.002-.122-.21-.028-.219.057.109.001.077.114.07.172-.065.003-.163-.013-.217.006-.08.026-.096.091-.19.11-.182.033-.194-.085-.332-.093-.113-.004-.299.087-.392.138-.131.074-.265.201-.427.226-.034-.12.097-.107.14-.193-.1-.04-.14.033-.235.033.009-.037-.023-.042-.033-.066l-.016-.104zM15.1216 30.1242c-.001.062.008.143.096.16.069.011.102-.077.19-.047.041.014.01.072.034.089.023.019.098.019.102.03.077.101-.028.11-.034.199-.023.003-.045.004-.068 0-.024-.044-.081-.092-.145-.096-.005.01-.005.03-.005.04-.02 0-.042-.002-.057.004-.027.093.129.23.233.24-.006.07.108.188.205.175.01-.044.022-.087.037-.132.121-.007.063.204.223.136.166.238.233-.077.344-.175.008.022.028.044.033.071.15.084.203-.049.374-.082.022-.046.02-.1.022-.157.121.007.2-.033.312-.045.123-.013.232-.003.348-.024.02-.056-.019-.098-.03-.147-.007-.025.016-.07.002-.092-.019-.026-.084-.02-.105-.043-.078-.097-.008-.176-.006-.296.054 0 .102-.012.153-.015.027-.024.046-.062.067-.089.013-.018-.014-.049.003-.069.014-.018.057-.014.072-.036.056-.075.076-.114.061-.212-.104-.009-.169.099-.207.156-.062.002-.078.005-.129.023-.112-.063.02-.25-.069-.329-.025-.024-.174-.061-.206-.057-.092.013-.098.103-.219.078.017-.115-.204-.057-.214-.155-.01 0-.051.003-.058.003-.002.079-.099.156-.203.193-.023.114.037.22-.016.323.064.019.034.021.057.059-.131.017-.195-.066-.326-.059.007-.035-.01-.076-.008-.109-.184-.016-.028-.159-.199-.186-.137-.018-.266.128-.254.209.008.043.089.056.096.097.012.071-.077.092-.119.146-.047.057-.145.252-.251.098-.043.009-.05.028-.057.055l-.079.068zM23.1606 11.8306c0 .063.009.144.094.159.073.014.102-.076.191-.046.041.015.013.07.034.09.022.018.097.019.105.028.075.102-.03.113-.034.2-.025.002-.049.002-.071 0-.023-.044-.08-.092-.144-.096-.003.009-.003.029-.007.039-.018.001-.04-.003-.053.006-.03.091.128.228.23.239-.006.069.107.189.206.176.01-.046.022-.09.036-.135.122-.005.064.206.222.141.169.235.236-.08.345-.178.009.021.028.045.033.07.151.084.202-.047.375-.081.022-.048.021-.1.021-.155.122.005.202-.033.315-.047.121-.014.231-.003.345-.025.019-.054-.018-.099-.031-.146-.004-.025.018-.069.003-.091-.02-.026-.083-.02-.103-.044-.081-.096-.009-.175-.007-.297.054 0 .1-.011.154-.014.027-.023.047-.063.066-.089.014-.019-.016-.049 0-.07.018-.016.06-.016.071-.035.058-.078.083-.114.064-.212-.104-.01-.168.098-.206.156-.063.002-.078.006-.127.023-.114-.064.016-.251-.072-.329-.024-.025-.17-.063-.205-.057-.092.014-.099.101-.219.079.02-.116-.203-.058-.214-.157-.007 0-.051.003-.055.003-.003.08-.102.157-.206.195-.023.111.037.218-.015.324.062.018.032.018.055.057-.13.016-.195-.066-.324-.059.006-.035-.009-.077-.009-.112-.183-.013-.026-.157-.199-.182-.137-.021-.269.123-.253.205.005.046.089.059.096.097.01.073-.078.094-.12.149-.046.056-.144.252-.252.096-.043.011-.047.03-.056.056l-.082.068.003.001z" fill="#1d81a4"/><path d="M17.7004 29.7255c.062-.011.069.06.158.07-.016-.002.197-.061.209-.067.144-.064.141-.144.358-.124.024.076-.055.116-.012.189.117.021.148-.059.25-.056.124.004.089.096.218.099.05.003.148-.04.221-.039.07.004.215.017.301.024.023.095-.211.198-.311.227-.002.042.018.119-.009.153-.035.045-.127.062-.169.117-.043.059-.01.104-.117.154-.084.038-.148.041-.215.083-.055.035-.069.098-.148.133-.14.058-.067.028-.15-.03-.103-.072-.227-.115-.376-.051.004.041-.027.048-.041.083-.068.003-.167-.011-.229.003-.096.021-.124.084-.224.091-.19.013-.181-.103-.099-.185.068-.064.172-.115.241-.18.109-.098-.005-.138.065-.247.054-.005.1-.012.152-.027.038-.091-.116-.08-.178-.132-.079-.064-.039-.087-.008-.162-.002 0 .046-.114.112-.126h.001zM20.3388 30.8756c.112-.068.169-.002.24.042.053.028.019.063.093.073.057.007.05-.037.089-.038.043-.002.112.021.145.014.05-.009.055-.035.093-.044.062-.02.158-.098.167.031.038-.034.035-.083.06-.121.04-.072.071-.064.142-.104.137-.08.082-.236.314-.229-.016-.15.239-.019.303-.023.116-.004.213-.098.235-.17.026-.081-.052-.281.11-.162.046.033.036.115.095.142.043.016.169-.004.22.002.002.01.002.019.006.028.214.007.101-.456.022-.514-.076-.054-.226-.12-.37-.072-.066.02-.083.106-.178.109-.085.002-.114-.049-.168-.07-.099-.049-.248-.103-.369-.114-.078-.007-.139.016-.202.011-.048-.003-.113-.067-.199-.044-.09.027-.069.086-.09.137-.034.092.019.076-.11.116-.031.008-.078-.009-.109 0-.049.011-.03.021-.072.039-.103.038-.079.082-.206.035-.092-.033-.078-.081-.165-.11-.047-.018-.236-.018-.288-.012-.109.016-.173.08-.283.101-.101.019-.196-.029-.153.112.279.056-.036.138-.053.243-.004.027.067.101.075.129.023.061.019.115.023.178.156-.015.227.145.223.238.062-.007.126 0 .156.025 0 0-.016.034.062.057.08.021.144-.035.144-.035h-.002zM23.628 29.1782c.151 0 .296.03.453.037.002.057-.084.185-.196.167 0-.017-.019-.047-.018-.057-.119.059-.361.002-.318-.123l.079-.024zm-2.102-.477c-.009.063.005.122.033.18.103-.015.1.063.184.079 0 0 .054-.054.1-.044.048.011.048.066.081.086.027.018.084.018.105.034.035.028.029.071.065.097.069.05.166.02.193.101.091-.016.15.033.159.091.082.045.146.049.263.046-.007-.029.012-.067.003-.095.099-.004.164-.053.184-.122.022-.077-.151-.158.022-.157.149.001.142.121.172.206.048.132.078.12.252.141.004.061.013.164.111.171-.01.208.211.064.301.039.124-.03.143.039.216.053.053.008.151-.007.24-.008-.031-.111.062-.101.158-.074.003.009.005.019.006.029.073.003.234.011.286.007.125-.011.076-.024.153-.086.086-.067.265-.129.213-.26-.248.011-.271-.138-.511-.141-.007-.01-.005-.018-.008-.028-.115-.015-.15.091-.239.127-.118.05-.133.013-.245-.017-.183-.048-.302.01-.467-.076-.143-.075-.261-.144-.434-.174-.17-.031-.322-.093-.305-.238-.119.003-.201.173-.356.11-.157-.062.05-.1.007-.189-.138-.021-.21.096-.319.059-.079-.026-.053-.162-.085-.207.094-.003.054-.041.094-.071.025-.017.105-.07.127-.102-.09-.023-.203 0-.302-.011-.09-.01-.184-.056-.283-.035-.14.032-.057.077-.08.16-.021.085-.061.114-.048.217l-.046.102z" fill="#1d81a4"/><path d="M26.6479 30.1135c.073-.059.1-.227.219-.212.004.048.012.094.049.133.078-.113.217.009.187.1-.077 0-.174-.019-.193.045-.069-.012-.196-.032-.262-.055m-.111-.34c-.003-.036-.005-.062.022-.082.008.074.137.155.069.247-.016.026-.175.117-.199.116-.008-.083 0-.156.029-.226l.079-.055zm-.744.123c.044-.023.096-.03.154-.021-.003.02.014.055.007.076.145.006.128.123.001.116-.001-.016-.011-.035-.015-.044-.038.031-.065.02-.112.032.002-.028-.024-.047-.02-.074-.082.005-.155-.016-.139-.085h.124zm3.13-.478c-.003-.009-.001-.02.003-.029.021-.005.046-.009.072-.002-.004.015.011.045.006.064.184-.006.044.071-.018.092-.066.025-.168.038-.248.033-.006-.043.033-.076.09-.089l.096-.069h-.001zm-4.594.138c-.151.036-.123.104-.142.193-.025.129 0 .14.051.253.046.102-.023.191-.138.245-.054.024-.122.033-.172.06-.091.052-.05.076-.111.136-.033.035-.161.041-.127.102.022.041.169.022.216.024.055.164.234-.066.268-.106.093-.104.181-.091.311-.01.096-.085.326-.027.346.067.203-.004.123.191.175.275.018 0 .036-.001.056 0 .014-.101-.03-.19-.036-.29-.037.001-.091-.012-.131-.01-.007-.03-.007-.073 0-.106.057-.004.244-.021.285.019.027.031-.041.119-.05.149-.047.177.149.154.324.208.046.013.068.043.122.052.057.007.074-.029.122-.022.093.018.114.077.214.064.261-.032.028-.241.043-.343.214-.019.215.035.323.122.112.096.169.087.347.105-.007.052.017.165.11.156.104-.014.117-.169.157-.211.067-.072.231-.123.04-.154-.081-.014-.158.031-.251.02 0-.043-.033-.066-.093-.07-.052-.214.243-.193.408-.155.054.011.206.027.202.078-.005.051-.13.039-.137.104.235.017.319-.08.311-.233-.052-.014-.156-.188-.117-.232.062-.075.297-.021.263.077.124.021.163.04.213.117.08-.04.165-.106.147-.18-.017 0-.038-.005-.058-.005-.003-.176-.249-.013-.32-.112.111-.158.241-.061.453-.022-.018.122.205.106.12.218-.032.037-.098.033-.128.087-.03.052-.028.112.033.14.024-.007.067-.019.086-.028.076-.15.143-.056.275-.083.129-.022.193-.16.176-.241.164-.022.147-.119.188-.207.056-.11.096-.113.27-.116.128 0 .259.02.356-.041.108-.069.079-.163-.084-.142-.009-.018-.009-.055 0-.075.124.007.088-.042.121-.094.016-.025-.005-.05.015-.074.015-.019.082-.033.101-.052.055-.056.098-.191-.003-.25-.109.031-.103.143-.252.11-.043-.116.12-.105.181-.184.084-.116-.052-.054-.136-.004-.113.069-.18.21-.333.228-.137.019-.137-.042-.054-.123.035-.033.095-.057.119-.083.032-.032.013-.07.072-.109.042-.031.117-.033.148-.056.065-.043.046-.067.08-.108.081-.105.118-.108.294-.117.009-.046.01-.096-.009-.136-.037.04-.05.023-.11.033.009-.048-.009-.094-.048-.125-.05.014-.102.02-.158.023.01-.04-.013-.071-.033-.103-.091.086-.108.125-.283.114-.031-.145.243-.18.158-.342-.05.038-.056.098-.109.127 0-.02-.007-.045-.019-.063-.054.049-.152.136-.248.13-.009-.067.006-.142-.033-.203-.042.064-.096.077-.084.16.013.057.074.068.06.134-.01.061-.098.065-.081.125.009.044.16.074.183.119.044.088-.065.28-.162.295-.07.011-.113-.021-.217.023-.063.026-.09.102-.161.042-.168.059-.291.177-.447.054-.06-.048-.063-.131-.216-.075-.105.04-.076.078-.081.168-.051.012-.099.018-.155.018.016.148-.209.119-.349.122-.005.031-.033.047-.034.078-.078 0-.198-.009-.267.015-.075.024-.09.089-.161.059-.087-.03-.023-.142-.062-.181-.051-.045-.151-.026-.234-.029-.005-.037-.028-.07-.045-.101-.024.055-.072.105-.159.089-.004-.033-.027-.061-.021-.095-.028.014-.06.006-.09.014-.013-.076-.06-.134-.066-.213-.008-.078.005-.157-.003-.235-.156-.029-.18.064-.222.144-.043.072-.097.114-.158.17-.102.095-.033.096-.011.206.011.056-.005.185-.08.217-.043-.049-.104-.084-.187-.069.023.09.108.135.001.216-.035.028-.112.01-.132.057-.027.063.062.052.087.093.086.125.005.101-.087.177-.076.064-.04.113.121.129.03.12-.46.11-.418-.112.013-.004.024-.004.04-.004.029-.108.14-.115.068-.241.019.032-.474.156-.547.016v-.001zM19.3124 29.4415c.148-.005.137.138.141.215.065.005.114-.003.159-.022.029.042.153.238.177.068.014.034.026.065.029.103.119.013.117-.057.186-.091.069-.034.09-.026.193-.034.242-.019.118-.098.253-.193.086-.063.326-.052.117-.164-.084-.043-.128.008-.129-.072-.003-.03.105-.047.069-.118-.167-.023-.329.021-.485.035-.103.007-.161-.014-.247.031-.072.038-.053.128-.196.105l-.093.068-.174.069zM20.8321 29.2577c-.041.027-.065.057-.065.093.02-.007.044-.009.065-.014.009.035.023.077.033.115.053-.002.102-.004.152-.007 0 .009.003.02.005.03.101-.018.202.075.266.115.047-.043.121-.084.114-.146.037-.004.062-.02.105-.015-.018-.064-.133-.035-.155-.103-.014-.04.055-.118.064-.171.007-.058.007-.134-.009-.189 0-.007-.05-.043-.058-.07-.007-.025.037-.068.027-.102-.052.003-.072-.008-.115.02-.047-.046-.114-.103-.207-.084-.005.055.037.177.014.223-.01.02-.093.06-.113.09-.025.037.005.076-.03.112l-.096.103h.003zM20.0381 26.5038c.065-.075.17.042.238.056-.022.031.317.32 0 .271-.008-.036-.036-.066-.062-.099-.011.045-.05.071-.109.067-.017-.052-.06-.089-.065-.142-.02.008-.05.011-.062.016-.003-.024-.009-.057-.003-.078l.065-.091h-.002zm-.602 1.048c.004-.015 0-.029.005-.042.048.001.155-.044.175-.052.056-.026.129-.002.107-.082-.045.075-.05.204-.049.295-.018-.049-.058-.082-.124-.073-.004.04-.037.037-.066.056l-.046-.105-.002.003zm-.803.283c.007-.028.005-.045.05-.054.038.175.159-.01.232-.047.007.019.035.037.035.067.022-.006.055-.003.076-.013.013.053.017.152.132.106.016.042.012.097.014.145.019-.003.033-.003.05-.008.021.06.016.122-.029.173-.052.054-.177.107-.246.042-.03-.028.042-.182-.105-.121-.069.028-.033.151-.042.199-.065.006-.124-.003-.182-.023-.008-.043 0-.086.015-.125-.069-.01-.174-.013-.181-.077-.037.007-.084-.009-.119-.003.011-.06.009-.137-.096-.137-.031-.105.071-.05.107-.05.009 0 .035.038.078.038 0 0 .089-.032.097-.034.002-.011.009-.023.018-.032l.095-.047.001.001zm-.683.399c.007.02.003.049-.004.067-.124-.019-.156.059-.136.134.102.012.248.016.333-.02.013.012.008.018.016.035.245-.022-.058.206-.08.23-.026.019-.12.1-.129.124-.017.044.041.096.037.147.087.024.218.015.3-.031.109-.062.16-.168.191.007.112.01.178-.208.22-.069.093.003.068.083.142.11.079.032.213-.031.189.086.102.01.086-.088.172-.124.068.113.191.141.361.134.02-.075-.012-.119-.097-.158.053-.071.083-.129.179-.172.076.124.069.156.279.147.069-.082-.158-.243.036-.332-.005.046 0 .096.019.139.141.031.079-.038.125-.08.025-.026-.022-.047.03-.067.05-.019.105.04.1.041.071-.017.041-.058.11-.095.026-.014.085.011.11-.001.033-.018.037-.045.06-.058.048-.029.111-.051.112-.1.004-.091-.117-.019-.172-.073-.122-.117.055-.219.166-.251.022-.069-.198-.158-.278-.118-.005-.047-.041-.215.047-.23.07-.013.056.125.203.116-.005.016.005.037.002.051.084.014.397-.006.413-.075.126-.024.21.04.342.028.078-.007.371-.07.174-.133.043-.048.11-.08.19-.072.027-.059-.019-.099-.106-.09.01-.047.069-.084.039-.141-.091-.023-.13.031-.159.085-.081.002-.177-.011-.241.022-.007-.036-.033-.05-.041-.088-.112-.016-.143.068-.231.087-.018-.096.033-.172.062-.259-.142 0-.058-.06-.11-.106-.064-.053-.125-.039-.236-.044-.003-.014-.003-.027 0-.041.067-.015.129-.025.2-.027.014-.041.019-.079.02-.123.042.006.095-.006.136-.002-.01-.051.011-.06.066-.082 0-.044-.05-.069-.114-.078.1-.01.121.04.178.048.07.012.148-.008.206-.016.069-.006.129-.02.188-.032.047-.01.174-.017.223-.033.169-.049.052-.147.066-.25.009-.089.108-.178.071-.272-.181-.029-.364-.051-.543-.06-.008-.083.004-.407-.208-.267.018.094-.094.195-.213.231-.133.036-.234-.047-.358-.041-.09.003-.092.035-.17.056-.058.016-.135.007-.194.024-.06.016-.253.14-.096.173.034.116-.107.165-.219.225-.153.077-.136.102-.119.226-.181.005-.373-.012-.544.025-.074.014-.198.061-.24.11-.02.021.026.073.011.088-.036.041-.084.019-.137.034-.185.056-.346.005-.538.028-.081.01-.186.045-.094.115.061.049.18-.031.194.068.01-.006.031-.011.048-.022.065.108-.01.185-.16.232-.009.04-.016.062-.032.095.126.022.151-.058.239-.098.082-.037.125-.044.231-.031.067.183-.279.132-.39.159-.039.011-.064.069-.105.081-.035.012-.091-.008-.122.004-.105.042-.079.051-.121.137.061.002.188-.027.236-.011.123.043.05.092-.048.114-.103.022-.191-.036-.248.054-.034.059.021.111.119.111-.046.042-.089.086-.124.131l-.034.114z" fill="#1d81a4"/><path d="M22.4751 27.289c.089.051.151-.04.273-.014.097.021.119.083.236.093-.06.099-.249-.023-.352-.011-.07.007-.274.11-.237-.034l.08-.033v-.001zm2.276-1.241c.053.071.231.071.155.18-.081-.045-.135-.033-.248-.036-.002-.035-.007-.076-.002-.109l.093-.035h.002zm4.76 1.536c.089-.003.154.047.143.112.099.014.183.052.123.125-.004 0-.039 0-.043.002.006-.07-.08-.079-.161-.069 0-.023-.028-.051-.031-.067-.038.023-.058.012-.092.022-.002-.038-.01-.077-.002-.112l.063-.013zm-1.296-.636c.141 0 .118.077.194.111.073.031.204-.012.197.068-.122.023-.361.084-.395-.039-.017.001-.051-.007-.076-.007.012-.061-.014-.117-.108-.1l.188-.034v.001zm-.018-.263c.121 0 .215-.006.321-.022.172-.026.127-.009.124-.134.137-.032.144.073.126.144-.025.096-.072.037 0 .127.03.037.185.1.051.148-.123.042-.138-.065-.147-.119-.086.133-.11-.091-.126-.124-.025.027-.054.033-.066.07-.015-.002-.041 0-.056 0-.017-.083-.091-.051-.116.002-.004-.008-.029-.034-.033-.052-.041.037-.064.037-.122.038-.012-.025-.002-.048.013-.065l.031-.013zm-.649-.443c.075-.039.162-.022.242-.061.077-.035.109-.117.21-.133.018.052-.089.197-.166.197-.05.072-.013.14-.047.213-.023.042-.084.037-.101.065-.02.038.008.091-.022.12-.147.137-.182-.296-.176-.374.021-.009.035-.004.06-.004m-1.785-.149c.057-.003.243-.097.254-.138.01-.063-.104-.122-.081-.198.073-.006.097.034.081.083.134.034.258.089.144.208-.032.033-.207.087-.271.091.051.077-.03.309-.112.157-.031.019-.069.014-.096.024-.017-.061-.017-.117-.017-.181l.095-.046h.003zm-.683.956c.01-.015.049-.002.033-.041.088-.003.11-.039.2-.036.015.082.03.224-.077.271-.106.048-.113-.072-.246.009-.008-.054-.012-.123.012-.168l.078-.035zm-3.351.217c.114.059.267.12.396.16.065.02.194.012.191.078-.002.066-.089.071-.158.068-.065-.002-.124-.055-.186-.072-.043-.013-.018-.037-.084-.042-.035 0-.025.04-.05.044-.231.033-.209.081.005.117-.06.063.015.087 0 .148-.013.057-.065.077-.065.134.06.002.205-.009.246.022.034.023 0 .061.022.082.014.014.056.037.074.049.023.021.085-.002.103.03.018.033-.055.029-.055.043-.003.046-.037.086-.024.139.048-.005.088.015.133.015 0 .035.015.074.009.111.016.003.037.001.056.003-.01.092.232.113.293.045.049-.06-.061-.197-.012-.27.064-.097.28-.104.327-.004.022.049-.036.168-.032.238.227-.055.032-.32.34-.273.007.061-.043.179-.135.194-.013.086.001.159.135.159-.005.052-.009.11.061.124.048-.056.163-.166.154-.215-.028.018-.034.012-.065.02-.008-.018-.03-.062-.032-.072.058-.031.142-.004.22-.018.066-.012.075-.047.16-.055.122-.013.2.008.234.079.048.095-.054.117-.075.174-.022.064-.008.158-.001.223.083-.023.139-.119.239-.078-.057.051-.044.127-.094.171-.055.052-.184.027-.145.123.085.008.149-.039.158-.096.149-.045.118-.084.156-.175.022-.06.076-.151.184-.138.082-.178.287-.03.357.035.027.025.071.023.094.057.013.024-.016.065-.003.093.028.053.024.097.137.092.011.124.174.096.3.124.003.014.009.027.009.042.027.003.045-.002.071-.002.023-.077-.035-.134-.028-.206-.016-.006-.029-.002-.043-.007.037-.077.111-.1.084-.2-.038.003-.09-.01-.132-.006-.002-.114-.051-.168.053-.266.114-.11.173-.076.325-.041.032.01.172.038.197.031.072-.016.077-.111.138-.128.107-.028.193.109.29.112-.006.072.059.04.106.077.023.018.055.065.09.082.111.042.267-.017.239-.124.013-.005.025-.005.041-.005.012-.085-.25-.009-.099-.13.074-.057.201-.054.249.016.088-.011.069-.099.196-.079.04-.051.077-.072.133-.101.056-.029.126-.018.126-.087-.143.009-.18-.034-.316.009-.037-.036-.063-.151-.007-.189.07-.044.168.024.256.026-.006-.019.014-.051.007-.074.019 0 .05-.006.071-.005 0-.017.013-.044.008-.064.011-.004.025-.004.04-.004-.009-.045.209-.29.206-.295.052.04.241.045.329.082.108.045.188.091.318.102.008.045-.012.09-.003.134.124-.058 0-.161.026-.247.144-.015.241.075.372.056.041.172-.113.177-.276.239-.024.054-.058.096-.048.158.083-.075.232-.07.324-.158.062-.06.041-.047.069-.117.02-.043-.002-.076.047-.114.045.011.084.029.104.063.037-.023.06-.01.112-.015.039.1-.099.142-.068.237.083-.004.163.02.24.01.092-.009.076-.074.189-.019.138.072.017.204.11.293.216.026.224-.116.362-.197.103-.062.345-.08.293-.208-.017 0-.038-.004-.056-.004-.004-.061-.061-.094-.145-.081-.002-.046 0-.095-.004-.142-.098-.004-.143.078-.248.063.004-.018-.009-.046-.005-.064-.123-.01-.234.013-.358.006 0-.012-.002-.025-.001-.037.046-.019.084-.042.132-.057.038-.011.106-.004.139-.015.125-.05.097-.094.136-.175.026-.041.334-.312.114-.304.006.073 0 .185-.142.156-.019-.038-.056-.07-.08-.102-.016-.017-.043-.056-.065-.09-.045-.067-.081-.15-.142-.219-.043.033-.076.078-.137.081-.003-.009-.005-.019-.008-.028-.092.004-.189-.003-.201-.075-.047.024-.1.031-.157.022.003-.028-.037-.225-.061-.244-.093-.06-.15.063-.196.099-.02.019-.06.046-.081.065-.008.008-.057.065-.063.07-.052.035-.122.084-.216.067-.008-.048-.028-.062-.095-.053-.027.055-.11.051-.156.017-.061-.045-.027-.123-.037-.178-.005-.041-.068-.127-.063-.149.008-.045.137-.129.173-.146.072-.035.15-.023.231-.086.072-.056.093-.087.119-.156.01-.028-.013-.065-.002-.093.015-.032.076-.044.096-.075.043-.06.069-.102.023-.17-.133.057-.057.117-.117.193-.035.043-.074.02-.106.047-.04.032-.04.062-.084.09-.131-.06.02-.104.014-.181-.117.015-.265.127-.33.191-.019.021-.004.058-.031.081-.021.021-.079.006-.107.024-.072.044-.046.115-.175.087-.006-.1-.026-.124.054-.197.095-.093.137-.097.13-.218-.019 0-.04-.004-.058-.004-.002-.043-.004-.082-.004-.121-.22-.045-.178.19-.236.253-.042.052-.122.042-.161.105-.034.053-.01.141-.015.204-.066.003-.134.001-.202.005.035.121-.148.074-.209.038-.107-.066-.054-.129-.048-.227.006-.123.039-.152.16-.246.076-.057.285-.132.269-.213-.12-.021-.162.01-.252.053-.037.017-.038.053-.076.069-.036.016-.114.012-.16.024.012.123-.112.169-.116.281-.3.093-.043-.253-.277-.263.008-.083-.079-.143-.127-.213.008.114-.045.13-.192.128 0 .043-.086.123-.159.113-.089-.011-.119-.144-.128-.192-.085-.021-.044-.096-.139-.09-.004.048-.006.094.022.135.028.038.101.036.104.089 0 .03-.107.142-.148.17-.008-.012-.03-.032-.038-.045-.077.158-.107.155-.366.146-.039-.078-.077-.173-.093-.253-.02-.096.075-.173.039-.254-.014 0-.037-.005-.055-.005-.025-.069-.065-.115-.028-.181.019-.034.086-.053.104-.088.015-.024-.008-.065-.003-.091.033-.121.115-.246.005-.365-.005.063-.002.127-.005.19-.205.029-.21.102-.327-.054.04.042.01.089.028.147.012.046.082.046.063.112h-.187c-.016-.066-.036-.132-.049-.199 0 .071.004.143-.004.211-.011-.007-.017-.016-.028-.024-.104.073.027.159.032.227.004.058-.032.063-.048.093-.006.015-.031.075-.047.104-.015.025.01.075-.049.089-.081.015-.062-.08-.112-.096-.168-.052-.039.124-.185.121-.003.08.008.105-.07.155-.026.018-.181.06-.217.049-.096-.03-.008-.13-.136-.077-.067.025-.008.12-.16.099-.004-.01-.005-.02-.007-.03-.062-.006-.347.129-.328.199.12.013.172.043.256.092.055.031.072 0 .106.046.018.024 0 .087.007.112.067.004.166.017.23.002.092-.023.081-.092.2-.066.009.086.319.125.418.147.152.032.292.1.371.191.056.064.018.091.039.162.017.061.094.079.096.136 0 .166-.238.01-.345.022-.043-.133.134-.207 0-.34-.025.037-.034.014-.065.034-.007-.018-.002-.025-.016-.036-.002.001-.035.022-.035.022-.06.014-.116-.025-.187-.019-.004.07-.008.146-.005.217.003.08.033.099.051.168.009.031-.014.074 0 .104.013.035.077.025.097.056.036.051.031.114.027.182-.025.005-.08.005-.106 0 .002-.072-.074-.072-.097-.126-.021-.044.002-.117-.001-.166-.215.004-.172-.039-.205-.182-.103.002-.24.088-.373.074-.052-.074-.02-.205-.114-.247-.004.052.013.099-.034.135-.052-.128-.135-.012-.252-.037-.014-.068-.088-.128-.107-.194-.022-.066-.003-.131-.034-.19.018.08-.076.083-.126.034-.041-.033-.027-.147-.035-.19-.047.003-.107-.009-.156-.006 0-.025-.025-.048-.023-.073-.077.006-.16 0-.154-.068-.207-.025-.132-.028-.235-.144-.062.055-.173.033-.234.093-.037.037-.034.121-.038.181-.011.122.033.044.134.123.062.052.03.095-.08.118v.033c.133.012.19.092.353.098.027.052.019.11-.069.109 0 .039 0 .083-.004.123-.175.035-.115-.195-.235-.225-.006.083.021.182-.019.259-.049-.008-.08-.042-.092-.081-.055.047-.019.112-.1.143-.136.05-.121-.033-.179-.079-.189-.132-.168.012-.168.118-.147.041-.25.007-.162.12.015.018.077.018.098.034.016.01-.009.044.004.055.044.028.052.058.137.057.008.029-.004.062-.028.087-.107.005-.237-.015-.284.071l.129.042-.003.004zM13.6501 26.0599c.014.063.077.103.096.158.019.056-.007.114.019.169.022-.005.043 0 .064-.008.026.067.009.154.015.227.02-.015.059-.023.079-.049-.012.031.001.067 0 .101.062.002.106-.016.168-.014-.003 0 .045.037.065.041.044.008.089-.025.129-.012.042.012.094.076.125.094.061.032.14.006.121.099-.071.022-.147.019-.214.052-.009.019-.007.055 0 .072.151.026.221-.093.376-.072-.005.021.009.052.003.072.041-.007.076.007.116-.009-.004.014.016.048.012.067.2-.016.162.135.311.132-.01.127-.128.072-.237.085-.127.015-.14.07-.277-.013-.046-.031-.143-.15-.243-.112-.141.051-.002.14.107.131.007.043.007.088 0 .13-.107.008-.178-.033-.281-.058-.155.131.047.132.172.143.006.068-.098.051-.164.072-.078.026-.09.08-.195.059-.004-.068-.126-.075-.206-.062 0 .085-.008.146-.016.222.078-.018.147-.013.144.057.099-.07.235-.049.341-.114.089-.057.295-.125.305-.204.035-.007.098-.009.126-.022.033-.016.048-.048.074-.06.059-.028.151-.067.224-.075.025.099.113.342-.074.38-.025.091.153.097.19.018.109.007.059-.049.075-.101.026-.085.013-.058.082-.104.037-.029.059-.054.11-.071.066-.02.128.027.161-.045.019.048.009.107.015.158.064.005.104-.019.11-.064.081-.014.145-.045.216-.044-.018.1.071.046.117.068.045.021.082.072.152.069.027.072-.08.106-.152.131-.101.044-.135.057-.217.123-.12.091-.315.102-.465.013-.077.054-.058.158-.024.226-.048.008-.099.005-.142-.017-.063-.028-.025-.063-.054-.082-.081-.049-.236-.067-.262.023-.096.004-.181-.018-.275-.007-.038.078-.204.259-.333.233.002-.033-.009-.077-.009-.106-.075.097.045.374.201.2.035.09-.012.177-.028.258-.006.025-.003.087-.015.115-.025.047-.087.067-.086.125.346.066.036-.395.376-.324.017.116-.193.184-.154.291.03-.007.08.01.107.005.003.042.003.082.001.124.019-.083.124-.098.175-.173.026-.043-.01-.106.026-.151.034-.041.119-.066.161-.104.017.033.048.058.053.094.055.005.159-.031.172-.077.022-.09-.101-.061-.114-.138-.007-.055.186-.201.272-.218 0 .022.024.061.016.09.143.022.049-.109.169-.137 0-.011 0-.029.006-.041.076-.024.203-.066.28-.066 0 .018.008.044.003.063.084.018.067.093.025.137-.11.029-.198.005-.308.016-.006.017-.006.035 0 .052.11-.012.165.063.155.139-.015.115-.104.081-.233.093.001.054.033.164.058.215.049.094.058.094.128.02.036-.037.06-.12.095-.169.035-.049.027-.149.061-.185.097-.106.285-.046.337-.201.035-.096-.068-.353.109-.38.014.076.038.155.182.126-.013-.124.119-.126.212-.181.117-.069.139-.173.329-.143.007.078-.034.201.112.2.079-.001.155-.093.212-.134.031-.025.138-.106.187-.115.153-.023.113.113.264.094.002.044 0 .089.005.131.023.004.067.004.089 0 .011-.169-.101-.24.007-.395.055-.079.078-.073.169-.118.093-.039.116-.061.186-.127.073-.065.119-.048.117-.155-.002-.056-.014-.197-.074-.226-.136-.066-.208.1-.314.129-.098.028-.251 0-.353.01-.006.069-.077.044-.107.103-.025.044.034.088.011.131-.075.131-.219.02-.346.045-.079.013-.074.07-.173.067-.049-.002-.099-.054-.164-.056-.046-.002-.117.035-.189.035-.063 0-.126-.017-.188-.023.043-.159-.193-.065-.224-.192-.018-.079.038-.209.156-.23.06-.153-.227-.077-.208-.249-.38-.052.036.53-.276.533-.006-.081-.015-.166-.003-.247.004-.031.036-.092.032-.115-.015-.068-.044-.046-.09-.094-.058-.065-.076-.126-.124-.195-.022-.032-.05-.046-.071-.088-.023-.04-.017-.082-.038-.123-.065.008-.113.019-.181.026-.008.113.047.354-.205.324-.004-.042.007-.093-.001-.135-.025-.092-.029-.05-.104-.11-.101-.083-.101-.122-.124-.241-.15-.012-.087.207-.073.272.018.109.082.228-.062.303.023-.084-.067-.041-.106-.089-.043-.053-.033-.082-.039-.146 0-.025.011-.059 0-.081-.015-.028-.052-.033-.063-.056-.021-.045-.027-.091-.04-.147-.047.01-.058-.005-.104.024-.064-.063-.125-.08-.248-.084-.005-.058-.017-.129.015-.18-.016-.008-.03-.012-.05-.017-.075.088-.337.136-.459.087l.015.089-.127-.01z" fill="#1d81a4"/><path d="M16.135 28.3929c-.016.138.315.032.422.07.1.033.034.082.1.129.074.053.115.011.192.01.069-.001.116.01.181.014.048.001.107.022.162-.024.089-.082-.019-.029-.086-.082-.066-.052-.045-.072-.062-.15-.072-.005-.153-.021-.15-.079.096-.011.116-.035.141-.092.007-.016.047-.211.048-.208-.02-.041-.079-.012-.103-.04-.011-.011-.052-.067-.057-.07-.072-.052-.091-.073-.218-.084.012-.076-.107-.082-.185-.084-.041.082.045.096.088.157.045.063.052.119.056.191-.075.014-.151.005-.159-.053-.026-.007-.059-.005-.084 0-.024.108.145.159.103.268-.172.019-.354-.037-.484.042.028.006.06.006.094.006v.078l.001.001zM16.2265 26.1509c-.023-.01-.043-.019-.075-.005-.004.059.064.088.056.152-.028-.015-.086-.019-.118-.03 0 .061.088.078.107.133.035.082-.044.098-.078.171.108.012.169-.03.253-.058.002.009.018.03.018.046.133-.008.183-.121.268-.171.064-.035.246-.15.327-.13-.026.142.123.022.175.003.083-.032.171-.036.257-.079.014.022.05.038.059.062.14-.099.301-.114.457-.165.015-.006.056-.045.082-.056.026-.009.12-.004.147-.009.025-.004.085-.04.126-.047.048-.01.093 0 .14-.014.005.064.08.073.141.095.055-.022.108-.014.164-.032.057-.02.068-.059.135-.074.085-.02.118.03.162.032.085.003.099-.036.17-.042.133-.008.248.03.365.035.13.004.348-.04.318.101.06.003.163.018.22.003.096-.029.049-.05.11-.094.052-.035.083-.018.131-.063.047-.047.057-.093.037-.15-.233-.033-.187-.075-.14-.197.016-.042.011-.085.036-.123.028-.048.111-.044.095-.113-.01-.053-.11-.067-.159-.104-.075-.059-.061-.061-.044-.145.028-.119.012-.213.232-.209.019-.06-.392-.227-.495-.235-.107-.01-.22.039-.278.108-.06.074-.038.2-.203.219-.036-.048-.036-.087-.019-.136.014-.036.093-.078.091-.105 0-.083-.051-.028-.114-.08-.043-.04-.025-.096-.117-.103-.022-.079-.155-.086-.175.003-.015.072.093.119.126.17.017.029-.011.072.003.103.01.016.072.04.093.065.041.055.045.146.065.207.021 0 .054.006.074.006-.02.045-.046.108-.03.166.019.07.065.07.092.132.069.154-.108.182-.248.116-.115-.055-.06-.037-.112-.113-.013-.02-.029-.061-.039-.076-.014-.021-.076-.018-.09-.048-.017-.034.056-.089.026-.134-.03-.04-.136-.075-.197-.085-.004-.011-.004-.029-.007-.042-.025-.003-.049.003-.071.003-.007.098 0 .161-.055.242-.044.062-.145.194-.245.197-.003-.082-.134-.082-.214-.115-.05-.02-.087-.03-.12-.053-.029-.019-.033-.066-.091-.079-.178-.05-.145.087-.231.129-.105.051-.257-.027-.301.095-.172-.01-.252-.031-.331.092-.157.005-.229-.04-.372-.057.003-.017-.009-.041-.009-.054-.17-.028-.254.019-.278.147-.026.148.086.125.234.14.014.068-.119.146-.2.157.003.013 0 .031.002.043.042.015.065.032.105.051.022.077-.088.117-.169.132-.088-.085-.051-.104-.065-.193-.019-.095-.051-.157-.069-.261-.215-.038-.207.157-.223.247-.022-.001-.053.007-.071.007 0 .049-.021.084-.031.129.075.008.151.011.203-.033.038.066.151.175.117.25-.03-.007-.042-.025-.055-.045l-.078-.03-.002-.002zM22.3937 24.549c0 .046-.002.09.001.135.234-.02.128.103.255.17.073.039.211.009.237-.064.171-.039.479.044.612-.048-.091-.043-.327-.017-.32-.123-.08.003-.247-.021-.2-.103.04-.065.207-.018.236-.024.081-.013.118-.054.207-.069.12-.017.241.015.361-.012-.029-.035-.079-.08-.058-.133.054-.003.101-.013.154-.028.046-.157-.24-.133-.125-.305.03-.048.092-.059.125-.113.017-.032-.015-.073.001-.103.008-.019.074-.028.076-.047.008-.077-.056-.079-.13-.127-.088-.055-.083-.082-.113-.165-.011-.045-.071-.123-.054-.173.015-.053.072-.063.098-.111.061.009.131.031.199.018.009-.106-.01-.183-.028-.284-.021-.107-.065-.152-.215-.203-.121-.04-.267-.114-.38-.064-.168.077-.071.191-.037.291.072.218-.097.388-.081.604.017.229.105.437-.23.568-.016-.062-.021-.159.01-.216.016-.033.105-.084.108-.116.001-.083-.124-.057-.185-.125-.065-.069.017-.126-.092-.177-.023.118.01.238.01.357-.041-.068-.084-.11-.095-.192-.013-.099.009-.143-.118-.187-.047.223.084.351.162.548.034.087.076.197.051.291-.027.098-.232.195-.221.286l-.22.044h-.001zM27.2372 11.8606c0 .039-.002.08.003.118.231-.018.125.091.25.148.077.035.214.009.24-.057.169-.033.48.04.612-.041-.092-.038-.329-.013-.322-.107-.08.003-.246-.02-.196-.092.039-.056.207-.014.233-.018.081-.014.119-.048.207-.06.118-.016.242.012.361-.012-.03-.03-.079-.069-.059-.116.055-.002.103-.011.155-.023.047-.136-.237-.12-.126-.268.032-.041.095-.053.124-.1.019-.025-.01-.063.003-.088.007-.017.076-.024.077-.042.007-.066-.056-.068-.131-.11-.089-.049-.084-.072-.11-.144-.016-.037-.072-.109-.057-.151.016-.046.072-.055.097-.101.064.012.131.031.202.02.007-.094-.013-.159-.028-.248-.021-.096-.066-.131-.215-.178-.122-.034-.269-.1-.381-.054-.171.066-.071.164-.036.251.07.188-.096.338-.081.53.017.199.104.379-.23.496-.015-.056-.023-.138.009-.189.015-.029.106-.074.107-.102.001-.074-.124-.05-.186-.11s.02-.109-.09-.153c-.024.103.01.205.01.31-.042-.06-.083-.096-.095-.168-.013-.084.008-.124-.119-.162-.048.196.084.306.162.479.035.075.077.172.052.254-.025.085-.233.17-.22.25l-.224.038h.002zM26.4529 22.6769c.035.005.088 0 .121-.002.014-.086.109-.041.151-.102.019-.027-.003-.108-.007-.142.172.096.301.071.481.12-.014.085-.076.109-.175.148-.024.011-.067-.01-.092.003-.018.006-.033.042-.036.043-.035.013-.043.049-.122.036-.023.039-.066.054-.126.041-.006-.019-.03-.042-.036-.056-.007 0-.054.009-.061.011-.007-.016 0-.023-.017-.035-.066.03-.081.109-.144.153-.064-.045-.075-.139.016-.161l.047-.055v-.002zm-.631-.618c.021.012.049.02.088.012-.002-.014.01-.035.007-.051.028.002.073-.01.104-.006.161-.25.359.069.183.129 0 .013 0 .03-.007.042-.039-.023-.069-.011-.119-.019-.004.016-.01.037-.007.052-.019.003-.041 0-.058 0-.003-.168-.161-.052-.208.017-.045-.048-.073-.103-.062-.162l.079-.014zm-.144-.658c-.052.008-.099.024-.14.044-.003-.053-.035-.289.094-.19.029-.035.038-.091.033-.137.008-.004.019-.005.03-.004.006.068.083.09.147.036.081.053.171 0 .264-.002.076 0 .193.028.258.056.054.023 0 .054.089.059.083.005.07-.038.11-.045.126-.021.112-.007.114.114.202-.031.122.218.055.274-.097-.021-.111-.051-.188-.051-.072 0-.158.028-.245.025.03-.112-.095-.122-.221-.107-.003.012-.009.029-.009.04-.084-.007-.203 0-.182.079.019 0 .041.005.06.007.014.039.017.08.011.118-.025.003-.048.003-.071 0 0-.058.001-.092-.043-.132-.051-.047-.156-.007-.132-.091.058-.01.034-.029.044-.06l-.079-.033h.001zm-3.336.079c-.005.035 0 .075.002.11.103.012.158-.115.253-.148 0 .014.02.039.018.059.073-.008.103-.07.17-.1.08-.036.251-.057.35-.061.001.065-.093.094-.156.135.099.01.434-.093.508-.153-.008.108.272.076.373.043.016.03.037.064.036.103.158-.022.164.107.295.095-.01.102-.224.129-.242.224-.078-.043-.03-.14-.176-.132-.01.048-.003.103-.012.154-.054.006-.124.131-.122.172.007.084.092.088.131.013.029.048.012.111.106.11.012-.037-.007-.173.03-.194.105-.056.142.087.238.079-.008-.028.013-.065.004-.095.118.01.126-.061.103-.127-.079-.015-.205-.011-.198-.08.091-.01.155-.072.208-.125.051.069-.014.284.151.273 0 .014 0 .031.003.042.105.014.143-.042.219-.044.154-.008.129.049.172.131.088.17.166.29-.153.215.021.039.076.075.055.13-.017.049-.159.094-.181.149.121.024.154-.086.266-.09.087-.005.082.037.159.046.067.008.12-.013.187-.006.006.042.062.228.145.21.143-.025-.052-.159-.095-.177.117-.007.232-.005.338-.025.04-.008.049-.038.105-.038.069.004.069.056.124.07.142.036.214-.017.319.069.077.062.089.143.072.237-.136.012-.057-.113-.177-.131-.016.087.038.197-.093.241-.104.036-.283-.019-.321-.076 0 .008-.024.049-.024.069-.025 0-.055.007-.072.004-.009.136.238.07.36.083.042.074-.008.141-.124.144.02.074-.195.181-.11.232.046.025.202-.051.277-.042.003-.079.101-.208.243-.179.024.003.266.266.257.055.038-.004.126-.024.169-.012.084.027.056.077.099.132.081.097.174.122.148.265-.064.003-.134 0-.198.005-.007.056-.056.1-.11.129.153.015.259-.09.394-.086.204.006.125.254.331.238-.008-.023.01-.056.003-.077.089-.003.17.001.249-.027.023-.079-.059-.036-.102-.079-.039-.042.01-.077-.071-.111.207.013.21-.179.097-.197.048-.038.133-.034.202-.044.002-.09.157-.057.178-.136.012-.058-.148-.108-.221-.116.026-.051.144-.107.019-.149-.138.092-.167.099-.33.064-.102-.025-.274-.027-.348-.086.193.005.276-.01.419-.058.103-.034.413-.083.413.036.106.025.215.131.329.112.004-.02.005-.043-.006-.062-.013-.003-.025-.006-.037-.006-.016-.107.254-.098.197-.224-.297.028-.563.032-.834-.103.059-.025.136-.039.207-.058.161-.042.118-.019.103-.11-.008-.042-.064-.167-.056-.207.01-.071.09-.109.06-.19-.169-.039-.169.156-.258.206-.089.051-.306.058-.283-.061-.14.019-.12-.08-.126-.148-.035-.005-.061-.02-.09-.025.242-.068.205.176.41.135.084-.082.036-.15.178-.192.134-.037.249-.04.363-.112.113-.074.267-.566.006-.578.008.097-.052.176-.139.23-.05.03-.324.119-.258-.015.014-.032.087-.023.102-.039.029-.028.043-.044.069-.076.018-.023.025-.062.043-.083.021-.027.063-.042.095-.07.062-.055.039-.111.161-.122.195-.016.091.143.221.16.144.022.091-.108.055-.14-.069-.058-.232-.065-.257-.142.172-.053.332-.099.533-.084.129.012.17.047.271.092.026.013.106.042.138.052.045.017.068.035.129.04.093.006.202-.055.303-.023.033.009.044.062.075.081.017.009.069-.012.083-.003.018.013.023.043.042.053.034.017.069.059.098.074.034.018.095.022.139.051.086.053.119.176.267.152.011-.105-.213-.144-.184-.292.018-.103.115-.161.155-.255.022-.056.008-.109.017-.169.014-.07.053-.075.083-.133.085-.166-.218-.096-.183-.241-.036-.01-.096-.014-.132-.009.009.068-.09.093-.16.096.017-.005.052-.025.076-.033 0-.072-.182-.071-.107-.158-.031-.013-.072-.015-.11-.008-.001.04.01.077.033.111-.034.023-.082.035-.129.032 0-.003.003-.028 0-.031.19-.056-.119-.233-.102.006-.065.003-.131.003-.198.002-.002-.015-.002-.026 0-.042.136-.022.123-.08.218-.127.067-.033.196-.055.273-.087.098-.043.167-.079.262-.11.127-.039.273-.006.4-.045-.06-.023-.122-.043-.189-.056.043-.148-.222-.06-.286-.032-.125.052-.219.073-.378.068-.003-.047-.218-.161-.281-.184-.126-.042-.292.019-.263-.129-.033-.008-.059-.008-.087 0-.01.038-.02.069-.04.107-.143-.007-.286.22-.123.257.02.062-.041.097-.12.09.002.02-.013.046-.01.063-.168-.011-.151.146-.324.115-.007-.067.157-.186.203-.228.057-.056.194-.17.168-.259-.149-.029-.142.11-.277.099-.005-.068.02-.16-.008-.224-.027-.059-.139-.095-.176-.155-.047-.074.083-.313-.12-.354.004.075.015.157.002.233-.012.076-.145.16-.116.221-.018-.018-.029-.018-.043-.04 0 .045.009.119 0 .174-.007.058-.073.143-.05.179.021-.068-.072-.097-.154-.087-.003.08.094.145.07.222-.012.005-.04.005-.053.005.002.057-.002.044-.048.064.008-.033-.01-.078-.009-.11-.023-.011-.088-.022-.112-.022.01.066-.027.129-.129.111-.002-.057-.07-.083-.144-.087-.007.077.072.117.112.185.021.03.044.061.044.096-.002.044-.055.071-.058.097-.007.055.077.113.043.188-.033.07-.135.092-.135.181-.068.001-.113-.029-.11-.077-.013.001-.045.002-.055.002-.036.063-.025.129-.039.2-.055.001-.15-.013-.202 0-.067.019-.069.077-.155.087-.003.014-.003.024-.005.038-.09.008-.122-.053-.144-.101-.114-.014-.131.076-.228.092-.107.02-.146-.051-.24-.048-.088.004-.114.068-.224.07-.106 0-.145-.049-.25-.014.012-.023.008-.037.023-.056-.06 0-.12.002-.18 0-.032-.082.137-.1.203-.145.08-.054.131-.123.121-.203-.116-.021-.146.078-.207.128-.068.056-.197.097-.22.174-.089.014-.221-.034-.253-.088-.105 0-.141.096-.239.119-.08.019-.205.006-.292.003.008-.087.106-.022.172-.056.019-.012.046-.08.053-.098.024.002.062-.008.087-.006-.006-.027.014-.066.007-.096.079-.008.188.015.221-.05-.057-.025-.135-.026-.203-.024-.011-.037-.006-.074.012-.11.134-.004.234.038.36.007.04-.109-.145-.096-.125-.205.005-.038.084-.042.08-.077-.009-.066-.067-.052-.14-.083-.178-.078-.026-.091-.089-.199-.045-.08-.246-.069-.355-.071 0-.056.032-.105-.014-.138-.063.061-.027.162-.079.217-.067.073-.22.071-.143.194-.068.019-.239.125-.142.189.072.046.201-.037.266-.054-.002.017.024.054.017.08.111-.012.139.047.142.115.004.103-.054.096-.136.164-.055.046-.064.126-.172.149-.084.02-.174-.007-.259-.008-.003-.042-.003-.089 0-.132.095-.025.255-.077.25-.161-.012-.171-.261.067-.339.108-.157.082-.229.102-.294-.028-.011-.023.017-.06 0-.081-.011-.022-.076-.017-.089-.037-.035-.051-.036-.077-.036-.145 0-.138.021-.191-.124-.276-.094-.057-.272-.114-.241.059.019.104.149.162.111.285-.011.042-.084.103-.088.143-.01.068.06.106.06.162 0 .007.026.03.031.039-.168.044-.196.154-.191.271.008-.003.046 0 .057-.002.01-.014.021-.023.033-.038-.01.026.01.058.006.084.068-.011.121.005.126.058.016.004.028-.007.042.004 0 .012-.004.034-.004.041-.26.007-.554-.085-.711-.213-.086-.068-.11-.154-.222-.21-.057-.029-.129-.034-.183-.063-.048-.028-.005-.1-.139-.077-.028.088.048.145.124.201.072.058.072.086.121.163.075.122.213.238.206.382-.032-.006-.077.008-.105.004.012.052-.026.081-.093.093-.003.018-.01.045-.003.062l.017.056-.002.002zM13.8731 25.8599c0 .06-.002.121.002.181.106.005.18-.002.266-.047.029-.013.076-.061.096-.069.044-.016.105-.008.154-.031.08-.033.084-.095.165-.122.059-.021.18.026.263-.015.092-.044.109-.104.21-.149.05-.023.081-.017.126-.046.05-.027.043-.066.093-.092.134-.07.333-.069.434-.192-.085.001-.27.025-.331-.02-.06-.042-.032-.141.051-.164.067-.147-.271-.046-.255-.192-.068.045-.074.127-.164.148-.061-.059-.021-.09-.004-.148.009-.025.004-.061.019-.086.013-.019.069-.024.071-.029.082-.145-.018-.223-.194-.277-.064.094.028.126.042.21.011.083-.031.156-.103.215-.016 0-.038-.001-.055 0-.141-.105.025-.325-.094-.41-.034.035-.071.07-.082.116-.008.037.023.093.002.125-.027.045-.285.165-.083.209.122.19-.588.17-.388-.047.029-.032.086-.027.116-.051.055-.04.036-.023.069-.078.038-.062.055-.177.039-.247-.038.002-.063-.016-.101-.016-.01-.049.018-.094.048-.136-.034-.002-.085-.024-.126-.024.009-.062-.013-.123-.093-.147-.094.047-.053.189-.053.263 0 .035.014.093-.006.123-.035.051-.128.042-.134.113 0-.099.011-.207-.008-.302-.012 0-.024-.003-.04-.003-.006-.106-.003-.18-.141-.223-.008.139.045.251-.122.338-.017-.086.051-.307-.066-.344-.113.084.016.262-.075.331-.021-.069-.08-.162-.211-.131-.071.093-.272.098-.36.183-.09.089-.055.217.072.246.157.035.389-.008.264.176-.04.055-.155.079-.168.142-.009.049.059.082.067.136.056.011.107.002.143-.033.027.053-.014.091-.018.147.106-.004.147-.107.248-.097.025.163-.131.137-.258.235-.102-.078-.193-.194-.302-.059-.009-.056-.094-.1-.103-.145-.01-.067.055-.088.042-.149-.042.033-.073.07-.094.112-.04-.01-.1-.018-.138-.035-.054.116.083.331-.155.338 0 .014-.004.025-.009.038-.184-.001-.314.124-.265-.07.034-.133.047-.179-.018-.302-.029-.006-.062-.004-.086.002-.011.141-.019.185-.124.298-.072.077-.158.181-.16.278.064 0 .132.005.19-.009.005.068-.189.088-.19.179.083.015.154-.019.218-.045-.002.015.025.055.018.081.062.007.203-.008.248-.036.094-.062.013-.102.133-.095.009 0 .075.047.108.053.022.003.057-.043.078-.048.064-.012.137.054.161-.054.043-.008.114-.006.153.001.011.071-.085.077-.123.135.024 0 .051 0 .075-.003.067-.083.245-.195.379-.163.002.008.005.017.007.028.201-.028.234.174.28-.068.022-.108-.009-.069.111-.103.081-.023.163-.026.25-.019.002.026.013.063.002.088l-.013.102v.001zM16.2015 19.1185c-.031.056-.064.11-.09.169.109.035.186.051.297.035.035-.004.108-.033.133-.035.054-.005.114.02.173.014.104-.006.135-.063.232-.067.074-.002.172.078.281.063.116-.014.163-.065.289-.077.062-.006.093.006.152-.006.067-.012.077-.049.143-.058.173-.026.378.032.542-.056-.086-.024-.291-.054-.329-.113-.04-.056.04-.142.137-.138.142-.117-.256-.121-.168-.251-.094.02-.137.097-.243.088-.032-.072.023-.09.074-.137.02-.022.032-.057.062-.077.022-.013.085-.003.089-.006.154-.111.094-.211-.06-.312-.115.064-.036.125-.065.206-.029.081-.107.136-.212.171-.017-.007-.041-.014-.056-.016-.094-.14.187-.294.111-.409-.055.024-.11.044-.144.084-.028.031-.026.091-.061.116-.051.034-.377.071-.191.171.025.213-.69-.012-.378-.157.046-.02.103 0 .149-.013.077-.021.045-.012.107-.05.071-.049.147-.15.168-.222-.042-.008-.058-.032-.097-.044.014-.049.065-.08.117-.11-.033-.012-.076-.048-.119-.06.043-.056.053-.117-.02-.166-.117.019-.147.161-.185.231-.017.033-.031.092-.07.112-.062.037-.151 0-.195.068.048-.093.117-.191.145-.285-.013-.004-.026-.009-.038-.016.046-.097.086-.167-.036-.247-.076.128-.078.247-.293.279.022-.084.209-.269.105-.341-.157.047-.115.252-.245.289.016-.071.002-.175-.149-.183-.12.064-.331.013-.464.067-.139.055-.165.185-.049.247.144.083.405.106.18.241-.069.041-.197.026-.245.085-.034.044.021.092 0 .146.055.027.111.031.163.012 0 .057-.057.079-.09.13.11.025.205-.059.304-.02-.058.161-.203.093-.384.144-.065-.099-.1-.236-.28-.14.019-.055-.051-.12-.033-.167.021-.065.102-.065.119-.124-.06.016-.113.042-.155.077-.033-.023-.092-.047-.122-.072-.116.091-.082.331-.33.267-.009.013-.019.025-.028.035-.191-.056-.388.025-.241-.142.103-.116.143-.155.137-.288-.027-.012-.061-.02-.09-.022-.084.129-.113.166-.276.241-.118.052-.257.124-.308.211.065.023.136.045.2.048-.03.064-.237.026-.287.113.078.036.168.025.25.021-.009.014-.005.056-.024.079.058.023.213.053.273.038.127-.029.063-.089.186-.049.008.004.053.066.083.079.021.012.078-.022.104-.02.072.008.115.088.192-.003.051.003.119.028.159.046-.026.068-.127.045-.196.085.025.012.053.018.079.021.11-.057.351-.11.472-.043-.003.009-.006.019-.009.028.222.036.153.232.324.019.076-.093.024-.065.165-.062.097.001.184.022.269.055-.014.024-.02.061-.042.082l-.07.093.002-.002z" fill="#1d81a4"/><path d="M17.1918 24.6525c-.007.08-.035.145-.156.175-.006.059.009.11.032.165.112-.019.179.111.169.17-.013.144-.153.054-.281.034.013-.069-.06-.102-.067-.147-.007-.05.041-.08.027-.134-.11-.018-.144.034-.23.046-.054.004-.158-.015-.219-.017-.065-.002-.151-.019-.224-.007-.066.007-.177.077-.228.058-.105-.034.061-.062.058-.079-.007-.049-.036-.071-.107-.11-.083-.041-.033-.068-.142-.013-.07.035-.073.124-.194.072-.009.011-.016.019-.026.035-.02.004-.051-.003-.069-.001-.025-.065.051-.078.06-.134.014-.082-.049-.09-.063-.148-.02-.07.047-.124-.078-.137-.088-.011-.124.071-.219.067.01-.027-.006-.054.015-.079-.087-.029-.256-.055-.346-.011.013-.115-.127-.103-.195-.18 0 .001-.019-.138-.033-.116.026-.042.059-.059.138-.047-.003-.02.017-.054.01-.075.117-.005.059.124.183.121 0-.049.01-.096.067-.126.009.068.032.099.11.127.034.012.094-.006.129-.001.03.005.042.04.093.048.069.01.215-.029.27.004.054.028.061.134.064.176.147.023.1.179.221.196.072.008.167-.15.231-.025-.009-.049.01-.099.067-.126.003.008.014.031.019.047.068-.012.144-.013.217-.006-.003.033.007.07.003.105.192.049.095-.161.311-.122.09.017.065.059.182.06.075.002.144-.03.231-.021 0 .024.02.039.02.062.046-.004.077-.031.142-.011.06.026-.192.105-.192.105" fill="#1d81a4"/><path d="M16.9536 23.2169c-.086.025-.236.106-.257.179-.096.037-.197.165-.167.251.2.042.332-.278.495-.329-.102.12-.295.285-.277.403.008.069.057.143.066.214.012.089-.049.156-.031.237.073.001.15-.001.216.006.002.008.005.018.008.027.032-.007.059.003.093-.011.076.082-.034.331.216.274.003-.002.02-.05.034-.057.021-.006.078-.013.096-.022.066-.031.117-.015.125-.091.012-.071-.083-.09-.06-.159.025-.085.091-.043.19-.057.111-.017.09-.008.156-.068.052-.044.013-.096.123-.117.021-.08-.17-.11-.213-.171-.059-.078-.055-.154.103-.17-.029-.105.056-.08.15-.1.082-.018.179-.047.265-.06.097.114-.165.151-.267.154-.007.021-.007.055 0 .074.043.025.095.046.155.052 0 .041 0 .081.002.121.241.002.167-.289.269-.409.039.044.043.129.025.179-.021.042-.089.139-.12.173-.121.137-.277.171-.268.351.084.015.125.288.283.117.03.05.043.025.091.042.055-.072 0-.151.035-.226.031-.066.091-.063.158-.113.144-.109.11-.179.377-.185.04-.135-.168-.235.114-.261.006.022.015.066.04.086.033.024.082.027.101.04.078.058.076.115.219.091 0-.061-.207-.162-.048-.239.117-.053.31.099.35-.034-.144-.054-.18-.06-.259-.149-.014-.018-.067-.014-.085-.031-.016-.013.013-.064-.003-.073-.065-.041-.124-.009-.196-.04-.076-.028-.033-.061-.098-.091-.088-.042-.152.013-.21-.001-.144-.034-.114-.167-.152-.25-.15-.023-.189.064-.325.077-.133.013-.222-.041-.348-.044-.199-.005-.61 0-.606.202-.076.023-.155.029-.245.023-.055-.201-.235.083-.287.104l-.033.079v.002zM12.196 24.6289c.078-.054.247.018.254-.101.061 0 .11-.011.154-.037.012-.071-.089-.08-.089-.145.032-.004.113-.018.137-.038.036-.032.005-.091.033-.114.098-.091.197.014.299-.022.014-.072-.109-.055-.14-.113-.031-.06.007-.12.093-.127-.009-.063-.173-.14-.19-.225-.03-.152.124-.109.282-.116.009-.046.008-.212.112-.105.061.059-.064.18.128.156-.007.084.106.071.189.062.071-.094-.03-.08-.092-.124-.061-.041-.104-.1-.203-.103-.003-.018-.004-.035.001-.053.128-.069.135-.153.204-.254 0 .01.013.041.015.056.12.046.235.009.328.081-.006-.041.015-.066.037-.1.147-.007.378-.028.366-.17.072 0 .09-.042.094-.093.171-.04.529-.068.568.111.124.015.23-.051.343-.028 0 .015.005.027.005.04.048-.004.105.006.154.006.02.071 0 .21.079.228-.002.008-.004.037-.004.04-.069 0-.096.033-.082.081-.108.015-.081-.051-.162-.072-.113-.028-.145.027-.241.038-.183.021-.231-.117-.412-.115-.03.001-.201.037-.217.051-.061.053-.012.118-.057.173-.09.099-.329.053-.466.066.001.054-.04.095-.111.113-.005.076.023.16-.041.219-.079.067-.196.061-.274.002-.04.056-.103.09-.191.077-.023.087.352.308.064.351.014.075-.044.131-.04.2-.079.024-.157.019-.244.029.06.227-.395.105-.505.112 0 .04-.005.085-.01.121-.068.002-.107-.025-.121-.067l-.047-.091z" fill="#1d81a4"/><path d="M11.8953 23.2049c.15-.077.129-.086.015-.168-.001-.001-.034-.062-.038-.068-.02-.021-.051-.016-.073-.049-.035-.056.023-.113-.03-.169.064.013.072.043.14.043.016 0 .083-.058.11-.063.015.049.041.092.054.145.064 0 .088.028.077.077.063.036.038.117.138.114-.004-.063.005-.123.035-.177.017-.005.029-.001.043-.005.004-.044.031-.077.084-.091.03.049.061.171.142.189.071.019.15-.036.235-.03.002-.072-.004-.126.068-.181.032.079.13.034.167.104.052-.06.071-.129.175-.15 0-.114.188-.021.285-.029-.003.02.009.044.006.062.085.054.126-.008.122-.075.021-.001.042-.005.061-.005-.024-.234.164-.14.364-.153-.004.036.01.072.004.106.076.005.12-.039.16-.086.006.03.016.071.015.109.11.024.147-.046.248-.025-.006.017.011.042.005.061.361-.014-.027.271-.103.354-.122.003-.259-.013-.378.001-.143.017-.214.07-.376.068 0-.079-.141-.06-.22-.051-.034.123-.235.21-.394.181-.007.075.028.141.022.21-.07.004-.141.003-.212 0-.047-.163-.469-.022-.425-.212.081-.004.168-.037.149-.103-.055-.004-.115-.004-.168.001-.021.13-.202.102-.33.114-.012.103-.144.13-.27.121-.007-.03-.005-.065.015-.091l.078-.079zM14.8353 22.4875c.035.005.065-.001.093-.012.006-.067 0-.136.006-.203.076 0 .13-.009.191-.023.07-.017.073-.065.184-.043 0 .012.003.02.005.031.041-.005.094.008.133.005-.006.018.015.052.008.073.072-.01.115.014.112.069.068-.002.116-.021.184-.018.031.22-.284.109-.313.245.089-.016.222-.068.192.055.14.005.023.181-.026.217-.095.071-.235.083-.333.074-.027-.003-.166-.014-.181-.027-.099-.049-.007-.064-.047-.111-.033-.04-.231-.11-.316-.131-.016-.051-.088-.051-.094-.11.037-.002.037-.022.06-.035l.142-.056zM19.0598 21.1665c-.145.068-.203.164-.145.285.033.063.136.218.25.192.062-.154.193-.169.365-.159.04-.094.22-.137.348-.119.002.013.002.025.002.039.099.012.15-.057.179-.111.044 0 .108.008.153 0 .038-.009.07-.04.099-.045.097-.014.188.003.276-.027.019-.083.093-.076.188-.072.117.005.176.048.196.139.017.072-.041.177.047.231.107.066.134-.031.222-.022.093.008.125.109.27.069.096-.026.097-.073.126-.138.041-.094.046-.118-.091-.148-.049-.011-.108.004-.157-.009-.043-.011-.055-.054-.132-.06-.04-.122.142-.106.217-.148.079-.045.134-.154.108-.222-.055-.005-.109-.005-.167-.005-.005-.098.012-.201-.007-.294-.109-.034-.305-.02-.403.018-.003-.044.002-.091-.007-.133-.074-.004-.11.036-.184.045-.098.014-.114-.005-.181.031-.02.011-.098.107-.105.128-.009.05.045.068.027.124-.111.034-.364.048-.309-.098.141.005.378-.265.037-.255.016-.084.021-.162-.163-.136-.101.016-.084.056-.172.082-.05.014-.153-.002-.207.002 0 .012-.003.022-.009.029-.151.003-.363-.093-.473.007-.063.053-.035.116-.086.16-.052.047-.167.062-.24.089-.025.12-.083.182-.017.316.03.061.28.1.207.136l-.062.079z" fill="#1d81a4"/><path d="M15.2482 21.8048c-.072.065-.157.115-.139.203.258-.022.299.209.546.193.037-.061.144-.045.223-.038.051.094.122.189.115.302h.059c.006-.076-.001-.15.006-.225.054-.005.101-.014.154-.027.012.053.067.082.14.073-.006.044.017.092.053.125-.064.004-.185.057-.146.123.036.064.119.014.187.014-.011.099.071.102.115.165.032.048.051.151.048.207.106.029.127.086.268.068.048-.006.136-.063.193-.074.064-.014.185-.017.246-.041.074-.03.067-.085.157-.091.003-.031.032-.063.021-.098.088.009.154-.038.22-.058.112-.037.149.004.174-.103.021-.092-.04-.108-.079-.183-.019-.035-.015-.069-.033-.103-.016-.027-.057-.058-.071-.089-.062-.142.05-.211.131-.322.036-.054.073-.115.085-.168.022-.119-.058-.119-.175-.164-.039.039-.077.082-.085.126-.042.021-.094.028-.147.024-.013-.06-.093-.052-.107-.111-.028-.005-.075-.004-.101.003-.009.076.022.122-.078.156-.093.032-.179-.044-.238-.035-.099.012-.124.081-.225.104-.074.014-.193 0-.27 0-.067 0-.188-.019-.252-.003-.101.024-.113.094-.253.069-.209-.035-.125-.17-.132-.294-.116-.004-.249-.046-.357-.035-.084.008-.278.111-.283.181.026-.005.068.007.089.005.005.011.007.02.005.03l-.062.088-.002.003z" fill="#1d81a4"/><path d="M18.0007 22.3403c-.167-.02-.119-.159-.005-.208-.004-.019.01-.046.005-.065.154-.005.243.021.234-.113-.005-.073.021-.035-.058-.084-.033-.021-.119-.061-.152-.078-.103-.051-.276-.075-.216-.193.059-.115.149-.038.252-.024-.003-.107.096-.046.144-.056.061-.009.123-.036.189-.046.111.145.105.221.346.198-.005.023.013.053.006.075.08-.047.145-.029.25-.044.105-.015.155-.066.25-.019 0 .014.002.028.005.04.071.004.141.004.203-.012.11.091.05.278-.11.325.005.019-.009.047-.007.063-.074.017-.117.042-.198.046-.074.004-.131-.027-.205-.018.016.061-.029.096-.11.102-.007.02-.007.055 0 .074.05.013.071.035.081.08.05-.005.1-.007.152-.005-.006.018.008.044.003.062.086-.006.213.102.236.005.122-.002.305.084.296.178-.071.002-.146 0-.214.007.021.084-.249.29-.318.142-.041-.08.177-.291-.096-.257.015.075-.009.094-.08.132-.019.011-.086-.006-.108-.002-.011.002-.073.047-.095.058-.008-.11-.015-.185-.205-.155.002.102-.163.175-.299.154-.018-.055.184-.314-.064-.255-.009.037-.029.059-.041.096-.102.005-.26.024-.332-.03-.101-.075.023-.103.133-.114l.123-.059h.005zM14.6939 23.7522c-.124-.098.043-.115.125-.15.033-.012.053 0 .085-.022.021-.014.003-.042.028-.055.043-.023.02-.061.108-.042.002.067.108.104.194.075.057-.019.062-.069.104-.095.126-.081.224-.045.26-.202-.081-.014-.169-.079-.114-.147.035-.047.144-.029.195-.063.118-.089-.014-.232.231-.235.011-.032.056-.111.035-.147-.04-.067-.174-.028-.125-.143.093-.008.12-.002.184.031.065.035.04.093.142.095.039.163.484-.076.512.118.095.005.226-.021.245.066-.15.021-.183.113-.281.184-.084.062-.205.078-.291.137-.058.038-.086.058-.15.081-.08.031-.082-.005-.146.056-.035.035-.006.075-.072.118-.03.02-.112.034-.153.056-.119.06-.215.114-.31.19-.045.036-.108.07-.154.106-.048.035-.062.07-.098.103-.112.106-.13.063-.268.032-.085-.018-.271.003-.238-.102l-.048-.046v.001zM9.3017 19.6307c.042.045.092.13.16.157.073.032.118 0 .201.017.064.013.116.062.178.087.087.036.162.003.19.1.112.01.227-.027.32.008.044.017.073.071.111.091.051.028.076.018.134.035.04.011.065.031.116.039.051.011.123-.014.172 0 .097.027.18.139.184.214-.013 0-.028.003-.039.007.004.042-.025.049-.042.084-.174.031-.37.039-.552 0-.243-.052-.331-.054-.507.084.143-.002.303-.03.432-.021.016.073.087.102.187.092-.021.109.201.123.257.053.019.021.048.024.052.067.072 0 .179.036.219.085.095.116-.043.061-.12.127-.062.053-.056.141-.102.199-.042.051-.141.113-.155.181.113-.052.189-.13.297-.184.161-.088.347-.007.521-.023-.019-.071-.088-.217.093-.225.028-.077.075-.164.205-.16.004-.011 0-.021.004-.032.047.005.092.033.122.066-.024-.113.234-.065.334-.068.067-.001.185-.04.234-.035.072.007.086.042.162.061.15.025.208-.071.316-.106.053-.017.127-.017.186-.037.062-.019.032-.065.129-.049.022.118-.073.165-.18.231-.053.032-.137.036-.083.104.026.035.149.043.201.042-.039.081-.215.259-.36.245.008-.037-.008-.08-.008-.112-.128-.029-.276-.14-.402-.113-.006.038.008.089-.003.123-.013.041-.065.05-.065.104.002.083.139.129-.038.187-.158.051-.577-.008-.512.199.041.022.035.011.065.056.265.009.454-.095.687-.161.161-.047.19-.003.34-.007.194-.005.125-.099.253-.161.011.027.043.055.047.089.015.005.026.002.04.006.005.084-.264.101-.17.221.069.089.126-.032.235-.006.004.015.004.028.004.04.104.006.114-.102.251-.077.099.016.17.128.209-.021.133.019.079-.054.141-.092.055-.029.114-.041.172-.081.038-.025 0-.033.065-.056.042-.018.081-.003.128-.012.089-.014.169-.004.175-.09.01-.008.041-.018.058-.027.011.016.042.036.049.05.036-.034.034-.078.076-.114.036-.036.102-.041.143-.072.029-.015.073-.082.091-.093.067-.03.148-.009.224-.032.064-.139.032-.183.237-.251.004-.039-.016-.107.014-.138.033-.032.113-.021.147-.052.063-.06.039-.226.026-.294-.073-.01-.181-.028-.24-.063-.075-.047-.06-.1-.192-.084-.052.007-.073.061-.132.063-.056.006-.077-.031-.126-.033-.156-.008-.085.033-.18.1-.088.063-.195.02-.271.076-.072.056-.015.138-.07.196-.055.057-.164.086-.244.041-.086-.044-.049-.099-.063-.172-.199.007-.212-.054-.154-.161.054-.096.096-.171.076-.293-.147-.001-.212-.095-.279-.162-.018-.018-.109-.076-.12-.094-.033-.047.024-.111-.03-.15-.091-.063-.12.009-.192.044-.03.012-.051.039-.086.052-.038.012-.078-.026-.106-.008-.034.02-.018.06-.036.075-.024.02-.058.038-.089.063-.062.04-.125.085-.209.085-.011-.054.081-.11.062-.148-.038-.074-.178-.032-.165.044-.142.005-.253-.014-.367.041-.081.041-.3.151-.289.219.072.022.137.023.201.054.029.013-.005.051.049.064.042.011.087-.012.125-.013.104-.009.284-.06.379-.039.007.105-.082.363-.295.322.013-.076-.077-.07-.128-.046-.053.025-.075.112-.121.145-.237.185-.094-.084-.332-.063-.017-.087-.024-.185-.044-.284-.192.007-.31-.098-.495-.128-.085-.012-.178-.031-.26-.054-.041-.01-.075-.015-.109-.035-.045-.025-.039-.065-.062-.079-.084-.055-.156-.023-.175-.115-.011-.048.065-.089.067-.133.002-.142-.231-.113-.398-.14-.006-.121-.035-.195-.065-.297-.019-.075.011-.095-.059-.15-.053-.037-.14-.047-.203-.079-.069-.03-.046-.11-.133-.01-.044.049-.032.094-.016.15.049.166.019.141-.202.165-.009.103.028.399-.222.345.023-.073-.05-.106-.143-.084 0 .036-.028.039-.041.073-.012.004-.025.004-.039.003l-.033.148z" fill="#1d81a4"/><path d="M17.6981 20.1883c.012.01.076.098.095.102.063.012.055-.041.107-.05.057-.01.186-.063.257-.042.092.031.063.131.189.138.088.005.132-.096.223-.023.025-.014.066-.019.094-.035 0 .013.02.044.018.068.042-.017.063-.012.09-.044.121.041-.012.249.174.214.074-.147.203-.173.348-.041.099-.043.143.088.129.142-.023.082-.179.15-.264.201-.194.127-.411.163-.454.358-.222.031-.238-.195-.39.013-.106.145-.099.203-.378.193.039-.114-.119-.091-.183-.059-.103.053-.108.13-.256.129-.043-.002-.097-.036-.138-.031-.083.009-.062.036-.122.073-.115.075-.134.063-.298.072-.16.009-.202.04-.309.119-.065.047-.218.181-.343.131-.13-.051.054-.099-.002-.156-.04-.04-.278-.014-.34-.016 0-.014-.007-.03-.007-.043-.108.014-.225-.061-.209-.136-.094-.004-.181-.035-.275-.035-.181-.004-.123.056-.234.108-.095.044-.199 0-.296.056-.106.06-.105.144-.27.117-.02-.054.02-.028.042-.055-.008.011.105-.044.108-.045.026-.019.093-.117.082-.148-.01-.023-.098-.042-.12-.061-.039-.026-.059-.042-.088-.063-.013-.011.015-.046.001-.056-.021-.018-.062-.014-.08-.026-.04-.025-.086-.005-.131-.046.082-.075.239 0 .34-.042.115-.045.05-.104.048-.192 0-.02 0-.112.012-.129.022-.037.077-.012.108-.048.073-.09 0-.136.018-.215.031-.118.132-.057.224-.111.075-.049.068-.128.094-.194.035-.103.198-.262.36-.289.096-.138-.152-.119-.279-.125-.004-.126-.249-.021-.317-.004-.035.007-.027.04-.082.042-.035.003-.042-.035-.074-.035-.078 0-.116-.003-.193.009-.01-.056-.009-.118.049-.157-.074-.019-.14-.05-.127-.113.144-.01.33.004.492.004.009 0 .042-.033.072-.033.015-.003.035.051.099.04.082-.017.028-.108.156-.093-.011-.074.083-.146.159-.169.038-.012.164-.026.205-.012.081.024.065.087.139.108.152.044.412-.284.508-.152.022-.039.07-.075.128-.082.043.056.091.103.158.14.099-.037.081-.134.221-.117.112.014.171.162.16.236.137-.007.291.276.081.327.044.259-.391.059-.436.258-.141.024-.117-.107-.261-.075.008.021-.012.054-.007.075-.035-.008-.088.007-.119.004-.009.071-.116.099-.129.167-.009.046.048.123.066.168.025.002.049.004.073 0 .014-.07.014-.205.11-.239.078-.03.106.018.179.014.069-.004.073-.068.17-.041.011.07.009.27.144.254.005-.088-.059-.303.098-.326.051-.006.094.03.105.03-.016 0 .1-.005.086-.007.101.014.115-.008.201.055l.19.045.001.001zM19.3716 20.0843c-.109-.056-.094-.128-.042-.182-.132-.06-.144-.202.012-.253.03.037.053.083.05.126.028.005.081.005.107 0-.012-.125.127-.287.327-.244.011.06.011.122-.017.172-.036.064-.122.084-.1.163.142.003.265-.247.424-.121.048-.049.064-.124.158-.14-.016-.005-.031-.014-.048-.019.08-.007.115-.078.186-.108.062-.025.184-.058.257-.053.213.016.086.077.048.159-.054.114.043.093.067.203.051.014.068.035.079.079.086.003.179-.002.262.006-.013.102.103.156.073.27-.025.092-.053.212-.208.225.05-.181-.224 0-.253.002-.167.013-.069-.154-.255-.11-.006.052-.057.087-.127.087.016-.097-.065-.159-.2-.146-.117.014-.207.118-.308.157-.21.082-.546.07-.537-.147 0 .002.158-.068.048-.124l-.003-.002zM13.6823 18.4007c.153-.05.477.074.564-.106.034-.062-.028-.083-.05-.131-.01-.02-.046-.029-.055-.06-.007-.023.037-.054.033-.068-.033-.084-.133-.12-.119-.235-.118-.015-.131-.028-.167-.094-.02-.039-.069-.171-.06-.203.04-.014.141-.019.168-.038.058-.043.02-.103.093-.139.075-.036.125.012.179-.055.017-.022.009-.157-.008-.179-.033-.045-.119-.062-.151-.106-.039-.054-.02-.083-.015-.146.007-.093-.008-.272-.203-.223-.032.067-.03.108-.124.148-.071.029-.174-.001-.235.034-.069.037-.06.122-.062.177-.005.108-.032.106.164.141.062.185-.294.138-.424.147 0 .012-.001.021-.008.029-.13.004-.204.003-.308.052-.002.013-.004.027-.008.04-.39-.037-.124.241-.12.376.103.001.305-.028.263.09-.124.004-.174.004-.271.042-.106.042-.169.091-.275.124-.003.038-.003.08 0 .119.159-.028.08.071.141.114.065.044.21.031.295.017.07.136.132.161.292.147.09-.009.284-.014.36-.037l.111.023zM22.1656 11.3243c.131-.388.689-1.452.849-1.842.123-.306.272-.576.473-.858.131-.185.219-.388.358-.567.251-.319.567-.673.642-1.034.032-.148.097-.414-.082-.496-.12-.055-.637-.152-.732-.07l-1.454 4.074M25.8812 12.2205c.143-.019.608.079 1.014.062.164-.007.387-.025.545-.002.156.021.241.105.418.058.105-.028.186-.109.291-.137.142-.038.409-.066.573-.042.32.046.595.175.981.161.009-.035.004-.063-.006-.096-.186-.019-.424-.081-.412-.223.191-.014.452.019.671.035.062.005.702.08.369-.121.093-.027.229-.014.338-.044-.031-.154.194-.159.343-.184-.046-.16.16-.158.31-.204.187-.281-.501-.416-.785-.448-.003.003 0-.056 0-.055.043-.015.07-.032.107-.049-.306-.06-.334.084-.578.139-.163.036-.463-.033-.572-.097-.233.196-.638.147-.966.136 0 .019-.004.033-.016.049-.129.007-.269 0-.382-.011.002.02-.004.036-.014.05-.248.044-.221-.208-.495-.151.019.107-.031.468-.203.483-.247.022-.035-.278-.393-.291.077-.162-.09-.314.141-.446-.193-.057-.279-.169-.457-.203-.125-.023-.202.057-.313.041-.072-.007-.115-.094-.226-.106-.069.087-.077.209-.248.216-.008.031-.008.061 0 .091.078.008.086.042.162.051.005.078 0 .159.006.234.126.014.244.014.336-.04.145.163.105.34.12.531.113.019.134.1.098.182-.159-.012-.555.091-.614.166 0 0-.285.288-.143.265M22.5527 11.7498c.051.233.399.161.652.144.094-.009.208-.025.304-.033.102-.009.089.135.198-.032.11-.171-.02-.069-.101-.181-.034-.047-.147-.007-.113-.097.021-.054.135-.002.166-.026.125-.102.305-.225.242-.397-.189-.035-.235-.101-.372-.015-.143.09-.209.409-.111.322.087-.078-.424-.148-.928.129.024.021.054.046.088.063l-.025.123zM14.468 12.1392c-.11-.151-.517-.038-.71-.163.134-.027.32-.014.432-.102-.099-.024-.225-.014-.337-.042-.163-.034-.154-.093-.233-.141-.152-.091-.307-.164-.397-.306-.053-.083-.065-.122-.126-.198-.043-.056-.233-.092-.094-.183.176-.117.365.265.556.236-.002-.065.015-.137.009-.201.18.207.423.142.729.172.002.016.004.034.008.05.079.014.19.004.254-.018-.049-.04-.145-.082-.244-.104.116.002.427-.037.516.011.142.071.006.32.286.292-.012-.05.037-.087.037-.134.206-.031.187.167.415.115.017-.176.399.114.595.143-.007-.055.037-.088.037-.136.115.018.202-.002.227-.084.289-.057.239.198.5.14.009-.094.03-.216.004-.309-.029-.105-.153-.166-.11-.299.019-.006.037-.007.055-.006.165.16.193.326.394.452.035.024.127-.021.166.008.053.042.01.108.07.145.093.058.118.14.248.048.174.244.217.195.594.237.004.148.002.241.119.369.103.109.265.154.239.311-.275.012-.61.081-.809.218-.005.03 0 .06.002.09.197.027.136.098.248.183.114.084.267.046.129.216-.212.256-.575.015-.858.059-.045.149.214.266.329.349.11.082.372.206.422.351-.191.019-.279.116-.471.129-.196.014-.304-.076-.484-.104-.431-.064-.727.141-1.157.121.065-.036.099-.107.07-.176-.023-.001-.045-.006-.07-.008.017-.1.082-.212-.086-.258.051.003.114-.008.163-.006-.044-.213-.929-.033-1.01-.218.065-.011.103-.036.161-.05-.119-.024-.287-.02-.416-.008.014.047-.023.113-.013.154-.095.007-.851.283-.823-.017-.414.009-.106-.128-.099-.263.171-.025.283.044.444.035.017-.051.061-.063.068-.115.329-.022.149-.194-.089-.201.015.046-.021.112-.012.152-.2.007-.888.234-.908.027-.154.006-.298-.015-.418-.083.326-.098.842-.03 1.219-.044.007-.014.011-.026.007-.042-.285-.122-.839-.026-1.171-.079-.288-.046-.229-.043-.248-.265-.009-.082-.132-.291.165-.215.003.016.006.032.009.049.229.007.939.159.99.007.05-.009.046-.007.059-.042.031 0 .07-.005.103-.005.093-.214-.253-.14-.395-.182.053-.024.124-.024.203-.019l.507-.044v.001zM21.5101 10.3133c.03-.424.062-.846.093-1.27.017-.223.031-.447.049-.669.023-.242.145-.475.18-.716.061-.421.2-.816.232-1.241.009-.125 0-.172-.114-.262-.068-.059-.181-.135-.295-.164-.115-.028-.083-.03-.198-.012-.052.008-.275.022-.316.039-.049.02-.013.048-.061.083-.033.024-.148.048-.177.073-.147.151-.038.382.002.55.05.211.073.427.107.64.065.413.193.811.16 1.232-.019.256.022.488.072.737.039.188.014.38 0 .577 0 0 .03.36.051.71.023.351-.108.704-.108.995 0 .29.131.749.108 1.148-.021.396-.084 1.253-.084 1.253l.127.109s.168-.828.211-1.287c.044-.46-.17-.84-.126-1.238.041-.397.087-1.286.087-1.286v-.001z" fill="#1d81a4"/><path d="M21.8635 10.6204c-.01-.182.226-.346.263-.526.039-.169.022-.348.042-.521.008-.106.082-.179.102-.283.022-.095.016-.197.024-.289.013-.183.025-.363.04-.545.007-.102.006-.209.048-.295.052-.101.136-.193.195-.287.129-.186.086-.472.103-.69.017-.212-.034-.416.004-.627.033-.199-.087-.47.334-.47.064 0 .12.04.173.035.205-.013.359-.028.521.116.18.151.168.307.092.517-.124.357-.249.769-.502 1.111-.188.254-.269.548-.367.838-.081.244-.21.484-.255.734-.04.245-.038.465-.132.698-.078.2-.219.319-.374.563-.158.242-.241.427-.221.746.022.323.063 1.011.063 1.423 0 .413-.506 5.762-.557 5.727-.048-.036.154-4.503.154-4.503s.234-1.024.234-1.392c0-.366-.086-1.222-.064-1.453.022-.229.08-.627.08-.627M20.3023 9.2301l-1.1-3.134c-.033-.001-.067-.001-.097-.004-.222-.008-.547-.066-.749.003-.115.038-.141.082-.108.167.034.083.046.149.039.253-.017.21.121.42.255.615.062.085.121.182.153.275.028.071.021.142.049.212.027.068.077.128.098.192.082.251.197.513.275.76.066.209.231.405.314.631.077.2.113.424.211.621.057.117.121.234.112.358-.007.093-.014.189-.022.282l.246.466.842 1.339-.518-3.036z" fill="#1d81a4"/><path d="M20.7942 9.6703c-.065-.296-.267-1.133-.267-1.525.002-.395-.081-1.551-.081-1.551s-.041-.597-.201-.684c-.076-.04-.232-.113-.394-.118-.04-.002-.069.019-.11.016-.04-.004-.094-.022-.133-.021-.035.003-.193.07-.231.07-.196.004-.295.212-.343.3-.048.088.221.807.278.992.055.183.605 1.466.725 1.734.12.267.334.791.363 1.125.034.335.09.831.161 1.28.073.449.215 1.107.233 1.333.014.225.014.441.04.634.023.191.048.901.048.901s.136 4.278.236 4.278c.096 0-.131-5.122-.147-5.291-.016-.168-.008-.412 0-.61.007-.199-.156-.774-.171-1.272-.015-.504.061-1.298-.005-1.595l-.001.004z" fill="#1d81a4"/><path d="M20.19 14.4653c.046.207.364.173.566.203.204.032.455.049.703.039.175-.257.833.043 1.033.072.034.007.197.04.269.054-.027-.005.327.047.238.052.169-.011.104-.033.193-.073.073-.033.014-.127.193-.093.002.016.006.033.01.05.18.006.507.062.451-.137.132-.002.236-.019.343-.039.105-.019.124-.091.273-.069-.141-.14-.08-.28.066-.448-.109-.021-.19-.08-.185-.159-.156-.026-.107.03-.204.068-.027.011-.013.061-.054.082-.052.028-.118.011-.157.031-.152.077-.309.144-.509.162-.267.026-.958-.12-1.032.101-.138.004-.279.01-.41-.021-.007-.086.001-.178-.015-.26-.244.024-.4-.129-.663-.107.032-.128-.053-.253-.254-.213.002.026-.017.068-.017.089-.098.004-.199.004-.297 0-.007-.021-.011-.054-.014-.075-.161-.001-.117.084-.274.101-.055.006-.15-.049-.25-.046.01-.031-.021-.087-.015-.116-.121-.018-.25.007-.352.047-.003.023-.012.049-.017.07-.06-.011-.155.016-.208.012-.002.033.064.152.053.171-.032.061-.191.116-.175.186.03.136.392.155.404.004.055.013.149.043.192.08l.117.183-.002-.001z" fill="#1d81a4"/><path d="M25.373 12.9562c.16.074.285.102.353.22.053.093-.056.221-.017.27.119.146.244-.005.369-.023.142-.018.312.009.445.025.015.083.013.173.009.259-.116-.038-.167-.176-.34-.096-.201-.17-.419.219-.534-.061-.045.074-.115.11-.223.097-.008-.195.272-.471-.118-.589l.056-.102zm-1.218 2.366c.158-.018.243.063.319.072.044.003.036.039.112.036.057-.003.082-.094.128-.094.201.004.031.026.183.126.081.051.183.087.272.123.103-.135-.051-.193-.077-.3.223-.04.629.236.54-.119.107-.013.807.006.529-.172.033.002.138-.028.199-.023-.044-.241.622-.111.793-.091.067.248.291.206.595.194.057-.15-.155-.115-.19-.22.282-.021.54.048.841.037.008-.126.029-.234-.068-.32-.111-.096-.338-.079-.454-.152-.188-.117-.046-.134-.01-.197.055-.1.096-.146.225-.185.187-.06.669.049.787-.128.113-.167-.149-.165-.262-.214-.195-.084-.201-.081-.182-.268.23-.004.633-.115.653-.31-.147-.039-.593.042-.7-.076-.104-.112.268-.113.39-.181.494-.282-.141-.439-.509-.427-.467.016-.958-.008-1.452-.008-.112 0-.225-.006-.338 0-.199.011-.195.055-.356.091-.244.06-.453-.022-.711-.014.042-.173-.219-.184-.4-.222-.087-.014-.216-.047-.304-.056-.198-.012-.14-.002-.282.049-.257.091-.349.201-.441.377-.057.11-.009.102-.097.191-.069.066-.225.148-.325.185-.007.131.052.273.013.395-.175-.027-.287.075-.294.185.5.042.143.407-.075.568-.122.092-.42.111-.379.267.02.077.25.182.286.307.128-.022.136.029.197.059.04.018.014.082.056.096.041.015.101-.004.134.01.045.02.132-.017.175 0 .046.016.033.072.076.091.098.049.052.118.204.114l.201.199-.002.005zM19.9069 16.6076c.253 0 .411.033.625.075.045.01.176.014.224.026.09.02.209.068.285.081.049.012.187.017.232.026.033.008.095-.014.134-.007.062.015.066.087.105.095.152.027.342-.006.541-.015.037-.225.266-.148.452-.245.167-.089.173-.314.428-.306.002-.018.005-.03.03-.043-.464-.089-.692.159-1.134.148-.461-.008-.505-.096-.687-.343-.1-.015-.195-.032-.298-.048-.008-.029-.008-.063.002-.095.203-.022.22-.13.093-.21-.217-.143-.453.015-.536.163-.138.004-.277.014-.408-.02.011-.066.094-.107.103-.165.016-.076-.032-.187.007-.26.085-.16.284-.144.534-.148.117-.065.142-.164.105-.28-.148 0-.389.038-.351-.12.271-.102-.201-.16-.314-.168.068-.207-.697-.314-.905-.276.003.02-.002.036-.016.052-.403.012-.53-.003-.823.182-.105.064-.275.129-.356.223-.088.103-.045.229-.066.35-.175-.019-.351.013-.325.162.124-.008.344-.003.42.08.067.07-.042.163.057.24.082.062.193-.004.291.085.06.052.066.164.082.228.12-.012.262-.032.39-.009.079.13.146.313.177.458.034 0 .076.008.103.009.021.125.114.257.314.215-.089-.327.31.005.394 0 .007-.02 0-.041.005-.058l.085-.082h.001z" fill="#1d81a4"/></g></svg>