<?xml version="1.0" encoding="UTF-8" standalone="no"?>
<svg
   xmlns:dc="http://purl.org/dc/elements/1.1/"
   xmlns:cc="http://creativecommons.org/ns#"
   xmlns:rdf="http://www.w3.org/1999/02/22-rdf-syntax-ns#"
   xmlns:svg="http://www.w3.org/2000/svg"
   xmlns="http://www.w3.org/2000/svg"
   viewBox="0 0 54.705734 54.710266"
   height="54.710266"
   width="54.705734"
   xml:space="preserve"
   version="1.1"
   id="svg2"><metadata
     id="metadata8"><rdf:RDF><cc:Work
         rdf:about=""><dc:format>image/svg+xml</dc:format><dc:type
           rdf:resource="http://purl.org/dc/dcmitype/StillImage" /></cc:Work></rdf:RDF></metadata><defs
     id="defs6"><clipPath
       id="clipPath16"
       clipPathUnits="userSpaceOnUse"><path
         id="path18"
         d="m 0,41.033 41.029,0 L 41.029,0 0,0 0,41.033 Z" /></clipPath><clipPath
       id="clipPath28"
       clipPathUnits="userSpaceOnUse"><path
         id="path30"
         d="m 15.34,32.485 c 0.165,-1.113 2.123,-1.113 2.963,-2.15 l 0,0 c 1.065,-1.318 -3.268,-1.729 -2.473,-3.53 l 0,0 c 0.796,-1.802 4.816,-0.727 5.425,-2.839 l 0,0 c 0.61,-2.114 -9.834,-1.381 -8.351,-3.874 l 0,0 c 1.482,-2.495 10.18,-1.918 11.708,-4.131 l 0,0 c 1.271,-1.845 -1.548,-5.095 -5.029,-5.828 l 0,0 c -4.451,-0.937 -7.674,-0.282 -9.489,0 l 0,0 c -2.644,0.41 -5.002,1.304 -7.615,2.461 l 0,0 C 0.122,12.189 11.666,0.76 21.106,0.76 l 0,0 c 9.853,0 14.176,6.913 17.222,11.482 l 0,0 C 36.182,11.825 31.167,8.742 29.682,9.77 l 0,0 c -1.883,1.306 3.011,3.973 2.554,7.51 l 0,0 c -0.34,2.609 -4.018,2.458 -7.149,2.307 l 0,0 c -1.944,-0.094 -3.676,-0.188 -4.265,0.38 l 0,0 c -1.539,1.481 1.837,0.886 3.077,3.999 l 0,0 c 1.044,2.625 -4.128,2.362 -5.492,2.884 l 0,0 c -1.364,0.522 1.681,1.887 1.681,3.259 l 0,0 c 0,1.371 -0.356,1.271 -2.734,2.309 l 0,0 c -1.791,0.78 0.943,3.122 0.707,4.12 l 0,0 c -0.026,0.111 -0.082,0.161 -0.161,0.161 l 0,0 C 17.272,36.7 15.199,33.475 15.34,32.485" /></clipPath><linearGradient
       id="linearGradient36"
       spreadMethod="pad"
       gradientTransform="matrix(36.15984,0,0,-36.15984,2.1682608,18.730038)"
       gradientUnits="userSpaceOnUse"
       y2="0"
       x2="1"
       y1="0"
       x1="0"><stop
         id="stop38"
         offset="0"
         style="stop-opacity:1;stop-color:#bcd8e4" /><stop
         id="stop40"
         offset="0.331055"
         style="stop-opacity:1;stop-color:#a2c6d8" /><stop
         id="stop42"
         offset="0.561224"
         style="stop-opacity:1;stop-color:#93bbcf" /><stop
         id="stop44"
         offset="0.755979"
         style="stop-opacity:1;stop-color:#71a5c0" /><stop
         id="stop46"
         offset="0.910535"
         style="stop-opacity:1;stop-color:#5998b7" /><stop
         id="stop48"
         offset="1"
         style="stop-opacity:1;stop-color:#5998b7" /></linearGradient><clipPath
       id="clipPath56"
       clipPathUnits="userSpaceOnUse"><path
         id="path58"
         d="m 0,41.033 41.029,0 L 41.029,0 0,0 0,41.033 Z" /></clipPath></defs><g
     transform="matrix(1.3333333,0,0,-1.3333333,0,54.710267)"
     id="g10"><g
       id="g12"><g
         clip-path="url(#clipPath16)"
         id="g14"><g
           transform="translate(39.5947,21.2017)"
           id="g20"><path
             id="path22"
             style="fill:#ffffff;fill-opacity:1;fill-rule:nonzero;stroke:none"
             d="m 0,0 c 0,-10.437 -8.46,-18.894 -18.894,-18.894 -10.435,0 -18.894,8.457 -18.894,18.894 0,10.434 8.459,18.892 18.894,18.892 C -8.46,18.892 0,10.434 0,0" /></g></g></g><g
       id="g24"><g
         clip-path="url(#clipPath28)"
         id="g26"><g
           id="g32"><g
             id="g34"><path
               id="path50"
               style="fill:url(#linearGradient36);stroke:none"
               d="m 15.34,32.485 c 0.165,-1.113 2.123,-1.113 2.963,-2.15 l 0,0 c 1.065,-1.318 -3.268,-1.729 -2.473,-3.53 l 0,0 c 0.796,-1.802 4.816,-0.727 5.425,-2.839 l 0,0 c 0.61,-2.114 -9.834,-1.381 -8.351,-3.874 l 0,0 c 1.482,-2.495 10.18,-1.918 11.708,-4.131 l 0,0 c 1.271,-1.845 -1.548,-5.095 -5.029,-5.828 l 0,0 c -4.451,-0.937 -7.674,-0.282 -9.489,0 l 0,0 c -2.644,0.41 -5.002,1.304 -7.615,2.461 l 0,0 C 0.122,12.189 11.666,0.76 21.106,0.76 l 0,0 c 9.853,0 14.176,6.913 17.222,11.482 l 0,0 C 36.182,11.825 31.167,8.742 29.682,9.77 l 0,0 c -1.883,1.306 3.011,3.973 2.554,7.51 l 0,0 c -0.34,2.609 -4.018,2.458 -7.149,2.307 l 0,0 c -1.944,-0.094 -3.676,-0.188 -4.265,0.38 l 0,0 c -1.539,1.481 1.837,0.886 3.077,3.999 l 0,0 c 1.044,2.625 -4.128,2.362 -5.492,2.884 l 0,0 c -1.364,0.522 1.681,1.887 1.681,3.259 l 0,0 c 0,1.371 -0.356,1.271 -2.734,2.309 l 0,0 c -1.791,0.78 0.943,3.122 0.707,4.12 l 0,0 c -0.026,0.111 -0.082,0.161 -0.161,0.161 l 0,0 C 17.272,36.7 15.199,33.475 15.34,32.485" /></g></g></g></g><g
       id="g52"><g
         clip-path="url(#clipPath56)"
         id="g54"><g
           transform="translate(20.5166,38.8736)"
           id="g60"><path
             id="path62"
             style="fill:#737577;fill-opacity:1;fill-rule:nonzero;stroke:none"
             d="m 0,0 c -10.123,0 -18.357,-8.236 -18.357,-18.357 0,-10.122 8.234,-18.36 18.357,-18.36 10.123,0 18.357,8.238 18.357,18.36 C 18.357,-8.236 10.123,0 0,0 m 0,-38.876 c -11.314,0 -20.517,9.205 -20.517,20.519 0,11.311 9.203,20.516 20.517,20.516 11.313,0 20.517,-9.205 20.517,-20.516 0,-11.314 -9.204,-20.519 -20.517,-20.519" /></g></g></g></g></svg>