<?xml version="1.0" encoding="UTF-8" standalone="no"?>
<svg
   xmlns:dc="http://purl.org/dc/elements/1.1/"
   xmlns:cc="http://creativecommons.org/ns#"
   xmlns:rdf="http://www.w3.org/1999/02/22-rdf-syntax-ns#"
   xmlns:svg="http://www.w3.org/2000/svg"
   xmlns="http://www.w3.org/2000/svg"
   viewBox="0 0 54.705734 54.710266"
   height="54.710266"
   width="54.705734"
   xml:space="preserve"
   version="1.1"
   id="svg2"><metadata
     id="metadata8"><rdf:RDF><cc:Work
         rdf:about=""><dc:format>image/svg+xml</dc:format><dc:type
           rdf:resource="http://purl.org/dc/dcmitype/StillImage" /></cc:Work></rdf:RDF></metadata><defs
     id="defs6"><clipPath
       id="clipPath16"
       clipPathUnits="userSpaceOnUse"><path
         id="path18"
         d="m 0,41.033 41.029,0 L 41.029,0 0,0 0,41.033 Z" /></clipPath></defs><g
     transform="matrix(1.3333333,0,0,-1.3333333,0,54.710267)"
     id="g10"><g
       id="g12"><g
         clip-path="url(#clipPath16)"
         id="g14"><g
           transform="translate(35.1758,7.5835)"
           id="g20"><path
             id="path22"
             style="fill:#a2c5d7;fill-opacity:1;fill-rule:nonzero;stroke:none"
             d="m 0,0 c -3.555,-4.062 -8.778,-6.625 -14.602,-6.625 -6.918,0 -12.99,3.621 -16.425,9.073 C -32.91,5.439 -25.13,1.2 -14.414,1.2 -3.699,1.2 2.989,3.413 0,0" /></g><g
           transform="translate(20.5166,38.8735)"
           id="g24"><path
             id="path26"
             style="fill:#737577;fill-opacity:1;fill-rule:nonzero;stroke:none"
             d="m 0,0 c -10.122,0 -18.357,-8.236 -18.357,-18.357 0,-10.122 8.235,-18.36 18.357,-18.36 10.123,0 18.357,8.238 18.357,18.36 C 18.357,-8.236 10.123,0 0,0 m 0,-38.875 c -11.313,0 -20.517,9.205 -20.517,20.518 0,11.311 9.204,20.516 20.517,20.516 11.313,0 20.517,-9.205 20.517,-20.516 0,-11.313 -9.204,-20.518 -20.517,-20.518" /></g><g
           transform="translate(4.2529,22.0005)"
           id="g28"><path
             id="path30"
             style="fill:#1d81a4;fill-opacity:1;fill-rule:nonzero;stroke:none"
             d="m 0,0 c 0.072,-0.019 0.145,-0.146 0.208,-0.211 0.075,-0.074 0.171,-0.163 0.255,-0.225 0.215,-0.156 0.391,-0.206 0.638,-0.206 0.458,0.004 0.919,0.024 1.369,-0.038 0.88,-0.114 1.834,-0.327 2.666,-0.696 0.105,-0.045 0.281,-0.134 0.388,-0.146 0.175,-0.027 0.293,0.194 0.458,0.275 0.332,0.162 0.696,0.111 1.017,0.016 0.397,-0.118 0.63,-0.173 1.02,-0.016 0.151,0.062 0.335,0.068 0.263,0.312 C 8.227,-0.736 7.985,-0.71 7.841,-0.654 7.394,-0.484 7.068,-0.569 6.622,-0.722 6.7,-0.292 7.331,0.06 7.666,0.06 7.47,0.367 6.814,0.556 6.532,0.596 6.157,0.654 5.633,0.565 5.258,0.644 c -0.323,0.075 -0.323,0 -0.664,0 -0.395,0 -0.767,0.163 -1.148,0.163 C 3.342,0.807 3.189,0.81 3.062,0.734 2.931,0.65 2.804,0.526 2.671,0.437 2.438,0.292 2.089,0.06 1.821,0.197 1.511,0.363 1.419,0.745 1.017,0.683 0.893,0.663 0.742,0.644 0.631,0.598 0.508,0.546 0,0 0,0" /></g><g
           transform="translate(8.2373,21.0103)"
           id="g32"><path
             id="path34"
             style="fill:#1d81a4;fill-opacity:1;fill-rule:nonzero;stroke:none"
             d="m 0,0 c 0,0 1.36,-0.342 1.701,-0.639 0.34,-0.3 2.501,-2.974 3.949,-4.51 1.437,-1.536 3.432,-4.361 4.158,-7.129 0.339,-1.195 0.508,-2.679 0.637,-2.979 0.123,-0.293 0.168,-0.366 0.38,-0.318 0.213,0.049 0.299,0.025 0.381,0.421 0.086,0.397 -1.382,4.555 -2.102,5.995 C 8.386,-7.724 6.027,-5.001 4.924,-3.76 3.823,-2.524 2.211,-0.864 1.783,-0.57 1.36,-0.271 0,0 0,0" /></g><g
           transform="translate(34.2324,24.6216)"
           id="g36"><path
             id="path38"
             style="fill:#1d81a4;fill-opacity:1;fill-rule:nonzero;stroke:none"
             d="M 0,0 C -0.064,-0.039 -0.099,-0.181 -0.142,-0.262 -0.194,-0.354 -0.261,-0.466 -0.323,-0.549 -0.487,-0.76 -0.644,-0.854 -0.88,-0.922 -1.32,-1.047 -1.77,-1.156 -2.185,-1.34 -2.997,-1.694 -3.854,-2.164 -4.552,-2.75 -4.641,-2.822 -4.785,-2.957 -4.884,-2.999 -5.046,-3.072 -5.219,-2.895 -5.401,-2.862 -5.766,-2.798 -6.1,-2.948 -6.382,-3.129 -6.73,-3.354 -6.937,-3.47 -7.357,-3.428 -7.52,-3.411 -7.699,-3.456 -7.696,-3.2 c -0.001,0.206 0.22,0.299 0.345,0.391 0.383,0.288 0.718,0.296 1.191,0.274 -0.195,0.39 -0.9,0.554 -1.223,0.46 0.106,0.349 0.682,0.715 0.942,0.83 0.343,0.161 0.872,0.222 1.212,0.4 0.289,0.163 0.308,0.091 0.638,0.186 0.378,0.109 0.69,0.37 1.055,0.474 0.101,0.03 0.246,0.075 0.39,0.04 0.15,-0.045 0.306,-0.13 0.458,-0.177 0.264,-0.075 0.664,-0.202 0.882,0.004 0.253,0.247 0.236,0.638 0.64,0.69 0.124,0.015 0.273,0.038 0.393,0.026 C -0.64,0.382 0,0 0,0" /></g><g
           transform="translate(30.6807,22.562)"
           id="g40"><path
             id="path42"
             style="fill:#1d81a4;fill-opacity:1;fill-rule:nonzero;stroke:none"
             d="m 0,0 c 0,0 -1.212,-0.707 -1.458,-1.088 -0.241,-0.381 -1.576,-3.551 -2.539,-5.429 -0.953,-1.874 -2.085,-5.143 -2.014,-8.004 0.006,-1.241 0.256,-2.711 0.215,-3.038 -0.035,-0.315 -0.058,-0.4 -0.276,-0.413 -0.216,-0.01 -0.294,-0.055 -0.483,0.3 -0.192,0.359 0.061,4.759 0.354,6.342 0.291,1.581 1.8,4.85 2.515,6.35 0.715,1.492 1.802,3.536 2.13,3.936 C -1.232,-0.638 0,0 0,0" /></g><g
           transform="translate(20.0967,24.8149)"
           id="g44"><path
             id="path46"
             style="fill:#1d81a4;fill-opacity:1;fill-rule:nonzero;stroke:none"
             d="m 0,0 c -0.085,0.049 -0.138,0.305 -0.238,0.402 -0.122,0.126 -0.291,0.182 -0.422,0.297 -0.315,0.284 -0.146,0.618 -0.09,0.989 0.079,0.485 0.079,0.954 0.121,1.433 0.036,0.416 0.045,0.911 0.201,1.275 0.182,0.438 0.416,0.9 0.656,1.304 0.277,0.469 0.46,1.016 0.701,1.527 0.263,0.551 0.657,0.965 1.07,1.361 C 2.141,8.722 2.302,8.849 2.417,9.009 2.506,9.132 2.56,9.327 2.644,9.431 2.574,8.947 3.046,8.946 3.334,8.828 3.749,8.665 3.939,8.14 4.089,7.705 4.237,7.284 4.42,6.868 4.577,6.441 4.755,5.955 5.026,5.524 5.103,5.005 5.131,4.818 5.228,4.636 5.2,4.47 5.171,4.292 5.007,4.124 4.923,3.976 4.801,3.776 4.665,3.563 4.604,3.323 4.54,3.092 4.621,2.893 4.597,2.672 4.573,2.436 4.44,2.32 4.49,2.055 4.527,1.848 4.621,1.633 4.675,1.429 4.721,1.249 4.754,1.032 4.684,0.866 4.618,0.705 4.531,0.607 4.529,0.407 4.524,0.148 4.6,-0.11 4.435,-0.325 4.307,-0.485 4.021,-0.587 3.819,-0.559 3.645,-0.537 3.398,-0.245 3.277,-0.089 3.113,0.124 2.979,0.405 2.787,0.587 2.476,0.882 1.909,0.739 1.581,0.597 1.405,0.521 1.208,0.413 1.019,0.356 0.85,0.305 0,0 0,0" /></g><g
           transform="translate(22.8252,33.2085)"
           id="g48"><path
             id="path50"
             style="fill:#1d81a4;fill-opacity:1;fill-rule:nonzero;stroke:none"
             d="m 0,0 c 0,0 0.007,-2.802 -0.158,-5.336 -0.163,-2.533 -1.249,-9.621 -1.668,-13.096 -0.424,-3.472 -1.117,-9.499 -0.927,-10.172 0.189,-0.67 0.69,-0.44 0.883,0.541 0.19,0.984 0.47,5.941 0.522,8.907 0.051,2.966 1.458,11.708 1.452,13.961 -0.013,2.256 -0.11,5.194 -0.11,5.194 L 0,0 Z" /></g><g
           transform="translate(17.084,22.2134)"
           id="g52"><path
             id="path54"
             style="fill:#1d81a4;fill-opacity:1;fill-rule:nonzero;stroke:none"
             d="m 0,0 c 0.073,0.049 0.101,0.289 0.185,0.383 0.105,0.123 0.252,0.185 0.364,0.296 0.26,0.274 0.081,0.573 0,0.91 C 0.442,2.03 0.401,2.455 0.33,2.891 0.263,3.271 0.213,3.725 0.049,4.047 -0.156,4.442 -0.402,4.849 -0.653,5.204 -0.944,5.62 -1.154,6.108 -1.413,6.562 -1.696,7.055 -2.084,7.409 -2.494,7.749 -2.634,7.863 -2.788,7.971 -2.906,8.115 -2.996,8.219 -3.063,8.392 -3.149,8.49 -3.045,8.046 -3.476,8.017 -3.729,7.896 -4.094,7.728 -4.226,7.23 -4.332,6.826 -4.432,6.435 -4.565,6.044 -4.676,5.642 -4.8,5.185 -5.017,4.775 -5.047,4.299 -5.055,4.126 -5.128,3.949 -5.088,3.8 -5.047,3.646 -4.891,3.497 -4.797,3.369 -4.676,3.193 -4.53,3.001 -4.454,2.79 -4.381,2.58 -4.439,2.394 -4.4,2.192 -4.363,1.977 -4.23,1.872 -4.253,1.63 -4.272,1.441 -4.337,1.244 -4.376,1.055 -4.4,0.877 -4.414,0.683 -4.337,0.535 -4.265,0.389 -4.18,0.311 -4.164,0.121 c 0.022,-0.238 -0.022,-0.475 0.145,-0.661 0.129,-0.142 0.4,-0.22 0.58,-0.184 0.159,0.032 0.363,0.311 0.46,0.464 0.128,0.199 0.233,0.469 0.394,0.643 0.261,0.29 0.782,0.192 1.099,0.081 C -1.319,0.397 -1.132,0.313 -0.952,0.271 -0.793,0.235 0,0 0,0" /></g><g
           transform="translate(13.6748,29.6333)"
           id="g56"><path
             id="path58"
             style="fill:#1d81a4;fill-opacity:1;fill-rule:nonzero;stroke:none"
             d="m 0,0 c 0,0 0.396,-2.541 0.905,-4.808 0.515,-2.259 1.818,-8.516 2.699,-11.595 0.887,-3.083 0.806,-7.753 0.729,-8.385 -0.076,-0.64 -0.56,-0.507 -0.875,0.355 -0.314,0.864 0.292,4.627 -0.177,7.305 C 2.803,-14.458 0.969,-6.755 0.654,-4.719 0.337,-2.675 0,0 0,0" /></g><g
           transform="translate(23.2764,16.3813)"
           id="g60"><path
             id="path62"
             style="fill:#1d81a4;fill-opacity:1;fill-rule:nonzero;stroke:none"
             d="M 0,0 C 0.064,0.061 0.055,0.303 0.122,0.406 0.208,0.547 0.341,0.631 0.434,0.758 0.647,1.068 0.423,1.336 0.29,1.655 0.114,2.074 0.01,2.489 -0.132,2.905 -0.258,3.272 -0.38,3.711 -0.594,4.004 -0.856,4.362 -1.164,4.725 -1.47,5.036 -1.821,5.4 -2.105,5.85 -2.435,6.257 c -0.355,0.44 -0.796,0.73 -1.254,1.001 -0.154,0.09 -0.326,0.173 -0.464,0.295 -0.105,0.089 -0.2,0.25 -0.299,0.333 C -4.28,7.463 -4.7,7.366 -4.933,7.206 -5.264,6.981 -5.316,6.472 -5.356,6.055 -5.394,5.652 -5.465,5.245 -5.509,4.832 -5.561,4.36 -5.709,3.922 -5.663,3.446 c 0.019,-0.172 -0.024,-0.357 0.037,-0.5 0.065,-0.142 0.244,-0.267 0.356,-0.379 0.148,-0.154 0.323,-0.32 0.431,-0.519 0.105,-0.194 0.077,-0.386 0.147,-0.579 0.072,-0.207 0.218,-0.288 0.235,-0.532 0.01,-0.19 -0.022,-0.396 -0.03,-0.588 0.003,-0.178 0.02,-0.374 0.12,-0.506 0.096,-0.134 0.191,-0.199 0.237,-0.382 0.06,-0.232 0.054,-0.473 0.248,-0.631 0.149,-0.118 0.429,-0.152 0.6,-0.089 0.152,0.058 0.309,0.363 0.383,0.53 0.095,0.217 0.154,0.501 0.287,0.697 0.21,0.329 0.742,0.314 1.071,0.255 C -1.364,0.185 -1.166,0.13 -0.983,0.117 -0.82,0.106 0,0 0,0" /></g><g
           transform="translate(19.4482,22.147)"
           id="g64"><path
             id="path66"
             style="fill:#1d81a4;fill-opacity:1;fill-rule:nonzero;stroke:none"
             d="m 0,0 c 0,0 0.795,-2.445 1.654,-4.604 0.867,-2.151 0.716,-1.692 2.075,-4.593 1.364,-2.903 2.022,-7.527 2.043,-8.163 0.029,-0.644 -0.471,-0.587 -0.918,0.212 -0.447,0.804 -0.443,4.615 -1.33,7.185 -0.894,2.562 -1.498,3.448 -2.131,5.405 -0.638,1.969 -1.726,5.389 -1.726,5.389 L 0,0 Z" /></g></g></g></g></svg>