<svg xmlns="http://www.w3.org/2000/svg" viewBox="0 0 54.705734 54.710266" height="54.7" width="54.7"><defs><clipPath id="a"><path d="M0 41h41V0H0v41z"/></clipPath><clipPath id="b"><path d="M15.3 32.5c.2-1 2.2-1 3-2.2 1-1.3-3.3-1.7-2.5-3.5.8-1.8 4.8-.7 5.5-2.8.6-2-10-1.4-8.4-4 1.4-2.4 10-1.8 11.6-4 1.3-2-1.5-5-5-6-4.5-.8-7.7 0-9.5 0-2.5.5-5 1.4-7.5 2.6C0 12.2 11.7.8 21 .8c10 0 14.3 7 17.3 11.4-2-.4-7-3.5-8.6-2.4-2 1.3 3 4 2.5 7.5-.3 2.6-4 2.4-7 2.3-2 0-3.8-.2-4.4.4-1.5 1.4 2 1 3 4 1 2.6-4 2.3-5.4 2.8-1.4.6 1.7 2 1.7 3.3 0 1.5-.3 1.4-2.6 2.4-1.8.8 1 3 .7 4v.3c-.7 0-2.8-3.2-2.7-4.2"/></clipPath><linearGradient id="c" gradientTransform="matrix(36.15984 0 0 -36.15984 2.168 18.73)" gradientUnits="userSpaceOnUse" x2="1"><stop offset="0" stop-color="#bcd8e4"/><stop offset=".3" stop-color="#a2c6d8"/><stop offset=".6" stop-color="#93bbcf"/><stop offset=".8" stop-color="#71a5c0"/><stop offset=".9" stop-color="#5998b7"/><stop offset="1" stop-color="#5998b7"/></linearGradient><clipPath id="d"><path d="M0 41h41V0H0v41z"/></clipPath></defs><g clip-path="url(#a)" transform="matrix(1.33333 0 0 -1.33333 0 54.71)"><path d="M39.6 21.2c0-10.4-8.5-19-19-19C10.4 2.3 2 11 2 21.3s8.5 19 19 19c10.3 0 18.8-8.6 18.8-19" fill="#fff"/></g><g clip-path="url(#b)" transform="matrix(1.33333 0 0 -1.33333 0 54.71)"><path d="M15.3 32.5c.2-1 2.2-1 3-2.2 1-1.3-3.3-1.7-2.5-3.5.8-1.8 4.8-.7 5.5-2.8.6-2-10-1.4-8.4-4 1.4-2.4 10-1.8 11.6-4 1.3-2-1.5-5-5-6-4.5-.8-7.7 0-9.5 0-2.5.5-5 1.4-7.5 2.6C0 12.2 11.7.8 21 .8c10 0 14.3 7 17.3 11.4-2-.4-7-3.5-8.6-2.4-2 1.3 3 4 2.5 7.5-.3 2.6-4 2.4-7 2.3-2 0-3.8-.2-4.4.4-1.5 1.4 2 1 3 4 1 2.6-4 2.3-5.4 2.8-1.4.6 1.7 2 1.7 3.3 0 1.5-.3 1.4-2.6 2.4-1.8.8 1 3 .7 4v.3c-.7 0-2.8-3.2-2.7-4.2" fill="url(#c)"/></g><g clip-path="url(#d)" transform="matrix(1.33333 0 0 -1.33333 0 54.71)"><path d="M20.5 39c-10 0-18.3-8.4-18.3-18.5 0-10 8.2-18.3 18.3-18.3 10 0 18.4 8.2 18.4 18.3 0 10-8.4 18.4-18.5 18.4m0-39C9.2 0 0 9.2 0 20.5S9.2 41 20.5 41 41 31.8 41 20.5 31.8 0 20.5 0" fill="#737577"/></g></svg>