<svg xmlns="http://www.w3.org/2000/svg" viewBox="0 0 54.705734 54.710266" height="54.7" width="54.7"><defs><clipPath id="a"><path d="M0 41h41V0H0v41z"/></clipPath></defs><g clip-path="url(#a)" transform="matrix(1.33333 0 0 -1.33333 0 54.71)"><path d="M35.2 7.6C31.6 3.6 26.4 1 20.6 1c-7 0-13 3.6-16.5 9-1.7 3 6-1.2 16.8-1.2 10.7 0 17.4 2.2 14.4-1.2" fill="#a2c5d7"/><path d="M20.5 39c-10 0-18.3-8.4-18.3-18.5 0-10 8.2-18.3 18.3-18.3 10 0 18.4 8.2 18.4 18.3 0 10-8.4 18.4-18.5 18.4m0-39C9.2 0 0 9.2 0 20.5S9.2 41 20.5 41 41 31.8 41 20.5 31.8 0 20.5 0" fill="#737577"/><path d="M4.3 22l.2-.2s0-.2.2-.2c.2-.2.4-.2.7-.2h1.3c1-.2 2-.4 2.7-.8h.4c.2 0 .3 0 .4.2h1c.4 0 .7-.2 1 0 .2 0 .4 0 .3.3 0 .3-.3.3-.4.3-.4.2-.7 0-1 0 0 .4.6.8 1 .8-.3.4-1 .6-1.2.6h-2l-1 .2h-.5l-.4-.4c-.3 0-.7-.3-1-.2-.2.2-.3.5-.7.5H5l-.7-.7" fill="#1d81a4"/><path d="M8.2 21s1.4-.3 1.7-.6c.3-.3 2.4-3 4-4.5 1.3-1.7 3.3-4.5 4-7.3.4-1.2.6-2.6.7-3 0-.2.2-.3.4-.3.3 0 .4 0 .4.5 0 .3-1.3 4.4-2 6-.8 1.3-3 4-4.2 5.3-1 1.2-2.8 2.8-3.2 3-.4.4-1.8.7-1.8.7M34.2 24.6v-.2c-.2 0-.2-.2-.3-.3-.3 0-.4-.2-.6-.3-.5 0-1-.2-1.4-.4-.8-.4-1.6-.8-2.3-1.4 0-.2-.3-.3-.4-.4 0 0-.3 0-.5.2-.3 0-.7 0-1-.3-.3-.2-.5-.3-1-.3 0 0-.3 0-.3.2s.3.3.4.4c.3.3.6.3 1 .3 0 .5-.8.6-1.2.5.2.4.7.8 1 1 .3 0 1 0 1.2.3l.6.2c.4 0 .7.3 1 .4h1c.3-.2.7-.3 1 0 .2.2.2.5.6.6h.5l.7-.4" fill="#1d81a4"/><path d="M30.7 22.6l-1.5-1-2.5-5.6c-1-1.8-2-5-2-8l.2-3c-.2-.3-.2-.4-.4-.4s-.3 0-.5.3c0 .2.2 4.6.5 6.2.3 1.6 1.8 5 2.5 6.4l2 4 1.7 1M20 24.8v.4c-.3 0-.4.2-.6.3-.3.3 0 .6 0 1V28c0 .4 0 .8.3 1.2l.6 1.3.7 1.5c.3.6.7 1 1 1.4.2 0 .4.3.5.4l.2.4c0-.4.4-.4.7-.6.4 0 .6-.6.8-1 0-.5.3-1 .5-1.3l.5-1.5v-.5c0-.2 0-.4-.2-.5l-.3-.7v-.5c0-.2-.2-.4 0-.6V26s.2-.4 0-.5v-.5c0-.2 0-.5-.2-.7 0-.2-.4-.3-.6-.2-.3 0-.5.3-.6.4l-.5.7c-.4.3-1 .2-1.3 0l-.6-.2-1-.4" fill="#1d81a4"/><path d="M22.8 33.2V28L21 14.7 20 4.6c.3-.7.8-.4 1 .5l.5 9c0 3 1.4 11.8 1.4 14l-.2 5.2zM17 22.2c.2 0 .2.3.3.4l.3.3c.3.2 0 .5 0 .8 0 .4 0 1-.2 1.3 0 .5 0 1-.3 1.3 0 .4-.3.8-.6 1l-.7 1.5-1 1.2c-.3 0-.4.2-.5.3l-.3.4c0-.4-.4-.5-.6-.6-.4 0-.5-.6-.6-1 0-.4-.3-.7-.4-1 0-.6-.3-1-.4-1.5V26l.3-.4.3-.6v-.6c0-.2.3-.3.2-.6v-.5-.6-.4c0-.2 0-.4.3-.6.2-.2.5-.2.6-.2.2 0 .4.3.5.5l.5.6c.3.3.8.2 1 0h.6l1-.4" fill="#1d81a4"/><path d="M13.7 29.6s.4-2.5 1-4.8c.4-2.2 1.7-8.5 2.6-11.6 1-3 .8-7.7.7-8.4 0-.6-.6-.5-1 .4-.2 1 .4 4.6 0 7.3-.5 2.7-2.4 10.4-2.7 12.4l-.6 4.6M23.3 16.4v.4c.2 0 .3.2.4.3.2.4 0 .7 0 1l-.6 1.3c0 .4 0 .8-.3 1-.3.4-.6.8-1 1-.2.5-.5 1-1 1.3-.2.5-.7.8-1 1-.3 0-.4.2-.6.3 0 0 0 .2-.2.3.2-.5-.2-.6-.5-.7-.3-.2-.3-.7-.4-1.2l-.2-1.2-.2-1.4v-.5l.4-.4.4-.6c0-.2 0-.4.2-.5 0-.4.2-.4.2-.7v-.6-.5c.2 0 .3-.2.3-.4l.4-.6h.6l.4.5c0 .2 0 .5.3.6.2.4.7.4 1 .3h.6l1-.2" fill="#1d81a4"/><path d="M19.4 22l1.7-4.5 2.2-4.6c1.3-3 2-7.6 2-8.2 0-.7-.5-.6-1 .2-.3.8-.3 4.6-1.2 7.2-1 2.5-1.5 3.4-2.2 5.4L19 23l.4-1z" fill="#1d81a4"/></g></svg>