<svg xmlns="http://www.w3.org/2000/svg" viewBox="0 0 54.705734 54.710266" height="54.71" width="54.71"><defs><clipPath id="a"><path d="M0 41.03h41.03V0H0v41.03z"/></clipPath><clipPath id="b"><path d="M22 9.12c-.06-.13-.12-.3-.13-.4 0-.1.14-.36.23-.87.1-.5.2-1.26.27-1.36.06-.1.13-.1.3-.2.07-.04.12-.14.22-.18.08-.04.4-.15.37-.08-.05.08-.48.3-.34.3.15 0 .14-.02.33-.05.18-.05.74-.12.7-.06-.02.05-.64.2-.8.24-.18.04-.2.03-.4.17-.16.15-.42 1.6-.4 1.7 0 .1.02.1.03.22 0 .1-.02.1-.06.2-.04.1.04.47.04.47l-.1.27-.17.02s-.04-.27-.1-.4"/></clipPath><clipPath id="c"><path d="M0 41.03h41.03V0H0v41.03z"/></clipPath><clipPath id="d"><path d="M21.1 9.43s-.04-.18-.15-.3c-.1-.1-.28-.18-.34-.3v.02c-.05-.12-.07-.27-.12-.5-.06-.23-.25-.72-.4-1.02-.14-.3-.28-.43-.3-.58-.04-.15-.06-.38 0-.4.05-.05.15-.07.2-.08 0 0 .02.04.02.1 0 .04.02.1.05.07.05-.03.08-.17.17-.28.1-.1.22-.07.42-.13.2-.07.33-.08.38-.05.04.03-.55.26-.53.32 0 .06.12.03.25.07.13.03.16.05.3.05h-.02c.12 0 .2 0 .26.03.07.02.16.05.15.1-.02.06-.12.08-.23.07-.1 0-.37-.1-.6-.08-.2 0-.27 0-.3.05-.05.04-.04.1-.06.2-.02.06.07.46.2.7l.33.75c.02.05.1.06.15.12.05.06.05.2.1.36.08.15.25.35.25.35l.06.48-.25-.13z"/></clipPath><clipPath id="e"><path d="M0 41.03h41.03V0H0v41.03z"/></clipPath><clipPath id="f"><path d="M22.3 9.8l-.27-.3c0-.02.03 0 .04 0 .02 0 .04 0 .05-.02.03 0 .05-.04.08-.06 0 0 .02 0 .03-.02v-.07l.08-.08c.03-.05.02-.18.08-.1.05.1.08.18.13.25.04.06.08.1.13.12.07.03.16.03.23.07.1.03.2.07.3.14l.1.2-.95-.14z"/></clipPath><clipPath id="g"><path d="M0 41.03h41.03V0H0v41.03z"/></clipPath><clipPath id="h"><path d="M22.56 12.17L17.32 11h-.16.02c-.04 0-.13 0-.16-.03-.05-.04.2-.13.2-.2h-.14c-.05-.02-.1 0-.16-.02l-.14-.06-.1-.1.7.07 1.05-.27s.28-.1.34-.14c-.02-.1.05-.1.1-.1l.14-.06c.06 0 .1 0 .14-.03v-.04c.08-.03.17-.02.25-.04l.2-.17c.06-.08.14-.1.23-.06.05 0 .1.03.15.04.05.02.1.03.17.03.08 0 .16-.03.23-.04l.2-.07.33-.1c.05-.03.18-.07.2-.14 0-.05-.03-.07-.05-.1l-.03-.1.07.04c.02.05.13.12.2.14l-.02-.12c.06 0-.02-.1-.02-.15 0-.03 0-.08-.02-.13h.04c0-.05-.03-.1-.04-.12v-.12c.02.08.06.13.1.2.06.05.1.12.15.17.07.06.17.08.26.12 0-.04-.05-.07-.08-.1.05 0 .1.06.13.1l.14.1.17.1.22.12c.12.05.23.1.36.12l.5.07c.13.02.3.03.42.08.15.05.3.1.44.2.05.02.12.04.17.08.07.04.15.08.2.14.1.1.13.2.24.3.12.1.22.26.3.4.05.07.16.3.17.33v.1l-.23.86-.84.38-1.47-.5z"/></clipPath><clipPath id="i"><path d="M0 41.03h41.03V0H0v41.03z"/></clipPath><clipPath id="j"><path d="M25.24 15.07c-.24-.1-.38-.32-.52-.48-.15-.18-.5-.55-.6-.7-.1-.18-.1-.3-.14-.4-.04-.12-.64-.18-.97-.26-.33-.07-.38-.04-.82-.07-.77-.1-2.26-.82-2.55-.95-.3-.14-.58-.32-.58-.32l1.57.22 3.56.5.3-.15.2-.45.03-.04c.03 0 .04-.02.06-.03.03-.03 0-.06.02-.1 0-.05.05-.04.07-.1.02-.02 0-.07.02-.1.03-.05.06-.03.1-.05 0-.02 0-.04.02-.06 0-.02 0-.04.02-.07.02-.03 0-.17.1-.17 0 0 .54.68.67.9.12.2.17.5.15.7-.02.22-.04.38-.03.48.02.1.1.13.16.14.06.02.4-.02.4-.02l.14.5s-.14.16-.16.25c-.03.1.06.2 0 .38-.1.18-.32.4-.54.42-.15.02-.3.06-.43.06-.1 0-.17 0-.26-.03"/></clipPath><clipPath id="k"><path d="M0 41.03h41.03V0H0v41.03z"/></clipPath><clipPath id="l"><path d="M16.55 11v.02c-.04 0-.08-.04-.12-.05l-.17-.06c-.1-.03-.2-.05-.3-.1-.03 0-.23-.05-.2-.12.02-.07.2 0 .23 0 .2 0 .4-.02.62.03.12.03.24.03.36.03s.24.03.36.06l-.36.22H16.55"/></clipPath><clipPath id="m"><path d="M0 41.03h41.03V0H0v41.03z"/></clipPath><clipPath id="n"><path d="M16.8 11.33c-.1-.06-.3-.24-.2-.3.06-.04.3-.08.4-.1.1 0 1.16.2 1.16.2l-.1.24-.73.05s-.44-.04-.54-.1"/></clipPath><clipPath id="o"><path d="M0 41.03h41.03V0H0v41.03z"/></clipPath><clipPath id="p"><path d="M18.03 11.3s-.5-.1-.6-.16c-.12-.08-.26-.12-.2-.18h-.02c.06-.06.7-.1.88-.08.2 0 .66.15.66.15l.33.5-1.04-.24z"/></clipPath><clipPath id="q"><path d="M0 41.03h41.03V0H0v41.03z"/></clipPath><clipPath id="r"><path d="M18.36 11.8l-1.47-.16H16.65c-.04 0-.14-.05-.1-.1.07-.03.78-.27 1.23-.3.44-.05 2.54.52 2.54.52l.08.18-2.06-.13z"/></clipPath><clipPath id="s"><path d="M0 41.03h41.03V0H0v41.03z"/></clipPath><clipPath id="t"><path d="M21.7 12.92c-.46-.1-1.48-.6-1.73-.7-.25-.08-.47-.22-.64-.22l-.95.05c-.1 0-.16-.04-.17-.08 0-.03-.06-.06-.03-.1h.05c.03.02.07.03.1 0 .02-.07-.18-.16-.12-.18.06-.02.4-.1.56-.1.16 0 .54.1.67.13.13.04.35.03.52.06.17 0 .3.04.3.04s-1.26-.42-1.34-.46c-.07-.04-.16-.14-.16-.14l-.5-.62c-.06-.1 0-.1.07-.1l.28.1c.08 0 .14 0 .18-.06.04-.05-.13-.22-.04-.2.1.04 1.1.36 1.2.33.13-.05-.05-.1 0-.1.04 0 .65.26.74.27.04 0 .02-.02 0-.05-.03-.02-.05-.04-.03-.04h.1c.04 0 .04-.06.05-.08.03-.05.06-.04.08-.02h.05l.2-.1c.08-.04.13 0 .2.05.07.04.12 0 .18-.02.1-.03.15 0 .23.05.04.02.2.12.2.1.03-.04 0-.1 0-.13v-.1l.04.02c.02.02.03.04.05.03.04 0 0-.06.08-.05.02 0 .03.02.05.03h.07c.03 0 .05 0 .1.03 0 0 .02.03.05.03.02-.02 0-.06.02-.1.04.02.15.12.14 0 .04 0 .05.03.06.06 0 .03.02.07.06.06l.03-.03c0-.02.03-.03.05-.03.03-.02.05 0 .08 0l.12.17c.02.05 0 .16.08.13 0 .03.03.06.04.1 0 .03 0 .06.02.1.06-.06-.03-.2 0-.28.03 0 .06.02.08 0 0-.05-.02-.1-.04-.16 0-.06 0-.12-.02-.18 0-.04-.05-.14-.03-.17.02-.04.05-.03.07 0h.06c0-.04-.03-.1 0-.14.05-.03.13.02.17.05.02.03.06.04.1.06 0 .02.03.06.05.08l.2.18c.07.05.15.08.24.13.05.02.13.04.17.07.06.05.16.2.16.28-.06.03-.12-.03-.18-.03 0 .02.05.06.06.08.03.04.03.06.02.1v.03l.02.06c.02.02.05.06.05.1-.12.02.03.17.04.23-.02 0-.06 0-.1-.03-.03-.02-.07-.05-.08-.02-.03.03.02.06.03.08.02.03.03.08.03.1h-.06c0 .03.03.22-.04.22 0-.04-.04-.07-.06-.1 0-.04-.04-.1-.08-.1 0 .05-.02.13 0 .17h-.03-.02-.02c-.03 0-.04-.1-.1-.07-.04.02-.04.05-.06.08-.03.03-.05.03-.06.06-.04-.02-.04.02-.06.04h-.07c-.02 0-.03-.03-.07-.02-.03 0-.05.03-.08.05h-.18c-.07.03-.14.02-.2.05.03.03.1.04.15.06l.17.06h.12c.05 0 .1.03.14.05.08.03.16.06.25.05.05 0 .1-.02.14 0 .04 0 .08.02.12.04.03 0 .1 0 .12.03.03.05-.04.08 0 .12.1.06.13-.2.14-.23 0-.02.02-.03.03-.04.02-.03.03-.02.05-.03.05-.03.08-.07.1-.1.06-.08.05-.2.17-.2 0 .07-.1.17-.06.23l.06-.07c0-.03.05-.06.04-.08 0 0 .04-.03.05-.02.03.02 0 .05 0 .07 0 .04-.04.12 0 .15 0 .02 0 .04-.02.07 0 .05-.03.1-.07.14-.12.14-.28.25-.44.35-.14.1-.28.16-.44.2-.05.03-.12.05-.17.06-.02.02-.18.04-.5.06h-.14c-.34 0-.85-.04-1.25-.14"/></clipPath><clipPath id="u"><path d="M0 41.03h41.03V0H0v41.03z"/></clipPath><clipPath id="v"><path d="M26.48 13.9c-.06-.02-.24-.07-.2-.1.02-.03.1-.07.1-.07s.1-.1.06-.16c-.04-.06-.17-.05-.12-.06.05 0 .18-.1.36-.24.18-.15.32-.3.76-.6.44-.32 1.25-.82 1.32-.82.07 0 .05.06.05.06s.07-.02.08.02c0 .03-.1.15-.24.28-.12.14-.46.46-.75.72-.3.25-.63.54-.85.68-.2.14-.47.48-.5.5-.04 0 0-.17-.07-.2"/></clipPath><clipPath id="w"><path d="M0 41.03h41.03V0H0v41.03z"/></clipPath><clipPath id="x"><path d="M26.37 13.8c.03 0 .05 0 .1-.03.15-.1.43-.42.62-.57.17-.16 1.56-1.22 1.64-1.27.08-.05.08-.05.07-.03l-.54.43c-.17.13-1.1.84-1.4 1.13-.17.15-.34.34-.37.36h-.13"/></clipPath><clipPath id="y"><path d="M0 41.03h41.03V0H0v41.03z"/></clipPath><clipPath id="z"><path d="M25.82 14.47c0-.1.1-.2.2-.22.1-.02.27.07.3.13 0 .07-.04.23-.18.26h-.04c-.13 0-.27-.1-.28-.17"/></clipPath><clipPath id="A"><path d="M0 41.03h41.03V0H0v41.03z"/></clipPath><clipPath id="B"><path d="M5.08 28.68h4V26h-4v2.68z"/></clipPath><clipPath id="C"><path d="M5.53 28.2h3.3v-1.75h-3.3v1.76z"/></clipPath><clipPath id="D"><path d="M12.16 26.63h3.25V24.1h-3.24v2.53z"/></clipPath><clipPath id="E"><path d="M10.58 25.47h2.1v-1.7h-2.1v1.7z"/></clipPath><clipPath id="F"><path d="M9.44 25.5h1.1v-.63h-1.1v.63z"/></clipPath><clipPath id="G"><path d="M6.15 25.43h2.98v-2H6.15v2z"/></clipPath><clipPath id="H"><path d="M6.5 25.08h2.45v-1.3H6.5v1.3z"/></clipPath><clipPath id="I"><path d="M9.82 28.54h1.68v-1.76H9.82v1.76z"/></clipPath><clipPath id="J"><path d="M10.9 28.27h.47v-.94h-.46v.94z"/></clipPath><clipPath id="K"><path d="M8.74 27.52h1.42v-.98H8.74v.98z"/></clipPath><clipPath id="L"><path d="M9.98 27.1h1.5v-.7h-1.5v.7z"/></clipPath><clipPath id="M"><path d="M10.5 27.48h.36v-.38h-.35v.38z"/></clipPath><clipPath id="N"><path d="M11.47 27h.46v-.7h-.46v.7z"/></clipPath><clipPath id="O"><path d="M11.05 26.6h.5v-.4h-.5v.4z"/></clipPath><clipPath id="P"><path d="M11.04 27.95h2.54v-1.5h-2.54v1.5z"/></clipPath><clipPath id="Q"><path d="M12.3 24.12h1.18v-.75H12.3v.75z"/></clipPath><clipPath id="R"><path d="M13.24 24.45h2.94V22.7h-2.94v1.75z"/></clipPath><clipPath id="S"><path d="M13.4 24.6h2.2v-1.43h-2.2v1.43z"/></clipPath><clipPath id="T"><path d="M14.05 25.66h.73v-.45h-.73v.46z"/></clipPath><clipPath id="U"><path d="M12.3 25.37h1.58v-1.04h-1.6v1.04z"/></clipPath><clipPath id="V"><path d="M13.52 25.53h1.68v-1.08h-1.68v1.08z"/></clipPath><clipPath id="W"><path d="M10.12 26.48h.68v-.55h-.68v.55z"/></clipPath><clipPath id="X"><path d="M11.94 29.5h4.36v-3.38h-4.36v3.4z"/></clipPath><clipPath id="Y"><path d="M14.48 28.2h.97v-.6h-.97v.6z"/></clipPath><clipPath id="Z"><path d="M12.1 27.82h2.15v-1.4H12.1v1.4z"/></clipPath><clipPath id="aa"><path d="M13.76 28.03H16v-1.45h-2.24v1.45z"/></clipPath><clipPath id="ab"><path d="M9.66 28.78h1.2v-.7h-1.2v.7z"/></clipPath><clipPath id="ac"><path d="M8.63 32.1h1.84v-1.92H8.62v1.92z"/></clipPath><clipPath id="ad"><path d="M8.76 31.8h.52V30.8h-.52v1.03z"/></clipPath><clipPath id="ae"><path d="M10.1 30.98h1.55V29.9H10.1V31z"/></clipPath><clipPath id="af"><path d="M8.66 30.54h1.63v-.77H8.65v.77z"/></clipPath><clipPath id="ag"><path d="M9.32 30.94h.4v-.4h-.4v.4z"/></clipPath><clipPath id="ah"><path d="M8.16 30.42h.5v-.76h-.5v.76z"/></clipPath><clipPath id="ai"><path d="M8.57 29.98h.54v-.43h-.53v.43z"/></clipPath><clipPath id="aj"><path d="M9.4 29.84h.73v-.6H9.4v.6z"/></clipPath><clipPath id="ak"><path d="M7.63 26.23h4.1v-3.18h-4.1v3.18z"/></clipPath><clipPath id="al"><path d="M4.25 24.27H8v-2.5H4.25v2.5z"/></clipPath><clipPath id="am"><path d="M4.48 23.83h3.1v-1.65h-3.1v1.65z"/></clipPath><clipPath id="an"><path d="M13.9 22.73h2.12v-2.2H13.9v2.2z"/></clipPath><clipPath id="ao"><path d="M14.06 22.04h.6v-1.2h-.6v1.2z"/></clipPath><clipPath id="ap"><path d="M14.7 22.32h.45v-.47h-.45v.47z"/></clipPath><clipPath id="aq"><path d="M11.3 23.13h3.2v-1.87h-3.2v1.87z"/></clipPath><clipPath id="ar"><path d="M11.75 29.3h1.5v-.94h-1.5v.94z"/></clipPath><clipPath id="as"><path d="M8.35 29.7h3.7v-2.2h-3.7v2.2z"/></clipPath><clipPath id="at"><path d="M9.1 29.9h2.76v-1.8H9.1v1.8z"/></clipPath><clipPath id="au"><path d="M8.36 22.53h.9v-.57h-.9v.57z"/></clipPath><clipPath id="av"><path d="M9.5 22.16h2v-1.3h-2v1.3z"/></clipPath><clipPath id="aw"><path d="M7.83 22.36h2.12V21H7.83v1.36z"/></clipPath><clipPath id="ax"><path d="M21.5 20.55h3.47v-1H21.5v1z"/></clipPath><clipPath id="ay"><path d="M32.45 23.08H34v-1.2h-1.55v1.2z"/></clipPath><clipPath id="az"><path d="M23.93 22.2h2.32v-1.42h-2.32v1.42z"/></clipPath><clipPath id="aA"><path d="M21.2 21.63h6.04v-3.85H21.2v3.85z"/></clipPath><clipPath id="aB"><path d="M19.24 23.38h2.7v-1.93h-2.7v1.93z"/></clipPath><clipPath id="aC"><path d="M25.84 27.76h6.93v-1.98h-6.93v1.98z"/></clipPath><clipPath id="aD"><path d="M21.32 27.77h5.47v-3.95H21.3v3.95z"/></clipPath><clipPath id="aE"><path d="M31.53 21.47h4.05v-2.13h-4.05v2.13z"/></clipPath><clipPath id="aF"><path d="M27.52 26.62h1.8v-1.37h-1.8v1.37z"/></clipPath><clipPath id="aG"><path d="M25.96 26.4h1.8v-.96h-1.8v.97z"/></clipPath><clipPath id="aH"><path d="M31.2 27.2h2.23v-1.84H31.2v1.85z"/></clipPath><clipPath id="aI"><path d="M33.7 23.32h2.22v-1.3H33.7v1.3z"/></clipPath><clipPath id="aJ"><path d="M31.1 23.03h2.04v-1H31.1v1z"/></clipPath><clipPath id="aK"><path d="M30.8 20.2h2.62v-.98H30.8v.97z"/></clipPath><clipPath id="aL"><path d="M28.67 24.18h4.4V22.6h-4.4v1.58z"/></clipPath><clipPath id="aM"><path d="M27.55 26.33h5.32v-2.68h-5.32v2.68z"/></clipPath><clipPath id="aN"><path d="M25.47 22.18h1.9V19.8h-1.9v2.38z"/></clipPath><clipPath id="aO"><path d="M23.4 24.28h3.38v-1.92H23.4v1.92z"/></clipPath><clipPath id="aP"><path d="M18.27 25.85h5V22.4h-5v3.45z"/></clipPath><clipPath id="aQ"><path d="M24.86 24.42h5.56v-3.68h-5.56v3.68z"/></clipPath><clipPath id="aR"><path d="M22.45 24.6h2.72v-2.2h-2.72v2.2z"/></clipPath><clipPath id="aS"><path d="M29.14 21.23h1.1v-2.1h-1.1v2.1z"/></clipPath><clipPath id="aT"><path d="M28.4 25.74h1.8V24.1h-1.8v1.64z"/></clipPath><clipPath id="aU"><path d="M32.06 24.74h3.42V21.7h-3.42v3.04z"/></clipPath><clipPath id="aV"><path d="M21.77 26.41l2.46.02V24.6h-2.46v1.8z"/></clipPath><clipPath id="aW"><path d="M22.7 25.5h.73v-.77h-.74v.78z"/></clipPath><clipPath id="aX"><path d="M30.33 21.96h2.55V20.1h-2.55v1.86z"/></clipPath><clipPath id="aY"><path d="M31.92 26.24h3.02v-1.97h-3.02v1.97z"/></clipPath></defs><g clip-path="url(#a)" transform="matrix(1.33333 0 0 -1.33333 0 54.71)"><path d="M39.6 21.2c0-10.44-8.47-18.9-18.9-18.9-10.43 0-18.9 8.46-18.9 18.9 0 10.44 8.47 18.9 18.9 18.9 10.43 0 18.9-8.46 18.9-18.9" fill="#fff"/><path d="M39.5 12.95C35.37 8.28 30.93.5 19.38 1.25 7.43 2.02 1.8 14.83 1.8 14.83c5.63-2.56 13.33 3.9 21.9 3.75 7.85-.13 10.63-6.03 15.8-5.63" fill="#bcd8e4"/><path d="M22.1 9.52s-.04-.27-.1-.4c-.06-.13-.12-.3-.13-.4 0-.1.14-.36.23-.87.1-.5.2-1.26.27-1.36.06-.1.14-.1.3-.18.07-.06.12-.16.22-.2.08-.04.4-.14.37-.08-.05.08-.5.3-.34.3.15 0 .14-.02.33-.05.18-.05.73-.12.7-.06 0 .05-.64.2-.8.24-.18.04-.2.03-.4.17-.16.15-.42 1.6-.4 1.7 0 .1.02.1.03.22 0 .1-.02.1-.06.2-.04.1.04.47.04.47l-.1.27-.17.02z" fill="#408cad"/></g><g clip-path="url(#b)" transform="matrix(1.33333 0 0 -1.33333 0 54.71)"><path d="M21.4 6.36l2.53-.5.65 3.2-2.55.5-.64-3.2z" fill="#408cad"/></g><g clip-path="url(#c)" transform="matrix(1.33333 0 0 -1.33333 0 54.71)"><path d="M22.1 9.52s-.04-.27-.1-.4c-.06-.13-.12-.3-.13-.4 0-.1.14-.36.23-.87.1-.5.2-1.26.27-1.36.06-.1.14-.1.3-.18.07-.06.12-.16.22-.2.08-.04.4-.14.37-.08-.05.08-.5.3-.34.3.15 0 .14-.02.33-.05.18-.05.73-.12.7-.06 0 .05-.64.2-.8.24-.18.04-.2.03-.4.17-.16.15-.42 1.6-.4 1.7 0 .1.02.1.03.22 0 .1-.02.1-.06.2-.04.1.04.47.04.47l-.1.27-.17.02zM21.1 9.43s-.04-.18-.15-.3c-.1-.1-.28-.18-.34-.28-.05-.12-.06-.27-.12-.5-.06-.23-.25-.72-.4-1.02-.14-.3-.28-.43-.3-.58-.04-.15-.05-.38 0-.4.05-.05.14-.07.2-.08.04 0 0 .2.06.17s.1-.17.17-.28c.1-.1.24-.07.44-.13s.33-.08.38-.05c.04.03-.55.26-.53.32 0 .06.12.03.25.07.13.03.16.05.28.05.12 0 .2 0 .26.03.07.02.16.05.15.1-.02.06-.12.08-.23.07-.1 0-.37-.1-.6-.08-.2 0-.26 0-.3.05-.05.04-.04.1-.06.2-.02.06.07.46.2.7l.33.75c.02.06.1.06.15.12.05.06.05.2.1.36.08.14.25.35.25.35l.06.48-.25-.13z" fill="#408cad"/></g><g clip-path="url(#d)" transform="matrix(1.33333 0 0 -1.33333 0 54.71)"><path d="M20.38 9.76l-.73-3.57 1.68-.35.72 3.57-1.67.34z" fill="#408cad"/></g><g clip-path="url(#e)" transform="matrix(1.33333 0 0 -1.33333 0 54.71)"><path d="M21.1 9.43s-.04-.18-.15-.3c-.1-.1-.28-.18-.34-.28-.05-.12-.06-.27-.12-.5-.06-.23-.25-.72-.4-1.02-.14-.3-.28-.43-.3-.58-.04-.15-.05-.38 0-.4.05-.05.14-.07.2-.08.04 0 0 .2.06.17s.1-.17.17-.28c.1-.1.24-.07.44-.13s.33-.08.38-.05c.04.03-.55.26-.53.32 0 .06.12.03.25.07.13.03.16.05.28.05.12 0 .2 0 .26.03.07.02.16.05.15.1-.02.06-.12.08-.23.07-.1 0-.37-.1-.6-.08-.2 0-.26 0-.3.05-.05.04-.04.1-.06.2-.02.06.07.46.2.7l.33.75c.02.06.1.06.15.12.05.06.05.2.1.36.08.14.25.35.25.35l.06.48-.25-.13zM22.03 9.5c.03-.02.06 0 .1-.02.02 0 .04-.04.07-.06 0 0 .02 0 .03-.02v-.07l.08-.08c.03-.05.02-.18.08-.1.05.1.08.18.13.25.04.06.07.1.13.12.07.03.16.03.23.07.1.03.2.07.3.14l.1.2-.95-.14-.27-.3z" fill="#408cad"/></g><g clip-path="url(#f)" transform="matrix(1.33333 0 0 -1.33333 0 54.71)"><path d="M21.96 9.14l1.1-.22.2 1-1.1.23-.2-1z" fill="#408cad"/></g><g clip-path="url(#g)" transform="matrix(1.33333 0 0 -1.33333 0 54.71)"><path d="M22.03 9.5c.03-.02.06 0 .1-.02.02 0 .04-.04.07-.06 0 0 .02 0 .03-.02v-.07l.08-.08c.03-.05.02-.18.08-.1.05.1.08.18.13.25.04.06.07.1.13.12.07.03.16.03.23.07.1.03.2.07.3.14l.1.2-.95-.14-.27-.3z" fill="#408cad"/><path d="M18.43 10.4l-1.04.27-.73-.06c.04.03.08.06.1.1.06 0 .1.03.15.05h.16c.05.02.1 0 .15.03-.02.06-.26.15-.2.2 0 .02.1 0 .14.02H17.32l5.24 1.17 1.47.5.84-.36.24-.86v-.1c0-.03-.1-.25-.16-.33-.08-.12-.18-.3-.3-.38-.1-.1-.14-.2-.24-.3-.05-.06-.13-.1-.2-.14-.04-.04-.1-.06-.16-.1-.14-.07-.3-.13-.43-.17-.13-.04-.3-.05-.43-.07-.16-.04-.32-.05-.5-.07-.12-.03-.23-.07-.35-.12l-.2-.12c-.07-.03-.13-.06-.18-.1l-.13-.1c-.03-.04-.07-.1-.12-.1.03.03.08.06.08.1-.1-.04-.2-.06-.27-.12-.06-.05-.1-.12-.15-.18-.05-.06-.1-.1-.12-.2v.13c.02.03.05.07.05.1l-.04.02c0 .05 0 .1.02.14 0 .05.08.15.02.16 0 .04.03.1 0 .12-.05-.02-.16-.08-.2-.14l-.06-.04.04.1c0 .03.04.05.04.1-.02.06-.15.1-.2.12l-.3.1c-.08.04-.15.05-.22.07-.07 0-.15.03-.23.03-.06 0-.12 0-.17-.02-.06 0-.1-.02-.15-.03-.1-.03-.17-.02-.24.06-.07.06-.13.12-.2.15-.1.03-.18.02-.26.05v.04c-.04.02-.08.02-.13.03-.04 0-.07.04-.12.05-.06.02-.13.02-.1.1-.07.05-.35.15-.35.15z" fill="#408cad"/></g><g clip-path="url(#h)" transform="matrix(1.33333 0 0 -1.33333 0 54.71)"><path d="M16.5 9.8l7.96-1.62.86 4.24-7.96 1.6-.86-4.23z" fill="#408cad"/></g><g clip-path="url(#i)" transform="matrix(1.33333 0 0 -1.33333 0 54.71)"><path d="M18.43 10.4l-1.04.27-.73-.06c.04.03.08.06.1.1.06 0 .1.03.15.05h.16c.05.02.1 0 .15.03-.02.06-.26.15-.2.2 0 .02.1 0 .14.02H17.32l5.24 1.17 1.47.5.84-.36.24-.86v-.1c0-.03-.1-.25-.16-.33-.08-.12-.18-.3-.3-.38-.1-.1-.14-.2-.24-.3-.05-.06-.13-.1-.2-.14-.04-.04-.1-.06-.16-.1-.14-.07-.3-.13-.43-.17-.13-.04-.3-.05-.43-.07-.16-.04-.32-.05-.5-.07-.12-.03-.23-.07-.35-.12l-.2-.12c-.07-.03-.13-.06-.18-.1l-.13-.1c-.03-.04-.07-.1-.12-.1.03.03.08.06.08.1-.1-.04-.2-.06-.27-.12-.06-.05-.1-.12-.15-.18-.05-.06-.1-.1-.12-.2v.13c.02.03.05.07.05.1l-.04.02c0 .05 0 .1.02.14 0 .05.08.15.02.16 0 .04.03.1 0 .12-.05-.02-.16-.08-.2-.14l-.06-.04.04.1c0 .03.04.05.04.1-.02.06-.15.1-.2.12l-.3.1c-.08.04-.15.05-.22.07l-.23.03c-.06 0-.12 0-.17-.02-.06 0-.1-.02-.15-.03-.1-.03-.17-.02-.24.06-.07.06-.13.12-.2.15-.1.03-.18.02-.26.05v.04c-.04.02-.08.02-.13.03-.04 0-.07.04-.12.05-.06.02-.13.02-.1.1-.07.05-.35.15-.35.15z" fill="#408cad"/><path d="M24.68 12.02l.03-.04c.03 0 .04-.02.06-.03.03-.03 0-.06.02-.1 0-.05.05-.04.07-.1.02-.02 0-.07.02-.1.03-.05.06-.03.1-.05 0-.02 0-.04.02-.06 0-.02 0-.04.02-.07.02-.03 0-.17.1-.17 0 0 .54.68.67.9.12.2.17.5.15.7-.02.22-.04.38-.03.48.02.1.1.13.16.15l.4-.03.14.5s-.14.16-.16.25c-.03.1.06.2 0 .38-.1.18-.32.4-.54.42-.23.03-.43.1-.68.02-.25-.1-.38-.32-.52-.48-.15-.18-.5-.55-.6-.7-.08-.18-.1-.3-.14-.4-.04-.12-.64-.17-.97-.25-.33-.08-.38-.05-.82-.08-.77-.1-2.26-.82-2.56-.95-.3-.14-.57-.32-.57-.32l1.57.22 3.56.5.3-.15.2-.45z" fill="#408cad"/></g><g clip-path="url(#j)" transform="matrix(1.33333 0 0 -1.33333 0 54.71)"><path d="M19.16 10.1l7.9.48-.37 6.1-7.92-.48.38-6.1z" fill="#408cad"/></g><g clip-path="url(#k)" transform="matrix(1.33333 0 0 -1.33333 0 54.71)"><path d="M24.68 12.02l.03-.04c.03 0 .04-.02.06-.03.03-.03 0-.06.02-.1 0-.05.05-.04.07-.1.02-.02 0-.07.02-.1.03-.05.06-.03.1-.05 0-.02 0-.04.02-.06 0-.02 0-.04.02-.07.02-.03 0-.17.1-.17 0 0 .54.68.67.9.12.2.17.5.15.7-.02.22-.04.38-.03.48.02.1.1.13.16.15l.4-.03.14.5s-.14.16-.16.25c-.03.1.06.2 0 .38-.1.18-.32.4-.54.42-.23.03-.43.1-.68.02-.25-.1-.38-.32-.52-.48-.15-.18-.5-.55-.6-.7-.08-.18-.1-.3-.14-.4-.04-.12-.64-.17-.97-.25-.33-.08-.38-.05-.82-.08-.77-.1-2.26-.82-2.56-.95-.3-.14-.57-.32-.57-.32l1.57.22 3.56.5.3-.15.2-.45zM15.86 10.68c0-.05-.03-.08-.03-.13l.22-.07c.08-.02.15 0 .23.02l.3.1.15.03c.03 0 .08.02.1.05l.13.1-1.1-.1z" fill="#408cad"/><path d="M15.86 10.68c0-.05-.03-.08-.03-.13l.22-.07c.08-.02.15 0 .23.02l.3.1.15.03c.03 0 .08.02.1.05l.13.1-1.1-.1z" fill="#408cad"/><path d="M16.55 11.02c-.04 0-.08-.04-.12-.05l-.17-.06c-.1-.03-.2-.05-.3-.1-.03 0-.23-.05-.2-.12.02-.07.2 0 .23 0 .2 0 .4-.02.62.03.12.03.24.03.36.03s.24.03.36.06l-.36.22h-.43z" fill="#408cad"/></g><g clip-path="url(#l)" transform="matrix(1.33333 0 0 -1.33333 0 54.71)"><path d="M15.7 10.63l1.54-.3.13.6-1.54.32-.12-.62z" fill="#408cad"/></g><g clip-path="url(#m)" transform="matrix(1.33333 0 0 -1.33333 0 54.71)"><path d="M16.55 11.02c-.04 0-.08-.04-.12-.05l-.17-.06c-.1-.03-.2-.05-.3-.1-.03 0-.23-.05-.2-.12.02-.07.2 0 .23 0 .2 0 .4-.02.62.03.12.03.24.03.36.03s.24.03.36.06l-.36.22h-.43zM16.74 11.54s-.3 0-.46-.04c-.15-.03-.23-.05-.17-.12.07-.07.74-.17.74-.17l.45.24-.56.1z" fill="#408cad"/><path d="M16.74 11.54s-.3 0-.46-.04c-.15-.03-.23-.05-.17-.12.07-.07.74-.17.74-.17l.45.24-.56.1zM16.7 11.18s-.2 0-.35-.03c-.15-.04-.33-.1-.34-.15 0-.06.82 0 .82 0l-.13.18z" fill="#408cad"/><path d="M16.7 11.18s-.2 0-.35-.03c-.15-.04-.33-.1-.34-.15 0-.06.82 0 .82 0l-.13.18z" fill="#408cad"/><path d="M17.33 11.42s-.44-.04-.54-.1c-.1-.05-.3-.23-.2-.28.06-.05.3-.1.4-.1.1 0 1.16.2 1.16.2l-.1.23-.73.05z" fill="#408cad"/></g><g clip-path="url(#n)" transform="matrix(1.33333 0 0 -1.33333 0 54.71)"><path d="M16.5 11.02l1.57-.32.13.64-1.57.32-.13-.64z" fill="#408cad"/></g><g clip-path="url(#o)" transform="matrix(1.33333 0 0 -1.33333 0 54.71)"><path d="M17.33 11.42s-.44-.04-.54-.1c-.1-.05-.3-.23-.2-.28.06-.05.3-.1.4-.1.1 0 1.16.2 1.16.2l-.1.23-.73.05z" fill="#408cad"/><path d="M18.03 11.3s-.5-.1-.6-.16c-.12-.08-.26-.12-.2-.18.03-.06.66-.1.85-.08.2 0 .66.15.66.15l.33.5-1.04-.24z" fill="#408cad"/></g><g clip-path="url(#p)" transform="matrix(1.33333 0 0 -1.33333 0 54.71)"><path d="M17.15 10.93l1.73-.36.2.95-1.74.35-.2-.94z" fill="#408cad"/></g><g clip-path="url(#q)" transform="matrix(1.33333 0 0 -1.33333 0 54.71)"><path d="M18.03 11.3s-.5-.1-.6-.16c-.12-.08-.26-.12-.2-.18.03-.06.66-.1.85-.08.2 0 .66.15.66.15l.33.5-1.04-.24z" fill="#408cad"/><path d="M18.36 11.8l-1.47-.16h-.24c-.04 0-.14-.05-.1-.1.07-.03.78-.27 1.23-.3.44-.05 2.54.52 2.54.52l.08.17-2.06-.12z" fill="#408cad"/></g><g clip-path="url(#r)" transform="matrix(1.33333 0 0 -1.33333 0 54.71)"><path d="M16.5 11.45l3.67-.75.25 1.23-3.68.75-.25-1.23z" fill="#408cad"/></g><g clip-path="url(#s)" transform="matrix(1.33333 0 0 -1.33333 0 54.71)"><path d="M18.36 11.8l-1.47-.16h-.24c-.03 0-.14-.05-.1-.1.07-.03.78-.27 1.23-.3.44-.05 2.54.52 2.54.52l.08.17-2.06-.12z" fill="#408cad"/><path d="M19.9 10.6c-.03 0 .15.05.03.1-.1.02-1.12-.3-1.2-.33-.1-.03.07.14.03.2-.04.05-.1.05-.18.04-.06 0-.2-.05-.26-.07-.07-.02-.14 0-.07.1l.5.6s.08.1.16.15l1.34.46-.3-.05c-.16-.04-.38-.03-.5-.07-.14-.03-.52-.13-.67-.12-.16 0-.5.08-.57.1-.06 0 .14.1.1.17-.03.06-.1-.02-.13 0-.03.04.02.07.04.1.02.04.07.07.18.08l.95-.05c.17 0 .4.14.64.23.25.1 1.27.58 1.74.7.48.1 1.1.15 1.4.13.32-.02.48-.04.5-.05.06 0 .12-.02.18-.04.16-.05.3-.12.44-.2.16-.1.32-.22.44-.37.04-.05.06-.1.07-.15 0-.03 0-.05.02-.07-.04-.03 0-.1 0-.15 0-.02.03-.05 0-.06 0-.02-.04 0-.05 0 0 .03-.03.07-.04.1-.02 0-.03.04-.05.06-.02-.06.07-.16.07-.23-.12 0-.1.12-.16.2-.02.03-.05.07-.1.1-.02 0-.03 0-.05.03l-.03.04c0 .04-.05.3-.13.22-.06-.05 0-.08-.02-.13-.02-.03-.1-.02-.12-.03-.04 0-.08-.05-.12-.05-.05-.02-.1 0-.13 0-.08 0-.16-.02-.24-.05-.04-.02-.1-.05-.14-.05h-.13c-.06 0-.12-.04-.18-.06-.05-.02-.12-.03-.16-.06.07-.03.14-.02.2-.04h.2c.02-.03.04-.05.07-.06.03 0 .05 0 .08.02h.08c.02-.02.02-.07.06-.04 0-.03.03-.03.06-.05.02-.02.02-.05.05-.07.07-.04.08.06.1.08h.06c0-.05 0-.13.02-.18.04 0 .07.06.08.1l.06.1c.07 0 .05-.2.04-.23h.06c0-.02 0-.07-.03-.1 0-.02-.06-.05-.04-.08 0-.05.12.07.17.05 0-.06-.16-.2-.04-.24 0-.03-.03-.07-.05-.1l-.03-.05v-.03c.02-.04.02-.06 0-.1-.03-.02-.07-.06-.07-.1.06.02.12.08.18.05 0-.08-.1-.23-.17-.28l-.18-.07-.25-.13-.2-.18c0-.03-.03-.06-.05-.08l-.1-.05c-.03-.02-.1-.07-.15-.04-.04.03 0 .1 0 .14-.05.03-.1-.06-.14 0-.02.02.02.12.03.16 0 .06 0 .12.03.18 0 .06 0 .1.02.17-.02.02-.05 0-.07 0-.04.06.05.2 0 .26-.02-.03-.03-.06-.03-.1 0-.03-.03-.06-.03-.1-.1.04-.08-.07-.1-.12-.03-.04-.08-.13-.12-.16-.03-.02-.05-.03-.08 0h-.05l-.03.04c-.08 0-.05-.12-.1-.1 0 .1-.1 0-.15 0 0 .02 0 .06-.02.1-.03 0-.04-.03-.06-.04-.05-.03-.07-.03-.1-.03h-.07c-.02 0-.03-.03-.05-.03-.07 0-.04.05-.1.05-.02 0-.05-.06-.1-.06v.12c.02.03.05.1.03.12 0 .03-.16-.07-.2-.1-.07-.04-.14-.07-.22-.03-.07.04-.1.07-.18.03-.07-.04-.12-.1-.2-.06-.06.03-.14.1-.2.1-.03.04-.07-.05-.12.03 0 .02 0 .06-.05.07h-.1c-.05 0 .12.1.03.1-.1 0-.7-.28-.75-.28z" fill="#408cad"/></g><g clip-path="url(#t)" transform="matrix(1.33333 0 0 -1.33333 0 54.71)"><path d="M17.95 8.82l7.2.44-.32 5.16-7.2-.45.32-5.15z" fill="#408cad"/></g><g clip-path="url(#u)" transform="matrix(1.33333 0 0 -1.33333 0 54.71)"><path d="M19.9 10.6c-.03 0 .15.05.03.1-.1.02-1.12-.3-1.2-.33-.1-.03.07.14.03.2-.04.05-.1.05-.18.04-.06 0-.2-.05-.26-.07-.07-.02-.14 0-.07.1l.5.6s.08.1.16.15l1.34.46-.3-.05c-.16-.04-.38-.03-.5-.07-.14-.03-.52-.13-.67-.12-.16 0-.5.08-.57.1-.06 0 .14.1.1.17-.03.06-.1-.02-.13 0-.03.04.02.07.04.1.02.04.07.07.18.08l.95-.05c.17 0 .4.14.64.23.25.1 1.27.58 1.74.7.48.1 1.1.15 1.4.13.32-.02.48-.04.5-.05.06 0 .12-.02.18-.04.16-.05.3-.12.44-.2.16-.1.32-.22.44-.37.04-.05.06-.1.07-.15 0-.03 0-.05.02-.07-.04-.03 0-.1 0-.15 0-.02.03-.05 0-.06 0-.02-.04 0-.05 0 0 .03-.03.07-.04.1-.02 0-.03.04-.05.06-.02-.06.07-.16.07-.23-.12 0-.1.12-.16.2-.02.03-.05.07-.1.1-.02 0-.03 0-.05.03l-.03.04c0 .04-.05.3-.13.22-.06-.05 0-.08-.02-.13-.02-.03-.1-.02-.12-.03-.04 0-.08-.05-.12-.05-.05-.02-.1 0-.13 0-.08 0-.16-.02-.24-.05-.04-.02-.1-.05-.14-.05h-.13c-.06 0-.12-.04-.18-.06-.05-.02-.12-.03-.16-.06.07-.03.14-.02.2-.04h.2c.02-.03.04-.05.07-.06.03 0 .05 0 .08.02h.08c.02-.02.02-.07.06-.04 0-.03.03-.03.06-.05.02-.02.02-.05.05-.07.07-.04.08.06.1.08h.06c0-.05 0-.13.02-.18.04 0 .07.06.08.1l.06.1c.07 0 .05-.2.04-.23h.06c0-.02 0-.07-.03-.1 0-.02-.06-.05-.04-.08 0-.05.12.07.17.05 0-.06-.16-.2-.04-.24 0-.03-.03-.07-.05-.1l-.03-.05v-.03c.02-.04.02-.06 0-.1-.03-.02-.07-.06-.07-.1.06.02.12.08.18.05 0-.08-.1-.23-.17-.28l-.18-.07-.25-.13-.2-.18c0-.03-.03-.06-.05-.08l-.1-.05c-.03-.02-.1-.07-.15-.04-.04.03 0 .1 0 .14-.05.03-.1-.06-.14 0-.02.02.02.12.03.16 0 .06 0 .12.03.18 0 .06 0 .1.02.17-.02.02-.05 0-.07 0-.04.06.05.2 0 .26-.02-.03-.03-.06-.03-.1 0-.03-.03-.06-.03-.1-.1.04-.08-.07-.1-.12-.03-.04-.08-.13-.12-.16-.03-.02-.05-.03-.08 0h-.05l-.03.04c-.08 0-.05-.12-.1-.1 0 .1-.1 0-.15 0 0 .02 0 .06-.02.1-.03 0-.04-.03-.06-.04-.05-.03-.07-.03-.1-.03h-.07c-.02 0-.03-.03-.05-.03-.07 0-.04.05-.1.05-.02 0-.05-.06-.1-.06v.12c.02.03.05.1.03.12 0 .03-.16-.07-.2-.1-.07-.04-.14-.07-.22-.03-.07.04-.1.07-.18.03-.07-.04-.12-.1-.2-.06-.06.03-.14.1-.2.1-.03.04-.07-.05-.12.03 0 .02 0 .06-.05.07h-.1c-.05 0 .12.1.03.1-.1 0-.7-.28-.75-.28zM26.27 13.8c-.03.03.15.08.2.1.08.03.04.2.07.2.04-.02.3-.36.5-.5.23-.14.57-.43.85-.68l.74-.72c.14-.13.24-.25.24-.28 0-.04-.07-.02-.07-.02s.03-.06-.04-.06-.9.5-1.32.8c-.44.3-.58.47-.76.62-.18.16-.3.24-.36.25-.05.03.08 0 .12.07.04.07-.07.16-.07.16l-.1.07" fill="#408cad"/></g><g clip-path="url(#v)" transform="matrix(1.33333 0 0 -1.33333 0 54.71)"><path d="M25.27 13l2.6-2.3 2.02 2.28-2.6 2.3-2.03-2.3z" fill="#408cad"/></g><g clip-path="url(#w)" transform="matrix(1.33333 0 0 -1.33333 0 54.71)"><path d="M26.27 13.8c-.03.03.15.08.2.1.08.03.04.2.07.2.04-.02.3-.36.5-.5.23-.14.57-.43.85-.68l.74-.72c.14-.13.24-.25.24-.28 0-.04-.07-.02-.07-.02s.03-.06-.04-.06-.9.5-1.32.8c-.44.3-.58.47-.76.63-.18.15-.3.23-.36.24-.05.03.08 0 .12.07.04.07-.07.16-.07.16l-.1.07" fill="#408cad"/><path d="M26.7 13.75c-.1-.02 0-.1.03-.14.05-.02.1-.16.16-.1.03.08-.12.12-.17.2 0 0 0 .04-.03.05" fill="#408cad"/><path d="M26.7 13.75c-.1-.02 0-.1.03-.14.05-.02.1-.16.16-.1.03.08-.12.12-.17.2 0 0 0 .04-.03.05" fill="#408cad"/><path d="M26.37 13.8c-.04.03.1.04.12.02l.35-.36c.3-.3 1.25-1 1.4-1.13l.56-.43-.06.03c-.08.05-1.47 1.1-1.65 1.27-.2.15-.48.46-.63.57-.04.04-.07.02-.1.04" fill="#408cad"/></g><g clip-path="url(#x)" transform="matrix(1.33333 0 0 -1.33333 0 54.71)"><path d="M25.5 12.92l2.38-2.1 1.78 2-2.4 2.1-1.76-2z" fill="#408cad"/></g><g clip-path="url(#y)" transform="matrix(1.33333 0 0 -1.33333 0 54.71)"><path d="M25.82 14.47c0 .1.2.2.32.17.14-.03.18-.2.17-.26 0-.06-.17-.15-.27-.13-.1.02-.22.12-.2.22" fill="#408cad"/></g><g clip-path="url(#z)" transform="matrix(1.33333 0 0 -1.33333 0 54.71)"><path d="M25.97 14l.54.36-.35.54-.53-.36.35-.53z" fill="#408cad"/></g><g clip-path="url(#A)" transform="matrix(1.33333 0 0 -1.33333 0 54.71)"><path d="M25.82 14.47c0 .1.2.2.32.17.14-.03.18-.2.17-.26 0-.06-.17-.15-.27-.13-.1.02-.22.12-.2.22" fill="#408cad"/><path d="M25.9 14.47c0-.08.1-.13.16-.15.06 0 .17.05.18.1 0 .04-.05.14-.1.16-.08 0-.22-.02-.23-.1" fill="#408cad"/><path d="M25.9 14.47c0-.08.1-.13.16-.15.06 0 .17.05.18.1 0 .04-.05.14-.1.16-.08 0-.22-.02-.23-.1" fill="#408cad"/><path d="M26.06 14.5c-.03 0-.04-.03-.03-.06 0-.02.02-.06.05-.07.03 0 .06.04.06.06 0 .05-.02.08-.04.1l-.04-.02" fill="#408cad"/><path d="M26.06 14.5c-.03 0-.04-.03-.03-.06 0-.02.02-.06.05-.07.03 0 .06.04.06.06 0 .05-.02.08-.04.1l-.04-.02M26.13 14.52s0-.02.02-.03c0-.02.03-.02.04-.02 0 .02-.02.04-.03.04l-.04.02v-.02M23.98 13.38c.07-.08.15-.13.24-.2.14-.1.36-.2.55-.23h.27c.07-.02.2 0 .24.1.05.07.04.15 0 .2-.1.16-.1.1-.2 0-.14.07.04.33.1.4.04.06.14.14.1.22 0 .04-.12.08-.16.13-.04.06-.05.15-.02.22.06.1.1.02.18.04.14.03-.04.3.16.3.02.06.04.06.03.12-.02.06-.06.07-.1.1-.06.08-.08.22-.2.1-.06-.06-.08-.18-.16-.24-.05-.05-.2-.06-.27-.04-.16-.18-.5-.55-.6-.7-.1-.18-.12-.3-.15-.4 0-.02-.02-.04-.05-.05l.05-.07" fill="#408cad"/><path d="M23.98 13.38c.07-.08.15-.13.24-.2.14-.1.36-.2.55-.23h.27c.07-.02.2 0 .24.1.05.07.04.15 0 .2-.1.16-.1.1-.2 0-.14.07.04.33.1.4.04.06.14.14.1.22 0 .04-.12.08-.16.13-.04.06-.05.15-.02.22.06.1.1.02.18.04.14.03-.04.3.16.3.02.06.04.06.03.12-.02.06-.06.07-.1.1-.06.08-.08.22-.2.1-.06-.06-.08-.18-.16-.24-.05-.05-.2-.06-.27-.04-.16-.18-.5-.55-.6-.7-.1-.18-.12-.3-.15-.4 0-.02-.02-.04-.05-.05l.05-.07" fill="#408cad"/><path d="M20.52 38.87c-10.12 0-18.36-8.23-18.36-18.35 0-10.12 8.24-18.36 18.36-18.36s18.35 8.24 18.35 18.36-8.23 18.35-18.35 18.35m0-38.87C9.2 0 0 9.2 0 20.52c0 11.3 9.2 20.5 20.52 20.5 11.3 0 20.5-9.2 20.5-20.5C41.03 9.2 31.83 0 20.53 0" fill="#737577"/><g clip-path="url(#B)" opacity=".9"><path d="M7.37 26.45c.02-.08.06-.13.12-.15.2.32.12-.13.17-.18.12-.18.28.04.36.2.03.1-.08.13.03.2.02.03.18-.04.2-.07.02-.02-.07-.53.1-.26l.2-.2c.08.07.1.16.1.25.1-.03.13-.15.24-.06l.16.32c.07.2-.08.3-.18.46-.07.13-.1.1-.04.26.05.13.18.16.18.33 0 .02-.12.22-.15.25-.1.14-.15.14-.27 0 0 .07-.04.14-.05.2-.17-.27-.28 0-.4.08-.2.1-.34.1-.44.3-.03.08 0 .26-.1.28-.14 0-.1-.2-.15-.28-.18-.32-.17.13-.34.2-.1-.13-.08-.6-.24-.4-.08-.1-.13-.22-.2-.33-.08.07 0 .43-.17.4-.26-.04-.1-.46-.12-.57-.05-.2-.1-.08-.13 0-.07.1.1.16-.1.2-.34.05-.13-.28-.3-.4-.06-.03-.17.1-.26.03-.07-.03-.06-.13-.1-.16-.05-.04-.1-.02-.14-.05-.13-.12-.26-.25-.27-.45-.03-.1 0-.2.06-.24.12-.04.16.1.26.1.18.03.22-.12.43-.02.04.02.06.13.1.14.05 0 .06-.06.1-.06.1 0 .04-.07.2 0 .18.1.32.3.47.12-.1-.15-.3-.03-.3-.27-.02-.23.16-.16.3-.13.05.03.07.1.16.1.05 0 .1-.04.15-.07.18-.04.23-.08.36-.22.02 0 0 .03.03.04" fill="#1d81a4"/></g><g clip-path="url(#C)" opacity=".75"><path d="M7.32 27.4c-.23-.2.24-.57.42-.4.1.06.2.46.3.15.04-.08-.04-.15 0-.23.04-.14.04-.02.15-.05.15-.04.14-.04.23-.2.07-.13.1-.32.3-.15.3.24-.2.6-.32.75.13.1.36.1.36.3.02.25-.24.17-.38.2-.08 0-.3.2-.38.13-.1-.1.1-.2.07-.34-.27-.02-.2.43-.4.35-.13-.07-.13-.35-.26-.26-.1.07 0 .23 0 .3 0 .14.04.12-.06.2-.05.04-.14.08-.2.07-.1-.02-.3-.2-.32-.3-.02-.13.16-.14.1-.32-.2 0-.2.28-.35.3-.27.06-.03-.4-.05-.5-.2 0-.22.1-.32.26-.06.1 0 .2-.13.07-.06-.03-.1-.22-.1-.3-.08.05-.13.1-.23.05-.1-.08-.06-.22-.2-.24.1-.06.25-.16.38-.2.1-.02.17 0 .25.03.04.02.07.1.12.1.05 0 .1-.04.14-.03.13.03.34.04.42.12.08.08 0 .23.16.3.08.03.17 0 .24-.05" fill="#1d81a4"/></g><path d="M11.28 22.38s-1.14.36-1.47.43c-.33.08-1 .37-1.3.52-.3.14-1.63 1.1-1.63 1.1l1.7-.98c.17-.1.3-.1.3-.1s-.44.34-.7.62c-.25.28-.6.5-.9.8-.28.32-.42.6-.42.6l1.38-1.3c.3-.3.7-.68.9-.85.17-.15 2.22-.7 2.22-.7l-.07-.12z" fill="#1d81a4"/><path d="M11.12 22.45l1.65.6s1.15.83 1.34 1.1c.2.27.48.93.48.93s-.86-1.33-1.88-1.88c-1.03-.56-1.76-.6-1.76-.6l.2-.15h-.02zM10.9 25.64l-.6 1.07s-.8.63-1.04.7c-.24.08-.82.1-.82.1s1.18-.27 1.73-.9c.54-.6.62-1.14.62-1.14l.1.18z" fill="#1d81a4"/><path d="M10.96 21.78s1.25.25 1.8.52.8.6 1.04.88.76 1.08.76 1.08-.87-.95-1.05-1.17c-.18-.24-.48-.5-.83-.62-.36-.1-1.7-.55-1.7-.55v-.15z" fill="#1d81a4"/><path d="M10.86 23.14s1.36.92 1.54.9c.2 0 .22-.23.44-.17.22.05 2.2.88 2.26.84.05-.03-2.24-.9-2.17-.97.07-.08.87-.4.83-.4-.03-.03-.78.17-1.02.4-.24.2-.22.17-.42.12-.2-.04-1.42-.83-1.42-.83l-.04.12z" fill="#1d81a4"/><path d="M11.04 26.63s0-6.3.07-10.1c.04-2.14.04-3.84.05-3.94.03-.3 0-1 .08-1.12.1-.13.1-.08.16-.13.05-.05.18-.17.08-.2-.1-.02-.3.1-.43-.05-.13-.15-.1-.26-.2-.26s-.02.1-.14.1h-.27c-.12 0-.07.16-.16.2-.08.06.05.2.1.3.02.1.12.47.12.72 0 .26.08.57.06.8 0 .14.1 5.07.12 8.7 0 2.13.07 3.02.06 3.63 0 .6.3 1.33.3 1.33" fill="#1d81a4"/><g clip-path="url(#D)" opacity=".9"><path d="M13.55 24.36c.13-.08.07-.23.28-.25.1.13-.04.2-.04.3 0 .06.1.05.07.1 0 .05-.13.1-.17.1l.1.04c.02 0 .1.07.1.08.17.1.1.04.3.02.23-.02.36.12.43.28.1.17.13.14.36.18.16.02.36.14.4.27-.06.04-.17.06-.27.07.02.14.1.1-.06.23.07.03.32 0 .32.1-.02.12-.25.03-.33.05-.37.1.35.1.26.23-.1.13-.25 0-.34 0-.14.04-.15.14-.23.12-.05 0-.1-.16-.13-.2-.06-.08-.12-.13-.26-.15-.02.05 0 .1 0 .15-.3 0-.2-.17-.22-.3-.06 0-.1.03-.15.07-.03-.07-.06-.1-.03-.18.02-.08.13-.1.1-.2-.1 0-.18.07-.24.12-.12-.1.13-.2.1-.27-.03-.06-.32.06-.18-.13-.22.04-.23.08-.17.23.08.2.08.16-.15.22 0 .05 0 .24-.04.3-.05.13-.2.15-.25.02-.2.12.1.4.12.52 0 .08-.05.18-.17.17-.08 0-.2-.14-.23-.18 0 .05-.06.1-.1.12-.14-.1-.14-.1-.07-.23.05-.1.12-.16 0-.25 0 .1.04.2-.16.2-.22.04-.2-.1-.17-.22.03-.1.02-.22.1-.3.08-.08.26-.14.36-.2-.3.1-.5-.1-.18-.24-.13-.08.06-.1.1-.2-.08 0-.22.03-.27 0-.1-.04-.1-.2.02-.25-.1-.15-.33.08-.34-.13 0 0 .07-.03.07-.06.02-.03-.05-.08-.05-.1.02-.03.2-.14.24-.15.13-.07.3-.1.43-.15.2-.08.33-.18.44-.02.1-.07.25-.07.25.06" fill="#1d81a4"/></g><g clip-path="url(#E)" opacity=".9"><path d="M12.7 23.86c0 .12-.16.05-.18.14 0 .08.1.1.1.18 0 0-.1.02-.1.07 0 .03.07.06.07.1 0 .07 0 .16-.13.18-.03-.1-.1-.08-.13 0 0 .08.13.12 0 .16 0-.02 0-.03-.02-.04-.03.04.13.3-.1.16 0 .04.03.13 0 .16-.06.05-.17 0-.24.04 0-.07.06-.26 0-.32-.15-.18-.18.17-.32.14.02-.07-.03-.2-.1-.08-.04.05 0 .13 0 .2v.12c-.1.1-.07.04-.12-.02-.03-.04.03-.16-.1-.13-.14.02-.05.18-.03.22.06.1.1.1 0 .17-.02.05-.1.1-.2.07-.03.08-.18.1-.25 0-.03-.04.03-.17.04-.2-.06-.02-.1-.05-.16-.06l.1-.1c-.03 0-.07-.05-.12-.05l.1-.1c-.08-.03-.34-.1-.2-.2.08-.07.26.02.37-.02-.05-.05-.1-.12-.1-.17l.22.03c-.13-.24.25-.1.3-.3-.13-.03-.18.1-.36.05.02-.03 0-.08 0-.1-.02 0-.08-.04-.12-.04.03 0 .05-.04.06-.06-.07-.02-.15-.04-.2-.1.08-.05.16 0 .22-.05.03-.02.02-.1.02-.14.1-.02.16 0 .2.08.18-.1.15-.02.3.08.07-.08-.1-.27.13-.17.14.04.18.28.33.22.06-.04 0-.12.07-.15.06-.02.1.04.1.04-.02.02.1-.02.1-.02-.02 0 .06-.05.07-.05h.13c.07 0 .14-.05.2.02" fill="#1d81a4"/></g><g clip-path="url(#F)" opacity=".9"><path d="M9.48 25.45l.12-.02c.05 0 .1.06.13.07h.1c.03 0 .06-.06.1-.07.06 0 .12.07.17.06.1-.06 0-.2.14-.23.08-.02.16.15.25.1.16-.13-.1-.16-.12-.2-.05-.1.06-.2-.03-.26-.1-.05-.14.13-.2.15-.02-.04-.04-.14-.08-.16-.1-.08-.07.03-.13.07-.07.05-.17.12-.25.13-.06 0-.27-.13-.26.08.02.08.14 0 .14.1 0 .05-.08.12-.1.14" fill="#1d81a4"/></g><g clip-path="url(#G)" opacity=".9"><path d="M7.86 23.76c0-.05.05-.1.1-.1.14.23.1-.1.12-.15.1-.12.2.05.27.16.02.07-.06.1.02.16.02.02.14-.03.16-.05 0-.02-.06-.4.07-.2.05-.05.1-.1.15-.13.05.04.07.1.07.17.08 0 .1-.1.18-.03l.12.24c.05.16-.06.23-.13.36-.07.1-.1.08-.04.2.03.1.13.1.13.24-.02 0-.1.16-.12.2-.07.1-.1.1-.2 0 0 .04-.04.1-.04.13-.12-.2-.2 0-.3.06-.14.08-.25.06-.33.22-.02.05 0 .2-.07.2-.1 0-.08-.14-.1-.2-.14-.24-.14.1-.26.15-.1-.1-.07-.45-.2-.3-.05-.07-.1-.17-.13-.25-.07.05-.02.33-.13.3-.18-.03-.06-.35-.07-.43-.05-.16-.08-.06-.1-.02-.05.1.06.13-.08.16-.25.04-.1-.2-.22-.3-.05 0-.13.07-.2.03-.04-.02-.04-.1-.07-.12-.03-.03-.07 0-.1-.04-.1-.08-.2-.17-.2-.32 0-.07 0-.16.06-.18.08-.03.1.06.2.08.12.02.15-.1.3-.02.04 0 .05.1.08.1.04 0 .05-.05.07-.05.08 0 .03-.04.16.02s.23.2.34.08c-.08-.1-.2-.02-.23-.2 0-.18.13-.12.22-.1.06.02.07.07.13.08.03 0 .07-.04.1-.05.14-.04.18-.07.27-.17.02 0 .02 0 .03.02" fill="#1d81a4"/></g><g clip-path="url(#H)" opacity=".75"><path d="M7.83 24.46c-.17-.14.17-.4.3-.3.07.06.15.36.24.13.02-.07-.04-.12-.02-.18.04-.1.04-.02.12-.04.12-.03.12-.03.18-.15.06-.1.08-.24.23-.12.22.2-.15.46-.24.57.1.08.25.08.26.24 0 .18-.18.13-.3.15-.04 0-.2.16-.27.1-.07-.1.08-.16.05-.26-.2-.02-.15.3-.3.25-.1-.06-.1-.27-.2-.2-.07.05 0 .17 0 .23 0 .1.03.08-.04.14-.04.03-.1.06-.15.06-.08-.03-.23-.15-.25-.25 0-.08.12-.1.08-.22-.16 0-.15.2-.26.24-.2.04-.03-.3-.04-.38-.16 0-.17.08-.24.2-.06.06 0 .13-.1.05-.05-.02-.08-.17-.07-.22-.07.03-.1.07-.2.03-.06-.05-.03-.15-.14-.17.08-.05.18-.12.28-.15.07-.02.13 0 .2.02.02 0 .04.06.08.07.04 0 .07-.03.1-.02.1.02.26.03.32.08.06.07 0 .18.12.23.06.03.13 0 .17-.04" fill="#1d81a4"/></g><g clip-path="url(#I)" opacity=".9"><path d="M11.43 27.67c-.35-.17.08-.46-.1-.7-.1-.13-.15.04-.26-.02-.15-.1-.03-.25-.18-.1-.05.03.03.12-.1.07-.07-.03-.03-.15-.14-.13-.18.02.16.34-.1.15-.1-.06-.15-.22-.26-.1-.06.08-.03.3.07.34-.06.12-.2.07-.3.12-.1.07-.1.16-.15.27-.04.1-.14.2-.1.34.08.22.14 0 .24-.06.07.06-.15.7.06.58.08-.06.03-.3.15-.28.06.02.13.25.16.3.07-.08-.04-.2.02-.28.13.3.12-.07.13-.14.05 0 .1.03.15.07.06-.12-.08-.44.05-.47.23-.06.12.3.1.37l.12.02c-.02.15-.25.33-.04.5v-.2c.06 0 .1.06.15.13.04-.1 0-.2.03-.3.07-.22.1 0 .2-.03.13-.05 0-.3.02-.34 0 0 .3-.1.06-.14" fill="#1d81a4"/></g><g clip-path="url(#J)" opacity=".8"><path d="M11.1 28.27c-.18-.07.13-.3-.1-.33.03-.1.1-.28.2-.3.03-.2-.3.05-.3-.24 0-.2.33.07.4.16.17.2 0 .65-.2.7" fill="#1d81a4"/></g><g clip-path="url(#K)" opacity=".9"><path d="M10.16 27.3c-.06-.1-.18-.15-.25-.24-.07-.1-.1-.23-.2-.3v.18c-.16-.1-.3-.44-.5-.4.02.05 0 .1.04.13-.07.02-.38-.04-.2.14-.06.02-.2 0-.25.02-.1.08-.03.2.07.18-.02.06-.15.18-.13.24.03.1.15-.1.18-.1 0 .03.05.08.05.1.07-.03.1-.14.17-.16 0 .2.1.07.2.07.02.13-.18.2-.12.33.08.14.17-.13.25-.14 0 .24.15.1.24.03l.03.07c.12.03.16-.07.25-.12.07-.02.12.03.17-.03" fill="#1d81a4"/></g><g clip-path="url(#L)" opacity=".85"><path d="M10.1 26.5c.04.17.1-.04.17-.05.05 0 .05.06.08.07h.13c0 .08-.1.18-.16.15 0 .05.07.12.12.12.08 0 .04-.03.06-.1 0-.05-.03-.1 0-.12.05-.04.1.02.13.07.1-.05.1-.24.2-.24s.17.2.06.25c-.08.04-.24-.04-.3.07-.06.15.22.25.2.03.1.07.12 0 .2-.02.05 0 .1.02.13 0 .05 0 .08-.08.14-.08.06-.02.23.04.14.14-.02.03-.17.04-.2.04.02.12.05.06.12.08l.14.08c.07.22-.2.05-.24.03-.02 0-.04-.05-.06-.06l-.08.02c-.05-.03-.07-.1-.12-.1-.13-.05-.15.17-.26.17 0-.18-.1.02-.13.03-.07 0-.05-.07-.07-.1-.05-.07 0-.04-.08-.06-.03 0-.06.03-.1 0-.04-.04-.03-.1-.06-.13-.03-.02-.24-.08-.1-.15-.07-.02-.18.03-.18-.12 0-.1.08-.12.1-.03" fill="#1d81a4"/></g><g clip-path="url(#M)" opacity=".9"><path d="M10.52 27.36c-.04-.1.02-.1.05-.14.03-.04.06-.04.1-.12 0 .15.1.1.18.07.07.14-.1.14-.18.16.05.05.07.13 0 .14-.1.02-.1-.05-.13-.1" fill="#1d81a4"/></g><g clip-path="url(#N)" opacity=".9"><path d="M11.52 26.85c0-.15-.1-.1 0-.23.02-.04.04.03.06-.05 0-.04-.08-.06-.06-.14.04-.14.14.02.17.02.07 0 .14-.16.23-.14 0 .1-.08.12-.14.18-.1.1-.03.08 0 .2.1 0 .02.06.04.1.02.07.08.12.03.2-.08.1-.08-.07-.1-.1-.03-.06-.1-.03-.08-.15-.07.04-.1.1-.17.12" fill="#1d81a4"/></g><g clip-path="url(#O)" opacity=".85"><path d="M11.2 26.57c-.02-.14.13-.1.2-.06.02-.2.07-.06.13-.15.07-.1-.03-.16-.1-.13-.07.02-.1.06-.2.06-.07 0-.2 0-.18.1.02 0 .03 0 .05.02-.04.14-.07.24.1.2" fill="#1d81a4"/></g><g clip-path="url(#P)" opacity=".9"><path d="M12.45 27.8c-.26-.37.3-.3.44-.32.13 0 .2-.08.3-.1.12-.02.3.17.3-.06-.06-.07-.04-.07-.06-.14.05 0 .1-.05.14-.07-.2-.2-.8.28-.73-.25-.2.07-.1.2-.24.05-.02-.02 0-.14-.05-.2-.04 0-.1.13-.1.15-.02-.05-.07-.12-.05-.2-.16-.08-.23.04-.18.2-.34.1.16-.37-.13-.4-.18 0-.1.12-.16.24 0-.02.1.06.04.13-.04.04-.07-.03-.1 0 .03-.03-.06-.12-.08-.12-.1 0-.06.15-.13.15-.14 0-.16-.12-.28-.12-.14 0-.38.24-.36.44.07 0 .16-.04.24-.06l-.05.1c.1.07.17-.07.26-.16-.04.07-.04.18-.06.23.06 0 .16 0 .23-.04 0 .32.4.4.35.1.03.13 0 .26-.03.34.06 0 .1 0 .16-.07.06.1.25.48.38.3l-.1-.1" fill="#1d81a4"/></g><g clip-path="url(#Q)" opacity=".9"><path d="M13.44 23.95c-.03-.18-.1-.24-.22-.28-.03 0-.1.03-.1 0-.04 0-.05-.08-.06-.1-.04 0-.1-.04-.15-.07-.1-.07-.14-.14-.3-.12-.05 0-.07.05-.12.05-.06 0-.1-.05-.18-.04 0 .05.03.1.07.13l.1.05c.07.1-.02.2.06.28.1.1.13-.13.2-.14.15-.02.06.1.1.2.1.2.12-.05.16-.06.15 0 .08.2.14.26.03.02.17-.03.22-.04.02 0 .06.07.1.03.05-.04 0-.1-.03-.14" fill="#1d81a4"/></g><g clip-path="url(#R)" opacity=".9"><path d="M14.22 23.6c0-.15 0-.24-.16-.2 0-.1-.17-.2-.23-.2-.1-.02-.1.05-.22.08-.08 0-.17-.05-.27-.03-.12.04-.13.16.02.14-.2.28.08.14.18.26.13.14-.14.54.12.36.02.27.28.2.36.38.04-.07.2-.18.28-.2.07-.03.3.02.16-.14.12-.12.16.04.26.1.08 0 .1-.06.16-.02.04.02.07.14.1.17 0-.03.03-.08.03-.14.02.15.13.1.2 0 .07.06.1.15.16.23.07.06.1.06.23.04-.02 0-.06-.05-.08-.07.03-.06.1-.1.15-.1-.04-.05-.1-.06-.15-.07.04-.05.1-.07.17-.1-.13-.1-.28-.2-.4-.25.1-.1.26-.05.35 0 .04 0 .1.15.18.08.05-.05 0-.14-.05-.2.06-.1.17-.03.24-.16-.2-.06-.42.03-.5-.26.08-.07.16.07.27.08.06 0 .1-.07.1-.07.07 0 .1.03.16.03l-.1-.12c.08-.02.22.03.22-.1-.08-.03-.02-.13-.12-.2-.05-.02-.18 0-.23 0-.12 0-.45-.14-.45.08-.1 0-.2 0-.28.02-.14.05-.2.12-.34.04 0-.14.02-.4-.16-.33-.1.05-.15.26-.2.35-.24.3 0 .05.05.25.03.1-.17.24-.2.3" fill="#1d81a4"/></g><g clip-path="url(#S)" opacity=".85"><path d="M13.97 23.7l-.06.12c-.1-.07-.08-.2-.22-.14-.05-.14-.2 0-.28-.14.07-.08.2-.16.28-.17.02 0 .24.04.25.06.02 0 .1.15.13.17.05.07.06.15.12.22.06.1.4.14.38-.04 0-.12-.18 0-.13-.22.1-.26.2 0 .28-.04.07-.02.04-.1.12-.14.07-.03.1.07.17-.02.05-.07-.06-.15.07-.2.12 0 .07.08.13.16 0 0 .1.18.1.16.07.05.1 0 .2.02.04.02.12.1.1.17-.02.07-.1.02-.14.04l-.18.1c-.1-.06-.02-.2-.08-.24-.08-.1-.27.02-.34.07-.12.06-.23.1-.18.3 0 .06.14.12.08.22-.03.07-.08.05-.13.05s-.12-.06-.16 0c-.05.03 0 .2 0 .24 0 .06 0 .13-.05.16-.1.03-.03-.18-.07-.2-.06-.04-.1.08-.1.1-.06 0-.07-.1-.06-.17-.1-.04-.17.02-.25.07.02-.1.03-.17-.03-.23-.04-.03-.14.04-.17 0-.04-.03-.06-.14-.02-.18.08-.1.1 0 .17.03.07.04.3.2.27 0 0-.05-.1-.14-.14-.17-.05-.06 0-.2-.12-.13" fill="#1d81a4"/></g><g clip-path="url(#T)" opacity=".9"><path d="M14.4 25.62c0-.03-.04-.05-.04-.1-.1.06-.24.2-.3 0 .08 0 .2-.03.25-.1.05-.04.08-.12.1-.16.06-.03.06 0 .1-.02 0 0 .2-.03.23-.02.1.04.03.15-.06.17.07.13.17.26-.04.24-.02 0-.02-.07-.04-.07l-.08.02c-.04 0-.06.15-.1 0" fill="#1d81a4"/></g><g clip-path="url(#U)" opacity=".85"><path d="M13.52 25.37c0-.2.06-.2.16-.23.1-.05.15-.03.2-.2-.08-.03-.16 0-.24-.06-.08-.08-.03-.18-.14-.25-.06-.03-.13-.02-.2-.03-.07 0-.18-.1-.25-.08-.08 0-.08.15-.2.08-.03-.04 0-.1-.05-.14-.04-.04-.08-.04-.12-.07-.16-.13-.34-.07-.4.2.12.03.28-.07.4-.04.2.05.04.3.27.28.1 0 .37-.18.42.05.05.26-.33-.17-.27.17.22-.02.08.15.07.3.1.03.2-.06.3-.02" fill="#1d81a4"/></g><g clip-path="url(#V)" opacity=".7"><path d="M14.62 24.47c-.1-.07-.12.05-.2.08-.06.04-.1 0-.18.03-.1.02-.18.08-.3.08-.1 0-.25-.1-.34-.05-.23.14.08.17.16.2 0 .14-.13.22-.1.38.03 0 .1 0 .12-.04.04.1 0 .2-.02.3.03 0 .1 0 .14-.04 0 .27.18.03.3-.03.14-.06.05-.03.16.02.14.06.12.06.2-.03.05-.03-.02-.1.08-.12.03 0 .06.1.1.1.1 0 .13-.07.22-.12.05-.02.15 0 .2-.07.03-.05.03-.25.04-.3-.22-.05-.23-.1-.1-.33-.1-.03-.17 0-.25 0-.05.02-.08.05-.13.03-.08-.02-.04-.1-.13-.1" fill="#1d81a4"/></g><g clip-path="url(#W)" opacity=".85"><path d="M10.46 26.48c.08 0 .13-.03.2-.06.12-.02.22-.05.06-.1-.04 0-.12.02-.14-.04 0-.05.1-.07.1-.12.07-.17-.1-.06-.16-.03-.02-.17-.14-.2-.26-.2l.05.1c-.03 0-.13-.02-.15 0-.1.14.1.1.12.1.13.04.03.1.07.16.04.05.16-.04.22 0-.04.05-.1.1-.13.16 0 0 .03 0 .03.02" fill="#1d81a4"/></g><g clip-path="url(#X)" opacity=".9"><path d="M13.8 26.46c.18-.1.1-.3.38-.34.14.16-.06.25-.06.4 0 .07.16.06.12.14-.02.05-.18.1-.23.13l.16.03s.1.1.12.1c.2.14.12.07.4.04.3-.02.47.16.58.37.1.23.16.2.47.25.24.02.5.17.57.35-.1.06-.25.08-.38.1.03.2.15.13-.08.3.1.04.42 0 .43.12 0 .18-.33.06-.43.1-.5.13.47.12.36.3-.14.16-.35 0-.46 0-.18.04-.2.18-.3.15-.07 0-.12-.2-.17-.26-.1-.1-.17-.2-.35-.2-.03.05-.02.14 0 .2-.4 0-.27-.24-.3-.42-.07 0-.15.06-.2.1-.06-.08-.1-.13-.06-.23.03-.1.18-.13.12-.24-.12 0-.22.06-.3.14-.17-.15.17-.28.14-.36-.05-.1-.44.06-.25-.2-.3.06-.3.12-.22.32.1.25.1.2-.22.3.03.06 0 .3-.05.4-.05.16-.25.18-.32.02-.27.16.15.54.17.7 0 .1-.08.24-.24.23-.1 0-.26-.18-.3-.24-.02.07-.1.13-.17.16-.16-.14-.16-.12-.06-.3.05-.15.15-.22 0-.35-.02.15.04.28-.22.3-.3.05-.25-.12-.23-.3.03-.12.03-.3.14-.4.1-.1.34-.2.48-.3-.4.17-.67-.1-.24-.3-.18-.1.07-.13.12-.26-.1 0-.3.05-.35.02-.14-.07-.15-.3.02-.35-.14-.18-.45.12-.46-.16 0 0 .1-.03.1-.07 0-.06-.08-.12-.07-.16.02-.03.25-.17.3-.2.2-.08.42-.12.6-.2.25-.1.43-.23.58 0 .15-.1.36-.1.35.06" fill="#1d81a4"/></g><g clip-path="url(#Y)" opacity=".9"><path d="M14.94 28.16c0-.05-.05-.08-.05-.14-.15.08-.34.28-.42 0 .1-.02.26-.05.34-.14.06-.05.1-.16.13-.2.08-.06.08-.02.14-.04 0 0 .24-.05.28-.03.14.07.05.2-.08.24.1.2.23.36-.05.33-.02 0-.02-.1-.05-.1l-.1.04c-.05 0-.07.23-.14.03" fill="#1d81a4"/></g><g clip-path="url(#Z)" opacity=".85"><path d="M13.76 27.8c-.02-.24.08-.25.2-.3.16-.06.2-.03.3-.27-.13-.03-.24.02-.34-.07-.1-.1-.04-.24-.2-.33-.06-.05-.16-.03-.25-.05-.1-.02-.24-.13-.34-.1-.1 0-.1.2-.25.1-.06-.05-.04-.14-.1-.2-.04-.03-.1-.03-.15-.08-.2-.16-.45-.08-.52.3.16.03.38-.1.54-.07.25.07.05.4.35.38.12 0 .5-.24.56.07.06.36-.44-.22-.37.24.3 0 .1.2.1.4.12.06.27-.06.4-.02" fill="#1d81a4"/></g><g clip-path="url(#aa)" opacity=".7"><path d="M15.23 26.6c-.12-.1-.15.07-.26.12-.08.04-.15 0-.24.03-.15.03-.25.1-.4.1-.13 0-.34-.13-.47-.06-.3.17.12.2.23.25-.03.18-.2.3-.16.5.05 0 .13 0 .18-.05.05.16-.02.28-.03.42.03 0 .12-.03.17-.06-.02.36.23.03.4-.05.2-.06.07-.03.22.05.17.1.14.1.27-.04.05-.03-.04-.1.1-.14.04-.02.08.1.12.12.12.02.17-.1.3-.15.06-.04.2-.02.25-.1.05-.06.05-.33.06-.4-.28-.07-.3-.12-.13-.44-.1-.05-.2 0-.32 0-.07.02-.12.05-.18.03-.1-.03-.05-.12-.18-.14" fill="#1d81a4"/></g><g clip-path="url(#ab)" opacity=".9"><path d="M10.83 28.72l-.13-.02c-.05 0-.1.06-.15.07-.06 0-.04.02-.1 0-.03 0-.06-.06-.1-.07-.07-.02-.14.07-.2.06-.12-.05 0-.2-.15-.23-.1-.03-.17.15-.27.1-.2-.14.1-.18.12-.23.05-.1-.06-.2.03-.26.1-.07.15.12.23.15.02-.06.05-.16.1-.2.1-.07.07.05.13.1.08.05.18.13.27.14.06 0 .3-.14.27.1 0 .08-.14 0-.14.1 0 .06.08.13.1.14" fill="#1d81a4"/></g><g clip-path="url(#ac)" opacity=".9"><path d="M8.7 31.15c.4-.2-.1-.5.1-.75.12-.16.18.03.3-.04.16-.1.02-.27.2-.1.03.03-.05.13.1.07.07-.03.03-.17.15-.15.2.04-.17.4.1.18.1-.07.17-.23.3-.1.05.08.02.3-.1.37.08.14.23.08.35.14.1.07.1.18.16.3.04.1.14.22.1.38-.1.23-.15-.02-.26-.07-.08.07.16.75-.07.63-.08-.05-.03-.33-.16-.3-.07.03-.14.28-.18.33-.08-.08.04-.2-.03-.3-.15.34-.13-.08-.14-.15-.06 0-.1.02-.16.07-.07-.12.08-.48-.05-.5-.26-.07-.13.33-.12.4l-.13.02c.03.16.27.36.04.53v-.2c-.05 0-.1.06-.15.13-.02-.1 0-.2-.02-.3-.07-.27-.1-.02-.23-.06-.12-.05.03-.3 0-.37 0 0-.33-.13-.08-.15" fill="#1d81a4"/></g><g clip-path="url(#ad)" opacity=".8"><path d="M9.08 31.8c.2-.07-.16-.3.08-.35-.02-.12-.08-.32-.2-.32-.04-.24.32.04.32-.27 0-.23-.36.07-.45.17-.18.23.02.7.23.77" fill="#1d81a4"/></g><g clip-path="url(#ae)" opacity=".9"><path d="M10.1 30.73c.05-.1.2-.15.27-.25.08-.12.12-.24.22-.3v.17c.17-.1.33-.5.52-.43 0 .05 0 .1-.03.14.08.02.4-.04.23.15.05.02.22 0 .26.02.1.1 0 .2-.1.2.02.06.17.2.15.26-.03.1-.17-.1-.2-.1-.02.03-.06.08-.06.12-.08-.05-.1-.17-.2-.2.02.23-.12.08-.2.08-.04.14.2.22.1.36-.07.15-.17-.14-.25-.16 0 .27-.17.13-.27.04l-.02.08c-.13.03-.17-.08-.27-.13-.08-.02-.15.03-.2-.04" fill="#1d81a4"/></g><g clip-path="url(#af)" opacity=".85"><path d="M10.15 29.88c-.04.18-.12-.06-.18-.07-.05 0-.05.08-.1.1h-.12c0 .08.1.2.16.16 0 .05-.06.13-.1.13-.1 0-.05-.04-.08-.1 0-.06.03-.1 0-.14-.06-.04-.13.02-.14.07-.1-.05-.12-.25-.23-.26-.1-.02-.18.2-.06.27.07.04.24-.05.3.07.08.18-.23.28-.2.04-.12.08-.14 0-.23 0-.05-.02-.1 0-.14 0-.05-.03-.08-.1-.15-.1-.07-.03-.25.04-.15.15.03.03.2.04.24.05-.04.12-.08.05-.14.08l-.16.1c-.08.23.22.04.26 0L9 30.4c.02-.02.1 0 .1 0 .04 0 .07-.1.12-.1.14-.04.16.2.28.2 0-.2.1.02.14.03.08 0 .05-.1.08-.12.06-.06 0-.03.1-.05.02 0 .05.03.1 0 .05-.04.03-.1.06-.14.03-.03.26-.08.1-.17.1-.02.2.04.2-.12 0-.1-.08-.13-.12-.03" fill="#1d81a4"/></g><g clip-path="url(#ag)" opacity=".9"><path d="M9.7 30.8c.04-.1-.03-.1-.06-.15-.03-.04-.07-.04-.1-.12 0 .16-.12.1-.2.06-.08.15.1.15.2.17-.06.06-.08.15 0 .16.08.02.08-.05.14-.1" fill="#1d81a4"/></g><g clip-path="url(#ah)" opacity=".9"><path d="M8.6 30.26c0-.17.1-.1 0-.26-.02-.04-.05.03-.06-.06-.02-.04.08-.06.06-.15-.05-.17-.15 0-.18 0-.08 0-.16-.16-.26-.14 0 .12.1.13.14.2.12.1.03.08 0 .22-.1-.02-.03.05-.04.1-.02.07-.1.12-.04.2.1.1.08-.07.1-.1.05-.06.1-.03.1-.15.07.03.1.1.17.13" fill="#1d81a4"/></g><g clip-path="url(#ai)" opacity=".85"><path d="M8.97 29.94c0-.15-.16-.1-.23-.06-.03-.23-.08-.07-.15-.18-.08-.1.02-.17.1-.14s.13.07.23.07c.07 0 .2 0 .18.1l-.03.03c.04.16.07.26-.12.2" fill="#1d81a4"/></g><g clip-path="url(#aj)" opacity=".85"><path d="M9.77 29.84c-.1 0-.15-.03-.24-.05-.12-.04-.23-.07-.05-.13.04 0 .13.02.14-.04.02-.06-.1-.08-.1-.14-.07-.18.12-.06.18-.04.02-.18.15-.22.28-.2l-.05.08c.04.02.15 0 .17.03.1.14-.1.1-.13.1-.14.04-.03.1-.07.16-.05.07-.18-.02-.25 0l.14.2h-.04" fill="#1d81a4"/></g><g clip-path="url(#ak)" opacity=".9"><path d="M9.97 23.37c-.16-.1-.08-.3-.34-.32-.13.15.05.23.05.37 0 .07-.15.06-.1.13 0 .05.15.1.2.13l-.13.04-.12.1c-.2.12-.1.05-.38.03-.28-.03-.44.15-.54.34-.1.2-.14.17-.43.22-.22.03-.47.18-.54.34.1.06.24.08.36.1-.04.17-.15.1.07.3-.1.02-.4-.03-.4.1 0 .16.3.05.4.08.46.13-.45.12-.34.28.13.16.33 0 .43.02.17.03.18.16.28.13.07 0 .12-.2.17-.24.1-.1.16-.18.33-.2.03.06.02.14 0 .2.4 0 .25-.23.27-.4.08 0 .15.06.2.1.06-.08.1-.13.06-.22-.03-.1-.17-.13-.12-.23.12 0 .2.06.28.13.16-.14-.15-.26-.13-.33.04-.1.4.05.23-.18.27.04.3.1.2.28-.1.23-.1.2.2.27 0 .07.02.3.06.4.03.14.22.16.3 0 .24.16-.15.5-.17.66 0 .1.07.24.22.23.1 0 .24-.18.3-.23 0 .06.06.1.13.15.16-.13.15-.12.07-.3-.05-.13-.15-.2 0-.3 0 .12-.05.25.2.28.28.03.24-.13.2-.3 0-.1 0-.27-.12-.38-.1-.1-.3-.18-.44-.26.36.14.62-.1.2-.3.17-.1-.06-.13-.1-.24.1-.03.26.03.32 0 .14-.07.14-.28-.02-.33.12-.17.42.12.43-.15 0 0-.1-.04-.1-.08 0-.05.08-.1.07-.14-.02-.03-.23-.17-.3-.2-.16-.07-.37-.1-.54-.18-.24-.1-.4-.22-.55 0-.13-.1-.33-.1-.32.05" fill="#1d81a4"/></g><g clip-path="url(#al)" opacity=".9"><path d="M5.85 22.18c0-.07-.06-.13-.1-.15-.2.3-.13-.12-.17-.17-.12-.16-.27.05-.34.2-.03.08.07.12-.03.2 0 0-.17-.05-.2-.08 0-.02.08-.5-.08-.25-.06-.06-.12-.12-.2-.17-.06.06-.07.15-.07.23-.1-.04-.13-.15-.23-.07l-.15.3c-.07.2.07.3.16.44.07.13.1.1.04.25-.05.12-.16.15-.16.3 0 .03.1.22.14.25.1.12.14.13.26 0 0 .06.04.13.04.18.16-.25.27 0 .4.07.16.1.3.1.4.3.03.06 0 .23.1.25.13 0 .1-.18.13-.26.17-.3.17.13.33.2.1-.13.1-.56.23-.38.08-.08.13-.2.18-.3.1.05.03.4.18.37.23-.05.08-.45.1-.55.05-.2.1-.08.12 0 .07.1-.08.15.1.18.3.06.13-.25.28-.36.05-.03.16.08.25.02.05-.03.05-.13.1-.16.03-.03.07 0 .1-.05.13-.12.25-.24.27-.42 0-.1 0-.2-.08-.23-.1-.04-.14.08-.24.1-.17.02-.2-.12-.4-.03-.03.02-.06.12-.1.12-.04 0-.05-.06-.08-.05-.1 0-.04-.08-.2 0-.16.07-.3.27-.43.1.1-.14.27-.03.28-.25 0-.22-.16-.15-.27-.12-.06.02-.08.08-.16.1-.05 0-.1-.05-.14-.07-.18-.05-.22-.08-.34-.22-.03 0-.02.03-.04.04" fill="#1d81a4"/></g><g clip-path="url(#am)" opacity=".75"><path d="M5.9 23.06c.2-.18-.22-.52-.4-.37-.08.05-.18.43-.3.14-.02-.08.07-.14.04-.22-.05-.14-.06-.02-.16-.05-.15-.03-.14-.03-.22-.18-.07-.14-.1-.3-.3-.16-.26.23.2.56.3.7-.1.1-.3.1-.3.3-.03.22.2.15.35.18.08 0 .28.2.36.12.1-.1-.1-.2-.07-.32.25-.02.2.4.37.32.13-.07.12-.33.25-.24.1.06 0 .2 0 .3 0 .1-.04.1.06.16.05.04.13.08.2.07.08-.03.27-.18.3-.3 0-.1-.16-.12-.1-.3.2.02.18.27.32.3.26.05.03-.4.05-.48.2 0 .2.1.3.24.06.1 0 .17.12.06.06-.03.1-.2.1-.28.07.04.12.1.22.03.08-.05.04-.2.18-.2-.1-.07-.25-.16-.37-.2-.07-.02-.14 0-.22.02-.04.02-.07.1-.1.1-.07 0-.1-.04-.15-.03-.12.02-.32.03-.4.1-.07.08 0 .22-.15.28-.08.03-.16 0-.22-.04" fill="#1d81a4"/></g><g clip-path="url(#an)" opacity=".9"><path d="M14 21.6c.43.23-.1.6.1.88.14.18.2-.04.33.04.2.13.04.3.24.12.05-.04-.05-.15.1-.1.1.05.06.2.2.18.22-.03-.2-.45.12-.2.1.08.18.27.3.1.1-.08.05-.35-.08-.4.08-.17.26-.1.4-.17.12-.1.12-.2.17-.34.04-.1.16-.25.1-.44-.08-.27-.16.02-.28.1-.1-.1.2-.9-.08-.74-.1.07-.04.4-.18.35-.1-.02-.18-.3-.2-.38-.1.1.04.24-.04.34-.16-.4-.15.1-.16.18-.07-.02-.13-.03-.2-.1-.07.16.1.57-.05.6-.28.08-.14-.4-.12-.47l-.14-.02c.02-.18.3-.42.04-.6v.22c-.08 0-.14-.08-.18-.15-.04.1 0 .23-.04.35-.08.3-.1 0-.26.06-.14.07.03.36 0 .43 0 0-.38.15-.1.18" fill="#1d81a4"/></g><g clip-path="url(#ao)" opacity=".8"><path d="M14.42 20.85c.22.1-.18.37.1.42-.02.14-.1.36-.23.36-.06.28.36-.04.35.3 0 .27-.4-.07-.5-.18-.2-.26 0-.82.26-.9" fill="#1d81a4"/></g><g clip-path="url(#ap)" opacity=".9"><path d="M15.13 22c.06.12-.02.13-.06.18-.03.05-.08.05-.1.14-.03-.18-.15-.1-.24-.07-.1-.2.12-.2.2-.2-.04-.07-.07-.17.04-.2.08 0 .08.07.15.13" fill="#1d81a4"/></g><g clip-path="url(#aq)" opacity=".9"><path d="M12.7 21.45c.34.46-.4.38-.55.4-.17 0-.24.1-.4.13-.14.02-.36-.22-.37.07.08.1.05.1.08.17-.07 0-.12.07-.17.1.22.25 1-.34.9.32.23-.1.13-.24.3-.07.04.03 0 .18.08.25.05.02.14-.16.14-.18.02.07.07.16.05.26.2.1.28-.06.23-.26.43-.1-.2.47.16.5.2 0 .12-.15.2-.3 0 .02-.13-.1-.06-.18.05-.04.1.05.13.02-.04.03.06.14.1.14.1 0 .07-.18.16-.18.17 0 .2.16.34.16.16 0 .46-.3.45-.55-.1 0-.23.04-.32.06.02 0 .04-.05.06-.1-.12-.1-.2.1-.32.2.03-.1.03-.22.05-.3-.07 0-.2 0-.28.06 0-.4-.5-.5-.45-.14-.04-.15-.02-.3.03-.42-.08.03-.14.03-.2.1-.08-.14-.33-.6-.5-.38l.12.1" fill="#1d81a4"/></g><g><g clip-path="url(#ar)" opacity=".9"><path d="M11.8 29.1c.04-.25.12-.32.3-.37.02 0 .1.03.13 0 .03 0 .05-.1.06-.1l.18-.12c.15-.08.18-.16.4-.14.04.02.08.06.14.06.07 0 .14-.06.22-.04 0 .07-.03.13-.08.18-.04.03-.14.06-.14.06-.08.1.03.26-.06.35-.14.13-.18-.16-.27-.18-.2-.04-.07.14-.13.24-.13.24-.15-.06-.2-.07-.2-.02-.1.26-.2.32-.02.02-.2-.04-.26-.05-.02-.02-.07.1-.12.03-.06-.06 0-.15.04-.18" fill="#1d81a4"/></g></g><g><g clip-path="url(#as)" opacity=".9"><path d="M10.83 28.65c0-.2 0-.32.2-.27 0-.1.2-.23.28-.25.15 0 .14.07.3.1.1.02.23-.05.35-.03.15.05.16.2-.03.18.25.37-.1.2-.23.34-.16.18.18.68-.15.46-.03.33-.36.25-.46.47-.05-.1-.26-.22-.35-.25-.1-.03-.38.03-.2-.18-.16-.15-.2.06-.33.12-.1.03-.12-.06-.2-.02-.05.03-.1.18-.12.22-.03-.06-.05-.1-.05-.2-.04.2-.18.14-.25 0-.1.1-.13.2-.2.3-.1.08-.14.08-.3.06 0 0 .07-.07.1-.08-.06-.08-.14-.12-.2-.14.05-.05.13-.07.2-.08-.07-.06-.15-.1-.22-.14.14-.1.33-.23.48-.3-.1-.14-.33-.06-.43 0-.05 0-.12.2-.23.1-.07-.06 0-.18.06-.24-.08-.13-.2-.06-.3-.22.25-.07.53.05.64-.32-.1-.1-.2.07-.35.1-.1 0-.13-.1-.15-.1-.07-.02-.1.03-.2.03.04-.04.1-.1.13-.15-.1-.03-.28.03-.28-.12.1-.06.04-.18.16-.25.08-.05.23-.02.3-.02.16 0 .57-.17.57.1.14 0 .23 0 .35.03.18.05.25.14.43.04 0-.18-.03-.5.2-.4.1.03.18.3.27.4.28.38-.03.07-.1.32-.02.13.24.3.3.4" fill="#1d81a4"/></g></g><g><g clip-path="url(#at)" opacity=".85"><path d="M11.14 28.78l.08.14c.13-.08.1-.24.3-.17.05-.18.25-.02.34-.18-.1-.1-.24-.2-.35-.22l-.3.07c-.03.02-.15.2-.17.23-.06.08-.08.2-.16.27-.07.12-.5.18-.48-.05 0-.15.23-.02.16-.28-.1-.34-.25 0-.36-.06-.07-.03-.03-.13-.13-.17-.1-.05-.1.08-.2-.03-.1-.1.05-.2-.1-.24-.17-.03-.1.1-.18.2-.02 0-.15.2-.14.2-.08.06-.14-.02-.24 0-.05.04-.16.15-.12.23.02.1.1.03.16.05.06 0 .2.13.24.1.12-.06.02-.22.1-.3.1-.13.33.04.42.1.15.08.3.13.23.38 0 .07-.18.14-.1.28.03.1.1.06.16.06.07 0 .16-.08.2-.02.07.06 0 .27 0 .32.02.08 0 .17.07.2.14.04.03-.23.1-.25.06-.05.1.1.1.14.1-.04.1-.15.1-.24.1-.05.2.03.3.1-.03-.13-.05-.22.04-.3.05-.04.18.05.22 0 .04-.04.07-.17.02-.23-.1-.12-.13.02-.2.06-.1.03-.4.23-.35-.02 0-.06.13-.17.16-.2.06-.08 0-.25.16-.17" fill="#1d81a4"/></g></g><g><g clip-path="url(#au)" opacity=".9"><path d="M8.84 22.48c0-.04.05-.07.05-.13.1.07.3.26.37 0-.1-.02-.24-.05-.33-.13-.04-.05-.08-.15-.1-.2-.08-.04-.08 0-.14-.03 0 0-.24-.05-.27-.04-.13.06-.05.2.07.23-.1.16-.22.32.04.3.03 0 .03-.1.05-.1l.08.04c.05 0 .08.2.14 0" fill="#1d81a4"/></g></g><g><g clip-path="url(#av)" opacity=".85"><path d="M9.95 22.16c0-.24-.1-.25-.2-.3-.15-.06-.2-.03-.26-.25.1-.02.2.03.3-.06.1-.1.03-.22.17-.3.07-.05.17-.04.25-.05.1-.03.22-.13.32-.12.1.02.1.2.23.1.06-.04.04-.13.08-.17.05-.03.1-.03.16-.08.2-.14.43-.07.5.28-.15.03-.35-.1-.5-.06-.24.06-.05.4-.33.36-.12-.02-.48-.24-.53.06-.06.33.4-.2.34.22-.3-.02-.1.2-.1.36-.1.06-.26-.06-.38 0" fill="#1d81a4"/></g></g><g><g clip-path="url(#aw)" opacity=".7"><path d="M8.56 21.02c.12-.08.14.06.25.1.08.05.15.02.23.04.14.03.24.1.38.1.13 0 .33-.13.45-.06.28.16-.1.2-.2.24 0 .17.16.28.13.48-.05 0-.12 0-.17-.06-.04.15.02.27.04.4-.04 0-.12-.03-.17-.06 0 .34-.22.03-.38-.04-.18-.08-.08-.05-.22.03-.16.07-.14.07-.26-.04-.04-.05.04-.12-.08-.15-.05 0-.08.1-.13.13-.1 0-.16-.1-.27-.15-.06-.03-.2 0-.24-.1-.06-.05-.06-.3-.07-.37.27-.05.28-.1.13-.4.1-.03.2 0 .3 0 .07.03.12.06.17.04.1-.03.05-.12.17-.13" fill="#1d81a4"/></g></g><g><g clip-path="url(#ax)" opacity=".9"><path d="M22.13 19.8c.12-.2.35-.13.54-.18.04 0 0-.08.1-.06.06 0 .06.1.1.1.06.02.08-.05.14-.04.08.02.08.03.13.06.04.02.08.05.15.06.05.02.1 0 .14.03.08.1-.1.16-.03.24 0 .02.14.02.16 0 .08-.06 0-.05-.02-.1-.03-.08-.12-.2.1-.17-.04-.24.6-.1.36 0 .1.1.17-.02.25-.04.14-.05.1 0 .2.07l.2.17c.1.04.27-.03.32.1-.1.04-.13-.06-.22-.04-.1.02-.04.1-.13.14-.15.05-.3-.12-.43-.08.08.1.3.15.1.22-.1.04-.4-.02-.2-.1-.13-.1-.27.12-.45.06-.08-.02-.1-.1-.2-.08-.1.02-.12.12-.07.2-.12.05-.2-.1-.28-.04-.1.06.08.18-.1.22-.1.03-.13-.08-.2-.1-.1 0-.25.14-.3.03.17 0 .23-.22.08-.2-.1 0-.27.2-.24.22-.05.05-.17.04-.2-.02-.1-.1.06-.12-.1-.18-.17-.05-.32 0-.47 0v-.06h-.07c0-.08 0-.1.06-.15.02-.02.07 0 .1-.02s.03-.08.05-.1c.08-.04.42 0 .43-.13" fill="#1d81a4"/></g></g><g><g clip-path="url(#ay)" opacity=".9"><path d="M32.58 22.44c-.02-.42.35.1.4.1.3-.02.1-.44-.05-.5.14-.33.58-.1.8.1.05.1.03.17.07.23.02.02.2.18.2.2.02.08-.14.34-.26.4-.12.07-.4.04-.55.04-.15 0-.4.1-.5.07-.34 0-.3-.53-.06-.63" fill="#1d81a4"/></g></g><g><g clip-path="url(#az)" opacity=".9"><path d="M23.93 20.87c0 .1.08.2.18.26.22.1.15 0 .36 0 .44-.04.4.12.56.34.02 0 .13 0 .17.04v.13c.07.08.07.16.15.24.16.15.5.4.77.3.28-.1.04-.23 0-.43 0-.06.04-.14.02-.2-.08-.17-.08-.1-.24-.17-.17-.07-.37-.13-.5-.24-.1-.08-.15-.2-.25-.26-.23-.13-.53-.1-.8-.07-.16 0-.28-.03-.38.08" fill="#1d81a4"/></g></g><g><g clip-path="url(#aA)" opacity=".89"><path d="M23.42 19.22c.24-.05.45-.23.18-.38-.1-.06-.26.02-.38-.08-.12-.08-.06-.12-.1-.2-.1-.14-.14-.33-.33-.46-.33-.2-.35.06-.56.06-.24 0-.32-.32-.58-.37-.45-.1-.3.24-.12.4.06.1.2.1.22.18.1.22-.08.1-.16.16-.06.03-.3 0-.2.16.08.06.34.03.42.05.06.4-.5-.1-.47.26.05.3.45.23.7.28.22.05.54.26.13.3-.14.03-.22-.07-.32-.07-.14 0-.26.06-.4.06-.13 0-.06-.23-.23-.02-.04.05 0 .25 0 .33-.02.16-.08.4.25.42.36.04.18-.37.48-.47.12-.04.6 0 .73.02.1.02.1.1.2.13.08.02.18-.03.22-.03.24.08.18.14.32.32.1.1.24.15.33.3.08.14-.1.32.08.43-.2.12-.43.3-.15.47.3.16.2-.23.55-.2.3 0 .53.27.8.3.17.05.56.08.7.03.3-.06.97-.7.53-.8-.43-.07-.67.5-1.14.22.25-.12.08-.16.02-.26-.1-.13-.2-.2-.28-.36.32-.1.47.1.77-.02.04 0 .02-.1.1-.12.06-.02.12.04.18.04.12 0 .25.04.37.04.55-.02 1.07-.42.9-.83-.07-.25-.17-.3-.48-.33-.22-.02-.42-.05-.62-.05-.27 0-.53.2-.77.18-.35-.03-.3-.26-.67-.15-.23.07-.37.23-.6.28-.17.03-.6 0-.62-.15" fill="#1d81a4"/></g></g><g><g clip-path="url(#aB)" opacity=".9"><path d="M21.62 22.86c.22-.08.1-.18.16-.3.04-.05.22-.22.16-.3-.04-.08-.34 0-.43-.08-.1-.06-.03-.23-.1-.3-.13-.2-.43-.2-.7-.2-.5 0-.36.16-.04.37-.77.03-.28-.4-.7-.6-.05.08-.1.05-.1.16-.05-.02-.13-.02-.2-.1-.27.3.33.53.48.73-.25.15-.82-.4-.7-.03 0 .03.17.03.2.13 0 .06-.2.1-.17.2.06.15.38.04.52.12-.2.23-.72.08-.76.5-.02.12.07.28.27.2.23-.07.07-.2.4-.24.42-.06.58.18.95.18.32 0 .62-.17.75-.4" fill="#1d81a4"/></g></g><g><g clip-path="url(#aC)" opacity=".89"><path d="M27.1 26.3c.24-.43.7-.3 1.07-.4.08-.02 0-.15.2-.1.13 0 .13.16.23.18.1.04.14-.1.26-.08.14.03.14.07.25.12.1.04.17.1.3.13.1.03.17-.04.27.06.16.2-.22.33-.06.48.05.02.3.02.36-.02.16-.1 0-.1-.05-.2-.05-.15-.23-.4.22-.33-.08-.5 1.17-.18.7.02.2.16.35-.07.5-.12.3-.06.24.02.4.16.1.06.32.3.42.33.2.1.53-.04.63.2-.2.1-.26-.1-.44-.07-.2.05-.1.2-.27.28-.28.1-.57-.23-.85-.15.2.17.64.3.2.43-.2.07-.8-.05-.37-.2-.26-.22-.53.23-.9.12-.15-.05-.22-.23-.42-.18-.2.05-.2.26-.1.4-.25.12-.37-.2-.56-.07-.18.13.17.37-.18.45-.22.05-.28-.16-.42-.18-.2-.03-.5.26-.6.03.33 0 .45-.43.15-.42-.17 0-.54.4-.48.47-.1.1-.34.08-.42-.03-.16-.2.14-.24-.2-.36-.33-.1-.6.02-.92.02l-.02-.15c-.04.02-.08.02-.12.02 0-.18-.02-.2.12-.3.04-.04.14 0 .2-.02.07-.05.07-.17.1-.18.15-.12.82-.04.84-.3" fill="#1d81a4"/></g></g><g><g clip-path="url(#aD)" opacity=".9"><path d="M24 27.7c.5.38.38-.8.92-.66.4.1.2.43.73.2.5-.2.12-.3.2-.63.3.02.43-.24.1-.27-.07-.02-.16.13-.32.12-.14-.02-.32-.14-.3-.25.12 0 .28.02.38-.03.16-.05.22-.16.34-.2.28-.14.52-.12.65-.42 0-.03.1-.05.1-.13 0-.04-.13-.08-.13-.1 0-.04-.04-.12-.04-.17 0-.03.16-.05.14-.1-.02-.2-.33-.18-.53-.16-.65.05.1.14-.08.3-.1.13-.26-.02-.37-.03-.1 0-.27.2-.4.04-.34-.3.46-.3.58-.33.2-.05.62-.35.34-.48-.22-.1-.36.12-.57.05-.22-.06-.24-.44-.58-.4-.2.04-.43.37-.4.5 0 .06.1.06.1.1v.16c.03.04-.05.1-.03.17 0 .07.1.1.12.16.02.13-.16.52-.42.34-.18-.1.06-.13.06-.24.02-.23-.14-.15-.2-.28-.1-.2.18-.4-.2-.52-.43-.14-.33.23-.55.33-.17-.36.28-.54-.3-.73-.2-.07-.43-.23-.64-.2-.13 0-.13.02-.23.05.04 0-.22.15-.2.13-.14.14-.1.2-.33.27-.1.03-.2-.03-.3.05-.04.05 0 .23 0 .28-.02.1-.08.2-.1.32-.04.23.06.26.2.46.1-.1.18-.3.4-.15.2.15-.14.23 0 .4-.14.02-.36-.03-.46.02-.3.1.02.13-.02.3-.02.2-.26.1-.32.25-.08.23.26.13.38.16.16.05.22.18.32.23.2.07.3-.04.47 0 .3.04.13.23.3.3.24.1.22-.16.26-.28.34.25.47.26.52.65.4 0 .3.2.4.42" fill="#1d81a4"/></g></g><g><g clip-path="url(#aE)" opacity=".9"><path d="M31.83 21.13c-.1.2.03.36.27.25.24-.12.2-.27.54-.1.1.06.1.14.27.12.12-.03.13-.14.28-.16.28 0 .4.26.7.23.17 0 .37-.05.48-.14.13-.1.05-.14.1-.24.08-.16.05-.08.22-.17.1-.05.18-.13.3-.18.07-.03.26-.03.3-.06.1-.1.03-.18.08-.27.05-.07.15-.1.2-.18.04-.1.03-.3-.1-.3 0 .17-.15.2-.33.18-.3-.05-.24-.2-.18-.36.03-.07.2-.43-.03-.43-.06 0-.32.56-.27.14-.22 0-.22.28-.4.34-.03.02-.17.02-.22 0-.12 0-.14-.07-.24-.1-.26-.06-.37.03-.56-.1-.05-.05.02-.2-.16-.14-.1.03-.1.15-.16.2-.3.27-.7.05-1.04.18-.3.12-.33.67-.35.9-.02.14.03.42.3.38" fill="#1d81a4"/></g></g><g><path d="M28.5 17.18l-.07.1-.1.06-.08.12-.04.1V18.3l.03.15v.13l.06.08.13.1.2.06.2.1.1.1.08.03.13.1.2.12.17.1.24.12.2.1.18.1.44.2.2.03h.5l.34.02.18-.04.16-.06h.14l-.34.15.12.13v.08l-.23-.2h-.94l-.14-.02-.16-.06-.24-.14-.2-.08-.27-.12-.22-.1-.2-.12-.16-.12-.2-.1-.17-.08-.1-.03h-.07l.12.13.12.1.1.06.13.04.12.05.2.08.44.25.13.06-.1.05-.1-.03-.37-.24-.23-.1-.16-.07h-.14l-.1.02.04.17.05.16v.17l.12.26.22.2.8.53-.1.06-.1-.1-.65-.4-.16-.12-.16-.17-.1-.1-.03-.22-.05-.2-.04-.13.04-.22-.2-.26-.15-.1-.13-.02v.1l.03.18.04.2v.1l.1.1.2.2.06.1.03.13-.18-.1-.2-.2-.16-.1-.05-.07-.02-.08-.1-.1-.07-.02-.03.24v.15l.12.3.14.23.1.18.14.16.1.16.13.12.24.16.14.15.16.2-.25.3-.14-.27-.08-.14-.12-.1-.18-.1-.16-.16-.12-.14-.04-.1-.1-.08-.15-.1-.03.1.14.62.03.18v.2l-.08.48-.1.14-.18-.28v-.18l.05-.18.03-.17v-.14l-.04-.1-.03-.16-.07-.12v-.15l.03-.22.03-.1v-.1 1.35l-.04.24-.1.1-.07-.03-.08-.17-.05-.15v-.13l.04-.15v-.13l-.06-.06-.05-.2v-.17l.1-.2v-.24l-.06-.1.02-.35-.1-.17-.16-.03-.2.08-.13.16-.06.18-.1.26-.14.32-.18.2-.24.47-.1.18-.22.56-.05.35s-.27.37-.27.4c0 .04-.14.2-.14.2l.13.2v.15l-.2-.3-.14.06h-.45l-.2-.07-.22-.07h.24l.27.04h.2l.13-.04.1-.07.02-.04h-.36l-.1-.02-.2-.08-.17-.07h-.2l-.03-.08h.33l.2.1.14.04h.2l.15.03.12-.07.08-.07.06-.12.1-.16.04-.12.03-.15v-.05l-.1.05-.1.1-.13.14-.3.15-.14.07-.18.04.06-.1.2-.1.15-.1.17-.15.14-.1.03-.1-.25.05s-.16.06-.2.1c-.02.02-.37.15-.37.15l-.3.06-.32.02-.2.03-.24.1-.2.06-.08-.04.12-.08.12-.07h-.3l.06-.08.13-.1.1.08.13.06h.22l.23-.04.16-.02.14-.06.2-.06.16-.04.15-.06.1-.06-.23.03-.3.05-.28.07-.34.05h-.62l-.15.04-.18.05-.3.02h-.4l-.18-.05.07-.06H22l.2.02h.33l.12-.05.2-.07h.5l.22-.05.2-.05.3-.05.13-.06h.24l.2-.02.24-.06.12-.05.12-.07.15-.07.05-.12.04-.08v-.16l-.03-.12-.16.04-.12.07-.2.04h-.2l-.08.05-.1.07-.12.08-.24.07.22-.12.08-.06.06-.07h-.56l-.13-.05.13-.03s.15 0 .27-.02c.12 0 .26-.03.26-.03h.16l.22-.04.16-.02.14-.05.1-.08h.14l.14-.02.1-.1.03-.08-.04-.05-.33-.02h-.92s-.18 0-.22.02l-.16.04.3-.16-.67-.35.13-.05.32.16.18.1.17.03.22.03h.24l.23.05h.25l.16.02h.2l.05-.05.13-.12.08-.1.05-.15.07-.2.13-.2.05-.04-.26.07-.14.03h-.13l-.47.05-.22.08-.3.04h-.27l.1-.1h.4l.18-.05.23-.05.4-.08.2-.03.27-.08.15-.06.17-.08.12-.08.12-.1.12-.12.03-.18.03-.2v-.46l.03-.2v-.33l-.02-.14-.03-.15-.04-.13-.1-.14-.12-.07h.47l.16-.05h.17l.1-.02.13-.06.04-.08h.1l.07.1.1.06.17-.03h.08v.05h.08l.15-.04z" fill="#1d81a4"/></g><g><path d="M28.24 24.45l-.17-.04-.18-.06.07-.04.22-.03.22-.06.14-.04.15-.1.03-.1h-.1l-.13.13-.3.04-.25.02-.2.04-.17-.04-.2-.1s-.1-.04-.15-.1l-.12-.13v-.1l-.03-.1-.02-.16v-.18c0-.07-.08-.28-.08-.28l-.13.04-.1.16h-.1l-.14-.07-.15-.1-.16.04s-.15.02-.2.07c-.04.06-.26.1-.26.16 0 .05-.3.38-.3.38l-.36.3-1.24.6.08.07 1.22-.5-.1.7-.26.17s-.23.1-.25.22c-.02.12-.33.28-.33.28l.04.16.17-.13.15-.14.12-.15.3-.2.2-.05.06.47-.02.23-.08.2-.2.27-.25.27-.63.5.53-.25.02.3.14.16v-.63l.16-.1.24-.18.15-.14.05-.2.08-.23-.04-.34V24.3l.05-.16.2-.17.15-.08-.02.4v.32l-.1.12-.2.17-.03.17.37-.2v.6l.02.23v.2l.33-.12-.08-.1-.12-.26v-.83l-.02-.2.02-.17v-.18l.02-.22.1-.2.1-.2.26-.07v.15l-.03.25-.06.24-.26.2-.03.15.18-.1-.06.5v.2l.17-.18-.02-.32.04-.17.06-.14.06-.1.04-.17.06-.16v-.12l.14.34.06.24.07.26v.63l-.1.23-.16.08h-.4l.24.1-.12.3.37-.24-.04.22-.06.2h.16l.1-.1v-.25l.17.25.02.13.2.07.13.06-.25-.3-.04-.1-.03-.13.4.14.25.03v-.06l-.24-.04-.25-.1-.12-.1v-.12l.03-.2v-.45l.06-.2v-.3l.36.17.2.1.25.07.2.03.18.05.18.08-.33-.2z" fill="#1d81a4"/></g><g><path d="M28.73 23.66l.2.16.18.2.36.43.46.8.02.5-.1.4-.14.18v.1l.16-.22.14-.34v-.45s.2.2.2.22l.04.24-.06.14-.06.2-.06.2.1.26.1.1-.1-.34v-.16l.13-.24.24.38.02.15c0 .03.1.18.1.18l-.03-.34-.1-.16-.05-.1.38.12.34.35-.34-.4-.34-.1-.1-.12-.1-.1v-.17l-.04-.1-.08-.13-.07-.1-.1-.17-.32-.5.73.2.23.1.35.16.58.22.7.88-.6-.88.07-.02.5.3.54.15-.57-.24-.42-.25h-.2l-.12-.04-.44-.18-.33-.14-.3-.14-.24-.06-.3-.12-.17-.1-.2-.23-.15-.2-.14-.26-.12-.2-.16-.16-.1-.17-.12-.04.05.24-.02.16z" fill="#1d81a4"/></g><g><path d="M29.93 21.15l.18-.1h.17l.1-.1.14-.14h.25c.12 0 .2.02.25 0l.26-.03.22-.1.2-.22.23-.15.23-.16.15-.16.24-.16.28-.2.2-.26.2-.16.14-.1.28-.1.32-.07-.5.2-.25.17-.2.26-.08.12-.2.14-.32.24-.18.2-.14.1-.2.08.47-.1h.2l.16-.04.18-.05.26-.04-.26.15H34.03l.27.04h-.44l-.58.02-.4.02h-.54l-.26.05-.24.1-.17.16-.17.14-.22.02.53.03h.66l.2-.02.17-.05.17-.12.28-.14-.35.3.14-.03.2-.06.2-.08.25-.05h.22l-.02.1h-.32l-.22.08-.14.1-.2.04-.1.05h-.16l-.24.02.2.2.07.1-.23-.17-.18-.1-.22-.03h-.27l-.35-.02h-.27l-.24-.04-.26-.02-.32.05-.1.1-.18.05-.17.03-.26-.03.2-.07z" fill="#1d81a4"/></g><g><path d="M29.43 22l.2.12.14.08h.2l.1.13.23.1.27.08h.2l.02-.03.18-.14.2-.28.37-.32.5-.3-.67.54-.13.2-.15.25-.2.1.37.13.4.03h.3l.2-.08.27-.2h.8l.68.04-.97.04-.45.02-.15.07-.15.14-.15.1.75.33.12.15-.2-.1-.6-.26h-.38l-.24.02h-.12v.15l.27.23.2.22.18.26v.2l.1.22.26.3v.36l-.1.14v-.26l-.1-.22-.15-.18-.1-.17-.1-.25v-.2l-.26-.24-.26-.2-.1-.15-.3-.2-.26-.12-.34-.12-.23-.07-.23-.1-.16-.03-.04-.15-.2-.08-.07-.03-.2-.06.23-.17z" fill="#1d81a4"/></g><g><path d="M31.2 24.67l.24.04.2.07.25-.06h.6l.47.04h.33l.26-.07h.7l.28.06h-.69l-.26.03v.06l.03.1-.1.1v-.1l-.03-.12-.03-.03-.24.04-.22.02-.34-.02h-.73l-.17.06.44.1.3.1.3.13h.37l.06.08H34l.23.02.1.04.67.04-.7.02-.12-.04-.2-.02h-.73l-.06.16-.03.06-.03-.16-.04-.1H33l-.16-.02.33.43-.42-.42-.25-.13-.26-.08-.18-.03-.24-.1-.22-.05-.2-.07-.2-.06-.26-.08.26-.03z" fill="#1d81a4"/></g><g><path d="M28.04 24.76l.1.1.15.15.16.14.17.1.2.13.16.15.17.17.13.25.1.12v.18l-.05-.1-.12-.2-.12-.18-.12-.17-.15-.14-.15-.1-.15-.06.55.53.03.1-.62-.55-.03-.07-.07-.07-.15-.1-.12-.1-.06-.27z" fill="#1d81a4"/></g><g><g clip-path="url(#aF)" opacity=".9"><path d="M27.8 26.22c.06-.25-.4-.12-.24-.42.02-.04.18-.15.24-.23.06-.13-.02-.2.16-.28.3-.14.43.08.5.24.1.13.03.13.2.24.1.08.15.05.28.1.5.27.52.84-.15.73-.1 0-.2-.07-.3-.1-.1 0-.2.07-.3.07-.22 0-.5-.18-.44-.37" fill="#1d81a4"/></g></g><g><g clip-path="url(#aG)" opacity=".8"><path d="M26.08 26.4c.14 0 .3-.04.42-.04.27 0 .4.1.63.02.1-.03.12-.13.2-.15.1-.04.3.02.37-.04.16-.16-.06-.42-.12-.52-.16-.16-.33-.26-.6-.24-.05 0-.2 0-.27.03-.07.08 0 .2-.07.23-.15.1-.37.06-.53.2-.14.12-.24.4.02.5" fill="#1d81a4"/></g></g><g><g clip-path="url(#aH)" opacity=".8"><path d="M31.87 25.4c.2 0 .43 0 .6.06.13.06.15.18.28.22.16.05.34-.08.48.04.12.1 0 .22-.1.3.06.07.18.12.3.15-.12.14-.4.2-.52.06-.15-.17.1-.22-.24-.27-.16-.03-.4-.03-.38.14.02.1.2.1.22.17.04.1-.04.2-.02.27.1.18.4.12.5.23.17.18-.13.3-.36.34-.08.03-.18-.02-.26 0-.1 0-.18.14-.33.1-.32-.06.03-.25.1-.35-.22-.05-.07-.6-.14-.8-.17.02-.43.17-.57.17-.08 0-.24-.05-.24-.16 0-.13.1-.04.2-.12.1-.06.15 0 .2-.13.05-.08-.1-.16-.07-.25.04-.17.08-.22.34-.16" fill="#1d81a4"/></g></g><g><g clip-path="url(#aI)" opacity=".8"><path d="M34.63 22.28c.14 0 .32-.03.44 0 .2.05.3.18.5.24.13-.15 0-.4.34-.5.05.1 0 .18 0 .26v.23c-.03.18-.03.33-.32.23-.1.2.35.3-.06.44-.28.1-.36-.1-.5-.18-.07-.04-.23 0-.3-.02.03 0-.2-.33-.2-.07 0 .25.35.2.45.38-.16.12-.52-.08-.75-.13-.32-.06-.34-.17-.52-.42.18-.08.32-.03.5-.18.15-.1.2-.2.4-.25" fill="#1d81a4"/></g></g><g><g clip-path="url(#aJ)" opacity=".85"><path d="M31.8 22.34c.15-.07.16-.3.34-.3.14 0 .15.15.25.17.1.03.26-.07.37-.08.13-.02.25-.08.36-.08.04.1-.08.1-.12.17-.04.1 0 .18 0 .27-.04.12-.16.1-.2.17-.05.07.05.16.02.25-.17 0-.28-.08-.42-.03-.12.05-.1.18-.3.16-.15-.02-.17-.14-.3-.2-.07-.02-.2.03-.3.02-.13-.03-.22-.1-.33-.14 0-.14-.16-.28.06-.36.18-.07.4.1.58 0z" fill="#1d81a4"/></g></g><g><g clip-path="url(#aK)" opacity=".9"><path d="M30.94 19.7c.43-.05.9.05 1.2-.23.12-.1.02-.18.22-.24.12-.03.2 0 .3.02.15 0 .23.06.37.08.1 0 .34-.05.38.08.06.14-.15.15-.2.24-.07.12-.03.24-.1.35-.23.33-.52.14-.84.1-.1 0-.22.06-.3.02-.17-.05-.15-.18-.27-.24-.25-.1-.43.1-.66.08-.2-.02-.38-.24-.1-.24" fill="#1d81a4"/></g></g><g><g clip-path="url(#aL)" opacity=".9"><path d="M29.66 22.67c.3-.13.5 0 .77.05.27.03.5-.05.7.1.14.1 0 .2.18.25.1.04.37 0 .47-.03.26-.05.6-.2.9-.13.26.06.46.34.38.56-.04.15-.16.16-.3.26-.15.1-.2.13-.3.28-.13.16-.03.17-.33.1-.2-.02-.27-.12-.4-.2-.43-.26-.23.03-.6.05-.14 0-.28-.13-.36-.2-.02.13-.12.38-.32.42-.1.04-.55-.04-.63-.14-.13-.18.17-.23-.15-.37-.23-.1-.45 0-.63-.12-.2-.14-.02-.22-.08-.4-.06-.15-.4-.2-.23-.4.13-.15.74-.07.95-.07" fill="#1d81a4"/></g></g><g><g clip-path="url(#aM)" opacity=".9"><path d="M28.33 23.75c-.06.26.5.36.44.57-.02.1-.2.1-.3.1-.22.05-.16-.02-.34-.03-.33-.03-.5.05-.57.3-.02.17-.02.43.18.48.24.07.5-.28.8-.18.28.08.3.38.52.5.1.04.22.04.3.1.14.07.2.25.4.28.4.08.05-.2.13-.38.15-.27.3.25.4.3.05.03.18-.05.26-.02.08.03.1.1.16.14.1.05.22.22.3.27.06.03.06.2.25.08.12-.08-.02-.2.02-.3.07-.22.27-.3.3-.57-.2-.02-.48.04-.6-.07-.1-.08-.14-.15-.04-.23.16-.13.23-.03.35.03.25.1.4.4.63.2.1-.05 0-.18.1-.25.1-.06.25-.03.35-.1.04-.03-.04-.14 0-.16.04-.05.1-.03.14-.06.06-.03.18 0 .25-.03.2-.15.06-.33-.1-.38-.07 0-.15.02-.2 0-.13-.03-.2-.16-.3-.16-.28-.07-.44.2-.62-.1-.1.14-.35.12-.5.1.07-.06.42-.16.14-.2-.2-.04-.38.17-.54.17-.3 0-.12-.16-.25-.22-.1-.1-.3-.05-.47-.1-.14-.03-.22-.1-.4-.13-.2 0-.25.05-.43.07-.25.02-.7-.32-.75-.05" fill="#1d81a4"/></g></g><g><g clip-path="url(#aN)" opacity=".9"><path d="M25.47 22.05c.34-.15.43.16.7.13.23-.03.3-.47.37-.62.13-.26.1-.18.4-.3.23-.1.35-.33.4-.5.08-.23-.05-.25-.1-.46-.07-.26.24-.5-.25-.5-.43 0-.23.18-.35.43-.13.25-.5.3-.35.6-.24.07-.38-.2-.63 0-.08.07-.14.38-.1.46.1.17.43.08.33.33-.1.18-.37.15-.4.42" fill="#1d81a4"/></g></g><g><g clip-path="url(#aO)" opacity=".8"><path d="M25.23 22.42c.1-.04.22-.08.34-.06.08 0 .14.08.2.08.13.02.17-.03.27-.03.28 0 .85.02.73.36-.02.04-.24.2-.3.23l-.2.33c-.07.15 0 .12-.17.23-.12.08-.28.13-.4.2.16.22.6.14.18.4-.2.08-.5.16-.75.1-.2-.07-.2-.17-.33-.28-.08-.08-.18-.13-.3-.22-.23-.17-.06-.4-.4-.5-.27-.1-.47 0-.64-.25-.14-.25-.04-.4.25-.48.15-.05.5-.1.66-.03.28.1.06.38.52.43.6.06.2-.52.53-.52" fill="#1d81a4"/></g></g><g><g clip-path="url(#aP)" opacity=".89"><path d="M21.05 23.33s.06-.06.02-.13c.25-.03.16-.1.1-.18h-.2c-.08-.06-.06-.13-.1-.2-.22-.3-.08-.38.34-.4.46-.06 1.35.02 1.66.34.14.15.42.4.42.6 0 .33-.28.15-.53.23-.2.06-.1.17-.2.22-.1.06-.24 0-.34.03-.48.15-.03.37-.17.62-.1.16-.43.16-.53.35-.02.05.04.15 0 .2-.06.1-.16.1-.24.2-.2.27-.07.24-.4.35-.23.08-.44.28-.7.28-.18-.2-.18-.23-.06-.46.02-.06.1-.2.14-.22.08-.08.24.02.24-.14-.2.04-.38.06-.52-.05-.04-.06.02-.16-.04-.2-.08-.1-.3-.06-.35-.14-.16-.22.27-.1.4-.2.17-.2-.2-.1-.2-.1-.14-.02-.22.08-.36-.05.2-.16-.1-.17-.23-.22-.04 0-.1.05-.14.03-.07-.02-.04-.1-.08-.12-.15-.07-.15-.1-.3-.16-.13-.03-.56-.02-.3-.2.1-.06.4 0 .53 0 .2.02.37.08.57.05.22-.05.37-.14.57-.18.32-.06.73-.15 1.03-.14" fill="#1d81a4"/></g></g><g><g clip-path="url(#aQ)" opacity=".9"><path d="M27.52 21.98c.04-.13.26-.36.46-.34.3.05.16.37.46.25.1-.07.1-.15.16-.2.06-.08.13-.15.2-.2.02-.02.13.02.15-.02.07 0 .05-.12.07-.12.04-.03.28-.07.3-.1.2-.15.34-.64.82-.5.3.1.24.26.1.4-.08.06-.2.06-.3.13-.06.04-.02.17-.13.24.12.03.28-.06.36-.04.16.04.36.16.1.28.12.16.26.27.04.37-.2.1-.3-.03-.47-.02-.6.04-.2.46-.5.58.3.15.64.2.17.37-.04 0-.3.08-.37.08-.13 0-.3-.2-.44-.2-.5.05.34.36.27.54-.06.16-.28.04-.4.1-.17.13-.08.27-.2.4-.1.07-.25.07-.34.12-.12.1-.05.2-.16.25-.28.15-.62-.04-.75-.23-.04-.05.05-.14 0-.2-.06-.07-.13-.03-.2-.07-.02-.03-.33-.2-.37-.2-.22 0-.5.27-.68.36.17.27-.3.27-.5.25-.12 0-.2.02-.32-.02-.26-.1-.17-.12-.17-.28.02-.56.66-.44 1.16-.46.27 0 .53.02.55-.24.02-.32-.5-.2-.5-.53.03-.27.36-.2.58-.35.07-.04-.02-.13.07-.18.06-.03.17.02.24 0 .06-.03.14 0 .2 0 .05-.03.03-.17.08-.2.1-.04.2-.06.37-.04" fill="#1d81a4"/></g></g><g><g clip-path="url(#aR)" opacity=".89"><path d="M24.56 24.56c.02-.1.1-.14.22-.2.16-.1.16-.02.28-.17 0 0 .1-.27.1-.22 0-.2-.03-.08-.14-.18-.08-.06-.16-.08-.24-.16-.04-.07.04-.16-.02-.23-.16-.13-.5-.08-.7-.18-.1.06-.17.18-.17.26-.34 0-.3-.16-.4-.3-.06-.1-.06-.12-.16-.22-.04-.05-.16-.03-.2-.07-.04-.05 0-.13-.04-.2-.1-.1-.37-.45-.6-.24-.15.13.05.22.1.32.1.08.17.2.24.3.04.03.04.1.06.12.06.05.16 0 .22.04.1.1 0 .22.06.33.16.3.5.02.73.22.3.18-.1.4 0 .62.1.14.5.24.68.16" fill="#1d81a4"/></g></g><g><g clip-path="url(#aS)" opacity=".8"><path d="M29.16 21.05c.05-.1.18-.32.17-.4-.02-.12-.2-.1-.2-.22 0-.14.3-.25.32-.37.02-.14-.24-.05-.1-.25.06-.07.2-.08.25-.14.1-.15 0-.2.2-.35.1-.06.3-.22.4-.14.06.07-.13.33-.18.37.28.1.26.2.12.5-.02.05-.02.1-.05.16-.04.07-.1.04-.12.14-.02.1.1.17.1.27 0 .5-.62.83-.94.48" fill="#1d81a4"/></g></g><g><g clip-path="url(#aT)" opacity=".89"><path d="M29.07 25.72c.46.05.26-.37.4-.52.06-.05.27 0 .32-.08.12-.1 0-.26.06-.37.08-.17.46-.28.32-.52-.16-.3-.44.03-.67.08-.27.07-.35-.15-.6-.12-.24.03-.14.1-.22.24-.06.07-.2.18-.24.25-.1.2.04.1.12.24.04.12.02.25.08.35.06.1.2.1.28.18.06.08.02.24.15.3" fill="#1d81a4"/></g></g><g><g clip-path="url(#aU)" opacity=".8"><path d="M32.87 23.2c-.1-.14-.45-.2-.1-.34.16-.05.34.05.48.05.54 0-.03-.32.08-.48.05-.07.23-.1.3-.1.22-.02.36 0 .55-.1.23-.14.37-.42.62-.5.2-.04.5.04.68.1.02.34-.25.18-.43.4-.07.08-.04.2-.14.28-.07.07-.24.08-.33.13-.16.1-.3.2-.32.35-.03.12.02.23-.17.27-.12.03-.36-.12-.46-.03-.08.08.03.2.14.2 0 .14-.2.06-.3.14-.1.1-.06.23-.07.34-.17.03-.35 0-.5.03 0-.05-.02-.1 0-.16-.17-.03-.17.08-.15.17.22.12.6.34.86.32.05.06.1.2.03.25-.1.12-.23 0-.32-.04-.16-.07-.17 0-.33.04-.15.05-.33.05-.33.24-.2 0-.55-.15-.58-.34-.02-.13.12-.1.17-.18.12-.14-.03-.3.03-.43.04-.1.16-.14.26-.2.23-.1.5-.16.35-.4z" fill="#1d81a4"/></g></g><g><g clip-path="url(#aV)" opacity=".8"><path d="M21.77 26.2c.12 0 .2.03.32.03.05 0 .13.05.17.05.08 0 .1-.1.16-.1.4-.06.35.07.67.2.37.13.4-.13.63-.3.12-.07.23-.06.3-.17.05-.04-.03-.1-.02-.17.04-.03.14-.08.16-.13.06-.18.12-.08 0-.26l-.3-.3c-.1-.04-.25-.04-.35-.1-.13-.05-.15-.18-.23-.25-.55-.4-.94.55-1.08.8-.1.08-.1.28-.15.38-.1.13-.4.1-.2.34" fill="#1d81a4"/></g></g><g><g clip-path="url(#aW)" opacity=".89"><path d="M22.9 24.73c.06.2-.2.27-.2.47 0 .1 0 .2.1.26.22.13.14-.02.22-.1.02-.02 0-.1.02-.13.06-.07.14-.02.18-.07.1-.06.24-.06.2-.22-.06-.2-.38-.05-.48-.2" fill="#1d81a4"/></g></g><g><g clip-path="url(#aX)" opacity=".9"><path d="M31.08 21.76c.1 0 .3.04.4 0 .2-.06.1-.13.27-.2.14-.07.3 0 .43-.07.2-.13.06-.1.08-.26 0-.16.06-.43.2-.6.14-.16.63-.27.32-.55-.14.14-.22.17-.46.2-.12 0-.14-.05-.3 0-.1 0-.2.1-.3.12-.13.03-.48-.1-.56.08-.08.1.12.18.15.27.05.12.02.12-.03.26-.1.17.04.08-.15.18-.1.08-.22 0-.34.1-.08.06-.08.17-.12.25-.04.05 0 .1-.04.15-.02.03-.15.03-.17.05-.06.08-.2 0-.06.14.04.03.16.04.22.06.14 0 .36-.1.42-.18" fill="#1d81a4"/></g></g><g><g clip-path="url(#aY)" opacity=".9"><path d="M33.76 25.05c.1 0 .27.05.3.14 0 .1-.22.1-.1.2.05.05.1.04.15.05.07 0 .12.03.16.05.02 0 0 .05.04.06.02.02.08 0 .1 0l.1.12c.12.05.46.03.44.25 0 .14-.13.14-.24.1-.05-.02-.07-.08-.12-.1-.05-.02-.12.02-.18-.02 0 .06.07.1.07.15 0 .07-.04.17-.16.1-.07.06-.12.13-.22.06-.1-.06-.02-.12-.06-.18-.1-.24-.32 0-.45-.12-.04.15 0 .3-.2.13 0-.02-.1-.12-.1-.14-.02-.07.08-.17.05-.22-.1-.2-.17.2-.3.2-.12 0-.07-.1-.14-.15-.1-.05-.18 0-.28-.03-.06-.02-.08-.1-.13-.1-.07-.05-.13 0-.18-.04-.15-.1-.08-.25.02-.34.03-.02.1 0 .13-.03.03-.05 0-.07 0-.1.03 0 .08-.16.08-.18-.04-.1-.25-.17-.33-.23-.14.1-.22-.1-.24-.17 0-.05-.04-.08-.03-.13 0-.12.05-.1.15-.12.36-.08.38.2.47.4.04.1.07.22.24.2.2-.05.04-.24.25-.3.18-.02.2.13.32.2.03 0 .07-.03.12 0 .02 0 0 .07.04.1.02 0 0 .05.03.07.02.02.1 0 .12 0 .04.05.07.08.08.15" fill="#1d81a4"/></g></g><g><path d="M27.36 18.43l-.9.18s-.1.08-.45.13c-.33.05-.55-.1-.55-.1l-.63.02-.3-.12-.48.15-.6-.38-.58.02-.68.03.46.24.7-.03.76.36.7-.15.48.1.56.13.7-.02h.5l.32-.55z" fill="#1d81a4"/></g></g></svg>