<svg xmlns="http://www.w3.org/2000/svg" viewBox="0 0 54.705734 54.710266" height="54.7" width="54.7"><defs><clipPath id="a"><path d="M30 27c-2.2 0-4 2.8-4 2.8S23.7 27 21.7 27c-2.3 0-4 2.8-4 2.8s-1.5-2.7-4-2.7C10.8 27 9.2 30 9.2 30S7.3 27 5 27c-2.3.2-4 0-4 0V15l5.7-9S12 .4 19.7.4 37 9.3 37 9.3 41.6 22 38.3 27c-1.7 0-4 2.8-4 2.8S32.6 27 30 27"/></clipPath><linearGradient id="b" gradientTransform="scale(34.37207) rotate(120 .398 .304)" gradientUnits="userSpaceOnUse" x2="1"><stop offset="0" stop-color="#00779b"/><stop offset=".2" stop-color="#00779b"/><stop offset=".4" stop-color="#408cad"/><stop offset=".5" stop-color="#5998b7"/><stop offset=".7" stop-color="#89b4cc"/><stop offset="1" stop-color="#89b4cc"/></linearGradient><clipPath id="c"><path d="M0 41h41V0H0v41z"/></clipPath></defs><g clip-path="url(#a)" transform="matrix(1.33333 0 0 -1.33333 0 54.71)"><path d="M30 27c-2.2 0-4 2.8-4 2.8S23.7 27 21.7 27c-2.3 0-4 2.8-4 2.8s-1.5-2.7-4-2.7C10.8 27 9.2 30 9.2 30S7.3 27 5 27c-2.3.2-4 0-4 0V15l5.7-9S12 .4 19.7.4 37 9.3 37 9.3 41.6 22 38.3 27c-1.7 0-4 2.8-4 2.8S32.6 27 30 27" fill="url(#b)"/></g><g clip-path="url(#c)" transform="matrix(1.33333 0 0 -1.33333 0 54.71)"><path d="M27.2 8.6c0 .3 1 1 .7 1-.2.3-.8 0-1.6.2-.4 0-1.3.7-2.3 1.4 0 .4-.6 1.4-.6 1.8v.2l-.8-1.2c-.2 0-.4.2-.5.3-1.7.8-4.4-.2-4.4-.6 0-.2-.2-1.5 3.8-2.7l.7-1c.2 0 0 .6 0 1 0-.2.2-.2.3-.3h.8c.3-.3.8-1 1-1V8c.3.3.6.6 1 .7.5 0 1 0 1.3-.3.6-.6 1.6-1.7 1.7-1.6 0 0-1 1.5-.8 1.8M9.2 11.3s0 .3-.2.5h.9c0-.4.6-1 .6-1v.2l.7.6c.5 0 .8-.2 1-.4.6-.4 1.4-1.3 1.5-1.2 0 0-.8 1-.7 1.3 0 .2.7.6.6.7 0 .2-.6 0-1.2.2-.3 0-1 .6-1.8 1-.2.4-.6 1.2-.6 1.5l-.6-.7-.4.2c-1.4.7-3.4.2-3.4 0s0-1 3-2.2l.6-.7M12.6 17c.2-.2.7-1 .7-.8l.7.7c.5-.2 1-.3 1.2-.5.5-.5 1.3-1.5 1.4-1.4 0 0-.8 1.4-.7 1.6 0 .3.5.7.4 1 0 0-.5-.2-1.2 0l-2 1.4-.5 1.5v.2l-.7-1c0 .2-.2.3-.4.3-1.5.8-3.5.3-3.5 0 0-.2 0-1.3 3.2-2.6l.6-.8s0 .4-.2.6h1" fill="#fff"/><path d="M20.5 39c-10 0-18.3-8.4-18.3-18.5 0-10 8.2-18.3 18.3-18.3 10 0 18.4 8.2 18.4 18.3 0 10-8.4 18.4-18.5 18.4m0-39C9.2 0 0 9.2 0 20.5S9.2 41 20.5 41 41 31.8 41 20.5 31.8 0 20.5 0" fill="#737577"/></g></svg>