<?xml version="1.0" encoding="UTF-8" standalone="no"?>
<svg
   xmlns:dc="http://purl.org/dc/elements/1.1/"
   xmlns:cc="http://creativecommons.org/ns#"
   xmlns:rdf="http://www.w3.org/1999/02/22-rdf-syntax-ns#"
   xmlns:svg="http://www.w3.org/2000/svg"
   xmlns="http://www.w3.org/2000/svg"
   viewBox="0 0 54.705734 54.710266"
   height="54.710266"
   width="54.705734"
   xml:space="preserve"
   version="1.1"
   id="svg2"><metadata
     id="metadata8"><rdf:RDF><cc:Work
         rdf:about=""><dc:format>image/svg+xml</dc:format><dc:type
           rdf:resource="http://purl.org/dc/dcmitype/StillImage" /></cc:Work></rdf:RDF></metadata><defs
     id="defs6"><clipPath
       id="clipPath16"
       clipPathUnits="userSpaceOnUse"><path
         id="path18"
         d="m 29.953,27.103 c -2.202,0.032 -3.944,2.66 -3.944,2.66 l 0,0 c 0,0 -2.314,-2.657 -4.288,-2.66 l 0,0 c -2.285,-0.005 -4.067,2.66 -4.067,2.66 l 0,0 c 0,0 -1.459,-2.623 -4.086,-2.66 l 0,0 c -2.629,-0.028 -4.254,2.66 -4.254,2.66 l 0,0 c 0,0 -1.872,-2.74 -4.264,-2.66 l 0,0 C 2.66,27.184 1.044,27.081 1.044,27.081 l 0,0 0,-12.052 5.693,-9.174 c 0,0 5.378,-5.376 12.97,-5.376 l 0,0 c 7.592,0 17.398,8.856 17.398,8.856 l 0,0 c 0,0 4.428,12.653 1.093,17.768 l 0,0 c -1.661,-0.005 -3.958,2.66 -3.958,2.66 l 0,0 c 0,0 -1.66,-2.699 -4.287,-2.66" /></clipPath><linearGradient
       id="linearGradient24"
       spreadMethod="pad"
       gradientTransform="matrix(-17.186037,29.767084,29.767084,17.186037,29.561523,3.8554688)"
       gradientUnits="userSpaceOnUse"
       y2="0"
       x2="1"
       y1="0"
       x1="0"><stop
         id="stop26"
         offset="0"
         style="stop-opacity:1;stop-color:#00779b" /><stop
         id="stop28"
         offset="0.241171"
         style="stop-opacity:1;stop-color:#00779b" /><stop
         id="stop30"
         offset="0.353914"
         style="stop-opacity:1;stop-color:#408cad" /><stop
         id="stop32"
         offset="0.460479"
         style="stop-opacity:1;stop-color:#5998b7" /><stop
         id="stop34"
         offset="0.734813"
         style="stop-opacity:1;stop-color:#89b4cc" /><stop
         id="stop36"
         offset="1"
         style="stop-opacity:1;stop-color:#89b4cc" /></linearGradient><clipPath
       id="clipPath44"
       clipPathUnits="userSpaceOnUse"><path
         id="path46"
         d="m 0,41.033 41.029,0 L 41.029,0 0,0 0,41.033 Z" /></clipPath></defs><g
     transform="matrix(1.3333333,0,0,-1.3333333,0,54.710267)"
     id="g10"><g
       id="g12"><g
         clip-path="url(#clipPath16)"
         id="g14"><g
           id="g20"><g
             id="g22"><path
               id="path38"
               style="fill:url(#linearGradient24);stroke:none"
               d="m 29.953,27.103 c -2.202,0.032 -3.944,2.66 -3.944,2.66 l 0,0 c 0,0 -2.314,-2.657 -4.288,-2.66 l 0,0 c -2.285,-0.005 -4.067,2.66 -4.067,2.66 l 0,0 c 0,0 -1.459,-2.623 -4.086,-2.66 l 0,0 c -2.629,-0.028 -4.254,2.66 -4.254,2.66 l 0,0 c 0,0 -1.872,-2.74 -4.264,-2.66 l 0,0 C 2.66,27.184 1.044,27.081 1.044,27.081 l 0,0 0,-12.052 5.693,-9.174 c 0,0 5.378,-5.376 12.97,-5.376 l 0,0 c 7.592,0 17.398,8.856 17.398,8.856 l 0,0 c 0,0 4.428,12.653 1.093,17.768 l 0,0 c -1.661,-0.005 -3.958,2.66 -3.958,2.66 l 0,0 c 0,0 -1.66,-2.699 -4.287,-2.66" /></g></g></g></g><g
       id="g40"><g
         clip-path="url(#clipPath44)"
         id="g42"><g
           transform="translate(27.1611,8.6035)"
           id="g48"><path
             id="path50"
             style="fill:#ffffff;fill-opacity:1;fill-rule:nonzero;stroke:none"
             d="M 0,0 C 0.059,0.319 0.901,0.896 0.771,1.115 0.659,1.331 0.037,0.907 -0.73,1.155 -1.206,1.312 -2.073,1.934 -3.095,2.577 -3.284,2.984 -3.741,4.032 -3.731,4.397 -3.787,4.642 -3.706,4.6 -3.778,4.614 -3.84,4.619 -4.361,3.825 -4.608,3.446 -4.77,3.524 -4.927,3.609 -5.09,3.681 -6.898,4.495 -9.551,3.539 -9.575,3.1 -9.605,2.924 -9.786,1.609 -5.75,0.387 c 0.2,-0.294 0.583,-0.833 0.678,-0.845 0.079,-0.013 -0.073,0.406 -0.192,0.705 0.147,-0.04 0.287,-0.081 0.447,-0.123 0.263,0.023 0.488,0.028 0.727,0.042 0.238,-0.341 0.77,-1.071 0.871,-1.031 0.132,0.054 0.072,0.118 0.106,0.166 0.294,0.438 0.601,0.692 0.839,0.835 C -1.7,0.072 -1.24,-0.04 -0.896,-0.184 -0.303,-0.802 0.731,-1.879 0.837,-1.832 0.943,-1.777 -0.062,-0.316 0,0" /></g><g
           transform="translate(9.2017,11.332)"
           id="g52"><path
             id="path54"
             style="fill:#ffffff;fill-opacity:1;fill-rule:nonzero;stroke:none"
             d="M 0,0 C 0.067,-0.01 -0.07,0.289 -0.174,0.506 -0.062,0.469 0.047,0.43 0.169,0.391 0.374,0.391 0.542,0.379 0.727,0.37 0.923,0.115 1.361,-0.43 1.438,-0.41 1.536,-0.379 1.489,-0.333 1.51,-0.303 1.715,-0.01 1.941,0.145 2.116,0.229 2.558,0.145 2.911,0.038 3.183,-0.085 3.663,-0.561 4.501,-1.384 4.587,-1.362 4.655,-1.329 3.823,-0.235 3.856,-0.018 3.885,0.203 4.506,0.551 4.397,0.714 4.295,0.871 3.845,0.617 3.245,0.847 2.878,0.985 2.18,1.485 1.371,2.004 1.208,2.308 0.813,3.074 0.806,3.324 0.753,3.498 0.813,3.467 0.761,3.478 0.714,3.487 0.35,2.966 0.179,2.714 0.053,2.782 -0.075,2.85 -0.199,2.911 -1.616,3.605 -3.603,3.112 -3.6,2.802 -3.619,2.681 -3.694,1.771 -0.548,0.636 -0.38,0.414 -0.075,0.016 0,0" /></g><g
           transform="translate(12.5859,17.0762)"
           id="g56"><path
             id="path58"
             style="fill:#ffffff;fill-opacity:1;fill-rule:nonzero;stroke:none"
             d="m 0,0 c 0.21,-0.294 0.67,-0.933 0.75,-0.907 0.099,0.036 0.051,0.091 0.074,0.124 0.214,0.337 0.453,0.519 0.637,0.619 0.461,-0.099 0.83,-0.225 1.113,-0.371 C 3.077,-1.083 3.955,-2.04 4.042,-2.01 4.127,-1.977 3.249,-0.702 3.281,-0.448 3.312,-0.196 3.959,0.211 3.844,0.396 3.739,0.582 3.265,0.283 2.642,0.55 2.254,0.714 1.525,1.287 0.679,1.893 0.508,2.244 0.09,3.13 0.082,3.428 0.028,3.629 0.09,3.589 0.039,3.608 -0.012,3.618 -0.39,3.012 -0.566,2.718 -0.702,2.799 -0.835,2.878 -0.967,2.951 -2.456,3.752 -4.532,3.179 -4.531,2.821 -4.551,2.683 -4.63,1.627 -1.339,0.313 -1.167,0.056 -0.835,-0.413 -0.757,-0.429 -0.692,-0.446 -0.832,-0.094 -0.943,0.16 -0.819,0.113 -0.708,0.069 -0.578,0.025 -0.366,0.025 -0.191,0.009 0,0" /></g><g
           transform="translate(20.5151,38.874)"
           id="g60"><path
             id="path62"
             style="fill:#737577;fill-opacity:1;fill-rule:nonzero;stroke:none"
             d="m 0,0 c -10.121,0 -18.357,-8.237 -18.357,-18.358 0,-10.12 8.236,-18.356 18.357,-18.356 10.121,0 18.354,8.236 18.354,18.356 C 18.354,-8.237 10.121,0 0,0 m 0,-38.874 c -11.312,0 -20.515,9.205 -20.515,20.516 0,11.312 9.203,20.517 20.515,20.517 11.311,0 20.514,-9.205 20.514,-20.517 0,-11.311 -9.203,-20.516 -20.514,-20.516" /></g></g></g></g></svg>