<svg xmlns="http://www.w3.org/2000/svg" viewBox="0 0 54.705734 54.710266" height="54.7" width="54.7"><defs><clipPath id="a"><path d="M0 41h41V0H0v41z"/></clipPath><clipPath id="b"><path d="M8.6 16.2h7v-2h-7v2z"/></clipPath><clipPath id="c"><path d="M30.8 21.3h3V19h-3v2.3z"/></clipPath><clipPath id="d"><path d="M13.5 19.6h4.7v-3h-4.7v3z"/></clipPath><clipPath id="e"><path d="M8 18.4h12.2v-7.8H8v7.8z"/></clipPath><clipPath id="f"><path d="M4 22h5.5v-4H4v4z"/></clipPath><clipPath id="g"><path d="M17.4 30.8h14v-4h-14v4z"/></clipPath><clipPath id="h"><path d="M8.2 30.8h11v-8h-11v8z"/></clipPath><clipPath id="i"><path d="M29 18h8V14h-8V18z"/></clipPath><clipPath id="j"><path d="M20.8 28.5h3.6v-2.8h-3.6v2.8z"/></clipPath><clipPath id="k"><path d="M17.6 28h3.7v-2h-3.7v2z"/></clipPath><clipPath id="l"><path d="M28.2 29.7h4.6V26h-4.6v3.7z"/></clipPath><clipPath id="m"><path d="M33.3 21.8h4.5v-2.6h-4.5v2.6z"/></clipPath><clipPath id="n"><path d="M28 21.2h4.2v-2h-4v2z"/></clipPath><clipPath id="o"><path d="M27.4 15.5h5.3v-2h-5.3v2z"/></clipPath><clipPath id="p"><path d="M23 23.6h9v-3.2h-9v3.2z"/></clipPath><clipPath id="q"><path d="M20.8 28h10.8v-5.5H20.8V28z"/></clipPath><clipPath id="r"><path d="M16.6 19.5h4v-4.8h-4v4.8z"/></clipPath><clipPath id="s"><path d="M12.4 23.8h7v-4h-7v4z"/></clipPath><clipPath id="t"><path d="M2 27h10.2v-7H2v7z"/></clipPath><clipPath id="u"><path d="M15.4 24h11.2v-7.4H15.4V24z"/></clipPath><clipPath id="v"><path d="M10.5 24.4H16V20h-5.5v4.4z"/></clipPath><clipPath id="w"><path d="M24 17.6h2.3v-4.3H24v4.3z"/></clipPath><clipPath id="x"><path d="M22.6 26.7h3.6v-3.3h-3.6v3.3z"/></clipPath><clipPath id="y"><path d="M30 24.7h7v-6h-7v6z"/></clipPath><clipPath id="z"><path d="M9 28h5v-3.6H9V28z"/></clipPath><clipPath id="A"><path d="M11 26.3h1.5v-1.6H11v1.6z"/></clipPath><clipPath id="B"><path d="M26.5 19h5v-3.7h-5V19z"/></clipPath><clipPath id="C"><path d="M29.7 27.7h6v-4h-6v4z"/></clipPath></defs><g clip-path="url(#a)" transform="matrix(1.33333 0 0 -1.33333 0 54.71)"><path d="M20.5 39c-10 0-18.3-8.4-18.3-18.5 0-10 8.2-18.3 18.3-18.3 10 0 18.4 8.2 18.4 18.3 0 10-8.4 18.4-18.5 18.4m0-39C9.2 0 0 9.2 0 20.5S9.2 41 20.5 41 41 31.8 41 20.5 31.8 0 20.5 0" fill="#737577"/><g clip-path="url(#b)" opacity=".9"><path d="M9.8 14.7c.3-.4.8-.3 1-.4H12c0 .2 0 .2.2.3h.3c0 .2-.3.4 0 .5h.2c.2 0 0 0 0 0 0-.3-.2-.5.2-.5-.2-.4 1 0 .6 0 .2.2.4 0 .5 0h.5c0 .2.4.4.5.5.2 0 .5 0 .6.2h-.4c-.3 0 0 0-.3.2-.4 0-.7-.3-1-.2.2.2.7.3.2.5-.2 0-.8 0-.4-.2-.2-.3-.5.2-1 0h-.3c-.2 0-.2.2 0 .3-.4 0-.5-.2-.7 0-.2 0 .2.3-.2.4l-.4-.2c-.2 0-.5.3-.6 0 .3 0 .5-.4 0-.4 0 0-.4.4-.3.5 0 .2-.4.2-.5 0 0-.2.2-.2-.2-.3h-1v-.4H9V15s.8 0 .8-.2" fill="#1d81a4"/></g><g clip-path="url(#c)" opacity=".9"><path d="M31 20c0-.8.7.3 1 .3.4 0 0-1-.3-1 .3-.7 1.2-.3 1.6 0 .2.3 0 .5.2.6l.4.3c0 .2-.4.7-.6.8-.3.3-.8.2-1 .2-.4 0-1 .2-1 0-.8 0-.7-1-.2-1.2" fill="#1d81a4"/></g><g clip-path="url(#d)" opacity=".9"><path d="M13.5 16.8c0 .2.2.5.4.6.3.2.2 0 .6 0 1 0 .8.2 1 .7.2 0 .4 0 .4.2v.2l.4.5c.3.2 1 .7 1.5.5.5-.2 0-.5 0-1v-.3c-.2-.3-.2-.2-.5-.3l-1-.6c-.3-.2-.3-.4-.5-.6-.5-.2-1 0-1.6 0h-.8" fill="#1d81a4"/></g><g clip-path="url(#e)" opacity=".9"><path d="M12.5 13.5c.5 0 1-.5.3-.8H12c-.2-.3 0-.4-.2-.5-.2-.3-.2-.7-.6-1-.7-.4-.7.2-1 .2-.6 0-.8-.7-1.3-.8-1-.2-.7.5-.4 1 .2 0 .5 0 .5.2.3.5 0 .2-.2.3-.2.2-.7.2-.4.5h.8c0 1-1-.2-1 .6.2.7 1 .5 1.5.6.4 0 1 .6.3.7l-.7-.2-.8.2c-.3 0 0-.5-.5 0v.6c0 .3 0 .8.5 1 .8 0 .4-.8 1-1H11c.2 0 .2.2.4.3h.4c.5 0 .4.3.7.6l.7.6c0 .3-.2.7 0 1-.2.2-.7.5-.2 1 .7.2.4-.6 1-.6.8 0 1.2.6 1.8.7h1.4c.6 0 2-1.4 1-1.6-.8 0-1.3 1-2.2.5.4-.3 0-.4 0-.6l-.6-.7c.7-.3 1 0 1.6 0 0-.2 0-.3.2-.4h.4l.7.2c1 0 2.2-1 1.8-1.7 0-.4-.2-.6-.8-.6H18c-.6 0-1.2.3-1.7.3-.7 0-.6-.6-1.3-.3-.5 0-.8.4-1.3.5-.3 0-1.2 0-1.2-.4" fill="#1d81a4"/></g><g clip-path="url(#f)" opacity=".9"><path d="M8.8 21c.5-.3.2-.5.3-.7.2 0 .6-.5.5-.6 0-.2-.7 0-1-.2V19c-.4-.5-1-.5-1.5-.5-1 0-.8.3 0 .7-1.7 0-.7-.7-1.5-1.2 0 .2-.3 0-.2.4-.2 0-.3 0-.4-.2-.7.6.5 1 .8 1.4-.5.3-1.6-.8-1.4 0 0 0 .3 0 .4.2 0 0-.4.2-.4.4.2.3.8 0 1 .3-.3.4-1.3 0-1.4 1 0 .2 0 .5.5.4.5-.3.2-.5.8-.6 1 0 1.2.3 2 .3.6 0 1.2-.3 1.5-.8" fill="#1d81a4"/></g><g clip-path="url(#g)" opacity=".9"><path d="M20 27.8c.4-.8 1.4-.5 2-.7.3 0 0-.2.5-.2.3 0 .3.4.5.4s.2-.2.5 0h.5c0 .2.3.3.6.3.2 0 .3 0 .5.2.5.3-.3.6 0 1h.7c.3-.3 0-.3 0-.5-.2-.3-.6-.8.3-.7 0-1 2.4-.3 1.5 0 .3.4.7 0 1-.2.6 0 .5 0 .8.3l.8.7c.6.2 1.2 0 1.4.4-.4.2-.5-.2-1 0-.3 0 0 .3-.4.5-.6.2-1.2-.5-1.7-.3.3.2 1.2.5.4.7-.4.2-1.7 0-.8-.4-.6-.4-1.2.5-2 .3-.3 0-.4-.5-.8-.4-.4 0-.4.5-.2.8-.5.3-.8-.4-1 0-.5 0 .2.6-.5.8-.5 0-.6-.3-1-.4-.2 0-1 .6-1 0 .6 0 .8-.8.2-.7-.3 0-1 .8-1 1 0 0-.6 0-.8-.2-.4-.4.2-.5-.5-.7-.7-.2-1.2 0-1.8 0v-.2h-.3c0-.4 0-.4.2-.6h.4l.2-.4c.3-.3 1.7 0 1.7-.6" fill="#1d81a4"/></g><g clip-path="url(#h)" opacity=".9"><path d="M13.7 30.7c1 .8.7-1.6 1.8-1.3.8.2.4.8 1.5.4 1-.4.2-.6.4-1.3.6 0 1-.5.2-.6-.2 0-.3.2-.7.2-.3 0-.7-.3-.7-.5h.8l.8-.5c.5-.3 1-.3 1.3-1h.3c0-.2-.3-.3-.3-.3v-.5s.3 0 .2-.2c0-.4-.6-.3-1-.3-1.3 0 .2.3-.2.7-.2.2-.5 0-.7 0-.2 0-.6.3-.8 0-.7-.7 1-.7 1-.7.6 0 1.4-.8.8-1-.4-.2-.7.2-1 0-.6 0-.6-.8-1.3-.7-.4 0-1 .7-.8 1 0 0 .2 0 .2.2v.7s0 .2.2.3c0 .3-.3 1-1 .7-.2-.2.2-.3.2-.5 0-.5-.2-.3-.4-.6s.4-.7-.3-1c-.8-.2-.6.5-1 .7-.4-.7.5-1-.7-1.4-.4-.2-1-.5-1.3-.5-.3 0-.3 0-.5.2l-.4.2c-.2.3 0 .4-.5.6H9c-.2 0 0 .5 0 .6l-.4.7c0 .5.2.6.5 1 .3-.2.4-.6.8-.3s-.2.5 0 .8h-1c-.5.3.2.3 0 .6 0 .6-.4.4-.6.7 0 .4.6.2.8.3.3 0 .5.4.7.5h1c.5 0 .2.4.5.6.5.3.4-.3.5-.5.7.5 1 .5 1 1.3 1 0 .7.5 1 1" fill="#1d81a4"/></g><g clip-path="url(#i)" opacity=".9"><path d="M29.5 17.4c-.2.4 0 .7.6.5.5-.4.4-.7 1-.3.4 0 .3.3.7.2.2 0 .3-.4.5-.4.6 0 .8.5 1.5.5.3 0 .7 0 1-.2.2-.2 0-.3 0-.5.3-.3.2-.2.6-.3.2 0 .3-.3.6-.4h.5c.2-.3 0-.5.2-.6 0-.2.3-.2.4-.4.2-.2 0-.6 0-.6 0 .3-.4.4-.8.4-.6-.2-.5-.4-.4-.8 0 0 .4-.8 0-.8-.2 0-.7 1-.6.2-.4 0-.4.6-.8.7H34c-.3 0-.3 0-.5-.2-.5 0-.7 0-1-.2-.2 0 0-.4-.5-.3 0 0 0 .3-.3.5-.6.5-1.4 0-2 .3-.7.2-.8 1.4-.8 1.8 0 .3 0 1 .5.8" fill="#1d81a4"/></g><path d="M22.8 9.4h-.2l-.2.3v.2l-.2.2V12l.4.3.4.2.4.2h.4l.2.3.4.3.4.2.5.2.4.2.3.2 1 .4H30l-.7.2.3.3-.5-.3H26.6l-.5-.4-.3-.2-.5-.2-.4-.2-.5-.2-.3-.3-.4-.2-.3-.2H23l.2.3.2.2h.2l.3.3.5.2 1 .5.2.2h-.4l-.8-.5-.5-.2h-.3l-.3-.2h-.2v.5l.2.3v.3l.3.5.4.4 1.7 1h-.4L24 16h-.3l-.4-.5-.2-.2v-1.7l-.4-.5-.3-.2H22v1.1l.4.2.4.3v.4l-.2-.2-.4-.4-.3-.2h-.2V14h-.3l-.2.4v.3l.2.6.3.5.2.3.3.4.2.4.3.2.4.3.3.3.3.5-.4.6-.3-.5V18l-.3-.2-.4-.2-.3-.3-.3-.2v-.2l-.2-.2-.3-.2v.2l.2 1.3v.9l-.2 1v.2l-.5-.6v-1.6l-.2-.3v-1V19l-.2.3-.2-.4v-1.4l-.2-.3V17l.2-.5V15l-.3-.3h-.3l-.4.2-.2.2-.2.3-.2.6-.2.7-.4.4-.5 1-.2.4-.4 1.2v.7l-.6.8-.3.5.3.4v.2l-.5-.6H14l-.5-.2H15.3V21h-.8L14 21H13.5v-.3h.6l.4.2h1.3l.2-.2v-.3l.3-.3.2-.2v-.5l-.2.2-.2.2h-.3l-.6.5h-.4l-.3.2v-.2l.5-.2.3-.2.5-.2.2-.3h-.4-.4c0 .2-.8.5-.8.5H13l-.5.2-.5.2H11.4l.3-.2h.2-.7v-.3l.4-.3.2.2h1.5l.3-.2h.4l.5-.2h.3v-.2H14l-.7.3H11.2l-.3.2H9v-.2H11l.3-.3h1.9l.6-.3H15l.4-.2h.3l.2-.3h.2v-.3l.2-.2V17.6H16l-.2.2H15l-.2.2-.2.2h-.3l-.5.3.5-.3h.2V18h-1.3l.2-.2H14.8l.5-.2h.6v-.2h.7l.2-.3-.8-.2h-1.8-.9l.7-.2-1.4-.7.3-.2.7.3.4.3h.9l.4.2h1.8l.2-.3.2-.2v-.3l.2-.4.3-.4.2-.2h-.5l-.3.2h-1.1l-.5.3h-1l.2-.2h1.6l.8-.2h.5l.5-.3h.3l.3-.3h.3l.4-.4.2-.2V12l.2-.5v-1.2l-.2-.3-.2-.3-.3-.2H21L21 9h.3l.4.2h.8z" fill="#1d81a4"/><path d="M22.2 24h-.8l.2-.2h.4l.6-.2h.3l.2-.3V23H23l-.2.4h-1.1l-.4.2H21l-.5-.3s-.2 0-.3-.2H20v-.6l-.2-.3V22l-.2-.6h-.2l-.2.4h-.5l-.3-.3H18s-.2 0-.3.2l-.5.3c0 .2-.7.8-.7.8l-.7.6-2.5 1.2.2.2 2.5-1-.3 1.3-.5.3s-.4.2-.5.5c0 .2-.7.5-.7.5v.3l.5-.2.3-.3.2-.2.6-.4h.4V27l-.5.7-.5.5-1.3 1 1-.5v.6l.4.4v-1.3l.5-.2.5-.4.2-.3.2-.4V24l.2-.3.4-.4h.3v1.5l-.3.2-.4.4v.4l.7-.5v2l.7-.2v-.2l-.3-.5V23l.2-.5V22h.6v.7l-.2.5-.5.4-.2.3.4-.3V25l.2-.2V24l.2-.3v-.2l.2-.4v-.7l.4.7.2.5V26l-.4.2h-.8l.5.2-.3.6.8-.5v.4l-.3.4.3.2.2-.3v-.6l.3.6v.2l.5.2h.2L20 27v-.4l.6.3h.6l-.5-.2-.5-.2-.3-.2V23.7l1 .4h.3l.5.2h.3l.5.2h.4l-.8-.3zM23.2 22.5l.4.3.4.4.7 1 1 1.5v1l-.2.8-.3.4.3-.3.3-.7v-1l.4.5v.8l-.2.3v1.1l.3.2-.2-.7V28l.4-.5.5.8v.7-1l-.2-.2.7.3.7.7-.7-.8-.6-.3-.3-.2-.2-.2v-.5l-.3-.3V26l-.3-.4-.8-1 1.5.4.4.2c.3 0 .8.3.8.3l1.2.5 1.4 1.8-1.2-1.8h.2l1 .5 1 .4-1-.6-1-.5v-.2h-.5l-1-.4-.6-.3-.6-.2H26l-.5-.3-.3-.2-.4-.5-.3-.4-.3-.5-.3-.5-.4-.3-.2-.4h-.2v.7zM25.7 17.4l.3-.2h.3l.3-.2.2-.3h1.6l.4-.3.4-.4.5-.3.4-.3.4-.4.5-.3.5-.4.4-.5.3-.3.3-.2.5-.2h.8l-1 .3-.5.4-.4.5-.3.2-.4.3-.6.5-.4.4-.3.2-.4.2 1-.2h.7l.3-.2h.6l-.6.2h2.9-2l-1 .2H30l-.5.3-.3.3-.4.3h-.4H31.5l.4-.4.4-.3-.7.6h.3l.4-.2.4-.2h1-.7l-.4.3h-.2l-.4.2h-1l.4.5v.2l-.4-.4-.4-.2H28.3L28 17H26.6v.2l-.5.2h-.9l.4-.2zM24.6 19.2l.4.2h.3l.4.2.2.2.4.2.5.2h.3l.5-.4.4-.6.7-.6 1-.6-1.4 1-.3.5-.3.5-.4.2.8.3H30.2l.6-.6h2.9-2l-.8.2h-.4l-.3.4H30l1.5.8.2.3-.4-.2L30 21h-1.4v.3l.5.5.6.5.3.5v.8l.6.7v1-.6l-.3-.4-.4-.4-.2-.4-.2-.5v-.3l-.6-.5-.5-.4-.2-.3-.6-.5-.5-.2-.7-.2-.5-.2-.5-.2h-.3v-.4h-.5v-.2H24l.4-.4z" fill="#1d81a4"/><path d="M28.2 24.6h.5l.4.2.6-.2H35 33v.3h.2l-.2.2v-.4h-3.7l1 .4.5.2.5.2h.7v.2H34.6l1.3.2H32.2v.2l-.2.2V25.8h-.7l.6 1-.8-1-.5-.3h-.7l-.3-.2-.5-.2h-.9l-.4-.2-.5-.2h.5zM21.8 24.7l.2.2.3.2.4.3.3.2.4.3.4.3.3.3.4.6.2.2v.4-.3l-.4-.3-.2-.4-.3-.3-.3-.3-.3-.3-.2-.2 1 1 .2.3-1.3-1-.2-.3-.3-.2-.2-.2-.2-.6z" fill="#1d81a4"/><g clip-path="url(#j)" opacity=".9"><path d="M21.3 27.7c.2-.5-.8-.2-.5-1l.5-.3c.2-.3 0-.4.4-.6.6-.2.8.2 1 .5.2.3 0 .3.4.5.3.2.4 0 .6.2 1 .6 1 1.7-.2 1.5l-.6-.2h-.6c-.5 0-1-.2-1-.6" fill="#1d81a4"/></g><g clip-path="url(#k)" opacity=".8"><path d="M17.8 28h1c.4 0 .7.2 1.2 0 .2 0 .2-.2.4-.3h.7c.5-.4 0-1 0-1-.4-.4-.8-.6-1.3-.6 0 0-.5 0-.6.2v.4c-.3.3-.8.2-1 .4-.4.3-.6 1 0 1" fill="#1d81a4"/></g><g clip-path="url(#l)" opacity=".8"><path d="M29.6 26h1.2c.3.3.3.5.6.6.3 0 .7-.2 1 0 .2.3 0 .5-.3.7.3 0 .5.2.8.3-.3.3-1 .4-1 0-.4-.2 0-.3-.6-.4-.3 0-.8 0-.8.3 0 .2.4.2.5.3l-.2.6c.2.3 1 .2 1 .4.4.4-.2.6-.7.7h-.4c-.2 0-.4.3-.7.2-.7 0 0-.5 0-.7-.3 0 0-1.2-.2-1.7-.3 0-.8.4-1 .4-.3 0-.6 0-.6-.3s.2 0 .5-.3h.3v-.7c0-.3 0-.4.6-.3" fill="#1d81a4"/></g><g clip-path="url(#m)" opacity=".8"><path d="M35.2 19.7h1c.3 0 .5.4 1 .5.2-.3 0-.8.6-1v1c0 .3 0 .6-.7.4 0 .4.8.6 0 1-.6 0-.7-.3-1-.4h-.6s-.4-.7-.4-.2c0 .5.7.4 1 .7-.4.3-1.2 0-1.6-.2-.7 0-.7-.4-1-1 .3 0 .6 0 1-.2.2-.2.3-.5.7-.6" fill="#1d81a4"/></g><g clip-path="url(#n)" opacity=".9"><path d="M29.5 19.8c.3 0 .3-.6.6-.6.4 0 .4.3.6.4l.8-.2.7-.2c.2.2 0 .2 0 .4-.2.2 0 .3 0 .5-.2.3-.4.3-.5.4v.6c-.3 0-.6-.2-.8 0-.3 0-.2.3-.6.2-.2 0-.3-.3-.5-.3-.2-.2-.5 0-.7 0l-.6-.4c0-.3-.3-.6 0-.8.5 0 1 .2 1.3 0z" fill="#1d81a4"/></g><g clip-path="url(#o)" opacity=".9"><path d="M27.7 14.5c1 0 2 0 2.4-.5.4-.2.2-.3.6-.5h.6l.7.2s.6 0 .7.2c0 .2-.3.2-.4.3-.2.3 0 .5-.2.8-.4.8-1 .4-1.6.3h-.6c-.4 0-.3-.3-.6-.5-.5-.2-.8.2-1.3.2s-1-.5-.3-.5" fill="#1d81a4"/></g><g clip-path="url(#p)" opacity=".9"><path d="M25 20.5c.7-.3 1 0 1.7 0 .5.2 1 0 1.4.3.4.2 0 .4.4.5h1c.5 0 1.2-.4 1.8-.3.5 0 1 .6.8 1 0 .4-.3.4-.6.6l-.6.6c-.3.3 0 .4-.7.2-.3 0-.4-.2-.7-.4-1-.5-.5 0-1.2 0l-.7-.3c0 .3-.2.8-.6 1-.2 0-1-.2-1.3-.4-.3-.4.3-.5-.3-.8-.4-.2-.8 0-1.2-.2-.4-.3 0-.5-.2-.8 0-.3-.7-.5-.4-.8.2-.4 1.5-.2 2-.2" fill="#1d81a4"/></g><g><g clip-path="url(#q)" opacity=".9"><path d="M22.4 22.7c0 .5 1 .7 1 1 0 .3-.5.3-.7.4H22c-.7 0-1 0-1.2.6 0 .4 0 1 .4 1 .5 0 1-.6 1.7-.4.4.2.4.8 1 1 0 0 .3 0 .5.2.3.2.4.5.8.6.8.2 0-.4.3-.7.3-.6.6.4.8.5h.5s0 .2.3.3l.6.6s0 .5.4.2c.2 0 0-.4 0-.6.2-.4.6-.6.6-1-.3-.2-1 0-1.2-.3-.2-.3-.3-.4 0-.6.3-.2.4 0 .6 0 .5.3.8 1 1.3.5.2-.2 0-.5.2-.6 0 0 .4 0 .6-.2V25c0-.2.2-.2.3-.3h.4c.4-.3 0-.7-.2-.8h-.4c-.3 0-.4-.4-.6-.4-.6 0-1 .4-1.3-.2-.3.3-.8.3-1 .2 0 0 .8-.3.2-.4-.4 0-.7.4-1 .4-.7 0-.3-.4-.6-.5h-1l-.8-.4c-.3 0-.5 0-.8.2-.5 0-1.5-.7-1.5 0" fill="#1d81a4"/></g></g><g><g clip-path="url(#r)" opacity=".9"><path d="M16.6 19.2c.7-.2 1 .4 1.4.3.5 0 .7-1 .8-1.2.2-.6.2-.4.8-.7.5 0 .7-.6.8-1 .2-.4 0-.5-.2-1 0-.4.5-1-.5-1s-.5.4-.7 1c-.2.5-1 .6-.7 1.2-.5 0-.8-.4-1.3 0 0 0-.3.7-.2 1 .2.3 1 0 .7.6-.2.4-.8.3-.8.8" fill="#1d81a4"/></g></g><g><g clip-path="url(#s)" opacity=".8"><path d="M16 20c.3 0 .6-.2.8 0h1c.5 0 1.7 0 1.4.7l-.5.5-.4.6c-.2.3 0 .3-.4.5l-1 .4c.4.5 1.3.3.4.8-.4.2-1 .4-1.5.2-.5 0-.5-.3-.7-.5l-.7-.5c-.4-.3 0-.8-.8-1-.5-.2-1 0-1.3-.5-.2-.5 0-1 .5-1 .3 0 1-.2 1.4 0 .5.2 0 .7 1 .8 1.3.2.4-1 1-1" fill="#1d81a4"/></g></g><g><g clip-path="url(#t)" opacity=".9"><path d="M7.7 21.8v-.2c.5 0 .3-.2.2-.4h-.5c-.2 0 0-.2-.2-.4-.5-.6-.2-.8.7-.8 1 0 2.7 0 3.3.7.3.3 1 .8 1 1.2 0 .6-.7.2-1.2.4-.3 0 0 .3-.3.4-.2.2-.5 0-.7 0-1 .4 0 1-.4 1.3 0 .5-.8.5-1 1v.3l-.5.4c-.3.5 0 .5-.7.7-.5 0-1 .5-1.4.5-.5-.5-.5-.5-.3-1l.3-.4c.2-.2.5 0 .5-.3h-1v-.5c-.3-.2-.7 0-.8-.3-.4-.4.5-.2.7-.4.4-.3-.3 0-.3 0-.2 0-.4 0-.7-.2.4-.3-.2-.3-.5-.4h-.2c-.2 0 0-.2-.2-.2l-.6-.4c-.3 0-1 0-.6-.4h1c.4 0 .8.2 1.2 0l1.2-.2 2-.3" fill="#1d81a4"/></g></g><g><g clip-path="url(#u)" opacity=".9"><path d="M20.8 19c0-.2.5-.6 1-.6s.2.8.8.5c.3-.2.3-.4.4-.5l.4-.4s.2.2.3 0V18h.7c.4-.5.7-1.4 1.7-1.2.7.2.6.6.3 1h-.6c0 .2 0 .5-.3.6h.7c.4 0 .8.3.4.5.2.3.4.5 0 .8-.4.2-.6 0-1 0-1 0-.3.8-1 1 .7.4 1.3.4.4.8l-.8.2c-.2 0-.6-.4-1-.4-.8.2 1 .8.7 1.2 0 .3-.6 0-.8.2-.4.3-.3.5-.5.8-.2 0-.5 0-.7.2-.2.2 0 .4-.3.5-.6.3-1.3 0-1.5-.5V23h-.4l-.8-.4c-.4 0-1 .5-1.4.7.4.5-.6.5-1 .5h-.6c-.6-.2-.4-.3-.4-.6 0-1.2 1.4-1 2.4-1 .5 0 1 0 1-.5 0-.6-1-.4-1-1 .2-.6.8-.5 1.3-.8.2 0 0-.3.2-.4h.9c.2 0 .2-.4.3-.4h.7" fill="#1d81a4"/></g></g><g><g clip-path="url(#v)" opacity=".9"><path d="M14.8 24.3c0-.2.2-.3.4-.4.3-.3.3 0 .6-.4l.2-.4c0-.5 0-.2-.3-.4-.2 0-.3-.2-.5-.3V22c-.4-.3-1-.2-1.5-.4-.2 0-.3.4-.3.5-.6.2-.6-.2-.8-.5 0-.2 0-.2-.3-.4H12c-.2 0 0-.3-.2-.4-.2-.3-.7-1-1.2-.5-.3.3 0 .5.2.7l.5.6v.3h.6v.7c.3.7 1 0 1.5.5.5.4-.3.8 0 1.2.2.3 1 .5 1.3.4" fill="#1d81a4"/></g></g><g><g clip-path="url(#w)" opacity=".8"><path d="M24 17.2c.2-.2.5-.6.4-.8 0-.2-.3-.2-.3-.4 0-.3.7-.5.7-.8 0-.3-.5 0-.2-.5 0-.2.4-.2.5-.3.2-.3 0-.4.4-.7.2-.2.6-.5.8-.3l-.4.7c.6.3.6.6.3 1v.5s-.2 0-.2.3l.2.5c0 1-1.3 1.7-2 1" fill="#1d81a4"/></g></g><g><g clip-path="url(#x)" opacity=".9"><path d="M24 26.7c.8 0 .4-.8.7-1 0-.2.6 0 .7-.2.2-.3 0-.6 0-.8.3-.3 1-.5.8-1-.4-.7-1 0-1.4 0-.6.3-.7-.2-1.2 0-.5 0-.3 0-.5.4 0 .2-.3.4-.4.6-.2.4 0 0 .3.4v.7c.2.3.5.2.6.4 0 .3 0 .6.3.7" fill="#1d81a4"/></g></g><g><g clip-path="url(#y)" opacity=".8"><path d="M31.6 21.6c-.2-.3-1-.4-.2-.7.3-.2.7 0 1 0 1 0 0-.7.2-1l.6-.2c.4 0 .7 0 1-.2.5-.3.8-1 1.3-1 .4 0 1 0 1.4.2 0 .7-.6.3-1 .8 0 0 0 .4-.2.6-.2 0-.5 0-.7.2-.3.2-.5.4-.6.7 0 .4 0 .6-.3.7-.2 0-.7-.3-1 0 0 0 .2.3.4.3 0 .3-.4.2-.6.3-.2.2 0 .5 0 .7h-1l-.2-.3c-.3 0-.3.2-.2.4.4.3 1.2.8 1.7.7.2 0 .3.4.2.5-.3.2-.5 0-.7 0-.3-.2-.3 0-.7 0-.3 0-.7 0-.6.5-.4 0-1.2-.3-1.2-.7 0-.2.2-.2.3-.4.3-.2 0-.5 0-.8l.6-.4c.4-.2 1-.3.6-.8z" fill="#1d81a4"/></g></g><g><g clip-path="url(#z)" opacity=".8"><path d="M9 27.7h1.6c.7-.2.7 0 1.3.3.8.3.8-.2 1.3-.6.3 0 .5 0 .7-.3v-.3l.3-.3c0-.3.2 0 0-.5 0-.2-.5-.6-.7-.7-.2 0-.5 0-.7-.2-.2 0-.3-.3-.5-.4-1-.8-1.7 1-2 1.6-.2.2-.2.6-.3.8-.2.3-.8.2-.4.7" fill="#1d81a4"/></g></g><g><g clip-path="url(#A)" opacity=".9"><path d="M11.4 24.7c0 .4-.4.5-.4 1 0 0 0 .3.2.5.4.2.3 0 .4-.2v-.3h.5c.3-.3.5-.3.5-.6-.2-.3-.8 0-1-.3" fill="#1d81a4"/></g></g><g><g clip-path="url(#B)" opacity=".9"><path d="M28 18.7h.8c.4-.2.2-.3.6-.5h.8c.4-.3 0-.3.2-.6 0-.3 0-1 .4-1.2.3-.3 1.3-.6.6-1-.2.2-.4.2-1 .3H30l-.7.2c-.3 0-1-.3-1 0-.3.3 0 .5 0 .7.2.2.2.2 0 .5 0 .3 0 0-.2.3 0 .2-.4 0-.6.2-.2 0-.2.4-.3.5v.3h-.3c0 .3-.4.2 0 .4h.4c.3 0 .8 0 1-.3" fill="#1d81a4"/></g></g><g><g clip-path="url(#C)" opacity=".9"><path d="M33.4 25.3c.2 0 .6 0 .6.3s-.4.2-.2.5h.3l.4.2v.2h.3l.2.2c.2 0 .8 0 .8.5 0 .4-.2.4-.5.3L35 27s-.2.2-.3 0l.2.4s-.2.3-.5 0c0 .3-.2.4-.4.3v-.4c-.3-.5-.7 0-1-.2 0 .3 0 .6-.4.3l-.2-.3s.2-.3 0-.4c0-.4-.2.4-.5.4s-.2-.2-.4-.3H31s0-.2-.2-.3h-.4c-.2-.2 0-.6 0-.7h.4v-.3-.3l-.5-.4c-.3.2-.5-.2-.5-.3V24c0-.2 0-.2.2-.2.7-.2.8.4 1 .8 0 .2 0 .4.5.4.4 0 0-.5.5-.6.3 0 .4.2.6.4h.3v.2c0 .2.3 0 .3 0 0 .2 0 .3.2.4" fill="#1d81a4"/></g></g><g><path d="M20.4 12l-1.7.3-1 .2c-.7 0-1-.2-1-.2h-1.4l-.6-.2-1 .4-1.2-.8H10l1 .6h1.3l1.5.7 1.4-.4 1 .2 1.2.3h2.4l.6-1z" fill="#1d81a4"/></g></g></svg>