<svg xmlns="http://www.w3.org/2000/svg" viewBox="0 0 54.705734 54.710266" height="54.7" width="54.7"><defs><clipPath id="a"><path d="M0 41h41V0H0v41z"/></clipPath></defs><path d="M23.7 19.5H23l-1.8.3-1.2-.2 1 .3 2-.5h.6l1.6-.4-1.5.5z" fill="#1d81a4"/><g clip-path="url(#a)" transform="matrix(1.33333 0 0 -1.33333 0 54.71)"><path d="M15 24l2 .7c.5 0 1.5.5 2 .8l2 1.5-2.4-1.4h-.4l1 .8 1.2 1.2.6 1s-1.5-1.7-2-2l-1-1.4c-.2-.2-3-1-3-1V24zm0 2l-1.8.6-1.5 1.2-.5 1s1-1.4 2-2c1.2-.7 2-.8 2-.8H15zm0 3l.8 1.5s1 1 1.5 1c.3.2 1 .2 1 .2s-1.5-.4-2.3-1.3c-.8-1-1-1.7-1-1.7v.2zm.2-5.8s.3.6 1 .6 4.4-1 4.4-1-3.8 1.5-4.5 1.3l-1-.6.2-.2zm-.2 0s-2 .4-2.7.8c-.7.4-1 1-1.4 1.3-.5.4-1.2 1.6-1.2 1.6l1.5-2c.2-.2.7-.6 1.2-.7l2.4-1zm.3-1.4s2.3 0 2.5-.2c.2-.2 0-.5.4-.6.3 0 3.3-.8 3.3-1 0 0-3.4 1-3.3.7l.5-1.2s-.7 1-.8 1.4c-.2.4-.2.3-.4.4l-2.4.2v.2zm0 4.7l.8.5v.2c.2 0 1 .8 1 .8l-1-.7V27l-.8-.4z" fill="#1d81a4"/><path d="M15 21.7c0 .4-1 .5-1.2.4-.5 0-1 0-1.4-.2-.7-.2-1.6-.7-2.3-.2.5-.6 1.6-.2 2 0 .8.2 2.5.8 3 0 0 0 .2 0 0 0" fill="#1d81a4"/><path d="M13 22v-.4c-.5-.4-1-1.3-1.7-1.3.6-.2 1.2.6 1.5 1 0 .2.2.4.4.6zm1.7 11.5V14.8l-.2-7.3v-2l-.3-.3s-.3-.3 0-.3c0-.2.3 0 .5-.2 0-.3 0-.5.2-.5v.2h.5c.2 0 0 .3.3.3 0 0 0 .4-.2.6l-.2 1.3v1.5l-.2 16V31c0 1.2-.5 2.5-.5 2.5zM13.4 27s.3 0 .3.2h-.5s.3 0 .3.2h-.3.3l-.3.2h.3s-.2 0-.2.2l.2-.3v-.1c.2 0 .2.2.2.3v-.4.3c.2 0 .2-.3 0-.4.2 0 .2.2.2.3 0 0 0-.3-.2-.4h-.4" fill="#1d81a4"/><path d="M13.7 26.8s.2 0 .2.2l-.3-.2v.2H13.3h.3l-.2.2h.4V27c.2 0 0 .2 0 .3l.2-.3-.3-.2m.3-.5c.2 0 .3.2.3.2l-.3-.2.2.2H14h.3s-.2 0-.3.2h.3v-.1.2c0-.2.2-.3.2-.3v-.2.2c.2 0 0 .2 0 .2l.2-.2-.3-.2" fill="#1d81a4"/><path d="M14.4 26.3c0 .2.2 0 .2 0 0 .2-.2.2-.2.3h.2v-.1s0 .2.2.2v-.5s0 .2.2.2l-.2-.2h-.4m-.4.6h-.2l.2.2h-.2.2l-.3.2h.2V27v.2l.2.2V27h-.5m-.3-1.2l.2.2-.2-.2.2.2H13c0 .2.2 0 .2.2H13h.2v.2l.2-.2V26v.4s0-.3.2-.3v.1l-.3-.2" fill="#1d81a4"/><path d="M13.8 25.7v.3s0-.2-.2-.3v.3s0-.2-.2-.2c0 0 .2 0 .2.2l-.3-.2s.3 0 .3.2h-.3.3l-.2.2.2-.2v.2s.2 0 .2-.2c0 0 0-.2-.2-.3m.9.1v.2l-.2-.2v.2h-.2.3s0 .2-.2.2h.7V26l-.2-.2m.1 1.7v-.3.1c-.2 0 0 .2 0 .3l-.2-.2-.3.3.2-.2h-.2.2c0-.2-.2 0-.2-.2h.3c0-.2 0 0-.2-.2 0 0 .2 0 .3.2h-.3c0-.2.3 0 .4 0v.3" fill="#1d81a4"/><path d="M15 27c0-.2-.2-.2-.3-.2h.1c0 .2.2 0 .2.2h-.2s.2 0 .3.2H15s.2 0 .2.2l-.2-.3v.1s0 .2-.2.3V26.7s.4 0 .4.2" fill="#1d81a4"/><path d="M15 26.6v.3c-.2 0 0 .2 0 .3-.2 0-.2-.2-.2-.2h-.2l.2-.2h-.2s0-.2.2-.2c0 0-.2 0-.2.2l.2-.2s.3 0 .3.2m-.8-.5V26v.2c-.2 0 0 .2-.2.4V26v.2s0 .4-.2.4l.2-.2h-.2.2l-.2-.2h.4l-.2-.2h.5v.5m-3 1.5h.3-.4s.2 0 .3.2h-.4.3l-.3.2h.4v-.2c.2 0 0 .2.2.3V28v.5c.2 0 0-.4 0-.4l.2.3V28s-.5-.2-.6 0" fill="#1d81a4"/><path d="M12 27.6v.2H11.4h.3l-.3.2h.2c.2 0 0 0 0 0 .2 0 .2-.2.2-.2v.2h.2m.4-1c0 .2.2.2.2.3 0 0-.2 0-.3-.2 0 .2.2.3.2.3h-.4.1c0 .2.2 0 .3.2H12h.3v-.2c.2 0 0 .2 0 .3.2 0 .2-.2.2-.3v.2l.2-.2v-.1l-.3-.2" fill="#1d81a4"/><path d="M12.7 27h.3s-.2 0-.3.2H12.4h.3c-.2 0-.3.2-.3.2h.4l-.2.2v-.2.2s.2-.2 0-.3c.2 0 .2.2.2.2V27s0 .3.2.4V27h-.5" fill="#1d81a4"/><path d="M12.2 27.6h.2c0 .2 0 .2-.2.2h.2l-.2.2h.2v-.2h.2v-.2.1-.2l.2.2-.2-.3h-.4m-.6-.8l.2.2-.2-.2v.2h-.4.3c0 .2-.2.2-.2.3h.2v.2l.2-.3v-.2c.2 0 0 0 0 0v.2s0-.2-.2-.2" fill="#1d81a4"/><path d="M12 26.5l.2.3s0-.2-.2-.3v.3s0-.2-.2-.3v.3s0-.2-.2-.2c0 0 .2 0 .3.2h-.4.2l-.2.2s.2 0 .2-.2v.2h.2v-.3m.8-.2l.2.3-.3-.2v.2s-.2 0-.3-.2l.2.2h-.2.3l-.2.2h.4s.2 0 .2-.2l-.3-.3m.3 1.8V28v.5s0-.2-.2-.2 0 .3-.2.3v-.3c0-.2.2 0 .3-.2h-.4c0-.2.3 0 .3 0v.3" fill="#1d81a4"/><path d="M13.3 27.7H13s.2 0 .3.2l-.2-.2s.3 0 .3.2H13h.2s.2 0 .2.2V28c-.2 0 0 .2 0 .2L13 28v-.2l-.2.2s0-.2.2-.3l-.2.2v-.4.2s0-.3.2-.3c0 0 .2 0 .3.2" fill="#1d81a4"/><path d="M13.4 27.4s-.2-.2-.3 0h.3l.2.2H13h.2l.3.2s0-.2-.2-.2V27.3H13l.3-.2-.2.2.3-.2s.4 0 .4.2m-1.2-.3v.2h-.2v-.4s-.2 0-.2.2v-.2H12h.3s-.2 0-.2-.2h.6l-.2-.2h.3v.5m.9 1.8h.1s.3 0 .3.2l-.3-.2h-.2s.2 0 .3.2h-.5.4-.5.4l-.5.3.3-.2-.2.4.3-.2c-.2 0-.2 0-.2.2V29v.4c.2 0 0-.3 0-.3l.2.4V29v.2c.2 0 0-.3 0-.3.2 0 .2 0 .2.2v-.4h-.5m.7-.3c.2 0 .3 0 .3.2l-.3-.2.2.2-.2-.2v.2h.3l-.2.2h.2v-.1.3s0-.2.2-.3v-.1.2l.2-.4v.1l-.3-.2" fill="#1d81a4"/><path d="M14.5 28h-.1s.2 0 .2.2c0 0 0-.2-.2-.2v.2H14h.4l-.2.2h.4v-.2.3l.2-.3V28h-.3m.3 0c0-.2.3-.2.3 0H15h.3s-.2 0-.3.2h.3s-.2 0-.2.2l.2-.2V28c0 .2.2.3.2.3V28v.2c.2 0 0-.2 0-.2h-.4" fill="#1d81a4"/><path d="M14.3 28.4h.3s-.2 0-.3.2h.2l-.2.2h.2v-.2s0 .2.2.2v-.5.2-.1l.2.2-.3-.3h-.4m-.5-.9l.2.2h-.5s.2 0 .2.2h-.3.3v.2l.2-.2v-.1c.2 0 0 .2 0 .3l.2-.3v-.2l-.3-.2" fill="#1d81a4"/><path d="M14.2 27.3v.3l-.2-.3v.3s0-.2-.2-.2l.2.2h-.4.3l-.2.2.2-.2v.2h.5v-.5" fill="#1d81a4"/><path d="M14.8 27.4l.2.2s0-.2-.2-.2v.2s-.2 0-.3-.2l.2.3-.2-.2s.2 0 .2.2h-.3.3v-.1.2s0-.2.2-.3c0 0-.2 0-.2.2l.2-.3v.2-.2s0-.2-.2-.2m.5 1.8v.2s0-.3-.2-.3v.3c-.2 0 0-.2 0-.2l-.3.3V29h.2-.4.3c0-.2-.2-.2-.3-.2h.7l.2.3" fill="#1d81a4"/><path d="M15.4 28.5H15h.3l.2.2h-.2s.2 0 .2.2c0-.2-.2-.3-.2-.3s0 .2-.2.2v-.5.2-.1l-.2.2.3-.3s.3 0 .4.2" fill="#1d81a4"/><path d="M15.5 28.2h-.3.1l.2.2h-.3s.2 0 .2.2c0 0 0-.2-.2-.2l.2.3s0-.2-.2-.3l-.2.2.2-.2H15l.2-.2h-.4s0-.2.2-.2c0 0 .3 0 .3.2m-.6-.2v-.4.3s0-.3-.2-.3 0 .3-.2.3v-.2h-.2.3c0-.2.2 0 .2 0 0-.2-.2-.2-.2-.2h.2l-.2-.2h.3v.5m-4.2 1.7h-.1s.2 0 .2.2h-.3.4s-.3 0-.4.2l.4-.2s-.3 0-.4.2h.4v-.1.2c.2 0 0 .2.2.2V29.3h-.5" fill="#1d81a4"/><path d="M11 29v.3h-.2.3-.4s.2 0 .2.2h-.3.3v.2l.2-.2v-.1c.2 0 0 .2 0 .3l.2-.3v-.1L11 29m.3-.3s.2 0 .2.2l-.3-.3.2.2s0-.2-.2-.3v.2s0-.2-.2-.2l.2.2H11h.2v.3s0-.2.2-.3v.2l.2-.3v.2l-.3-.3" fill="#1d81a4"/><path d="M11.6 28.6h-.1.3-.4s.2 0 .2.2h-.2.4l-.2.2h.2v-.2c.2 0 0 0 0 0h.2v.2-.5l.2.2-.2-.3h-.4m-.6.8h.7s-.2 0-.3.2h.4s-.2 0-.2.2h.6v-.4s0 .2.2.2c0 0 0-.2-.2-.2H11m-.5-1s.2 0 .2.2c0 0 0-.2-.2-.2v.2H10h.4l-.2.2h.4c.2 0 0 0 0 0s.2 0 .2-.2l-.3-.2" fill="#1d81a4"/><path d="M11 28v.6l-.2-.2v.1l-.2-.2c0 .2.2.3.2.3h-.3.3s-.2 0-.2.2h.7s0-.4-.2-.4" fill="#1d81a4"/><path d="M11.6 28l.2.4s0-.2-.2-.3v.4l-.2-.2v.2h-.2.3l-.2.2h.4s.2 0 0 0c0 0 .2 0 .2-.2l-.4-.3M12 30v-.4.3c0-.2 0-.3-.2-.3v.4l-.3.3V30h-.2.3c0-.2 0 0-.2-.2h.6c-.2 0-.3 0-.4-.2h.3v.5m.3-.9H12s.2 0 .2.2H12s.2 0 .2.2l-.2-.2.2.2H12v-.2l-.2.2v-.4h-.2.5" fill="#1d81a4"/><path d="M12.3 29l-.2-.2s.2 0 .3.2H12h.5c0 .2-.2 0-.2 0l.3.3-.2-.2.2.3-.2-.2.2.4s0-.2-.2-.2h-.2l.2-.2-.2.2s0-.2.2-.3h-.2s0-.2.2-.2h-.2.2s.3 0 .3.2m-1.2-.4v-.3.3s0-.2-.2-.2 0 .2-.2.3c.2 0 .2-.3.2-.3s0 .2-.2.2c0 0 .2 0 .2-.2h-.5.3c0-.2-.2-.2-.2-.2h.6s-.2 0-.2-.2l.2.3v.4m3 6l.3-.2s-.2 0-.3.2h.3l-.3.2h.3l-.2.2.2-.2s0 .2.2.3v-.6s0 .2.2.2c0-.2-.3-.3-.3-.4 0 0 0 .2.2.2l-.3-.2s-.4 0-.5.2" fill="#1d81a4"/><path d="M14.6 34.3h.3-.4s.2 0 .3.2h-.3.2s-.2 0-.2.2h.2v-.2.2c.2 0 0-.2 0-.2.2 0 .2.2.2.2s0-.2-.2-.3 0 .2.2.3v-.5h-.4m.1-.5h-.1s.2 0 .2.2h-.3.3s-.2 0-.3.2l.2-.2s0 .2.2.2l-.2-.2v.1h.2v-.3h-.4m.4-.2l.2-.2v.5s0-.2.2-.2h.2l-.2-.2H15h.4s-.3 0-.3-.2h.1s0 .2-.2.3" fill="#1d81a4"/><path d="M14.8 34.2l.2-.2-.2.2h.2v.1l.2.2v-.2h.2s-.2 0-.3-.2l.4.2H15c0-.2.3 0 .4 0L15 34h.2s-.2 0-.2.2m-1.3-.4h.2-.4.3l-.4.2H13.7l-.2.3.2-.2v.5c.2 0 0-.2 0-.2.2 0 .2.3.2.3V33.8c.2 0 0-.2 0-.2l.2.2v-.3h-.5" fill="#1d81a4"/><path d="M14 33.4h.2c0 .2 0 0-.2 0l.2.2H14h.2l-.3.2h.3v-.1c.2 0 0 .2 0 .2.2 0 .2-.2.2-.3v-.2.3c0-.2.2-.4 0-.4.2 0 .2.2.2.2v-.3H14" fill="#1d81a4"/><path d="M14.5 33l.3.2h-.4.2s-.2 0-.2.2h-.1.3s-.2 0-.2.2l.2-.2v-.1c.2 0 .2.2.2.2V33.2s.2 0 .2.2V33h-.5m1.5 1.2c-.2 0-.3-.2-.3 0h.2-.4.3-.4l.2.2h-.2v-.2.2h-.2s0-.2.2-.2h-.2.1s.3 0 .3-.2c0 0-.2 0-.3.2l.3-.2h-.3.3s.3 0 .3.2" fill="#1d81a4"/><path d="M15.7 33.6h-.3.4s-.2 0-.2.2h.3-.4.3-.4s.3 0 .3.2h-.3.2-.3v-.2c-.2 0 0 0 0 0h-.2v.2c-.2 0 0 0 0 .2-.2 0-.2-.2-.2-.3h.4" fill="#1d81a4"/><path d="M15.6 33.3h-.3.3l-.2.2h.4-.3l.3.2h-.3v-.2c-.2 0-.2.2-.2.3v-.4s-.2 0-.2.2l.2-.3h.4m-.9.2l-.2-.2v.5s0-.2-.2-.2v-.1l-.2.2s0-.2.2-.2h-.2.2c0-.2 0 0-.2 0 0 0 .2 0 .3-.2h-.3s.3-.2.3 0h-.2c0-.2.2-.2.3-.2 0 0 0 .3.2.3m-2.5-8.8h-.1s.2 0 .3.2H12h.4l-.3.2h.5l-.2.2.2-.2v.2s.2-.3 0-.3h.2v.1s0 .2.2.3v-.7h-.5" fill="#1d81a4"/><path d="M12.6 24.2l.2.2h-.5s.2 0 .3.2h-.3.2v.2l.2-.2v-.1.3s0-.3.2-.3l-.2.3v-.3.2s.2-.2 0-.3l-.2-.2" fill="#1d81a4"/><path d="M13 23.8s.2 0 .2.2c0 0 0-.2-.2-.2 0 0 .2.2 0 .2v-.2.2h-.5.3l-.3.3h.2v-.2.4l.2-.2v-.1s0-.2-.2-.2" fill="#1d81a4"/><path d="M13.3 23.7s.2 0 .3.2h-.3.2s0 .2-.2.2l.2-.2.2.2V24l.2.2-.3-.3.2.2c0-.2-.2-.3-.3-.4h-.4m-.1.6h.3l-.2.2h.1l-.2.2h.5v-.4s0 .2.2.2c0 0 0-.2-.2-.2H13m-.8-1s.2 0 .2.2c0 0 0-.2-.2-.2l.2.2s-.2 0-.3-.2c.2 0 .3.2.3.2H11.8c.2 0 0 .2 0 .2h.2v-.2.2l.2-.2v.2l.2-.3-.4-.2" fill="#1d81a4"/><path d="M12.7 23.2v.2l-.2-.2v.2H12.2h.3l-.2.2h.7-.3c0 .2.2 0 .2 0l-.3-.4" fill="#1d81a4"/><path d="M13.4 23.2v.3l-.2-.2v.2h-.4.2l-.2.2h.8v-.2s0-.2-.2-.3m.3 1.8v-.3.3l-.2-.2v.2s-.2 0-.2.2V25H13h.2c.2-.2.4 0 .4-.2H13.3c0-.2.2 0 .3 0 0-.2-.2-.2-.3-.2h.4v.4" fill="#1d81a4"/><path d="M14 24.4h-.3.2-.3l.3.3h-.3.2-.3.1v-.2l-.2.2.2-.2h-.2v-.2h.4" fill="#1d81a4"/><path d="M14 24h-.2s.2 0 .2.2h-.2s.2 0 .2.2l-.2-.2s0 .2.2.2h-.4V24h.4m-.8-.2v-.3.3c-.2 0 0 0-.2-.2v-.1l-.3.2s.2 0 .2-.2h-.3.2-.3.4c0-.2 0-.2-.2-.2h.2c0-.2.2 0 .3 0v.4m3.5 4.3v-.3.3s0-.2.2-.2c0 0-.2 0-.2.2v-.2.2h.2c0-.2.2 0 .2-.2H17c0-.2 0-.2 0 0v-.2h-.2v.3" fill="#1d81a4"/><path d="M16.5 27.7h.2v-.1h.2-.2v-.2h-.3m-.1 0h.2V27l-.2.2" fill="#1d81a4"/><path d="M16.3 27.2V27v.2h.2V27h-.2v-.2.4m.3.3h.2c0-.2 0 0 0 0v-.2h-.2v.2m-.6.5v-.3.2h.2v-.2H16m0-.2v.2h-.2.2v-.1h.2v-.2h-.3m.1-.4v.4c0-.2 0 0 0 0h.2V27h-.3m1.1 0h.2s-.2 0-.2.2h.2v.2c-.2 0 0 0 0 0H17v-.2h-.2V27h.3m-.4-.2v.2l.2-.2-.2.2v-.2.4h-.2v-.4" fill="#1d81a4"/><path d="M16.6 26.7s-.2.2 0 .2v-.2h.2v.2h-.2c-.2 0 0 0 0 0h-.2s0-.2.2-.3m-.3.7H16h.6v.2c-.2 0 0 0 0 0H16v-.2h.3m-5.5-2h.2l.3.2H11h.3c0 .2-.3 0-.4 0 0 .2.3.2.3.2h-.4.3s-.4 0-.4.2l.3-.2-.3.2.2-.2v.2c.2-.2 0-.3 0-.4.2 0 .2.2.2.3v-.5s0 .2.2.3v-.4h-.6" fill="#1d81a4"/><path d="M11 25c.2 0 .3.2.3.2L11 25c.2 0 .3.2.3.2h-.5.3s-.2 0-.2.2h.3c.2 0 0 .2 0 .2l.2-.2v-.1.3l.2-.3v-.1l-.3-.2" fill="#1d81a4"/><path d="M11.5 24.6s.2 0 .2.2c0 0 0-.2-.2-.2l.2.2-.3-.2.2.2h-.4.2l-.2.2h.5v.2s.2-.2 0-.2c0 0 0-.2-.2-.2m.5-.3h.3c0 .2 0 0-.2.2h.1s0 .2-.2.2c0-.2.2-.2.3-.2v.3s.2 0 .2.2v-.7s0 .2.2.2c0 0 0-.2-.2-.2 0 0 .2 0 .2.2 0 0 0-.3-.2-.3H12" fill="#1d81a4"/><path d="M11.4 25h.2c0 .2-.2 0-.2.2h-.1.3s-.2 0-.3.2h.3s-.2 0-.2.2c0 0 0-.2.2-.2v-.1l.2.2V25v.2c.2 0 0-.2 0-.2h-.4m-.6-1l.2.3-.3-.2c0 .2.2.3.2.3-.2 0-.2-.2-.3-.2v.3h-.2.3l-.3.2h.3c.2 0 0 0 0 0s.2 0 .2-.2l.1-.5" fill="#1d81a4"/><path d="M11.2 24s.2.2 0 .2V24v.2l-.3-.2v.2h-.2.2v.2h.4s0-.4-.2-.4m.9 0v.3s0-.2-.2-.3v.4s0-.2-.2-.2c0 .2.2.3.2.3s-.2 0-.2-.2c0 .2 0 .3.2.3h-.3.2l-.2.2h.1s.2-.2.2 0l.2-.2s0 .2-.2.3l.2-.3v.3l.2-.3-.3-.3m.3 1.5v-.3.3s0-.2-.2-.2v-.1l-.2.3v-.3.1h.2c0-.2-.2-.2-.3-.2h.5v-.2h.2v.5" fill="#1d81a4"/><path d="M12.5 25h-.3s.2 0 .3.2h-.3l.3.2h-.3l.2.2s0-.2-.2-.2v-.1l-.2.2v-.4.1h.5" fill="#1d81a4"/><path d="M12.6 24.8h-.3s.2 0 .3.2h-.3l.2.2-.2-.2v.2l-.2.2.2-.2V25l-.2.2.2-.3s0 .2-.2.2c0-.2.2-.3.2-.3H12h.6m-.8-.3v-.2c-.2 0 0 .2-.2.3v-.3.1l-.2.2v-.2h-.2.3s-.2 0-.2-.2h.4l-.2-.2s.3 0 .3.2v.3m-2.1 1.7h.3c0 .2-.2 0-.4 0l.3.2h-.4.3-.5s.3 0 .3.2h-.3.3s-.3 0-.3.2h.3v-.4.1c.2 0 .2.2.2.2v-.3.3c.2 0 .2-.3 0-.3.2 0 .2.2.2.3v-.4h-.5" fill="#1d81a4"/><path d="M10 26v.2-.2s.2 0 .2.2h-.5.3l-.3.2h.2l.2-.2V26H10m.4-.5s.2 0 .2.2c0 0 0-.2-.3-.2l.2.2-.2-.2v.2h-.2.4l-.2.2s.3-.2.3 0v-.2.2s.2 0 .2-.2c.2 0 0 0 0 .2l.2-.3-.3-.2" fill="#1d81a4"/><path d="M10.7 25.4s.2 0 .2.2h-.3.2l-.3.2H10.8s-.2 0-.2.2c0 0 0-.3.2-.3V25.4l.2.2v-.3.1-.1h-.5m-.3.7h.3l-.3.2h.3s-.2 0-.3.2c0 0 .2-.2.3 0h-.2.2v-.2h.2V26H10m-.4-1s.2 0 .2.2c0 0 0-.2-.2-.2l.2.2-.3-.2.2.2h-.4.2l-.2.2h.4v-.2.3s.2-.3 0-.3c0 0 0-.2-.2-.2" fill="#1d81a4"/><path d="M10 25h-.2.3c0 .2-.3 0-.4 0l.3.2h-.4.2v.2l.2-.2-.2.2s.2 0 .2-.2V25m.8 0v-.2.2l-.2-.2v.2H10.3h.3l-.2.2h.4s.2 0 .2-.2l-.2-.3m.2 2v-.3.4s0-.2-.2-.2v-.1l-.2.2v-.2h.2c0-.2 0-.2-.2-.2h-.1.3l-.3-.2h.4v.5m.4-.6H11h.2c0 .2.2.2.3.2H11h.2c.2 0 .3.2.3.2H11h.2s.2 0 0 .2v-.4H11l.2-.2-.2.2V26h.5" fill="#1d81a4"/><path d="M11.4 25.8l-.2-.2s.2 0 .2.2h-.2l.2.3h-.2l-.2.2V25.4l.4.3m-.8-.2v-.3.1c-.2 0 0 0-.2.2v-.2l-.3.2s.3 0 .3-.2H10h.4c.2-.2.4 0 .4 0 0-.2-.2-.2-.2-.2h.1v.5m1.9-2.4h.3-.4s.2 0 .2.2h-.3.4s-.3 0-.4.2h.3l-.2.2.2-.2v-.1c.2 0 0 .3.2.3v-.5l.2.3v-.4h-.6" fill="#1d81a4"/><path d="M13 22.8l.2.2h-.6s.2 0 .2.2h-.4.2s-.2 0-.2.2v-.2.2l.2-.2V23v.4l.2-.3v.1s-.2 0-.2-.2m.8-.6s.2 0 .2.2l-.3-.2.2.2s-.2 0-.2-.2v.2h-.2.4l-.3.2h.2v-.1c.2 0 0 .2 0 .2.2 0 .2-.2.2-.3v.2s.2-.3 0-.4c.2 0 0 .2 0 .3.2 0 .2-.4.2-.4l-.3-.2" fill="#1d81a4"/><path d="M13.7 22.3h-.1s.2 0 .2.2h-.5.3c-.2 0-.3.2-.3.2h.5s-.2 0-.2.2v-.4s.2 0 .2.2V22.4s0 .2.2.2v-.3.2s0-.2-.2-.3h-.3" fill="#1d81a4"/><path d="M13.2 23s.3-.2.3 0h-.3.2s-.2 0-.2.2h.2s-.2 0-.2.2l.2-.2.2.2V23h.2l-.2-.2h-.4m-.6-.8h-.1v.2s0-.2-.2-.2l.3.2h-.4.3v.3s0-.2.2-.3v.2l.2-.2-.2.2V22h-.2" fill="#1d81a4"/><path d="M13 21.8l.2.2-.2-.2v.2s0-.2-.2-.2v.2h-.2.2l-.2.2h.5v-.4m.6 0l.2.3s-.2 0-.3-.2v.3H13.3h.3l-.3.2h.2v.2l.2-.2v.2l.2-.2s-.2 0-.2.2v-.2.2l.2-.3s-.2 0-.3-.2m.4 1.5v-.3.4s0-.2-.2-.2 0 .2-.2.3v-.3h.2c0-.2-.2 0-.2-.2h.2s-.2 0-.3-.2l.3.2v.4" fill="#1d81a4"/><path d="M14.3 23H14h.2l.3.3-.2-.2c0 .2.2.3.3.3H14h.2c-.2 0 0 0 0 .2l-.2-.3h-.2l.2-.2-.2.2v-.5h.5" fill="#1d81a4"/><path d="M14.4 22.7s-.2-.2-.3 0h.6c0 .2-.2 0-.3 0l.4.3-.3-.2c.2 0 .3.2.3.2H14v-.2s0 .2 0 0v-.2h-.2s.2 0 .3-.2l.4.3m-.9-.3V22v.5s0-.2-.2-.2l-.2.3v-.3H13h.5c0-.2-.2-.2-.2-.2 0-.2.3 0 .3 0v.4m-1.1-1.2s0 .2-.2.2V21.2v.3l-.2-.2c.2 0 .2.2.2.2s0-.2-.2-.2c0 0 .2 0 .2.2H12h.3l-.2.2h.5v-.4" fill="#1d81a4"/><path d="M12.8 21.5h-.2v-.2.2s0-.2-.2-.2v.2c0 .2 0 0 0 0 0 .2 0 .2.2.2h-.2.3v-.2m.5.2v-.2s0 .2-.2.2v-.2h-.2v.2h.3c0 .2 0 .2 0 0v.2l.2-.3m0 .4H13c.2 0 0 0 0 0v.2h.4v-.3" fill="#1d81a4"/><path d="M12.8 21.7v-.1.2s0-.2-.2-.3v.1h-.2.2v.2h.4l-.2-.3m.6-.5H13v.2s-.2 0-.2-.2v.2h.2c0 .2-.2 0-.2 0 0 .2 0 0 .2.2h.4V21" fill="#1d81a4"/><path d="M13.6 21.3l-.2.2.2-.2h-.2V21v.3H13c0 .2 0 0 0 0v.2h.4m.3.3h-.2V21.5v.3s0-.2-.2-.2v.2h.2c0 .2 0 0-.2 0 0 .2.2.2.2.2h-.2.3m-1.1.5s.2 0 .2-.2c0 0-.2 0-.2.2v-.2H12.2h.2V22l.2.2c.2 0 .2 0 0 .2" fill="#1d81a4"/><path d="M13 22.5v-.2.2h-.4s0-.2.2 0c0-.2-.2-.2-.2-.2h.2V22l.2.2h-.2.2v.3" fill="#1d81a4"/><path d="M13.2 22.5v-.2s0 .2-.2.3v-.3.2c0-.2 0 0-.2 0l.2-.2h-.2.4L13 22l.2.2v.3m.1-.7h-.1l.2-.2H13h.6v-.2c.2 0 0 .2.2.2v.2h-.2m-3.6-.1c.2 0 .4 0 .4.2l-.3-.2h.1s.2 0 .2.2H9.8c.2 0 0 .2 0 .2h.2V22c.2 0 0 0 0 .2.2 0 .2-.3.2-.3v-.1.2h-.3" fill="#1d81a4"/><path d="M10.4 21.6v.2s0-.2-.2-.2l.2.2h-.2.2v.2l.2-.2s0-.2-.2-.2m.4-.3v.2h-.2v.2h.2s.2 0 0-.2v.2l.2-.2-.2-.2m.2 0l.2.2H11v.2h.2v-.2h.2v-.2H11" fill="#1d81a4"/><path d="M10.6 21.7v.2h.2v-.2h.2v-.2h-.4m-.3-.7l.2.2-.2-.2v.2H10h.3v.2h.2v-.4" fill="#1d81a4"/><path d="M10.7 20.8v.2l-.2-.2v.2l-.2-.2.2.2h-.2.2v.2h.2v-.4m.5.2v.2L11 21v.2h-.2.2v.2l.2-.2V21m-.2 1.3V22v.6h-.2V22h.2v.3m.4-.3c0-.2-.2-.2-.2-.2v.2l-.2.2V22c0-.2 0 0 0 0v-.2h.4m.1-.1H11h.2v-.2h.3" fill="#1d81a4"/><path d="M11 21.3V21v.3h-.4V21h.4v.3m7 1l-.2-.4c.2 0 0 .2.2.3V22s0 .3.2.3V22l.2.3-.2-.3h.2c0-.2-.2 0-.3 0l.4-.2H18v-.2s-.2 0-.2.2l.2-.2-.3.2s0 .4.2.5" fill="#1d81a4"/><path d="M17.4 22v.3h.2v-.5s0 .2.2.3V22s0 .2.2.2l-.2-.2h-.1c0-.2.2 0 .2-.2h-.3.2-.4.3-.4s0-.2.2-.2h-.3v.5" fill="#1d81a4"/><path d="M17 22v-.5.5s0-.2.2-.2v.2l.2.2-.2-.2c0-.2 0 0 .2-.2H17l.2-.2H17v.5m-.3-.5v-.3l.2.2s-.2 0-.2-.2c0 0 0 .2.2.2l-.2-.2s.2 0 .3.2v-.2h-.2V21l-.2.2H16.9h-.3V21l-.2.2V21v.3s0 .2.2.3" fill="#1d81a4"/><path d="M17.4 21.8v-.2l.2.2v-.3s0 .2.2.2c0 0-.2 0-.2-.2h.3-.4.3-.4v-.2l-.2.2s0-.2.2-.2c0 0-.2 0-.2.2V21.2l-.2.3v-.3.3s0 .3.2.3m-.5 1v-.3.3s.2 0 .2-.2l-.2.3v-.3c.2 0 0 .2 0 .3 0-.2.2-.3.2-.3l.2.2v-.3H17c0-.2 0 0 .2-.2h-.4.2s.2 0 .3-.2H17v.5" fill="#1d81a4"/><path d="M16.4 22.4l.2-.2-.2.2.2-.2v.3c.2 0 .2.2.2.2v-.2h.2l-.2-.2h-.1.3s-.3 0-.3-.2l.3.2h-.3.2s-.3-.2-.4 0c0 0-.2 0-.2.2m-.1-.8s0-.2.2-.2c0 0 0 .2-.2.3l.2-.2v.1s0 .2.2.3h.2l-.3-.2c0-.2 0 0 .2 0 0-.2-.2-.2-.3-.2l-.2.3m1.5-1.1h-.2c0 .2.2 0 .3 0l-.2.2s0-.2.2-.2v.2h-.2.4l.2.2h-.4V21c-.2 0 0 .2 0 .3l-.2-.3.3-.2" fill="#1d81a4"/><path d="M17 20.8v.2s0 .2.2.2v-.3.2l.2-.3v-.2.2l.2-.2h-.2.2s0 .2-.2.2h-.2s.2 0 .3.2H17v-.4" fill="#1d81a4"/><path d="M16.7 20.8v.4c.2 0 0-.2.2-.2v-.3.3l.2-.2v.2c-.2 0 0 0 0 0H17s.2 0 .2.2h-.5.2c0 .2-.3 0-.3 0v-.4m.2.9h-.3.3l-.2.2s0-.2.3-.2h-.3c0 .2.2 0 .3 0 0 0-.3 0-.3.2h.2s0 .2.2.2l-.3-.2v.2c-.2 0 0-.2-.2-.3v.5c-.2 0 0-.2 0-.2h.3m3.2-.5c0-.2-.2-.4 0-.4v.1c.2 0 .2.2.3.3v-.3s0 .2.2.2c0 0-.2 0-.2-.2h-.1s.2 0 .3-.2l-.3.2H20s.3 0 .3-.2H20h.3-.5.2v.6" fill="#1d81a4"/><path d="M19.5 21.4V21v.5s0-.2.2-.2l.2.3-.2-.3.2.2v-.2h.1c0-.2 0-.2.2-.2h-.3.2-.4.3-.5v.4m-.5-.3v-.4.3s0-.2.2-.3v.4s0 .3.2.4V21v.3c0-.2 0 0 0 0V21H19h.4c0-.2-.3-.2-.3-.2h.1v.4m-.5-.2v-.5s0 .2.2.2c-.2 0-.2 0-.2-.2l.3.2v-.4h-.4v.5" fill="#1d81a4"/><path d="M19.5 21s-.2 0-.2-.2c0 0 0 .2.2.3V21l.3.2s-.2 0-.2-.2l.2.2-.2-.2h-.1v-.2s-.2 0-.2.2v-.2l-.2.2s0-.2.2-.3l-.2.3v-.3.3s0 .3.2.3m-.6.7c.2 0 0 .2 0 .3 0 0 .2 0 .2-.2l-.2.3h.2v-.6s0 .2.2.3V22H19c0-.2.2 0 .2-.2h-.4v-.2h.2v.5" fill="#1d81a4"/><path d="M18.5 21.6s0-.2.2 0h-.2.2l-.2.2h.2v-.2.2l.2.2-.2-.2h.2l-.2-.2h.2l-.2-.2-.2.2m-.2-.6v-.2.3h.2V21l.3.3-.2-.2s.2 0 .2.2l-.2-.2h.2s-.2 0-.2-.2h-.2v.2m1.4-1.1l-.2.2h.3-.3.2s-.2 0-.2.2h.4l.2.2s-.2 0-.2-.2v.2s0-.2-.2-.2v-.1.2c-.2 0-.2-.2 0-.3h.2m-1-.2c0 .2 0 .3.2.4V20v.2c.2 0 0-.2.2-.3v.2s0-.2.2-.2l-.2.2h.2c0 .2-.2 0-.3 0 0 .2.2.2.3.2h-.4l.2.2H19V20" fill="#1d81a4"/><path d="M18.8 20v.5l.2-.3v.3s0-.2.2-.3v.2H19l.2.2H19V20m-.2 1h-.2.3-.4.3c-.2 0-.3 0-.3.2H18.8s.2 0 .3.2H18.8v-.2.2s-.2-.2 0-.3l-.2.4V21h.4m2.2-1l-.4-.2h.2s-.2 0-.2-.2h.4-.4s.3 0 .3-.2H21l.2-.2-.2.2v-.2.4c-.2 0-.2-.2-.2-.3v.1c-.2 0 0 .3 0 .4l-.2-.3v.4h.6" fill="#1d81a4"/><path d="M21 20.2c-.2 0-.4 0-.4-.2l.3.2c-.2 0-.3-.2-.3-.2h.4l.2-.2H21v-.2s0 .3-.2.3v-.4l-.2.3v-.3.4l.3.2" fill="#1d81a4"/><path d="M20.5 20.7s-.2 0-.2-.2c0 0 .2 0 .3.2l-.2-.2h.1s.3 0 .3-.2h-.2V20v.3l-.2.4V20v.4c-.2 0 0 0 0-.2-.2 0-.2.2-.2.3v-.3.3l.3.2m-.3.1h-.4c0-.2 0-.2.2-.2l.2-.2H20v-.2.3l-.2-.2v.5h-.2.6" fill="#1d81a4"/><path d="M20.6 20.2h-.3.1c0-.2 0-.2.2-.2h-.2.3-.3l.2-.2h-.2v-.2.2s0-.2-.2-.3v.5c-.2 0 0 0 0 0h.4m.7 1H21h.5s-.2 0-.2-.2l.3.2-.3-.2h.1v-.2l-.2.2v-.2.3c-.2-.2 0-.3 0-.4l-.2.3v-.4.4h.3" fill="#1d81a4"/><path d="M20.8 21.3V21s0 .2.2.3V21s.2 0 .2.2L21 21h.2s0-.2.2-.2c0 0-.2.2-.2 0h-.5.2-.3v.5m-.4 0L20 21s0 .2.2.3V21l.2.2s-.2 0-.2-.2l.3.2-.2-.2.2-.2h-.4.2l-.2.2v-.3.3s0 .2.2.3m-.6-1.8s0 .3.2.3l-.2-.3v-.1s0 .2.2.3v-.4.3l.3-.2-.2.2h.2c0 .2.2 0 .2.2H19.8v.2h.2v-.5" fill="#1d81a4"/><path d="M19.5 20.2h.3l-.3-.2h.3s-.2 0-.3-.2c0 0 .2.2.3 0h-.2c.2 0 0 0 0 0h.2v.2h.2v.3h-.5" fill="#1d81a4"/><path d="M19.5 20.5h.2l-.2-.2h.2s-.2 0-.2-.2c0 .2.2.3.2.3V20v.3l.2-.2c0 .2-.2.3-.2.3h.2s-.2 0-.2.2l.2-.2-.2.3s0-.2.2-.2c0 0 0 .2-.2.2h-.3m.9 0s0 .2.2.2v-.4.3l.3-.4-.2.2h.3-.3.2-.4.2c0 .2-.2 0-.2 0 0 .2.2.2.2.2h-.3.1s.2 0 .2.2H20.3v-.5m-4 1.7v-.4s0 .2.2.2 0 .2.2.3V22s0 .2.2.2l-.3-.2h.3-.3s0-.2.2-.2h-.4.1-.1s.2 0 .3-.2l-.4.2s.2 0 .3-.2h-.3.2s-.3 0-.3.2v.4" fill="#1d81a4"/><path d="M16 22v-.2.4h.2v-.4c0-.2.2 0 .2 0 0-.2-.2-.2-.2-.2H16h.4c0-.2-.2-.2-.3 0 0-.2.2-.2.3-.2H16v.4m-.7 0v-.2.3l.2-.4.2.3v-.2h-.1.2-.3.2-.3c0-.2.2 0 .2 0l-.4-.2h.6c0-.2-.3-.2-.3 0 0-.2 0-.2.2-.2h-.3v.4" fill="#1d81a4"/><path d="M15.2 21.5l-.2-.2s0 .2.2.2v-.2.2c.2 0 0-.2 0-.2s.2 0 .3.2l-.2-.2h.1s0-.2.2-.2l-.3.2.2-.2-.2.2V21l-.2.2s.2 0 .3-.2l-.3.2s.2 0 .2-.2c0 0-.2 0-.2.2V21v.2s0 .3.2.3m.7.3c-.2 0-.3-.2-.3-.3 0 0 0 .2.2.3l-.2-.3s0 .2.2.2v-.2s0 .2.2.2l-.2-.2s.2 0 .2.2l-.2-.2h.3s.2 0 .3-.2H15.7h.2-.3v.2s0 .2.2.3m-.6.9v-.2.3s0-.2.2-.2v-.1s0 .2.2.2v-.3.2c0-.2 0-.2-.2-.2h-.1.3c0-.2-.3-.2-.3 0 0-.2.2-.2.2-.2h-.3v.4" fill="#1d81a4"/><path d="M15 22.3V22v.4h.2s-.2 0-.2.2c0 0 0-.2.2-.2l.2.2s0-.2-.2-.2c0-.2.2 0 .2 0l-.2-.2h.2s-.2-.2-.2 0c0-.2 0 0 .2 0 0-.2-.2-.2-.3-.2v.3m-.4-.6s0-.2.2-.2c0 0-.3 0-.3.2l.2-.2-.3.3.2-.2-.2.2.2-.2s0 .2.2.3v-.3h.1c0-.2.2 0 .2 0 0-.2 0 0-.2-.2h-.2.2c0-.2-.3-.2-.4-.2v.4m1.6-.9l-.2.2s0-.2.2-.2H16h.3s-.2 0-.2.2c.2 0 .2 0 .3-.2v.2h.2-.3l.2.2h-.4V21v.2s-.2-.2 0-.3c0 0 0-.3.2-.3m-.8.1v.3c.2 0 0-.2 0-.3l.2.2v-.5.3l.2-.4c-.2 0-.2.2-.2.3 0 0 0-.3.2-.4v.3c-.2 0 0-.3 0-.3v.2h.1-.3.2-.4s.2 0 .3.2h-.4.1v-.5" fill="#1d81a4"/><path d="M15.2 20.8v-.1s0 .2.2.3v-.3.2l.2-.3v.2s0-.2.2-.2l-.3.2h-.1l.2.2H15l.2-.4m0 1s-.2 0-.2.2h.7c-.2 0-.3 0-.3.2s.2 0 .2.2l-.2-.2c-.2 0 0 0 0 0H15l-.2.2v-.3h.4m5 1.1H20h.2s-.2 0-.2-.2l.3.2s-.2 0-.2-.2l.4.2-.2-.3.3.2c0-.2-.3-.3-.3-.3l.3-.2h-.3v.2c-.2 0 0-.3 0-.3l-.2.3v-.3.2l-.2.3v-.3.4h.4" fill="#1d81a4"/><path d="M19.8 23.3l-.2-.3s0 .2.2.2V23l.2.2V23l.2-.2h-.4c-.2 0 0 0 0 0h-.2v.2s0 .2.2.3m-.6.2v-.2l.2.2v-.2l.2-.2-.2.2.2-.2-.2.2V23l-.2.2V23l-.2.2.2.3" fill="#1d81a4"/><path d="M19 23.4h-.4.3-.3.3s-.2 0-.3-.2h.4l.3-.2H19v.2c-.2 0 0-.2-.2-.3v.1c-.2 0 0 .3 0 .4h.3m.5-.4h-.3.4s-.2 0-.3-.2h.1s.2 0 .2-.2c0 0-.2 0-.2.2 0 0 0-.2.2-.3l-.2.2v-.2.1c-.2 0-.2.2-.2.2V22.5c-.2 0 0 .3 0 .3l-.2-.2.2.3h.4m.1 1.4l-.2-.3s0 .2.2.3V24l.3.2V24h-.3v-.2h-.4v.2s0 .2.2.3" fill="#1d81a4"/><path d="M19.3 24.2v-.4.2l.2-.2.2.2h-.2s0-.2.2-.2h-.4.2c0-.2-.3 0-.3 0v.4m-.5-.2v-.5l.2.2-.2-.3s0 .2.2.2v-.3.3l.2.2c0-.2-.2-.3-.2-.3h.1v-.2h-.3.2-.3.2-.4l.2-.2-.3.2s0 .3.2.4M19 22v.5s0-.2.2-.3v.5l.2-.2h-.2s.2 0 .2.2H19h.2s.2 0 .3.2c0 0-.3 0-.3-.2l.2.2-.3-.2V22m-.5.6l.2.2-.2-.2h.3l-.3-.3.2.2c-.2 0-.2-.2-.3-.2l.2.2-.2-.3v.3s0-.2.2-.3v.3c0 .2 0 0 0 0v.2h.2l-.3.2v-.2h.4s-.2 0-.2-.2" fill="#1d81a4"/><path d="M18.4 23h.2s-.2 0-.2-.2l.2.2-.2-.2h.2V22.5v.3l.2-.3v.3c0 .2 0 0 0 0v.2s0 .2-.2 0h.3c0 .2-.4.2-.4.2l-.2-.3m.7.6v.2l.2-.2v.2l.2-.2-.2.2s.2 0 .2.2l-.2-.2H19l.2.2-.2-.2v.2s0-.2-.2-.2l.2-.3" fill="#1d81a4"/><path d="M19 24c-.2 0-.3-.2-.3-.2s0 .2.2.3l-.2-.2s0 .2.2.3V24l.3.2-.2-.2s.3 0 .3.2l-.2-.3.5.2-.3-.3H19s.2 0 .3-.2l-.2.2.2-.2s-.2 0-.2.2v-.3.3c-.2 0 0-.2 0-.3l-.2.2.2-.2-.3.2v-.2.3s0 .3.2.4" fill="#1d81a4"/><path d="M18.4 24v-.3.3l.2-.2v.2l.2.3c0-.2 0 0 .2 0l-.2-.2h-.1.2-.3.2-.4s.2 0 .2-.2h-.2.1-.1v.4m-.6-.3v-.3.3c.2 0 0-.2.2-.2v.2l.2.3V24v.3c0-.2 0 0 .2 0l-.2-.2H18h.2s.2 0 .2-.2H18v.4m-.4-.5l-.2-.2.2.2-.2-.2h.5-.4c0-.2.2-.2.2-.2h-.3v-.2l-.2.3v-.3.3c-.2 0 0-.2 0-.2l-.2.2v-.2.3l.3.2" fill="#1d81a4"/><path d="M18.3 23.8l-.2-.2s.3 0 .4.2l-.2-.2h.5s-.3 0-.3-.2v-.2s0 .2-.2.3v-.3.1l-.2.2v-.2.3l.3.2M18 25v-.4.3s0-.2.2-.3v.2l.2.2v-.2c-.2 0 0 0 0 0 0-.2-.2 0-.2 0 0-.2.2-.2.2-.2H18h.2c0-.2-.2 0-.2 0s0-.2.2-.2c0 0-.3 0-.3.2v.3" fill="#1d81a4"/><path d="M17.5 24.6s0-.2.2-.2v.6l.2-.4v-.1c0-.2 0 0 0 0 0-.2 0-.2-.2-.2h.3c0-.2-.3-.2-.3 0 0 0-.2 0-.2.2" fill="#1d81a4"/><path d="M17.2 24v.5s0-.2.2-.3l.2.3V24h-.2c0-.2.2 0 .3-.2h-.4l.2-.2h-.3v.5m1.1-1.4l-.2.2c.2 0 .2-.2.3-.3v.3l.2-.3v.5s-.2 0-.2-.2v.3s0-.3-.2-.3l.3.3-.2-.3s0 .2.2.3L18 23l.3-.3" fill="#1d81a4"/><path d="M17.7 23v-.2h.2s-.2 0-.2-.2v.1s0 .3.2.3v-.3.2s0-.2.2-.3l-.2.3h.2s-.2 0-.3.2h.5c0 .2-.2 0-.2 0V23" fill="#1d81a4"/><path d="M17.4 23s0 .2.2.2v-.4h.2v.2h-.2.3-.4l.2.2h-.3V23m.3 1h-.2.3v.2h-.2.2v.2l-.2-.2v.2s0-.2-.2-.3v.2h.3m3.8-1.3h-.3.4s-.2 0-.2-.2l.3.2s-.2 0-.2-.2l.3-.3-.4.2V22.4l-.2.3v-.2l-.2.3v-.3.4h.3" fill="#1d81a4"/><path d="M21 23.3V23s0 .2.2.3V23s0 .2.2.2l-.2-.2.2.2s0-.2-.2-.2h.1v-.2H21h.3s-.2 0-.3.2c0 0 0-.2.2-.3l-.2.2v-.3s0 .2-.2.3l.3.3m-.6.4v-.3s0 .2.2.2v-.2s.2 0 .2.2c-.2 0-.3-.2-.3-.2h.2V23v.2h-.2V23l-.2.2.2-.2-.2.2V23v.6" fill="#1d81a4"/><path d="M20.2 23.5H20h.2s-.2 0-.2-.2h.4l.4-.3H20h.3c-.2 0 0 0 0 .2-.2 0-.2-.3-.2-.3v.3c-.2 0 0 0-.2-.2v.5h.4" fill="#1d81a4"/><path d="M21 23h-.4.3-.3.2l.2-.2h-.2.2s0-.2.2-.2l-.2.2v-.2s-.2.2 0 .3l-.2-.3c-.2 0 0 .3 0 .3s-.2 0-.2-.2v.3s.4.2.5 0m-.1 1.3V24v.2s0 .3.2.3V24v.2s0 .2.2.3l-.2-.2.2.2s-.2 0-.2-.2l.3.2s-.2 0-.2-.2h-.1l.2-.2-.2.2v-.2l-.2.2.2-.2-.2.2v-.2s0 .2-.2.2l.3.3" fill="#1d81a4"/><path d="M20.6 24.2V24v.3c.2 0 0-.2.2-.3v.2l.3.3V24H21l.2-.2h-.3.2-.4.3-.5v.4M20 24v-.5l.2.3v-.3s0 .2.2.2c0-.2-.2-.3-.2-.3l.3.2-.2-.3h-.1l.2-.2H20v.4m.3-1.3v.2s0-.2.2-.2V22v.5l.2-.3v.4h-.2.2-.4s.2 0 .2.2h-.3.2-.2V22" fill="#1d81a4"/><path d="M20 22.7s0 .2 0 0h.2l-.2-.2h.2l-.2-.2.2.2v-.2.2l.2-.2s0 .2-.2.3c0 0 .2 0 .2-.2l-.2.2h.2l-.2.2s.2 0 .2-.2l-.2.2H20m-.3.2h-.1.2s-.2 0-.3-.2h.2s-.2 0-.2-.2l.2.3v-.4.3h.2s0 .2-.2.2c0 .2 0 0 .2 0l-.2.2h.3l-.3-.3m.6.6v.2l.2-.2v.2s.2 0 .2-.2l-.2.2h.1l.2.2c0-.2-.2-.2-.3-.2s.2 0 .2.2c0 0-.2 0-.3-.2l.2.2s-.2 0-.3-.2l.2.2h-.2l-.2-.2.3-.3m-3.7.6v-.6s0 .2.2.3v-.4.2l.3.3c0-.2-.3-.3-.3-.4l.2-.2h-.4.2-.4s.2 0 .2-.2l-.3.3s0 .3.2.4" fill="#1d81a4"/><path d="M16.2 23.7v-.3.3l.2-.2.2.3v-.4.1l.2.2-.2-.2h-.1c0-.2.2 0 .2 0 0-.2 0 0-.2-.2h-.1.2c0-.2-.3 0-.3 0v.3" fill="#1d81a4"/><path d="M15.7 23.5v-.2.3s0-.2.2-.2c0 0-.2 0-.2.2v-.2.3l.2-.3v.1c0-.2.2 0 .2-.2H16s.2 0 .3-.2c0 0-.2 0-.2.2h.2c0-.2-.2 0-.3 0v.3m-.5-.4s-.2-.2 0-.2l.2.2V23h-.1s0-.2.2-.2h-.7s0 .4.2.4" fill="#1d81a4"/><path d="M16.2 23.5v-.3l.2.2v-.2l.2-.2H16v.2s0 .2.2.3m-.7.9v-.2.3s0-.3.2-.3v.2l.3.2v-.2c0-.2 0 0 0 0 0-.2-.2-.2-.2-.2h-.1.2c0-.2-.3-.2-.3 0 0-.2 0-.2.2-.2h-.4v.4" fill="#1d81a4"/><path d="M15.2 24l.2-.2v.7s0-.2.2-.2v.2c0 .2 0 .2.2.3 0 0 0-.2-.2-.2 0 0 0 .2.2.2 0 0-.2 0-.2-.2h.2l-.3-.2h-.1l-.2.2m-.2-1.2s0-.2.2-.2v.5s0-.3.2-.3h-.1c0-.2.2 0 .3 0 0 0-.2 0-.3-.2h-.1.3c0-.2-.3-.2-.3 0 0 0-.2 0-.2.2m1.5-1s-.2 0-.2.2c0 0 0-.2.2-.2v.2h.3-.4l.2.3-.2-.2v.2l-.2-.3c-.2 0 0 0 0 .2l-.2-.3v-.2l.3-.2" fill="#1d81a4"/><path d="M15.8 22.4s0 .3.2.3v-.4.3l.2-.3v.2h.2c0 .2-.3 0-.3 0l.3.2H16l.2.2s-.3 0-.3-.2c0 .2 0 0-.2 0v-.4" fill="#1d81a4"/><path d="M15.5 22.5v-.1s0 .2.2.3v-.3.2l.2-.2-.2.2s0-.2.2-.2l-.2.2h.5c0 .2-.2 0-.2 0 0 .2.2.2.2.2h-.3.2-.4.3-.4.2c0 .2-.3 0-.3 0l.2.2s-.2 0-.3-.2v-.3m.2.8s-.3 0-.3.2h.5s-.2 0-.3.2h.1v-.1.2l-.2-.4v.1c-.2 0 0 .2 0 .3-.2 0-.2-.3-.2-.3v-.1h.4m2.6 2.6s0 .3.2.3V26l.2.2V26c0-.2.2 0 .3 0l-.4-.2h.3-.4.1s.2 0 .2-.2h-.4.3-.4.2c0-.2-.3 0-.3 0l.2.5" fill="#1d81a4"/><path d="M17.8 26v-.3.3s0-.3.2-.3v.5h.3c-.2-.2 0 0 0 0V26h-.2.1c0-.2.2-.2.3-.2h-.7v.3m-.6-.3v-.3.3l.2-.3.2.2v-.3s0 .2.2.2c0-.2-.2-.3-.2-.3h.2s-.2-.2-.3 0c0-.2.2-.2.2-.2H17.4h.2c0-.2-.2 0-.2 0s0-.2.2-.2h-.3v.5" fill="#1d81a4"/><path d="M17 25.5v-.3s0 .2.2.3v-.3s0 .2.2.2l-.2-.2s.2 0 .2.2l-.2-.2h.1V25H17s-.2 0-.2.2l.3.3m.7.2l-.2-.3s0 .2.2.3v-.3.2c.2 0 0 0 0-.2l.3.2v-.4h-.4v.2s0 .2.2.3m-.9 1s0-.3.2-.3v.1c.2 0 0 .3 0 .4 0-.3.2-.4.2-.4l.2.2v-.2h-.2c0-.2 0-.2.2-.2h-.4l.2-.2H17v.5" fill="#1d81a4"/><path d="M16.8 26.3l.2-.2-.2.3.2-.2c0 .2 0 .3-.2.4l.2-.2v.2l.2.2v-.2H17h.4l-.3-.2h.4s-.2 0-.2-.2h-.1l-.2.3m-.4-.9v-.2.3l.2-.2-.2.2h.2v-.2s0 .2.2.3v-.3.1h-.2v-.2h.2c0-.2.2 0 .3 0 0-.2-.2-.2-.2-.2h-.4v.3m1.3-.9l-.2.2h.8s-.3 0-.3.2h.2c.2 0 .2 0 .3.2 0 0-.2 0-.2-.2l.2.2V25c-.2 0 0 .2 0 .2L18 25v.2l-.2-.3v-.1.2l.3-.2" fill="#1d81a4"/><path d="M17.4 24.7v-.2s0 .2.2.3v-.4.4l.3-.3c-.2 0-.3.2-.3.3l.2-.2-.3.2H17.8h-.4c0 .2.2.2.2.2h-.2.1l.2.2h-.3v-.5" fill="#1d81a4"/><path d="M17 24.7s0 .2.2.2v-.5.3s0-.3.2-.4v.5s0-.3.2-.3c0 0-.2 0-.2.2l.2-.2h-.2s0 .2.2.2H17s.3 0 .4.2H17v-.5m0 1.2h-.2.2s-.2 0-.2.2h.3s.3 0 .4.2H17h.2v.3l-.2-.2v-.4h.3M16 26c0-.2 0-.4.2-.4l-.2.4.2-.3s0 .2-.2.3l.3-.2-.2.3h.3v-.3l.2.3V26h-.3.3l-.3-.2h.3l-.3-.2h-.1l-.2.3" fill="#1d81a4"/><path d="M15.8 25.5l.3-.2-.2.2h.1c0 .2.2 0 .3 0 0 0 0 .2-.2.3l.3-.2v.2h.2v-.4l.2.2-.2-.2h.2s-.2 0-.3-.2c0 0 0 .2-.2.3" fill="#1d81a4"/><path d="M15.6 25l.2-.2-.2.2h.2l-.2.2h.2V25v.2c0 .2 0 .3.2.3V25c.2 0 0 0 0 0h-.4m.1-.4v-.3.4s0-.2.2-.3l-.2.3v-.2c.2 0 0 .2 0 .3l.2-.3.2.2v-.2H16c0-.2 0 0 .2 0 0-.2-.2 0-.3-.2h-.1.5c0-.2-.2 0-.3 0v.3" fill="#1d81a4"/><path d="M16 25.3V25v.4s0-.2.2-.2v.3l.2.3v-.3h-.1c0-.2 0-.2.2-.2H16l.4-.2H16v.5m-1.2-.2h.4l-.2.2h.2v-.1s0 .2.2.2v-.4l.2.2-.2-.3.2.2-.3-.2s-.2 0-.2.2" fill="#1d81a4"/><path d="M15 25h-.2.5l-.2.2h.1l-.2.2.3-.2s0 .2.2.2V25l.2.2V25h-.5m0-.7s.2 0 .3.2h-.3.2s0 .2-.2.2h.2v-.2s.2 0 .2.2v-.4s0 .2.2.3c0 0 0-.3-.2-.3 0 0 .2 0 .2.2 0 0 0-.2-.2-.3h-.4m1.8.6h-.3s.2 0 .3.2h-.2s.2 0 .2.2c0 0-.2-.2-.2 0h-.2v-.5s0 .2-.2.2l.2-.3h.4" fill="#1d81a4"/><path d="M16.5 24.3l-.2.2.2-.2v.3l.2-.2-.2.2.3-.2-.2.2h-.1l.2.2h-.2l-.2-.2v-.1.3l-.2-.4.3-.3" fill="#1d81a4"/><path d="M16.3 24l-.2.3.3-.2c0 .2-.2.3-.2.3h.3l.2.3h-.2v-.2.3l-.2-.3v.2s0-.2-.2-.2v-.2l.3-.2m-.7.6h-.3l.2.2s0-.2-.2-.2c0 0 .2 0 .2.2h-.2v-.1h-.2s.2 0 0 0v-.4h.5M19 27v-.3s0 .3.2.4v-.3.2l.2.3V27l.2.3V27h-.2.3-.3l.2-.2h-.3.3H19c.2 0 .3 0 .4-.2 0 0-.3 0-.3.2l.3-.2-.3.2v.5" fill="#1d81a4"/><path d="M18.7 27v-.4.3c0-.2 0-.3.2-.3l-.2.2v-.3.3s0-.2.2-.2v.4s0 .2.2.3V27H19c0-.2.2-.2.2-.2h-.4.2l.3-.2H19v.5m-1-.4c.2 0 .2-.3.2-.3v.4s0-.2.2-.3 0 .2.2.3v-.4h-.2c0-.2.2 0 .2-.2H18.3h.2c0-.2-.3 0-.3 0v.3" fill="#1d81a4"/><path d="M18 26.4l-.2-.2.2.2v-.2.2c.2 0 0-.2 0-.3l.3.4-.2-.3c0 .2.3.3.3.3s-.2 0-.2-.2l.4.2h-.2s0-.2.2-.2H18l.2-.2-.2.3V26v.3s0 .4.2.4" fill="#1d81a4"/><path d="M18.7 26.6l-.2-.2s0 .2.2.2v-.2l.2.2-.2-.2.2.2-.2-.3.2.2s-.2 0-.2-.2h.3c-.2 0 0 0 0 0l.2-.2c0 .2-.2.3-.2.3V26v.2s0 .2-.2.3l.2-.2-.3.3s0-.2.2-.2l-.2.3V26v.3s0 .3.2.3m-.9 1v-.3.1c.2 0 0 .2 0 .3l.2-.2.2.3v-.3h-.1.2c0-.2-.2 0-.3-.2H18h.4c0-.2-.3 0-.4 0v.3" fill="#1d81a4"/><path d="M17.7 27.2l.2-.2s-.2 0-.3.2h.2l-.2.2s0-.2.2-.2l-.2.3.2-.3v.1h.2V27l.3.2H18c0-.2.2 0 .3 0L18 27s-.3 0-.3.2m-.2-.6s0-.3.2-.3l-.2.3.2-.2v.2s0 .2.2.3l-.2-.4s0 .2.2.2v-.2h.1c0-.2.2 0 .2 0 0-.2 0-.2-.2-.2h-.3.3s-.2-.2-.3 0c0-.2.2-.2.3 0 0-.2-.3-.2-.4-.2v.4m1.4-.9s-.2 0-.2.2c0 0 0-.2.2-.2l-.2.2.3-.2v.2l.3.2H18.8v.2l-.2-.2.4-.2m-.7-.2v-.1s0 .2.2.2v-.3.2l.3-.2-.2.2h.3-.3.2-.4.3-.4c0 .2.2 0 .2.2h-.3.2-.1v-.4" fill="#1d81a4"/><path d="M18 25.6v-.1.2l.2-.2v.3s0-.2.2-.2v.4H18l.2.2-.3-.2v-.4m.1.9h-.2.3v.2h.3-.3l.3.2s-.2-.2-.3 0v.1c-.2 0 0 .2 0 .2-.2 0 0-.2-.2-.2v-.3.2c-.2 0 0-.3 0-.4h.2m-3.3 7.1c0-.2-.2-.3-.2-.3l.2.3-.3-.2.3.3-.3-.2.2.3s0-.2-.2-.2l.2.3-.2-.4s0 .3-.2.3v-.3.1-.2l.2-.2h-.3.4s.2 0 .2.3" fill="#1d81a4"/><path d="M15 33h-.4.3-.3c0 .2.2 0 .2.2h-.3.1s.2 0 .2.2h-.3.2-.3v-.2s-.2 0-.2.2V33c-.2 0 0 0 0 0h.4m.4-.5s.2 0 .3.2H15l.2.2c0-.2 0-.3-.2-.3l.2.3s0-.2-.2-.2h-.2l.2-.2-.2.2v-.4h.5" fill="#1d81a4"/><path d="M15 32.2l-.2-.2v.6s0-.2-.2-.2 0 .2-.2.2l.2-.2h-.2s.2 0 .2-.2h-.2.1s.2-.2.3 0c0-.2-.2-.2-.3-.2h.3v.4" fill="#1d81a4"/><path d="M14.7 33v-.3.3s0-.3-.2-.3v.3l-.2.2V33H14h.2l.4-.2h-.2c0-.2.3-.2.3-.2h-.2.3v.3m1.2.1l-.4-.2h.3-.3c0 .2.2 0 .2.2h-.3.1s.2 0 .2.2h-.3.2-.3V33s0 .2-.2.3V33v.2c-.2 0 0-.2 0-.3 0 0 .4 0 .4.2" fill="#1d81a4"/><path d="M15.7 32.4h-.2c0 .2.2 0 .3 0l-.2.2h.3-.4l.3.2h-.4.1s.2 0 .2.2l-.2-.2v-.2l-.2.2v-.4V32.7c-.2 0 0-.2 0-.3h.3" fill="#1d81a4"/><path d="M15.3 32H15h.4c.2 0 .4 0 .4.2h-.2s.2 0 .2.2l-.2-.2v.2c-.2 0 0-.2 0-.2-.2 0-.2.2-.2.2V32v.2c-.2 0 0-.3 0-.3h-.2l.2-.2h.3m-2 .9h-.1.2s-.2 0-.3.2H13.8s-.2 0-.3.2l.2-.2-.2.3V33c.2 0 0 .3 0 .3l.2-.2V33h.2l-.2-.2.2.2-.2-.3.2.2v-.2h.1-.3m.3-.7c.2 0 .3.2.3.2H14s.2 0 .2.2h-.3.3v.2s0-.2.2-.2v-.1.3l.2-.3v-.1s-.2 0-.3-.2" fill="#1d81a4"/><path d="M14.3 31.8s.2 0 .2.2l-.3-.2.2.2H14h.3s-.3 0-.3.2h.3l-.2.2c.2 0 .3-.2.3-.2V32v.4l.2-.2v.3c.2 0 0-.3 0-.4 0 0 0-.2-.2-.2m.6.4h.2l-.2.2h.2s.2 0 .2.2v-.2c0-.2 0 0 0 0v-.4.2H15" fill="#1d81a4"/><path d="M14.7 32.3h.3s-.3 0-.3.2h.3s-.3 0-.3.2l.3-.2-.3.3c.2 0 .2-.2.3-.2l-.2.3.2-.4s.2 0 .2.2l-.2-.3.3.2-.2-.3.3.2-.2-.3s.2 0 .3.2l-.2-.3.3.2s0-.2-.2-.2h-.3m-.4-.1h-.1.2s-.3 0-.4.2h.3-.4.3s-.3 0-.3.2c0 0 0-.2.2-.2l-.2.2v-.2s.2 0 .2.2V32l.2.2V32h-.5m.6-.7h-.1c0 .2.2.2.2.2h-.4.2l-.3.3.2-.2-.2.2v-.2.2s.2 0 .2-.2v-.2s0 .2.2.2v-.4h-.4m.6-.2s0-.2.2-.2l-.2.3h.2v.3l.2.4V31v.3c0-.2 0 0 0 0v-.5h-.2s-.2 0-.2.2" fill="#1d81a4"/><path d="M15 31.8s0-.2.2-.2c0 0-.2 0-.2.2l.2-.2-.2.3c0-.2.2-.3.2-.3l-.2.2.2-.2v.6c0-.2.2 0 .2 0v-.4h-.2.3s-.3-.2-.3 0c0 0-.2 0-.2.2m-1.2-.6h.2s.2 0 .2.2h-.3.3l-.2.2h.2v-.2c.2 0 .2 0 .2.2v-.4l.2.2s0-.2-.2-.3H14" fill="#1d81a4"/><path d="M14.2 31H14c.2 0 .3 0 .3.2 0 0 0-.2-.2-.2l.3.2H13.8h.2s-.3 0-.3.2c.2 0 0 0 0 0h.2v-.2.2s0-.2.2-.3v.2c.2 0 0-.2 0-.3h-.2m.8-.4s.2 0 .2.2h-.4.3l-.3.2h.3v-.2c.2 0 0 0 .2-.2v.3c.2 0 0-.3 0-.3h-.3m1.3 1.2s0-.2-.2-.2c0 0 .2 0 .2.2h-.2l.2.2s0-.2-.2-.2c0 0 0 .2.2.3h-.2v-.3h-.2v-.4h.2s.2 0 .3.2" fill="#1d81a4"/><path d="M15.8 31c0 .2-.2.2-.2.3h.3-.4.5c0 .2-.2.2-.2.2h.2s.2 0 .2.2l-.2-.2v-.1c-.2 0 0 .2 0 .3-.2 0-.2-.2-.2-.3v-.1l-.2.3v-.4h.4" fill="#1d81a4"/><path d="M15.7 30.8h-.2.3l-.3.2h.5-.4l.3.2h-.4c-.2 0 0 .2-.2.2V31s0 .2-.2.2v-.4l.4-.2m-.5.4h-.3s.2 0 .2.2c-.2 0-.3-.2-.3-.2l.2.2h-.3V31v.2l-.2.2v-.2h-.2s.2 0 .3-.2h-.2l.3-.2h-.3.3l.2.3m6.7-2.5v-.4c.2 0 0 .3 0 .4l.2-.3v.1c.2 0 0 .3 0 .4l.2-.3.3.2v-.2H22h.3l-.2-.2h-.5c0-.2.2 0 .4-.2h-.4.3-.5v.6" fill="#1d81a4"/><path d="M21 28.2c.2 0 .3-.2.3-.2v.5s0-.2.2-.2l.2.2s0-.2-.2-.2h.2s-.2 0-.2-.2c0 0 0 .2.2.2h-.2c0-.2 0 0 .2 0l-.3-.2s-.2 0-.3.2" fill="#1d81a4"/><path d="M20.7 27.7h.2l-.2.2s0-.2.2-.2v.5c0-.2 0 0 .2 0V28l-.2-.2h.3l-.3-.2-.3.3m.1-.5V27v.4s0-.2.2-.2 0 .2.2.3l-.2-.3.3.2-.3-.2h.1V27h-.3v.4m.5.6v-.3.3s0-.2.2-.3v.1l.2.2v-.2h-.2.2c0-.2-.2 0-.2 0 0-.2.2-.2.2-.2h-.4l.2-.2s-.2 0-.2.2v.3m-1.2.6l.4-.2s-.2 0-.2.2l.2-.2-.2.3s0-.2.2-.2l-.2.2h.2v-.2s0 .2.2.2v-.4c0-.2 0 0 0 0s0-.2-.2-.2l-.3.3" fill="#1d81a4"/><path d="M20 28h.3c0 .2.3 0 .3 0l-.2.3c.2 0 .3-.2.3-.2 0 .2 0 .3-.2.3h.3V28s.2 0 .2.2v-.4.2h.2l-.3-.2s-.2 0-.3.2m-.4-.7h.3l-.3.2h.3s-.2 0-.2.2l.2-.2h.2v-.4.3s0-.2-.2-.2l-.3.3m1.8-.3h-.3.3l-.2.2h.5-.3v.2h-.2v-.2l-.2.2v-.4h.4m-.6-.2v-.2h.5-.4c0 .2.3 0 .3 0l-.4.2v.2l-.2-.2.2.2-.3-.2.2.2s-.2 0-.2-.2" fill="#1d81a4"/><path d="M21 26.7v.3s0-.2.2-.2c0 0-.2.2 0 .2v-.2.2s0-.2.2-.2l-.2.2h.1l.2.2h-.4.1v-.5m-.5.8h-.3.4s-.2 0-.3.2l.3.2c0-.2-.2-.2-.3-.2 0 0 .2 0 .3.2l-.2-.2v.3l-.2.2v-.7l-.2.2v-.3.2s0-.2.2-.3h.3" fill="#1d81a4"/><path d="M20.8 27.5h-.4.4s-.2 0-.3.2h.3-.4l.3.2-.4-.2.3.3h-.4c0-.2 0 0 .2.2l-.2-.3v-.1.2c-.2 0-.2.3-.2.3v-.5s0 .2-.2.3v-.7h.6" fill="#1d81a4"/><path d="M20.5 27l-.2.2h.4s-.2 0-.3.2h.4-.3l.2.2h-.2v-.2c-.2 0 0 .2 0 .2-.2 0-.2-.2-.2-.2v-.1.2c-.2 0-.2-.2 0-.3h.2" fill="#1d81a4"/><path d="M20.2 26.6H20h.3s-.3 0-.3.2l.3-.2-.2.2h.2s.3 0 .3.2h-.3v-.2c-.2 0 0 0 0 0-.2 0-.2 0-.2-.2v.6c-.2 0-.2-.3 0-.3h.2m-.3-.4c-.2 0-.3-.2-.4 0h.3-.4.3-.3.1l.2.3c-.2 0-.3-.2-.3-.2s0 .2.2.2h-.3v-.2s-.2 0-.2.2V26.2v.1l-.2.2.3-.2s.2 0 .3.2" fill="#1d81a4"/><path d="M20.3 27H20s.2 0 .3.2H20s.2 0 .3.2H20s.2 0 .2.2l-.2-.2v-.1l-.2.2.2-.2h-.2v-.2h.5m.7-.9s-.2 0-.2.2h.6s-.2 0-.2.2h.2s.2 0 .2.2v-.2c-.2 0 0 0 0 .2-.2 0-.2-.2-.2-.2v-.1c-.2 0 0 .2 0 .3-.2 0-.2-.3-.2-.3v-.1l.3-.2" fill="#1d81a4"/><path d="M20.6 26v.4l.2-.2v.3h.2l.2.2H20.6v-.2s0-.2.2-.3M20 26s-.2 0-.2.2c0 0 0-.2.2-.2 0 0-.2.2 0 .2V26v.2h.2l.3.2H20v-.2s0-.2.2-.3m-.9 1.7v-.2.2s0-.2.2-.2v.2s0 .2.2.3v-.4h.2-.3.2-.4.3-.4c0-.2.2 0 .2 0 0-.2-.2-.2-.2-.2h.5s-.3-.2-.3 0c0 0 0-.2.2-.2h-.3v.4" fill="#1d81a4"/><path d="M19.2 27H19h.4c0 .2-.2.2-.3.2h.5l-.2.2.2-.2V27l.2.3V27c.2 0 0 0 0 0h-.4" fill="#1d81a4"/><path d="M19 26.6h.7c0 .2 0 .2-.3.2h.5l-.2.2h.2v-.2.2l.2.2v-.4H19m1-.3v-.3.1c.2 0 0 .2 0 .3l.2-.3v.1l.3.3v-.3c-.2 0 0 .2 0 .2v-.2h-.2c0-.2 0 0 .2-.2H20h.3c0-.2-.2 0-.3 0v.3" fill="#1d81a4"/><path d="M19.8 26.7v-.3.4l.2-.3.2.4v-.3l.2.2s-.2-.3 0-.3h-.2c0-.2.3 0 .3 0 0-.2-.3-.2-.4-.2h.1c0-.2.2-.2.3-.2H20l-.2.4" fill="#1d81a4"/><path d="M19.5 26.4l.2-.2-.2.2s.2-.2.2 0v.1c.2 0 .2.2.2.2v-.4h.1c0-.2.2 0 .3 0L20 26s.2 0 .2.2h-.3s-.2 0-.2.2" fill="#1d81a4"/><path d="M19 26l.3-.3s0 .2-.2.3c.2 0 .3-.2.3-.2v.2c.2 0 .2.3.2.3V26h-.2.3s-.2 0-.3-.2h.2l-.3-.2-.2.3" fill="#1d81a4"/><path d="M19 25.6v-.3.3s0-.2.2-.3v.1s0 .2.2.3v-.3s0 .2.2.2c0 0-.2 0-.2-.2h-.1s0-.2.2-.2H19h.3c0-.2-.2 0-.3 0v.4" fill="#1d81a4"/><path d="M19.6 26v.5s0-.2.2-.3v-.4s0 .2.2.2h-.2v-.2h.2-.3.2-.3l.2-.2h-.4.2s-.2 0-.3.2v.3m-.8.5s.2-.2.2 0h-.2.3l-.2.2h.2v-.2.2h.2v-.2h.3l-.2-.2H19l-.3.2" fill="#1d81a4"/><path d="M18.5 26h.2s-.2 0-.2.2h.2l-.2.2h.2l.2.2-.2-.3h.2l-.2-.2s0 .2.2.3c0 0 0-.2-.2-.3 0 0 .2 0 .2.2 0 0 0-.2-.2-.2h-.3m.2-.6h-.1.3-.4.2l-.2.2h.4c-.2 0-.3 0-.3.2 0-.2 0-.3.2-.3l-.2.3v-.3s.2 0 .2.2v-.5h.2l-.3-.2h.2s-.4 0-.4.2m2 .1H20h.5s-.2 0-.3.2h.1l.2.2H20v-.4h.4" fill="#1d81a4"/><path d="M19.8 25v.6l.2-.2v.2s0 .2.2.2h-.5.2-.3V25" fill="#1d81a4"/><path d="M19.5 25s-.2 0 0 .2v-.4.2l.2-.2v.2h-.1l.2.2h-.5c-.2 0 0 0 0 0h-.2V25s0-.2.2-.3m-.3 1h.3c0 .2 0 0 .2.2h-.7s-.2 0-.2.2v-.4s0 .2-.2.3v-.5h.5m-1.3 6.7V32v.3s0-.3.2-.3v.4l.2.3v-.3l.2.2-.2-.2h.3c0-.2-.3-.2-.4-.2h-.1.2-.4c0-.2.2 0 .3-.2h.1v.4m-.7-.4c0-.2.2-.3.2-.3l-.2.2.2-.2-.2.2.3-.2-.2.2h.2s-.2 0-.2.2l.2-.3h.2s0-.2-.2-.2h.3-.4.3-.4c0-.2.2 0 .2 0l-.2-.2h.1l-.2.3" fill="#1d81a4"/><path d="M17 31.4v-.2.3h.2s-.2 0-.2.2l.2-.2v.1h.3l-.3-.2h.3l-.3-.2H17v.2" fill="#1d81a4"/><path d="M17 31v.3l.2.2v-.7l.2.2-.2-.3s0-.2.2-.2H17l.2-.2H17v.5m.4.8v-.2l.2.3v-.3.1s0 .2.2.2v-.2c0-.2 0 0 0 0v-.2h-.4s.2 0 .3-.2l-.3.2h-.1v.4m-1 .3h.2l-.2.2.2-.2v.3c.2 0 .2.2.2.2v-.2h.2-.3.2c-.2 0-.3-.2-.3-.2s0 .2.2.2c-.2 0-.3 0-.4-.2h.3-.4.3-.4.2s-.2-.2-.3 0h-.2" fill="#1d81a4"/><path d="M16.3 31.6h.2s-.2 0-.2.2h.2s-.2 0-.3.2l.3-.2-.2.2h.2v-.2h.2s-.2 0 0-.2v-.2h-.4" fill="#1d81a4"/><path d="M16.4 31h.2l-.2.2h.3s-.2 0-.2.2c0 0 0-.2.2-.2 0 0-.2.2 0 .3v-.3h.2-.3.2-.3.2s-.2 0-.3-.2h.4l-.3-.2s.2 0 .2.2l-.3-.2s-.3 0-.3.2m2.1 0h-.4l.3.2H18h.2l.2.2-.2-.2V31v.3c-.2 0 0-.2 0-.2l-.2.3V30.8s.3-.2.4 0" fill="#1d81a4"/><path d="M17.6 30.6s-.2.2 0 .2v-.2c.2 0 0 0 0 .2l.3-.2c-.2 0-.3.2-.3.2s.2 0 .2-.2l-.2.2h.4s0 .2.2.2h-.3.2-.7s0-.4.2-.4" fill="#1d81a4"/><path d="M17.3 30.4l-.2.3c.2 0 .2-.2.3-.3v.3l.2-.2v.2l.2.2c0-.2-.2-.2-.3-.2v.2s0-.2-.2-.2l.2.2-.3-.2s.2 0 .3.2l-.2-.2s.2 0 .2.2l-.2-.3.3-.3m-.6.9h-.4.3-.4.3s-.3 0-.3.2h.1l.3.2h-.3v-.2s0 .2-.2.2v-.4.2c-.2 0 0-.2 0-.3l.4.2m2.4.7v-.3.1l.2.2v-.2.2s0 .2.2.2l-.2-.2.2-.2H19s.3 0 .3-.2l-.2.2s.2 0 .2-.2l-.2.3s0 .3.2.3" fill="#1d81a4"/><path d="M18.8 32v-.4.3s0-.2.2-.2 0 .2.2.2v-.2H19c0-.2 0 0 .2-.2H19h.2c0-.2-.2 0-.2 0v.3m-.7 0v-.3.5s0-.3.2-.3v-.1s0 .2.2.2v-.3c-.2 0 0 0 0 0h-.2c0-.2 0-.2.2-.2h-.4.2c0-.2-.2 0-.2 0v.3" fill="#1d81a4"/><path d="M18 31.6v-.3s0 .2.2.2v-.2l.2-.2c0 .2-.2.2-.2.2h-.4l.3.4m.6 0v-.2h.3c-.2 0 0 0 0-.2h-.4v.4m-.4.9v-.2.3s0-.2.2-.2l.2.2v-.2h-.2.2c0-.2 0 0-.2 0 0-.2 0-.2.2-.2h-.4v.3" fill="#1d81a4"/><path d="M18 32.3V32v.5h.2v-.3h.2s-.2 0-.2-.2c0 0 0 .2.2.2H18c.2-.2.3 0 .4 0 0-.2-.2-.2-.3-.2h.1v.3m-.5-.6v-.2.3l.2-.2s-.2 0-.2.3v-.3.2s0-.3.2-.3v.1h.1v-.2.2m1-.9c-.2 0-.3.2-.3.2s0-.2.2-.3l-.2.2s0-.2.2-.2v.4l-.2-.2v.2l-.2-.2v.2l.3-.3" fill="#1d81a4"/><path d="M18.3 30.8v.2l.2.2v-.6.2s0-.3.2-.3V30.8H18.4c0 .2.2 0 .3.2h-.4v-.4" fill="#1d81a4"/><path d="M18 31s0 .2.2.2V31v.2l.2-.2v.2h-.2s.2 0 .2.2H18h.2V31m-.2.6v.2h.2s.4 0 .4.2h-.4v.3s-.2 0 0-.2c-.2 0-.2.2-.2.2v-.2l.3-.2m-1.3-.7h-.4.4s-.2 0-.3.2h.2l.3.2H17s.2 0 .2.2l-.2-.2-.2.2v-.5s0 .2-.2.3V31s.5 0 .6.2" fill="#1d81a4"/><path d="M16.7 30.8h-.3.3s-.2 0-.2.2h.5-.4.3-.3s.2 0 .3.2h-.3V31v.4l-.2-.3v.3c-.2 0-.2-.3-.2-.3V31l.4-.2m-.2-.5H16h.4s-.2 0-.2.2l.3-.2s-.2 0-.2.2h.1s.2 0 .3.2h-.3v-.2.2l-.2-.2v.2s-.2-.2 0-.2c-.2 0-.2 0-.2.2v-.3h.4" fill="#1d81a4"/><path d="M16 30s.2 0 .3.2H16l.3.2H16l.2.2s0-.2-.2-.2l-.2.2.2-.3-.2.2v-.4h.5m.1.7h-.2l.2.2h-.2l.2.2-.2-.2s-.2 0-.2.2v-.6h.4m.8-.6H17h.4l-.2.2.4-.2s-.2 0-.2.2h-.1l.2.2h-.3v-.2.3s0-.2-.2-.3V30v.2h.2m-.4-.5l-.2.3s0-.2.2-.3v.3l.2-.2v.4h-.4V30s0-.2.2-.3m-.8-.1v.3s0-.3.2-.3l-.2.2c0-.2 0-.3.2-.3V29.8s0-.2.2-.2h-.2.2s-.2 0-.2.2l.2.2-.2-.2v.2s0-.2-.2-.2v.2-.2.2l-.2-.3.3-.4m-.6 2V31v.5s0-.2.2-.2 0 .2.2.3l-.2-.3s0 .2.2.2l-.2-.2h.2s-.2 0-.2-.2c0 0 0 .2.2.2h-.3.3c0-.2-.3-.2-.3-.2h-.2.1v.3" fill="#1d81a4"/><path d="M15.4 30.6h-.1s.2 0 .3.2h-.3.2l-.2.2h.2v-.2h.2v.2-.3l.2.2c0-.2-.2-.3-.3-.4l.2.2-.3-.2h-.3" fill="#1d81a4"/><path d="M15.3 30.3h.2s0 .2-.2.2h.2s0 .2-.2.2h.2v-.2s.2 0 .2.2v-.5l.2.2c-.2 0-.3-.2-.3-.2h-.4m1 0V30v.3s0-.2.2-.3v.3l.2.4V30v.2l.2.2h-.3.2c0-.2-.2 0-.2-.2h-.1.2c0-.2-.3 0-.3 0 0-.2.2-.2.3-.2h-.4v.4" fill="#1d81a4"/><path d="M15.7 30v-.3.4s0-.2.2-.2l-.2.3h.2v-.4l.2.3V30H16h.2c.2-.2.4 0 .4 0 0-.2-.3-.2-.4-.2h.3c0-.2-.4 0-.4-.2h-.5v.4" fill="#1d81a4"/><path d="M15.4 29.7l.2-.2-.2.2.2-.2v.3l.2.2v-.2h.2l-.3-.2h.3s-.3 0-.3-.2h-.2l-.2.3" fill="#1d81a4"/><path d="M15 29.2l.2-.2s0 .2-.2.3l.2-.2c0 .2 0 .2-.2.3h.4s-.2 0-.2.2c.2 0 .3-.2.3-.2s.2 0 .2.2v-.2h-.2c0-.2.2 0 .3 0 0 0-.2 0-.3-.2 0 0 .2 0 .3.2l-.3-.2h-.3s-.2 0-.2.2m0-.4v-.5l.2.2v-.3l.3.2-.2-.3s.2 0 .2-.2H15h.2c0-.2-.2 0-.3 0v.4" fill="#1d81a4"/><path d="M15.5 29.4V29v.2c.2 0 0 0 .2.3v-.3s0 .2.2.3c-.2 0-.2-.2-.2-.3 0 0 0 .2.2.3l-.2-.3.3.2-.2-.2h-.1l.2-.2h-.5v.4m-1 .6c0-.2.2-.3.2-.3s0 .2-.2.3l.3-.2s-.2 0-.2.2h.2l-.2.2.2-.2.2.2s-.2 0-.2-.2h.2s-.2 0-.3-.2h.2l-.4-.2-.2.3" fill="#1d81a4"/><path d="M14.4 29.4h.2l-.2.2h-.1.3l-.2.2h.4v-.5h-.4m.1-.5s.2-.2.2 0h-.2.2l-.2.2h.5l-.2-.2s.2 0 .2.2c0 0 0-.2-.2-.2h.3s0-.2-.2-.2h.1s-.3 0-.3.2m1.6-.2H16h.3s-.2 0-.3.2h.3l.4.2h-.2c-.2 0 0 .2-.2.2V29l-.2.2v-.5h.5m-.9-.4v.3l.2-.2s-.2 0-.2.2c0 0 0-.2.2-.2l-.2.2.2-.2v.2h-.1v.2h.2-.5s0-.4.2-.5" fill="#1d81a4"/><path d="M15.4 28.2s-.2.2 0 .3v-.3.3l.2-.2v.2l.2.2s-.2 0-.3-.2c0 0 0 .2.2.2l-.2-.2v.2h-.2v-.2.3s0-.2-.2-.3l.4-.3m-.5.8h-.3.1l.3.2H15s.2 0 .3.2H15v-.2s-.2 0-.2.2V29v.2c-.2 0 0-.3 0-.3h.4M15 31h-.3s.2 0 .3.2l-.3-.2s.2 0 .2.2h-.5s.2 0 .2.3c0-.2 0-.3-.2-.3 0 0 0 .3.2.3l-.2-.3v.1s-.2 0-.2.2v-.3.2l.2-.2h-.3.3c0-.2-.2 0-.3 0 0 0 .2 0 .3-.2h-.3.3c0-.2-.2 0-.3 0l.3-.2h-.3.4l.3.3m.2-.4h.3c0 .2 0 0-.2 0l.3.3-.2-.2.2.2h-.2v-.2H15v-.4h.5m-.3-.4H15c0 .2.2 0 .2.2H15s.2 0 .2.2H15v-.2l-.2.2V30h.4m-.2-.2v-.3.3s0-.3-.2-.3v.3l-.2.2v-.2h-.2l.3-.2h-.2.3c0-.2-.3 0-.4 0 0-.2.3-.2.3-.2h-.3.3v.4" fill="#1d81a4"/><path d="M15 30.5c-.2 0-.2-.3-.2-.3v.4l-.2-.2v.1l-.2.2v-.2s0-.2.2-.2h-.2c0-.2.3-.2.3-.2h-.2.3v.5m1.2-.1h.3c0 .2 0 0-.2 0l.3.3H16v-.2h-.2v-.2h.5" fill="#1d81a4"/><path d="M16 30h-.4.3-.3.3s-.2 0-.3.2h.2l.2.3-.2-.2v.2c-.2 0 0-.2 0-.3-.2 0-.2.2-.2.3V30v.2l-.2.3V30h.5m-.4-.5h-.3.4c0 .2-.2 0-.3.2l.3.3-.3-.2v-.2l-.2.2.2-.4v.1s0 .2-.2.3v-.4h.5m-1.8.8h.6s0 .2-.2.3l.3-.2v.1l.2.2V30.3h.2l-.2-.2s0 .2.2.3c0 0 0-.2-.2-.2 0 0 .2 0 .2.2l-.2-.2s-.3 0-.4.2" fill="#1d81a4"/><path d="M14.3 29.6l.2.2s-.2 0-.3-.2l.2.2H13.8l.2.2h.2v.2s0-.2.2-.3v-.1s.2 0 .2-.2l-.3-.2" fill="#1d81a4"/><path d="M14.4 29.4s.2 0 .2.2l-.3-.2.2.2H14c.2.2.4 0 .4 0l-.2.3.2-.3v.2l.2-.3v-.2.5l.2-.4v.1h-.4m.6.5c.2-.2.3-.3.4-.2H15h.4s-.2 0-.2.2h.2s-.2 0-.2.2l.2-.2s0 .2-.2.2h.4v-.4h-.5m-1.6 1.5c0-.2 0-.3-.2-.4v.5s0-.2-.2-.2l.2.3v-.3l-.2.4v-.4s0 .3-.2.3l.2-.3h-.4.3c0-.2 0 0-.2-.2h.2c0-.2-.2 0-.3 0 0-.2.2-.2.2-.2h.4l.2.5" fill="#1d81a4"/><path d="M13.7 31c0-.2-.2-.3-.2-.3s.2 0 .2.2l-.2-.2.2.2h-.2l-.2.3V30.6h.2l.2.3m.3-.5v-.2.3s0-.2-.2-.2c0 0 .2 0 .3.2H14s.2 0 .2.2l-.2-.2-.2.2v-.2l.2-.2h-.4l.3-.2v.4" fill="#1d81a4"/><path d="M14 30v.2c-.2 0 0 0-.2.2V29.8l-.2.2s0-.2.2-.3h-.3.3l-.3-.2h.5-.4.3s-.2 0-.2-.2h.3v.5" fill="#1d81a4"/><path d="M13.6 30.6v-.2.3s0-.2-.2-.3v.1l-.3.2.3-.2H13h.6s-.2 0-.2-.2h.6s-.2 0-.2-.2l.3.3v.3m.6.3h-.2l.2.2H14.4s.2 0 .2.2c0 0 0-.2-.2-.2 0 0 0 .2.2.2l-.2-.2-.2.2s0-.2.2-.2h-.2.2c0-.2-.2 0-.2 0l.2-.2h-.2l.2-.2h-.2.3l.2.3" fill="#1d81a4"/><path d="M14.7 30.6h-.2l.3.2h-.3l.2.3h-.2c0-.2 0 0 0 0V31l-.2.2V30.4s.4 0 .4.2m-.1-.6l-.3-.2s.2 0 .3.2h-.3l.3.2h-.3V30c0 .2 0 .2-.2.3l.3-.2-.2.2s.2 0 .2-.2V30H14h.2c0-.2 0 0-.2 0l.2-.2H14h.6m-1.8.2s.2 0 .2.2h-.4.2s-.3 0-.3.2h.2c0-.2-.2 0-.2 0h.2V30s0 .2.2.3V30h-.4m.9-.4v-.1.2l-.2-.2v.2H13c.2 0 0 0 0 0v.2h.5v-.5" fill="#1d81a4"/><path d="M13.6 29.4l.2.3s0-.2-.2-.3v.1c-.2 0 0 0 0 .2l-.3-.2.2.2H13.2h.3s0 .2-.2.2c0 0 0-.2.2-.2v.2s0-.2.2-.2v.2s.2-.2 0-.2v.2l.2-.3-.4-.3m.5.9h.4l-.3.2h.3s-.2 0-.3.2l.3-.2-.2.3.3-.2v-.1s0 .2.2.2V30v.2s-.4 0-.4.2m13.1-2.9L27 27l-1.2-.6-.3-.3-1-.3 1 .4.3.4 1 .5.6.5zm.4-1.1l1.6.6 1.3 1c0 .4.4 1 .4 1s-.7-1.3-1.7-2c-1-.4-1.7-.4-1.7-.4l.2-.2zM28 29l-1 1.4-1 1h-1s1.3-.4 2-1c.6-1 .7-1.6.7-1.6l.2.2zm0-5s1.4.4 2 .8c.8.3 1 .7 1.4 1l1 1.5-1.4-1.5c-.2-.3-.6-.6-1-.8-.4 0-2-.7-2-.7V24z" fill="#1d81a4"/><path d="M27.6 27l-.7.4v.2c-.2 0-1 .6-1 .6l1-.6v-.2l.6-.4zm.1-4.2c.2.3 1 .4 1 .4.5 0 1-.2 1.4-.3.6-.2 1.4-.7 2-.3-.3-.4-1.3 0-1.7 0-.6.2-2 .7-2.5 0" fill="#1d81a4"/><path d="M29.4 23s.2 0 .3-.2c.3-.4.6-1.2 1.3-1.2-.5-.2-1 .6-1.3 1l-.3.4zM28 33s0-10 .2-16V9l.3-.3s.3-.3 0-.3h-.4v-.5h-.6c-.2 0 0 .3-.2.4V9l.2 1c0 .4.2 1 0 1.2l.3 14v5.6c0 1 .4 2 .4 2zm1.2-5.6H29h.3l-.3.2h.3l.4.2H29h.2v.3c-.2 0 0-.2 0-.2-.2 0-.2.2-.2.2v-.5c-.2 0 0 .2-.2.3v-.4h.4" fill="#1d81a4"/><path d="M29 27.2h-.2.2s-.2 0-.2.2l.2-.2v.2s.2 0 .2.2H29c-.2 0 0 0 0 0l-.2-.2v-.1m-.2-.5h-.2.2v.2h.3-.3l.2.2h-.5V27v.2s-.2-.2 0-.2v.2c-.2 0-.2-.2-.2-.3l.3-.2" fill="#1d81a4"/><path d="M28.3 26.7H28h.5l-.2.2h.2l-.2.2V26.8c-.2 0 0 0 0 0h.3m.1.4h-.2l.3.2h-.3.1v.2h-.2v-.4.2c-.2 0 0-.2 0-.3l.3.2m.6-.9H29h.3s-.2 0 0 0v.2s0 .2.2.2h-.2v-.2.2l-.2-.2s.2 0 .2.2v-.2c-.2 0 0 0 0 .2l-.2-.2v-.1h.3" fill="#1d81a4"/><path d="M29 26.3c-.2 0-.3.2-.2.2v-.2.2l.2-.2v.2l.2-.2-.2.2.2.2-.2-.2v.2c-.2 0 0 0 0 0h-.2v-.4m-.5 0c.2 0 0 .2 0 .2h.2s0 .2.2.2h-.4v-.4m-.3 1.5v-.2.3c0-.2 0-.3.2-.3s0 .2.2.3v-.2c0-.2 0-.2-.2-.2H28h.2l.3-.2H28v.4" fill="#1d81a4"/><path d="M27.8 27.3h.2l-.2.2h.4V27.2h-.4" fill="#1d81a4"/><path d="M27.7 27h-.1.2s-.2 0-.3.2H27.8l-.2.2s0-.2.2-.2h.2V27h.2s-.2 0-.2-.2l-.3.2m.7-.2v-.3.3s0-.2.2-.2v-.1l.2.2v-.2H28.5s.2 0 .2-.2H28.4v.4m2.3 1.3l-.3.2h.4s-.2 0-.2.2h.3-.4.3-.4s.3 0 .3.2h-.4v-.2c-.2 0 0 .2-.2.2v-.4s0 .2-.2.3v-.3h.5" fill="#1d81a4"/><path d="M30.4 27.8l-.2.2h.5c0 .2-.2 0-.2 0 0 .2.2.2.2.2h-.2c-.2 0 0 0 0 0h-.2s-.2 0 0-.2v-.2" fill="#1d81a4"/><path d="M30 27.5v.2s0-.2.2-.2c0 0-.2 0-.2.2l.2-.2v.2l.2.2-.2-.2v.2l-.2-.2h-.2v-.2h.3" fill="#1d81a4"/><path d="M29.8 27.4h-.2l.2.2h-.2.3-.4l.2.2h-.2v-.2h-.2v-.2h.4m.5.6H30s.2 0 .3.2H30V28v.2s0 .2-.2.2V27.8h.4m.6-.8l-.2.2h.3l.2.2h-.4v-.2s0-.2.2-.2m-.6 0v-.2.2l.2-.2v.4l-.2-.2.2.2s-.2-.2-.2 0v-.5m-.5.3l-.2.2s0-.2.2-.2v.2s.2 0 .2-.2v.4h-.4v-.2s0-.2.2-.2" fill="#1d81a4"/><path d="M29.5 28.5v-.2.2h.2l.2.2-.2-.3s0 .2.2.2l-.2-.2V28h-.2v.3" fill="#1d81a4"/><path d="M29.3 28h.2s-.2 0-.2.2h.2s-.2 0-.2.2l.2-.2h.2v-.4h-.4" fill="#1d81a4"/><path d="M29.2 27.7h.2l-.2.2.2-.2-.2.2.2-.2v.2h.2v-.2s0 .2 0 0v-.2H29m1-.1v-.2.1l.2.2v-.2H30h.2s.2 0 .3-.2l-.3.2.2-.2H30v.4m-1 1.3h-.4.3c-.2 0-.3 0-.3.2h.4l.3.2H29l.2.2-.2-.2V29c-.2 0 0 .3-.2.3V29l-.2.2V29l.5-.2" fill="#1d81a4"/><path d="M28.6 28.6h-.2.3v.2h.2-.3s.2 0 .2.2h-.3l-.2-.2v.2l-.2-.3h.3m-.1-.5H28h.3v.2h.1l.2.2h-.4v-.2.2l-.2-.2v-.1h.3" fill="#1d81a4"/><path d="M28 28h-.2l.2.2h-.2s.2 0 .3.2H27.8V28v.2h.4m.2.4h-.2l.2.2h-.2l.2.2h-.2c0-.2 0 0 0 0v-.2H28v-.2h.4m.6-.9l-.2.2s0-.2.2-.2h-.2.2v.4l-.2-.2v.1-.3" fill="#1d81a4"/><path d="M28.5 27.6v-.1.2c0-.2 0-.2.2-.3v.4l.2-.2h-.3l.2.2h-.3.2-.5v-.4" fill="#1d81a4"/><path d="M28 27.7l-.2.2s0-.2.2-.3v.2s0-.2.2-.2v.2H28v.2s0-.2-.2-.2v.2s0-.3.2-.3m-.3 1.5V29v.3s0-.2.2-.2l-.2.3V29v.2l.2.4V29v.2s0 .3.2.3L28 29s0 .2.2.2H28V29h.2c0-.2-.2 0-.2 0s0-.2.2-.2h-.3v.4" fill="#1d81a4"/><path d="M27.5 28.7h.2l-.2.2.2-.2s-.2 0-.2.2h.2v-.2s0 .2.2.2c-.2 0-.2-.2-.2-.2v-.2h-.3" fill="#1d81a4"/><path d="M27.4 28.4h.2l-.2.2h.4v-.4s-.4 0-.4.2m.6-.2V28v.2l.2-.3.2.2V28h-.1l.2-.2H28h.2v.4m3.5 1.3h-.3.3s-.2 0-.2.2h.1l.2.3-.2-.2v.2c-.2 0 0 .2-.2.2v-.7s0 .2-.2.3v-.4.1h.5" fill="#1d81a4"/><path d="M31.4 29.2s-.2 0-.2.2c0 0 0-.2.2-.2l-.2.2h.2l.2.2h-.4v-.2s0-.2.2-.2m-.4-.4s-.2 0-.2.2c0 0 .2 0 .3-.2v.2h.1l.3.2H31V29l.2-.2m-.5 0h-.2.1s0 .2.2.2h-.2v.2c-.2 0 0-.2 0-.2h-.2c0-.2 0 0 0 0v-.4h.3m.3.7h-.2s0 .2.2.2v.2c-.2 0 0-.2 0-.2h-.2v-.2h.3m.6-.9s-.2 0-.2.2c0 0 0-.2.2-.2v.2h.2-.3.2l.2.2h-.4v-.2.2s-.2 0-.2-.2l.3-.2" fill="#1d81a4"/><path d="M31.3 28.3v.2s.2 0 .2-.2v.4h-.4l.3-.4m-.7 0v.3l.2-.2s-.2 0-.2.2c0 0 0-.2.2-.2l-.2.2h.3c-.2 0 0 0 0 0h-.2c-.2 0 0 0 0 .2l-.2-.2v-.3m-.2 1.5v-.2c.2 0 0 0 0 .2l.2-.3V29.8l.2.2v-.4H30.5h.2c0-.2-.2 0-.2 0v.2" fill="#1d81a4"/><path d="M30.2 29.3h.2l-.2.2h.2l.2.2v-.4H30" fill="#1d81a4"/><path d="M30 29h.5l-.2.2h.4s-.2 0-.2.2c0 0 0-.2.2-.2h.2l-.2-.2.2.2-.2-.2H30m.8-.2v-.2.2l.2-.2v-.1s.2 0 .2.2v-.5H31c0-.2-.2 0-.2 0v.3M28.3 34H28l.2.2H28s0 .2.2.2l-.2-.2s-.2 0-.2.2V33.8l.5.2" fill="#1d81a4"/><path d="M28.2 33.6H28h.2l-.2.2h.2l.3.3H28h.2c-.2 0 0 0 0 0H28v-.2h-.2v-.2h.4m0-.7H28l.2.2H28s.2 0 .3.2H28v-.2s0 .2-.2.2V33v.2h.4" fill="#1d81a4"/><path d="M28 33c0-.2-.2-.3-.2-.3s0 .2.2.2l-.2-.2v.2l-.2.2V33c0-.2 0 0 0 0v-.2s0-.2.2-.2l.2.3m0 .6h-.2s0 .2-.2.2v-.4h.4m1-.1h-.3.3c0 .2 0 0-.2.2h.2l.2.2H29v-.2.2c-.2 0 0-.2 0-.3 0 0-.2 0-.2.2V33.2h.4" fill="#1d81a4"/><path d="M28.7 33h-.2.5-.3.2-.3l.2.2h-.3.1V33c-.2.2 0 .3 0 .3-.2 0-.2 0-.2-.2v.3c-.2 0 0-.2 0-.2h.2m-.4-.7H28h.2l-.2.2h.5l.2.2h-.2c0-.2 0 0 0 0v-.2.2l-.2-.2v-.1.2c-.2-.2 0-.4 0-.4h.2M27 33.6l.3-.2s-.2 0-.2.2h.5l-.2.2c.2 0 .3 0 .3-.2v-.1.1h.2c0-.2 0 0 0 0l-.2-.2h.2l-.2-.2-.2.3" fill="#1d81a4"/><path d="M27.2 33s.2 0 .2.2H27h.6s-.2 0-.3.2h.1v-.2c.2 0 .2.2.2.2V33h-.3" fill="#1d81a4"/><path d="M27.3 32.8h-.1s.2 0 .2.2h-.2.2s-.2 0-.2.2h.2c0-.2 0 0 0 0V33c.2 0 0 0 .2.2V33v.2c.2 0 0-.2 0-.2h-.3m.7 0l.2-.2v.3l.2.3V33c0-.2 0 0 0 0v-.2h-.2s-.2 0-.2.2m2.2-7.7h-.4.2s-.2 0-.2.2h.4l.4.3-.3-.2.3.3c0-.2-.2-.3-.2-.3v-.2.1c-.2 0-.2 0-.2.2v-.4h.4" fill="#1d81a4"/><path d="M30 25c-.2 0-.3 0-.3.2 0 0 0-.2.2-.2l-.2.2h.3v.2h-.2v-.2c-.2 0 0 .2 0 .3l-.2-.3.3-.2m-.4-.4v.2h.1l.2.2h-.2c-.2 0 0 0 0 0h-.2v-.2" fill="#1d81a4"/><path d="M29.3 24.6H29h.2l.3.2H29h.2s.2 0 .3.2l-.2-.2.2.2v-.2s0 .2-.2.2v-.2c0-.2 0 0 0 0v-.2l-.2.2v-.3h.5m.1.5h-.3s.2 0 .3.2h-.2l.2.2h-.4V25v.2h.4m.5-1s-.2 0-.2.2c0 0 0-.2.2-.2v.2h.1s.2 0 .2.2h-.4.2l-.2-.2s0-.2.2-.2m-.5-.2v.7s.2 0 .2-.2v.5c-.2 0 0 0 0 0h-.4s0-.4.2-.4m-.6-.6v.3h.2v.2H29l.2-.4" fill="#1d81a4"/><path d="M29 25.7v-.3.3l.2-.2v.1c0-.2 0 0 .2-.2H29h.3c0-.2-.2 0-.2 0v.3m-.4-.7h.3c0 .2-.2 0-.3.2h-.1.2s-.2 0-.3.2h.1c.2 0 0 0 0 .2l.2-.3V25s0 .2.2.3V25v.2s0-.2-.2-.2h-.3" fill="#1d81a4"/><path d="M28.6 25c0-.2.2-.3.3-.2h-.3.2-.3.2c-.2 0-.2 0-.3.2h.4c-.2 0-.3 0-.3.2l.2-.2-.2.3V25l.2.2v-.4h-.4m1-.2v-.2c.2 0 0 .2 0 .2.2 0 .2 0 .2-.2v.1l.2.2v-.4H29.4h.2c0-.2-.3 0-.3 0v.3m-2.9 3.6V28v.2s0-.2-.2-.2v.2H26V28h.2s.2 0 .2.2m.1-.2h-.2c0-.2 0 0 0 0v-.2s.2 0 .2.2m.2-.3h-.2c0-.2 0 0 0 0v-.2h.2m0 0h-.2v-.2h.2v.2" fill="#1d81a4"/><path d="M26.5 27.8h-.4.4v-.2h.2v.2m.3.2v.2h-.2c0-.2 0 0 0 0V28h.3m-.1-.2v.2h-.2v-.2h.3m-.1-.3v.2c-.2 0 0 0 0 0h-.2v-.4s.2 0 .2.2m-1-.1v.2c.2 0 0 0 0 0h.2v-.2H26m.3-.2v.2H26h.4v-.2" fill="#1d81a4"/><path d="M26.5 27.2h-.2c0 .2 0 0 0 0v.2h.2V27m.2.6h-.1.2-.3v.2h.2v-.2h-.3m5-1.6H31h.5s-.2 0-.2.2l.3.2h-.2v-.2.2c-.2 0 0-.2 0-.2-.2 0-.2.2-.2.2V26c-.2 0 0 .3-.2.4V26h.4m-.4-.3h.2s-.2 0-.2.2c0-.2.2-.3.2-.3h.2s-.2 0-.2.2c-.2 0 0 0 0 0H31v.2" fill="#1d81a4"/><path d="M30.8 25.3h-.2.2v.2h.3v.2h-.2v-.2.3l-.2-.3v-.1h.2m-.4-.2h-.2.2l-.2.2s.2 0 .3.2h-.4v-.4.2c-.2 0 0-.2 0-.2h.3" fill="#1d81a4"/><path d="M31 25.7h-.4l.3.2h-.3.2-.2V25.6v.2c-.2-.2 0-.3 0-.4h.3m.6-.4h-.2.2s-.2 0 0 0h.3s-.2 0-.3.2h-.2V25h.2" fill="#1d81a4"/><path d="M31 24.8v.2l.2-.2v.2l.2-.2-.2.2h.1v.2H31h.2c-.2 0 0 0 0 0H31v-.4m-.5 0c.2 0 0 .2 0 .2h.4-.4.3-.4s0 .2.2.2h-.4v-.4m0 1.5V26v.5s0-.2.2-.2 0 .2.2.3v-.2c0-.2 0-.2-.2-.2h-.2v.3m-.2-.7h.2l-.2.2h.4v-.4H30" fill="#1d81a4"/><path d="M30 25.5v.2h.2l-.2.2s0-.3.2-.3h.2l-.2-.2h.2s-.2 0-.2-.2l-.3.2m.7-.1V25v.4s0-.2.2-.2v.2l.2.3V25v.2c0-.2 0 0 0 0V25H30.7h.2-.3.2-.4s.2 0 .2-.2h-.2v.5m2 1.4H32h.4s-.2 0-.2.2l.3-.2h-.3.3s-.2 0-.2.2.3 0 .3.2h-.3V27c-.2 0 0 .2-.2.2v-.4.2h.4" fill="#1d81a4"/><path d="M32 26.5h.2v.2s.2 0 .2.2c0-.2-.2-.2-.2-.2H32c-.2 0-.2 0-.2-.2h.3m-.3-.5l-.2.2h.2s.2 0 .3.2c-.2 0 0 0 0 0H31.8v-.2h.2m-.5-.2h-.2l.2.2h-.2l.2.2h-.2v-.2H31h.2V26l-.2.2s0-.2.2-.3h.3" fill="#1d81a4"/><path d="M32 26.5h-.3.2-.3l.2.2h-.3.2-.3l.2.2-.3-.2V26.4s0 .2-.2.2v-.2.1h.4m.9-.9v.2h.1l.2.2h-.4v-.2m-.3-.3v.3l.2-.2v.4l-.2-.2.2.2H32v-.5m-.5.1l-.2.2s0-.2.2-.2v.2l.2-.2v.4h-.2s.2 0 0 0h-.2s0-.2.2-.2" fill="#1d81a4"/><path d="M31.2 27v.2s0-.2.2-.2 0 .2.2.3V27h-.2c0-.2 0-.2.2-.2h-.4v.3m-.2-.6h.2s0 .2-.2.2h.2s-.2 0-.2.2c0-.2.2-.2.2-.2s-.2 0-.2.2l.2-.2h.2v-.2H31" fill="#1d81a4"/><path d="M31 26.3v.4l.2-.2v-.2h.2l-.2-.2-.3.3m.7-.4v-.2.4h.4V26H31.7h.2-.3l.2-.2h-.4v.4M30 24c-.3 0-.4 0-.4.2h.3-.4c0 .2.3 0 .3 0l-.2.2s.2 0 .2.2l-.2-.2s0 .2.2.3l-.2-.2v-.1.2c-.2 0-.2-.2-.2-.2v-.2.3c-.2 0-.2-.3 0-.3-.2 0-.2.2-.2.2V24h.5" fill="#1d81a4"/><path d="M29.6 23.8s-.2 0-.2.2c0 0 0-.2.2-.2v.2h-.1l.2.2h-.4V24s0-.2.2-.2m-.3-.4v.2h.1l.2.2h-.2c-.2 0 0 0 0 0H29v-.2l.2-.2m-.2 0h-.3.1l.2.2h-.2l.2.2-.2-.2h-.2c0-.2 0 0 0 0V23.3h.4" fill="#1d81a4"/><path d="M29.4 24c0-.2-.2-.2-.3-.2h.5c0 .2-.2 0-.2.2l.2.2h-.4v-.4h.4m.4-.8c-.2 0-.3 0-.3.2 0 0 0-.2.2-.2l-.2.2s0-.2.2-.2v.2s.2 0 .2.2H29.8v-.2.2s-.2 0 0-.2v.2c-.2 0-.2-.2-.2-.2l.3-.2" fill="#1d81a4"/><path d="M29.5 23c.2 0 0 0 0 0h.5s-.3 0-.3.2h.2-.5v.2l-.2-.2s0-.3.2-.3" fill="#1d81a4"/><path d="M29 23h-.2.2s-.2 0 0 .2V23v.2s0-.2.2-.2l-.2.2h.2l.2.2-.2-.2v.2l-.2-.2V23m-.4 1.4v-.2.3s0-.2.2-.2v.1l.2.2v-.4h-.3.2c0-.2-.3 0-.3 0v.2" fill="#1d81a4"/><path d="M28.4 24s.2-.2.3 0h-.3.2l-.2.2h.2V24v.2s0 .2.2.3v-.7h-.4" fill="#1d81a4"/><path d="M28.3 23.7s.2-.2.3 0h-.2.2s-.2 0-.2.2l.2-.2s-.2 0-.2.2l.2-.2v.3h.2l-.2-.2.2.2v-.2h-.5m.7-.4v-.2c.2 0 0 .2 0 .2.2 0 .2 0 .2-.2v.1l.2.2v-.4s0 .2-.2.2l.2-.2H29h.2v.4m.8-1v.2l.2-.2v-.1.2h.2c-.2 0 0 0 0 0h-.2.2c0 .2-.2 0-.2 0l.2.2H30v-.3m-.3.1s0 .2.2.2c0 0-.2 0-.2-.2h.2v.2h-.2v-.2m-.3.2h.2v-.2.4h-.2v-.2" fill="#1d81a4"/><path d="M29.3 23v.2l.2-.2v.2h-.2v.2s-.2 0-.2-.2l.3-.2m.3-.2c.2 0 0 0 0 .2 0 0 .2 0 .2-.2l-.2.2v.2h-.2v-.4m-.3-.6h.2c0 .2 0 0 .2 0 0 .2-.2 0-.2.2 0 0-.2 0-.2-.2" fill="#1d81a4"/><path d="M29 22.5h.2v-.2h.2v.2s0 .2-.2.2l-.2-.2m0 .5v-.2h.2v.2s0 .2 0 0h-.3m1.1.5h-.2.2V23v.2c-.2 0 0 0 0 0h-.2v.2h.2m-.5.1v-.2.2h.2v-.2h-.2v.2" fill="#1d81a4"/><path d="M29.3 23.5v-.2.2h.2l.2-.2h-.4c0-.2 0 0 0 0v.2m0-.5H29h.3v-.4c-.2 0 0 0-.2.2v-.2.2h.3m2.6.2h-.2.2s.2 0 .2.2h-.4V23h.2m-.3-.3v-.1.2s0-.2.2-.3c0 0-.2 0-.2.2v-.2.2h-.2v-.3" fill="#1d81a4"/><path d="M31.4 22.5v.2l.2-.2v.2h-.2v-.2m-.2 0H31v-.2h.2m.4.5h-.2.2v.2h-.2v-.2h.2m.2-.8v.2h.2v.2h-.2v-.2" fill="#1d81a4"/><path d="M31.5 22v.3h.4-.3v.2h-.2V22m-.4.2v.2l.2-.2v.2l.2-.2v.2h-.2v.2s-.2 0-.2-.2v-.2m.2 1.1h.2V23v.2h-.2l.2-.2h-.2v.3M31 23v.2c.2 0 0 0 0 0h.2v-.4s-.2 0-.2.2" fill="#1d81a4"/><path d="M31 22.8v.2h.2v-.2H31h.2l-.2-.2v.2m.3-.3v-.2.2h.2v-.2h-.2v.2m-4.6.8V23s0 .2-.2.3V23l-.2.3V23v.2h-.2.5l-.2-.2h.4v.5" fill="#1d81a4"/><path d="M27 23v.2s0-.2-.2-.2l-.2.2V23h.3s-.3 0-.3-.2h.3v.3m.6-.1v-.3.3l-.2-.2v.3H27s.2 0 .2-.2H27h.3c.2-.2.4 0 .4 0 0-.2 0-.2-.2-.2h.3v.3m-.1-.3v-.2l-.2.2v-.2h-.2.2v-.2h.4l-.3.4" fill="#1d81a4"/><path d="M27 23c0-.2.2-.3.2-.3l-.2.2v-.3h-.2v-.2h.4v.4m.5.9v-.2.3s0-.2-.2-.2v-.1s0 .2-.2.2v-.3s0-.2.2-.2h-.2.3s-.2 0-.2-.2h.2v.4" fill="#1d81a4"/><path d="M28 23.4l-.2-.2v.2s0-.2 0 0c-.2 0-.2.2-.2.3v-.5s.3 0 .3.2m.1-.6v-.2.4s0-.2-.2-.2v.3c0-.2 0 0 0 0v-.2l-.2.2.2-.2h-.2.3c-.2-.2-.3 0-.4 0 0-.2.3-.2.3-.2h-.3.4v.2m-1.1-.9v.2H26.5h.2v.2h.2V22h.1m.4 0l-.2.2V22H27v.2h.3l-.2.2h.5V22" fill="#1d81a4"/><path d="M27.7 22s0 .2-.2.2V22v.2s0-.2-.2-.2v.2h.2l-.2.2h.4V22m-.1.8v.2h-.2.2v.2s.2 0 .2-.2v.2s.2-.3 0-.3h.2v.1h-.4m-1.2 1.7v-.3.1l-.2.2v-.2l-.2.2v-.2h.3v-.2h.5V24v.7" fill="#1d81a4"/><path d="M26.8 24.5v-.2.3s0-.2-.2-.2v.1l-.2.2v-.4c0-.2.2 0 .2 0v.2m.6-.1v-.2.2H27v-.2l-.2.2v-.2h.3V24h.2v.4" fill="#1d81a4"/><path d="M27.4 24c-.2 0 0 0 0 0H27h.3v-.2h.4s0 .3-.2.3m-.7.2V24v.3s0 .2-.2.3V24v.3h-.2.2s-.2 0-.2-.2h.4v-.2l.2.2s0 .3-.2.3m.6.8V25v.2s0-.2-.2-.2v.3l-.2.3V25v.3c0-.2 0 0 0 0V25c0-.2.2-.2.3 0 0-.2-.2-.2-.2-.2h.3v.4" fill="#1d81a4"/><path d="M27.6 24.8v-.2.3c0-.2 0-.3-.2-.3 0 0 .2 0 .2.2 0 0 0-.2-.2-.2l.2.2s0-.2-.2-.2v.3H27v-.2l.2-.2H27h.2s.2 0 .2.2m.4-.4V24v.3s0-.2-.2-.2c0 .2 0 .3.2.4 0 0 0-.2-.2-.2l-.2.2v-.2l.2-.2h-.2.3v.3m-1.2-1s.2 0 .2.2l-.2-.2.2.2h-.5.3l-.2.2h.4V23.5s0-.2-.2-.2" fill="#1d81a4"/><path d="M27 23.5v-.2.3l-.2-.3v.3s0-.2-.2-.2l.2.2h-.2.3-.3.3l-.2.2h.3v-.3" fill="#1d81a4"/><path d="M27.4 23.5v-.1.3l-.2-.3v.2s-.2 0-.2-.2v.2h.2l-.2.2h.4c0 .2.2 0 .2 0v-.3m-.3.7l.2.2h-.4.4s-.2 0-.3.2h.5v-.2.2s.2-.2 0-.2c.2 0 .2 0 .2.2v-.3h-.4m-2.2 1.4l.2-.2h-.2s.2 0 0 0h-.2s.3 0 .3-.2H25h.2V25v.3l.2.3V25v.2c0 .2 0 .4.2.4V25v.7s-.2 0-.3.2" fill="#1d81a4"/><path d="M25.7 25.8v-.3.1l-.2.2v-.3l-.2.2s.2 0 .2-.2h-.2.2v-.2l.2.2v-.2s.2 0 .2.2l-.3.3" fill="#1d81a4"/><path d="M26.2 26v-.4l-.2.2v-.3.1H25.7h.3v-.2l.2.2-.2-.2h.2v.5m.2.1c0-.2.3-.2.3-.2h-.4s.2 0 .2-.2h-.2.2l-.2-.2h.2c.2 0 0 .2.2.3v-.3.4h-.3" fill="#1d81a4"/><path d="M26 25.6s.2 0 .2-.2H26V25h.2v.3c.2 0 0-.2.2-.3v.6H26m-.2 1v-.2l-.2.2v-.2h-.2.2v-.2l.2.2s0 .2-.2.2m.6-.1v-.2.3c-.2 0-.2-.2-.2-.2l-.2.2v-.2h.2l-.2-.2h.5v.3m.4-.3V26l-.2.3V26v.2l-.2.2c0-.2 0 0 0 0V26h.2v-.2h.3v.4" fill="#1d81a4"/><path d="M26.2 24.8v-.1.3l-.2-.3h-.2.2c0 .2-.2 0-.2 0l.2.2h-.2.4l-.2.2h.2v-.4m.5.3c0 .2-.2.3-.2.3V25v.2s-.2 0-.2-.2v.4h.2s0-.2.2-.3" fill="#1d81a4"/><path d="M27 25.3c-.2 0-.3.2-.3.2V25.2l-.2-.2v.6h.2l.2-.2m-.5.6H26h.2c0 .2-.2.2-.2.2h.4V26m.6.7v-.3.1c-.2 0 0 .2-.2.3v-.3.1l-.2.2v-.2s0 .2-.2.2l.2-.2h-.2c0-.2.3 0 .3 0 0-.2-.2-.2-.2-.2h.5s-.3 0-.4-.2h.3v.5" fill="#1d81a4"/><path d="M27.3 26.5v-.2.2H27s0 .2-.2.2l.2-.2h-.2.2c0-.2 0 0-.2 0 0-.2.2 0 .3-.2H27h.5v.2" fill="#1d81a4"/><path d="M27.7 26.3V26v.5h-.2V26v.3h-.2s0-.2.2-.2h-.2.3v.3m.2-.4v-.2l-.2.2v-.2h-.2.2v-.2h.4s0 .4-.2.4" fill="#1d81a4"/><path d="M27.3 26.3V26v.3s0 .2-.2.3l.2-.2s0 .2-.2.3V26v.2H27l.3-.2h.2v-.2s.2 0 .2.2v-.2.5m.3.7v-.2.2h-.2l-.2.2V27c0-.2 0 0 .2-.2h-.2.3v.2m.3-.4H28v.2h-.2v-.4h.2l.2.2m.1-.6H28h.2s.2 0 .2.2V26v.2H28V26c0 .2 0 .2-.2.3l.2-.2-.2.2s0-.2.2-.2h-.2l.2-.2h-.2.3l.3.3m-1.4-.8v.2h-.4.2-.3.2l-.4.2h.2-.2c.2 0 0 0 0 0h.2v-.2.3c0-.2.2-.3 0-.4.2 0 .2.2.2.2v-.2l-.3-.2m1 .1v-.1.2s-.2 0-.2-.2v.2l-.2-.2.2.2H27h.2l-.2.2h.6c0 .2 0 0 0 0v-.3" fill="#1d81a4"/><path d="M27.7 25.3v.2l-.2-.2v.2H27.2h.3l-.2.2h.5v-.4m0 .7s.2 0 .2.2H27.4h.3l-.4.2h.5s-.3 0-.3.2l.2-.2s-.2 0-.2.2v-.2c.2 0 0 0 .2.2v-.4.2c.2 0 0-.2 0-.2s.2 0 .2.2V26h-.4m-3.3-.2l.2-.2-.2.2v-.2h-.4.2s.3 0 .3-.2H24h.3v-.2l.2.2v-.2s0 .2.2.3v-.3.4s0 .2-.2.2" fill="#1d81a4"/><path d="M24.6 26v-.4l-.2.2v-.3.1h-.2.2v-.2h.3v.4" fill="#1d81a4"/><path d="M25 26s.2 0 0 0h-.2c0-.2 0 0-.2 0l.3-.2h-.3.2v-.2s.2 0 .2.2v-.2.5m.3-.1l.2-.2h-.3.2s-.2 0-.3-.2h.4l.2.2v-.2.2h-.3" fill="#1d81a4"/><path d="M24.7 25.8l.2-.2h-.3.2-.4.2l-.2-.2h.2c.2 0 0 0 .2.2v-.3.4h-.3m.2 1.1v-.3.1l-.2.2v-.2h-.2.2s0-.2-.2-.2h.4v.4" fill="#1d81a4"/><path d="M25 26.7v-.3.1l-.2.3v-.3.1h-.2c0-.2.2 0 .2 0v-.2h.2V26v.5m.6-.1V26v.3c-.2 0-.2 0-.2.2v-.2l-.3.2c.2 0 .3-.2.3-.2H25h.6s-.2 0-.2-.2h.5v.4M25 25h.2-.4v.2h.3v.2s.2 0 .2-.2l-.2.2.2-.2V25" fill="#1d81a4"/><path d="M25.5 25.3h-.2l.2-.2s0 .2-.2.3V25v.2L25 25c.2 0 .2.2.2.2v.2h.3" fill="#1d81a4"/><path d="M25.7 25.5v-.1h-.2v-.2.2s0-.2-.2-.2v.2h.2c0 .2-.2 0-.2 0 0 .2 0 .2.2.2h-.2c0 .2.2.2.3 0m-.4.4s.2.2 0 .2V26v.2L25 26v.2h.3v.2h.4s0-.3-.2-.4m2.5 7l.2-.2s-.2 0-.2.2h.2v.3l.2.4V33v.2s0 .2.2.2c0 0-.3 0-.3-.2s.2 0 .3 0l-.3-.2h-.1s-.2 0-.2.2" fill="#1d81a4"/><path d="M28 32.6v.2c.2 0 .2 0 .2.2v-.4H28m-.2-.6h.2s-.2 0-.2.2h.2s-.2 0-.2.2h.2v-.2h.2V32v.3s0-.2-.2-.2h-.2m.2-.3V31.5v.3s0-.2.2-.2v.4H28h.3l-.2-.2h.1v.2" fill="#1d81a4"/><path d="M28 32.5s0-.3.2-.3v.4s0-.2.2-.2h-.1c0-.2 0 0 .2-.2h-.3v.3m-1.2-.1h.2l-.2.2h.4v-.4H27" fill="#1d81a4"/><path d="M27.2 32H27c.2 0 .3.2.3.2H27h.6l-.2.2h.3v-.2s0 .2.2.2V32v.2h-.3m-.1-.6l.2.2h-.2.2s-.2 0-.2.2l.2-.2v.2-.2s0 .2.2.2v-.5h-.5m1.6.7h-.3.1s0 .2.2.2h-.4V32s.3 0 .4.2m-.4-.5s-.2 0-.2.2l.2-.3c.2 0 0 0 0 0 0 .2.2 0 .2 0l-.2.2h.3-.3c-.2 0 0 0 0 .2-.2 0-.2-.2-.2-.2v.2h-.2l.3-.3" fill="#1d81a4"/><path d="M28.5 31.5h-.3.3s-.2 0-.2.2l.2-.2v.2h-.2.2s0 .2.2.2l-.2-.2v.2l-.2-.2v-.1.2c-.2 0-.2-.3 0-.4h.2m-.5.6l-.4-.2s.2 0 .2.2h-.2s.2 0 .2.2c0 0-.2 0-.2-.2 0 0 0 .2.2.2h-.4s.2 0 .2-.2c0 0-.2.2-.2 0l.2-.2h-.2.5" fill="#1d81a4"/><path d="M28 32s0-.2-.2-.2c0 0 .2 0 .3.2v.5l-.2-.2.2.4s0-.2-.2-.2h-.2l.2-.2-.2.2s0-.2.2-.3h-.2s.2 0 .2-.2l-.3.2.2-.2h-.2.6" fill="#1d81a4"/><path d="M28 31.6h.3l.2.2H28l-.2.2V31.4h-.2.5" fill="#1d81a4"/><path d="M28 31h-.2.4v.3s-.2 0-.2.2v-.4s0 .2-.2.3V31h.4m-.4-.2h-.2l.2.2-.2-.2v.2h-.2c0-.2 0 0 0 0v-.2s.2 0 .2-.2h-.2.3v.2" fill="#1d81a4"/><path d="M28 31.5c-.2 0-.3-.2-.3-.2v.2s0-.2 0 0v.1s-.2 0-.2.2v-.5h.2l.2.2m.9-.5h-.2.2c0 .2-.2.2-.2.2h.3-.3.2-.3l.2.2h-.3.2v-.1l-.2.2V31v.2h.3" fill="#1d81a4"/><path d="M28.6 30.8h-.3.3v.2h-.2.2s0 .2.2.2h-.2s-.2 0-.2-.2v.2s-.2-.2 0-.2c0 0-.2 0 0 .2-.2 0-.2-.3 0-.3 0 0 0-.2.2-.2m-.6-.2h.2s-.2 0-.2.2l.2.2-.2-.2v-.1c-.2 0-.2 0-.2.2v-.4.1h.3m-1.1 1v-.2.2h.2l-.2.2h.4s-.2 0-.2-.2h.2l-.2-.2s-.2 0-.3.2" fill="#1d81a4"/><path d="M27 31h.2l.2.2H26.8c.2 0 0 0 0 .2 0 0 0-.2 0 0l.2-.2V31v.4c.2 0 .2-.3.2-.3v.1H27m.2-.5H27h.2s.3 0 .3.2H27h.7v.1c.2 0 0 0 0-.2.2 0 .2.2.2.3v-.4h-.3m.4.3v-.3.2c.2 0 0 0 0 0h.4s-.2 0-.2-.2H28h.4s-.2-.2-.3 0h.3c0-.2-.2-.2-.2-.2v.3M22 25.6v-.3s0 .2-.2.3v-.3l-.2.3v-.3l-.2.2s.2 0 .2-.2h-.3.3V25v.2s0 .2.2.2h-.2.2V25s.2 0 .2.2c0 0 0-.2-.2-.2l.3.2v.4" fill="#1d81a4"/><path d="M22.3 25.5v-.3.1c-.2 0 0 .2 0 .2s-.2 0-.2-.2v.1h-.2c0-.2.2 0 .3 0V25c0-.2.2 0 .3 0v.3" fill="#1d81a4"/><path d="M22.8 25.4v-.2.3s0-.2-.2-.2l-.2.2v-.2h.2s-.2 0-.2-.2c0 0 0 .2.2.2h-.2.3s-.2 0-.2-.2h.3v.4" fill="#1d81a4"/><path d="M23 25.2V25h-.4.2v-.2h.4v.2l-.2.2m-.7.1l.2-.2s0 .2-.2.3V25s0 .2-.2.2c.2 0 .3-.2.3-.2H22h.2v-.2l.2.2v-.2l.2.3-.3.3m.5.8V26v.2l-.2-.2v.3l-.2.3V26h.3s-.2 0-.2-.2h.3v.4" fill="#1d81a4"/><path d="M23 26v-.3.2h-.2v-.1h-.2.2c0-.2-.2 0-.2 0l.2-.2h-.2.3c-.2-.2-.3 0-.4 0 0-.2.2-.2.3-.2h-.3.2v.3m.6-.3v-.2.3l-.2-.2.2.3v-.3.1l-.2.2v-.2h-.2.3V25h-.4c0-.2.2 0 .3 0v.2m-.9-.9l.2.2H22v.2h.4v-.2l-.2-.2m.6.2v-.1l-.2.2V24.3v.2s0-.2-.2-.2v.4h.1c0 .2.2 0 .2 0v-.2" fill="#1d81a4"/><path d="M23 24.5l-.2.2v-.3.2l-.2-.2.2.2h-.2.2s-.2 0-.2.2h.2c0 .2.2 0 .3 0v-.3m-.1.8h-.2l.2.2-.2-.2v.2h-.2.2v.2s.2 0 .2-.2v.2l.2-.2v-.1H23" fill="#1d81a4"/><path d="M23 25.2v.2l-.2-.2.2.2h-.5s.2 0 .3.2h-.3.3l-.2.2.2-.2v.2s0-.2.2-.2v-.1c.2 0 0 .2 0 .3l.2-.3v-.1l-.3-.2" fill="#1d81a4"/><path d="M23.3 25v.6L23 25l.2.3s0-.2-.2-.2v.4h.3v.2h.4V25" fill="#1d81a4"/><path d="M23.7 25h-.4s.2 0 .2.2h.2v.2l.2-.2c-.2 0-.2 0-.3.2l.2-.2-.3-.3m.5.1v.2h.2l-.2.2h.2c.2 0 0 0 0 0 .2 0 .2 0 .2-.2V25v.4s.2-.3 0-.3c0 .2.2.3.2.3V25H24" fill="#1d81a4"/><path d="M23.4 25.2s.2 0 .2.2h-.2s0 .2-.2.2h.3c.2 0 0 0 0-.2.2 0 .2.2.2.2V25.3h-.3m0-1.1v.2l-.2-.2v.2H23c.2 0 0 0 0 0h.2l-.2.2h.2c.2 0 0 0 0 0h.2V24m.4.3s0 .2-.2.2V24.2v.2s-.2 0-.2-.2v.4h.3l-.2.2s.3 0 .3-.2v-.3M24.2 24.6v-.1.2l-.2-.2v.2s0-.2-.2-.2c0 0 .2 0 .2.2h-.2.2v.2h.3v-.4m-.5 1.5v.3h-.5.3s-.2 0-.2-.2h.2c.2 0 0 0 0 0h.2l-.2-.2s.2 0 .3.2c-.2 0-.2 0-.3-.2 0 0 .2 0 .2.2 0 0 0 .2-.2.3m.6-.7s0-.2-.2-.2c0 0 .2 0 .2.2h-.4c0-.2 0 0 0 0l.2-.2h-.2l.2-.2.2.3" fill="#1d81a4"/><path d="M24.4 25.5v-.2.2h-.2v.1s-.2 0-.2.2v-.4s.2-.2.2 0c0-.2 0 0-.2 0 0-.2.2-.2.3-.2v.3M24 25v-.3s0 .2-.2.3v-.4l-.2.2c0-.2 0-.2.2-.3h-.3.2v-.2l.2.2s-.2 0-.3-.2c0 0 .2 0 .2.2 0 0-.2 0-.2-.2l.2.2v-.2.5" fill="#1d81a4"/><path d="M24 25.2V25s0 .2-.2.2V25s0 .2-.2.2V25h-.2.3s0-.2-.2-.2h.4v-.2.5" fill="#1d81a4"/><path d="M24.3 25v-.2.2H24l-.2.2.2-.2h-.2.2c0-.2 0 0 .2 0 0 0 0-.2-.2-.2h.4v.3m.4-.1v.3h-.2v-.5l-.2.2c.2 0 0 0 0 0h.2c0-.2-.2 0-.2-.2h.4l-.2-.2h.2v.5" fill="#1d81a4"/><path d="M25 24.8s.2 0 .2-.2c0 0 0 .2-.2.2v-.2l-.2.2s0-.2.2-.2h-.4.2s-.2 0-.2-.2h.2l.2.2v-.2.2s0 .2-.2.2" fill="#1d81a4"/><path d="M24.4 25s.2-.2 0-.3v-.1l-.2.2s0-.2.2-.3H24h.6s0-.2-.2-.2h.5v.4m-.1 1.3v-.5.2s0-.2-.2-.3 0 .2-.2.3c0 0 0-.2.2-.2h-.2.2c0-.2-.2 0-.2-.2h.4l-.2-.2h.2v.5" fill="#1d81a4"/><path d="M25 25.5v.1s0 .2-.2.2v-.2h-.2.2v-.2c0-.2.2-.2.2 0" fill="#1d81a4"/><path d="M25.4 25v-.2.3H25s0 .2-.2.3V25l.2-.2h.4v.2m-1.1-1v.2H24h.2s0 .2-.2.2h.4V24m.6 0l-.2.4V24v.2s0 .2-.2.2V24v.2l-.2-.2v.2c0 .2.2 0 .3 0 0 .2-.2.2-.3.2h.4V24" fill="#1d81a4"/><path d="M25 24.2V24v.6l-.2-.2v.1h-.2.3-.3.2s-.2 0-.3.2h.5v-.3m0 .6h-.2s.2 0 .2.2h-.4.2s-.2 0-.2.2v-.2.2l.2-.2v.2l.2-.3v.1m.6 6.8v-.4.3c0-.2 0-.3-.2-.3v.4l-.2.3V32H25h.3c0-.2 0 0-.2 0l.4-.2H25h.5l-.3-.2h.3v.5" fill="#1d81a4"/><path d="M26 31.6c-.2 0-.3-.2-.3-.2v.2s0-.2 0 0-.2 0-.2.2v-.7h.2s0 .2.2.3" fill="#1d81a4"/><path d="M26.2 31.2s0-.2-.2-.2c0 0 .2 0 .2.2H26v.1s0 .2-.2.2v-.4h.2s.2 0 .2.2m0-.3v-.5.2s0-.2-.2-.3 0 .2-.2.2v-.3c.2 0 0 0 0 0h.2v-.2h.3v.4m-.5.9V31v.3c-.2 0 0 0-.2.2v-.2l-.2.2v-.2h.2l-.2-.2h.4v.4m.9.3s0-.2-.2-.2c0 0 .2 0 .2.2h-.2v.3h-.2v-.4H26h.3s.2 0 .2.2" fill="#1d81a4"/><path d="M26.8 31.4h-.3l.3.2h-.3s.2 0 .2.2c0 0 0-.2-.2-.2h-.2l.2-.2-.2.2v-.3h.5m-.2-.5h-.2l.2.2h-.4c0-.2 0 0 0 0l.2-.2h-.2s0-.2.2-.2c0 0 .2 0 .2.2m-1.6-.1h.2s.2 0 .3.2c0 0 0-.2-.3-.2h.2l-.2.2h.4v.1c.2 0 0 0 0 0H25" fill="#1d81a4"/><path d="M25.6 30.4v.3l-.2-.3v.3s0-.2-.2-.2c0 0 .2 0 .2.2h-.2.4l-.2.2c0-.2 0-.2.2-.3h.2s0-.3-.2-.4" fill="#1d81a4"/><path d="M26 30.3v.2l-.2-.2v.2h-.2v.2h.4v-.4m.2.7c0 .2 0 0 .2.2H26h.4l-.2.2.2-.2V31v.2s0 .2.2.3V31H26m-1.7.7v-.3.1s-.2 0-.2.2v-.2h-.2.2v-.2h.3c0-.2 0 0 0 0v.4" fill="#1d81a4"/><path d="M24.6 31.6v-.2.2h-.4v-.2h.1c0-.2.2 0 .2 0V31v.4m.5.1v-.2.2h-.4.2l-.2-.2h.2c0-.2.2 0 .2 0s0-.2-.2-.2l.2.2v.3m.2-.3V31v.5H25V31h.4s0 .3-.2.3" fill="#1d81a4"/><path d="M24.6 31.4l.2-.2-.2.2v-.2h-.2V31h.4v.2s0 .2-.2.2m.4.8V32v.2h-.2c0-.2 0 0 0 0V32c0-.2.2 0 .2 0s0-.2-.2-.2h.3v.4" fill="#1d81a4"/><path d="M25.3 32v-.3.2H25h.2v-.1H25v-.2c0-.2.2-.2.2-.2v.3" fill="#1d81a4"/><path d="M25.6 31.4h-.2s0 .2-.2.2v-.2c0-.2.2-.2.2-.2h-.2.3v.2m-1-.8s.2 0 0 0v.2h-.2v.2l.2-.2v.2l.2-.2v-.1h-.2" fill="#1d81a4"/><path d="M25 30.6v-.1h-.4c0 .2.2.2.2.2h-.2.3-.3c0 .2.2.2.2 0 0 .2-.2.2-.3.2h.3v-.4" fill="#1d81a4"/><path d="M25.2 30.7v-.1h-.4.2s0 .2-.2.2l.2-.2v.2h.2v-.3m-.2.8c.2 0 .3 0 .3.2H25v.2c.2 0 0 0 0 0h.2v-.2c.2 0 0 .2 0 .2.2 0 .2-.2.2-.2v-.1H25m1.2-.4H26h.2s.3 0 .3.2H26h.4l-.2.2h.3v-.2l.2.3V31v.3c.2 0 0-.3 0-.3s.2 0 .2.2c0 0 0-.3-.2-.3h-.3" fill="#1d81a4"/><path d="M26.4 30.6v.2h-.2.2s-.2 0-.3.2h.4c.2 0 0 0 .2-.2h-.2m.1-.6v.2h-.2.2v.2s.2 0 .2-.2v-.1s.2.2 0 .2c.2 0 .2-.2 0-.2h-.2m.4-.3v.4h.2v-.2h.2l-.2-.2.2.2s0-.2-.2-.2H27" fill="#1d81a4"/><path d="M26.6 30.6h.2l-.2.2h.2v.2l.2.2v-.4h-.4M26 30h-.4s.2 0 .2.2h-.3H25.8s-.2 0-.2.2v-.2.2s0-.2.2-.2h.2V30m.3-.3v-.1.2s0-.2-.2-.2h.2c0 .2 0 0-.2 0 0 0 .2 0 .2.2l-.2-.2s.2 0 .2.2h-.5.2v.2l.2-.2v.2-.3m.8-.1v.2h-.5.3l-.2.2h.4v-.2m.4 1.2h-.2v.2l-.2.2V31c0-.2.2-.2.3-.2H27h.4v.3" fill="#1d81a4"/><path d="M27.5 30.5h-.2.3c0 .2-.2 0-.2.2s0 .2.2.2l-.2-.2v-.1l-.2.2v-.5.2c-.2 0 0-.2 0-.3h.3" fill="#1d81a4"/><path d="M27.6 30.2h-.3.1l.2.2h-.2v.2c0-.2 0 0 0 0v-.2l-.2.2V30l.4.2m-.8-.2v.2s0-.2-.2-.2 0 .2-.2.3V30h.2l-.2-.2h.4v.3" fill="#1d81a4"/><path d="M27.2 30v-.3.3l-.2-.2v.2l-.2.2V30h-.2.3-.4c0-.2.3 0 .3-.2h-.3.1c0-.2.3-.2.4-.2h.5v.4" fill="#1d81a4"/><path d="M27.5 29.7l-.2-.2.2.2s-.2-.2-.2 0v-.1.2s-.2 0-.2.2l.2-.3-.2.2c0-.2 0-.2.2-.3H27l.2-.2H27h.3s.2 0 .2.2" fill="#1d81a4"/><path d="M27.8 29.3s0-.2-.2-.2l.2.3h-.2v.2h-.2v-.2h.2c0-.2-.2 0-.2 0l.2-.2-.2.2s0-.2.2 0h-.2l.2-.2.2.3" fill="#1d81a4"/><path d="M27.8 29v-.3.1l-.2.3V29s0 .2-.2.2c0 0 .2 0 .2-.2h-.2.3l-.2-.2h.3v.4" fill="#1d81a4"/><path d="M27.4 29.4v-.2.3c-.2 0 0-.2-.2-.2l-.2.2v-.2c.2 0 0 0 0 0h.2V29v.2h.2s-.2 0-.2-.2h.3v.4m.8.6c0-.2 0-.3-.2-.3 0 0 .3 0 .3.2l-.2-.2c.2 0 .3 0 .3.2H28h.3v.2s0-.2-.2-.2v-.4l.3.3" fill="#1d81a4"/><path d="M28.4 29.5H28h.2s0 .2.2.2h-.2v-.1H28v-.4s.3 0 .4.2m-.1-.4c0-.2-.2-.2-.3-.2s.2 0 .3.2H28s.2 0 .2.2c0 0 0-.2-.2-.2l.2.2H28V29h-.2l.2-.2h-.2.5m-1.6 0h-.1.2-.3s0 .2.2.2h-.4.2s-.2 0-.2.2h.2V29v.2c.2 0 0-.2 0-.2.2 0 .2 0 .2.2V29c.2 0 0-.2 0-.2h-.3m.9-.3v.2l-.2-.2s.2.2 0 .2v-.2.2H27h.4l-.2.2s.2 0 .2-.2v.2s.2 0 .2-.2c0 0 0 .2-.2.2 0 0 .2 0 .2-.2v-.3" fill="#1d81a4"/><path d="M27.5 28.4v.2l-.2-.2v.2h-.2.4v.2h.4s0-.4-.2-.4m.1.6h.3c0 .2 0 0-.2.2h.2l-.2.2h.2V29s0 .2.2.2V29v.2h-.4m-.1 1.8c0-.2.2-.3.3-.3v.5s0-.2.2-.2c0 0 0 .2-.2.2 0 0 0-.2.2-.2l.2.2-.2-.2c0-.2.2 0 .2 0l-.2-.2h.2l-.2-.2H28s0 .2-.2.3" fill="#1d81a4"/><path d="M27.8 30.5h.2l-.2.2h.2s0 .2-.2.2l.2-.3h.2v-.2h-.4m-.2-.4h-.1.3-.4.2l-.2.2h.2v.1h.2V30v.2h-.4m.3-.4s0-.2.2-.3l-.2.3v-.2.2h.2v-.2.2h.2l-.2-.2H28.2s-.3-.2-.3 0v-.2h.1v.4m0 .6v-.2.2h.2v-.2.2h.2l-.2-.2H28h.3s-.2-.2-.2 0c0-.2.2-.2.3-.2H28v.4m-1-.1v.3c.2 0 .2 0 .2.2v-.4h.2s0-.2-.2-.2H27" fill="#1d81a4"/><path d="M27 30h.2c0 .2-.2 0-.3.2h-.1c.2 0 0 .2 0 .2s.2-.2.2 0v-.2h.2V30H27m.4-.5c0 .2 0 0 .2.2h-.3.2c.2 0 0 0 0 0h.2v-.2l.2.2-.3-.3h-.3m1.5.6h-.2s.2 0 .2.2h-.2l.2.2h-.2v-.2s0 .2-.2.2V30h.4m-.3-.4s-.2 0-.2.2l.2-.2v.2h.1s0 .2.2.2H28.2l.3-.2" fill="#1d81a4"/><path d="M28.3 29.4H28h.3v.2l.2.2h-.2l-.2-.2.2.3v-.4.2l-.2-.2h.3m-.7.5c0-.2-.2-.3-.2-.3s.2 0 .2.2l-.2-.2.2.2h-.2l-.2.2V29.8l.2-.2.2.3m1.5 1.1v-.2.4h.2v-.4s0 .2.2.3V31h-.1.2s-.2 0-.2-.2h-.1.2s-.2-.2-.3 0c0-.2.2-.2.3-.2h-.3s-.2.3 0 .4" fill="#1d81a4"/><path d="M29 30.7v-.2.2h.2l-.2.2.2-.2.2.2s0-.2-.2-.2h.2l-.2-.2h.2s-.2-.2-.3 0m-.5-.2l.2-.2c0 .2 0 .3-.2.3h.2c0 .2 0 0 0 0v.2h.2v-.4.2s0-.2-.2 0h-.2m0-.4v-.2.2l.2-.2v.3h.2v-.2H28.7h.2c0-.2-.3 0-.3 0l.2-.2h-.3v.4" fill="#1d81a4"/><path d="M29 30.5v-.2.2l.2-.2v.1s.2 0 .2.2v-.4H29h.5c0-.2-.2 0-.2 0v.3M28 31c0-.2.2-.3.3-.3 0 0-.2 0-.2.2.2 0 .3-.2.3-.2s-.2 0-.2.2h.5c0-.2 0 0 0 0v-.2h-.2.2l-.2-.2-.2.3" fill="#1d81a4"/><path d="M28 30.4h.5l-.3.2h.2v.2s0-.2 0 0h.2v-.4H28m.2-.4c0-.2.2-.2.2-.2h-.2.2l-.2.2h.2l-.2.2.2-.2v.2h.2v-.4H28m1.7.2h-.2.1l.2.2h-.4V30h.3m-.5-.4v.2l.2-.2v.4H29h.3v-.4" fill="#1d81a4"/><path d="M29 29.5v.2l.2-.2v.2H29h.2c.2 0 .2 0 .3.2 0-.2 0-.2-.2-.2H29s0-.3.2-.3m-.6.6h-.2c0 .2.2.2.2.2h-.2s.2 0 .3.2h-.2v-.1s0 .2-.2.2V30v.3c-.2 0 0-.2 0-.2h.3" fill="#1d81a4"/><path d="M20.5 39c-10 0-18.3-8.4-18.3-18.5 0-10 8.2-18.3 18.3-18.3 10 0 18.4 8.2 18.4 18.3 0 10-8.4 18.4-18.5 18.4m0-39C9.2 0 0 9.2 0 20.5S9.2 41 20.5 41 41 31.8 41 20.5 31.8 0 20.5 0" fill="#737577"/></g></svg>