<svg xmlns="http://www.w3.org/2000/svg" viewBox="0 0 54.705734 54.710266" height="54.7" width="54.7"><defs><clipPath id="a"><path d="M0 41h41V0H0v41z"/></clipPath></defs><path d="M23.7 19.5H23l-1.8.3-1.2-.2 1 .3 2-.5h.6l1.6-.4-1.5.5z" fill="#1d81a4"/><g clip-path="url(#a)" transform="matrix(1.33333 0 0 -1.33333 0 54.71)"><path d="M15 24l2 .7c.5 0 1.5.5 2 .8L21 27l-2.4-1.4h-.4l1 .8 1.2 1.2.6 1s-1.5-1.7-2-2L18 25.2c-.2-.2-3-1-3-1V24zM15 26l-1.8.6-1.5 1.2-.5 1s1-1.4 2-2c1.2-.7 2-.8 2-.8H15zM15 29l.8 1.5s1 1 1.5 1c.3.2 1 .2 1 .2s-1.5-.4-2.3-1.3c-.8-1-1-1.7-1-1.7v.2zM15.2 23.2s.3.6 1 .6 4.4-1 4.4-1-3.8 1.5-4.5 1.3l-1-.6.2-.2zM15 23.2s-2 .4-2.7.8c-.7.4-1 1-1.4 1.3-.5.4-1.2 1.6-1.2 1.6l1.5-2c.2-.2.7-.6 1.2-.7l2.4-1zM15.3 21.8s2.3 0 2.5-.2c.2-.2 0-.5.4-.6.3 0 3.3-.8 3.3-1 0 0-3.4 1-3.3.7l.5-1.2s-.7 1-.8 1.4c-.2.4-.2.3-.4.4l-2.4.2v.2zM15.3 26.5l.8.5v.2c.2 0 1 .8 1 .8l-1-.7V27.2 27l-.8-.4z" fill="#1d81a4"/><path d="M15 21.7c0 .4-1 .5-1.2.4-.5 0-1 0-1.4-.2-.7-.2-1.6-.7-2.3-.2.5-.6 1.6-.2 2 0 .8.2 2.5.8 3 0 0 0 .2 0 0 0" fill="#1d81a4"/><path d="M13 22v-.4c-.5-.4-1-1.3-1.7-1.3.6-.2 1.2.6 1.5 1 0 .2.2.4.4.6zM14.7 33.5V14.8l-.2-7.3v-2l-.3-.3s-.3-.3 0-.3c0-.2.3 0 .5-.2 0-.3 0-.5.2-.5v.2h.5c.2 0 0 .3.3.3 0 0 0 .4-.2.6l-.2 1.3v1.5l-.2 16V31c0 1.2-.5 2.5-.5 2.5zM13.4 27s.3 0 .3.2h-.4H13.2s.3 0 .3.2h-.3.3l-.3.2h.3s-.2 0-.2.2l.2-.3V27.4c.2 0 .2.2.2.3v-.4.3c.2 0 .2-.3 0-.4.2 0 .2.2.2.3 0 0 0-.3-.2-.4h-.4" fill="#1d81a4"/><path d="M13.7 26.8s.2 0 .2.2l-.3-.2v.2h-.2H13.4 13.3h.3l-.2.2h.4V27c.2 0 0 .2 0 .3l.2-.3v0l-.3-.2M14 26.3c.2 0 .3.2.3.2l-.3-.2.2.2H14 14h.3s-.2 0-.3.2h.3V26.6 26.6v.2c0-.2.2-.3.2-.3v-.2V26.5c.2 0 0 .2 0 .2l.2-.2V26.5l-.3-.2" fill="#1d81a4"/><path d="M14.4 26.3h0c0 .2.2 0 .2 0 0 .2-.2.2-.2.3h.2V26.5s0 .2.2.2v-.2V26.4 26.3 26.2s0 .2.2.2l-.2-.2h-.4M14 26.8H13.8 13.8l.2.2H14 13.8h.2l-.3.2h.2V27v.2l.2.2V27 27v0h-.5M13.3 25.8l.2.2-.2-.2.2.2h-.3-.2 0c0 .2.2 0 .2.2H13h.2v.2l.2-.2V26v.4s0-.3.2-.3V26.2l-.3-.2" fill="#1d81a4"/><path d="M13.8 25.7v.3s0-.2-.2-.3v.3s0-.2-.2-.2c0 0 .2 0 .2.2l-.3-.2s.3 0 .3.2h-.3.3l-.2.2.2-.2v.2h0s.2 0 .2-.2c0 0 0-.2-.2-.3M14.5 25.8v.2l-.2-.2v.2h-.2.3s0 .2-.2.2h.7V26l-.2-.2M14.8 27.5v-.3V27.3c-.2 0 0 .2 0 .3l-.2-.2v0l-.3.3.2-.2h-.2.2c0-.2-.2 0-.2-.2h.3c0-.2 0 0-.2-.2 0 0 .2 0 .3.2h-.3c0-.2.3 0 .4 0v.3" fill="#1d81a4"/><path d="M15 27c0-.2-.2-.2-.3-.2H14.8c0 .2.2 0 .2.2h-.2 0s.2 0 .3.2H15h0s.2 0 .2.2l-.2-.3V27.2s0 .2-.2.3V27 27v-.2V26.7s.4 0 .4.2" fill="#1d81a4"/><path d="M15 26.6v.3c-.2 0 0 .2 0 .3-.2 0-.2-.2-.2-.2v0h-.2 0l.2-.2h-.2 0s0-.2.2-.2c0 0-.2 0-.2.2l.2-.2s.3 0 .3.2M14.3 26.3V26 26.2c-.2 0 0 .2-.2.4V26v.2s0 .4-.2.4l.2-.2h-.2.2l-.2-.2h.4l-.2-.2h.5v.5M11.6 28h.3-.4H11.5s.2 0 .3.2h-.4.3l-.3.2H11.8V28.2 28.2c.2 0 0 .2.2.3V28v.5c.2 0 0-.4 0-.4l.2.3V28s-.5-.2-.6 0" fill="#1d81a4"/><path d="M12 27.6H12v.2h-.2H11.7 11.6h-.2.3l-.3.2h.2c.2 0 0 0 0 0 .2 0 .2-.2.2-.2V28H12M12.4 27c0 .2.2.2.2.3 0 0-.2 0-.3-.2 0 .2.2.3.2.3h-.2-.2H12.2c0 .2.2 0 .3.2H12h.3V27.4c.2 0 0 .2 0 .3.2 0 .2-.2.2-.3v.2l.2-.2V27.3l-.3-.2" fill="#1d81a4"/><path d="M12.7 27h.3s-.2 0-.3.2H12.6h-.2.3c-.2 0-.3.2-.3.2H12.6h.2l-.2.2v-.2.2s.2-.2 0-.3c.2 0 .2.2.2.2v-.2V27.2 27s0 .3.2.4V27 27h-.5" fill="#1d81a4"/><path d="M12.2 27.6h.2c0 .2 0 .2-.2.2h.2l-.2.2h.2V27.8h.2v-.2V27.7v-.2 0l.2.2-.2-.3h-.4M11.6 26.6l.2.2-.2-.2v.2h-.2H11.3 11.2h.3c0 .2-.2.2-.2.3h.2v.2l.2-.3V26.8 26.8c.2 0 0 0 0 0h0V27s0-.2-.2-.2" fill="#1d81a4"/><path d="M12 26.5l.2.3s0-.2-.2-.3v.3s0-.2-.2-.3v.3s0-.2-.2-.2c0 0 .2 0 .3.2h-.4.2l-.2.2s.2 0 .2-.2v.2h.2V27v-.3M12.7 26.5l.2.3-.3-.2v.2s-.2 0-.3-.2l.2.2h-.2H12.3h.3l-.2.2h.4s.2 0 .2-.2l-.3-.3M13 28.3V28v.5s0-.2-.2-.2v0s0 .3-.2.3v-.3 0h0c0-.2.2 0 .3-.2h-.4 0c0-.2.3 0 .3 0v.3" fill="#1d81a4"/><path d="M13.3 27.7H13 13s.2 0 .3.2l-.2-.2s.3 0 .3.2H13 13.2s.2 0 .2.2V28c-.2 0 0 .2 0 .2L13 28V28v-.2l-.2.2s0-.2.2-.3l-.2.2v-.4.2s0-.3.2-.3c0 0 .2 0 .3.2" fill="#1d81a4"/><path d="M13.4 27.4s-.2-.2-.3 0h.3l.2.2H13h.2l.3.2s0-.2-.2-.2V27.5v-.2 0H13l.3-.2-.2.2.3-.2s.4 0 .4.2M12.6 27V27 27.2h-.2V26.8 26.8s-.2 0-.2.2V27 26.8H12h.3s-.2 0-.2-.2h.6l-.2-.2h.3v.5M13.7 28.7H13.8s.3 0 .3.2l-.3-.2h-.2s.2 0 .3.2h-.5.4-.5.4l-.5.3.3-.2-.2.4.3-.2c-.2 0-.2 0-.2.2V29v.4c.2 0 0-.3 0-.3l.2.4V29v.2c.2 0 0-.3 0-.3.2 0 .2 0 .2.2v-.4 0h-.5M14 28.4c.2 0 .3 0 .3.2l-.3-.2.2.2-.2-.2v.2H14h.3l-.2.2h.2V28.7v.3s0-.2.2-.3V28.6 28.6v.2l.2-.4V28.5l-.3-.2" fill="#1d81a4"/><path d="M14.5 28H14.4s.2 0 .2.2c0 0 0-.2-.2-.2v.2h-.2H14h.4l-.2.2h.4v-.2.3l.2-.3V28h-.3M14.8 28c0-.2.3-.2.3 0H15h.3s-.2 0-.3.2h.3s-.2 0-.2.2l.2-.2V28c0 .2.2.3.2.3V28 28 28v.2c.2 0 0-.2 0-.2h-.4" fill="#1d81a4"/><path d="M14.3 28.4h.3s-.2 0-.3.2h.2l-.2.2h.2V28.6s0 .2.2.2v-.3-.2V28.5 28.4l.2.2-.3-.3h-.4M13.7 27.4l.2.2h-.3-.2H13.4h0s.2 0 .2.2h-.3.3v.2l.2-.2V27.7v0c.2 0 0 .2 0 .3l.2-.3v-.2l-.3-.2" fill="#1d81a4"/><path d="M14.2 27.3v.3l-.2-.3v.3s0-.2-.2-.2l.2.2h-.3H13.6h.3l-.2.2.2-.2v.2H14.4v-.2-.3" fill="#1d81a4"/><path d="M14.8 27.4l.2.2s0-.2-.2-.2v.2s-.2 0-.3-.2l.2.3-.2-.2s.2 0 .2.2h-.3.3V27.6 27.6v.2s0-.2.2-.3c0 0-.2 0-.2.2l.2-.3V27.6v-.2s0-.2-.2-.2M15.2 29v.2s0-.3-.2-.3v.3c-.2 0 0-.2 0-.2l-.3.3V29v0h.2-.4.3c0-.2-.2-.2-.3-.2H15.2l.2.3" fill="#1d81a4"/><path d="M15.4 28.5H15h.3l.2.2h-.2 0s.2 0 .2.2c0-.2-.2-.3-.2-.3v0s0 .2-.2.2v-.3-.2V28.5 28.4l-.2.2.3-.3s.3 0 .4.2" fill="#1d81a4"/><path d="M15.5 28.2h-.3H15.3l.2.2h-.3 0s.2 0 .2.2c0 0 0-.2-.2-.2l.2.3s0-.2-.2-.3v0l-.2.2.2-.2H15h0l.2-.2H15 15 14.8s0-.2.2-.2c0 0 .3 0 .3.2M14.7 28v-.4.3s0-.3-.2-.3v0s0 .3-.2.3v-.2 0h-.2.3c0-.2.2 0 .2 0 0-.2-.2-.2-.2-.2H14.6l-.2-.2h.3v.5M10.5 29.5H10.4h0s.2 0 .2.2h-.3H10.3h.4s-.3 0-.4.2l.4-.2s-.3 0-.4.2H10.7V29.8 30 30c.2 0 0 .2.2.2v-.3V29.6 29.5v-.2h-.5" fill="#1d81a4"/><path d="M11 29v.3H11h-.2.3-.4s.2 0 .2.2h-.3.3v.2l.2-.2V29.4v0c.2 0 0 .2 0 .3l.2-.3V29.3L11 29M11.3 28.7s.2 0 .2.2l-.3-.3.2.2s0-.2-.2-.3v.2s0-.2-.2-.2l.2.2H11 11h.2v.3s0-.2.2-.3v.2l.2-.3V28.8l-.3-.3" fill="#1d81a4"/><path d="M11.6 28.6H11.5h.3-.4s.2 0 .2.2h-.2H11.5h.3l-.2.2h.2V28.8 28.8c.2 0 0 0 0 0h.2V29 28.7v-.2V28.5l.2.2-.2-.3h-.4M11 29.2H11.7s-.2 0-.3.2h.4s-.2 0-.2.2h.6v-.2-.2s0 .2.2.2c0 0 0-.2-.2-.2H11M10.5 28.2s.2 0 .2.2c0 0 0-.2-.2-.2v.2h-.2H10.2 10h.4l-.2.2h.4c.2 0 0 0 0 0s.2 0 .2-.2v0l-.3-.2" fill="#1d81a4"/><path d="M11 28V28.6l-.2-.2V28.5l-.2-.2c0 .2.2.3.2.3h-.3.3s-.2 0-.2.2h.7s0-.4-.2-.4" fill="#1d81a4"/><path d="M11.6 28l.2.4s0-.2-.2-.3v.4l-.2-.2v.2h-.2.3l-.2.2h.4s.2 0 0 0c0 0 .2 0 .2-.2l-.4-.3M12 30v-.4.3c0-.2 0-.3-.2-.3V29.6 30l-.3.3V30v0H11.3h.3c0-.2 0 0-.2-.2H12c-.2 0-.3 0-.4-.2h.3v.5M12.2 29.2H12h0s.2 0 .2.2H12h0s.2 0 .2.2l-.2-.2.2.2H12h0V29.4v0l-.2.2v-.2-.2V29.2v0h-.2.5" fill="#1d81a4"/><path d="M12.3 29l-.2-.2s.2 0 .3.2H12 12.5c0 .2-.2 0-.2 0l.3.3-.2-.2.2.3-.2-.2.2.4s0-.2-.2-.2v0h-.2l.2-.2-.2.2s0-.2.2-.3h-.2 0s0-.2.2-.2h-.2.2s.3 0 .3.2M11.5 28.7v-.3.3s0-.2-.2-.2v0s0 .2-.2.3c.2 0 .2-.3.2-.3s0 .2-.2.2c0 0 .2 0 .2-.2H11 10.8h.3c0-.2-.2-.2-.2-.2h.6s-.2 0-.2-.2l.2.3v.4M14.5 34.8l.3-.2s-.2 0-.3.2h.3l-.3.2h.3l-.2.2.2-.2v0s0 .2.2.3V35 35 35 34.7s0 .2.2.2c0-.2-.3-.3-.3-.4 0 0 0 .2.2.2l-.3-.2H14.8s-.4 0-.5.2" fill="#1d81a4"/><path d="M14.6 34.3h.3-.4H14.5s.2 0 .3.2h-.3.2s-.2 0-.2.2h.2v-.2V34.5v.2c.2 0 0-.2 0-.2.2 0 .2.2.2.2s0-.2-.2-.3V34.4s0 .2.2.3v-.3V34.3 34.2h-.4M14.6 33.7H14.5h0s.2 0 .2.2h-.3.3s-.2 0-.3.2l.2-.2v0s0 .2.2.2l-.2-.2V34h.2V34 33.7h-.4M14.8 33.5l.2-.2v.5s0-.2.2-.2v0h.2l-.2-.2H15h.4s-.3 0-.3-.2H15.2s0 .2-.2.3" fill="#1d81a4"/><path d="M14.8 34.2l.2-.2-.2.2h.2V34.3l.2.2v-.2h.2s-.2 0-.3-.2l.4.2H15c0-.2.3 0 .4 0L15 34H15.2s-.2 0-.2.2M13.7 33.8h.2-.4.3l-.4.2H13.5h.2l-.2.3.2-.2V34.6c.2 0 0-.2 0-.2.2 0 .2.3.2.3V34 34 33.8c.2 0 0-.2 0-.2l.2.2v-.3h-.5" fill="#1d81a4"/><path d="M14 33.4h.2c0 .2 0 0-.2 0l.2.2H14 14h.2l-.3.2h.3V33.7v0c.2 0 0 .2 0 .2.2 0 .2-.2.2-.3v-.2.3c0-.2.2-.4 0-.4.2 0 .2.2.2.2v-.3H14" fill="#1d81a4"/><path d="M14.5 33h0l.3.2h-.3H14.4h.2s-.2 0-.2.2H14.3h.3s-.2 0-.2.2l.2-.2V33.3c.2 0 .2.2.2.2v-.2V33.2v0s.2 0 .2.2V33h-.5M16 34.2c-.2 0-.3-.2-.3 0h.2-.4.3-.4l.2.2h-.2 0V34.2 34.4h-.2 0s0-.2.2-.2h-.2H15.3s.3 0 .3-.2c0 0-.2 0-.3.2l.3-.2h-.3.3s.3 0 .3.2" fill="#1d81a4"/><path d="M15.7 33.6h-.3H15.8s-.2 0-.2.2h.3-.4.3-.4s.3 0 .3.2h-.3.2-.3V33.8c-.2 0 0 0 0 0h-.2V34 34c-.2 0 0 0 0 .2-.2 0-.2-.2-.2-.3v0h.4" fill="#1d81a4"/><path d="M15.6 33.3h-.3.3l-.2.2H15.8h-.3 0l.3.2h-.3 0v-.2V33.5c-.2 0-.2.2-.2.3v-.3V33.4v0s-.2 0-.2.2l.2-.3h.4M14.8 33.5l-.2-.2v.5s0-.2-.2-.2V33.5 33.5l-.2.2s0-.2.2-.2h-.2.2c0-.2 0 0-.2 0 0 0 .2 0 .3-.2h-.3 0s.3-.2.3 0h-.2c0-.2.2-.2.3-.2 0 0 0 .3.2.3M12.3 24.6H12.2h0s.2 0 .3.2h-.3H12h.4l-.3.2h.5l-.2.2.2-.2V25v.2s.2-.3 0-.3h.2V25v0s0 .2.2.3v-.3V24.6h-.5" fill="#1d81a4"/><path d="M12.6 24.2l.2.2h-.2H12.5h-.2s.2 0 .3.2h-.3.2v.2l.2-.2V24.5v.3s0-.3.2-.3l-.2.3v-.3.2s.2-.2 0-.3l-.2-.2" fill="#1d81a4"/><path d="M13 23.8s.2 0 .2.2c0 0 0-.2-.2-.2 0 0 .2.2 0 .2v-.2.2H13 12.7h-.2.3l-.3.3h.2v-.2.4l.2-.2V24.2s0-.2-.2-.2" fill="#1d81a4"/><path d="M13.3 23.7h0s.2 0 .3.2h-.3.2s0 .2-.2.2l.2-.2v0l.2.2V24 24 24v0l.2.2-.3-.3.2.2c0-.2-.2-.3-.3-.4h-.4M13 24.3H13h.3l-.2.2H13.2l-.2.2h.5v-.2V24.4 24.3s0 .2.2.2c0 0 0-.2-.2-.2H13M12.2 23.3s.2 0 .2.2c0 0 0-.2-.2-.2l.2.2s-.2 0-.3-.2c.2 0 .3.2.3.2H12 12 11.8c.2 0 0 .2 0 .2h.2v-.2V23.5v.2l.2-.2v.2l.2-.3-.4-.2" fill="#1d81a4"/><path d="M12.7 23.2v.2l-.2-.2v.2h-.2H12.2h.3l-.2.2H13h-.3c0 .2.2 0 .2 0l-.3-.4" fill="#1d81a4"/><path d="M13.4 23.2v.3l-.2-.2v.2H13 13 12.8h.2l-.2.2H13.6v-.2s0-.2-.2-.3M13.7 25v-.3V25l-.2-.2V25s-.2 0-.2.2V25H13 13.2c.2-.2.4 0 .4-.2h-.2H13.3c0-.2.2 0 .3 0 0-.2-.2-.2-.3-.2H13.7v.4" fill="#1d81a4"/><path d="M14 24.4h-.3.2-.3H13.6h0l.3.3h-.3.2-.3H13.6v-.2 0l-.2.2.2-.2h-.2v-.2V24.3v0h.4" fill="#1d81a4"/><path d="M14 24h-.2 0s.2 0 .2.2h-.2 0s.2 0 .2.2l-.2-.2s0 .2.2.2h-.2-.2v-.2V24v0h.4M13.2 23.8v-.3.3c-.2 0 0 0-.2-.2V23.5 23.5l-.3.2s.2 0 .2-.2h-.3.2-.3H12.6 12.6h.3c0-.2 0-.2-.2-.2h.2c0-.2.2 0 .3 0v.4M16.7 28v-.3.3s0-.2.2-.2c0 0-.2 0-.2.2v-.2.2h.2c0-.2.2 0 .2-.2H17c0-.2 0-.2 0 0v-.2h-.2v.3" fill="#1d81a4"/><path d="M16.5 27.7h.2V27.6v0h.2-.2v-.2h-.3M16.3 27.4h.2v0h0V27l-.2.2" fill="#1d81a4"/><path d="M16.3 27.2V27v.2h.2V27h-.2 0v-.2.4M16.6 27.5h.2c0-.2 0 0 0 0v-.2h-.2 0v.2M16 28v-.3.2h.2v-.2H16M16 27.5v.2h-.2.2V27.6 27.6 27.6h.2v-.2h-.3M16 27v.4c0-.2 0 0 0 0h.2v-.2-.2h-.3M17 27h.2s-.2 0-.2.2h.2v.2c-.2 0 0 0 0 0H17v-.2 0h-.2V27h.3M16.7 26.8v.2l.2-.2-.2.2v-.2.2h0v.2h-.2v-.4" fill="#1d81a4"/><path d="M16.6 26.7s-.2.2 0 .2v-.2h.2v.2h-.2c-.2 0 0 0 0 0h-.2s0-.2.2-.3M16.3 27.3H16 16.6v.2c-.2 0 0 0 0 0H16v-.2 0h.3M10.8 25.3H11l.3.2h-.3.3c0 .2-.3 0-.4 0 0 .2.3.2.3.2h-.4.3s-.4 0-.4.2l.3-.2-.3.2.2-.2V25.7v.2c.2-.2 0-.3 0-.4.2 0 .2.2.2.3v-.5 0s0 .2.2.3v-.4h-.6" fill="#1d81a4"/><path d="M11 25c.2 0 .3.2.3.2L11 25c.2 0 .3.2.3.2H11h-.2.3s-.2 0-.2.2H11.2v0c.2 0 0 .2 0 .2l.2-.2V25.3v.3l.2-.3V25.2l-.3-.2" fill="#1d81a4"/><path d="M11.5 24.6s.2 0 .2.2c0 0 0-.2-.2-.2l.2.2-.3-.2.2.2h-.2-.2.2l-.2.2h.5V25 25.2s.2-.2 0-.2c0 0 0-.2-.2-.2M12 24.5H12h.3c0 .2 0 0-.2.2H12.2s0 .2-.2.2c0-.2.2-.2.3-.2V25s.2 0 .2.2v-.2-.2V24.5s0 .2.2.2c0 0 0-.2-.2-.2 0 0 .2 0 .2.2 0 0 0-.3-.2-.3H12" fill="#1d81a4"/><path d="M11.4 25h.2c0 .2-.2 0-.2.2H11.3h.3s-.2 0-.3.2h.3s-.2 0-.2.2c0 0 0-.2.2-.2V25.3l.2.2v-.3V25v.2c.2 0 0-.2 0-.2h-.4M10.8 24l.2.3-.3-.2c0 .2.2.3.2.3-.2 0-.2-.2-.3-.2v.3h-.2H10.4h.3l-.3.2h.3c.2 0 0 0 0 0h0s.2 0 .2-.2v0L11 24" fill="#1d81a4"/><path d="M11.2 24s.2.2 0 .2V24v.2l-.3-.2v.2h-.2.2v.2h.4s0-.4-.2-.4M12 24v.3s0-.2-.2-.3V24.4s0-.2-.2-.2c0 .2.2.3.2.3s-.2 0-.2-.2c0 .2 0 .3.2.3h-.3.2l-.2.2H11.6s.2-.2.2 0l.2-.2s0 .2-.2.3l.2-.3v.3l.2-.3-.3-.3M12.2 25.8v-.3.3s0-.2-.2-.2V25.5 25.5l-.2.3v-.3V25.6h.2c0-.2-.2-.2-.3-.2H12.2v-.2h.2v.5" fill="#1d81a4"/><path d="M12.5 25h-.3s.2 0 .3.2h-.3 0l.3.2h-.3 0l.2.2s0-.2-.2-.2V25.3l-.2.2v-.2-.2V25.2h.5" fill="#1d81a4"/><path d="M12.6 24.8h-.3 0s.2 0 .3.2h-.3 0l.2.2-.2-.2V25.2l-.2.2.2-.2v-.2l-.2.2.2-.3s0 .2-.2.2c0-.2.2-.3.2-.3H12h.6M11.8 24.5v-.2 0c-.2 0 0 .2-.2.3v-.3V24.4l-.2.2v-.2 0h-.2.3s-.2 0-.2-.2H11.7l-.2-.2s.3 0 .3.2v.3M9.7 26.2h.3c0 .2-.2 0-.4 0l.3.2h-.4.3-.5s.3 0 .3.2h-.3.3s-.3 0-.3.2h.3V26.6v-.2V26.5c.2 0 .2.2.2.2v-.3V26.4v.3c.2 0 .2-.3 0-.3.2 0 .2.2.2.3v-.4h-.5" fill="#1d81a4"/><path d="M10 26h0v.2L10 26s.2 0 .2.2h-.3-.2.3l-.3.2h.2l.2-.2V26H10M10.4 25.5s.2 0 .2.2c0 0 0-.2-.3-.2l.2.2-.2-.2v.2h-.2.4l-.2.2s.3-.2.3 0v-.2.2s.2 0 .2-.2v0c.2 0 0 0 0 .2l.2-.3v0l-.3-.2" fill="#1d81a4"/><path d="M10.7 25.4h0s.2 0 .2.2h-.3H10.6h.2l-.3.2H10.6h.2s-.2 0-.2.2c0 0 0-.3.2-.3V25.6 25.6v-.2l.2.2v-.3V25.4 25.3h-.5M10.2 26h.3l-.3.2h.3s-.2 0-.3.2c0 0 .2-.2.3 0h-.2.2v-.2 0h.2V26v0H10M9.6 25s.2 0 .2.2c0 0 0-.2-.2-.2l.2.2-.3-.2.2.2h-.2-.2.2l-.2.2H9.7v-.2.3s.2-.3 0-.3c0 0 0-.2-.2-.2" fill="#1d81a4"/><path d="M10 25H10h-.2.3c0 .2-.3 0-.4 0l.3.2h-.3H9.6h.2v.2l.2-.2-.2.2s.2 0 .2-.2V25M10.8 25V24.8 24.8v.2l-.2-.2v.2h-.2H10.3h.3l-.2.2h.4s.2 0 .2-.2v0l-.2-.3M11 26.7v-.3V26.8s0-.2-.2-.2V26.5 26.5 26.5l-.2.2v-.2h.2c0-.2 0-.2-.2-.2H10.5h.3l-.3-.2h.4v.5M11.3 26H11 11.2c0 .2.2.2.3.2H11 11.2c.2 0 .3.2.3.2H11 11.2s.2 0 0 .2v-.3V26.2v0h-.2l.2-.2-.2.2V26h.5" fill="#1d81a4"/><path d="M11.4 25.8l-.2-.2s.2 0 .2.2h-.2 0l.2.3h-.2 0v0l-.2.2V26v-.2V25.7 25.6v-.2l.4.3M10.6 25.5v-.3V25.3c-.2 0 0 0-.2.2v-.2 0l-.3.2s.3 0 .3-.2H10 10.4c.2-.2.4 0 .4 0 0-.2-.2-.2-.2-.2H10.7v.5M12.6 23.2h.3-.4s.2 0 .2.2h-.3H12.4h.4s-.3 0-.4.2h.3l-.2.2.2-.2V23.5 23.5c.2 0 0 .3.2.3v-.3V23.4 23.3v0l.2.3v-.4h-.6" fill="#1d81a4"/><path d="M13 22.8l.2.2H13h-.2H12.7 12.6s.2 0 .2.2h-.4.2s-.2 0-.2.2v-.2.2l.2-.2V23v.4l.2-.3V23.2s-.2 0-.2-.2M13.4 22.4s.2 0 .2.2l-.3-.2.2.2s-.2 0-.2-.2v.2h-.2H13.5l-.3.2H13.4V22.7v0c.2 0 0 .2 0 .2.2 0 .2-.2.2-.3V22.6v.2s.2-.3 0-.4c.2 0 0 .2 0 .3.2 0 .2-.4.2-.4l-.3-.2" fill="#1d81a4"/><path d="M13.7 22.3H13.6s.2 0 .2.2h-.3-.2.3c-.2 0-.3.2-.3.2H13.6h.2s-.2 0-.2.2v-.4V22.5s.2 0 .2.2v-.2V22.5 22.4s0 .2.2.2v-.3.2s0-.2-.2-.3h-.3" fill="#1d81a4"/><path d="M13.2 23s.3-.2.3 0h-.3.2s-.2 0-.2.2h.2s-.2 0-.2.2l.2-.2v0l.2.2V23v0h.2l-.2-.2h-.4M12.6 22H12.5h0v.2s0-.2-.2-.2l.3.2h-.3H12.2h.3v.3s0-.2.2-.3v.2l.2-.2-.2.2V22h-.2" fill="#1d81a4"/><path d="M13 21.8l.2.2-.2-.2v.2s0-.2-.2-.2v.2h-.2.2l-.2.2h.5v-.4M13.7 21.8l.2.3s-.2 0-.3-.2v.3h-.2H13.4 13.3h.3l-.3.2h.2v.2l.2-.2v.2l.2-.2s-.2 0-.2.2v-.2.2l.2-.3s-.2 0-.3-.2M14 23.6v-.3V23.7s0-.2-.2-.2v0s0 .2-.2.3v-.3 0h.2c0-.2-.2 0-.2-.2h.2s-.2 0-.3-.2l.3.2v.4" fill="#1d81a4"/><path d="M14.3 23H14 14.2l.3.3-.2-.2c0 .2.2.3.3.3H14h.2c-.2 0 0 0 0 .2l-.2-.3v0h-.2l.2-.2-.2.2V23v-.2h.5" fill="#1d81a4"/><path d="M14.4 22.7s-.2-.2-.3 0H14.7c0 .2-.2 0-.3 0l.4.3-.3-.2c.2 0 .3.2.3.2H14h0v-.2s0 .2 0 0v-.2 0h-.2 0s.2 0 .3-.2l.4.3M13.6 22.4V22v.5s0-.2-.2-.2v0l-.2.3v-.3 0H13h.5c0-.2-.2-.2-.2-.2H13.3c0-.2.3 0 .3 0v.4M12.5 21.3v0s0 .2-.2.2v-.2V21.2v.3l-.2-.2c.2 0 .2.2.2.2s0-.2-.2-.2c0 0 .2 0 .2.2H12h.3l-.2.2h.5v-.4" fill="#1d81a4"/><path d="M12.8 21.5v0h-.2v-.2.2s0-.2-.2-.2v.2c0 .2 0 0 0 0 0 .2 0 .2.2.2h-.2.3v-.2M13.2 21.7v-.2 0s0 .2-.2.2v-.2h-.2v.2h.3c0 .2 0 .2 0 0v.2l.2-.3M13.3 22H13h0c.2 0 0 0 0 0v.2h.4v-.3" fill="#1d81a4"/><path d="M12.8 21.7V21.6 21.6v.2s0-.2-.2-.3V21.6v0h-.2.2v.2h.4l-.2-.3M13.4 21v0H13V21v.2s-.2 0-.2-.2v.2h.2c0 .2-.2 0-.2 0 0 .2 0 0 .2.2H13 13.4V21" fill="#1d81a4"/><path d="M13.6 21.3l-.2.2.2-.2h-.2 0V21v.3H13c0 .2 0 0 0 0v.2h.4M13.7 21.8v0h-.2 0v-.2V21.5v.3s0-.2-.2-.2v.2h.2c0 .2 0 0-.2 0 0 .2.2.2.2.2h-.2.3V22M12.5 22.5s.2 0 .2-.2c0 0-.2 0-.2.2v-.2h-.2H12.2h.2V22v0l.2.2c.2 0 .2 0 0 .2" fill="#1d81a4"/><path d="M13 22.5v-.2.2h-.2-.2 0s0-.2.2 0c0-.2-.2-.2-.2-.2h.2V22l.2.2h-.2.2v.3" fill="#1d81a4"/><path d="M13.2 22.5v-.2 0s0 .2-.2.3v-.3.2c0-.2 0 0-.2 0l.2-.2h-.2.4L13 22l.2.2v.3M13.3 21.8H13.2h0l.2-.2H13 13.6v-.2 0c.2 0 0 .2.2.2v.2h-.2M10 21.7c.2 0 .4 0 .4.2l-.3-.2H10.2s.2 0 .2.2H10 9.8 9.8c.2 0 0 .2 0 .2h.2V22v0c.2 0 0 0 0 .2.2 0 .2-.3.2-.3V21.8 22h-.3" fill="#1d81a4"/><path d="M10.4 21.6h0v.2s0-.2-.2-.2l.2.2h-.2.2v.2l.2-.2v0s0-.2-.2-.2M10.8 21.3v.2h-.2v.2h.2s.2 0 0-.2v.2l.2-.2-.2-.2M11 21.3h0l.2.2H11 11v.2h.2v-.2 0h.2v-.2H11" fill="#1d81a4"/><path d="M10.6 21.7h0v.2h.2v-.2 0h.2v-.2h-.4M10.3 20.8l.2.2-.2-.2v.2H10h.3v.2h.2V21v-.2" fill="#1d81a4"/><path d="M10.7 20.8v.2l-.2-.2v.2l-.2-.2.2.2h-.2.2v.2h.2v-.4M11.2 21v.2L11 21v.2h-.2.2v.2l.2-.2V21M11 22.3V22 22.6h-.2V22h.2v.3M11.4 22c0-.2-.2-.2-.2-.2v.2l-.2.2V22c0-.2 0 0 0 0v-.2h.4M11.5 21.7h-.2 0v0H11h.2v-.2h.3" fill="#1d81a4"/><path d="M11 21.3V21v.3h-.2-.2 0V21h.4v.3M18 22.3l-.2-.4v0c.2 0 0 .2.2.3V22v0s0 .3.2.3V22v0l.2.3-.2-.3h.2c0-.2-.2 0-.3 0l.4-.2H18 18v-.2s-.2 0-.2.2l.2-.2-.3.2s0 .4.2.5" fill="#1d81a4"/><path d="M17.4 22V22v.3h.2V21.8v0s0 .2.2.3V22v0s0 .2.2.2l-.2-.2H17.7c0-.2.2 0 .2-.2h-.3.2-.4.3-.4s0-.2.2-.2h-.3v.5" fill="#1d81a4"/><path d="M17 22v-.4V21.5 22s0-.2.2-.2V22l.2.2-.2-.2h0c0-.2 0 0 .2-.2H17h0l.2-.2H17v.5M16.7 21.6v-.3 0l.2.2s-.2 0-.2-.2c0 0 0 .2.2.2l-.2-.2s.2 0 .3.2v-.2H16.8 16.8V21l-.2.2H16.7h.2-.3V21v0l-.2.2V21v.3s0 .2.2.3" fill="#1d81a4"/><path d="M17.4 21.8v-.2 0l.2.2v-.3 0s0 .2.2.2c0 0-.2 0-.2-.2h.3-.4.3-.4 0v-.2 0l-.2.2s0-.2.2-.2c0 0-.2 0-.2.2v-.2V21.2l-.2.3v-.3.3s0 .3.2.3M16.7 22.8v-.3.3s.2 0 .2-.2l-.2.3v-.3c.2 0 0 .2 0 .3 0-.2.2-.3.2-.3v0l.2.2v-.3H17h0c0-.2 0 0 .2-.2H17 16.8 17s.2 0 .3-.2H17v.5" fill="#1d81a4"/><path d="M16.4 22.4l.2-.2-.2.2.2-.2v.3c.2 0 .2.2.2.2v-.2h.2l-.2-.2H16.7h.3s-.3 0-.3-.2l.3.2h-.3.2s-.3-.2-.4 0c0 0-.2 0-.2.2M16.2 21.7s0-.2.2-.2c0 0 0 .2-.2.3l.2-.2V21.7s0 .2.2.3V22v0h.2l-.3-.2h0c0-.2 0 0 .2 0 0-.2-.2-.2-.3-.2h0l-.2.3M17.7 20.8h-.2c0 .2.2 0 .3 0l-.2.2s0-.2.2-.2v.2H17.6 18l.2.2h-.2-.2V21c-.2 0 0 .2 0 .3l-.2-.3V21l.3-.2" fill="#1d81a4"/><path d="M17 20.8V21s0 .2.2.2v-.3.2l.2-.3V20.6v.2l.2-.2h-.2.2s0 .2-.2.2H17.3 17.2s.2 0 .3.2h-.3H17h0v-.4" fill="#1d81a4"/><path d="M16.7 20.8V21.2c.2 0 0-.2.2-.2V20.7v.3l.2-.2v.2c-.2 0 0 0 0 0H17h0s.2 0 .2.2H17 17 16.7h.2c0 .2-.3 0-.3 0v-.4M16.8 21.7h-.3.3l-.2.2s0-.2.3-.2h-.3c0 .2.2 0 .3 0 0 0-.3 0-.3.2H16.8s0 .2.2.2l-.3-.2v.2c-.2 0 0-.2-.2-.3V21.8 22v.3c-.2 0 0-.2 0-.2h.3M20 21.6c0-.2-.2-.4 0-.4V21.3c.2 0 .2.2.3.3v-.3 0s0 .2.2.2c0 0-.2 0-.2-.2H20.2s.2 0 .3-.2l-.3.2H20s.3 0 .3-.2H20h.3-.4H19.8 20v.6" fill="#1d81a4"/><path d="M19.5 21.4V21v.5s0-.2.2-.2V21.3l.2.3-.2-.3.2.2v-.2H20 20c0-.2 0-.2.2-.2h-.3.2-.4.3-.5v.4M19 21.2V21 20.8v.3s0-.2.2-.3V21.2s0 .3.2.4V21v.3c0-.2 0 0 0 0V21h-.2H19h.4c0-.2-.3-.2-.3-.2H19.2v.4M18.7 21v-.4V20.5s0 .2.2.2c-.2 0-.2 0-.2-.2v0l.3.2v-.2 0h0v-.2h-.2-.2 0v.5" fill="#1d81a4"/><path d="M19.5 21s-.2 0-.2-.2c0 0 0 .2.2.3V21 21l.3.2s-.2 0-.2-.2l.2.2-.2-.2H19.5v-.2 0s-.2 0-.2.2v-.2 0l-.2.2s0-.2.2-.3l-.2.3v-.3.3s0 .3.2.3M18.7 22V22c.2 0 0 .2 0 .3 0 0 .2 0 .2-.2l-.2.3h.2V21.8v0s0 .2.2.3V22v0H19c0-.2.2 0 .2-.2H19 19 18.8v-.2H19v.5" fill="#1d81a4"/><path d="M18.5 21.6s0-.2.2 0h-.2.2l-.2.2h.2V21.6 21.8l.2.2-.2-.2h.2l-.2-.2h.2l-.2-.2H18.7h0l-.2.2M18.3 21v-.2.3h.2V21l.3.3-.2-.2s.2 0 .2.2l-.2-.2h.2s-.2 0-.2-.2H18.5 18.4v.2M19.8 20l-.2.2h.3-.3.2s-.2 0-.2.2H20l.2.2s-.2 0-.2-.2v.2s0-.2-.2-.2V20.3v.2c-.2 0-.2-.2 0-.3h.2M19 20c0 .2 0 .3.2.4V20v.2c.2 0 0-.2.2-.3v.2s0-.2.2-.2l-.2.2h.2c0 .2-.2 0-.3 0 0 .2.2.2.3.2h-.3H19.2h0l.2.2H19V20" fill="#1d81a4"/><path d="M18.8 20v.5l.2-.3v.3s0-.2.2-.3V20.4H19l.2.2H19 19h0V20M18.8 21h-.2.3-.4.3c-.2 0-.3 0-.3.2H18.6 18.8s.2 0 .3.2H19h-.2v-.2.2s-.2-.2 0-.3l-.2.4V21h.4M21.2 20l-.4-.2H21s-.2 0-.2-.2h.4-.4s.3 0 .3-.2H21 21l.2-.2-.2.2v-.2.4c-.2 0-.2-.2-.2-.3V19.4c-.2 0 0 .3 0 .4l-.2-.3v.4h.6" fill="#1d81a4"/><path d="M21 20.2c-.2 0-.4 0-.4-.2l.3.2c-.2 0-.3-.2-.3-.2H21l.2-.2H21v-.2s0 .3-.2.3v-.4V19.5l-.2.3v-.3.4l.3.2" fill="#1d81a4"/><path d="M20.5 20.7s-.2 0-.2-.2c0 0 .2 0 .3.2l-.2-.2H20.5s.3 0 .3-.2h-.2 0V20 20.3l-.2.4V20v.4c-.2 0 0 0 0-.2-.2 0-.2.2-.2.3v-.3.3l.3.2M20.2 20.8H20 19.8h0c0-.2 0-.2.2-.2H20h0l.2-.2H20v-.2.3l-.2-.2v.5h-.2H20.2" fill="#1d81a4"/><path d="M20.6 20.2h-.3H20.4c0-.2 0-.2.2-.2h-.2.3-.3l.2-.2h-.2 0v-.2.2s0-.2-.2-.3v.5c-.2 0 0 0 0 0h.4M21.3 21H21h.5s-.2 0-.2-.2l.3.2-.3-.2H21.4v-.2 0l-.2.2v-.2.3c-.2-.2 0-.3 0-.4l-.2.3v-.4.4h.3" fill="#1d81a4"/><path d="M20.8 21.3V21v0s0 .2.2.3V21v0s.2 0 .2.2L21 21H21.2s0-.2.2-.2c0 0-.2.2-.2 0h-.2H20.7h.2-.3v.5M20.2 21.3L20 21s0 .2.2.3V21v0l.2.2s-.2 0-.2-.2l.3.2-.2-.2h0l.2-.2h-.2-.2.2l-.2.2v-.3.3s0 .2.2.3M19.7 19.5v0s0 .3.2.3l-.2-.3V19.4s0 .2.2.3v-.3V19.3v.3l.3-.2-.2.2H20.2c0 .2.2 0 .2.2H20 19.8 19.8v.2H20v-.5" fill="#1d81a4"/><path d="M19.5 20.2h.3l-.3-.2h.3s-.2 0-.3-.2c0 0 .2.2.3 0h-.2c.2 0 0 0 0 0h.2v.2h.2V20.3h-.5" fill="#1d81a4"/><path d="M19.5 20.5h.2l-.2-.2h.2s-.2 0-.2-.2c0 .2.2.3.2.3V20v.3l.2-.2c0 .2-.2.3-.2.3h.2s-.2 0-.2.2l.2-.2-.2.3s0-.2.2-.2c0 0 0 .2-.2.2h-.3M20.3 20.7v0s0 .2.2.2v-.4V20.5 20.5v.3l.3-.4-.2.2h.3-.3.2-.4.2c0 .2-.2 0-.2 0 0 .2.2.2.2.2h-.3H20.4s.2 0 .2.2h-.2H20.3v-.5M16.3 22.2V22 21.8s0 .2.2.2V22v0s0 .2.2.3V22v0s0 .2.2.2l-.3-.2h.3-.3s0-.2.2-.2h-.4H16.5 16.4s.2 0 .3-.2l-.4.2s.2 0 .3-.2h-.3.2s-.3 0-.3.2v.4" fill="#1d81a4"/><path d="M16 22v-.2V22.2h.2V21.8v0h0c0-.2.2 0 .2 0 0-.2-.2-.2-.2-.2H16h.4c0-.2-.2-.2-.3 0 0-.2.2-.2.3-.2H16v.4M15.3 21.8v-.2.3l.2-.4V21.5v0l.2.3v-.2 0H15.6h.2-.3.2-.3c0-.2.2 0 .2 0l-.4-.2H15.5h.3c0-.2-.3-.2-.3 0 0-.2 0-.2.2-.2h-.3v.4" fill="#1d81a4"/><path d="M15.2 21.5l-.2-.2s0 .2.2.2v-.2.2c.2 0 0-.2 0-.2s.2 0 .3.2l-.2-.2H15.4s0-.2.2-.2l-.3.2.2-.2-.2.2V21v0l-.2.2s.2 0 .3-.2l-.3.2s.2 0 .2-.2c0 0-.2 0-.2.2V21v.2s0 .3.2.3M16 21.8c-.2 0-.3-.2-.3-.3 0 0 0 .2.2.3l-.2-.3s0 .2.2.2v-.2 0s0 .2.2.2l-.2-.2s.2 0 .2.2l-.2-.2H16.2s.2 0 .3-.2H16h-.2H15.7h.2-.3v.2s0 .2.2.3M15.2 22.7v-.2.3s0-.2.2-.2V22.5v0s0 .2.2.2v-.3V22.6c0-.2 0-.2-.2-.2H15.3h.3c0-.2-.3-.2-.3 0 0-.2.2-.2.2-.2h-.3v.4" fill="#1d81a4"/><path d="M15 22.3V22v.4h.2s-.2 0-.2.2c0 0 0-.2.2-.2v0l.2.2s0-.2-.2-.2h0c0-.2.2 0 .2 0l-.2-.2h.2s-.2-.2-.2 0c0-.2 0 0 .2 0 0-.2-.2-.2-.3-.2v.3M14.7 21.7s0-.2.2-.2c0 0-.3 0-.3.2l.2-.2-.3.3.2-.2-.2.2.2-.2v0s0 .2.2.3v-.3H15h0c0-.2.2 0 .2 0 0-.2 0 0-.2-.2H15 14.8h.2c0-.2-.3-.2-.4-.2v.4M16.2 20.7l-.2.2s0-.2.2-.2H16h.3s-.2 0-.2.2c.2 0 .2 0 .3-.2v.2h.2-.3H16.3l.2.2h-.2-.2V21v.2s-.2-.2 0-.3c0 0 0-.3.2-.3M15.5 20.7v.3c.2 0 0-.2 0-.3l.2.2v-.3-.2.3l.2-.4c-.2 0-.2.2-.2.3 0 0 0-.3.2-.4v.3c-.2 0 0-.3 0-.3v.2H16 15.7h.2-.4s.2 0 .3.2h-.4H15.5v-.5" fill="#1d81a4"/><path d="M15.2 20.8V20.7v0s0 .2.2.3v-.3.2l.2-.3V20.6v.2s0-.2.2-.2l-.3.2H15.4l.2.2h-.3H15.2 15l.2-.4M15.2 21.6s-.2 0-.2.2H15.7c-.2 0-.3 0-.3.2h0s.2 0 .2.2l-.2-.2V22c-.2 0 0 0 0 0H15V22 22l-.2.2v-.3h.4M20.2 23H20h.2s-.2 0-.2-.2l.3.2s-.2 0-.2-.2l.4.2-.2-.3.3.2c0-.2-.3-.3-.3-.3H20.3l.3-.2h-.3v.2c-.2 0 0-.3 0-.3l-.2.3v-.3V22.5l-.2.3v-.3.4h.4" fill="#1d81a4"/><path d="M19.8 23.3l-.2-.3s0 .2.2.2V23v0l.2.2V23v0h0l.2-.2H20h-.2c-.2 0 0 0 0 0h-.2v.2s0 .2.2.3M19.2 23.5v-.2 0l.2.2v-.2 0h0l.2-.2-.2.2.2-.2-.2.2V23v0l-.2.2V23v0l-.2.2.2.3" fill="#1d81a4"/><path d="M19 23.4h-.4.3-.3.3s-.2 0-.3-.2H19l.3-.2H19h0v.2c-.2 0 0-.2-.2-.3V23c-.2 0 0 .3 0 .4h.3M19.6 23h-.3H19.7s-.2 0-.3-.2H19.5s.2 0 .2-.2c0 0-.2 0-.2.2 0 0 0-.2.2-.3l-.2.2v-.2V22.6c-.2 0-.2.2-.2.2v-.2V22.5v0c-.2 0 0 .3 0 .3l-.2-.2.2.3h.4M19.8 24.3l-.2-.3s0 .2.2.3V24v0l.3.2V24v0H19.8v-.2 0h-.2-.2 0v.2s0 .2.2.3" fill="#1d81a4"/><path d="M19.3 24.2V24 23.8v.2l.2-.2v0l.2.2V24h-.2 0s0-.2.2-.2h-.3H19.3h.2c0-.2-.3 0-.3 0v.4M18.7 24v-.4V23.5v0l.2.2-.2-.3s0 .2.2.2v-.3V23.6l.2.2c0-.2-.2-.3-.2-.3H19v-.2H19 18.7h.2-.3.2-.4l.2-.2-.3.2s0 .3.2.4M19 22v.5s0-.2.2-.3v.5l.2-.2V22.5H19.2s.2 0 .2.2h-.2H19.2 19 19.2s.2 0 .3.2c0 0-.3 0-.3-.2l.2.2-.3-.2V22M18.6 22.6l.2.2-.2-.2h.3l-.3-.3.2.2c-.2 0-.2-.2-.3-.2l.2.2-.2-.3v.3s0-.2.2-.3v.3c0 .2 0 0 0 0v.2h.2l-.3.2v-.2H19s-.2 0-.2-.2" fill="#1d81a4"/><path d="M18.4 23h.2s-.2 0-.2-.2l.2.2-.2-.2h.2v-.2V22.5v.3l.2-.3v.3c0 .2 0 0 0 0v.2s0 .2-.2 0h.3c0 .2-.4.2-.4.2l-.2-.3M19 23.5v.2l.2-.2v.2l.2-.2-.2.2h0s.2 0 .2.2l-.2-.2H19h0l.2.2-.2-.2v.2s0-.2-.2-.2l.2-.3" fill="#1d81a4"/><path d="M19 24c-.2 0-.3-.2-.3-.2s0 .2.2.3l-.2-.2s0 .2.2.3V24v0l.3.2-.2-.2s.3 0 .3.2l-.2-.3.5.2-.3-.3H19s.2 0 .3-.2l-.2.2.2-.2s-.2 0-.2.2v-.3.3c-.2 0 0-.2 0-.3l-.2.2.2-.2-.3.2v-.2.3s0 .3.2.4" fill="#1d81a4"/><path d="M18.4 24v-.3V24l.2-.2V24l.2.3c0-.2 0 0 .2 0l-.2-.2H18.7h.2-.3.2-.4s.2 0 .2-.2h-.2H18.5 18.4h0v.4M17.8 24v-.3V24c.2 0 0-.2.2-.2V24l.2.3V24v.3c0-.2 0 0 .2 0l-.2-.2H18 18.2s.2 0 .2-.2H18 18 18h0v.4M17.6 23.8l-.2-.2.2.2-.2-.2h.5-.4 0c0-.2.2-.2.2-.2h-.3v-.2 0l-.2.3v-.3.3c-.2 0 0-.2 0-.2l-.2.2v-.2.3l.3.2" fill="#1d81a4"/><path d="M18.3 23.8l-.2-.2s.3 0 .4.2l-.2-.2h.5s-.3 0-.3-.2h0v-.2 0s0 .2-.2.3v-.3V23.3l-.2.2v-.2.3l.3.2M18 25v-.4.3s0-.2.2-.3V24.8l.2.2v-.2c-.2 0 0 0 0 0 0-.2-.2 0-.2 0 0-.2.2-.2.2-.2h-.2H18h.2c0-.2-.2 0-.2 0s0-.2.2-.2c0 0-.3 0-.3.2v.3" fill="#1d81a4"/><path d="M17.5 24.6s0-.2.2-.2V25l.2-.4V24.5v0c0-.2 0 0 0 0 0-.2 0-.2-.2-.2h.3c0-.2-.3-.2-.3 0 0 0-.2 0-.2.2" fill="#1d81a4"/><path d="M17.2 24V24v.5s0-.2.2-.3v0l.2.3V24v0h-.2c0-.2.2 0 .3-.2h-.3H17.3h0l.2-.2h-.3v.5M18.3 22.7l-.2.2c.2 0 .2-.2.3-.3V22.6v.3l.2-.3v.3h0v.2s-.2 0-.2-.2v.3s0-.3-.2-.3l.3.3-.2-.3s0 .2.2.3L18 23l.3-.3" fill="#1d81a4"/><path d="M17.7 23V22.8h.2s-.2 0-.2-.2V22.7s0 .3.2.3v-.3.2s0-.2.2-.3l-.2.3h.2s-.2 0-.3.2H17.8 18h.3c0 .2-.2 0-.2 0V23" fill="#1d81a4"/><path d="M17.4 23v0s0 .2.2.2V23 22.8h.2v.2h-.2.3-.4l.2.2h-.3H17.4V23M17.7 24h-.2.3v.2H17.6 17.8v.2l-.2-.2v.2s0-.2-.2-.3v.2h.3M21.5 23h-.3.4s-.2 0-.2-.2l.3.2s-.2 0-.2-.2H21.5l.3-.3-.4.2v-.2V22.4v0l-.2.3v-.2 0l-.2.3v-.3.4h.3" fill="#1d81a4"/><path d="M21 23.3V23v0s0 .2.2.3V23v0s0 .2.2.2l-.2-.2.2.2s0-.2-.2-.2H21.3v-.2 0H21h.3s-.2 0-.3.2c0 0 0-.2.2-.3l-.2.2v-.3V22.6s0 .2-.2.3l.3.3M20.5 23.6v-.3 0s0 .2.2.2v-.2 0s.2 0 .2.2c-.2 0-.3-.2-.3-.2H20.8V23v.2h-.2V23v0l-.2.2.2-.2-.2.2V23v.6" fill="#1d81a4"/><path d="M20.2 23.5H20h.2s-.2 0-.2-.2H20.4l.4-.3H20h.3c-.2 0 0 0 0 .2-.2 0-.2-.3-.2-.3v.3c-.2 0 0 0-.2-.2v.5h.4" fill="#1d81a4"/><path d="M21 23h-.4.3-.3H20.6 20.8l.2-.2h-.2H21s0-.2.2-.2l-.2.2v-.2 0s-.2.2 0 .3l-.2-.3V22.6v0c-.2 0 0 .3 0 .3s-.2 0-.2-.2v.3s.4.2.5 0M21 24.3V24 24.2s0 .3.2.3V24 24.2s0 .2.2.3l-.2-.2.2.2s-.2 0-.2-.2l.3.2s-.2 0-.2-.2H21.2l.2-.2-.2.2v-.2 0l-.2.2.2-.2-.2.2v-.2 0s0 .2-.2.2l.3.3" fill="#1d81a4"/><path d="M20.6 24.2V24v.3c.2 0 0-.2.2-.3V24.2l.3.3V24v0H21h0l.2-.2h-.3.2-.4.3-.4H20.5v.4M20 24v-.4V23.5l.2.3v-.3 0s0 .2.2.2c0-.2-.2-.3-.2-.3l.3.2-.2-.3H20.2h0l.2-.2H20h0v.4M20.3 22.2v.2s0-.2.2-.2V22v.5l.2-.3v.4H20.5h.2-.4 0s.2 0 .2.2h-.3H20.4 20.3 20.2V22" fill="#1d81a4"/><path d="M20 22.7s0 .2 0 0h.2l-.2-.2h.2l-.2-.2.2.2v-.2.2l.2-.2s0 .2-.2.3c0 0 .2 0 .2-.2l-.2.2h.2l-.2.2s.2 0 .2-.2l-.2.2H20M19.7 23H19.6h.2s-.2 0-.3-.2h.2s-.2 0-.2-.2l.2.3v-.4V22.5v.3h.2s0 .2-.2.2h0c0 .2 0 0 .2 0l-.2.2H20l-.3-.3M20.3 23.5v.2l.2-.2v.2s.2 0 .2-.2l-.2.2H20.6l.2.2c0-.2-.2-.2-.3-.2h0s.2 0 .2.2c0 0-.2 0-.3-.2l.2.2s-.2 0-.3-.2l.2.2h-.2l-.2-.2.3-.3M16.7 24v-.5V23.4s0 .2.2.3v-.4V23.5l.3.3c0-.2-.3-.3-.3-.4h0l.2-.2H17 17 16.7h.2-.4s.2 0 .2-.2l-.3.3s0 .3.2.4" fill="#1d81a4"/><path d="M16.2 23.7v-.3.3l.2-.2V23.5l.2.3v-.4V23.5l.2.2-.2-.2H16.5c0-.2.2 0 .2 0 0-.2 0 0-.2-.2H16.4h.2c0-.2-.3 0-.3 0v.3" fill="#1d81a4"/><path d="M15.7 23.5v-.2.3s0-.2.2-.2c0 0-.2 0-.2.2v-.2.3l.2-.3V23.5h0c0-.2.2 0 .2-.2H16 16 16s.2 0 .3-.2c0 0-.2 0-.2.2h.2c0-.2-.2 0-.3 0v.3M15.5 23.2s-.2-.2 0-.2v0l.2.2V23v0H15.6h0s0-.2.2-.2h-.3-.2-.2s0 .4.2.4" fill="#1d81a4"/><path d="M16.2 23.5v-.3 0l.2.2v-.2 0h0l.2-.2h-.2-.2-.2v.2s0 .2.2.3M15.5 24.4v-.2.3s0-.3.2-.3V24.4l.3.2v-.2 0c0-.2 0 0 0 0 0-.2-.2-.2-.2-.2H15.7h.2c0-.2-.3-.2-.3 0 0-.2 0-.2.2-.2h-.4v.4" fill="#1d81a4"/><path d="M15.2 24l.2-.2v.7s0-.2.2-.2v.2c0 .2 0 .2.2.3 0 0 0-.2-.2-.2 0 0 0 .2.2.2 0 0-.2 0-.2-.2h.2l-.3-.2H15.4l-.2.2M15 23.4s0-.2.2-.2v.5s0-.3.2-.3v0H15.3c0-.2.2 0 .3 0 0 0-.2 0-.3-.2H15.2h.3c0-.2-.3-.2-.3 0 0 0-.2 0-.2.2M16.5 22.4s-.2 0-.2.2c0 0 0-.2.2-.2v.2H16.8h-.4l.2.3-.2-.2v.2l-.2-.3V22.6 22.6c-.2 0 0 0 0 .2l-.2-.3v-.2l.3-.2" fill="#1d81a4"/><path d="M15.8 22.4v0s0 .3.2.3v-.3V22.3v.3l.2-.3v.2h.2c0 .2-.3 0-.3 0l.3.2H16 16l.2.2s-.3 0-.3-.2c0 .2 0 0-.2 0v-.4" fill="#1d81a4"/><path d="M15.5 22.5V22.4v0s0 .2.2.3v-.3.2l.2-.2-.2.2s0-.2.2-.2l-.2.2H16.2c0 .2-.2 0-.2 0 0 .2.2.2.2.2h-.3.2-.4.3-.4.2c0 .2-.3 0-.3 0l.2.2s-.2 0-.3-.2v-.3M15.6 23.3s-.3 0-.3.2H15.8s-.2 0-.3.2H15.6V23.6 23.6v.2l-.2-.4V23.5 23.5c-.2 0 0 .2 0 .3-.2 0-.2-.3-.2-.3V23.4h.4M18.2 26V26 26s0 .3.2.3V26 26l.2.2V26h0c0-.2.2 0 .3 0l-.4-.2h.3-.4H18.5s.2 0 .2-.2h-.3H18.3h.3-.4.2c0-.2-.3 0-.3 0l.2.5" fill="#1d81a4"/><path d="M17.8 26v-.3.3s0-.3.2-.3V26.2h.3c-.2-.2 0 0 0 0v-.2h-.2H18.2c0-.2.2-.2.3-.2H18 18h-.2v.3M17.2 25.8v-.3.3l.2-.3V25.5v0l.2.2v-.3 0s0 .2.2.2c0-.2-.2-.3-.2-.3h.2s-.2-.2-.3 0c0-.2.2-.2.2-.2h-.2H17.4h.2c0-.2-.2 0-.2 0s0-.2.2-.2h-.3v.5" fill="#1d81a4"/><path d="M17 25.5v-.3 0s0 .2.2.3v-.3 0s0 .2.2.2l-.2-.2s.2 0 .2.2l-.2-.2H17.3V25H17h0s-.2 0-.2.2l.3.3M17.8 25.7l-.2-.3s0 .2.2.3v-.3.2c.2 0 0 0 0-.2l.3.2v-.2 0h0v-.2 0h-.2-.2 0v.2s0 .2.2.3M17 26.7s0-.3.2-.3V26.5c.2 0 0 .3 0 .4 0-.3.2-.4.2-.4V26.5 26.5l.2.2v-.2h-.2 0c0-.2 0-.2.2-.2h-.3H17.2h0l.2-.2H17v.5" fill="#1d81a4"/><path d="M16.8 26.3l.2-.2-.2.3.2-.2c0 .2 0 .3-.2.4l.2-.2v.2l.2.2v-.2H17h.4l-.3-.2H17.5s-.2 0-.2-.2H17.2l-.2.3M16.6 25.6v-.2.3l.2-.2-.2.2h.2v-.2 0s0 .2.2.3v-.3V25.6H16.8v-.2H17c0-.2.2 0 .3 0 0-.2-.2-.2-.2-.2H16.7v.3M18 24.6l-.2.2h.8s-.3 0-.3.2h.2c.2 0 .2 0 .3.2 0 0-.2 0-.2-.2l.2.2V25c-.2 0 0 .2 0 .2L18 25V25v.2l-.2-.3V24.8 25l.3-.2" fill="#1d81a4"/><path d="M17.4 24.7v-.2s0 .2.2.3v-.4V24.5v.3l.3-.3c-.2 0-.3.2-.3.3l.2-.2-.3.2H17.6h.2-.4c0 .2.2.2.2.2h-.2H17.5h0l.2.2h-.3v-.5" fill="#1d81a4"/><path d="M17 24.7v0s0 .2.2.2v-.3-.2.3s0-.3.2-.4V24.5v.3s0-.3.2-.3c0 0-.2 0-.2.2l.2-.2h-.2 0s0 .2.2.2h-.3H17.2 17s.3 0 .4.2H17h0v-.5M17 25.6H16.8h.2s-.2 0-.2.2h.3s.3 0 .4.2H17 17.2V26v.3l-.2-.2V25.7v0h.3M16 26c0-.2 0-.4.2-.4l-.2.4.2-.3s0 .2-.2.3l.3-.2-.2.3h.3V25.8v0l.2.3V26v0H16.3h.3l-.3-.2H16.3h.3l-.3-.2H16.2l-.2.3" fill="#1d81a4"/><path d="M15.8 25.5l.3-.2-.2.2H16c0 .2.2 0 .3 0 0 0 0 .2-.2.3l.3-.2v.2h.2v-.2V25.5 25.4l.2.2-.2-.2h.2s-.2 0-.3-.2c0 0 0 .2-.2.3" fill="#1d81a4"/><path d="M15.6 25l.2-.2-.2.2h.2l-.2.2h.2V25 25.2c0 .2 0 .3.2.3V25 25v0c.2 0 0 0 0 0h-.4M15.7 24.6v-.3V24.7s0-.2.2-.3l-.2.3v-.2c.2 0 0 .2 0 .3l.2-.3v0l.2.2v-.2H16h0c0-.2 0 0 .2 0 0-.2-.2 0-.3-.2H15.8 16h.3c0-.2-.2 0-.3 0v.3" fill="#1d81a4"/><path d="M16 25.3V25 25.4s0-.2.2-.2v.3l.2.3v-.3 0H16.3h0c0-.2 0-.2.2-.2h-.3H16l.4-.2H16v.5M14.8 25.4H15.2l-.2.2H15.2V25.5 25.5s0 .2.2.2v-.2V25.5v-.2l.2.2-.2-.3.2.2-.3-.2s-.2 0-.2.2" fill="#1d81a4"/><path d="M15 25H14.8 14.8 15h.3l-.2.2H15.2l-.2.2.3-.2v0s0 .2.2.2v-.2V25v0l.2.2V25h-.5M15.2 24.3h0s.2 0 .3.2h-.3.2s0 .2-.2.2h.2v-.2V24.5s.2 0 .2.2v-.2V24.5 24.4 24.3s0 .2.2.3c0 0 0-.3-.2-.3 0 0 .2 0 .2.2 0 0 0-.2-.2-.3h-.4M17 24.8h-.3 0s.2 0 .3.2h-.2 0s.2 0 .2.2c0 0-.2-.2-.2 0h-.2V25 25 25 24.7s0 .2-.2.2l.2-.3h.4" fill="#1d81a4"/><path d="M16.5 24.3l-.2.2.2-.2v.3l.2-.2-.2.2.3-.2-.2.2H16.5 16.5l.2.2h-.2l-.2-.2V24.5 24.5v.3l-.2-.4.3-.3" fill="#1d81a4"/><path d="M16.3 24l-.2.3.3-.2c0 .2-.2.3-.2.3H16.5l.2.3h-.2v-.2.3l-.2-.3v.2s0-.2-.2-.2V24.3v0l.3-.2M15.7 24.7h-.3 0l.2.2s0-.2-.2-.2c0 0 .2 0 .2.2h-.2 0V24.8 24.8h-.2s.2 0 0 0v-.2-.2 0h.5M19 27v-.3s0 .3.2.4v-.3.2l.2.3V27 27l.2.3V27v0H19.4h.3-.3l.2-.2h-.3H19.3h.3-.4H19c.2 0 .3 0 .4-.2 0 0-.3 0-.3.2l.3-.2-.3.2v.5" fill="#1d81a4"/><path d="M18.7 27v-.4.3c0-.2 0-.3.2-.3l-.2.2v-.3.3s0-.2.2-.2V27s0 .2.2.3V27v0H19h0c0-.2.2-.2.2-.2H19 18.8 19l.3-.2H19v.5M18 26.7c.2 0 .2-.3.2-.3V26.8s0-.2.2-.3V26.5 26.5s0 .2.2.3v-.4 0h-.2c0-.2.2 0 .2-.2h-.2H18.3h.2c0-.2-.3 0-.3 0v.3" fill="#1d81a4"/><path d="M18 26.4l-.2-.2.2.2v-.2.2c.2 0 0-.2 0-.3l.3.4-.2-.3c0 .2.3.3.3.3s-.2 0-.2-.2l.4.2h-.2 0s0-.2.2-.2H18 18l.2-.2-.2.3V26v.3s0 .4.2.4" fill="#1d81a4"/><path d="M18.7 26.6l-.2-.2s0 .2.2.2v-.2 0l.2.2-.2-.2.2.2-.2-.3.2.2s-.2 0-.2-.2h.3c-.2 0 0 0 0 0H19l.2-.2c0 .2-.2.3-.2.3V26 26.2s0 .2-.2.3l.2-.2-.3.3s0-.2.2-.2l-.2.3V26v.3s0 .3.2.3M18 27.6v-.3V27.4c.2 0 0 .2 0 .3l.2-.2v0l.2.3v-.3 0H18.3h.2c0-.2-.2 0-.3-.2H18h.4c0-.2-.3 0-.4 0v.3" fill="#1d81a4"/><path d="M17.7 27.2l.2-.2s-.2 0-.3.2h.2l-.2.2s0-.2.2-.2l-.2.3.2-.3V27.3h.2L18 27l.3.2H18c0-.2.2 0 .3 0L18 27H18s-.3 0-.3.2M17.5 26.6s0-.3.2-.3l-.2.3.2-.2V26.6s0 .2.2.3l-.2-.4s0 .2.2.2v-.2H18 18c0-.2.2 0 .2 0 0-.2 0-.2-.2-.2H17.7h.3s-.2-.2-.3 0c0-.2.2-.2.3 0 0-.2-.3-.2-.4-.2v.4M19 25.6s-.2 0-.2.2c0 0 0-.2.2-.2l-.2.2.3-.2v.2h0l.3.2H19h-.2V26 26.2l-.2-.2.4-.2M18.3 25.6V25.5v0s0 .2.2.2v-.3.2l.3-.2-.2.2h.3-.3.2-.4.3-.4c0 .2.2 0 .2.2h-.3H18.4 18.3v-.4" fill="#1d81a4"/><path d="M18 25.6V25.5 25.5v.2l.2-.2V25.5v.3s0-.2.2-.2v.4h-.2H18h0l.2.2-.3-.2v-.4M18 26.5h-.2.3v.2h.3-.3 0l.3.2s-.2-.2-.3 0h0V27 27c-.2 0 0 .2 0 .2-.2 0 0-.2-.2-.2V26.7v.2c-.2 0 0-.3 0-.4h.2M14.8 33.6c0-.2-.2-.3-.2-.3l.2.3-.3-.2.3.3-.3-.2.2.3s0-.2-.2-.2l.2.3-.2-.4v0s0 .3-.2.3v-.3V33.6v-.2l.2-.2h-.3.4s.2 0 .2.3" fill="#1d81a4"/><path d="M15 33h-.4.3-.3c0 .2.2 0 .2.2h-.3H14.6s.2 0 .2.2h-.3.2-.3V33.2v0s-.2 0-.2.2v-.2-.2 0c-.2 0 0 0 0 0h.4M15 32.5H15 15s.2 0 .3.2H15 15l.2.2c0-.2 0-.3-.2-.3l.2.3s0-.2-.2-.2v0h-.2l.2-.2-.2.2v-.2-.2 0h.5" fill="#1d81a4"/><path d="M15 32.2l-.2-.2v.6s0-.2-.2-.2v0s0 .2-.2.2l.2-.2h-.2 0s.2 0 .2-.2h-.2H14.5s.2-.2.3 0c0-.2-.2-.2-.3-.2h.3v.4" fill="#1d81a4"/><path d="M14.7 33v-.3.3s0-.3-.2-.3V33l-.2.2V33H14 14.2l.4-.2h-.2 0c0-.2.3-.2.3-.2h-.2.3v.3M16 33l-.4-.2h.3-.3c0 .2.2 0 .2.2h-.3H15.6s.2 0 .2.2h-.3.2-.3V33s0 .2-.2.3V33 33 33v.2c-.2 0 0-.2 0-.3 0 0 .4 0 .4.2" fill="#1d81a4"/><path d="M15.7 32.4h-.2 0c0 .2.2 0 .3 0l-.2.2h.3-.4l.3.2h-.4H15.5s.2 0 .2.2l-.2-.2V32.7 32.6l-.2.2v-.4V32.5v.2c-.2 0 0-.2 0-.3h.3" fill="#1d81a4"/><path d="M15.3 32H15 15.4c.2 0 .4 0 .4.2h-.2 0s.2 0 .2.2l-.2-.2v.2c-.2 0 0-.2 0-.2-.2 0-.2.2-.2.2V32v.2c-.2 0 0-.3 0-.3h-.2l.2-.2h.3M13.7 32.6H13.6h.2s-.2 0-.3.2H13.6h.2s-.2 0-.3.2l.2-.2-.2.3V33c.2 0 0 .3 0 .3l.2-.2V33h.2l-.2-.2.2.2-.2-.3.2.2v-.2H14h-.3M14 32c.2 0 .3.2.3.2H14 14 14s.2 0 .2.2h-.3.3v.2s0-.2.2-.2V32.3v.3l.2-.3V32.2s-.2 0-.3-.2" fill="#1d81a4"/><path d="M14.3 31.8s.2 0 .2.2l-.3-.2.2.2h-.2H14h.3s-.3 0-.3.2h.3l-.2.2c.2 0 .3-.2.3-.2V32v.4l.2-.2v.3c.2 0 0-.3 0-.4 0 0 0-.2-.2-.2M15 32.3h.2l-.2.2h.2v0s.2 0 .2.2v-.2c0-.2 0 0 0 0v-.2-.2.2H15" fill="#1d81a4"/><path d="M14.7 32.3h.3s-.3 0-.3.2h.3s-.3 0-.3.2l.3-.2-.3.3c.2 0 .2-.2.3-.2l-.2.3.2-.4V32.5v0s.2 0 .2.2l-.2-.3.3.2-.2-.3.3.2-.2-.3s.2 0 .3.2l-.2-.3.3.2s0-.2-.2-.2h-.3M14.7 32H14.6h.2s-.3 0-.4.2h.3-.4.3s-.3 0-.3.2c0 0 0-.2.2-.2l-.2.2v-.2 0s.2 0 .2.2V32v0l.2.2V32 32h-.5M14.8 31.3H14.7h0c0 .2.2.2.2.2h-.4.2l-.3.3.2-.2-.2.2v-.2.2s.2 0 .2-.2V31.5 31.4s0 .2.2.2v-.3V31.2h-.4M15 31s0-.2.2-.2l-.2.3h.2v.3l.2.4V31v.3c0-.2 0 0 0 0V31v-.2h-.2s-.2 0-.2.2" fill="#1d81a4"/><path d="M15 31.8s0-.2.2-.2c0 0-.2 0-.2.2l.2-.2-.2.3c0-.2.2-.3.2-.3l-.2.2.2-.2V32.2c0-.2.2 0 .2 0v-.2-.2h-.2.3s-.3-.2-.3 0c0 0-.2 0-.2.2M13.8 31.4H14s.2 0 .2.2h-.3.3l-.2.2h.2v-.2 0c.2 0 .2 0 .2.2v-.3V31.4v0l.2.2s0-.2-.2-.3h-.4" fill="#1d81a4"/><path d="M14.2 31H14c.2 0 .3 0 .3.2 0 0 0-.2-.2-.2l.3.2H14 14 13.8h.2s-.3 0-.3.2c.2 0 0 0 0 0h.2V31.2v.2s0-.2.2-.3v.2c.2 0 0-.2 0-.3h-.2M14.7 30.6h0s.2 0 .2.2h-.4H14.5h.3l-.3.2h.3V31 30.8c.2 0 0 0 .2-.2v.3c.2 0 0-.3 0-.3h-.3M16 31.8s0-.2-.2-.2c0 0 .2 0 .2.2h-.2 0l.2.2s0-.2-.2-.2c0 0 0 .2.2.3h-.2V31.8 31.8h-.2v-.2-.2h.2s.2 0 .3.2" fill="#1d81a4"/><path d="M15.8 31c0 .2-.2.2-.2.3h.3-.4H16c0 .2-.2.2-.2.2H16s.2 0 .2.2l-.2-.2V31.4c-.2 0 0 .2 0 .3-.2 0-.2-.2-.2-.3V31.3v0l-.2.3v-.4h.4" fill="#1d81a4"/><path d="M15.7 30.8h-.2.3l-.3.2H16h-.4l.3.2h-.4 0v0c-.2 0 0 .2-.2.2V31v0s0 .2-.2.2V31 30.8l.4-.2M15 31h-.3s.2 0 .2.2c-.2 0-.3-.2-.3-.2l.2.2h-.3V31v.2l-.2.2v-.2h-.2 0s.2 0 .3-.2h-.2 0l.3-.2h-.3.3l.2.3M21.4 28.6v-.4c.2 0 0 .3 0 .4l.2-.3V28.4c.2 0 0 .3 0 .4l.2-.3v0l.3.2v-.2H22h.3l-.2-.2H21.7 21.6c0-.2.2 0 .4-.2h-.4.3-.5v.6" fill="#1d81a4"/><path d="M21 28.2c.2 0 .3-.2.3-.2v.5s0-.2.2-.2v0l.2.2s0-.2-.2-.2h.2s-.2 0-.2-.2c0 0 0 .2.2.2h-.2c0-.2 0 0 .2 0l-.3-.2h0s-.2 0-.3.2" fill="#1d81a4"/><path d="M20.7 27.7h.2l-.2.2s0-.2.2-.2V28.2c0-.2 0 0 .2 0v-.2l-.2-.2h.3l-.3-.2-.3.3M20.7 27.4V27v.4s0-.2.2-.2v0s0 .2.2.3l-.2-.3.3.2-.3-.2H21V27H21 20.7v.4M21.2 28v-.3.3s0-.2.2-.3V27.8l.2.2v-.2 0H21.4h.2c0-.2-.2 0-.2 0 0-.2.2-.2.2-.2h-.3H21.3 21.2l.2-.2s-.2 0-.2.2v.3M20 28.5l.4-.2s-.2 0-.2.2l.2-.2-.2.3s0-.2.2-.2l-.2.2h.2V28.4s0 .2.2.2v-.2-.2c0-.2 0 0 0 0s0-.2-.2-.2h0l-.3.3" fill="#1d81a4"/><path d="M20 28h.3c0 .2.3 0 .3 0l-.2.3c.2 0 .3-.2.3-.2 0 .2 0 .3-.2.3h.3V28v0s.2 0 .2.2v-.2-.2V28h.2l-.3-.2s-.2 0-.3.2M20.2 27.3h.3l-.3.2h.3s-.2 0-.2.2l.2-.2v0h.2v-.2-.2.3s0-.2-.2-.2l-.3.3M22 27.2h-.3H22l-.2.2h.5-.3v.2h-.2v-.2 0l-.2.2v-.3V27.2h.4M21.4 27V26.8h.5-.4c0 .2.3 0 .3 0l-.4.2h0v.2l-.2-.2.2.2-.3-.2.2.2s-.2 0-.2-.2V27" fill="#1d81a4"/><path d="M21 26.7v.3s0-.2.2-.2c0 0-.2.2 0 .2v-.2.2s0-.2.2-.2l-.2.2H21.3l.2.2h-.2-.2H21.2V27v-.3M20.7 27.5h-.3H20.8s-.2 0-.3.2h0l.3.2c0-.2-.2-.2-.3-.2 0 0 .2 0 .3.2l-.2-.2V28l-.2.2v-.2V27.7v-.2 0l-.2.2v-.3.2s0-.2.2-.3h.3" fill="#1d81a4"/><path d="M20.8 27.5h-.4.4s-.2 0-.3.2h.3-.4l.3.2-.4-.2.3.3h-.4c0-.2 0 0 .2.2l-.2-.3V27.8 28c-.2 0-.2.3-.2.3v-.3-.2s0 .2-.2.3v-.5V27.4h.6" fill="#1d81a4"/><path d="M20.5 27l-.2.2H20.7s-.2 0-.3.2H20.8h-.3 0l.2.2h-.2v-.2 0c-.2 0 0 .2 0 .2-.2 0-.2-.2-.2-.2V27.3v.2c-.2 0-.2-.2 0-.3h.2" fill="#1d81a4"/><path d="M20.2 26.6H20h.3s-.3 0-.3.2l.3-.2-.2.2h.2s.3 0 .3.2h-.3 0V26.8c-.2 0 0 0 0 0-.2 0-.2 0-.2-.2V27.2c-.2 0-.2-.3 0-.3h.2M20 26.5c-.2 0-.3-.2-.4 0h.3-.4.3-.3H19.6l.2.3c-.2 0-.3-.2-.3-.2s0 .2.2.2h-.3V26.6 26.6s-.2 0-.2.2v-.4-.2V26.3l-.2.2.3-.2s.2 0 .3.2" fill="#1d81a4"/><path d="M20.3 27H20s.2 0 .3.2H20h0s.2 0 .3.2H20h0s.2 0 .2.2l-.2-.2V27.3l-.2.2.2-.2h-.2v-.2 0h.5M21 26.2s-.2 0-.2.2h.6s-.2 0-.2.2h.2s.2 0 .2.2v-.2c-.2 0 0 0 0 .2-.2 0-.2-.2-.2-.2V26.5v0c-.2 0 0 .2 0 .3-.2 0-.2-.3-.2-.3V26.4v0l.3-.2" fill="#1d81a4"/><path d="M20.6 26V26.4l.2-.2V26.5H21l.2.2h-.2-.2-.2v-.2s0-.2.2-.3M20 26s-.2 0-.2.2c0 0 0-.2.2-.2 0 0-.2.2 0 .2V26v.2h.2l.3.2H20 20v-.2 0s0-.2.2-.3M19.3 27.6v-.2.2s0-.2.2-.2V27.6s0 .2.2.3v-.4 0h.2-.3.2-.4.3-.4c0-.2.2 0 .2 0 0-.2-.2-.2-.2-.2H19.5h.3s-.3-.2-.3 0c0 0 0-.2.2-.2h-.3v.4" fill="#1d81a4"/><path d="M19.2 27H19h.4c0 .2-.2.2-.3.2h.5l-.2.2.2-.2V27l.2.3V27 27c.2 0 0 0 0 0h-.4" fill="#1d81a4"/><path d="M19 26.6H19.7c0 .2 0 .2-.3.2h.5l-.2.2h.2V26.8 27l.2.2v-.2-.2 0H19M20 26.5v-.3V26.3c.2 0 0 .2 0 .3l.2-.3V26.4l.3.3v-.3c-.2 0 0 .2 0 .2v-.2h-.2 0c0-.2 0 0 .2-.2h-.3H20h.3c0-.2-.2 0-.3 0v.3" fill="#1d81a4"/><path d="M19.8 26.7v-.3.4l.2-.3V26.5v0l.2.4v-.3 0l.2.2s-.2-.3 0-.3h-.2 0c0-.2.3 0 .3 0 0-.2-.3-.2-.4-.2H20.2c0-.2.2-.2.3-.2H20 20l-.2.4" fill="#1d81a4"/><path d="M19.5 26.4l.2-.2-.2.2s.2-.2.2 0V26.5c.2 0 .2.2.2.2v-.2-.2H20 20c0-.2.2 0 .3 0L20 26s.2 0 .2.2h-.3s-.2 0-.2.2" fill="#1d81a4"/><path d="M19 26l.3-.3s0 .2-.2.3c.2 0 .3-.2.3-.2v.2c.2 0 .2.3.2.3V26v0H19.4h.3s-.2 0-.3-.2h.2l-.3-.2-.2.3" fill="#1d81a4"/><path d="M19 25.6v-.3.3s0-.2.2-.3V25.4s0 .2.2.3v-.3 0s0 .2.2.2c0 0-.2 0-.2-.2H19.3s0-.2.2-.2h-.3H19h.3c0-.2-.2 0-.3 0v.4" fill="#1d81a4"/><path d="M19.6 26V26v.5s0-.2.2-.3V25.8 25.8s0 .2.2.2V26v0H19.8v-.2H20 19.7h.2-.3l.2-.2h-.4.2s-.2 0-.3.2v.3M18.5 26.6s.2-.2.2 0h-.2.3l-.2.2h.2V26.6 26.8h.2v-.2H19h.3l-.2-.2H19l-.3.2" fill="#1d81a4"/><path d="M18.5 26h.2s-.2 0-.2.2h.2l-.2.2h.2v0l.2.2-.2-.3v0h.2l-.2-.2s0 .2.2.3c0 0 0-.2-.2-.3 0 0 .2 0 .2.2 0 0 0-.2-.2-.2h-.3M18.6 25.5H18.5h.3-.4.2l-.2.2H18.5h.3c-.2 0-.3 0-.3.2 0-.2 0-.3.2-.3l-.2.3v-.3 0s.2 0 .2.2v-.3-.2 0h.2l-.3-.2H18.8s-.4 0-.4.2M20.4 25.4H20h.5s-.2 0-.3.2H20.3l.2.2H20v-.2V25.5 25.4v0h.4" fill="#1d81a4"/><path d="M19.8 25V25.6l.2-.2V25.6h0s0 .2.2.2H20h-.2H19.7h.2-.3V25" fill="#1d81a4"/><path d="M19.5 25s-.2 0 0 .2V25 24.8v.2l.2-.2v.2H19.6 19.6l.2.2h-.3-.2c-.2 0 0 0 0 0h-.2v-.2s0-.2.2-.3M19 25.7H19h.3c0 .2 0 0 .2.2H19 18.8 18.8v0s-.2 0-.2.2V26 26 26 25.7s0 .2-.2.3v-.3-.2h.5M17.6 32.2V32v.3s0-.3.2-.3V32.4l.2.3v-.3 0l.2.2-.2-.2h.3c0-.2-.3-.2-.4-.2H17.8h.2-.4c0-.2.2 0 .3-.2H18h0v.4M17.3 32c0-.2.2-.3.2-.3l-.2.2.2-.2-.2.2.3-.2-.2.2h.2s-.2 0-.2.2l.2-.3v0h.2s0-.2-.2-.2h.3-.4.3-.4c0-.2.2 0 .2 0l-.2-.2H17.5l-.2.3" fill="#1d81a4"/><path d="M17 31.4v-.2.3h.2s-.2 0-.2.2l.2-.2V31.6h.3l-.3-.2h.3l-.3-.2H17v.2" fill="#1d81a4"/><path d="M17 31V31v.3l.2.2V31 30.8l.2.2-.2-.3h0s0-.2.2-.2H17h0l.2-.2H17 17v.5M17.4 31.6v-.2 0l.2.3v-.3V31.5s0 .2.2.2v-.2 0c0-.2 0 0 0 0v-.2h-.2H17.5 17.4s.2 0 .3-.2l-.3.2H17.3v.4M16.3 32h.2l-.2.2.2-.2v.3c.2 0 .2.2.2.2v-.2h.2-.3.2c-.2 0-.3-.2-.3-.2s0 .2.2.2c-.2 0-.3 0-.4-.2h.3-.4.3-.4.2s-.2-.2-.3 0h-.2" fill="#1d81a4"/><path d="M16.3 31.6h.2s-.2 0-.2.2h.2s-.2 0-.3.2l.3-.2-.2.2h.2V31.8h.2s-.2 0 0-.2v-.2 0h-.4" fill="#1d81a4"/><path d="M16.4 31h.2l-.2.2h.3s-.2 0-.2.2c0 0 0-.2.2-.2 0 0-.2.2 0 .3v-.3 0h.2-.3.2-.3.2s-.2 0-.3-.2H16.6h.2l-.3-.2s.2 0 .2.2l-.3-.2s-.3 0-.3.2M18.2 31H18 17.8h0l.3.2H18 18.2l.2.2-.2-.2V31v.3c-.2 0 0-.2 0-.2l-.2.3V31 31 30.8s.3-.2.4 0" fill="#1d81a4"/><path d="M17.6 30.6s-.2.2 0 .2v-.2 0c.2 0 0 0 0 .2l.3-.2c-.2 0-.3.2-.3.2s.2 0 .2-.2l-.2.2H18s0 .2.2.2h-.3.2-.3-.2H17.4h0s0-.4.2-.4" fill="#1d81a4"/><path d="M17.3 30.4l-.2.3c.2 0 .2-.2.3-.3v.3l.2-.2v.2h0l.2.2c0-.2-.2-.2-.3-.2h0v.2s0-.2-.2-.2l.2.2-.3-.2s.2 0 .3.2l-.2-.2s.2 0 .2.2l-.2-.3.3-.3M17 31.2h-.4.3-.4.3s-.3 0-.3.2H16.6h0l.3.2h-.3H16.6V31.4v0s0 .2-.2.2v-.3V31.3 31.2v.2c-.2 0 0-.2 0-.3l.4.2M19.2 32v-.3V31.8l.2.2v-.2V32s0 .2.2.2l-.2-.2h0l.2-.2h-.2H19.3 19.2 19s.3 0 .3-.2l-.2.2s.2 0 .2-.2l-.2.3s0 .3.2.3" fill="#1d81a4"/><path d="M18.8 32v-.3V31.6 31.6v.3s0-.2.2-.2v0s0 .2.2.2v-.2H19h0c0-.2 0 0 .2-.2H19 19h.2c0-.2-.2 0-.2 0v.3M18.3 31.8v-.3V32s0-.3.2-.3V31.6 31.6s0 .2.2.2v-.3c-.2 0 0 0 0 0h-.2 0c0-.2 0-.2.2-.2h-.3H18.3h.2c0-.2-.2 0-.2 0v.3" fill="#1d81a4"/><path d="M18 31.6v-.3 0s0 .2.2.2v-.2 0h0l.2-.2c0 .2-.2.2-.2.2H18h-.2l.3.4M18.7 31.7v-.2 0h.3c-.2 0 0 0 0-.2h-.2-.2v.4M18.2 32.6v-.2.3s0-.2.2-.2v0l.2.2v-.2 0h-.2.2c0-.2 0 0-.2 0 0-.2 0-.2.2-.2h-.3H18.2v.3" fill="#1d81a4"/><path d="M18 32.3V32v.5h.2V32.2v0h.2s-.2 0-.2-.2c0 0 0 .2.2.2H18c.2-.2.3 0 .4 0 0-.2-.2-.2-.3-.2H18.2v.3M17.7 31.7v-.2.3l.2-.2s-.2 0-.2.3v-.3V31.6v.2s0-.3.2-.3V31.6H18v-.2H18h0v.2M19 30.7c-.2 0-.3.2-.3.2s0-.2.2-.3l-.2.2s0-.2.2-.2v.2h0v.2l-.2-.2v.2l-.2-.2V31l.3-.3" fill="#1d81a4"/><path d="M18.3 30.8V31l.2.2v-.3V30.6 30.6v.2s0-.3.2-.3V30.6v.2h-.2H18.4c0 .2.2 0 .3.2h-.3H18.3v-.4" fill="#1d81a4"/><path d="M18 31V31 31s0 .2.2.2v-.2.2l.2-.2v.2h-.2s.2 0 .2.2h-.2H18 18.2V31M18 31.6v.2h.2s.4 0 .4.2h-.2-.2V32v.3s-.2 0 0-.2c-.2 0-.2.2-.2.2v-.2l.3-.2M17 31.2h-.4.4s-.2 0-.3.2h.2l.3.2H17s.2 0 .2.2l-.2-.2v0l-.2.2v-.3V31.4 31.3s0 .2-.2.3v-.3V31.2 31s.5 0 .6.2" fill="#1d81a4"/><path d="M16.7 30.8h-.3.3s-.2 0-.2.2H17h-.4.3-.3s.2 0 .3.2h-.3H16.6V31v.4l-.2-.3v.3c-.2 0-.2-.3-.2-.3V31l.4-.2M16.4 30.3H16h.4s-.2 0-.2.2l.3-.2s-.2 0-.2.2H16.4s.2 0 .3.2h-.3 0v-.2.2l-.2-.2V30.5v.2s-.2-.2 0-.2c-.2 0-.2 0-.2.2v-.3h.4" fill="#1d81a4"/><path d="M16 30H16s.2 0 .3.2H16 16l.3.2H16h0l.2.2s0-.2-.2-.2v0l-.2.2.2-.3-.2.2v-.2-.2 0h.5M16.4 30.8h-.2 0l.2.2h-.2 0l.2.2-.2-.2V31s-.2 0-.2.2V31 31 30.7 30.6h.4M17.2 30H17 17.4l-.2.2.4-.2s-.2 0-.2.2H17.3l.2.2h-.3 0v-.2.3s0-.2-.2-.3V30 30.2h.2M16.8 29.7l-.2.3s0-.2.2-.3v.3l.2-.2v.2h0v.2h-.2-.2 0V30s0-.2.2-.3M16 29.6v.3s0-.3.2-.3l-.2.2c0-.2 0-.3.2-.3V29.6v.2s0-.2.2-.2h-.2.2s-.2 0-.2.2h0l.2.2-.2-.2v.2s0-.2-.2-.2V30 29.8v.2l-.2-.3.3-.4M15.5 31.3V31v.5s0-.2.2-.2V31.3s0 .2.2.3l-.2-.3s0 .2.2.2l-.2-.2h.2s-.2 0-.2-.2c0 0 0 .2.2.2h-.3.3c0-.2-.3-.2-.3-.2h-.2H15.5v.3" fill="#1d81a4"/><path d="M15.4 30.6H15.3s.2 0 .3.2h-.3.2l-.2.2h.2V30.8h.2V31 30.7v0l.2.2c0-.2-.2-.3-.3-.4l.2.2-.3-.2h-.3" fill="#1d81a4"/><path d="M15.3 30.3h.2s0 .2-.2.2h.2s0 .2-.2.2h.2v-.2 0s.2 0 .2.2v-.3-.2l.2.2c-.2 0-.3-.2-.3-.2H15.6h-.4M16.2 30.2V30v.3s0-.2.2-.3V30.3l.2.4V30 30.2l.2.2h-.3.2c0-.2-.2 0-.2-.2H16.4h.2c0-.2-.3 0-.3 0 0-.2.2-.2.3-.2h-.3H16.2v.4" fill="#1d81a4"/><path d="M15.7 30v-.3.4s0-.2.2-.2l-.2.3h.2V29.8 29.8v0l.2.3V30v0H16 16.2c.2-.2.4 0 .4 0 0-.2-.3-.2-.4-.2h.3c0-.2-.4 0-.4-.2H15.8h-.2v.4" fill="#1d81a4"/><path d="M15.4 29.7l.2-.2-.2.2.2-.2v.3l.2.2v-.2h.2l-.3-.2h.3s-.3 0-.3-.2h-.2l-.2.3" fill="#1d81a4"/><path d="M15 29.2l.2-.2s0 .2-.2.3l.2-.2c0 .2 0 .2-.2.3H15.4s-.2 0-.2.2c.2 0 .3-.2.3-.2v0s.2 0 .2.2v-.2h-.2c0-.2.2 0 .3 0 0 0-.2 0-.3-.2 0 0 .2 0 .3.2l-.3-.2H15.2s-.2 0-.2.2M15 29v-.4V28.5v0l.2.2v-.3 0l.3.2-.2-.3h0s.2 0 .2-.2h-.3H15h.2c0-.2-.2 0-.3 0v.4" fill="#1d81a4"/><path d="M15.5 29.4V29v.2c.2 0 0 0 .2.3v-.3 0s0 .2.2.3c-.2 0-.2-.2-.2-.3 0 0 0 .2.2.3l-.2-.3.3.2-.2-.2H15.7l.2-.2h-.4H15.5 15.4v.4M14.4 30c0-.2.2-.3.2-.3s0 .2-.2.3l.3-.2s-.2 0-.2.2h.2l-.2.2.2-.2V30l.2.2s-.2 0-.2-.2h.2s-.2 0-.3-.2h.2l-.4-.2-.2.3" fill="#1d81a4"/><path d="M14.4 29.4h.2l-.2.2H14.3h.3l-.2.2h.4v-.2V29.5v-.2 0h-.4M14.5 28.8s.2-.2.2 0h-.2.2l-.2.2h.3v0h.2l-.2-.2s.2 0 .2.2c0 0 0-.2-.2-.2h.3s0-.2-.2-.2H15s-.3 0-.3.2M16.3 28.6H16h.3s-.2 0-.3.2H16.3l.4.2h-.2 0v0c-.2 0 0 .2-.2.2V29 29 29l-.2.2v-.3-.2h.5M15.7 28.3v.3l.2-.2s-.2 0-.2.2c0 0 0-.2.2-.2l-.2.2.2-.2v.2H15.8v.2H16h-.2H15.5h0s0-.4.2-.5" fill="#1d81a4"/><path d="M15.4 28.2s-.2.2 0 .3v-.3.3l.2-.2v.2h0l.2.2s-.2 0-.3-.2c0 0 0 .2.2.2l-.2-.2v.2h-.2 0v-.2.3s0-.2-.2-.3l.4-.3M15 29h-.3H14.8l.3.2H15 15s.2 0 .3.2H15h0v-.2 0s-.2 0-.2.2V29v.2c-.2 0 0-.3 0-.3h.4M15 31h-.3s.2 0 .3.2l-.3-.2s.2 0 .2.2h-.3-.2s.2 0 .2.3c0-.2 0-.3-.2-.3 0 0 0 .3.2.3l-.2-.3V31.3s-.2 0-.2.2v-.3.2l.2-.2h-.3.3c0-.2-.2 0-.3 0 0 0 .2 0 .3-.2h-.3.3c0-.2-.2 0-.3 0l.3-.2h-.3.4l.3.3M15 30.7H15 15.3c0 .2 0 0-.2 0l.3.3-.2-.2.2.2h-.2 0V30.8h-.2v-.2-.2 0h.5M15.2 30H15h0c0 .2.2 0 .2.2H15h0s.2 0 .2.2H15h0V30.2v0l-.2.2v-.2-.2 0h.4M15 29.8v-.3.3s0-.3-.2-.3V29.8l-.2.2v-.2H14.4l.3-.2h-.2.3c0-.2-.3 0-.4 0 0-.2.3-.2.3-.2h-.3.3v.4" fill="#1d81a4"/><path d="M15 30.5c-.2 0-.2-.3-.2-.3V30.6l-.2-.2V30.5l-.2.2v-.2s0-.2.2-.2h-.2 0c0-.2.3-.2.3-.2h-.2.3v.5M16 30.5H16 16.3c0 .2 0 0-.2 0l.3.3H16 16V30.6 30.6 30.6h-.2 0v-.2V30.4v0h.5" fill="#1d81a4"/><path d="M16 30h-.4.3-.3.3s-.2 0-.3.2h.2l.2.3-.2-.2v.2c-.2 0 0-.2 0-.3-.2 0-.2.2-.2.3v-.3V30 30.2l-.2.3V30h.5M15.5 29.5h-.3H15.6c0 .2-.2 0-.3.2h0l.3.3-.3-.2V29.7 29.6l-.2.2.2-.4V29.5s0 .2-.2.3v-.3V29.4h.5M13.8 30.2H14.4s0 .2-.2.3l.3-.2V30.4l.2.2v-.2V30.3v0h.2l-.2-.2s0 .2.2.3c0 0 0-.2-.2-.2 0 0 .2 0 .2.2l-.2-.2s-.3 0-.4.2" fill="#1d81a4"/><path d="M14.3 29.6l.2.2s-.2 0-.3-.2l.2.2h-.2-.2H14 13.8l.2.2H14h.2v.2s0-.2.2-.3V29.8 29.8s.2 0 .2-.2l-.3-.2" fill="#1d81a4"/><path d="M14.4 29.4h0s.2 0 .2.2l-.3-.2.2.2h-.2H14.2 14c.2.2.4 0 .4 0l-.2.3.2-.3V29.6v.2l.2-.3v-.2V29.5v.3l.2-.4V29.5h-.4M15 30c.2-.2.3-.3.4-.2H15h.4s-.2 0-.2.2h.2s-.2 0-.2.2l.2-.2s0 .2-.2.2h.4V30v-.2 0h-.2-.3M13.5 31.3c0-.2 0-.3-.2-.4v.5s0-.2-.2-.2l.2.3v-.3 0l-.2.4v-.4s0 .3-.2.3l.2-.3h-.2H12.7 13c0-.2 0 0-.2-.2H13c0-.2-.2 0-.3 0 0-.2.2-.2.2-.2H13h.3l.2.5" fill="#1d81a4"/><path d="M13.7 31c0-.2-.2-.3-.2-.3s.2 0 .2.2l-.2-.2.2.2h-.2v0l-.2.3V31v-.2-.2h.2l.2.3M14 30.4v-.2.3s0-.2-.2-.2c0 0 .2 0 .3.2H14h0s.2 0 .2.2l-.2-.2v0l-.2.2v-.2l.2-.2h-.3H13.6l.3-.2v.4" fill="#1d81a4"/><path d="M14 30V30 30.2c-.2 0 0 0-.2.2V30 29.8l-.2.2s0-.2.2-.3h-.3.3l-.3-.2H14h-.3H13.6h.3s-.2 0-.2-.2h.3v.5" fill="#1d81a4"/><path d="M13.6 30.6v-.2.3s0-.2-.2-.3V30.5l-.3.2.3-.2H13 13.6s-.2 0-.2-.2h.6s-.2 0-.2-.2l.3.3v.3M14.7 31h-.2 0l.2.2h-.2H14.4s.2 0 .2.2c0 0 0-.2-.2-.2 0 0 0 .2.2.2l-.2-.2v0l-.2.2s0-.2.2-.2h-.2.2c0-.2-.2 0-.2 0l.2-.2h-.2 0l.2-.2h-.2.3l.2.3" fill="#1d81a4"/><path d="M14.7 30.6h-.2 0l.3.2h-.3 0l.2.3h-.2c0-.2 0 0 0 0V31v0l-.2.2v-.3-.2V30.5 30.4s.4 0 .4.2M14.6 30l-.3-.2s.2 0 .3.2h-.3 0l.3.2h-.3 0V30c0 .2 0 .2-.2.3l.3-.2-.2.2s.2 0 .2-.2V30H14h.2c0-.2 0 0-.2 0l.2-.2H14h.6M12.8 30h0s.2 0 .2.2h-.3H12.6h.2s-.3 0-.3.2h.2c0-.2-.2 0-.2 0h.2v-.2V30s0 .2.2.3V30 30h-.4M13.4 29.6V29.5v.2l-.2-.2v.2H13 13c.2 0 0 0 0 0v.2h.5V29.8v-.4" fill="#1d81a4"/><path d="M13.6 29.4l.2.3s0-.2-.2-.3V29.5c-.2 0 0 0 0 .2l-.3-.2.2.2h-.2H13.2h.3s0 .2-.2.2c0 0 0-.2.2-.2v.2s0-.2.2-.2v.2s.2-.2 0-.2v.2l.2-.3-.4-.3M14 30.2h.4l-.3.2h.3s-.2 0-.3.2l.3-.2-.2.3.3-.2V30.4s0 .2.2.2v-.3V30.2 30 30.2s-.4 0-.4.2M27.4 27.5L27 27l-1.2-.6-.3-.3-1-.3 1 .4.3.4 1 .5.6.5zM27.8 26.4l1.6.6 1.3 1c0 .4.4 1 .4 1s-.7-1.3-1.7-2c-1-.4-1.7-.4-1.7-.4l.2-.2zM28 29l-1 1.4-1 1h-1s1.3-.4 2-1c.6-1 .7-1.6.7-1.6l.2.2zM28 24s1.4.4 2 .8c.8.3 1 .7 1.4 1l1 1.5-1.4-1.5c-.2-.3-.6-.6-1-.8-.4 0-2-.7-2-.7V24z" fill="#1d81a4"/><path d="M27.6 27l-.7.4v.2c-.2 0-1 .6-1 .6l1-.6v-.2l.6-.4zM27.7 22.8c.2.3 1 .4 1 .4.5 0 1-.2 1.4-.3.6-.2 1.4-.7 2-.3-.3-.4-1.3 0-1.7 0-.6.2-2 .7-2.5 0" fill="#1d81a4"/><path d="M29.4 23s.2 0 .3-.2c.3-.4.6-1.2 1.3-1.2-.5-.2-1 .6-1.3 1l-.3.4zM28 33s0-10 .2-16v-6.3V9l.3-.3s.3-.3 0-.3h-.4v-.5h-.6c-.2 0 0 .3-.2.4V9l.2 1c0 .4.2 1 0 1.2l.3 14v5.6c0 1 .4 2 .4 2zM29.2 27.4H29h.3l-.3.2h.3l.4.2H29h.2v.3c-.2 0 0-.2 0-.2-.2 0-.2.2-.2.2v-.3-.2c-.2 0 0 .2-.2.3v-.4V27.5h.4" fill="#1d81a4"/><path d="M29 27.2h-.2.2s-.2 0-.2.2l.2-.2v.2h0s.2 0 .2.2H29c-.2 0 0 0 0 0l-.2-.2V27.3M28.6 26.8h-.2.2v.2h.3-.3H28.6l.2.2h-.3-.2V27v.2s-.2-.2 0-.2v.2c-.2 0-.2-.2-.2-.3l.3-.2" fill="#1d81a4"/><path d="M28.3 26.7H28 28.5l-.2.2H28.5v0l-.2.2V27v-.2 0c-.2 0 0 0 0 0h.3M28.7 27.2h-.2 0l.3.2h-.3H28.6v.2h-.2v-.2-.2.2c-.2 0 0-.2 0-.3l.3.2M29.3 26.4H29h.3s-.2 0 0 0v.2h0s0 .2.2.2h-.2v-.2.2l-.2-.2s.2 0 .2.2v-.2c-.2 0 0 0 0 .2l-.2-.2V26.5h.3" fill="#1d81a4"/><path d="M29 26.3c-.2 0-.3.2-.2.2v-.2.2l.2-.2v.2l.2-.2-.2.2H29l.2.2-.2-.2v.2c-.2 0 0 0 0 0h-.2v-.2-.2M28.3 26.3v0c.2 0 0 .2 0 .2H28.5s0 .2.2.2h-.2-.2v-.2-.2M28 27.8v-.2.3c0-.2 0-.3.2-.3V27.6v0s0 .2.2.3v-.2c0-.2 0-.2-.2-.2H28 28.2l.3-.2H28v.4" fill="#1d81a4"/><path d="M27.8 27.3h.2l-.2.2h.2v0h.2v-.2V27.2v0h-.4" fill="#1d81a4"/><path d="M27.7 27H27.6 27.6h.2s-.2 0-.3.2H27.6h.2l-.2.2s0-.2.2-.2v0h.2L28 27h.2s-.2 0-.2-.2l-.3.2M28.4 26.8v-.3.3s0-.2.2-.2V26.5 26.5l.2.2v-.2h-.2H28.5s.2 0 .2-.2h-.2H28.4h0v.4M30.7 28l-.3.2H30.8s-.2 0-.2.2h.3-.4.3-.4s.3 0 .3.2h-.4 0v-.2c-.2 0 0 .2-.2.2v-.3V28.2s0 .2-.2.3v-.3h.5" fill="#1d81a4"/><path d="M30.4 27.8l-.2.2h.5c0 .2-.2 0-.2 0 0 .2.2.2.2.2h-.2c-.2 0 0 0 0 0h-.2s-.2 0 0-.2v-.2" fill="#1d81a4"/><path d="M30 27.5v.2s0-.2.2-.2c0 0-.2 0-.2.2l.2-.2v.2h0l.2.2-.2-.2v.2l-.2-.2h-.2v-.2h.3" fill="#1d81a4"/><path d="M29.8 27.4h-.2 0l.2.2h-.2.3-.4 0l.2.2h-.2v-.2 0h-.2v-.2 0h.4M30.2 28H30h0s.2 0 .3.2H30h0V28 28.2s0 .2-.2.2V28 28v-.2h.4M30.8 27l-.2.2h.3l.2.2h-.2-.2v-.2s0-.2.2-.2M30.3 27V26.8 26.8v.2l.2-.2v.2h0v.2l-.2-.2.2.2s-.2-.2-.2 0v-.2-.3M29.8 27l-.2.2s0-.2.2-.2v.2s.2 0 .2-.2v.4h-.2-.2 0v-.2s0-.2.2-.2" fill="#1d81a4"/><path d="M29.5 28.5v-.2.2h.2l.2.2-.2-.3s0 .2.2.2l-.2-.2h0V28h-.2H29.5v.3" fill="#1d81a4"/><path d="M29.3 28h.2s-.2 0-.2.2h.2s-.2 0-.2.2l.2-.2v0h.2V28 28v-.2h-.4" fill="#1d81a4"/><path d="M29.2 27.7h.2l-.2.2.2-.2-.2.2.2-.2v.2h.2v-.2s0 .2 0 0v-.2 0H29M30 27.4v-.2V27.3l.2.2v-.2 0H30 30.2s.2 0 .3-.2l-.3.2h0l.2-.2H30v.4M29 28.8h-.4.3c-.2 0-.3 0-.3.2H29l.3.2H29 29l.2.2-.2-.2V29c-.2 0 0 .3-.2.3V29 29l-.2.2V29l.5-.2" fill="#1d81a4"/><path d="M28.6 28.6h-.2.3v.2h.2-.3H28.6s.2 0 .2.2h-.3l-.2-.2v.2l-.2-.3h.3M28.3 28.2H28h.3v.2H28.4l.2.2h-.2-.2v-.2.2l-.2-.2V28.3h.3" fill="#1d81a4"/><path d="M28 28h-.2l.2.2h-.2 0s.2 0 .3.2H28h0v0h-.2v-.2V28 28.2h.4M28.4 28.6h-.2 0l.2.2h-.2 0l.2.2h-.2c0-.2 0 0 0 0v-.2 0H28v-.2 0h.4M29 27.7l-.2.2s0-.2.2-.2h-.2.2v.2h0v.2l-.2-.2V28v-.3" fill="#1d81a4"/><path d="M28.5 27.6V27.5v.2c0-.2 0-.2.2-.3V27.6 27.6v.2l.2-.2h-.3 0l.2.2h-.3.2-.3-.2 0v-.4" fill="#1d81a4"/><path d="M28 27.7l-.2.2s0-.2.2-.3V27.6 27.6v.2s0-.2.2-.2v.2H28v.2s0-.2-.2-.2V28s0-.3.2-.3M27.7 29.2V29v.3s0-.2.2-.2l-.2.3V29 29.2l.2.4V29 29.2s0 .3.2.3L28 29s0 .2.2.2H28h0V29H28h.2c0-.2-.2 0-.2 0s0-.2.2-.2h-.3v.4" fill="#1d81a4"/><path d="M27.5 28.7h.2l-.2.2.2-.2s-.2 0-.2.2h.2v-.2s0 .2.2.2c-.2 0-.2-.2-.2-.2v-.2 0h-.3" fill="#1d81a4"/><path d="M27.4 28.4h.2l-.2.2h.2v0h.2v-.2-.2s-.4 0-.4.2M28 28.2V28v.2l.2-.3v0l.2.2V28v0H28.3h0l.2-.2h-.3H28 28.2v.4M31.7 29.5h-.3.3s-.2 0-.2.2H31.6l.2.3-.2-.2V30c-.2 0 0 .2-.2.2v-.2V29.7v-.2s0 .2-.2.3v-.4V29.5h.5" fill="#1d81a4"/><path d="M31.4 29.2s-.2 0-.2.2c0 0 0-.2.2-.2l-.2.2h.2l.2.2h-.2-.2v-.2 0s0-.2.2-.2M31 28.8s-.2 0-.2.2c0 0 .2 0 .3-.2v.2H31.2l.3.2H31 31V29v0l.2-.2M30.7 28.8h-.2H30.6s0 .2.2.2h-.2 0v.2c-.2 0 0-.2 0-.2h-.2c0-.2 0 0 0 0v-.2V28.7 28.6h.3M31 29.3H30.8h0s0 .2.2.2H31h0v.2c-.2 0 0-.2 0-.2h-.2v-.2 0h.3M31.7 28.4s-.2 0-.2.2c0 0 0-.2.2-.2v.2h.2-.3H31.6 31.8l.2.2h-.2-.2v-.2.2s-.2 0-.2-.2v0l.3-.2" fill="#1d81a4"/><path d="M31.3 28.3v.2s.2 0 .2-.2v.2h0v.2h-.2-.2l.3-.4M30.7 28.3v.3l.2-.2s-.2 0-.2.2c0 0 0-.2.2-.2l-.2.2h.3c-.2 0 0 0 0 0h-.2v0c-.2 0 0 0 0 .2l-.2-.2v-.3M30.4 29.8v-.2 0c.2 0 0 0 0 .2l.2-.3V29.6 29.8l.2.2v-.2-.2h-.2H30.5h.2c0-.2-.2 0-.2 0v.2" fill="#1d81a4"/><path d="M30.2 29.3h.2l-.2.2h.2v0l.2.2v-.2-.2 0H30" fill="#1d81a4"/><path d="M30 29h.5l-.2.2h.4s-.2 0-.2.2c0 0 0-.2.2-.2v0h.2l-.2-.2.2.2-.2-.2H30M30.8 28.8v-.2.2l.2-.2V28.5 28.5s.2 0 .2.2v-.3-.2H31 31c0-.2-.2 0-.2 0v.3M28.3 34H28h0l.2.2H28h0s0 .2.2.2l-.2-.2v0s-.2 0-.2.2v-.2-.2V34v-.2l.5.2" fill="#1d81a4"/><path d="M28.2 33.6H28h.2l-.2.2H28.2l.3.3H28h.2c-.2 0 0 0 0 0H28v-.2 0h-.2v-.2h.4M28.2 33H28l.2.2H28h0s.2 0 .3.2H28h0v-.2s0 .2-.2.2v-.2V33 33.2h.4" fill="#1d81a4"/><path d="M28 33c0-.2-.2-.3-.2-.3s0 .2.2.2l-.2-.2v.2l-.2.2V33c0-.2 0 0 0 0v-.2s0-.2.2-.2l.2.3M28 33.5h-.2 0v0s0 .2-.2.2v-.2-.2h.4M29 33.2h-.3.3c0 .2 0 0-.2.2H29l.2.2h-.2v-.2.2c-.2 0 0-.2 0-.3 0 0-.2 0-.2.2v-.2V33.2v0h.4" fill="#1d81a4"/><path d="M28.7 33h-.2H29h-.3.2-.3l.2.2h-.3H28.6V33c-.2.2 0 .3 0 .3-.2 0-.2 0-.2-.2v.3c-.2 0 0-.2 0-.2h.2M28.2 32.5H28h.2l-.2.2H28.5l.2.2h-.2c0-.2 0 0 0 0v-.2.2l-.2-.2V32.7 32.6v.2c-.2-.2 0-.4 0-.4h.2M27 33.6l.3-.2s-.2 0-.2.2H27.6l-.2.2c.2 0 .3 0 .3-.2V33.5 33.6h.2c0-.2 0 0 0 0l-.2-.2h.2l-.2-.2-.2.3" fill="#1d81a4"/><path d="M27.2 33h0s.2 0 .2.2h-.2H27 27.6s-.2 0-.3.2H27.4v-.2c.2 0 .2.2.2.2v-.2V33h-.3" fill="#1d81a4"/><path d="M27.3 32.8H27.2s.2 0 .2.2h-.2.2s-.2 0-.2.2h.2c0-.2 0 0 0 0V33v0c.2 0 0 0 .2.2V33 33v.2c.2 0 0-.2 0-.2h-.3M28 33l.2-.2v.3l.2.3V33v0c0-.2 0 0 0 0v-.2h-.2s-.2 0-.2.2M30.2 25.3H30 29.8h.2s-.2 0-.2.2H30.2l.4.3-.3-.2.3.3c0-.2-.2-.3-.2-.3v-.2V25.5 25.5c-.2 0-.2 0-.2.2v-.3V25.3h.4" fill="#1d81a4"/><path d="M30 25c-.2 0-.3 0-.3.2 0 0 0-.2.2-.2l-.2.2H30v.2h-.2v-.2c-.2 0 0 .2 0 .3l-.2-.3v0l.3-.2M29.5 24.6v.2H29.6l.2.2h-.2c-.2 0 0 0 0 0h-.2V25v-.2" fill="#1d81a4"/><path d="M29.3 24.6H29 29.2l.3.2H29 29.2s.2 0 .3.2l-.2-.2.2.2v-.2s0 .2-.2.2v-.2 0c0-.2 0 0 0 0v-.2l-.2.2v-.3 0h.5M29.7 25h-.3 0s.2 0 .3.2h-.2 0l.2.2h-.2-.2v-.2V25 25.2h.4M30.2 24.2s-.2 0-.2.2c0 0 0-.2.2-.2v.2H30.3s.2 0 .2.2h-.2-.2.2l-.2-.2v0s0-.2.2-.2M29.8 24V24.7s.2 0 .2-.2v.3h0v.2c-.2 0 0 0 0 0h-.2-.2s0-.4.2-.4M29.2 24v.3h.2v.2h-.2-.2l.2-.4" fill="#1d81a4"/><path d="M29 25.7v-.3.3l.2-.2V25.6h0c0-.2 0 0 .2-.2H29h.3c0-.2-.2 0-.2 0v.3M28.7 25h.3c0 .2-.2 0-.3.2H28.6h.2s-.2 0-.3.2H28.6h0c.2 0 0 0 0 .2l.2-.3V25s0 .2.2.3V25v.2s0-.2-.2-.2h-.3" fill="#1d81a4"/><path d="M28.6 25c0-.2.2-.3.3-.2h-.3.2-.3.2c-.2 0-.2 0-.3.2H28.6h.2c-.2 0-.3 0-.3.2l.2-.2-.2.3V25v0l.2.2V25v-.2 0h-.4M29.3 24.6v-.2 0c.2 0 0 .2 0 .2.2 0 .2 0 .2-.2V24.5l.2.2v-.2-.2h-.2H29.4h.2c0-.2-.3 0-.3 0v.3M26.4 28.2V28v.2s0-.2-.2-.2v.2H26V28h.2s.2 0 .2.2M26.5 28h-.2v0c0-.2 0 0 0 0v-.2s.2 0 .2.2M26.7 27.7v0h-.2c0-.2 0 0 0 0v-.2h.2M26.7 27.5h-.2v-.2h.2v.2" fill="#1d81a4"/><path d="M26.5 27.8h-.2-.2H26.5v-.2h.2v.2M27 28v.2h-.2c0-.2 0 0 0 0V28h.3M27 27.8v.2h-.2v-.2h.3M27 27.5v.2c-.2 0 0 0 0 0h-.2v-.2-.2s.2 0 .2.2M26 27.4h0v.2c.2 0 0 0 0 0h.2v-.2H26M26.3 27.2v.2H26h.4v-.2" fill="#1d81a4"/><path d="M26.5 27.2h-.2c0 .2 0 0 0 0v.2h.2V27M26.7 27.6H26.6h.2-.3v.2h.2v-.2h-.3M31.4 26H31h.5s-.2 0-.2.2h0l.3.2h-.2V26.2v.2c-.2 0 0-.2 0-.2-.2 0-.2.2-.2.2v-.3V26c-.2 0 0 .3-.2.4V26v0h.4M31 25.7h.2s-.2 0-.2.2c0-.2.2-.3.2-.3v0h.2s-.2 0-.2.2h0v0c-.2 0 0 0 0 0H31V26" fill="#1d81a4"/><path d="M30.8 25.3h-.2.2v.2h.3v.2h-.2v-.2.3l-.2-.3V25.4h.2M30.5 25.2h-.2.2l-.2.2h0s.2 0 .3.2h-.2-.2v-.2-.2.2c-.2 0 0-.2 0-.2h.3" fill="#1d81a4"/><path d="M31 25.7h-.3H30.6h0l.3.2h-.3H30.8v0h-.2v-.2V25.7 25.6v.2c-.2-.2 0-.3 0-.4h.3M31.5 25h-.2.2s-.2 0 0 0h.3s-.2 0-.3.2h-.2V25h.2" fill="#1d81a4"/><path d="M31 24.8v.2l.2-.2v.2l.2-.2-.2.2H31.3v.2H31h.2c-.2 0 0 0 0 0H31V25v-.2M30.5 24.8v0c.2 0 0 .2 0 .2h.4-.4.3-.4s0 .2.2.2h-.2-.2V25v-.2M30.2 26.3V26v.5s0-.2.2-.2v0s0 .2.2.3v-.2c0-.2 0-.2-.2-.2H30.3 30.2v.3M30 25.8h.2l-.2.2h.2v0h.2v-.2V25.7 25.6H30" fill="#1d81a4"/><path d="M30 25.5v.2h.2l-.2.2s0-.3.2-.3V25.6 25.6h.2l-.2-.2h.2s-.2 0-.2-.2l-.3.2M30.6 25.3V25 25.4s0-.2.2-.2V25.4l.2.3V25v.2c0-.2 0 0 0 0V25h-.2H30.7h.2-.3.2-.4s.2 0 .2-.2h-.2v.5M32.4 26.7H32h.4s-.2 0-.2.2l.3-.2h-.3.3s-.2 0-.2.2h0s.3 0 .3.2h-.3 0V27c-.2 0 0 .2-.2.2V27 26.8 27 27h.4" fill="#1d81a4"/><path d="M32 26.5h.2v.2h0s.2 0 .2.2c0-.2-.2-.2-.2-.2H32c-.2 0-.2 0-.2-.2h.3M31.8 26l-.2.2h.2s.2 0 .3.2c-.2 0 0 0 0 0H32h0v0h-.2v-.2h.2M31.5 26h-.2 0l.2.2h-.2 0l.2.2h-.2v-.2 0H31h.2V26v0l-.2.2s0-.2.2-.3h.3" fill="#1d81a4"/><path d="M32 26.5h-.3.2-.3H31.6l.2.2h-.3.2-.3l.2.2-.3-.2V26.7 26.6v-.2s0 .2-.2.2v-.2V26.5v0h.4M32.4 25.6v.2H32.5l.2.2h-.2-.2V26v-.2M32 25.5v.3l.2-.2v.2h0v.2l-.2-.2.2.2H32v-.2-.3M31.5 25.6l-.2.2s0-.2.2-.2v.2l.2-.2v.4h-.2s.2 0 0 0h-.2V26s0-.2.2-.2" fill="#1d81a4"/><path d="M31.2 27v.2s0-.2.2-.2v0s0 .2.2.3V27v0h-.2 0c0-.2 0-.2.2-.2h-.3H31.2v.3M31 26.5h.2s0 .2-.2.2h.2s-.2 0-.2.2c0-.2.2-.2.2-.2s-.2 0-.2.2l.2-.2v0h.2v-.2V26.5v0H31" fill="#1d81a4"/><path d="M31 26.3v.4l.2-.2v-.2h.2l-.2-.2-.3.3M31.6 26v-.2V26.2h.4v-.2h-.2H31.7h.2-.3l.2-.2h-.4 0v.4M30 24c-.3 0-.4 0-.4.2h.3-.4 0c0 .2.3 0 .3 0l-.2.2h0s.2 0 .2.2l-.2-.2s0 .2.2.3l-.2-.2V24.4v.2c-.2 0-.2-.2-.2-.2V24.3 24.2v.3c-.2 0-.2-.3 0-.3-.2 0-.2.2-.2.2V24h.5" fill="#1d81a4"/><path d="M29.6 23.8s-.2 0-.2.2c0 0 0-.2.2-.2v.2H29.5l.2.2h-.2-.2V24v0s0-.2.2-.2M29.2 23.4v.2H29.3l.2.2h-.2c-.2 0 0 0 0 0H29h0v-.2 0l.2-.2M29 23.4h-.3H28.8l.2.2h-.2 0l.2.2-.2-.2v0h-.2c0-.2 0 0 0 0v-.2V23.3v0h.4" fill="#1d81a4"/><path d="M29.4 24c0-.2-.2-.2-.3-.2h.5c0 .2-.2 0-.2.2h0l.2.2h-.2-.2V24 24v-.2 0h.4M30 23c-.2 0-.3 0-.3.2 0 0 0-.2.2-.2l-.2.2s0-.2.2-.2v.2h0s.2 0 .2.2H30h-.2v-.2.2s-.2 0 0-.2v.2c-.2 0-.2-.2-.2-.2l.3-.2" fill="#1d81a4"/><path d="M29.5 23c.2 0 0 0 0 0H30s-.3 0-.3.2h.2-.3-.2v.2l-.2-.2s0-.3.2-.3" fill="#1d81a4"/><path d="M29 23h-.2.2s-.2 0 0 .2V23v.2s0-.2.2-.2l-.2.2H29.2l.2.2-.2-.2v.2l-.2-.2V23M28.6 24.4v-.2.3s0-.2.2-.2V24.4l.2.2v-.2-.2H29 28.7h.2c0-.2-.3 0-.3 0v.2" fill="#1d81a4"/><path d="M28.4 24s.2-.2.3 0h-.3.2l-.2.2h.2V24 24.2s0 .2.2.3V24 24v-.2 0h-.4" fill="#1d81a4"/><path d="M28.3 23.7s.2-.2.3 0h-.2.2s-.2 0-.2.2l.2-.2s-.2 0-.2.2l.2-.2V24h.2l-.2-.2.2.2v-.2h-.2-.3M29 23.4v-.2 0c.2 0 0 .2 0 .2.2 0 .2 0 .2-.2V23.3l.2.2v-.2-.2s0 .2-.2.2h0l.2-.2H29 29.2v.4M30 22.5v.2l.2-.2V22.4v.2h.2c-.2 0 0 0 0 0h-.2.2c0 .2-.2 0-.2 0l.2.2h-.2-.2H30v-.3M29.7 22.6v0s0 .2.2.2c0 0-.2 0-.2-.2h.2v.2h-.2 0v-.2M29.4 22.8v0h.2v-.2.2h0v.2h-.2v-.2" fill="#1d81a4"/><path d="M29.3 23v.2l.2-.2v.2h-.2v.2s-.2 0-.2-.2l.3-.2M29.7 22.8v0c.2 0 0 0 0 .2 0 0 .2 0 .2-.2l-.2.2h0v.2h-.2V23v-.2M29.2 22.2v0h.2c0 .2 0 0 .2 0 0 .2-.2 0-.2.2 0 0-.2 0-.2-.2" fill="#1d81a4"/><path d="M29 22.5h.2v-.2 0h.2v.2s0 .2-.2.2h0l-.2-.2M29 23v-.2h.2v.2s0 .2 0 0h-.3M30 23.5h-.2.2v-.2h0V23v.2c-.2 0 0 0 0 0h-.2v.2h.2M29.5 23.5v-.2.2h.2v-.2h-.2 0v.2" fill="#1d81a4"/><path d="M29.3 23.5v-.2.2h.2l.2-.2h-.2-.2 0c0-.2 0 0 0 0v.2M29.3 23H29h.3v-.2h0v-.2c-.2 0 0 0-.2.2v-.2.2h.3M32 23h-.2.2s.2 0 .2.2H32h0-.2V23 23h.2M31.7 22.7V22.6 22.6v.2s0-.2.2-.3c0 0-.2 0-.2.2v-.2h0v.2h-.2v-.3" fill="#1d81a4"/><path d="M31.4 22.5v.2l.2-.2v.2h-.2v-.2M31.2 22.5V22.5H31v-.2h.2M31.6 22.8h-.2.2v.2h-.2v-.2 0h.2M31.8 22v.2h.2v.2h-.2v-.2" fill="#1d81a4"/><path d="M31.5 22v.3h.4-.3v.2h-.2 0V22M31 22.2v.2l.2-.2v.2l.2-.2v.2h-.2v.2s-.2 0-.2-.2v-.2M31.2 23.3h.2V23v.2h-.2l.2-.2h-.2v.3M31 23v.2c.2 0 0 0 0 0h.2V23v-.2s-.2 0-.2.2" fill="#1d81a4"/><path d="M31 22.8v.2h.2v-.2H31h.2l-.2-.2v.2M31.3 22.5v-.2.2h.2v-.2h-.2 0v.2M26.7 23.3V23v0s0 .2-.2.3V23 23l-.2.3V23 23.2h-.2.5l-.2-.2H26.8v.5" fill="#1d81a4"/><path d="M27 23v.2s0-.2-.2-.2V23l-.2.2V23h.3s-.3 0-.3-.2H26.6 26.6h.3v.3M27.5 23v-.3.3l-.2-.2v.3H27h0s.2 0 .2-.2H27h.3c.2-.2.4 0 .4 0 0-.2 0-.2-.2-.2h.3v.3M27.7 22.7v-.2 0l-.2.2v-.2h-.2.2v-.2h.4l-.3.4" fill="#1d81a4"/><path d="M27 23c0-.2.2-.3.2-.3l-.2.2v-.3V22.6 22.6h-.2 0v-.2h.4v.4M27.7 23.7v-.2.3s0-.2-.2-.2V23.5v0s0 .2-.2.2v-.3s0-.2.2-.2h-.2.3s-.2 0-.2-.2h.2v.4" fill="#1d81a4"/><path d="M28 23.4l-.2-.2v.2s0-.2 0 0v0c-.2 0-.2.2-.2.3v-.3-.2s.3 0 .3.2M28 22.8v-.2.4s0-.2-.2-.2v.3c0-.2 0 0 0 0v-.2l-.2.2.2-.2h-.2.3c-.2-.2-.3 0-.4 0 0-.2.3-.2.3-.2h-.3H27.6h.3v.2M26.8 22h0v.2h-.2H26.5h.2v.2h.2v-.2V22H27M27.4 22v0l-.2.2V22H27v.2h.3l-.2.2h.5V22" fill="#1d81a4"/><path d="M27.7 22v0s0 .2-.2.2V22 22v.2s0-.2-.2-.2v.2h.2l-.2.2H27.7V22M27.6 22.8h0v.2h-.2.2v.2s.2 0 .2-.2V23v.2s.2-.3 0-.3h.2V23h-.4M26.4 24.7v-.3V24.5l-.2.2v-.2 0l-.2.2v-.2 0H26h.3v-.2h.5V24v.7" fill="#1d81a4"/><path d="M26.8 24.5v-.2.3s0-.2-.2-.2V24.5l-.2.2v-.2-.2H26.4c0-.2.2 0 .2 0v.2M27.2 24.4v-.2.2H27V24.2l-.2.2v-.2h.3V24h.2v.4" fill="#1d81a4"/><path d="M27.4 24c-.2 0 0 0 0 0H27h.3v-.2h.4s0 .3-.2.3M26.8 24.3V24 24.3s0 .2-.2.3V24v.3h-.2.2s-.2 0-.2-.2h.4v-.2l.2.2s0 .3-.2.3M27.4 25.2V25v.2s0-.2-.2-.2V25.3l-.2.3V25v.3c0-.2 0 0 0 0V25h0c0-.2.2-.2.3 0 0-.2-.2-.2-.2-.2h.3v.4" fill="#1d81a4"/><path d="M27.6 24.8v-.2.3c0-.2 0-.3-.2-.3 0 0 .2 0 .2.2 0 0 0-.2-.2-.2l.2.2s0-.2-.2-.2v.3H27v-.2h0l.2-.2h-.2.2s.2 0 .2.2M27.8 24.3V24v.3s0-.2-.2-.2c0 .2 0 .3.2.4 0 0 0-.2-.2-.2V24.3l-.2.2v-.2l.2-.2h-.2.3v.3M26.5 23.4s.2 0 .2.2l-.2-.2.2.2h-.2-.2H26.2h.3l-.2.2h.4v-.2V23.5s0-.2-.2-.2" fill="#1d81a4"/><path d="M27 23.5V23.4 23.3v.3l-.2-.3v.3s0-.2-.2-.2l.2.2h-.2.3-.3H26.6h.3l-.2.2h.3v-.3" fill="#1d81a4"/><path d="M27.4 23.5V23.4v.3l-.2-.3v.2s-.2 0-.2-.2v.2h.2l-.2.2H27.4c0 .2.2 0 .2 0v-.3M27.3 24.2h0l.2.2h-.2-.2.4s-.2 0-.3.2h.5v-.2.2s.2-.2 0-.2c.2 0 .2 0 .2.2v-.3h-.4M25.3 25.7l.2-.2h-.2s.2 0 0 0h-.2 0s.3 0 .3-.2H25 25h.2V25 25.3l.2.3V25 25.2c0 .2 0 .4.2.4V25 25.7s-.2 0-.3.2" fill="#1d81a4"/><path d="M25.7 25.8v-.3V25.6l-.2.2v-.3 0l-.2.2s.2 0 .2-.2h-.2.2v-.2l.2.2v-.2 0s.2 0 .2.2l-.3.3" fill="#1d81a4"/><path d="M26.2 26v-.3V25.6l-.2.2v-.3V25.6 25.6h-.2H25.7h.3v-.2 0l.2.2-.2-.2h.2v.5M26.4 26c0-.2.3-.2.3-.2h-.3H26.3s.2 0 .2-.2h-.2.2l-.2-.2h.2v0c.2 0 0 .2.2.3v-.3V25.8h-.3" fill="#1d81a4"/><path d="M26 25.6H26h0s.2 0 .2-.2h-.2V25h.2v.3c.2 0 0-.2.2-.3V25.6H26M25.8 26.6v-.2 0l-.2.2v-.2 0h-.2.2v-.2 0h0l.2.2s0 .2-.2.2M26.2 26.5v-.2.3c-.2 0-.2-.2-.2-.2v0l-.2.2v-.2h.2l-.2-.2h.5v.3M26.7 26.2V26v0l-.2.3V26 26.2l-.2.2c0-.2 0 0 0 0V26h.2v-.2h.3v.4" fill="#1d81a4"/><path d="M26.2 24.8V24.7v.3l-.2-.3v0h-.2.2c0 .2-.2 0-.2 0l.2.2h-.2.4l-.2.2h.2v-.4M26.7 25c0 .2-.2.3-.2.3V25 25v.2s-.2 0-.2-.2V25.4h.2s0-.2.2-.3" fill="#1d81a4"/><path d="M27 25.3c-.2 0-.3.2-.3.2v-.2V25.2v0l-.2-.2v.6h.2l.2-.2M26.4 26H26 26 26h.2c0 .2-.2.2-.2.2h.4V26M27 26.7v-.3V26.5c-.2 0 0 .2-.2.3v-.3V26.6l-.2.2v-.2s0 .2-.2.2l.2-.2h-.2 0c0-.2.3 0 .3 0 0-.2-.2-.2-.2-.2H27s-.3 0-.4-.2h.3v.5" fill="#1d81a4"/><path d="M27.3 26.5v-.2.2H27h0v0s0 .2-.2.2l.2-.2h-.2.2c0-.2 0 0-.2 0 0-.2.2 0 .3-.2H27h.5v.2" fill="#1d81a4"/><path d="M27.7 26.3V26 26.5h-.2V26 26.3h-.2s0-.2.2-.2h-.2.3v.3M27.8 26v-.2 0l-.2.2v-.2 0h-.2.2v-.2h.4s0 .4-.2.4" fill="#1d81a4"/><path d="M27.3 26.3V26 26.3s0 .2-.2.3l.2-.2s0 .2-.2.3V26v.2H27l.3-.2h.2v-.2 0s.2 0 .2.2v-.2.5M28 27v-.2.2h-.2v0l-.2.2V27c0-.2 0 0 .2-.2h-.2.3v.2M28.2 26.6H28h0v.2h-.2v-.2-.2h.2l.2.2M28.3 26H28 28.2s.2 0 .2.2V26v.2H28h0V26c0 .2 0 .2-.2.3l.2-.2-.2.2h0s0-.2.2-.2h-.2 0l.2-.2h-.2.3l.3.3M27 25.4v.2H27 26.7 26.6h.2-.3.2l-.4.2h.2-.2c.2 0 0 0 0 0h.2v-.2.3c0-.2.2-.3 0-.4.2 0 .2.2.2.2v-.2l-.3-.2M27.4 25.4V25.3v.2s-.2 0-.2-.2v.2l-.2-.2.2.2H27h.2l-.2.2h.6c0 .2 0 0 0 0v-.3" fill="#1d81a4"/><path d="M27.7 25.3v.2l-.2-.2v.2h-.2H27.2h.3l-.2.2h.5v-.4M27.8 26s.2 0 .2.2h-.2H27.7 27.6h-.2.3l-.4.2H27.5h.3s-.3 0-.3.2l.2-.2s-.2 0-.2.2v-.2 0c.2 0 0 0 .2.2v-.3V26.2v.2c.2 0 0-.2 0-.2s.2 0 .2.2V26h-.4M24.2 25.8l.2-.2-.2.2v-.2H24 24 23.8 24s.3 0 .3-.2H24h.3v-.2 0l.2.2v-.2 0s0 .2.2.3v-.3V25.6s0 .2-.2.2" fill="#1d81a4"/><path d="M24.6 26v-.3V25.6 25.6l-.2.2v-.3V25.6h-.2.2v-.2h.3v.4" fill="#1d81a4"/><path d="M25 26s.2 0 0 0h-.2c0-.2 0 0-.2 0l.3-.2h-.3H24.6h.2v-.2 0s.2 0 .2.2v-.2.5M25.3 26h0l.2-.2h-.3.2s-.2 0-.3-.2h.4l.2.2v-.2.2h-.3" fill="#1d81a4"/><path d="M24.7 25.8h0l.2-.2h-.3.2-.4.2l-.2-.2h.2c.2 0 0 0 .2.2v-.3V25.7h-.3M24.7 26.8v-.3V26.6l-.2.2v-.2 0h-.2.2s0-.2-.2-.2h.4v.4" fill="#1d81a4"/><path d="M25 26.7v-.3V26.5l-.2.3v-.3V26.6h-.2 0c0-.2.2 0 .2 0v-.2h.2V26v.5M25.6 26.4V26v.3c-.2 0-.2 0-.2.2v-.2 0l-.3.2c.2 0 .3-.2.3-.2H25h.6s-.2 0-.2-.2h.5v.4M25 25h.2-.2-.2v.2h.3v.2s.2 0 .2-.2l-.2.2.2-.2V25" fill="#1d81a4"/><path d="M25.5 25.3h-.2 0l.2-.2s0 .2-.2.3V25 25v.2L25 25c.2 0 .2.2.2.2v.2h.3" fill="#1d81a4"/><path d="M25.7 25.5V25.4v0h-.2 0v-.2.2s0-.2-.2-.2v.2h.2c0 .2-.2 0-.2 0 0 .2 0 .2.2.2h-.2 0c0 .2.2.2.3 0M25.2 26s.2.2 0 .2V26v.2L25 26v.2H25h.3v.2h.4s0-.3-.2-.4M28 33l.2-.2s-.2 0-.2.2h.2v.3l.2.4V33 33.2s0 .2.2.2c0 0-.3 0-.3-.2h0c0-.2.2 0 .3 0l-.3-.2H28.2s-.2 0-.2.2" fill="#1d81a4"/><path d="M28 32.6v.2c.2 0 .2 0 .2.2v-.2-.2 0H28M27.8 32h.2s-.2 0-.2.2h.2s-.2 0-.2.2h.2V32.2v0h.2V32v.3s0-.2-.2-.2h-.2M28 31.8v-.2V31.5v.3s0-.2.2-.2V32H28h.3l-.2-.2H28.2v.2" fill="#1d81a4"/><path d="M28 32.5s0-.3.2-.3V32.6s0-.2.2-.2v0H28.3h0c0-.2 0 0 .2-.2h-.3 0v.3M27 32.4h.2l-.2.2h.2v0h.2v-.2-.2 0H27" fill="#1d81a4"/><path d="M27.2 32H27c.2 0 .3.2.3.2H27 27.6l-.2.2h.3v-.2s0 .2.2.2v-.2V32 32.2h-.3M27.5 31.6h0l.2.2h-.2.2s-.2 0-.2.2l.2-.2V32h0v-.2s0 .2.2.2v-.2V31.5h-.5M29 32.2h-.3H28.8s0 .2.2.2h-.2v0h-.2v-.2-.2s.3 0 .4.2M28.6 31.7s-.2 0-.2.2l.2-.3V31.6v0c.2 0 0 0 0 0 0 .2.2 0 .2 0l-.2.2h.3-.3H28.6 28.6v0c-.2 0 0 0 0 .2-.2 0-.2-.2-.2-.2V32h-.2l.3-.3" fill="#1d81a4"/><path d="M28.5 31.5h-.3.3s-.2 0-.2.2l.2-.2v.2H28.3 28.5s0 .2.2.2l-.2-.2v.2l-.2-.2V31.7 31.6 31.6v.2c-.2 0-.2-.3 0-.4h.2M28 32l-.4-.2s.2 0 .2.2h-.2 0s.2 0 .2.2c0 0-.2 0-.2-.2 0 0 0 .2.2.2h-.2-.2s.2 0 .2-.2c0 0-.2.2-.2 0h0l.2-.2h-.2.5" fill="#1d81a4"/><path d="M28 32s0-.2-.2-.2c0 0 .2 0 .3.2V32.5l-.2-.2.2.4s0-.2-.2-.2v0h-.2 0l.2-.2-.2.2s0-.2.2-.3h-.2s.2 0 .2-.2l-.3.2.2-.2h-.2.6" fill="#1d81a4"/><path d="M28 31.6H28h.3l.2.2H28v0l-.2.2v-.2V31.7 31.6v-.2 0h-.2.5" fill="#1d81a4"/><path d="M28 31h-.2H28.2v.3s-.2 0-.2.2v-.2-.2s0 .2-.2.3V31v0h.4M27.8 30.8h-.2 0l.2.2-.2-.2v.2h-.2c0-.2 0 0 0 0v-.2h0s.2 0 .2-.2h-.2.3v.2" fill="#1d81a4"/><path d="M28 31.5c-.2 0-.3-.2-.3-.2v.2s0-.2 0 0V31.6s-.2 0-.2.2v-.3-.2h.2l.2.2M28.8 31h-.2.2c0 .2-.2.2-.2.2h.3-.3H28.6h.2-.3l.2.2h-.3H28.6V31.3v0l-.2.2v-.3V31 31.2h.3" fill="#1d81a4"/><path d="M28.6 30.8h-.3.3v.2H28.4 28.6s0 .2.2.2h-.2s-.2 0-.2-.2v.2s-.2-.2 0-.2c0 0-.2 0 0 .2-.2 0-.2-.3 0-.3 0 0 0-.2.2-.2M28 30.5h.2s-.2 0-.2.2h0l.2.2-.2-.2V30.7 30.6 30.6c-.2 0-.2 0-.2.2v-.4V30.5h.3M27 31.5v-.2.2h.2l-.2.2h.4s-.2 0-.2-.2h.2l-.2-.2h0s-.2 0-.3.2" fill="#1d81a4"/><path d="M27 31H27.2l.2.2H27 26.8c.2 0 0 0 0 .2 0 0 0-.2 0 0l.2-.2V31v.4c.2 0 .2-.3.2-.3V31.2H27M27.2 30.7H27 27.2s.3 0 .3.2H27 27.7V31c.2 0 0 0 0-.2.2 0 .2.2.2.3V31 30.7h-.3M28 31v-.3.2c.2 0 0 0 0 0h.2v0h.2s-.2 0-.2-.2H28h.4s-.2-.2-.3 0h.3c0-.2-.2-.2-.2-.2v.3M22 25.6v-.3s0 .2-.2.3v-.3 0l-.2.3v-.3 0l-.2.2s.2 0 .2-.2h-.3.3V25 25.2s0 .2.2.2h-.2.2V25v0s.2 0 .2.2c0 0 0-.2-.2-.2l.3.2v.4" fill="#1d81a4"/><path d="M22.3 25.5v-.3V25.3c-.2 0 0 .2 0 .2s-.2 0-.2-.2V25.4h-.2 0c0-.2.2 0 .3 0V25h0c0-.2.2 0 .3 0v.3" fill="#1d81a4"/><path d="M22.8 25.4v-.2.3s0-.2-.2-.2v0l-.2.2v-.2h.2s-.2 0-.2-.2c0 0 0 .2.2.2h-.2.3s-.2 0-.2-.2h.3v.4" fill="#1d81a4"/><path d="M23 25.2V25v0h-.2-.2.2v-.2h.4v.2l-.2.2M22.3 25.3l.2-.2s0 .2-.2.3V25v0s0 .2-.2.2c.2 0 .3-.2.3-.2H22h.2v-.2 0l.2.2v-.2 0l.2.3-.3.3M22.8 26.2V26v.2l-.2-.2V26.3l-.2.3V26v0h.3s-.2 0-.2-.2h.3v.4" fill="#1d81a4"/><path d="M23 26v-.3.2h-.2V25.8h-.2.2c0-.2-.2 0-.2 0l.2-.2h-.2.3c-.2-.2-.3 0-.4 0 0-.2.2-.2.3-.2h-.3.2v.3M23.3 25.4v-.2.3l-.2-.2.2.3v-.3V25.4l-.2.2v-.2h-.2.3V25H22.8h0c0-.2.2 0 .3 0v.2M22.2 24.3l.2.2h-.2-.2H22v.2h.4v-.2l-.2-.2M22.8 24.5V24.4v0l-.2.2v-.2V24.3v.2s0-.2-.2-.2v.4H22.5c0 .2.2 0 .2 0v-.2" fill="#1d81a4"/><path d="M23 24.5v0l-.2.2v-.3.2l-.2-.2.2.2h-.2.2s-.2 0-.2.2h.2c0 .2.2 0 .3 0v-.3M23 25.3h-.2l.2.2-.2-.2v.2h-.2.2v.2s.2 0 .2-.2v.2l.2-.2V25.4H23" fill="#1d81a4"/><path d="M23 25.2v.2l-.2-.2.2.2h-.2-.2H22.5s.2 0 .3.2h-.3.3l-.2.2.2-.2v.2s0-.2.2-.2V25.5v0c.2 0 0 .2 0 .3l.2-.3V25.4l-.3-.2" fill="#1d81a4"/><path d="M23.3 25V25.6L23 25l.2.3s0-.2-.2-.2V25.5H23h.3v.2h.4V25" fill="#1d81a4"/><path d="M23.7 25h-.2-.2 0s.2 0 .2.2h.2v.2l.2-.2c-.2 0-.2 0-.3.2l.2-.2-.3-.3M24 25h0v.2H24 24.2l-.2.2h.2c.2 0 0 0 0 0 .2 0 .2 0 .2-.2V25v.4s.2-.3 0-.3c0 .2.2.3.2.3V25H24" fill="#1d81a4"/><path d="M23.4 25.2h0s.2 0 .2.2h-.2s0 .2-.2.2h.3c.2 0 0 0 0-.2.2 0 .2.2.2.2v-.2V25.3h-.3M23.4 24.2v.2l-.2-.2v.2H23 23c.2 0 0 0 0 0h.2l-.2.2h.2c.2 0 0 0 0 0h.2V24M23.8 24.3v0s0 .2-.2.2v-.2V24.2v.2s-.2 0-.2-.2v.4h.3l-.2.2s.3 0 .3-.2v-.3" fill="#1d81a4"/><path d="M24.2 24.6V24.5v.2l-.2-.2v.2s0-.2-.2-.2c0 0 .2 0 .2.2h-.2.2v.2H24.3v-.4M23.8 26V26v.3h-.2-.2H23.3h.3s-.2 0-.2-.2h.2c.2 0 0 0 0 0h.2l-.2-.2s.2 0 .3.2c-.2 0-.2 0-.3-.2 0 0 .2 0 .2.2 0 0 0 .2-.2.3M24.2 25.7s0-.2-.2-.2c0 0 .2 0 .2.2H24h0v0h-.2c0-.2 0 0 0 0l.2-.2h-.2 0l.2-.2.2.3" fill="#1d81a4"/><path d="M24.4 25.5v-.2.2h-.2 0V25.6s-.2 0-.2.2v-.2-.2h0s.2-.2.2 0c0-.2 0 0-.2 0 0-.2.2-.2.3-.2v.3M24 25v-.3 0s0 .2-.2.3v-.2V24.7 24.6l-.2.2c0-.2 0-.2.2-.3h-.3.2v-.2l.2.2s-.2 0-.3-.2c0 0 .2 0 .2.2 0 0-.2 0-.2-.2l.2.2v-.2.5" fill="#1d81a4"/><path d="M24 25.2V25v0s0 .2-.2.2V25v0s0 .2-.2.2V25v0h-.2.3s0-.2-.2-.2h.4v-.2.5" fill="#1d81a4"/><path d="M24.3 25V24.8v.2L24 25v0l-.2.2.2-.2h-.2.2c0-.2 0 0 .2 0 0 0 0-.2-.2-.2H24.4v.3M24.8 25V25v.3h-.2V24.8v0l-.2.2V25c.2 0 0 0 0 0h.2c0-.2-.2 0-.2-.2H24.8l-.2-.2h.2v.5" fill="#1d81a4"/><path d="M25 24.8s.2 0 .2-.2c0 0 0 .2-.2.2v-.2 0l-.2.2s0-.2.2-.2h-.3H24.6 24.6h.2s-.2 0-.2-.2h.2v0l.2.2v-.2.2s0 .2-.2.2" fill="#1d81a4"/><path d="M24.4 25s.2-.2 0-.3V24.6 24.6l-.2.2s0-.2.2-.3H24 24.6s0-.2-.2-.2h.5v.4M24.8 26v-.4V25.5v.2s0-.2-.2-.3v0s0 .2-.2.3c0 0 0-.2.2-.2h-.2.2c0-.2-.2 0-.2-.2H24.8l-.2-.2h.2v.5" fill="#1d81a4"/><path d="M25 25.5V25.6s0 .2-.2.2v-.2 0h-.2.2v-.2c0-.2.2-.2.2 0" fill="#1d81a4"/><path d="M25.4 25v-.2.3H25v0s0 .2-.2.3V25v0l.2-.2H25 25.4v.2M24.3 24v.2H24 24h.2s0 .2-.2.2h.4v-.2-.2M25 24l-.2.4V24 24.2s0 .2-.2.2V24 24v.2l-.2-.2v.2h0c0 .2.2 0 .3 0 0 .2-.2.2-.3.2H24.8V24" fill="#1d81a4"/><path d="M25 24.2V24 24.6l-.2-.2V24.5h-.2.3-.3.2s-.2 0-.3.2H25v-.3M25 25h-.2s.2 0 .2.2h-.3H24.6 24.6 24.6h.2s-.2 0-.2.2v-.2.2l.2-.2v.2l.2-.3V25.2H25M25.6 32v-.4.3c0-.2 0-.3-.2-.3V31.6 32l-.2.3V32v0H25h.3c0-.2 0 0-.2 0l.4-.2H25h.5l-.3-.2h.3v.5" fill="#1d81a4"/><path d="M26 31.6c-.2 0-.3-.2-.3-.2v.2s0-.2 0 0v0s-.2 0-.2.2v-.3-.2-.2h.2s0 .2.2.3" fill="#1d81a4"/><path d="M26.2 31.2s0-.2-.2-.2c0 0 .2 0 .2.2H26h0V31.3s0 .2-.2.2v-.2-.2 0h.2s.2 0 .2.2M26.2 31v-.4V30.5v.2s0-.2-.2-.3v0s0 .2-.2.2v-.3c.2 0 0 0 0 0h.2v-.2h.3v.4M25.8 31.4V31v.3c-.2 0 0 0-.2.2v-.2 0l-.2.2v-.2h.2l-.2-.2H25.8v.4M26.7 31.8s0-.2-.2-.2c0 0 .2 0 .2.2h-.2 0v.3h-.2v-.2-.2H26h.3s.2 0 .2.2" fill="#1d81a4"/><path d="M26.8 31.4h-.3 0l.3.2h-.3 0s.2 0 .2.2c0 0 0-.2-.2-.2v0h-.2l.2-.2-.2.2v-.3 0h.5M26.6 30.8h-.2 0l.2.2h-.2 0v0h-.2 0c0-.2 0 0 0 0l.2-.2h-.2s0-.2.2-.2c0 0 .2 0 .2.2M25 30.7h.2s.2 0 .3.2c0 0 0-.2-.3-.2h.2l-.2.2h.2v0h.2V31 31c.2 0 0 0 0 0H25" fill="#1d81a4"/><path d="M25.6 30.4v.3l-.2-.3v.3s0-.2-.2-.2c0 0 .2 0 .2.2h-.2.4l-.2.2c0-.2 0-.2.2-.3V30.6v0h.2s0-.3-.2-.4" fill="#1d81a4"/><path d="M26 30.3v.2l-.2-.2v.2h-.2 0v.2h.4v-.4M26.2 31h0c0 .2 0 0 .2.2H26h.4l-.2.2.2-.2V31 31.2s0 .2.2.3V31v0H26M24.3 31.7v-.3V31.5s-.2 0-.2.2v-.2 0h-.2.2v-.2H24.4c0-.2 0 0 0 0v.4" fill="#1d81a4"/><path d="M24.6 31.6v-.2.2h-.2-.2v-.2H24.3c0-.2.2 0 .2 0V31v.4M25 31.5v-.2.2h-.2-.2.2l-.2-.2h.2c0-.2.2 0 .2 0s0-.2-.2-.2l.2.2v.3M25.2 31.3V31 31.5H25V31h.4s0 .3-.2.3" fill="#1d81a4"/><path d="M24.6 31.4l.2-.2-.2.2v-.2 0h-.2 0V31h.4v.2s0 .2-.2.2M25 32.2V32v.2h-.2c0-.2 0 0 0 0V32h0c0-.2.2 0 .2 0s0-.2-.2-.2h.3v.4" fill="#1d81a4"/><path d="M25.3 32v-.3.2H25h.2V31.8H25v-.2h0c0-.2.2-.2.2-.2v.3" fill="#1d81a4"/><path d="M25.6 31.4h-.2v0s0 .2-.2.2v-.2 0c0-.2.2-.2.2-.2h-.2.3v.2M24.5 30.6s.2 0 0 0v.2h-.2 0v.2l.2-.2v.2l.2-.2V30.7h-.2" fill="#1d81a4"/><path d="M25 30.6V30.5v0h-.2-.2c0 .2.2.2.2.2h-.2.3-.3H24.6c0 .2.2.2.2 0 0 .2-.2.2-.3.2h.3v-.4" fill="#1d81a4"/><path d="M25.2 30.7V30.6 30.6H25h-.2.2s0 .2-.2.2l.2-.2v.2h.2v-.3M25 31.3c.2 0 .3 0 .3.2H25h0v.2c.2 0 0 0 0 0h.2v-.2c.2 0 0 .2 0 .2.2 0 .2-.2.2-.2V31.4H25M26.2 31H26h.2s.3 0 .3.2H26 26.4l-.2.2h.3v-.2l.2.3v-.3V31v.3c.2 0 0-.3 0-.3s.2 0 .2.2c0 0 0-.3-.2-.3h-.3" fill="#1d81a4"/><path d="M26.4 30.6h0v.2h-.2.2s-.2 0-.3.2h.4c.2 0 0 0 .2-.2v0h-.2M26.6 30.2h0v.2h-.2.2v.2s.2 0 .2-.2V30.3s.2.2 0 .2c.2 0 .2-.2 0-.2h-.2M27 30v.4h.2v-.2 0h.2l-.2-.2.2.2s0-.2-.2-.2H27" fill="#1d81a4"/><path d="M26.6 30.6h.2l-.2.2h.2V31l.2.2v-.2-.2 0h-.4M26 30H26 25.7 25.6s.2 0 .2.2h-.3H25.6h.2s-.2 0-.2.2v-.2.2s0-.2.2-.2v0h.2V30H26M26.3 29.7V29.6 29.6v.2s0-.2-.2-.2h.2c0 .2 0 0-.2 0 0 0 .2 0 .2.2l-.2-.2s.2 0 .2.2H26 25.8h.2v.2l.2-.2V30v-.3M27 29.6v.2h-.2-.2H26.5h.3l-.2.2h.4V30v-.2M27.4 31h-.2V31.2l-.2.2V31h0c0-.2.2-.2.3-.2H27 27.4v.3" fill="#1d81a4"/><path d="M27.5 30.5h-.2.3c0 .2-.2 0-.2.2h0s0 .2.2.2l-.2-.2V30.7 30.6l-.2.2v-.3-.2.2c-.2 0 0-.2 0-.3h.3" fill="#1d81a4"/><path d="M27.6 30.2h-.3H27.4l.2.2h-.2 0v.2c0-.2 0 0 0 0v-.2l-.2.2v-.2V30.3 30l.4.2M26.8 30v.2s0-.2-.2-.2v0s0 .2-.2.3V30v0h.2l-.2-.2H26.8v.3" fill="#1d81a4"/><path d="M27.2 30v-.3.3l-.2-.2V30l-.2.2V30h-.2.3-.4c0-.2.3 0 .3-.2h-.3H26.6h0c0-.2.3-.2.4-.2H27h.5v.4" fill="#1d81a4"/><path d="M27.5 29.7l-.2-.2.2.2s-.2-.2-.2 0V29.6 29.6 29.8s-.2 0-.2.2l.2-.3-.2.2c0-.2 0-.2.2-.3H27h0l.2-.2H27h.3s.2 0 .2.2" fill="#1d81a4"/><path d="M27.8 29.3s0-.2-.2-.2l.2.3h-.2 0v.2h-.2v-.2h.2c0-.2-.2 0-.2 0l.2-.2-.2.2s0-.2.2 0h-.2l.2-.2.2.3" fill="#1d81a4"/><path d="M27.8 29v-.3V28.8l-.2.3V29v0s0 .2-.2.2c0 0 .2 0 .2-.2h-.2.3l-.2-.2h.3v.4" fill="#1d81a4"/><path d="M27.4 29.4v-.2.3c-.2 0 0-.2-.2-.2v0l-.2.2v-.2c.2 0 0 0 0 0h.2V29v.2h.2s-.2 0-.2-.2h.3v.4M28.3 30c0-.2 0-.3-.2-.3 0 0 .3 0 .3.2l-.2-.2c.2 0 .3 0 .3.2H28h.3v.2s0-.2-.2-.2v-.2-.2l.3.3" fill="#1d81a4"/><path d="M28.4 29.5H28h.2s0 .2.2.2h-.2 0V29.6 29.6 29.6H28v-.2-.2s.3 0 .4.2M28.3 29c0-.2-.2-.2-.3-.2h0s.2 0 .3.2H28h0s.2 0 .2.2c0 0 0-.2-.2-.2l.2.2H28V29h-.2 0l.2-.2h-.2.5M26.7 28.8H26.6h.2-.3s0 .2.2.2h-.4.2s-.2 0-.2.2h.2V29v.2c.2 0 0-.2 0-.2.2 0 .2 0 .2.2V29c.2 0 0-.2 0-.2h-.3M27.3 28.5v.2l-.2-.2s.2.2 0 .2v-.2.2H27h.2v0h.2l-.2.2s.2 0 .2-.2v.2s.2 0 .2-.2c0 0 0 .2-.2.2 0 0 .2 0 .2-.2v-.3" fill="#1d81a4"/><path d="M27.5 28.4v.2l-.2-.2v.2h-.2H27.5v.2h.4s0-.4-.2-.4M27.8 29h.3c0 .2 0 0-.2.2h.2l-.2.2h.2V29s0 .2.2.2v-.2V29 29.2h-.4M27.8 31c0-.2.2-.3.3-.3v.5s0-.2.2-.2c0 0 0 .2-.2.2 0 0 0-.2.2-.2v0l.2.2-.2-.2h0c0-.2.2 0 .2 0l-.2-.2h.2l-.2-.2H28s0 .2-.2.3" fill="#1d81a4"/><path d="M27.8 30.5h.2l-.2.2h.2s0 .2-.2.2l.2-.3V30.6 30.6h.2v-.2 0h-.4M27.6 30H27.5h.3-.4.2l-.2.2h.2V30.3h.2V30 30.2h-.4M27.7 29.8s0-.2.2-.3l-.2.3v-.2.2h.2V29.6 29.8h.2l-.2-.2H28h.2s-.3-.2-.3 0v-.2H28v.4M28 30.4v-.2.2h.2V30.2 30.4h.2l-.2-.2H28h.3s-.2-.2-.2 0c0-.2.2-.2.3-.2H28v.4M27 30.3v.3c.2 0 .2 0 .2.2v-.3V30.4v0h.2s0-.2-.2-.2H27" fill="#1d81a4"/><path d="M27 30h.2c0 .2-.2 0-.3.2H26.8 26.8c.2 0 0 .2 0 .2s.2-.2.2 0v-.2 0h.2V30 30H27M27.4 29.5h0c0 .2 0 0 .2.2h-.3.2v0c.2 0 0 0 0 0h.2v-.2V29.5v0l.2.2-.3-.3h-.3M28.8 30h-.2 0s.2 0 .2.2h-.2 0l.2.2h-.2 0v-.2s0 .2-.2.2v-.2-.2 0h.4M28.5 29.6s-.2 0-.2.2l.2-.2v.2H28.6s0 .2.2.2h-.2-.2-.2V30l.3-.2" fill="#1d81a4"/><path d="M28.3 29.4H28h.3v.2h0l.2.2h-.2l-.2-.2.2.3v-.4.2l-.2-.2V29.5h.3M27.7 30c0-.2-.2-.3-.2-.3s.2 0 .2.2l-.2-.2h0l.2.2h-.2 0v0l-.2.2V30v-.2l.2-.2.2.3M29.2 31v-.2V31.2h.2V30.8v0s0 .2.2.3V31v0H29.5h.2s-.2 0-.2-.2H29.4h.2s-.2-.2-.3 0c0-.2.2-.2.3-.2h-.3s-.2.3 0 .4" fill="#1d81a4"/><path d="M29 30.7v-.2.2h.2l-.2.2.2-.2v0l.2.2s0-.2-.2-.2h.2l-.2-.2h.2s-.2-.2-.3 0M28.6 30.3l.2-.2c0 .2 0 .3-.2.3h.2c0 .2 0 0 0 0v.2h.2v-.2-.2.2s0-.2-.2 0h-.2M28.6 30v-.2.2l.2-.2v.3h.2v-.2h-.2H28.7h.2c0-.2-.3 0-.3 0l.2-.2h-.3v.4" fill="#1d81a4"/><path d="M29 30.5v-.2.2l.2-.2V30.4s.2 0 .2.2v-.2-.2h-.2H29 29.5c0-.2-.2 0-.2 0v.3M28 31c0-.2.2-.3.3-.3 0 0-.2 0-.2.2.2 0 .3-.2.3-.2s-.2 0-.2.2H28.5v0h.2c0-.2 0 0 0 0v-.2h-.2.2l-.2-.2-.2.3" fill="#1d81a4"/><path d="M28 30.4H28.5l-.3.2h.2v.2s0-.2 0 0h.2v-.2-.2 0H28M28.2 30c0-.2.2-.2.2-.2h-.2.2l-.2.2h.2l-.2.2.2-.2v.2h.2V30v-.2 0H28M29.7 30h-.2H29.6l.2.2h-.2 0v0h-.2V30 30h.3M29.2 29.6v.2l.2-.2v.2h0v.2h-.2H29h.3v-.4" fill="#1d81a4"/><path d="M29 29.5v.2l.2-.2v.2H29 29.2c.2 0 .2 0 .3.2 0-.2 0-.2-.2-.2H29s0-.3.2-.3M28.6 30h-.2 0c0 .2.2.2.2.2h-.2 0s.2 0 .3.2h-.2 0V30.3s0 .2-.2.2v-.2V30.2 30v.3c-.2 0 0-.2 0-.2h.3" fill="#1d81a4"/><path d="M20.5 39c-10 0-18.3-8.4-18.3-18.5 0-10 8.2-18.3 18.3-18.3 10 0 18.4 8.2 18.4 18.3 0 10-8.4 18.4-18.5 18.4m0-39C9.2 0 0 9.2 0 20.5S9.2 41 20.5 41 41 31.8 41 20.5 31.8 0 20.5 0" fill="#737577"/></g></svg>