<svg xmlns="http://www.w3.org/2000/svg" viewBox="0 0 54.705734 54.710266" height="54.7" width="54.7"><defs><clipPath id="a"><path d="M0 41h41V0H0v41z"/></clipPath></defs><g clip-path="url(#a)" transform="matrix(1.33333 0 0 -1.33333 0 54.71)"><path d="M20.5 39c-10 0-18.3-8.4-18.3-18.5 0-10 8.2-18.3 18.3-18.3 10 0 18.4 8.2 18.4 18.3 0 10-8.4 18.4-18.5 18.4m0-39C9.2 0 0 9.2 0 20.5S9.2 41 20.5 41 41 31.8 41 20.5 31.8 0 20.5 0" fill="#737577"/><path d="M22 18.7c.3 0 .7.7 1 .8.2 0 .2-.5.5-.5.4 0 .6.6 1 .6.3 0 .5-.5 1-.4.3 0 .8-.5.7-.6 0-.2-.7 0-.7-.3 0-.2 1 0 .6-.2-.2 0 .4-.8 0-.7-.4 0-.2-.5-.7-.5-.6 0 0 .7-.4.7s-.4-.4-1-.4c-.3 0 0 .6-.3.7-.4 0-.5-.3-1-.2-.4 0-.5-.4-1-.3-.3 0 0 .8.3.8s-.4.6 0 .7zM33 23.8c-.2.5 0 1-.4 1H32s0-.4-.3-.3c-.4 0 0 .5-.4.5h-1.8c-.3 0 0 0-.2-.2h-.8c-.3-.2 0-1-.3-1.2-.4 0 0-.6.3-.6.4 0 .3.5.6.5.4 0 .6-.3 1-.5.3-.2.7.5.8.2.2-.3.6-.2 1-.4.3-.2 1.4.6 1.2 1zM19.8 20.6c-.2.4 0 .8-.4.8l-.6.2s0-.4-.3-.4c-.4 0 0 .6-.4.5h-1l-.7.2c-.3-.2 0-.4-.2-.5h-.7c-.3 0 0-1-.3-1-.4-.2 0-.8.4-.7.3 0 .2.4.5.4l.8-.4c.3-.2.7.4.8 0 .2 0 .6 0 1-.2.3-.2 1.4.5 1.2 1z" fill="#1d81a4"/><path d="M29.4 22.6c.3-.3.6-.8 0-.8-.3 0 .4-.7-.4-.5-.7.2-1.5-.8-2-.3-.2.4-.6-.8-1-.5-.6.2-1.3-.4-1.7-.4-.4 0 0 .5-.5.4-.4 0-.5-1-.8-.6-.4.3-.8 0-1.3.3-.5.4 0-1-.5-1-.5.3-1 .3-1.3.2-.5 0-.4.2-.3.6 0 .3-.5.2-.8.5-.4.2.4 0 .6.2.2.2-.7.6-.5 1 .4.2.8 0 1 0 .4-.2.4.8.6.6.2 0 .3.3.7.2.4-.2.4 1 .8.8.4-.3 1 0 1.3-.2.2-.3.7-.2 1-.5.4-.3.5.8 1 .6.3-.4 1.3-.3 1.4-.6 0-.2 1 1 1 1 .3-.2.7-.3 1-.6 0-.2.3.2.7-.2z" fill="#1d81a4"/><path d="M18.6 7.2h1.2c.2-.2.6.3 1 .2.2 0 .2-.2.4-.3.2 0 .5-.2 1 0 .2 0 0 .3 0 .6 0 .4-.7.6-.7 1v2c0 .5.2 1 .5 1 .2 0 .7.7.8.8h1l.3.4h-1c-.4 0-1.5-1-1.5-1s0 .8.3 1c.2.2.2.5.4.5 0 0 1 0 1.3-.2.3 0 1.6.7 1.6.7s-.4.3-.6 0H22.3s0 1 .4 1c.3 0 1.7 1 1.7 1l-2.2-1C21.7 14.5 21 13 21 13v1.6c0 .4 0 1 .2 1.6v1.4c0 .8 0 1.2.3 1.4.2.2 0 .6.6 1 .7 0 1.2.5 1.6.6.4 0 1 1.2 1.6 1.2.5 0 2.2 1 2.2 1l.8 1.3s-2.6-1.7-3-1.7c-.6 0-1.7-.8-2.2-1-.5-.3-1.5-.5-1.5-.5s0 .8.2 1c.3.3 1 .6 1.2 1 .2.2.5 1.5.5 1.5s-.7-1-1-1.2l-1-.2s-.3.8-.2 1.5l-.3 2.4h-1s0-4.4-.2-4.6c0 0-.5-.3-.5-.5v-.7c0-.2.4-.5.5-.8v-.7l-2 1-1.5 2.7 1.6-3c0-.2 1.6-1.2 1.6-1.2v-1.2L17.8 19c-.6.6-5.7 3.5-5.7 3.5l5.2-3.6 2-2.7-.2-1.4v-1.7s-1 .7-1.8.6c-.7 0-2.8 1.2-2.8 1.2l.6-.7 3.6-1.8c.2 0 .2-.4.4-.7.2-.2.2-2.7 0-3V7.7h-.6c0-.2-.3-.4-.2-.5z" fill="#1d81a4"/><path d="M8 14.8c-.2 0-.2.4-.2.4v1l1.2.2.8.2-.4.4v.6s0 .4.4.4h1c.2-.2.4 0 .7 0 .3 0 .4.3.8.2.5 0 1.3.3 1.7 0 .4-.2 1 0 1.4 0 .4.2.3.7.7.7.5 0 .8-.2 1.2-.6.4-.4 1.2 0 1.5-.3.2-.2.6-.2.4-.5 0-.3 1-1 .6-1.2-.4-.2-.2-1.2-.5-1.2-.2 0-.7 0-1-.2-.3 0 0-.5.2-.5.4 0 .7-.6.7-.8 0-.3-.6-.4-.8-.4-.2 0 0-.2-.4-.2-.3 0-.3-.4-.2-.5h1c.3-.2-.7-.8-.8-1 0-.2-.5 0-.6 0-.2 0-.3-.7-.3-1-.2-.2-.7 0-1 0-.2 0 .3.7.3.8 0 .3-.5.4-.6.3-.2-.2-.3-.6-.5-.5-.2 0-.5.3-.4.5l-.5.2c-.2 0 0-.6-.3-.7-.4 0-.7-.2-1-.4h-.4c-.2 0 0 .5-.3.4-.2 0-.4-.3-.4-.4-.2-.2-.3 0-.5 0-.2.2-.2 1 0 1s.4.3.2.4l-.6-.2c0-.2-.6 0-.8 0-.2 0 0 .5-.3.5-.2 0-.3-.4-.4-.4-.2 0-.3.2-.5.3 0 0 0 .5.3.6h.4c0 .3-.4.4-.6.5 0 .3-.6 0-.8 0-.2 0-.6.7-.3.7.2 0-.2.5 0 .7.4.2 1.2.2 1.5.2.3 0 .2-.2.4-.3l.8.3c.3 0 0 .6.3.6.5 0 .4.2.6.3.2.2-.4 0-.6 0-.2 0 0 .5-.3.5s-.4-.3-.6-.5c0-.2-.3 0-.6 0-.2-.2 0 0-.3 0-.2 0 0-.3-.3-.3s-.3-.5-.6-.5zM31.8 17.3c.3-.3.6-.8 0-.8-.3 0 .4-.7-.3-.5-.8.2-1.6-.8-2-.3-.3.4-.7-.8-1.2-.6-.5.4-1.2-.2-1.6-.2-.4 0 0 .3-.5.3-.3 0-.5-.8-.8-.5-.4.3-.8 0-1.3.3-.4.3 0-1.2-.4-1-.4.2-1 .2-1.3 0-.4 0-.2.3-.2.7.2.3-.3.2-.7.5-.3.2.5 0 .7.2.2.2-.7.6-.5 1 .3.2.7 0 1 0 .4-.2.3.8.5.6.2 0 .3.2.7 0 .4 0 .4 1.2.8 1 .3-.4 1 0 1.2-.4.2-.2.7 0 1-.4.4-.3.5.8 1 .6.3-.3 1.3-.2 1.4-.5.2 0 1 1.2 1.3 1 0-.2.5-.2.7-.5 0-.2.4 0 .8-.2zM19.4 24.3c.3-.3.5-1 0-1-.3.2.4-.6-.4-.4-.7 0-1.5-1-2-.4-.2.5-.6-.8-1-.5-.6.3-1.3-.3-1.7-.3-.4 0 0 .4-.5.3-.4 0-.5-1-.8-.6-.4.4-.8 0-1.3.3s0-1.2-.5-1c-.5.2-1 .2-1.3.2-.5-.2-.4 0-.3.4 0 .4-.5.2-.8.5-.4 0 .4 0 .6.2.2 0-.7.5-.5.8.4.4.8.3 1 0 .4 0 .4 1 .6.8.2-.2.3.2.7 0 .4-.2.4 1 .8.8.4-.3 1 0 1.3-.2.2-.3.7-.2 1-.4.4-.3.5.7 1 .5.3-.2 1.3-.2 1.4-.4 0-.2 1 1 1 1l1-.5c0-.3.3 0 .7-.2z" fill="#1d81a4"/><path d="M5 23c0 .2 0 .6.4.7.5.2.7 1 1 1 .3-.2 1 0 1.2 0 .2 0 0 .6.3.6 0 0 0-.5.2-.5h.6c.2 0 .2.4.2.6 0 0 0 .5-.3.3-.5-.2-.8 0-1 0-.3 0-.2.5-.2.6H8c0 .3-.5.4-.5.4v.5l.6-.2H9c.2 0 0-.6.2-.6h.4l.3.2H11c.2.2 0 .4 0 .5.2.2.6 0 .6 0h.3c.2-.2 0 0 .3 0 .3-.2-.2.6.2.6.3 0 .6-.2.6-.4h.4c.2 0-.2.7 0 .7.3 0 1-.2.8-.4h1c0-.2 0-.5.3-.6h.7c.2-.2.7 0 1-.4 0-.3-2-2.7-2-2.8l-1.4.2c-.2 0-.3.6-.5.7 0 0 .4-1.5 0-1.6-.2 0-1 .2-1.2 0-.2-.2-1 .2-1 .4s.3.5.4.4v.4c0 .2.6 0 .7.3 0 0-.7.2-1 0 0 0 0 .5-.2.5l-.3-.2H10s0-.5-.2-.5c-.3 0 0-1-.2-1-.2-.3-.5-.3-.8-.2-.2 0 0 .5-.2.5l-.8-.2c-.2 0-.3-.3-.5-.4L7 23h-.4H6S6 23 6 23H5zM7 21c-.4 0-.8-.6-.4-.8.4-.3.6-1 1-.8 0 0 1-.8 1.4-.6.2.3 1.5.7 1.6 1 0 .4-1.2.8-1.5.7l-.3.4c-.2 0 0-.6-.3-.6h-1s-.3.7-.5.6z" fill="#1d81a4"/><path d="M6.7 17.5c.3 0 0 .6 0 .6h.5c0 .2-.3.5 0 .5.2 0 .6-.4.8-.3.2.2 0 1.2 0 1.2.2 0 .8.2.8 0 0-.3.5-.2.7-.2.2 0-.2.7-.2 1 0 .3.4 0 .6.2 0 0-.4 0-.3.3 0 .3.6.3.8.3.2 0 .3-.3.5-.3.3 0 0 .6.2.7.3.2.5 0 .8 0 .3 0 .2.5.4.5.2-.2 0-.2.4 0 .4 0-.6.4-1 .5l-.2.7c0 .2 0 .3.3.3h.8s.6-.6.8-.5c.2 0-.4.5-.4.6 0 .2.2.4.4.4s.8.2 1 0c0-.2.8-.3.8-.6s0-.7-.4-.7-.3-.6-.5-.6c-.3 0-.7.2-.8 0 0 0-.3-.3 0-.4.2 0 .8.4 1 0 0-.2.2-.2.4-.2.3 0 .2.6.5.6s.7-.5.6-.6c0 0 .2-.7 0-1h-.6c-.2 0-.2.2-.5.2s-.5.2-.7 0c0-.2-.4-.8 0-.8.2 0 .3.2.4 0 0-.3-.6-.8-.4-1 .3 0 .4.3.6.2 0 0 .2.2.4 0s0-.7.2-.8c.2 0 .4 0 .4-.3s0-.4-.4-.4l-.6.2-1-.2c-.2 0 0 .4-.2.5 0 .2-.2 0-.4 0s-.3.4-.3.4h-.4v.7c0 .2.2.2.5.2s0 .2 0 .4c-.2 0-.4.6 0 .6.2 0 0 .7 0 .6H12c0-.2.2-.3.4-.3s-.3-1 0-1H12s.2-.5 0-.5h-1c0-.2-.2.2-.3.2 0 0-.4-.7-.2-.8.3-.2 0-.8 0-1h-1l-.6.3c-.3 0 0-.3-.3-.5 0-.2-.4.2-.6 0l-.5-1-1 .2s-.2-.4-.4-.4-.5.8-.3 1h.8c.3 0 0 .5.2.5z" fill="#1d81a4"/><path d="M9.3 21.6c.2-.2.6.4 1 .4.2 0 0 .4 0 .5.2 0 1 0 1-.2.2 0 .7.3 1 .2.4 0 1-.5 1-.8 0-.2-1-.8-1.4-.7-.4 0-.6-.8-1-.8-.2 0-.3.2-.4.4 0 .2-1 .4-1 .4s-.5 0-.6.2c0 .2.2.5.3.4zM11.4 28.6c0-.3.7 0 1 0 0 0-.2.4 0 .4h.7c.2 0 0-.3.3-.5s1.2.2 1.4 0c.2-.2-.2-.2-.4-.4 0 0-.3-.4 0-.5.5 0 .4-.5.6-.6 0 0 .4-.2.7 0 .3 0 0 .6 0 .5.4 0 .8.2 1 0 .4 0 .5 1 .8 1 .3 0-.4 1.2-.2 1.2.3 0 0 .7-.3.7s-.3 0-.5-.2h-1c0 .3.8.4.8.8 0 .3-.3.6-.6.6s-.3.4-.5.3c-.2 0 0-.2-.3-.5-.3-.2-.5 0-.7 0-.3 0 0-.3-.3-.5-.3 0-.6.2-.8 0-.2 0-.8.2-1 0 0 0 0-.3.3-.4h1s.2-.4 0-.5H13c-.4 0 .3-.4 0-.5h-.8c-.2 0-.2-.3-.2-.3s-.7-.3-.6-.6z" fill="#1d81a4"/><path d="M16.2 28.6c-.3 0-.6.5-.2.6.4 0 .8.2 1 0 .4-.3.7.4 1 .2.3-.2.3.7.5.6.3 0 .7.5.8.4.2-.2.8-.2 1-.2.3 0-.3-.2 0-.4 0-.3.4-.4.7-.6.3-.3-.4-.4-.2-.8.2-.3-1 0-1.3.3-.3 0-.3-.3-.7-.3-.3 0-.4 0-.7-.2-.2 0 0-.3-.3-.4h-.5c-.4 0 0 .5-.3.6-.3.2-.5 0-.8.2zM19.3 33.4h-1.5c-.3 0 .2-.5 0-.6-.4 0-.8-.3-1 0-.2.3-.7-.2-.7-.3 0-.2.7-.6 1-.8 0 0-.6-.2-.5-.4 0-.2.3 0 .5-.3.3-.2-.5-.6-.2-.8h1c.4 0 0 1 .2 1h1c.3 0-.2.6 0 .6.5 0 .6.7 1 .7.5 0 .7.4.5.6-.3.3-.6 0-1 0 0 0 0 .4-.2.4z" fill="#1d81a4"/><path d="M22.2 32.8h.7c.2 0-.4-.6-.2-.7h.6c.2-.3.3 0 .7 0 .5 0 0-.4 0-.6.2 0 1.5 0 2-.2.3 0 .5-.5.2-.6H25c-.4 0 0-.5-.4-.6h-.8c-.2.2-.3 0-.5-.2s-.4 0-.6 0c-.2 0-.3-.3-.5-.4h-.7c-.2 0 0 .3-.2.5-.2 0-.4.3-.7.3-.3 0-.2-.3-.5-.3-.2 0-1 .7-.5.8.3 0 0 1 .4 1 0-.2.2 0 .4 0 .2.2 0-.2.6 0 .4 0 0 .5.4.5.3 0 .5.4.8.5zM14.7 17.3c.4.3 1 0 .8-.2-.3 0 0-.2 0-.3l1 .3c.4 0-.4-1 0-.7.4 0 .7.2.8 0 0-.3.4-1 0-1-.2 0-1 .2-1.3 0-.5-.3-.4.2-.7.2-.3 0-.3-.2-.6-.3-.3 0-.4.7-.8.5-.5 0-.8-1-1.2-1-.4 0-1-.6-1-.7 0-.2-.3-.2-.5 0-.2.3 0 1 .3 1s.6.2.7.3c0 0 0 .6-.2.4h-.6c-.3 0 0 .6-.4.7-.3 0-.6-.2-.7.2 0 .4 0 .7.3.7.2 0 .6-.7 1-.6.3 0 0 .5.4.5.3 0 .6-.5 1-.5l1.7.6zM12.5 12.8c.3 0 1 .2 1.3 0 .4-.2.4 1 .8 1h.8c.3 0 .7.5 1 .5.3 0 .4-.7 0-1-.2-.3-.8-.4-.6-.7l.6-.4c.2 0 0-.3 0-.5 0-.3-1 .2-1.3 0-.3-.2 0 .7-.2.7s-.2-.4-.5-.2c-.4.2-.3-.3-.6-.2-.4 0-.4-.7-.8-.6-.4 0-.8.2-.7.4.2.2-.2 1 .2 1zM18 18.4c-.4 0-.5-.3-1-.3-.3 0 .2-.5 0-.7-.5-.2.2-.7.6-.8.4 0 1 .2 1.3 0 .3 0 0 .7.3.5h1.2c.4-.4 1.2 0 1 .2 0 .3-.7.5-1 .4-.6 0-.4.5-.8.7-.4.2-1.4.2-1.8 0zM29 28.8c.2-.2 0-.3-.4-.4-.3-.2-.8.3-1 0 0 0-.4.4-.6.3-.3 0 0-.2 0-.4-.2-.2-.4 0-.6-.2-.2 0 .3-.4 0-.5l-1-.5c-.4 0 .2-1-.3-.7-.3 0-.5-.5-1-.3-.4.2-.8-.5-1.3-.5-.4 0-.7 1-1 1-.5-.2-.6.5-1.2.4-.5-.3-.5-.6-.7-.7-.3 0-.6.4-1 .2s-.4.4-.6.7c-.2.4.3.5 0 .8-.4.4 0 .6.4.8.3.2.5-.5 1-.5.4 0 .2.6.7.6.5-.2.8-.5 1.2-.5.4 0 .4.4.8.4s.2-.4.7-.5c.5 0 .5.6.8.7.4 0 .6.6 1 .4 0-.2-.2-.4 0-.6.2-.2.5-.3.7-.3.2 0-.2.5 0 .6h.8c.4.2 0 .7.4.7s0-.4.5-.4h.7c.2 0-.2-.4 0-.6.3 0 .8 0 1-.2z" fill="#1d81a4"/><path d="M30.7 27.2c.3 0 .4.5.2.7-.3 0-.7.3-1 0l-1-.2c-.2 0 0 .3-.4.2-.3 0 0-.4-.5-.5-.2-.2-.4 0-1 0-.5 0-.4.3-.7.3-.4 0-.4-.5-1-.5s0-.7-.2-1c0-.4-.2.3-.6 0-.4-.3-.8.6-1 .3-.4-.2-.6-.2-.7-.5 0 0-1-.2-1.2-.5-.2-.2-1 .4-1.3 0-.4-.2-.8-.6-1-1 0 0 .6-.3.6-.7 0-.4 1-1 1.5-1 .4.2-.4 1.4 0 1.2.3-.2 1 0 1.3 0 .3-.2.3.8.8.5.4-.3 1.6 0 2-.2.5 0 0 1 .4.8.2 0 .7.4 1 .3.4 0 .3.4.6.4h.5c.3 0 0 .8.5.6.4-.2 1 .3 1.4.3.3 0 0 .2 0 .4-.2.3-.3 0-.5 0-.3 0-.3.4 0 .4l1.2-.2z" fill="#1d81a4"/><path d="M33.5 26c.3.5 0 .8-.3.7-.4-.2-.4 1-.8 1s-.4-.6-.8-.6 0-.4-.5-.5c-.2 0-.5-.3-.8 0-.4.2-1-.3-1.2 0-.2.2-.6 0-.8 0-.2 0-.4-.7-.2-.7s.5-.4.3-.6c-.2 0-1-.4-1 0-.4.2-.4-.7-.6-.6-.3 0-1.3.2-1.6.5-.2.3-.6-.2-1-.2-.2 0-.5.4-1 .3-.4 0-.4-.7-.5-1-.2-.2-.6-.5-1-.2-.3.3-.3 0-.5-.3-.3 0-.2-.7 0-.8.2 0 1.5.2 1.8 0 .3 0 0-.5.5-.7h1.3c.4-.4.6.6 1.2.5.7 0-.2.6 0 1 .3.2.6.6 1 .2.3-.3.7-.7 1-.8.4 0 1 .5 1.5.7.3.3-.4.5-.4 1 0 .3 0 .5.4.4.3 0 .5-.3 1-.4.3 0 .4 1 1 .8l1.3-.2c.4 0-.3.5 0 .6.4 0 .5 0 .8.3zM35.3 23c-.2.3 0 .7-.4.7s-.5.2-.7 0c0 0 0-.2-.3-.2-.4 0 0 .6-.5.5h-1l-.7.2c-.3 0 0-.3-.2-.4h-.8c-.4 0 0-1-.3-1.2-.4 0 0-.6.3-.6.4 0 .3.5.6.5s.5-.3 1-.5c.2 0 .5.5.7.2.3-.3.6 0 1-.3s1.5.4 1.3 1z" fill="#1d81a4"/><path d="M35.7 21c.3 0 .4-.4 0-.6-.4-.3-1.2 0-1.5-.2-.4-.2.2-.5-.2-.7-.5-.3-1.4 0-1.2-.3 0-.2.3-.3.5-.3s0-.4.3-.4h.6c0-.4.5-.4 0-.5h-2c-.5.3-.3-.4-.8-.5-.5 0-1 .2-1.2.5-.3.3-.5-.6-.8-.3-.3.3-1.4 0-1.8.2-.3.2-.5-.3-1-.4-.3 0-.7.5-1 .4-.2 0-.5.5-.7.4-.4 0 .6-.8.2-1-.4-.3-.3 0-.7 0-.5 0 0-.6-.4-.7-.3 0-.3-.8-.6-1-.4 0-.4 0-.6.3-.3.2.4 1 .2 1.2-.2.3-.5 0-.7.3 0 .2 0 1 .4 1l1.2.2c.2 0-.4.7 0 .6.3 0 .8.3 1 .2.2-.2.4.7 0 1 0 0-.5-.3-.5 0 0 0 .2.4.6.3.5 0 .5.7.8.6.3 0 1 .7 1.4.6.3 0 .3-.5.6-.5s.6.5 1 .3.4-.7.8-.7c.3 0 .4.8.8.6.3 0 .5.4.8.4.3 0 .6-.2.7-.5 0-.3.4 0 .7 0 .3 0 0 .8.3.7.3 0 .3.7.5.7.3 0 .2-1 .4-1.3 0-.2.2 0 .4-.3s1 0 1.3-.3z" fill="#1d81a4"/><path d="M29 19.5c.3-.2 1.2.5 1.5.4.2-.3.3.7.6.5.4-.2 1.4.3 1.5 0 .2-.2.6 0 .6-.3s-1-.2-.8-.6c0-.3.4-.3.6-.5 0-.2 0-.5-.5-.4-.4 0-1-.3-1.2 0-.3.3-.3-.5-.6-.5-.3.2 0 .3-.3.5 0 .2-.5-.3-.8 0-.4.3-1.4-.4-1.6 0 0 .2.5.5.5.7 0 .2-.6.2-.3.4s.8 0 1.2 0zM33.7 16.3c.3 0 .4.6.2 1l-1 .2-.4-.3H32l-1 .4-.8-.4-.8-.2-1 .8c-.2.2-.8.5-1 .4-.2 0 0-.5-.6-.5-.5 0-.4-.4-1-.5-.5 0-.7.4-1 .4-.4 0-.3-.8-.5-1 0-.3.6 0 .3-.2-.2-.3 0-.7-.5-.7-.4 0-.7 0-1 .2-.3 0-.3-.7-.6-.5-.3.2-1 0-1.3 0-.2 0-.2-.3-.2-.6 0-.5.4-1 .2-1.2 0-.3-.6-.8-.8-1-.2-.2.3-.8.6-1 .3 0 .3.4.6.2.4 0 0-.6.3-.6.4 0 .7 1.2 1 1 .3-.2.8 0 1 0 .2-.2-.6-.4-.5-.7.2-.4-.4-.6 0-.7.3 0 .4.3.7.3l.4-.2c.2-.2.4 0 .8 0 .3.2 0 .5.3.6h.8c.3 0 .3.6.5.5.2 0 .2-.3.3-.5.3-.2.4 0 .7-.2h.7c.3 0-.3.4.2.5h.7c.4 0 .3-.5.6-.5.2 0 .4-.4.7-.2.2.2-.2.7 0 .6.5 0 .7.5.8.8 0 .3-.6-.2-.6 0 0 .4.4.7.6.6h.6c.3.2 0 .6-.2.8-.2.2-.2.2-.6 0-.4-.2-.5.4-.3.5h1.2c.2 0 0-.2.4-.3.4-.2.6 0 1 0s.3.6.6.6c.2 0 .2.5 0 .8-.2.3-.3-.2-.5 0-.2 0-.4-.5-.8-.3-.5.3-.8-.2-1 0 0 .4-.3.3-.4.4 0 0-.5-.5-.7-.3-.3.3-1 0-1 .4-.4.3-1.5 0-1.7-.3-.2-.2.4-.5.3-.7 0 0-.4.2-.7 0-.4 0-.4.5-.7.5-.2 0 0 .5-.2.5 0 0-.2.3 0 .5.3.2.5.3.8.3.2 0 0 .7.3.7.4 0 0 .3.4.3.3 0 .8-.3 1-.7.2-.4.8-.3 1.3-.3.4 0 .3.3.6.3.2 0 .5.2.8 0 .4-.2.6.2 1 .2l.7-.2z" fill="#1d81a4"/><path d="M22 14.5c.4 0 .8.7 1 .7.2 0 .3-.4.6-.4s.6.6 1 .6c.3 0 .5-.5 1-.5.3 0 .8-.5.7-.7-.2 0-.8 0-.8-.2 0 0 1 0 .7-.2-.3 0 .3-.8 0-.7-.5 0-.3-.4-.8-.4-.6 0 0 .7-.4.7-.3 0-.3-.4-.8-.4-.4 0 0 .4-.5.4l-1-.2c-.3 0-.5-.3-.8-.2-.5 0-.3.7 0 .8.3 0-.3.6 0 .7zM17.7 19l.4.6h.8c.4 0-.2.6 0 .8 0 .2.4.2.6.2.2 0-.3.6 0 .6.4 0 1 0 .8.2-.3.2.6.4.4.7 0 .3-.4.5-.7.4-.4 0-.5-.6-.8-.6-.3 0-.4.4-.5.7 0 .3-.7.2-.8.5-.3.4-.6.5-1 .6-.2 0 0-.4-.3-.4-.4 0-.4-.6-.8-.6-.5 0 .4-1 .6-1 0-.3.6-.3.8-.2.2 0 0 .7.2.7.3 0 0-.5.3-.5.2 0 0-1-.4-1-.4.2-.5 0-1 0-.3.2-.6-.4-.4-.6.2-.3.5 0 1-.2.3 0-.4-.5-.2-.7h.7z" fill="#1d81a4"/><path d="M14.3 25c.4 0 0 .7.3.7s.2-.2.5 0c.4 0 0 .5.3.6h.5c.3 0 .3.7.5.6.3-.2.6.2.7 0 .2-.4.4-.7 1-.7.4 0 .5.7 1 .5.3-.2.8.2 1 0 .4-.5.8-.2 1-.5 0-.3 1 .2 1.2 0 0 0 .5-1 .2-1s-.5-.3-.8 0c-.2.3-.8.2-1 .5-.4.2-.4-.8-.7-1-.3 0-.6.4-.8.3-.2 0 .8-.3.7-.5-.3-.2-.6-.6-1-.3-.2.2-.8 0-1 .3-.4.2 0-.4-.5-.4-.4 0-.8-.8-1-.6-.4.2-1.2-.6-1.3-.3 0 .4-.7.5-.7.7 0 .3-.6.4-.4.5.3 0 0 .7.3.7z" fill="#1d81a4"/><path d="M15.8 25.5c.2-.2.4.2.6.2.3 0 0-.4.4-.5.3 0 .4.5.8.5.5 0 1-.4.7-.6-.3 0-.3-.8-.7-.5-.3.2-.4.2-.7.2-.4 0-.4-.5-.8-.4l-1 .5s.4 1 .6.7z" fill="#1d81a4"/></g></svg>