<svg xmlns="http://www.w3.org/2000/svg" viewBox="0 0 54.705734 54.710266" height="54.7" width="54.7"><defs><clipPath id="a"><path d="M0 41h41V0H0v41z"/></clipPath><clipPath id="b"><path d="M30.8 16c-2.2 0-4 2.6-4 2.6S24.5 16 22.5 16c-2.3 0-4 2.6-4 2.6S17 16 14.5 16c-2.8 0-4.4 2.6-4.4 2.6S8.3 15.8 6 16H1.7L3 11.3S10 1 21.7 1C33.3 1 38 12 38 12c0 2 2 2.5 1 4-1.7 0-4 2.6-4 2.6S33.4 16 30.8 16"/></clipPath><linearGradient id="c" gradientTransform="scale(25.12207) rotate(120 .532 .357)" gradientUnits="userSpaceOnUse" x2="1"><stop offset="0" stop-color="#00779b"/><stop offset=".2" stop-color="#00779b"/><stop offset=".4" stop-color="#408cad"/><stop offset=".5" stop-color="#5998b7"/><stop offset=".7" stop-color="#89b4cc"/><stop offset="1" stop-color="#89b4cc"/></linearGradient><clipPath id="d"><path d="M0 41h41V0H0v41z"/></clipPath></defs><g clip-path="url(#a)" transform="matrix(1.33333 0 0 -1.33333 0 54.71)"><path d="M39.5 20.3c0-10.4-8.5-19-19-19-10.3 0-18.8 8.6-18.8 19 0 10.5 8.5 19 19 19 10.3 0 18.8-8.5 18.8-19" fill="#fff"/><path d="M18 29.3c0-.2 0-.2.2-.3h1.1l1.5-.5h.6c.2.2.4 0 .6 0h.5s.2 0 0 .3c-.4.2-.6.2-.8 0 0 .3.4.5.6.5 0 .2-.5.3-.7.3H19.5h-.3c0-.2-.3-.3-.4-.2-.2 0-.3.3-.5.3h-.2l-.4-.4" fill="#1d81a4"/><path d="M20.2 28.7l1-.3 2.2-2.6c.8-1 2-2.5 2.4-4 0-.7.2-1.6.3-1.7h.5c0 .4-.7 2.7-1 3.5l-2.5 3-1.8 2-1 .2M35 30.8v-.2h-.2c0-.3-.2-.3-.4-.4-.2 0-.5 0-.7-.2l-1.3-.8h-.2c0-.2-.2 0-.3 0-.3 0-.5 0-.7-.2l-.5-.2s-.2 0-.2.2l.2.2h.6c0 .4-.5.4-.7.4 0 .2.4.4.6.5.2.2.5.2.7.3h.3l.6.4h.4c.2-.2.4-.2.5 0 0 0 0 .2.3.3h.2l.4-.2" fill="#1d81a4"/><path d="M33 29.6l-1-.6-1.3-3c-.6-1.2-1.2-3-1.2-4.6 0-.7.2-1.6 0-1.8v-.2s-.2 0-.3.2c0 .2 0 2.7.2 3.6.2 1 1 2.7 1.4 3.6L32 29l1 .6M27 31h-.2c0 .2-.2.2-.3.3v1.3c0 .3 0 .6.2.8l.3.7.4 1 .7.7.3.3v.2c0-.2.3-.2.5-.3.2-.2.4-.5.4-.8l.3-.7c0-.2.3-.5.3-.8v-.3-.3c-.2 0-.2 0-.3-.2v-.4-.4-.3-.3-.3-.3s-.3-.2-.4 0H29c0 .2-.2.4-.3.5-.2.2-.5 0-.7 0h-.3l-.6-.3" fill="#1d81a4"/><path d="M28.5 35.6v-3l-1-7.4c-.3-2-.7-5.4-.6-5.8 0-.4.3-.2.4.3l.3 5c0 1.8.8 6.7.8 8v3zM25.2 29.4v.2c.2 0 .3 0 .3.2.2 0 0 .3 0 .5v.7c0 .3-.2.5-.3.7l-.4.7-.4.7-.6.8s-.2 0-.2.2c0 0 0 .2-.2.2 0-.2-.2-.3-.3-.3l-.2-.7-.2-.7c0-.3-.2-.5-.3-.8v-.2s0-.2.2-.3c0 0 0-.2.2-.3v-.4-.3-.3-.3-.2c.2-.2 0-.3.2-.4h.3l.2.3.2.3c.2.2.5 0 .7 0h.3l.5-.2" fill="#1d81a4"/><path d="M23.3 33.6l.5-2.7c.3-1.4 1-5 1.5-6.7.5-1.7.5-4.4.4-4.7 0-.4-.3-.3-.5.2 0 .4.2 2.6 0 4l-1.6 7c0 1.3-.3 2.8-.3 2.8M28.7 26v.3l.3.2v.5l-.4.7c0 .3 0 .5-.2.7l-.5.6-.7.6c-.2.3-.4.5-.7.6 0 0-.2 0-.2.2l-.2.2c0-.3 0-.3-.3-.4-.3 0-.3-.4-.3-.7v-.7l-.2-.8v-.2l.2-.2.3-.3V27l.2-.4v-.3-.3s.2 0 .2-.2v-.4h.5v.3l.2.4c.2.3.5.3.6.2h.9" fill="#1d81a4"/><path d="M26.6 29.4s.4-1.4 1-2.6l1-2.7c.8-1.5 1.2-4 1.2-4.5 0-.3-.2-.3-.5 0-.3.6-.2 2.8-.8 4.2l-1.2 3-1 3 .3-.3zM28.4 13c-3.2 2.6-7.6 5.5-8 7-.7 3.2-7.7 2.8-8.4 4.2-.7 1.4 1.5.4 3 2.6 1.2 1.8-2.3 2.5-3 3-1 .7 2 1.4 2.2 2.4.3 1-1.6 1-3 2.2-1 1 0 1.8 0 2.6s-2.6-1.7-2.8-2.6c0-1 1-1.2 1.5-2.2.3-1.2-2.2-1-2-2.5 0-1.5 2.8-.7 2.8-2.5 0-1.7-4.6-.8-4-3 .4-2.2 5.4-2 5.7-4 .4-3.6-1-3.6-4-3.8l5.2-3 14.7-.3z" fill="#1d81a4"/></g><g clip-path="url(#b)" transform="matrix(1.33333 0 0 -1.33333 0 54.71)"><path d="M30.8 16c-2.2 0-4 2.6-4 2.6S24.5 16 22.5 16c-2.3 0-4 2.6-4 2.6S17 16 14.5 16c-2.8 0-4.4 2.6-4.4 2.6S8.3 15.8 6 16H1.7L3 11.3S10 1 21.7 1C33.3 1 38 12 38 12c0 2 2 2.5 1 4-1.7 0-4 2.6-4 2.6S33.4 16 30.8 16" fill="url(#c)"/></g><g clip-path="url(#d)" transform="matrix(1.33333 0 0 -1.33333 0 54.71)"><path d="M21.2 7.8l.8-1V7l.7.6c.4 0 .8-.2 1-.4l1.5-1.5-.7 1.6c0 .3.7.7.6 1 0 0-.5-.3-1.2 0l-2 1.3c0 .4-.5 1.3-.5 1.6v.2l-.7-1c0 .2-.2.2-.4.3-1.4.8-3.5.2-3.5 0 0-.3 0-1.3 3.2-2.6l.4-.7V8s0-.2.2-.2h.6" fill="#fff"/><path d="M20.5 39c-10 0-18.3-8.4-18.3-18.5 0-10 8.2-18.3 18.3-18.3 10 0 18.4 8.2 18.4 18.3 0 10-8.4 18.4-18.5 18.4m0-39C9.2 0 0 9.2 0 20.5S9.2 41 20.5 41 41 31.8 41 20.5 31.8 0 20.5 0" fill="#737577"/></g></svg>