<?xml version="1.0" encoding="utf-8"?>
<svg version="1.1" id="Layer_1" x="0px" y="0px" viewBox="1405.9906616210938 50.76573944091797 340 480" preserveAspectRatio="xMidYMid slice" xmlns="http://www.w3.org/2000/svg">
  <g id="g5" clip-path="url(#clipPath3520)">
    <g id="g7">
      <g id="g11"/>
    </g>
    <g id="g33"/>
    <g id="g39">
      <g id="g41">
        <g id="g43"/>
      </g>
      <g id="g49">
        <g id="g51"/>
      </g>
      <g id="g57">
        <g id="g59"/>
      </g>
    </g>
    <g id="g65"/>
    <g id="g85">
      <g id="g89"/>
    </g>
    <g id="g105">
      <g id="g113"/>
      <g id="g129">
        <path fill="#253032" d="M984.777,800.425c0.033,0.289-0.009,0.755,0.215,0.967c0.067,0.063,0.168,0.063,0.235,0     c0.223-0.212,0.181-0.678,0.215-0.967C985.491,799.997,984.727,799.997,984.777,800.425L984.777,800.425z" id="path131"/>
      </g>
      <g id="g133"/>
      <g id="g137"/>
      <g id="g141"/>
      <g id="g145"/>
      <g id="g149"/>
      <g id="g153"/>
      <g id="g157"/>
      <g id="g161"/>
      <g id="g165"/>
    </g>
  </g>
  <path style="fill:#a0a0a0;stroke:none;stroke-width:1px;stroke-linecap:butt;stroke-linejoin:miter;stroke-opacity:1" d="" id="path3514"/>
  <path style="fill:#a0a0a0;stroke:none;stroke-width:1px;stroke-linecap:butt;stroke-linejoin:miter;stroke-opacity:1" d="M 1467.498 403.268 C 1466.153 399.763 1467.102 389.018 1469.607 379.391 C 1472.111 369.763 1474.672 357.234 1475.297 351.547 C 1476.815 337.731 1488.762 336.002 1504.974 347.252 L 1517.958 356.263 L 1506.307 345.579 C 1499.899 339.703 1491.082 334.895 1486.713 334.895 C 1481.358 334.895 1479.548 332.865 1481.16 328.666 C 1485.15 318.268 1499.313 321.648 1514.221 336.556 C 1529.22 351.555 1531.069 351.907 1523.832 338.384 C 1521.353 333.751 1511.269 326.398 1501.424 322.043 L 1483.524 314.125 L 1488.604 294.404 L 1493.685 274.683 L 1517.675 274.808 C 1539.97 274.924 1542.66 276.019 1555.765 290.319 C 1571.118 307.073 1573.739 307.295 1563.019 290.935 C 1553.443 276.32 1536.19 268.454 1513.707 268.454 C 1497.766 268.454 1494.744 267.239 1495.89 261.291 C 1499.221 243.992 1534.357 238.377 1556.143 251.661 C 1573.116 262.01 1581.665 275.221 1586.145 298.021 C 1589.129 313.212 1589.792 314.13 1590.172 303.592 C 1590.861 284.491 1574.267 255.752 1557.472 246.96 C 1541.106 238.393 1519.524 237.145 1506.674 244.022 C 1499.261 247.989 1498.402 247.641 1500.718 241.606 C 1502.207 237.728 1503.424 232.839 1503.424 230.742 C 1503.424 228.644 1513.234 226.947 1525.225 226.969 C 1554.104 227.023 1587.57 242.476 1598.84 260.961 C 1603.442 268.508 1607.214 272.058 1607.222 268.849 C 1607.248 259.104 1576.591 233.167 1558.717 227.812 C 1549.473 225.042 1534.185 222.776 1524.743 222.776 C 1507.258 222.776 1504.421 219.222 1510.097 204.429 C 1513.364 195.916 1531.444 195.972 1562.165 204.592 C 1592.442 213.087 1617.364 233.706 1622.997 254.921 C 1626.434 267.863 1627.215 268.684 1627.571 259.725 C 1628.693 231.49 1585.385 199.72 1539.291 194.962 C 1511.913 192.137 1508.324 184.389 1530.935 176.927 C 1550.344 170.521 1577.054 174.287 1602.021 186.948 C 1625.955 199.084 1635.313 208.924 1642.747 229.768 C 1646.011 238.921 1648.447 242.107 1648.513 237.31 C 1648.764 219.012 1630.594 196.318 1605.367 183.421 C 1584.575 172.791 1576.217 170.895 1550.769 171.036 L 1520.722 171.203 L 1526.333 160.352 C 1536.696 140.313 1540.619 139.42 1571.954 149.965 C 1587.828 155.307 1597.404 157.182 1593.232 154.132 C 1589.06 151.081 1576.49 146.239 1565.298 143.37 C 1543.773 137.854 1539.911 133.579 1552.766 129.499 C 1564.655 125.726 1603.638 142.076 1623.704 159.252 C 1641.981 174.896 1660.726 208.317 1661.662 226.929 C 1661.99 233.449 1662.868 234.724 1664.023 230.356 C 1667.271 218.072 1657.478 191.287 1642.628 171.838 C 1629.009 154.002 1586.211 127.268 1571.278 127.268 C 1559.884 127.268 1566.213 119.245 1579.585 116.736 C 1627.634 107.722 1672.447 152.696 1676.859 214.359 C 1682.531 293.626 1632.491 359.933 1538.962 397.087 C 1503.698 411.096 1471.568 413.874 1467.498 403.268 Z M 1527.858 372.512 C 1527.484 367.483 1526.952 367.66 1525.477 373.306 C 1524.432 377.303 1521.846 380.573 1519.73 380.573 C 1517.613 380.573 1515.941 383.843 1516.014 387.84 C 1516.133 394.415 1516.726 394.34 1522.243 387.046 C 1525.596 382.613 1528.123 376.072 1527.858 372.512 Z M 1518.718 363.184 C 1517.393 359.871 1516.409 360.855 1516.21 365.693 C 1516.029 370.07 1517.011 372.523 1518.391 371.143 C 1519.77 369.763 1519.918 366.182 1518.718 363.184 Z M 1572.743 315.249 C 1571.69 311.209 1570.759 313.509 1570.674 320.361 C 1570.589 327.213 1571.451 330.518 1572.589 327.707 C 1573.726 324.895 1573.795 319.289 1572.743 315.249 Z M 1626.685 288.438 C 1625.359 285.126 1624.375 286.11 1624.176 290.947 C 1623.995 295.324 1624.977 297.777 1626.357 296.397 C 1627.737 295.017 1627.884 291.436 1626.685 288.438 Z M 1623.66 174.795 C 1620.713 171.245 1614.411 166.407 1609.656 164.045 C 1604.473 161.471 1606 163.997 1613.467 170.351 C 1627.76 182.515 1631.374 184.09 1623.66 174.795 Z" id="path-1"/>
</svg>