<?xml version="1.0" encoding="utf-8"?>
<!-- Generator: Adobe Illustrator 21.0.2, SVG Export Plug-In . SVG Version: 6.00 Build 0)  -->
<svg version="1.1" id="Layer_1" xmlns="http://www.w3.org/2000/svg" xmlns:xlink="http://www.w3.org/1999/xlink" x="0px" y="0px"
	 viewBox="0 0 47.1 41" style="enable-background:new 0 0 47.1 41;" xml:space="preserve">
<style type="text/css">
	.st0{clip-path:url(#SVGID_2_);fill:#A2D166;}
	.st1{clip-path:url(#SVGID_4_);fill:#A2D166;}
</style>
<g>
	<g>
		<g>
			<defs>
				<path id="SVGID_1_" d="M23.5,0.6C11.1,0.6,1,10.7,1,23.2C1,29.6,3.7,35.7,8.4,40l0.5,0.5l1.2-1.3l1.8-1.8c0.7-0.7,0.7-1.8,0-2.4
					c-0.6-0.6-1.8-0.6-2.4,0L9,35.5c-2.5-3-4-6.7-4.4-10.5h0.7C6.2,25,7,24.2,7,23.3c0-0.9-0.8-1.7-1.7-1.7H4.5
					c0.3-3.9,1.9-7.5,4.4-10.5l0.5,0.5c0.6,0.6,1.8,0.6,2.4,0c0.7-0.7,0.7-1.8,0-2.4l-0.5-0.5c3-2.5,6.7-4,10.5-4.4V5
					c0,0.9,0.8,1.7,1.7,1.7c0.9,0,1.7-0.8,1.7-1.7V4.2c3.9,0.3,7.5,1.9,10.5,4.4L35.3,9c-0.7,0.7-0.7,1.8,0,2.4
					c0.6,0.6,1.8,0.6,2.4,0l0.5-0.5c2.5,3,4,6.7,4.4,10.5h-0.7c-0.9,0-1.7,0.8-1.7,1.7c0,0.9,0.8,1.7,1.7,1.7h0.7
					c-0.3,3.9-1.9,7.6-4.4,10.5l-0.5-0.5c-0.6-0.6-1.8-0.6-2.4,0c-0.7,0.7-0.7,1.8,0,2.4l1.7,1.7l1.2,1.3l0.5-0.5
					c4.7-4.3,7.4-10.4,7.4-16.8C46.1,10.7,36,0.6,23.5,0.6"/>
			</defs>
			<clipPath id="SVGID_2_">
				<use xlink:href="#SVGID_1_"  style="overflow:visible;"/>
			</clipPath>
			<rect x="-4" y="-4.4" class="st0" width="55.1" height="49.8"/>
		</g>
	</g>
	<g>
		<g>
			<defs>
				<path id="SVGID_3_" d="M23.2,19.5l-10.1-7.9l-0.3,0.3l7,10.8c-0.4,1.5-0.1,3.1,1,4.3c1.7,1.8,4.5,2,6.3,0.3s2-4.5,0.3-6.4
					C26.3,19.6,24.7,19.2,23.2,19.5"/>
			</defs>
			<clipPath id="SVGID_4_">
				<use xlink:href="#SVGID_3_"  style="overflow:visible;"/>
			</clipPath>
			<rect x="7.8" y="6.6" class="st1" width="25.8" height="26.8"/>
		</g>
	</g>
</g>
</svg>
