<?xml version="1.0" encoding="utf-8"?>
<!-- Generator: Adobe Illustrator 21.0.2, SVG Export Plug-In . SVG Version: 6.00 Build 0)  -->
<svg version="1.1" id="Layer_1" xmlns="http://www.w3.org/2000/svg" xmlns:xlink="http://www.w3.org/1999/xlink" x="0px" y="0px"
	 viewBox="0 0 612 792" style="enable-background:new 0 0 612 792;" xml:space="preserve">
<style type="text/css">
	.st0{clip-path:url(#SVGID_2_);fill:#A2CF66;}
	.st1{fill:#A2CF66;}
</style>
<g>
	<g>
		<defs>
			<rect id="SVGID_1_" x="110.5" y="199" width="389.8" height="394"/>
		</defs>
		<clipPath id="SVGID_2_">
			<use xlink:href="#SVGID_1_"  style="overflow:visible;"/>
		</clipPath>
		<path class="st0" d="M210.6,438.3V265.9l82.6-39.7v108.8c6.6-4.1,13.6-7.5,21-9.9v-98.5l81.8,40.9v67.3c7.7,4.8,14.8,10.7,21,17.6
			v-83.8l58.1-18.6v173.7L440,434.9c-1.5,7.9-3.9,15.5-7.3,22.9l1.1,1.2l55-17.6c4.4-1.4,7.3-5.4,7.3-10V235.6
			c0-3.3-1.6-6.5-4.3-8.5c-2.7-2-6.2-2.5-9.4-1.5l-75.1,24l-99-49.5c-2.9-1.4-6.3-1.5-9.2-0.1L200,247.7l-74.7-33.9
			c-3.3-1.5-7-1.2-10,0.7c-3,1.9-4.8,5.3-4.8,8.8v195.8c0,4.1,2.4,7.9,6.2,9.6l79.1,35.9c2.8,1.3,6.1,1.3,8.9-0.1l46.6-22.4
			c-1.9-7.1-3-14.4-3.3-21.7L210.6,438.3z M131.5,239.7l58.1,26.4v172.7l-58.1-26.4V239.7z M131.5,239.7"/>
		<path class="st0" d="M490.8,536.3l-60.7-62.4c-5.1,7.6-11.2,14.7-18.4,20.9c-7.3,6.2-15.2,11.2-23.4,15l52.5,69.4
			c5.5,7.3,13.7,11.9,22.8,12.9c1.2,0.1,2.3,0.2,3.5,0.2c7.9,0,15.5-2.8,21.5-8c6.9-5.9,11-14.5,11.4-23.6
			C500.5,551.7,497.1,542.9,490.8,536.3L490.8,536.3z M490.8,536.3"/>
	</g>
	<path class="st1" d="M408.4,362.3c-16.6-19.3-40.1-29.2-63.7-29.2c-19.4,0-38.8,6.7-54.6,20.2c-35.1,30.2-39.1,83.2-8.9,118.3
		c16.6,19.3,40.1,29.2,63.7,29.2c19.4,0,38.8-6.6,54.6-20.2C434.6,450.4,438.6,397.3,408.4,362.3L408.4,362.3z M344.8,472.6
		c-15.7,0-31.3-6.6-42.3-19.4c-20-23.3-17.3-58.5,5.9-78.5c10.5-9,23.4-13.4,36.3-13.4c15.7,0,31.3,6.6,42.3,19.4
		c20,23.3,17.3,58.5-6,78.5C370.6,468.2,357.7,472.6,344.8,472.6L344.8,472.6z M344.8,472.6"/>
	<path class="st1" d="M326.9,384.7c-2.8-0.6-5.8-0.1-8.2,1.9c-16.7,14.4-18.6,39.7-4.3,56.4c2,2.3,4.9,3.3,7.8,3.1
		c1.9-0.1,3.9-0.7,5.5-2.1c4-3.4,4.4-9.3,1-13.3c-7.6-8.9-6.6-22.3,2.3-29.9c3.9-3.4,4.4-9.3,1-13.3
		C330.6,386,328.8,385.1,326.9,384.7L326.9,384.7z M326.9,384.7"/>
</g>
</svg>
