<?xml version="1.0" encoding="UTF-8" standalone="no"?>
<svg
   xmlns:dc="http://purl.org/dc/elements/1.1/"
   xmlns:cc="http://creativecommons.org/ns#"
   xmlns:rdf="http://www.w3.org/1999/02/22-rdf-syntax-ns#"
   xmlns:svg="http://www.w3.org/2000/svg"
   xmlns="http://www.w3.org/2000/svg"
   viewBox="0 0 54.705734 54.710266"
   height="54.710266"
   width="54.705734"
   xml:space="preserve"
   version="1.1"
   id="svg2"><metadata
     id="metadata8"><rdf:RDF><cc:Work
         rdf:about=""><dc:format>image/svg+xml</dc:format><dc:type
           rdf:resource="http://purl.org/dc/dcmitype/StillImage" /></cc:Work></rdf:RDF></metadata><defs
     id="defs6"><clipPath
       id="clipPath16"
       clipPathUnits="userSpaceOnUse"><path
         id="path18"
         d="m 0,41.033 41.029,0 L 41.029,0 0,0 0,41.033 Z" /></clipPath></defs><g
     transform="matrix(1.3333333,0,0,-1.3333333,0,54.710267)"
     id="g10"><g
       id="g12"><g
         clip-path="url(#clipPath16)"
         id="g14"><g
           transform="translate(20.5161,38.8731)"
           id="g20"><path
             id="path22"
             style="fill:#737577;fill-opacity:1;fill-rule:nonzero;stroke:none"
             d="m 0,0 c -10.122,0 -18.358,-8.238 -18.358,-18.359 0,-10.121 8.236,-18.358 18.358,-18.358 10.122,0 18.357,8.237 18.357,18.358 C 18.357,-8.238 10.122,0 0,0 m 0,-38.877 c -11.312,0 -20.516,9.206 -20.516,20.518 0,11.312 9.204,20.519 20.516,20.519 11.314,0 20.517,-9.207 20.517,-20.519 0,-11.312 -9.203,-20.518 -20.517,-20.518" /></g><g
           transform="translate(21.9741,18.6767)"
           id="g24"><path
             id="path26"
             style="fill:#1d81a4;fill-opacity:1;fill-rule:nonzero;stroke:none"
             d="M 0,0 C 0.37,0.094 0.724,0.759 0.964,0.783 1.203,0.809 1.253,0.309 1.567,0.362 1.878,0.414 2.109,0.96 2.469,0.904 2.831,0.848 3.045,0.434 3.434,0.482 3.822,0.53 4.333,0.023 4.217,-0.12 4.1,-0.263 3.483,-0.142 3.494,-0.361 3.505,-0.581 4.491,-0.505 4.157,-0.603 3.822,-0.7 4.448,-1.436 4.037,-1.386 3.625,-1.335 3.875,-1.845 3.314,-1.868 2.751,-1.891 3.232,-1.153 2.952,-1.145 2.672,-1.136 2.621,-1.6 2.169,-1.566 1.716,-1.534 2.091,-1.071 1.686,-1.024 1.282,-0.978 1.196,-1.233 0.783,-1.205 0.37,-1.176 0.181,-1.557 -0.181,-1.446 -0.544,-1.335 -0.292,-0.714 0,-0.663 0.292,-0.611 -0.37,-0.092 0.001,0 L 0,0 Z" /></g><g
           transform="translate(33.0071,23.8495)"
           id="g28"><path
             id="path30"
             style="fill:#1d81a4;fill-opacity:1;fill-rule:nonzero;stroke:none"
             d="M 0,0 C -0.204,0.449 -0.123,0.802 -0.422,0.844 -0.72,0.886 -0.811,1.004 -0.964,0.965 -1.116,0.925 -0.978,0.598 -1.325,0.603 -1.673,0.608 -1.346,1.166 -1.747,1.145 -2.149,1.124 -2.442,1.165 -2.771,1.085 -3.101,1.005 -3.173,1.289 -3.495,1.266 -3.816,1.242 -3.457,1.002 -3.735,0.904 -4.014,0.806 -4.19,0.922 -4.519,0.844 c -0.329,-0.078 0.123,-1.02 -0.302,-1.085 -0.423,-0.064 0.037,-0.624 0.362,-0.602 0.326,0.022 0.244,0.469 0.542,0.482 0.3,0.013 0.557,-0.306 0.904,-0.482 0.348,-0.176 0.665,0.458 0.844,0.18 C -1.99,-0.94 -1.652,-0.83 -1.265,-1.024 -0.878,-1.217 0.204,-0.447 0,0.001 L 0,0 Z" /></g><g
           transform="translate(19.8121,20.5961)"
           id="g32"><path
             id="path34"
             style="fill:#1d81a4;fill-opacity:1;fill-rule:nonzero;stroke:none"
             d="M 0,0 C -0.204,0.449 -0.124,0.802 -0.422,0.843 -0.72,0.885 -0.811,1.003 -0.964,0.964 -1.117,0.925 -0.978,0.598 -1.325,0.603 -1.673,0.608 -1.346,1.167 -1.747,1.145 -2.149,1.123 -2.442,1.165 -2.772,1.085 -3.101,1.005 -3.174,1.288 -3.494,1.265 -3.816,1.242 -3.457,1.002 -3.736,0.904 -4.014,0.806 -4.191,0.921 -4.519,0.843 -4.848,0.767 -4.396,-0.176 -4.82,-0.241 c -0.425,-0.064 0.036,-0.624 0.361,-0.602 0.325,0.022 0.243,0.469 0.542,0.482 0.3,0.013 0.556,-0.307 0.904,-0.482 0.348,-0.176 0.665,0.458 0.844,0.181 C -1.99,-0.94 -1.652,-0.83 -1.265,-1.024 -0.88,-1.218 0.204,-0.449 0,0 Z" /></g><g
           transform="translate(29.3564,22.6407)"
           id="g36"><path
             id="path38"
             style="fill:#1d81a4;fill-opacity:1;fill-rule:nonzero;stroke:none"
             d="m 0,0 c 0.357,-0.317 0.595,-0.873 0.159,-0.833 -0.437,0.039 0.238,-0.715 -0.476,-0.516 -0.715,0.198 -1.548,-0.794 -1.905,-0.318 -0.358,0.476 -0.761,-0.774 -1.27,-0.516 -0.51,0.259 -1.152,-0.396 -1.548,-0.396 -0.397,0 -0.159,0.396 -0.516,0.356 -0.357,-0.039 -0.477,-0.912 -0.834,-0.595 -0.357,0.317 -0.793,-0.119 -1.27,0.239 -0.475,0.356 0,-1.152 -0.475,-0.953 -0.477,0.198 -0.993,0.159 -1.35,0.119 -0.357,-0.04 -0.238,0.199 -0.159,0.555 0.08,0.357 -0.476,0.238 -0.794,0.476 -0.317,0.239 0.437,0.12 0.635,0.278 0.199,0.159 -0.674,0.556 -0.436,0.874 0.238,0.317 0.675,0.237 0.992,0.079 0.318,-0.158 0.277,0.793 0.476,0.635 0.199,-0.159 0.318,0.199 0.714,0.039 0.397,-0.158 0.398,1.112 0.755,0.834 0.356,-0.278 1.032,0 1.23,-0.238 0.199,-0.238 0.675,-0.159 1.032,-0.436 0.357,-0.278 0.476,0.793 0.873,0.556 0.397,-0.239 1.389,-0.16 1.508,-0.438 0.119,-0.278 0.993,1.033 1.151,0.874 0.159,-0.159 0.556,-0.199 0.714,-0.476 0.158,-0.279 0.436,0.117 0.793,-0.2 L 0,0 Z" /></g><g
           transform="translate(18.6329,7.2128)"
           id="g40"><path
             id="path42"
             style="fill:#1d81a4;fill-opacity:1;fill-rule:nonzero;stroke:none"
             d="M 0,0 C 0.165,-0.124 0.871,0.05 1.119,-0.102 1.366,-0.256 1.77,0.261 2.066,0.173 2.361,0.084 2.388,0.009 2.582,-0.102 2.775,-0.214 3.115,-0.398 3.442,-0.344 3.77,-0.29 3.536,0.073 3.528,0.431 3.521,0.788 2.864,1.028 2.84,1.36 c -0.023,0.333 -0.101,1.842 0,2.169 0.101,0.326 0.268,0.732 0.516,0.859 0.248,0.129 0.686,0.717 0.861,0.775 0.173,0.058 0.635,-0.016 0.86,0 0.226,0.017 0.43,0.431 0.43,0.431 0,0 -0.878,0.041 -1.204,0 C 3.977,5.553 2.84,4.561 2.84,4.561 c 0,0 0.105,0.825 0.327,1.033 C 3.389,5.802 3.411,6.128 3.528,6.11 3.645,6.092 4.459,5.991 4.819,5.937 5.178,5.885 6.454,6.454 6.454,6.454 c 0,0 -0.474,0.334 -0.688,0.172 C 5.551,6.464 4.635,6.355 4.388,6.368 4.143,6.382 3.7,6.626 3.7,6.626 c 0,0 0.039,0.758 0.345,0.775 0.305,0.017 1.721,1.032 1.721,1.032 0,0 -1.816,-0.794 -2.238,-0.946 C 3.106,7.335 2.307,5.662 2.307,5.662 c 0,0 -0.034,1.307 0.068,1.739 0.102,0.431 0.137,1.008 0.207,1.549 0.069,0.539 0.097,0.728 0,1.462 -0.097,0.735 -0.009,1.149 0.258,1.377 0.266,0.228 -0.015,0.581 0.602,0.861 0.618,0.279 1.145,0.642 1.515,0.688 0.369,0.047 1.118,1.209 1.634,1.29 0.516,0.082 2.186,1.033 2.186,1.033 l 0.776,1.217 c 0,0 -2.611,-1.76 -3.099,-1.819 C 5.966,15 4.884,14.296 4.388,14.026 3.894,13.757 2.84,13.596 2.84,13.596 c 0,0 -0.067,0.744 0.241,1.032 0.308,0.289 0.967,0.522 1.222,0.862 0.254,0.339 0.516,1.634 0.516,1.634 0,0 -0.678,-0.948 -0.948,-1.204 -0.267,-0.256 -0.945,-0.345 -0.945,-0.345 0,0 -0.324,0.766 -0.258,1.463 0.066,0.697 -0.345,2.409 -0.345,2.409 l -0.86,0 c 0,0 -0.088,-4.384 -0.258,-4.56 -0.17,-0.177 -0.53,-0.448 -0.516,-0.602 0.015,-0.155 -0.097,-0.435 0,-0.689 0.097,-0.254 0.348,-0.549 0.43,-0.774 0.081,-0.225 -0.086,-0.689 -0.086,-0.689 0,0 -1.414,0.69 -1.722,1.033 -0.307,0.343 -1.687,2.627 -1.687,2.627 0,0 1.471,-2.705 1.671,-2.971 0.2,-0.267 1.652,-1.205 1.652,-1.205 L 0.861,10.412 c 0,0 -1.035,0.777 -1.55,1.377 -0.514,0.601 -5.603,3.522 -5.603,3.522 0,0 4.909,-3.514 5.121,-3.615 0.212,-0.1 1.837,-2.362 1.963,-2.574 C 0.918,8.909 0.715,8.19 0.689,7.659 0.662,7.128 0.774,6.11 0.774,6.11 c 0,0 -1.186,0.628 -1.892,0.619 -0.706,-0.008 -2.84,1.274 -2.84,1.274 l 0.602,-0.689 c 0,0 3.294,-1.728 3.614,-1.806 C 0.579,5.429 0.597,5.079 0.774,4.82 0.952,4.559 0.929,2.039 0.774,1.807 0.62,1.575 0.887,0.576 0.774,0.517 0.662,0.457 0.304,0.53 0.172,0.431 0.039,0.334 -0.166,0.126 -0.001,0.002 L 0,0 Z" /></g><g
           transform="translate(8.1237,14.7515)"
           id="g44"><path
             id="path46"
             style="fill:#1d81a4;fill-opacity:1;fill-rule:nonzero;stroke:none"
             d="M 0,0 C -0.277,0.031 -0.362,0.422 -0.362,0.422 L -0.181,1.386 0.903,1.687 1.686,1.808 1.325,2.23 1.204,2.832 c 0,0 0.184,0.39 0.482,0.422 0.298,0.032 0.515,0.005 0.844,-0.121 0.328,-0.126 0.525,0.007 0.843,0 0.318,-0.007 0.377,0.452 0.844,0.362 0.467,-0.091 1.24,0.289 1.626,0 C 6.23,3.206 6.919,3.428 7.29,3.555 7.66,3.683 7.571,4.196 7.953,4.157 8.335,4.119 8.709,4.067 9.097,3.676 9.486,3.286 10.291,3.741 10.544,3.374 10.795,3.007 11.137,3.092 11.025,2.772 10.914,2.452 11.821,1.793 11.447,1.567 11.072,1.34 11.294,0.334 10.965,0.301 10.637,0.269 10.197,0.169 9.881,0.06 9.564,-0.048 9.765,-0.479 10.121,-0.482 10.478,-0.485 10.813,-1.017 10.784,-1.266 10.755,-1.514 10.24,-1.617 10.062,-1.627 9.883,-1.636 10.073,-1.902 9.7,-1.928 9.327,-1.953 9.351,-2.352 9.519,-2.471 9.687,-2.589 10.168,-2.516 10.483,-2.59 10.798,-2.665 9.795,-3.208 9.7,-3.434 9.605,-3.66 9.181,-3.408 9.037,-3.494 8.893,-3.58 8.82,-4.184 8.736,-4.398 8.652,-4.613 8.205,-4.504 7.953,-4.518 7.7,-4.533 8.212,-3.768 8.194,-3.615 8.176,-3.462 7.719,-3.368 7.531,-3.494 7.343,-3.621 7.231,-4.015 7.049,-3.977 6.866,-3.938 6.626,-3.686 6.627,-3.494 6.628,-3.303 6.418,-3.243 6.206,-3.253 5.993,-3.263 6.21,-3.895 5.843,-3.916 5.477,-3.938 5.198,-4.183 5,-4.338 4.802,-4.494 4.669,-4.42 4.458,-4.338 4.247,-4.255 4.425,-3.894 4.217,-3.916 4.008,-3.938 3.818,-4.223 3.735,-4.398 3.652,-4.573 3.611,-4.5 3.373,-4.338 c -0.237,0.162 -0.198,1.095 0,1.085 0.199,-0.01 0.442,0.175 0.241,0.3 -0.201,0.126 -0.369,-0.01 -0.602,-0.18 -0.234,-0.17 -0.701,-0.068 -0.904,0 C 1.906,-3.065 1.946,-2.634 1.807,-2.651 1.667,-2.668 1.621,-3.122 1.445,-3.133 1.27,-3.144 1.174,-2.918 1.024,-2.892 0.873,-2.866 0.86,-2.226 1.144,-2.169 1.429,-2.112 1.583,-2.223 1.567,-2.048 1.548,-1.874 1.177,-1.779 1.024,-1.627 0.87,-1.475 0.238,-1.7 0.06,-1.747 c -0.179,-0.048 -0.623,0.659 -0.301,0.663 0.32,0.004 -0.039,0.529 0.241,0.722 0.278,0.194 1.104,0.249 1.386,0.242 0.281,-0.008 0.163,-0.277 0.421,-0.301 0.257,-0.024 0.56,0.148 0.844,0.24 0.284,0.093 0,0.598 0.36,0.664 0.363,0.064 0.286,0.18 0.483,0.301 0.197,0.12 -0.371,-0.002 -0.602,0 C 2.659,0.785 2.878,1.27 2.59,1.265 2.302,1.261 2.149,0.981 1.988,0.784 1.826,0.587 1.538,0.619 1.325,0.603 1.112,0.587 1.212,0.823 0.964,0.843 0.715,0.864 0.966,0.456 0.602,0.422 0.238,0.387 0.276,-0.032 0,-0.002 L 0,0 Z" /></g><g
           transform="translate(31.7809,17.3318)"
           id="g48"><path
             id="path50"
             style="fill:#1d81a4;fill-opacity:1;fill-rule:nonzero;stroke:none"
             d="m 0,0 c 0.358,-0.317 0.595,-0.873 0.159,-0.833 -0.437,0.039 0.239,-0.714 -0.476,-0.516 -0.715,0.198 -1.548,-0.794 -1.905,-0.318 -0.358,0.476 -0.761,-0.775 -1.27,-0.516 -0.509,0.259 -1.152,-0.397 -1.548,-0.397 -0.396,0 -0.159,0.397 -0.516,0.357 -0.358,-0.039 -0.476,-0.912 -0.834,-0.595 -0.356,0.317 -0.793,-0.119 -1.27,0.238 -0.476,0.357 0,-1.151 -0.476,-0.952 -0.476,0.197 -0.992,0.159 -1.349,0.119 -0.357,-0.04 -0.238,0.198 -0.159,0.555 0.08,0.357 -0.476,0.239 -0.794,0.477 -0.317,0.238 0.437,0.119 0.635,0.278 0.199,0.158 -0.674,0.556 -0.436,0.873 0.238,0.317 0.675,0.238 0.992,0.079 0.318,-0.159 0.278,0.794 0.476,0.635 0.199,-0.159 0.318,0.199 0.714,0.039 0.397,-0.158 0.398,1.112 0.755,0.834 0.357,-0.278 1.032,0 1.23,-0.239 0.199,-0.237 0.675,-0.158 1.032,-0.435 0.357,-0.278 0.476,0.793 0.873,0.555 0.397,-0.238 1.389,-0.159 1.508,-0.436 0.119,-0.279 0.993,1.031 1.151,0.873 0.159,-0.159 0.555,-0.199 0.714,-0.477 0.16,-0.279 0.439,0.119 0.795,-0.199 L 0,0 Z" /></g><g
           transform="translate(19.3548,24.2673)"
           id="g52"><path
             id="path54"
             style="fill:#1d81a4;fill-opacity:1;fill-rule:nonzero;stroke:none"
             d="m 0,0 c 0.357,-0.317 0.595,-0.873 0.159,-0.833 -0.437,0.039 0.238,-0.714 -0.476,-0.517 -0.715,0.199 -1.548,-0.793 -1.905,-0.317 -0.358,0.476 -0.761,-0.775 -1.27,-0.516 -0.509,0.259 -1.151,-0.397 -1.548,-0.397 -0.397,0 -0.159,0.397 -0.516,0.357 -0.358,-0.04 -0.476,-0.912 -0.833,-0.595 -0.358,0.318 -0.794,-0.119 -1.271,0.238 -0.476,0.357 0,-1.151 -0.476,-0.953 -0.476,0.199 -0.992,0.16 -1.349,0.12 -0.358,-0.04 -0.238,0.198 -0.159,0.555 0.079,0.358 -0.476,0.238 -0.793,0.477 -0.319,0.238 0.436,0.118 0.634,0.278 0.199,0.158 -0.674,0.555 -0.436,0.873 0.238,0.317 0.674,0.238 0.992,0.079 0.318,-0.159 0.277,0.794 0.475,0.635 0.2,-0.159 0.319,0.199 0.716,0.04 0.396,-0.159 0.397,1.111 0.754,0.834 0.357,-0.279 1.032,0 1.23,-0.239 0.198,-0.238 0.674,-0.159 1.032,-0.436 0.357,-0.278 0.475,0.794 0.873,0.555 0.396,-0.238 1.389,-0.159 1.508,-0.437 0.12,-0.277 0.992,1.032 1.151,0.873 C -1.349,0.516 -0.953,0.477 -0.793,0.199 -0.635,-0.079 -0.357,0.318 -0.001,0 L 0,0 Z" /></g><g
           transform="translate(5.1106,22.9454)"
           id="g56"><path
             id="path58"
             style="fill:#1d81a4;fill-opacity:1;fill-rule:nonzero;stroke:none"
             d="m 0,0 c -0.082,0.29 -0.149,0.642 0.301,0.784 0.45,0.141 0.685,0.95 0.964,0.843 0.28,-0.106 1.019,0.151 1.206,0.181 0.185,0.03 0.098,0.578 0.301,0.542 0.202,-0.035 0.124,-0.533 0.361,-0.542 0.237,-0.01 0.412,-0.03 0.602,0 0.191,0.03 0.132,0.46 0.181,0.603 C 3.966,2.552 3.978,2.952 3.555,2.772 3.133,2.592 2.762,2.674 2.53,2.772 2.299,2.869 2.362,3.284 2.41,3.374 2.458,3.465 2.768,3.366 2.772,3.495 2.775,3.624 2.41,3.796 2.41,3.796 c 0,0 -0.086,0.462 0.061,0.482 0.145,0.021 0.303,-0.223 0.542,-0.18 0.238,0.042 0.572,0.076 0.722,0 0.151,-0.078 0.052,-0.614 0.181,-0.663 0.129,-0.049 0.362,0 0.362,0 0,0 0.2,0.213 0.302,0.241 0.1,0.027 0.105,-0.15 0.361,-0.121 0.255,0.029 0.028,0.173 0.241,0.181 0.213,0.007 0.395,-0.087 0.542,0 0.147,0.086 -0.066,0.28 0.06,0.421 0.126,0.141 0.542,0 0.542,0 0,0 0.146,-0.146 0.302,-0.241 0.156,-0.094 0.05,0.016 0.301,0 C 7.181,3.902 6.72,4.623 7.049,4.64 7.379,4.656 7.687,4.416 7.652,4.278 7.618,4.14 7.896,4.218 8.074,4.278 8.252,4.339 7.857,4.908 8.134,4.941 8.411,4.974 8.948,4.863 8.917,4.7 8.887,4.536 9.523,4.662 9.761,4.579 9.998,4.497 9.969,4.174 10.183,4.097 10.396,4.02 10.742,4.131 10.906,3.976 11.07,3.822 11.555,4.005 11.749,3.676 11.943,3.346 9.96,1.002 9.761,0.903 9.562,0.806 8.739,1.005 8.495,1.025 8.252,1.044 8.172,1.697 8.014,1.748 7.856,1.798 8.291,0.229 8.014,0.121 7.736,0.012 6.903,0.231 6.688,0.06 6.472,-0.11 5.775,0.278 5.724,0.482 5.672,0.687 5.982,0.923 6.086,0.903 6.189,0.885 6.061,1.05 6.086,1.266 6.11,1.481 6.713,1.334 6.749,1.507 6.784,1.679 6.179,1.735 6.025,1.687 5.871,1.639 5.897,2.104 5.724,2.049 5.551,1.994 5.528,1.897 5.363,1.808 5.196,1.719 5.202,1.979 5.001,1.929 4.8,1.878 4.996,1.369 4.699,1.326 4.402,1.282 4.634,0.431 4.458,0.241 4.283,0.052 4.021,0.071 3.735,0.121 3.45,0.171 3.778,0.517 3.495,0.543 3.212,0.568 2.844,0.354 2.651,0.362 2.458,0.37 2.437,0.028 2.229,0 2.021,-0.027 2.031,0.235 1.807,0.241 1.267,0.171 1.506,0.181 1.506,0.181 c 0,0 -0.288,0.213 -0.482,0.181 C 0.831,0.33 0.893,-0.094 0.723,-0.12 0.554,-0.148 0.082,-0.291 0,-0.002 L 0,0 Z" /></g><g
           transform="translate(6.8582,21.0179)"
           id="g60"><path
             id="path62"
             style="fill:#1d81a4;fill-opacity:1;fill-rule:nonzero;stroke:none"
             d="m 0,0 c -0.282,-0.084 -0.638,-0.611 -0.241,-0.843 0.395,-0.234 0.576,-0.858 0.843,-0.784 0.266,0.074 1.238,-0.762 1.506,-0.542 0.269,0.22 1.557,0.678 1.627,1.024 0.071,0.346 -1.216,0.701 -1.446,0.603 C 2.059,-0.64 1.952,-0.077 1.807,-0.12 1.662,-0.163 1.785,-0.607 1.506,-0.663 1.226,-0.719 0.772,-0.727 0.602,-0.722 0.432,-0.718 0.281,0.085 0,0.001 L 0,0 Z" /></g><g
           transform="translate(6.6774,17.4628)"
           id="g64"><path
             id="path66"
             style="fill:#1d81a4;fill-opacity:1;fill-rule:nonzero;stroke:none"
             d="m 0,0 c 0.296,-0.021 0.12,0.603 0.12,0.603 0,0 0.23,-0.169 0.362,0 0.131,0.169 -0.29,0.396 0,0.422 0.29,0.025 0.642,-0.349 0.843,-0.241 0.201,0.108 -0.12,1.11 0.061,1.144 0.18,0.035 0.711,0.244 0.782,0 C 2.24,1.685 2.629,1.73 2.832,1.747 3.034,1.765 2.664,2.428 2.651,2.712 2.637,2.995 2.995,2.83 3.193,2.893 3.391,2.955 2.951,2.957 3.013,3.254 3.074,3.55 3.645,3.518 3.856,3.495 4.066,3.471 4.094,3.194 4.338,3.194 c 0.244,0 -0.161,0.653 0.181,0.782 0.341,0.131 0.552,-0.009 0.843,0 0.291,0.011 0.194,0.477 0.361,0.423 0.169,-0.055 0.081,-0.105 0.422,0 C 6.486,4.503 5.504,4.983 5.241,5.002 4.978,5.019 4.902,5.598 4.94,5.785 4.978,5.971 4.989,6.04 5.241,6.026 c 0.254,-0.015 0.881,0.132 0.904,0 0.024,-0.134 0.59,-0.593 0.783,-0.483 0.194,0.111 -0.36,0.46 -0.361,0.602 -0.001,0.144 0.129,0.343 0.361,0.362 0.234,0.02 0.781,0.219 0.904,0 C 7.955,6.289 8.723,6.196 8.736,5.905 8.749,5.614 8.674,5.188 8.314,5.242 7.955,5.296 8.026,4.657 7.773,4.639 7.519,4.622 7.094,4.697 6.989,4.639 6.883,4.582 6.736,4.209 6.989,4.157 7.241,4.107 7.83,4.489 7.893,4.218 7.955,3.947 8.2,3.967 8.435,3.976 8.67,3.987 8.486,4.535 8.797,4.519 9.106,4.502 9.493,4.045 9.399,3.917 9.305,3.789 9.493,3.191 9.399,3.074 9.305,2.955 8.921,3.071 8.736,3.013 8.55,2.955 8.513,3.116 8.254,3.133 7.995,3.151 7.784,3.311 7.652,3.133 7.519,2.955 7.265,2.379 7.531,2.29 7.797,2.201 7.915,2.537 8.013,2.29 8.111,2.042 7.427,1.524 7.652,1.386 7.876,1.248 8.037,1.607 8.254,1.567 8.471,1.527 8.565,1.766 8.736,1.567 8.908,1.368 8.727,0.833 8.917,0.723 9.106,0.614 9.333,0.588 9.339,0.422 9.344,0.256 9.204,0.185 8.917,0.181 8.63,0.177 8.594,0.309 8.314,0.362 8.035,0.415 7.82,0.104 7.471,0.121 7.122,0.137 7.297,0.513 7.17,0.603 7.042,0.693 6.888,0.632 6.688,0.603 6.486,0.574 6.447,0.904 6.447,0.904 c 0,0 -0.33,0.016 -0.482,0.121 -0.153,0.105 -0.087,0.465 0,0.602 0.086,0.138 0.162,0.103 0.421,0.121 0.259,0.017 -0.144,0.23 -0.181,0.361 -0.036,0.132 -0.32,0.638 0,0.663 0.322,0.024 0.235,0.704 0,0.602 C 5.971,3.272 5.589,3.354 5.483,3.254 5.375,3.154 5.679,3.031 5.905,3.013 6.13,2.995 5.6,2.096 5.905,2.049 6.209,2.002 5.428,2.174 5.362,2.049 5.296,1.924 5.507,1.566 5.362,1.506 5.217,1.447 4.652,1.685 4.458,1.506 4.264,1.328 4.166,1.729 4.036,1.688 3.907,1.646 3.606,1.036 3.856,0.904 4.106,0.772 3.919,0.103 3.675,0.061 3.431,0.019 3.147,0.063 2.951,0.061 2.756,0.059 2.416,0.226 2.229,0.241 2.042,0.257 2.174,-0.063 2.048,-0.24 1.923,-0.418 1.644,-0.063 1.446,-0.24 1.249,-0.418 0.913,-1.037 0.783,-1.144 c -0.13,-0.107 -0.644,0.109 -0.843,0.06 -0.2,-0.049 -0.29,-0.396 -0.543,-0.362 -0.252,0.036 -0.589,0.821 -0.362,0.965 0.229,0.142 0.506,0.136 0.784,0.06 0.277,-0.075 -0.116,0.444 0.18,0.422 L 0,0 Z" /></g><g
           transform="translate(9.3279,21.5603)"
           id="g68"><path
             id="path70"
             style="fill:#1d81a4;fill-opacity:1;fill-rule:nonzero;stroke:none"
             d="M 0,0 C 0.146,-0.111 0.59,0.439 0.904,0.482 1.217,0.525 0.872,0.848 1.024,0.964 1.177,1.08 1.889,0.844 2.049,0.783 2.209,0.723 2.665,1.007 3.013,0.964 3.36,0.922 3.997,0.432 3.917,0.181 3.836,-0.071 2.893,-0.617 2.59,-0.542 2.289,-0.468 2.04,-1.311 1.747,-1.326 1.455,-1.341 1.393,-1.183 1.265,-0.964 c -0.127,0.218 -0.964,0.422 -0.964,0.422 0,0 -0.532,0.009 -0.602,0.181 C -0.37,-0.19 -0.145,0.11 0,0 Z" /></g><g
           transform="translate(11.3767,28.6097)"
           id="g72"><path
             id="path74"
             style="fill:#1d81a4;fill-opacity:1;fill-rule:nonzero;stroke:none"
             d="m 0,0 c 0.121,-0.333 0.694,-0.105 0.903,-0.06 0.21,0.044 -0.047,0.442 0.121,0.422 0.168,-0.021 0.523,0.059 0.663,0 0.14,-0.061 -0.015,-0.272 0.241,-0.483 0.256,-0.209 1.209,0.173 1.386,0 C 3.491,-0.294 3.085,-0.273 2.953,-0.482 2.82,-0.69 2.65,-1.043 3.013,-1.144 c 0.363,-0.102 0.283,-0.507 0.481,-0.543 0.198,-0.036 0.577,-0.163 0.844,0 0.268,0.163 -0.146,0.645 0.121,0.603 0.266,-0.044 0.67,0.203 0.964,0.06 0.294,-0.143 0.356,0.837 0.662,0.843 C 6.392,-0.175 5.697,1.074 5.965,1.085 6.233,1.095 5.848,1.766 5.604,1.807 5.36,1.849 5.36,1.641 5.122,1.567 4.883,1.493 4.262,1.527 4.157,1.687 4.052,1.847 4.918,1.977 4.941,2.35 4.963,2.723 4.666,3.024 4.338,2.952 4.01,2.881 3.978,3.352 3.796,3.314 3.613,3.275 3.693,3.141 3.494,2.892 3.296,2.643 3.163,2.862 2.891,2.832 2.621,2.802 2.879,2.574 2.59,2.41 2.304,2.246 2.067,2.574 1.868,2.41 1.668,2.246 1.012,2.574 0.903,2.41 0.796,2.246 0.857,2.127 1.084,1.988 1.311,1.849 1.833,1.967 2.049,1.928 2.264,1.889 2.353,1.638 2.169,1.446 1.986,1.254 1.821,1.397 1.506,1.326 1.192,1.254 1.943,0.95 1.687,0.904 1.431,0.857 1.051,0.87 0.844,0.843 0.637,0.818 0.663,0.542 0.663,0.542 0.663,0.542 -0.118,0.334 0.002,0 L 0,0 Z" /></g><g
           transform="translate(16.1974,28.6097)"
           id="g76"><path
             id="path78"
             style="fill:#1d81a4;fill-opacity:1;fill-rule:nonzero;stroke:none"
             d="m 0,0 c -0.255,0.063 -0.584,0.505 -0.181,0.543 0.403,0.037 0.814,0.24 1.084,0 C 1.174,0.301 1.488,0.987 1.807,0.783 2.127,0.58 2.057,1.478 2.349,1.386 2.642,1.293 2.988,1.923 3.132,1.747 3.277,1.572 3.885,1.601 4.157,1.567 4.428,1.531 3.843,1.393 4.036,1.145 4.23,0.897 4.536,0.783 4.82,0.543 5.103,0.301 4.372,0.17 4.579,-0.181 4.785,-0.532 3.628,-0.062 3.313,0.06 2.999,0.182 3.016,-0.228 2.65,-0.241 2.285,-0.254 2.245,-0.35 1.927,-0.361 1.609,-0.373 1.878,-0.759 1.506,-0.844 1.134,-0.929 1.309,-0.675 0.964,-0.723 0.618,-0.77 0.906,-0.345 0.722,-0.181 0.539,-0.016 0.254,-0.064 0,0 Z" /></g><g
           transform="translate(19.2696,33.4299)"
           id="g80"><path
             id="path82"
             style="fill:#1d81a4;fill-opacity:1;fill-rule:nonzero;stroke:none"
             d="m 0,0 c -0.232,0.045 -1.112,0.113 -1.446,0 -0.334,-0.113 0.172,-0.575 -0.121,-0.603 -0.292,-0.026 -0.682,-0.371 -0.903,-0.059 -0.223,0.311 -0.667,-0.121 -0.664,-0.302 0.005,-0.181 0.53,-0.55 0.724,-0.723 0.194,-0.172 -0.441,-0.195 -0.362,-0.422 0.079,-0.227 0.331,-0.058 0.542,-0.301 0.213,-0.243 -0.495,-0.609 -0.241,-0.784 0.254,-0.174 0.764,-0.103 1.085,0 0.32,0.104 -0.199,0.83 0.121,0.844 0.319,0.014 0.656,-0.012 0.963,0.06 0.308,0.073 -0.184,0.618 0.181,0.663 0.366,0.045 0.451,0.725 0.904,0.663 0.453,-0.062 0.668,0.475 0.422,0.663 C 0.959,-0.113 0.637,-0.412 0.361,-0.421 0.085,-0.431 0.231,-0.045 -0.001,0 L 0,0 Z" /></g><g
           transform="translate(22.1717,32.8047)"
           id="g84"><path
             id="path86"
             style="fill:#1d81a4;fill-opacity:1;fill-rule:nonzero;stroke:none"
             d="M 0,0 C 0.295,0.135 0.557,0.037 0.713,0.022 0.993,-0.004 0.427,-0.606 0.652,-0.7 c 0.225,-0.095 0.347,-0.067 0.543,-0.241 0.196,-0.174 0.337,0.14 0.723,0.12 0.385,-0.02 -0.148,-0.432 0,-0.542 0.147,-0.109 1.443,-0.135 1.807,-0.241 0.365,-0.107 0.557,-0.464 0.302,-0.603 -0.255,-0.139 -1.007,0.1 -1.326,0 C 2.382,-2.306 2.734,-2.678 2.4,-2.809 2.065,-2.941 1.843,-2.914 1.616,-2.749 1.391,-2.584 1.355,-2.801 1.134,-2.99 0.914,-3.179 0.745,-2.999 0.532,-2.99 0.319,-2.981 0.257,-3.327 0.05,-3.412 c -0.207,-0.085 -0.525,-0.033 -0.723,0.06 -0.199,0.093 -0.045,0.276 -0.241,0.483 -0.196,0.205 -0.336,0.357 -0.663,0.361 -0.327,0.003 -0.241,-0.249 -0.542,-0.301 -0.301,-0.052 -0.905,0.747 -0.602,0.843 0.301,0.097 0.144,0.876 0.421,0.844 0.276,-0.033 0.371,0.197 0.542,0.241 0.172,0.044 0.119,-0.29 0.543,-0.241 0.423,0.049 -0.054,0.644 0.482,0.662 0.237,0.009 0.496,0.353 0.732,0.46 L 0,0 Z" /></g><g
           transform="translate(14.6906,17.3421)"
           id="g88"><path
             id="path90"
             style="fill:#1d81a4;fill-opacity:1;fill-rule:nonzero;stroke:none"
             d="M 0,0 C 0.378,0.258 1.069,-0.184 0.784,-0.241 0.498,-0.297 0.673,-0.55 0.843,-0.602 c 0.171,-0.053 0.728,0.217 1.024,0.241 0.297,0.023 -0.416,-0.914 -0.059,-0.723 0.356,0.191 0.693,0.245 0.782,0 0.091,-0.246 0.389,-0.889 0.122,-0.964 -0.269,-0.075 -1.036,0.192 -1.447,-0.06 -0.411,-0.254 -0.399,0.3 -0.663,0.301 -0.263,10e-4 -0.298,-0.243 -0.618,-0.319 -0.321,-0.077 -0.382,0.639 -0.767,0.5 -0.386,-0.14 -0.672,-1.034 -1.085,-0.965 -0.413,0.071 -0.962,-0.605 -1.024,-0.783 -0.063,-0.178 -0.347,-0.177 -0.542,0.06 -0.196,0.238 0.004,1.098 0.3,1.085 0.298,-0.014 0.633,0.057 0.723,0.181 0.091,0.123 0.105,0.561 -0.18,0.422 -0.285,-0.14 -0.366,-0.019 -0.663,0 -0.296,0.018 -0.07,0.631 -0.421,0.663 -0.352,0.031 -0.619,-0.145 -0.723,0.24 -0.105,0.385 0.111,0.663 0.301,0.663 0.189,0.001 0.59,-0.653 0.963,-0.603 0.374,0.05 0.192,0.48 0.483,0.482 0.291,0.002 0.561,-0.489 0.843,-0.482 0.28,0.01 1.428,0.408 1.807,0.665 L 0,0 Z" /></g><g
           transform="translate(12.4613,12.7633)"
           id="g92"><path
             id="path94"
             style="fill:#1d81a4;fill-opacity:1;fill-rule:nonzero;stroke:none"
             d="M 0,0 C 0.346,-0.005 1.036,0.245 1.386,0.06 1.735,-0.124 1.728,1.102 2.109,1.085 2.489,1.067 2.538,1.141 2.892,1.145 3.246,1.149 3.597,1.55 3.917,1.567 4.235,1.582 4.354,0.812 4.037,0.542 3.72,0.273 3.106,0.162 3.313,-0.121 c 0.208,-0.281 0.364,-0.323 0.604,-0.421 0.239,-0.098 0.117,-0.273 0,-0.542 -0.118,-0.27 -0.947,0.19 -1.327,0 -0.379,-0.191 0.015,0.729 -0.241,0.723 -0.255,-0.007 -0.19,-0.442 -0.542,-0.241 -0.35,0.2 -0.259,-0.285 -0.602,-0.182 -0.343,0.105 -0.349,-0.672 -0.723,-0.602 -0.374,0.071 -0.791,0.257 -0.603,0.422 0.189,0.163 -0.225,0.968 0.122,0.962 L 0,0 Z" /></g><g
           transform="translate(17.9438,18.3669)"
           id="g96"><path
             id="path98"
             style="fill:#1d81a4;fill-opacity:1;fill-rule:nonzero;stroke:none"
             d="m 0,0 c -0.372,-0.097 -0.441,-0.306 -0.843,-0.301 -0.403,0.005 0.119,-0.579 -0.241,-0.783 -0.361,-0.204 0.338,-0.728 0.723,-0.784 0.385,-0.054 0.916,0.217 1.325,0.121 0.41,-0.097 0.037,0.583 0.362,0.422 0.326,-0.161 0.856,0.077 1.265,-0.181 0.41,-0.258 1.123,0.108 1.024,0.362 C 3.516,-0.892 2.852,-0.634 2.41,-0.722 1.968,-0.811 2.179,-0.217 1.756,-0.018 1.333,0.18 0.372,0.098 0,0 Z" /></g><g
           transform="translate(29.0306,28.7907)"
           id="g100"><path
             id="path102"
             style="fill:#1d81a4;fill-opacity:1;fill-rule:nonzero;stroke:none"
             d="m 0,0 c 0.207,-0.158 -0.138,-0.29 -0.421,-0.422 -0.285,-0.132 -0.851,0.335 -0.965,0.181 -0.113,-0.154 -0.419,0.236 -0.663,0.12 -0.245,-0.116 0.044,-0.131 -0.06,-0.361 -0.105,-0.231 -0.345,-0.012 -0.542,-0.181 -0.198,-0.169 0.316,-0.481 0,-0.662 -0.316,-0.181 -0.661,-0.267 -1.025,-0.422 -0.363,-0.157 0.2,-0.935 -0.241,-0.784 -0.44,0.151 -0.616,-0.434 -1.083,-0.241 -0.468,0.193 -0.875,-0.523 -1.326,-0.482 -0.452,0.041 -0.686,0.972 -1.085,0.844 -0.398,-0.128 -0.5,0.616 -1.085,0.482 -0.584,-0.134 -0.546,-0.475 -0.783,-0.543 -0.237,-0.068 -0.539,0.43 -0.964,0.181 -0.424,-0.249 -0.384,0.385 -0.602,0.723 -0.219,0.338 0.296,0.435 -0.061,0.783 -0.356,0.349 0.17,0.623 0.482,0.784 0.312,0.16 0.505,-0.45 0.964,-0.482 0.46,-0.033 0.233,0.6 0.723,0.542 0.491,-0.059 0.848,-0.306 1.206,-0.302 0.357,0.005 0.375,0.362 0.783,0.362 0.407,0 0.205,-0.289 0.723,-0.362 0.518,-0.071 0.495,0.527 0.843,0.603 0.349,0.076 0.587,0.602 0.844,0.422 0.256,-0.181 -0.095,-0.39 0.121,-0.603 0.214,-0.213 0.513,-0.266 0.722,-0.241 0.21,0.026 -0.247,0.509 0.06,0.603 0.308,0.095 0.182,-0.174 0.663,0 0.482,0.174 0.169,0.675 0.482,0.663 C -1.975,1.192 -2.236,0.85 -1.868,0.783 -1.499,0.716 -1.425,0.769 -1.145,0.723 -0.864,0.676 -1.183,0.401 -0.964,0.24 -0.745,0.081 -0.208,0.156 0,-0.001 L 0,0 Z" /></g><g
           transform="translate(30.6567,27.1635)"
           id="g104"><path
             id="path106"
             style="fill:#1d81a4;fill-opacity:1;fill-rule:nonzero;stroke:none"
             d="M 0,0 C 0.327,-0.038 0.394,0.493 0.241,0.723 0.089,0.954 -0.381,1.094 -0.602,0.964 -0.824,0.835 -1.237,0.608 -1.566,0.602 -1.895,0.597 -1.764,0.892 -2.048,0.843 -2.332,0.795 -2.173,0.483 -2.53,0.302 -2.887,0.121 -3.032,0.282 -3.615,0.241 -4.198,0.2 -4.042,0.65 -4.398,0.662 -4.753,0.676 -4.741,0.121 -5.362,0.121 c -0.621,0 -0.058,-0.7 -0.181,-1.025 -0.122,-0.325 -0.361,0.362 -0.723,0.06 -0.361,-0.301 -0.824,0.552 -1.084,0.302 -0.261,-0.251 -0.509,-0.198 -0.602,-0.482 -0.095,-0.285 -1.046,-0.326 -1.205,-0.603 -0.159,-0.276 -0.905,0.318 -1.327,0.06 -0.42,-0.258 -0.789,-0.717 -0.843,-0.964 -0.054,-0.245 0.463,-0.409 0.482,-0.843 0.02,-0.435 1.047,-0.935 1.446,-0.844 0.4,0.092 -0.36,1.243 0,1.025 0.36,-0.219 1.022,0.098 1.325,-0.061 0.305,-0.158 0.351,0.888 0.784,0.603 0.434,-0.285 1.68,-0.077 2.109,-0.181 0.428,-0.104 0.055,0.917 0.301,0.783 0.246,-0.133 0.772,0.297 1.085,0.181 0.312,-0.115 0.216,0.364 0.542,0.422 0.326,0.058 0.202,-0.101 0.542,-0.121 0.34,-0.019 0.111,0.91 0.542,0.723 0.432,-0.186 1.112,0.312 1.447,0.242 0.335,-0.071 0.14,0.241 0,0.482 -0.141,0.241 -0.189,-0.003 -0.482,0 -0.295,0.002 -0.218,0.323 0.181,0.361 C -0.625,0.279 -0.326,0.038 0,-0.001 L 0,0 Z" /></g><g
           transform="translate(33.4885,26.1394)"
           id="g108"><path
             id="path110"
             style="fill:#1d81a4;fill-opacity:1;fill-rule:nonzero;stroke:none"
             d="M 0,0 C 0.272,0.313 0.079,0.692 -0.301,0.542 -0.68,0.392 -0.654,1.631 -1.084,1.627 -1.514,1.622 -1.467,0.981 -1.867,0.964 -2.268,0.947 -2.034,0.45 -2.35,0.362 -2.665,0.273 -2.952,0.061 -3.313,0.302 c -0.362,0.24 -1.035,-0.211 -1.206,0 -0.17,0.209 -0.562,0.148 -0.784,0.06 -0.219,-0.089 -0.338,-0.723 -0.179,-0.723 0.158,-0.001 0.483,-0.41 0.3,-0.543 -0.182,-0.133 -0.876,-0.386 -1.144,-0.12 -0.268,0.265 -0.22,-0.596 -0.482,-0.542 -0.263,0.053 -1.325,0.275 -1.627,0.481 -0.303,0.207 -0.674,-0.293 -0.964,-0.301 -0.29,-0.008 -0.607,0.414 -1.024,0.362 -0.417,-0.052 -0.431,-0.847 -0.603,-1.085 -0.172,-0.237 -0.563,-0.522 -0.903,-0.241 -0.34,0.282 -0.39,-0.128 -0.603,-0.241 -0.213,-0.113 -0.142,-0.78 0.061,-0.843 0.202,-0.063 1.488,0.179 1.797,0.118 0.31,-0.062 0.039,-0.627 0.492,-0.781 0.453,-0.154 0.928,0.071 1.326,-0.181 0.396,-0.251 0.583,0.704 1.204,0.663 0.621,-0.041 -0.224,0.537 0,0.843 0.225,0.306 0.551,0.695 0.904,0.362 0.353,-0.333 0.786,-0.757 1.145,-0.784 0.357,-0.025 1.024,0.562 1.386,0.784 0.362,0.222 -0.331,0.514 -0.362,0.904 -0.031,0.39 0.201,0.613 0.482,0.482 0.282,-0.132 0.495,-0.436 0.904,-0.482 0.408,-0.046 0.527,0.938 0.964,0.783 0.437,-0.155 1.066,-0.207 1.446,-0.181 0.38,0.026 -0.26,0.463 0.06,0.543 0.323,0.077 0.454,0.046 0.725,0.359 L 0,0 Z" /></g><g
           transform="translate(35.2968,22.886)"
           id="g112"><path
             id="path114"
             style="fill:#1d81a4;fill-opacity:1;fill-rule:nonzero;stroke:none"
             d="M 0,0 C -0.204,0.448 -0.124,0.802 -0.422,0.843 -0.72,0.885 -0.812,1.003 -0.964,0.963 -1.117,0.925 -0.979,0.597 -1.325,0.603 -1.673,0.608 -1.346,1.166 -1.747,1.144 -2.149,1.123 -2.443,1.165 -2.771,1.084 -3.102,1.004 -3.174,1.288 -3.495,1.265 -3.816,1.242 -3.457,1.002 -3.736,0.904 -4.014,0.805 -4.191,0.921 -4.519,0.843 c -0.33,-0.077 0.123,-1.02 -0.302,-1.084 -0.423,-0.065 0.037,-0.625 0.362,-0.602 0.326,0.022 0.244,0.468 0.542,0.481 0.299,0.014 0.557,-0.306 0.904,-0.481 0.348,-0.177 0.665,0.457 0.843,0.18 0.18,-0.278 0.518,-0.168 0.905,-0.361 0.387,-0.194 1.47,0.576 1.266,1.024 L 0,0 Z" /></g><g
           transform="translate(35.6583,21.1388)"
           id="g116"><path
             id="path118"
             style="fill:#1d81a4;fill-opacity:1;fill-rule:nonzero;stroke:none"
             d="m 0,0 c 0.323,-0.164 0.432,-0.57 0.06,-0.784 -0.372,-0.214 -1.254,0.092 -1.567,-0.12 -0.312,-0.212 0.269,-0.561 -0.18,-0.783 -0.451,-0.223 -1.366,-0.022 -1.206,-0.242 0.16,-0.219 0.369,-0.303 0.543,-0.301 0.173,0.002 -0.048,-0.288 0.301,-0.301 0.349,-0.014 0.378,0.13 0.542,-0.12 0.163,-0.252 0.511,-0.276 -0.06,-0.422 -0.571,-0.147 -1.62,-0.211 -1.989,0 -0.368,0.21 -0.204,-0.462 -0.723,-0.543 -0.517,-0.08 -0.939,0.212 -1.204,0.483 -0.266,0.27 -0.467,-0.596 -0.783,-0.302 -0.316,0.294 -1.393,-0.05 -1.748,0.241 -0.354,0.291 -0.581,-0.219 -0.964,-0.301 -0.382,-0.082 -0.793,0.488 -1.024,0.362 -0.232,-0.126 -0.541,0.453 -0.784,0.421 -0.242,-0.032 0.686,-0.868 0.302,-1.084 -0.384,-0.217 -0.268,-0.022 -0.723,0 -0.455,0.021 0.01,-0.592 -0.361,-0.663 -0.372,-0.07 -0.401,-0.826 -0.724,-0.964 -0.323,-0.138 -0.326,0.106 -0.603,0.301 -0.275,0.196 0.442,0.905 0.242,1.205 -0.2,0.301 -0.491,0.104 -0.663,0.301 -0.172,0.198 -0.057,0.898 0.362,0.965 0.419,0.066 0.919,0.256 1.205,0.24 0.285,-0.015 -0.284,0.626 0.06,0.603 0.344,-0.023 0.791,0.264 1.024,0.121 0.233,-0.144 0.365,0.759 0.12,0.904 -0.243,0.143 -0.564,-0.184 -0.662,0 -0.098,0.182 0.273,0.503 0.662,0.481 0.391,-0.021 0.422,0.669 0.723,0.543 0.303,-0.126 1.081,0.737 1.386,0.662 0.306,-0.074 0.305,-0.573 0.603,-0.542 0.298,0.031 0.558,0.453 0.964,0.301 0.406,-0.151 0.446,-0.658 0.783,-0.662 0.337,-0.005 0.476,0.612 0.784,0.481 0.307,-0.129 0.546,0.378 0.843,0.423 0.298,0.044 0.591,-0.256 0.663,-0.543 0.071,-0.287 0.583,-0.11 0.844,0 0.259,0.11 -0.015,0.78 0.301,0.723 0.315,-0.057 0.252,0.629 0.542,0.663 0.29,0.034 0.115,-0.895 0.301,-1.144 C -1.622,0.352 -1.426,0.566 -1.266,0.241 -1.104,-0.085 -0.322,0.163 0.001,0 L 0,0 Z" /></g><g
           transform="translate(28.9101,19.4517)"
           id="g120"><path
             id="path122"
             style="fill:#1d81a4;fill-opacity:1;fill-rule:nonzero;stroke:none"
             d="M 0,0 C 0.368,-0.184 1.297,0.551 1.566,0.421 1.836,0.292 1.867,1.201 2.169,1.024 2.47,0.847 3.45,1.361 3.615,1.085 3.78,0.807 4.177,1.035 4.157,0.723 4.137,0.411 3.084,0.545 3.253,0.181 3.423,-0.184 3.732,-0.102 3.855,-0.362 3.979,-0.621 3.761,-0.907 3.374,-0.843 c -0.387,0.064 -0.872,-0.263 -1.205,0 -0.333,0.262 -0.357,-0.516 -0.663,-0.483 -0.305,0.033 -0.139,0.177 -0.301,0.362 -0.163,0.184 -0.574,-0.304 -0.964,0 -0.389,0.303 -1.393,-0.345 -1.506,-0.06 -0.113,0.284 0.482,0.567 0.481,0.783 0,0.216 -0.764,0.15 -0.421,0.361 0.342,0.21 0.838,0.063 1.206,-0.121 L 0,0 Z" /></g><g
           transform="translate(33.6696,16.3183)"
           id="g124"><path
             id="path126"
             style="fill:#1d81a4;fill-opacity:1;fill-rule:nonzero;stroke:none"
             d="M 0,0 C 0.291,0.012 0.429,0.564 0.241,0.843 0.052,1.124 -0.602,1.205 -0.602,1.205 L -1.085,0.843 -1.747,1.024 -2.711,1.326 -3.494,0.904 -4.278,0.723 c 0,0 -0.582,0.49 -0.904,0.723 C -5.503,1.679 -6.037,1.938 -6.266,1.868 -6.496,1.798 -6.369,1.41 -6.869,1.386 -7.369,1.361 -7.304,1.002 -7.833,0.904 -8.361,0.805 -8.56,1.289 -8.917,1.266 -9.274,1.242 -9.166,0.51 -9.34,0.241 c -0.173,-0.268 0.539,0.066 0.303,-0.18 -0.237,-0.247 -0.061,-0.663 -0.543,-0.723 -0.482,-0.061 -0.808,0.084 -1.084,0.241 -0.276,0.155 -0.334,-0.562 -0.603,-0.362 -0.269,0.199 -0.952,-0.164 -1.265,-0.12 -0.314,0.042 -0.331,-0.215 -0.362,-0.543 -0.031,-0.328 0.394,-0.77 0.242,-1.084 -0.154,-0.316 -0.662,-0.779 -0.845,-0.965 -0.182,-0.184 0.358,-0.868 0.664,-0.903 0.304,-0.035 0.261,0.275 0.602,0.12 0.34,-0.155 -0.056,-0.614 0.302,-0.663 0.356,-0.047 0.621,1.224 0.964,1.025 0.341,-0.199 0.796,0.108 1.005,-0.026 0.21,-0.134 -0.621,-0.348 -0.464,-0.697 0.158,-0.349 -0.396,-0.54 -0.06,-0.663 0.338,-0.123 0.434,0.292 0.723,0.301 0.288,0.01 0.319,0.061 0.482,-0.241 0.164,-0.302 0.451,-0.134 0.784,0 0.332,0.134 -0.048,0.435 0.301,0.542 0.349,0.108 0.583,-0.028 0.843,0 0.26,0.029 0.268,0.619 0.482,0.483 0.215,-0.137 0.15,-0.355 0.302,-0.603 0.151,-0.247 0.339,-0.034 0.602,-0.181 0.263,-0.146 0.429,-0.091 0.723,0 0.294,0.092 -0.329,0.357 0.181,0.482 0.51,0.125 0.341,0.113 0.723,0 0.382,-0.113 0.306,-0.493 0.603,-0.482 0.295,0.013 0.475,-0.372 0.722,-0.241 0.248,0.131 -0.163,0.636 0.181,0.542 0.344,-0.094 0.587,0.504 0.663,0.784 0.075,0.28 -0.569,-0.236 -0.603,0.06 -0.033,0.296 0.488,0.669 0.724,0.543 0.235,-0.128 0.294,0.089 0.602,0.12 0.308,0.031 -0.036,0.461 -0.241,0.663 -0.204,0.2 -0.207,0.196 -0.603,0 -0.396,-0.196 -0.484,0.447 -0.301,0.542 0.182,0.095 0.835,0.105 1.085,0.06 0.249,-0.044 0.119,-0.244 0.482,-0.422 0.362,-0.178 0.533,0.14 0.964,0.06 0.43,-0.079 0.257,0.57 0.542,0.543 0.285,-0.027 0.272,0.482 0.06,0.783 -0.212,0.302 -0.357,-0.143 -0.542,0 -0.186,0.143 -0.389,-0.426 -0.783,-0.241 -0.395,0.186 -0.698,-0.264 -0.844,0 -0.145,0.265 -0.381,0.138 -0.482,0.241 -0.101,0.103 -0.47,-0.426 -0.663,-0.241 -0.192,0.186 -0.785,-0.1 -1.024,0.241 -0.239,0.341 -1.346,-0.07 -1.567,-0.301 -0.22,-0.231 0.387,-0.58 0.302,-0.723 -0.085,-0.143 -0.449,0.144 -0.723,0.06 -0.275,-0.084 -0.294,0.452 -0.542,0.421 -0.249,-0.029 0.005,0.439 -0.241,0.483 -0.246,0.044 -0.312,0.285 -0.061,0.482 0.251,0.197 0.481,0.287 0.723,0.301 0.243,0.015 0.003,0.595 0.302,0.603 0.298,0.007 -0.014,0.319 0.301,0.361 0.313,0.043 0.861,-0.338 1.024,-0.723 0.164,-0.385 0.82,-0.299 1.265,-0.361 0.446,-0.064 0.323,0.387 0.603,0.301 0.28,-0.086 0.534,0.206 0.843,0 0.31,-0.206 0.503,0.251 0.784,0.241 0.277,-0.01 0.49,-0.192 0.781,-0.181 L 0,0 Z" /></g><g
           transform="translate(22.0408,14.4505)"
           id="g128"><path
             id="path130"
             style="fill:#1d81a4;fill-opacity:1;fill-rule:nonzero;stroke:none"
             d="M 0,0 C 0.37,0.094 0.724,0.759 0.964,0.784 1.204,0.808 1.255,0.309 1.567,0.361 1.879,0.414 2.11,0.96 2.47,0.904 2.831,0.849 3.046,0.434 3.435,0.482 3.824,0.53 4.335,0.023 4.218,-0.12 4.101,-0.263 3.484,-0.142 3.495,-0.361 3.506,-0.581 4.492,-0.505 4.158,-0.602 3.824,-0.699 4.45,-1.437 4.037,-1.386 3.625,-1.335 3.877,-1.845 3.314,-1.867 2.752,-1.891 3.233,-1.152 2.953,-1.145 2.672,-1.136 2.621,-1.6 2.17,-1.566 1.717,-1.533 2.091,-1.07 1.688,-1.024 1.283,-0.978 1.197,-1.234 0.784,-1.205 0.37,-1.176 0.181,-1.557 -0.181,-1.445 c -0.361,0.11 -0.111,0.732 0.181,0.783 0.292,0.051 -0.37,0.57 0,0.663 L 0,0 Z" /></g><g
           transform="translate(17.6942,19.1215)"
           id="g132"><path
             id="path134"
             style="fill:#1d81a4;fill-opacity:1;fill-rule:nonzero;stroke:none"
             d="m 0,0 0.362,0.482 c 0,0 0.324,0.087 0.714,0.093 0.392,0.006 -0.153,0.498 0,0.688 0.154,0.191 0.476,0.216 0.672,0.183 0.196,-0.032 -0.316,0.603 0,0.603 0.316,0 1.011,-0.036 0.723,0.181 C 2.183,2.446 3.073,2.712 2.953,2.953 2.832,3.194 2.555,3.347 2.23,3.254 1.905,3.16 1.784,2.66 1.506,2.712 1.23,2.763 1.098,3.033 1.024,3.375 0.951,3.716 0.323,3.601 0.181,3.917 0.039,4.231 -0.33,4.408 -0.602,4.458 -0.874,4.509 -0.618,4.081 -1.024,4.037 -1.429,3.994 -1.431,3.51 -1.807,3.434 -2.183,3.359 -1.335,2.613 -1.144,2.41 -0.953,2.207 -0.521,2.174 -0.301,2.29 -0.08,2.406 -0.278,3.024 -0.059,3.013 0.159,3.001 -0.033,2.414 0.241,2.41 0.516,2.406 0.237,1.32 -0.12,1.446 -0.477,1.573 -0.618,1.32 -1.024,1.446 -1.429,1.573 -1.701,0.986 -1.506,0.784 -1.31,0.581 -0.966,0.746 -0.602,0.664 -0.239,0.581 -0.888,0.214 -0.662,0 -0.437,-0.212 0,0.001 0,0.001 L 0,0 Z" /></g><g
           transform="translate(14.2684,24.9343)"
           id="g136"><path
             id="path138"
             style="fill:#1d81a4;fill-opacity:1;fill-rule:nonzero;stroke:none"
             d="m 0,0 c 0.404,0.048 0.082,0.724 0.362,0.723 0.28,-0.001 0.168,-0.118 0.482,0 0.315,0.118 -0.071,0.57 0.181,0.602 0.252,0.033 0.276,0.008 0.543,0 0.265,-0.007 0.221,0.778 0.482,0.663 0.259,-0.114 0.59,0.314 0.722,0 C 2.905,1.675 3.137,1.374 3.616,1.386 4.095,1.397 4.272,2.021 4.639,1.868 5.008,1.714 5.536,2.055 5.827,1.725 6.118,1.397 6.504,1.691 6.689,1.386 6.873,1.08 7.763,1.576 7.893,1.507 8.024,1.437 8.403,0.437 8.134,0.361 7.866,0.286 7.591,0.08 7.352,0.361 7.112,0.643 6.492,0.608 6.207,0.844 5.921,1.08 5.924,0.071 5.664,0 5.405,-0.072 5.113,0.274 4.941,0.181 4.77,0.088 5.764,-0.216 5.604,-0.421 5.445,-0.627 5.11,-1.019 4.821,-0.783 4.531,-0.547 3.977,-0.722 3.676,-0.482 3.375,-0.24 3.602,-0.862 3.194,-0.843 2.785,-0.825 2.386,-1.752 2.11,-1.567 1.833,-1.381 1.008,-2.115 0.904,-1.807 0.801,-1.5 0.241,-1.446 0.241,-1.205 c 0,0.241 -0.649,0.346 -0.421,0.483 0.227,0.135 -0.223,0.675 0.181,0.723 L 0,0 Z" /></g><g
           transform="translate(15.7746,25.4767)"
           id="g140"><path
             id="path142"
             style="fill:#1d81a4;fill-opacity:1;fill-rule:nonzero;stroke:none"
             d="m 0,0 c 0.208,-0.216 0.445,0.221 0.664,0.181 0.218,-0.04 0.107,-0.407 0.361,-0.422 0.254,-0.015 0.4,0.462 0.843,0.422 0.443,-0.04 0.963,-0.33 0.664,-0.542 -0.3,-0.213 -0.352,-0.875 -0.664,-0.663 -0.311,0.212 -0.42,0.23 -0.723,0.241 -0.302,0.011 -0.31,-0.536 -0.722,-0.361 -0.414,0.173 -0.76,0.272 -0.904,0.421 -0.144,0.15 0.275,0.939 0.482,0.724 L 0,0 Z" /></g></g></g></g></svg>