<?xml version="1.0" encoding="UTF-8" standalone="no"?>
<svg
   xmlns:dc="http://purl.org/dc/elements/1.1/"
   xmlns:cc="http://creativecommons.org/ns#"
   xmlns:rdf="http://www.w3.org/1999/02/22-rdf-syntax-ns#"
   xmlns:svg="http://www.w3.org/2000/svg"
   xmlns="http://www.w3.org/2000/svg"
   viewBox="0 0 54.705734 54.710266"
   height="54.710266"
   width="54.705734"
   xml:space="preserve"
   version="1.1"
   id="svg2"><metadata
     id="metadata8"><rdf:RDF><cc:Work
         rdf:about=""><dc:format>image/svg+xml</dc:format><dc:type
           rdf:resource="http://purl.org/dc/dcmitype/StillImage" /></cc:Work></rdf:RDF></metadata><defs
     id="defs6"><clipPath
       id="clipPath16"
       clipPathUnits="userSpaceOnUse"><path
         id="path18"
         d="m 0,41.033 41.029,0 L 41.029,0 0,0 0,41.033 Z" /></clipPath><clipPath
       id="clipPath72"
       clipPathUnits="userSpaceOnUse"><path
         id="path74"
         d="m 30.76,15.91 c -2.202,0.031 -3.944,2.659 -3.944,2.659 l 0,0 c 0,0 -2.314,-2.659 -4.29,-2.659 l 0,0 c -2.283,-0.007 -4.065,2.659 -4.065,2.659 l 0,0 c 0,0 -1.461,-2.622 -4.086,-2.659 l 0,0 c -2.63,-0.03 -4.255,2.659 -4.255,2.659 l 0,0 c 0,0 -1.872,-2.74 -4.263,-2.659 l 0,0 C 3.466,15.988 1.85,15.886 1.85,15.886 l 0,0 1.184,-4.502 c 0,0 7.112,-10.394 18.677,-10.394 l 0,0 c 11.566,0 16.411,10.864 16.411,10.864 l 0,0 c 0.024,2.196 1.826,2.607 0.882,4.056 l 0,0 c -1.66,-0.007 -3.957,2.659 -3.957,2.659 l 0,0 c 0,0 -1.66,-2.699 -4.287,-2.659" /></clipPath><linearGradient
       id="linearGradient80"
       spreadMethod="pad"
       gradientTransform="matrix(-12.561037,21.75635,21.75635,12.561037,27.819336,1.8710937)"
       gradientUnits="userSpaceOnUse"
       y2="0"
       x2="1"
       y1="0"
       x1="0"><stop
         id="stop82"
         offset="0"
         style="stop-opacity:1;stop-color:#00779b" /><stop
         id="stop84"
         offset="0.241171"
         style="stop-opacity:1;stop-color:#00779b" /><stop
         id="stop86"
         offset="0.353914"
         style="stop-opacity:1;stop-color:#408cad" /><stop
         id="stop88"
         offset="0.460479"
         style="stop-opacity:1;stop-color:#5998b7" /><stop
         id="stop90"
         offset="0.734813"
         style="stop-opacity:1;stop-color:#89b4cc" /><stop
         id="stop92"
         offset="1"
         style="stop-opacity:1;stop-color:#89b4cc" /></linearGradient><clipPath
       id="clipPath100"
       clipPathUnits="userSpaceOnUse"><path
         id="path102"
         d="m 0,41.033 41.029,0 L 41.029,0 0,0 0,41.033 Z" /></clipPath></defs><g
     transform="matrix(1.3333333,0,0,-1.3333333,0,54.710267)"
     id="g10"><g
       id="g12"><g
         clip-path="url(#clipPath16)"
         id="g14"><g
           transform="translate(39.4961,20.332)"
           id="g20"><path
             id="path22"
             style="fill:#ffffff;fill-opacity:1;fill-rule:nonzero;stroke:none"
             d="m 0,0 c 0,-10.436 -8.46,-18.895 -18.895,-18.895 -10.435,0 -18.894,8.459 -18.894,18.895 0,10.434 8.459,18.892 18.894,18.892 C -8.46,18.892 0,10.434 0,0" /></g><g
           transform="translate(17.9336,29.2813)"
           id="g24"><path
             id="path26"
             style="fill:#1d81a4;fill-opacity:1;fill-rule:nonzero;stroke:none"
             d="m 0,0 c 0.041,-0.01 0.082,-0.083 0.117,-0.119 0.042,-0.042 0.097,-0.092 0.145,-0.128 0.122,-0.088 0.222,-0.116 0.362,-0.116 0.26,0.001 0.52,0.013 0.776,-0.022 0.499,-0.065 1.039,-0.185 1.513,-0.396 0.06,-0.024 0.159,-0.074 0.22,-0.081 0.098,-0.016 0.166,0.11 0.26,0.154 0.188,0.094 0.394,0.064 0.576,0.009 0.225,-0.066 0.357,-0.097 0.577,-0.009 0.087,0.036 0.191,0.04 0.15,0.179 C 4.665,-0.417 4.528,-0.403 4.446,-0.37 4.192,-0.274 4.008,-0.321 3.754,-0.409 3.8,-0.165 4.157,0.034 4.347,0.034 4.235,0.208 3.864,0.315 3.704,0.337 3.492,0.371 3.193,0.321 2.981,0.365 c -0.182,0.042 -0.182,0 -0.377,0 -0.223,0 -0.435,0.093 -0.65,0.093 C 1.895,0.458 1.809,0.46 1.735,0.417 1.661,0.369 1.59,0.299 1.515,0.249 1.383,0.166 1.185,0.034 1.032,0.113 0.856,0.206 0.805,0.422 0.576,0.387 0.506,0.377 0.42,0.365 0.358,0.339 0.287,0.31 0,0 0,0" /></g><g
           transform="translate(20.1924,28.7202)"
           id="g28"><path
             id="path30"
             style="fill:#1d81a4;fill-opacity:1;fill-rule:nonzero;stroke:none"
             d="M 0,0 C 0,0 0.773,-0.194 0.965,-0.363 1.158,-0.534 2.384,-2.048 3.204,-2.92 4.02,-3.791 5.15,-5.392 5.562,-6.963 c 0.193,-0.678 0.289,-1.519 0.362,-1.689 0.07,-0.166 0.095,-0.207 0.216,-0.181 0.12,0.028 0.169,0.015 0.215,0.24 0.049,0.224 -0.783,2.584 -1.192,3.399 -0.406,0.815 -1.745,2.358 -2.37,3.062 -0.625,0.7 -1.539,1.641 -1.78,1.809 C 0.773,-0.154 0,0 0,0" /></g><g
           transform="translate(34.9336,30.7676)"
           id="g32"><path
             id="path34"
             style="fill:#1d81a4;fill-opacity:1;fill-rule:nonzero;stroke:none"
             d="M 0,0 C -0.035,-0.021 -0.056,-0.103 -0.079,-0.148 -0.109,-0.2 -0.147,-0.264 -0.183,-0.311 -0.276,-0.43 -0.364,-0.484 -0.498,-0.522 -0.748,-0.593 -1.002,-0.656 -1.238,-0.759 -1.699,-0.96 -2.185,-1.227 -2.58,-1.56 -2.631,-1.6 -2.713,-1.677 -2.769,-1.701 c -0.091,-0.041 -0.19,0.061 -0.293,0.079 -0.208,0.035 -0.397,-0.05 -0.556,-0.152 -0.198,-0.128 -0.317,-0.194 -0.554,-0.17 -0.092,0.011 -0.193,-0.015 -0.191,0.129 -0.002,0.117 0.124,0.169 0.195,0.222 0.218,0.164 0.407,0.169 0.675,0.155 -0.111,0.222 -0.511,0.315 -0.693,0.262 0.06,0.197 0.386,0.405 0.535,0.469 0.194,0.094 0.494,0.126 0.685,0.229 0.165,0.092 0.176,0.05 0.363,0.104 0.215,0.062 0.39,0.21 0.598,0.27 0.058,0.016 0.14,0.042 0.222,0.022 0.084,-0.026 0.173,-0.074 0.261,-0.1 0.148,-0.043 0.375,-0.115 0.499,0.002 0.143,0.139 0.133,0.362 0.363,0.391 0.07,0.01 0.155,0.022 0.222,0.015 C -0.362,0.217 0,0 0,0" /></g><g
           transform="translate(32.9209,29.5996)"
           id="g36"><path
             id="path38"
             style="fill:#1d81a4;fill-opacity:1;fill-rule:nonzero;stroke:none"
             d="m 0,0 c 0,0 -0.688,-0.401 -0.827,-0.617 -0.137,-0.216 -0.895,-2.013 -1.442,-3.078 -0.54,-1.063 -1.181,-2.916 -1.14,-4.539 0.003,-0.704 0.145,-1.538 0.121,-1.724 -0.02,-0.178 -0.033,-0.226 -0.156,-0.233 -0.123,-0.005 -0.167,-0.033 -0.274,0.17 -0.109,0.205 0.034,2.699 0.201,3.597 0.164,0.897 1.021,2.749 1.426,3.6 0.404,0.846 1.023,2.006 1.208,2.232 C -0.7,-0.361 0,0 0,0" /></g><g
           transform="translate(26.9189,30.8774)"
           id="g40"><path
             id="path42"
             style="fill:#1d81a4;fill-opacity:1;fill-rule:nonzero;stroke:none"
             d="m 0,0 c -0.049,0.028 -0.079,0.173 -0.136,0.228 -0.069,0.071 -0.166,0.103 -0.24,0.168 -0.178,0.162 -0.082,0.351 -0.05,0.562 0.045,0.274 0.045,0.54 0.068,0.812 0.021,0.236 0.026,0.517 0.114,0.723 0.103,0.249 0.237,0.511 0.373,0.741 C 0.284,3.499 0.39,3.809 0.525,4.099 0.675,4.412 0.899,4.647 1.133,4.87 1.214,4.946 1.304,5.018 1.371,5.109 1.42,5.178 1.451,5.29 1.499,5.348 1.46,5.074 1.727,5.073 1.89,5.006 2.125,4.914 2.232,4.617 2.317,4.371 2.402,4.131 2.505,3.896 2.595,3.653 2.695,3.377 2.849,3.133 2.893,2.839 2.909,2.733 2.964,2.628 2.947,2.535 2.931,2.435 2.838,2.338 2.79,2.255 2.722,2.142 2.645,2.021 2.609,1.884 2.574,1.753 2.62,1.64 2.606,1.516 2.593,1.382 2.517,1.316 2.546,1.166 2.566,1.048 2.62,0.926 2.65,0.811 2.676,0.708 2.695,0.586 2.654,0.491 2.618,0.401 2.567,0.345 2.567,0.231 2.563,0.085 2.606,-0.062 2.515,-0.185 2.442,-0.275 2.278,-0.333 2.165,-0.317 2.065,-0.305 1.926,-0.139 1.857,-0.05 1.765,0.07 1.688,0.229 1.58,0.333 1.403,0.5 1.082,0.419 0.896,0.338 0.796,0.295 0.685,0.234 0.576,0.202 0.481,0.173 0,0 0,0" /></g><g
           transform="translate(28.4658,35.6377)"
           id="g44"><path
             id="path46"
             style="fill:#1d81a4;fill-opacity:1;fill-rule:nonzero;stroke:none"
             d="m 0,0 c 0,0 0.004,-1.589 -0.09,-3.027 -0.093,-1.436 -0.709,-5.455 -0.946,-7.426 -0.239,-1.968 -0.633,-5.386 -0.525,-5.769 0.106,-0.381 0.391,-0.249 0.499,0.307 0.11,0.558 0.267,3.37 0.297,5.052 0.03,1.681 0.827,6.639 0.825,7.917 C 0.051,-1.667 -0.004,0 -0.004,0 L 0,0 Z" /></g><g
           transform="translate(25.21,29.4019)"
           id="g48"><path
             id="path50"
             style="fill:#1d81a4;fill-opacity:1;fill-rule:nonzero;stroke:none"
             d="m 0,0 c 0.041,0.028 0.057,0.164 0.104,0.217 0.061,0.07 0.143,0.105 0.207,0.169 0.147,0.155 0.044,0.323 0,0.515 C 0.25,1.151 0.228,1.393 0.187,1.639 0.148,1.856 0.121,2.113 0.027,2.295 -0.09,2.52 -0.229,2.75 -0.37,2.952 -0.535,3.187 -0.654,3.464 -0.802,3.722 -0.962,4.002 -1.183,4.203 -1.415,4.396 -1.494,4.46 -1.582,4.521 -1.648,4.603 -1.699,4.662 -1.738,4.761 -1.787,4.815 -1.728,4.563 -1.971,4.546 -2.115,4.478 -2.322,4.382 -2.396,4.101 -2.457,3.872 -2.513,3.649 -2.589,3.429 -2.651,3.2 -2.722,2.94 -2.845,2.708 -2.862,2.438 -2.867,2.34 -2.908,2.241 -2.886,2.156 -2.862,2.069 -2.774,1.983 -2.721,1.911 -2.651,1.812 -2.569,1.702 -2.526,1.583 -2.484,1.463 -2.518,1.357 -2.496,1.243 -2.475,1.122 -2.399,1.062 -2.411,0.924 -2.423,0.818 -2.459,0.706 -2.482,0.599 -2.496,0.498 -2.504,0.387 -2.459,0.304 c 0.04,-0.083 0.088,-0.128 0.098,-0.234 0.013,-0.136 -0.013,-0.27 0.082,-0.377 0.073,-0.079 0.226,-0.123 0.329,-0.103 0.09,0.018 0.204,0.177 0.26,0.262 0.072,0.114 0.132,0.266 0.224,0.365 0.148,0.166 0.444,0.109 0.623,0.047 C -0.748,0.226 -0.642,0.179 -0.54,0.154 -0.45,0.135 0,0 0,0" /></g><g
           transform="translate(23.2773,33.6104)"
           id="g52"><path
             id="path54"
             style="fill:#1d81a4;fill-opacity:1;fill-rule:nonzero;stroke:none"
             d="m 0,0 c 0,0 0.224,-1.44 0.512,-2.727 0.292,-1.281 1.031,-4.829 1.531,-6.575 0.503,-1.749 0.457,-4.396 0.413,-4.755 -0.043,-0.363 -0.317,-0.287 -0.496,0.202 -0.179,0.489 0.166,2.624 -0.101,4.143 -0.27,1.513 -1.31,5.88 -1.489,7.035 C 0.19,-1.517 0,0 0,0" /></g><g
           transform="translate(28.7217,26.0952)"
           id="g56"><path
             id="path58"
             style="fill:#1d81a4;fill-opacity:1;fill-rule:nonzero;stroke:none"
             d="M 0,0 C 0.036,0.034 0.03,0.172 0.068,0.231 0.117,0.311 0.193,0.358 0.245,0.43 0.366,0.606 0.24,0.757 0.164,0.938 0.064,1.176 0.006,1.412 -0.075,1.647 -0.146,1.856 -0.216,2.104 -0.337,2.27 -0.486,2.473 -0.661,2.679 -0.834,2.856 -1.033,3.063 -1.193,3.317 -1.38,3.548 -1.582,3.797 -1.833,3.962 -2.093,4.115 -2.18,4.167 -2.277,4.214 -2.355,4.282 -2.415,4.333 -2.469,4.424 -2.525,4.471 -2.428,4.232 -2.666,4.177 -2.798,4.085 -2.985,3.958 -3.015,3.669 -3.039,3.432 -3.059,3.205 -3.099,2.975 -3.125,2.74 -3.154,2.473 -3.238,2.224 -3.213,1.954 -3.201,1.857 -3.226,1.75 -3.19,1.67 -3.154,1.59 -3.052,1.52 -2.988,1.456 -2.905,1.37 -2.807,1.274 -2.745,1.162 -2.686,1.052 -2.701,0.943 -2.661,0.833 -2.62,0.716 -2.537,0.669 -2.528,0.531 -2.522,0.424 -2.54,0.307 -2.545,0.198 c 10e-4,-0.102 0.011,-0.213 0.068,-0.286 0.055,-0.077 0.108,-0.114 0.135,-0.219 0.033,-0.13 0.03,-0.267 0.14,-0.358 0.084,-0.066 0.243,-0.085 0.341,-0.049 0.086,0.033 0.175,0.206 0.216,0.301 0.055,0.123 0.088,0.284 0.164,0.395 0.119,0.186 0.419,0.178 0.607,0.143 C -0.773,0.104 -0.662,0.073 -0.56,0.066 -0.466,0.06 0,0 0,0" /></g><g
           transform="translate(26.5508,29.3652)"
           id="g60"><path
             id="path62"
             style="fill:#1d81a4;fill-opacity:1;fill-rule:nonzero;stroke:none"
             d="M 0,0 C 0,0 0.45,-1.388 0.939,-2.612 1.429,-3.832 1.345,-3.57 2.114,-5.216 2.888,-6.862 3.261,-9.485 3.273,-9.845 3.289,-10.21 3.005,-10.179 2.752,-9.726 2.498,-9.269 2.501,-7.107 1.999,-5.649 1.491,-4.198 1.148,-3.696 0.79,-2.584 0.429,-1.469 -0.189,0.471 -0.189,0.471 L 0,0 Z" /></g><g
           transform="translate(28.3809,13.1294)"
           id="g64"><path
             id="path66"
             style="fill:#1d81a4;fill-opacity:1;fill-rule:nonzero;stroke:none"
             d="m 0,0 c -3.135,2.487 -7.588,5.405 -7.919,6.877 -0.729,3.243 -7.712,2.784 -8.44,4.194 -0.729,1.41 1.494,0.423 2.969,2.579 1.243,1.815 -2.317,2.478 -3.126,3.126 -0.808,0.644 2.062,1.295 2.344,2.344 0.283,1.049 -1.586,0.886 -2.969,2.11 -1.042,0.923 -0.185,1.846 -0.137,2.651 0.047,0.808 -2.541,-1.725 -2.663,-2.605 -0.12,-0.879 1.104,-1.224 1.456,-2.169 0.443,-1.2 -2.13,-0.973 -1.968,-2.494 0.162,-1.521 2.911,-0.781 2.886,-2.507 -0.029,-1.726 -4.588,-0.862 -4.107,-3.035 0.48,-2.176 5.526,-1.904 5.755,-3.959 0.411,-3.674 -1.11,-3.61 -4.012,-3.864 L -14.718,0.373 0,0 Z" /></g></g></g><g
       id="g68"><g
         clip-path="url(#clipPath72)"
         id="g70"><g
           id="g76"><g
             id="g78"><path
               id="path94"
               style="fill:url(#linearGradient80);stroke:none"
               d="m 30.76,15.91 c -2.202,0.031 -3.944,2.659 -3.944,2.659 l 0,0 c 0,0 -2.314,-2.659 -4.29,-2.659 l 0,0 c -2.283,-0.007 -4.065,2.659 -4.065,2.659 l 0,0 c 0,0 -1.461,-2.622 -4.086,-2.659 l 0,0 c -2.63,-0.03 -4.255,2.659 -4.255,2.659 l 0,0 c 0,0 -1.872,-2.74 -4.263,-2.659 l 0,0 C 3.466,15.988 1.85,15.886 1.85,15.886 l 0,0 1.184,-4.502 c 0,0 7.112,-10.394 18.677,-10.394 l 0,0 c 11.566,0 16.411,10.864 16.411,10.864 l 0,0 c 0.024,2.196 1.826,2.607 0.882,4.056 l 0,0 c -1.66,-0.007 -3.957,2.659 -3.957,2.659 l 0,0 c 0,0 -1.66,-2.699 -4.287,-2.659" /></g></g></g></g><g
       id="g96"><g
         clip-path="url(#clipPath100)"
         id="g98"><g
           transform="translate(21.2065,7.7568)"
           id="g104"><path
             id="path106"
             style="fill:#ffffff;fill-opacity:1;fill-rule:nonzero;stroke:none"
             d="m 0,0 c 0.21,-0.294 0.67,-0.934 0.751,-0.908 0.099,0.037 0.051,0.091 0.075,0.125 0.212,0.337 0.451,0.518 0.635,0.617 C 1.922,-0.265 2.291,-0.39 2.575,-0.535 3.078,-1.084 3.954,-2.041 4.042,-2.009 4.127,-1.976 3.25,-0.703 3.281,-0.448 3.312,-0.197 3.959,0.21 3.844,0.396 3.74,0.582 3.264,0.283 2.643,0.55 2.254,0.714 1.526,1.287 0.679,1.892 0.508,2.245 0.091,3.13 0.082,3.427 0.029,3.629 0.091,3.59 0.039,3.608 -0.012,3.618 -0.39,3.012 -0.565,2.718 -0.701,2.798 -0.835,2.878 -0.967,2.95 -2.456,3.752 -4.532,3.18 -4.531,2.82 -4.55,2.683 -4.63,1.627 -1.34,0.312 -1.168,0.056 -0.835,-0.413 -0.757,-0.429 -0.692,-0.446 -0.831,-0.094 -0.942,0.159 -0.819,0.112 -0.708,0.07 -0.578,0.024 -0.364,0.024 -0.191,0.008 0,0" /></g><g
           transform="translate(20.5176,38.874)"
           id="g108"><path
             id="path110"
             style="fill:#737577;fill-opacity:1;fill-rule:nonzero;stroke:none"
             d="m 0,0 c -10.123,0 -18.359,-8.236 -18.359,-18.358 0,-10.121 8.236,-18.359 18.359,-18.359 10.122,0 18.356,8.238 18.356,18.359 C 18.356,-8.236 10.122,0 0,0 m 0,-38.876 c -11.314,0 -20.518,9.205 -20.518,20.518 0,11.312 9.204,20.517 20.518,20.517 11.313,0 20.516,-9.205 20.516,-20.517 0,-11.313 -9.203,-20.518 -20.516,-20.518" /></g></g></g></g></svg>