<?xml version="1.0" encoding="UTF-8" standalone="no"?>
<svg
   xmlns:dc="http://purl.org/dc/elements/1.1/"
   xmlns:cc="http://creativecommons.org/ns#"
   xmlns:rdf="http://www.w3.org/1999/02/22-rdf-syntax-ns#"
   xmlns:svg="http://www.w3.org/2000/svg"
   xmlns="http://www.w3.org/2000/svg"
   viewBox="0 0 54.705734 54.710266"
   height="54.710266"
   width="54.705734"
   xml:space="preserve"
   version="1.1"
   id="svg2"><metadata
     id="metadata8"><rdf:RDF><cc:Work
         rdf:about=""><dc:format>image/svg+xml</dc:format><dc:type
           rdf:resource="http://purl.org/dc/dcmitype/StillImage" /></cc:Work></rdf:RDF></metadata><defs
     id="defs6"><clipPath
       id="clipPath16"
       clipPathUnits="userSpaceOnUse"><path
         id="path18"
         d="m 0,41.033 41.029,0 L 41.029,0 0,0 0,41.033 Z" /></clipPath><clipPath
       id="clipPath40"
       clipPathUnits="userSpaceOnUse"><path
         id="path42"
         d="m 22.708,20.964 c -0.095,-0.204 -0.181,-0.474 -0.2,-0.613 l 0,0 c -0.005,-0.144 0.207,-0.528 0.339,-1.275 l 0,0 c 0.138,-0.752 0.288,-1.881 0.403,-2.033 l 0,0 c 0.101,-0.131 0.207,-0.116 0.436,-0.262 l 0,0 c 0.117,-0.082 0.2,-0.23 0.339,-0.287 l 0,0 c 0.144,-0.062 0.64,-0.221 0.569,-0.116 l 0,0 c -0.071,0.109 -0.721,0.458 -0.501,0.46 l 0,0 c 0.222,-0.002 0.208,-0.042 0.482,-0.098 l 0,0 c 0.279,-0.057 1.102,-0.157 1.067,-0.077 l 0,0 c -0.039,0.078 -0.964,0.291 -1.224,0.359 l 0,0 c -0.256,0.07 -0.297,0.045 -0.561,0.262 l 0,0 c -0.263,0.214 -0.643,2.385 -0.631,2.524 l 0,0 c 0.008,0.143 0.04,0.167 0.056,0.325 l 0,0 c 0.012,0.161 -0.009,0.141 -0.069,0.294 l 0,0 c -0.06,0.159 0.053,0.71 0.053,0.71 l 0,0 -0.151,0.406 -0.244,0.015 c 0,0 -0.071,-0.402 -0.163,-0.594" /></clipPath><clipPath
       id="clipPath52"
       clipPathUnits="userSpaceOnUse"><path
         id="path54"
         d="m 0,41.033 41.029,0 L 41.029,0 0,0 0,41.033 Z" /></clipPath><clipPath
       id="clipPath68"
       clipPathUnits="userSpaceOnUse"><path
         id="path70"
         d="m 21.377,21.428 c 0,0 -0.073,-0.272 -0.235,-0.442 l 0,0 C 20.985,20.822 20.724,20.71 20.64,20.551 l 0,0 c -0.089,-0.166 -0.117,-0.393 -0.204,-0.738 l 0,0 C 20.351,19.47 20.072,18.734 19.859,18.29 l 0,0 c -0.22,-0.447 -0.436,-0.633 -0.48,-0.859 l 0,0 c -0.046,-0.224 -0.062,-0.566 0.02,-0.621 l 0,0 c 0.075,-0.048 0.215,-0.077 0.286,-0.091 l 0,0 c 0.03,-0.006 0.038,0.061 0.045,0.127 l 0,0 c 0.009,0.075 0.017,0.15 0.06,0.122 l 0,0 c 0.077,-0.05 0.126,-0.261 0.256,-0.414 l 0,0 c 0.136,-0.152 0.34,-0.106 0.627,-0.199 l 0,0 c 0.292,-0.096 0.503,-0.118 0.565,-0.079 l 0,0 c 0.062,0.044 -0.808,0.398 -0.789,0.486 l 0,0 c 0.018,0.088 0.206,0.043 0.399,0.091 l 0,0 c 0.188,0.053 0.234,0.089 0.417,0.088 l 0,0 c 0.176,0.001 0.271,0.008 0.384,0.039 l 0,0 c 0.114,0.031 0.253,0.084 0.232,0.161 l 0,0 c -0.023,0.076 -0.177,0.113 -0.343,0.094 l 0,0 c -0.165,-0.021 -0.553,-0.128 -0.874,-0.121 l 0,0 c -0.32,0.011 -0.41,0.011 -0.469,0.081 l 0,0 c -0.06,0.063 -0.056,0.171 -0.085,0.289 l 0,0 c -0.032,0.11 0.104,0.698 0.282,1.058 l 0,0 c 0.184,0.362 0.449,1.047 0.503,1.127 l 0,0 c 0.049,0.076 0.179,0.082 0.251,0.175 l 0,0 c 0.073,0.094 0.066,0.318 0.162,0.535 l 0,0 c 0.098,0.215 0.359,0.523 0.359,0.523 l 0,0 0.091,0.718 -0.381,-0.192 z" /></clipPath><clipPath
       id="clipPath80"
       clipPathUnits="userSpaceOnUse"><path
         id="path82"
         d="m 0,41.033 41.029,0 L 41.029,0 0,0 0,41.033 Z" /></clipPath><clipPath
       id="clipPath96"
       clipPathUnits="userSpaceOnUse"><path
         id="path98"
         d="m 23.163,21.969 -0.42,-0.455 c 0.025,-0.01 0.049,-0.009 0.073,-0.007 l 0,0 c 0.022,0.002 0.047,0.004 0.072,-0.004 l 0,0 c 0.046,-0.015 0.076,-0.069 0.11,-0.096 l 0,0 c 0.017,-0.016 0.035,0 0.053,-0.027 l 0,0 c 0.015,-0.024 -0.005,-0.077 0.01,-0.11 l 0,0 c 0.018,-0.044 0.07,-0.071 0.1,-0.117 l 0,0 c 0.038,-0.07 0.016,-0.263 0.112,-0.127 l 0,0 c 0.077,0.107 0.12,0.244 0.186,0.358 l 0,0 c 0.049,0.077 0.102,0.149 0.188,0.174 l 0,0 c 0.108,0.04 0.235,0.049 0.343,0.101 l 0,0 c 0.139,0.059 0.312,0.117 0.423,0.234 l 0,0 c 0.08,0.085 0.113,0.184 0.179,0.273 l 0,0 -1.429,-0.197 z" /></clipPath><clipPath
       id="clipPath108"
       clipPathUnits="userSpaceOnUse"><path
         id="path110"
         d="m 0,41.033 41.029,0 L 41.029,0 0,0 0,41.033 Z" /></clipPath><clipPath
       id="clipPath124"
       clipPathUnits="userSpaceOnUse"><path
         id="path126"
         d="m 23.535,25.502 -7.8,-1.725 c -0.02,-0.01 -0.041,-0.007 -0.06,-0.004 l 0,0 c -0.01,0.001 -0.019,0.003 -0.028,0.003 l 0,0 c -0.052,0.001 -0.088,-0.015 -0.133,-0.021 l 0,0 c -0.055,-0.007 -0.192,0.006 -0.237,-0.032 l 0,0 c -0.072,-0.062 0.292,-0.205 0.318,-0.291 l 0,0 c -0.072,-0.033 -0.15,-0.015 -0.227,-0.027 l 0,0 c -0.075,-0.009 -0.15,10e-4 -0.229,-0.022 l 0,0 c -0.076,-0.024 -0.144,-0.049 -0.206,-0.088 l 0,0 c -0.05,-0.034 -0.11,-0.09 -0.169,-0.113 l 0,0 1.067,0.092 1.558,-0.406 0,-0.002 c 0,0 0.418,-0.152 0.496,-0.212 l 0,0 c -0.026,-0.13 0.083,-0.126 0.173,-0.157 l 0,0 c 0.066,-0.02 0.122,-0.058 0.193,-0.073 l 0,0 c 0.069,-0.018 0.132,-0.024 0.191,-0.045 l 0,0 C 18.44,22.362 18.443,22.335 18.44,22.314 l 0,0 c 0.121,-0.041 0.255,-0.019 0.382,-0.063 l 0,0 c 0.111,-0.046 0.199,-0.147 0.289,-0.238 l 0,0 c 0.108,-0.107 0.22,-0.132 0.363,-0.091 l 0,0 c 0.077,0.022 0.137,0.055 0.214,0.07 l 0,0 c 0.083,0.013 0.173,0.028 0.257,0.029 l 0,0 c 0.115,-0.001 0.234,-0.044 0.344,-0.065 l 0,0 c 0.109,-0.021 0.213,-0.045 0.31,-0.083 l 0,0 c 0.158,-0.058 0.324,-0.1 0.474,-0.168 l 0,0 c 0.073,-0.03 0.258,-0.094 0.283,-0.186 l 0,0 c 0.014,-0.062 -0.04,-0.092 -0.058,-0.131 l 0,0 c -0.014,-0.043 -0.051,-0.126 -0.056,-0.166 l 0,0 0.107,0.067 c 0.044,0.082 0.213,0.179 0.295,0.209 l 0,0 c 0.027,-0.049 -0.013,-0.118 -0.013,-0.172 l 0,0 c 0.092,-0.017 -0.026,-0.173 -0.034,-0.231 l 0,0 c -0.005,-0.068 -0.014,-0.139 -0.025,-0.209 l 0,0 c 0.016,-10e-4 0.035,-0.015 0.052,-0.017 l 0,0 c 0.003,-0.055 -0.039,-0.111 -0.051,-0.166 l 0,0 c -0.011,-0.06 -0.001,-0.11 -0.017,-0.172 l 0,0 c 0.04,0.118 0.103,0.194 0.186,0.283 l 0,0 c 0.071,0.081 0.132,0.186 0.208,0.26 l 0,0 c 0.117,0.102 0.267,0.127 0.399,0.188 l 0,0 c -0.008,-0.071 -0.077,-0.113 -0.115,-0.166 l 0,0 c 0.065,0.027 0.129,0.105 0.187,0.157 l 0,0 c 0.066,0.053 0.121,0.112 0.19,0.159 l 0,0 c 0.082,0.057 0.174,0.098 0.26,0.146 l 0,0 c 0.102,0.055 0.196,0.119 0.305,0.172 l 0,0 c 0.178,0.086 0.351,0.143 0.545,0.177 l 0,0 c 0.247,0.038 0.492,0.058 0.731,0.104 l 0,0 c 0.213,0.041 0.438,0.058 0.645,0.124 l 0,0 c 0.217,0.064 0.444,0.154 0.645,0.263 l 0,0 c 0.08,0.048 0.182,0.077 0.26,0.133 l 0,0 c 0.092,0.066 0.197,0.128 0.277,0.212 l 0,0 c 0.15,0.148 0.19,0.324 0.362,0.454 l 0,0 c 0.179,0.137 0.326,0.388 0.444,0.579 l 0,0 c 0.073,0.111 0.235,0.442 0.249,0.501 l 0,0 c 0.003,0.05 -0.008,0.104 0.008,0.147 l 0,0 -0.356,1.282 -1.258,0.56 -2.193,-0.764 z" /></clipPath><clipPath
       id="clipPath136"
       clipPathUnits="userSpaceOnUse"><path
         id="path138"
         d="m 0,41.033 41.029,0 L 41.029,0 0,0 0,41.033 Z" /></clipPath><clipPath
       id="clipPath152"
       clipPathUnits="userSpaceOnUse"><path
         id="path154"
         d="m 27.529,29.821 c -0.363,-0.126 -0.568,-0.467 -0.777,-0.71 l 0,0 C 26.541,28.862 26.016,28.303 25.879,28.06 l 0,0 C 25.736,27.817 25.7,27.643 25.651,27.475 l 0,0 c -0.056,-0.17 -0.954,-0.248 -1.446,-0.368 l 0,0 c -0.497,-0.114 -0.575,-0.071 -1.23,-0.118 l 0,0 c -1.145,-0.13 -3.37,-1.214 -3.809,-1.415 l 0,0 c -0.44,-0.198 -0.855,-0.475 -0.855,-0.475 l 0,0 2.343,0.338 5.295,0.75 0.438,-0.234 0.314,-0.676 0,10e-4 c 0.017,-0.02 0.035,-0.044 0.047,-0.061 l 0,0 c 0.02,-0.015 0.045,-0.021 0.062,-0.039 l 0,0 c 0.053,-0.051 0.026,-0.084 0.04,-0.151 l 0,0 c 0.02,-0.072 0.068,-0.064 0.103,-0.127 l 0,0 c 0.033,-0.056 -0.006,-0.129 0.027,-0.187 l 0,0 c 0.042,-0.063 0.085,-0.025 0.137,-0.064 l 0,0 c 0.023,-0.018 0.028,-0.053 0.04,-0.079 l 0,0 c 0.015,-0.031 0.038,-0.069 0.052,-0.103 l 0,0 c 0.028,-0.054 -0.01,-0.262 0.125,-0.258 l 0,0 c 0,0 0.824,1.008 1.018,1.331 l 0,0 c 0.191,0.321 0.271,0.753 0.244,1.067 l 0,0 c -0.03,0.314 -0.071,0.556 -0.045,0.694 l 0,0 c 0.029,0.138 0.135,0.207 0.228,0.224 l 0,0 c 0.096,0.016 0.608,-0.034 0.608,-0.034 l 0,0 0.2,0.723 c 0,0 -0.2,0.254 -0.239,0.385 l 0,0 c -0.038,0.133 0.086,0.294 -0.02,0.566 l 0,0 c -0.108,0.275 -0.457,0.579 -0.785,0.629 l 0,0 c -0.218,0.032 -0.424,0.084 -0.643,0.084 l 0,0 c -0.119,0 -0.241,-0.015 -0.371,-0.057" /></clipPath><clipPath
       id="clipPath164"
       clipPathUnits="userSpaceOnUse"><path
         id="path166"
         d="m 0,41.033 41.029,0 L 41.029,0 0,0 0,41.033 Z" /></clipPath><clipPath
       id="clipPath188"
       clipPathUnits="userSpaceOnUse"><path
         id="path190"
         d="m 14.578,23.782 0,0.001 C 14.52,23.787 14.461,23.735 14.404,23.72 l 0,0 c -0.084,-0.025 -0.163,-0.06 -0.25,-0.094 l 0,0 C 14.01,23.576 13.855,23.534 13.705,23.48 l 0,0 C 13.652,23.459 13.363,23.385 13.4,23.279 l 0,0 c 0.032,-0.092 0.294,-0.008 0.356,-0.003 l 0,0 c 0.31,0.025 0.621,-0.016 0.936,0.053 l 0,0 c 0.173,0.035 0.348,0.025 0.531,0.037 l 0,0 c 0.181,0.01 0.366,0.037 0.538,0.084 l 0,0 -0.529,0.341 c 0,0 -0.206,0.005 -0.386,0.005 l 0,0 c -0.141,0 -0.266,-0.003 -0.268,-0.014" /></clipPath><clipPath
       id="clipPath200"
       clipPathUnits="userSpaceOnUse"><path
         id="path202"
         d="m 0,41.033 41.029,0 L 41.029,0 0,0 0,41.033 Z" /></clipPath><clipPath
       id="clipPath232"
       clipPathUnits="userSpaceOnUse"><path
         id="path234"
         d="m 14.947,24.247 c -0.145,-0.082 -0.416,-0.351 -0.308,-0.429 l 0,0 c 0.116,-0.075 0.466,-0.127 0.622,-0.141 l 0,0 c 0.16,-0.016 1.726,0.3 1.726,0.3 l 0,0 -0.133,0.333 -1.102,0.079 0,0.001 c 0,0 -0.666,-0.063 -0.805,-0.143" /></clipPath><clipPath
       id="clipPath244"
       clipPathUnits="userSpaceOnUse"><path
         id="path246"
         d="m 0,41.033 41.029,0 L 41.029,0 0,0 0,41.033 Z" /></clipPath><clipPath
       id="clipPath260"
       clipPathUnits="userSpaceOnUse"><path
         id="path262"
         d="m 16.793,24.196 c 0,0 -0.746,-0.121 -0.914,-0.23 l 0,0 c -0.165,-0.111 -0.373,-0.175 -0.304,-0.264 l 0,0 c 0.072,-0.086 1,-0.13 1.294,-0.114 l 0,0 c 0.292,0.011 0.983,0.213 0.983,0.213 l 0,0 0.488,0.733 -1.547,-0.338 z" /></clipPath><clipPath
       id="clipPath272"
       clipPathUnits="userSpaceOnUse"><path
         id="path274"
         d="m 0,41.033 41.029,0 L 41.029,0 0,0 0,41.033 Z" /></clipPath><clipPath
       id="clipPath288"
       clipPathUnits="userSpaceOnUse"><path
         id="path290"
         d="m 17.277,24.963 c 0,0 -1.979,-0.229 -2.181,-0.244 l 0,0 c -0.113,-0.007 -0.189,-0.005 -0.245,-0.003 l 0,0 c -0.044,0.002 -0.076,0.003 -0.1,10e-4 l 0,0 c -0.055,-0.008 -0.215,-0.079 -0.135,-0.134 l 0,0 c 0.082,-0.054 1.145,-0.414 1.821,-0.476 l 0,0 c 0.668,-0.064 3.799,0.779 3.799,0.779 l 0,0 0.108,0.27 -3.067,-0.193 z" /></clipPath><clipPath
       id="clipPath300"
       clipPathUnits="userSpaceOnUse"><path
         id="path302"
         d="m 0,41.033 41.029,0 L 41.029,0 0,0 0,41.033 Z" /></clipPath><clipPath
       id="clipPath316"
       clipPathUnits="userSpaceOnUse"><path
         id="path318"
         d="m 22.266,26.623 c -0.7,-0.165 -2.218,-0.885 -2.591,-1.024 l 0,0 c -0.372,-0.142 -0.698,-0.347 -0.951,-0.348 l 0,0 c -0.131,-0.003 -0.455,0.016 -0.762,0.034 l 0,0 c -0.293,0.017 -0.572,0.035 -0.651,0.034 l 0,0 c -0.162,-0.004 -0.234,-0.061 -0.253,-0.11 l 0,0 C 17.026,25.16 16.947,25.12 16.994,25.074 l 0,0 c 0.016,-0.018 0.047,-0.007 0.08,0.005 l 0,0 c 0.045,0.014 0.096,0.029 0.129,-0.027 l 0,0 c 0.049,-0.098 -0.247,-0.237 -0.16,-0.255 l 0,0 c 0.089,-0.019 0.605,-0.123 0.84,-0.134 l 0,0 c 0.228,-0.013 0.802,0.142 0.997,0.191 l 0,0 c 0.188,0.054 0.508,0.044 0.769,0.082 l 0,0 c 0.261,0.036 0.429,0.074 0.429,0.074 l 0,0 c 0,0 -1.856,-0.616 -1.978,-0.681 l 0,0 c -0.12,-0.068 -0.258,-0.217 -0.258,-0.217 l 0,0 c 0,0 -0.626,-0.78 -0.725,-0.921 l 0,0 c -0.103,-0.139 0,-0.159 0.098,-0.126 l 0,0 c 0.097,0.033 0.296,0.105 0.4,0.117 l 0,0 c 0.117,0.012 0.201,0.015 0.261,-0.072 l 0,0 c 0.053,-0.083 -0.198,-0.338 -0.06,-0.293 l 0,0 c 0.131,0.044 1.64,0.532 1.809,0.484 l 0,0 c 0.171,-0.057 -0.096,-0.126 -0.027,-0.142 l 0,0 0,-0.002 c 0.071,-0.014 0.981,0.4 1.107,0.408 l 0,0 c 0.067,0.006 0.036,-0.03 -10e-4,-0.066 l 0,0 C 20.669,23.464 20.627,23.43 20.662,23.433 l 0,0 c 0.077,0.007 0.076,0.002 0.144,-0.01 l 0,0 c 0.068,-0.013 0.061,-0.075 0.084,-0.116 l 0,0 c 0.04,-0.07 0.079,-0.05 0.119,-0.03 l 0,0 c 0.025,0.012 0.051,0.026 0.077,0.012 l 0,0 c 0.064,-0.029 0.185,-0.124 0.273,-0.162 l 0,0 c 0.13,-0.056 0.204,0.023 0.308,0.083 l 0,0 c 0.096,0.057 0.164,0.008 0.261,-0.032 l 0,0 c 0.128,-0.061 0.219,-0.015 0.336,0.058 l 0,0 c 0.053,0.032 0.272,0.181 0.307,0.134 l 0,0 c 0.023,-0.041 -0.022,-0.131 -0.024,-0.178 l 0,0 c -0.005,-0.05 -0.011,-0.102 -0.011,-0.159 l 0,0 c 0.027,-0.001 0.051,0.023 0.076,0.048 l 0,0 c 0.027,0.026 0.053,0.054 0.082,0.047 l 0,0 c 0.068,-0.013 0.028,-0.102 0.128,-0.084 l 0,0 c 0.028,0.004 0.053,0.03 0.078,0.038 l 0,0 c 0.024,0.008 0.052,0.008 0.073,0.006 l 0,0 c 0.009,0 0.018,-0.001 0.025,0 l 0,0 c 0.055,0.002 0.077,0.008 0.132,0.042 l 0,0 c 0.038,0.023 0.048,0.054 0.101,0.045 l 0,0 c 0.019,-0.04 0.008,-0.094 0.026,-0.138 l 0,0 c 0.059,0.007 0.22,0.155 0.211,-0.01 l 0,0 c 0.042,-0.004 0.053,0.04 0.068,0.084 l 0,0 c 0.016,0.047 0.034,0.094 0.095,0.083 l 0,0 c 0.013,-0.003 0.026,-0.037 0.042,-0.05 l 0,0 c 0.023,-0.01 0.043,-0.022 0.069,-0.029 l 0,0 c 0.048,-0.017 0.075,-0.014 0.12,0.015 l 0,0 c 0.068,0.047 0.143,0.176 0.179,0.249 l 0,0 c 0.037,0.07 0.004,0.237 0.131,0.193 l 0,0 c 0.009,0.046 0.037,0.083 0.047,0.13 l 0,0 c 0.012,0.053 0.018,0.107 0.032,0.154 l 0,0 c 0.097,-0.084 -0.039,-0.304 0.024,-0.411 l 0,0 c 0.026,0.022 0.064,0.041 0.093,0.028 l 0,0 C 24.362,23.39 24.34,23.308 24.322,23.23 l 0,0 c -0.017,-0.096 -0.021,-0.188 -0.038,-0.278 l 0,0 C 24.272,22.9 24.216,22.751 24.244,22.703 l 0,0 c 0.027,-0.044 0.063,-0.022 0.101,-10e-4 l 0,0 c 0.03,0.017 0.059,0.034 0.086,0.019 l 0,0 c -0.001,-0.056 -0.046,-0.172 0.015,-0.213 l 0,0 c 0.066,-0.045 0.184,0.034 0.236,0.07 l 0,0 c 0.037,0.027 0.095,0.05 0.135,0.081 l 0,0 c 0.037,0.028 0.058,0.083 0.091,0.113 l 0,0 c 0.094,0.087 0.193,0.182 0.291,0.267 l 0,0 c 0.108,0.088 0.238,0.134 0.362,0.195 l 0,0 c 0.084,0.037 0.191,0.061 0.26,0.111 l 0,0 c 0.096,0.075 0.247,0.296 0.246,0.416 l 0,0 c -0.084,0.043 -0.175,-0.04 -0.259,-0.053 l 0,0 c 0.002,0.037 0.062,0.093 0.085,0.126 l 0,0 c 0.039,0.062 0.044,0.085 0.035,0.151 l 0,0 c -0.001,0.018 -0.022,0.024 -0.022,0.041 l 0,0 c 0,0.023 0.04,0.066 0.048,0.086 l 0,0 c 0.029,0.04 0.073,0.092 0.068,0.146 l 0,0 c -0.176,0.037 0.045,0.27 0.07,0.345 l 0,0 c -0.034,0.019 -0.09,-0.011 -0.142,-0.041 l 0,0 c -0.061,-0.034 -0.119,-0.069 -0.135,-0.028 l 0,0 c -0.024,0.049 0.055,0.088 0.07,0.116 l 0,0 c 0.026,0.042 0.037,0.124 0.035,0.17 l 0,0 c -0.034,-0.003 -0.055,-0.03 -0.087,-0.035 l 0,0 c 0.013,0.069 0.045,0.351 -0.059,0.35 l 0,0 C 25.753,25.08 25.715,25.03 25.689,24.976 l 0,0 c -0.023,-0.053 -0.059,-0.125 -0.12,-0.138 l 0,0 c -0.018,0.07 -0.04,0.183 -0.023,0.255 l 0,0 C 25.537,25.09 25.529,25.091 25.523,25.091 l 0,0 c -0.008,10e-4 -0.015,0.002 -0.022,-0.004 l 0,0 c -0.008,0.017 -0.011,0.026 -0.021,0.033 l 0,0 c -0.056,-0.038 -0.069,-0.184 -0.17,-0.122 l 0,0 c -0.044,0.026 -0.047,0.076 -0.08,0.112 l 0,0 c -0.029,0.033 -0.069,0.031 -0.086,0.079 l 0,0 c -0.05,-0.034 -0.053,0.036 -0.089,0.056 l 0,0 c -0.033,0.021 -0.068,0.013 -0.103,0.002 l 0,0 C 24.913,25.238 24.886,25.209 24.833,25.22 l 0,0 c -0.045,0.01 -0.069,0.052 -0.113,0.074 l 0,0 c -0.046,0.022 -0.099,0.019 -0.153,0.017 l 0,0 c -0.038,-0.002 -0.076,-0.004 -0.112,0.003 l 0,0 c -0.108,0.025 -0.223,0.015 -0.322,0.053 l 0,0 c 0.057,0.051 0.168,0.066 0.243,0.089 l 0,0 c 0.081,0.026 0.172,0.073 0.255,0.093 l 0,0 c 0.032,0.006 0.065,0.001 0.099,-0.003 l 0,0 c 0.032,-0.004 0.063,-0.008 0.094,-0.003 l 0,0 c 0.066,0.008 0.138,0.047 0.199,0.075 l 0,0 c 0.124,0.054 0.24,0.095 0.377,0.087 l 0,0 c 0.064,-0.007 0.127,-0.033 0.193,-0.026 l 0,0 c 0.067,0.009 0.119,0.056 0.18,0.082 l 0,0 c 0.045,0.016 0.154,-0.006 0.185,0.043 l 0,0 c 0.045,0.067 -0.058,0.115 0.008,0.176 l 0,0 c 0.12,0.111 0.175,-0.265 0.198,-0.327 l 0,0 c 0.01,-0.025 0.023,-0.044 0.04,-0.064 l 0,0 c 0.038,-0.038 0.04,-0.022 0.083,-0.046 l 0,0 c 0.069,-0.041 0.117,-0.106 0.162,-0.163 l 0,0 c 0.074,-0.102 0.057,-0.276 0.232,-0.278 l 0,0 c 0.005,0.103 -0.136,0.253 -0.083,0.351 l 0,0 c 0.023,-0.036 0.043,-0.077 0.066,-0.116 l 0,0 c 0.022,-0.034 0.07,-0.081 0.069,-0.119 l 0,0 c 0.013,-0.015 0.046,-0.036 0.065,-0.017 l 0,0 c 0.044,0.024 0.009,0.057 0.005,0.092 l 0,0 c -0.016,0.061 -0.055,0.181 0.004,0.228 l 0,0 c -0.028,0.034 -0.024,0.062 -0.032,0.1 l 0,0 c -0.015,0.078 -0.054,0.15 -0.105,0.216 l 0,0 c -0.179,0.221 -0.426,0.378 -0.661,0.531 l 0,0 c -0.201,0.131 -0.42,0.241 -0.655,0.312 l 0,0 c -0.08,0.026 -0.171,0.059 -0.253,0.076 l 0,0 c -0.04,0.011 -0.279,0.048 -0.753,0.079 l 0,0 c -0.067,0.004 -0.141,0.006 -0.223,0.006 l 0,0 c -0.5,0 -1.255,-0.075 -1.859,-0.218" /></clipPath><clipPath
       id="clipPath328"
       clipPathUnits="userSpaceOnUse"><path
         id="path330"
         d="m 0,41.033 41.029,0 L 41.029,0 0,0 0,41.033 Z" /></clipPath><clipPath
       id="clipPath344"
       clipPathUnits="userSpaceOnUse"><path
         id="path346"
         d="m 29.387,28.091 c -0.1,-0.037 -0.367,-0.108 -0.324,-0.154 l 0,0 c 0.047,-0.044 0.157,-0.104 0.157,-0.104 l 0,0 c 0,0 0.155,-0.137 0.098,-0.235 l 0,0 c -0.053,-0.096 -0.258,-0.073 -0.181,-0.09 l 0,0 c 0.078,-0.017 0.273,-0.148 0.539,-0.373 l 0,0 c 0.271,-0.227 0.482,-0.465 1.131,-0.92 l 0,0 c 0.65,-0.459 1.857,-1.198 1.968,-1.204 l 0,0 c 0.107,-0.002 0.077,0.086 0.077,0.086 l 0,0 c 0,0 0.09,-0.018 0.099,0.033 l 0,0 c 0.01,0.052 -0.149,0.222 -0.346,0.421 l 0,0 c -0.195,0.205 -0.691,0.692 -1.125,1.069 l 0,0 c -0.424,0.373 -0.923,0.801 -1.245,1.008 l 0,0 c -0.319,0.209 -0.711,0.721 -0.758,0.748 l 0,0 c -0.003,10e-4 -0.005,0.002 -0.007,0.002 l 0,0 c -0.04,0 0.003,-0.255 -0.083,-0.287" /></clipPath><clipPath
       id="clipPath356"
       clipPathUnits="userSpaceOnUse"><path
         id="path358"
         d="m 0,41.033 41.029,0 L 41.029,0 0,0 0,41.033 Z" /></clipPath><clipPath
       id="clipPath380"
       clipPathUnits="userSpaceOnUse"><path
         id="path382"
         d="m 29.211,27.945 c 0.053,-0.028 0.086,0.007 0.154,-0.053 l 0,0 c 0.219,-0.175 0.643,-0.629 0.918,-0.856 l 0,0 c 0.274,-0.228 2.342,-1.811 2.459,-1.89 l 0,0 c 0.12,-0.08 0.125,-0.074 0.11,-0.049 l 0,0 c -0.012,0.023 -0.576,0.472 -0.821,0.652 l 0,0 c -0.247,0.183 -1.646,1.241 -2.1,1.672 l 0,0 c -0.234,0.222 -0.491,0.509 -0.539,0.538 l 0,0 c -0.015,0.013 -0.052,0.018 -0.089,0.018 l 0,0 c -0.064,0 -0.129,-0.015 -0.092,-0.032" /></clipPath><clipPath
       id="clipPath392"
       clipPathUnits="userSpaceOnUse"><path
         id="path394"
         d="m 0,41.033 41.029,0 L 41.029,0 0,0 0,41.033 Z" /></clipPath><clipPath
       id="clipPath404"
       clipPathUnits="userSpaceOnUse"><path
         id="path406"
         d="m 28.392,28.925 c -0.017,-0.137 0.162,-0.288 0.317,-0.318 l 0,0 c 0.156,-0.033 0.391,0.097 0.412,0.195 l 0,0 c 0.019,0.102 -0.045,0.345 -0.246,0.386 l 0,0 c -0.021,0.004 -0.042,0.006 -0.064,0.006 l 0,0 c -0.188,0 -0.404,-0.146 -0.419,-0.269" /></clipPath><clipPath
       id="clipPath416"
       clipPathUnits="userSpaceOnUse"><path
         id="path418"
         d="m 0,41.033 41.029,0 L 41.029,0 0,0 0,41.033 Z" /></clipPath></defs><g
     transform="matrix(1.3333333,0,0,-1.3333333,0,54.710267)"
     id="g10"><g
       id="g12"><g
         clip-path="url(#clipPath16)"
         id="g14"><g
           transform="translate(39.8828,16.1606)"
           id="g20"><path
             id="path22"
             style="fill:#1d81a4;fill-opacity:1;fill-rule:nonzero;stroke:none"
             d="M 0,0 C 0,0 -0.863,-0.992 -1.6,-0.992 -2.453,-0.996 -3.117,0 -3.117,0 c 0,0 -0.545,-0.98 -1.528,-0.992 C -5.627,-1.004 -6.232,0 -6.232,0 c 0,0 -0.7,-1.023 -1.592,-0.992 -0.895,0.028 -1.496,-0.01 -1.496,-0.01 l 0,-4.501 2.125,-3.426 c 0,0 0.502,-0.5 1.357,-1.002 C -4.98,-10.435 0,0 0,0" /></g><g
           transform="translate(38.6914,12.2285)"
           id="g24"><path
             id="path26"
             style="fill:#bcd8e4;fill-opacity:1;fill-rule:nonzero;stroke:none"
             d="m 0,0 c -4.129,-4.667 -8.561,-10.984 -20.114,-11.697 -6.553,-0.405 -17.546,8.844 -18.183,20.247 5.63,-2.558 6.767,4.838 11.336,0.865 C -20.4,3.711 -20.969,3.852 -12.412,3.711 -4.549,3.578 -5.168,-0.401 0,0" /></g><g
           transform="translate(20.5166,38.875)"
           id="g28"><path
             id="path30"
             style="fill:#737577;fill-opacity:1;fill-rule:nonzero;stroke:none"
             d="m 0,0 c -10.122,0 -18.359,-8.238 -18.359,-18.359 0,-10.12 8.237,-18.358 18.359,-18.358 10.122,0 18.356,8.238 18.356,18.358 C 18.356,-8.238 10.122,0 0,0 m 0,-38.875 c -11.313,0 -20.517,9.204 -20.517,20.516 0,11.313 9.204,20.517 20.517,20.517 11.312,0 20.517,-9.204 20.517,-20.517 0,-11.312 -9.205,-20.516 -20.517,-20.516" /></g><g
           transform="translate(22.8711,21.5576)"
           id="g32"><path
             id="path34"
             style="fill:#408cad;fill-opacity:1;fill-rule:nonzero;stroke:none"
             d="m 0,0 c 0,0 -0.071,-0.401 -0.164,-0.594 -0.095,-0.203 -0.18,-0.473 -0.199,-0.613 -0.006,-0.144 0.207,-0.527 0.339,-1.275 0.138,-0.751 0.288,-1.881 0.403,-2.033 0.101,-0.131 0.207,-0.116 0.436,-0.262 0.117,-0.082 0.2,-0.23 0.338,-0.286 0.145,-0.062 0.64,-0.222 0.57,-0.117 -0.071,0.109 -0.721,0.459 -0.501,0.46 0.222,-0.001 0.208,-0.042 0.483,-0.097 0.278,-0.057 1.101,-0.157 1.066,-0.077 -0.039,0.078 -0.964,0.29 -1.225,0.358 -0.254,0.071 -0.296,0.045 -0.56,0.262 -0.263,0.214 -0.643,2.385 -0.631,2.524 0.008,0.144 0.04,0.167 0.056,0.326 0.011,0.16 -0.009,0.14 -0.069,0.294 -0.06,0.158 0.053,0.71 0.053,0.71 L 0.244,-0.015 0,0 Z" /></g></g></g><g
       id="g36"><g
         clip-path="url(#clipPath40)"
         id="g38"><g
           transform="translate(21.7905,16.8564)"
           id="g44"><path
             id="path46"
             style="fill:#408cad;fill-opacity:1;fill-rule:nonzero;stroke:none"
             d="M 0,0 3.788,-0.769 4.75,3.995 0.964,4.762 0,0 Z" /></g></g></g><g
       id="g48"><g
         clip-path="url(#clipPath52)"
         id="g50"><g
           transform="translate(22.8711,21.5576)"
           id="g56"><path
             id="path58"
             style="fill:#408cad;fill-opacity:1;fill-rule:nonzero;stroke:none"
             d="m 0,0 c 0,0 -0.071,-0.401 -0.164,-0.594 -0.095,-0.203 -0.185,-0.472 -0.199,-0.613 -0.006,-0.144 0.207,-0.527 0.339,-1.275 0.138,-0.751 0.288,-1.881 0.403,-2.033 0.101,-0.131 0.207,-0.116 0.436,-0.262 0.121,-0.082 0.2,-0.227 0.338,-0.286 0.145,-0.062 0.64,-0.222 0.57,-0.117 -0.071,0.109 -0.721,0.459 -0.501,0.46 0.222,-0.001 0.208,-0.042 0.483,-0.097 0.278,-0.057 1.101,-0.157 1.066,-0.077 -0.039,0.078 -0.964,0.29 -1.225,0.358 -0.254,0.071 -0.296,0.045 -0.56,0.262 -0.263,0.214 -0.643,2.385 -0.631,2.524 0.008,0.144 0.04,0.167 0.056,0.326 0.011,0.16 -0.009,0.14 -0.069,0.294 -0.06,0.158 0.053,0.71 0.053,0.71 L 0.244,-0.015 0,0 Z" /></g><g
           transform="translate(21.3765,21.4282)"
           id="g60"><path
             id="path62"
             style="fill:#408cad;fill-opacity:1;fill-rule:nonzero;stroke:none"
             d="m 0,0 c 0,0 -0.073,-0.272 -0.235,-0.442 -0.157,-0.164 -0.417,-0.276 -0.501,-0.435 -0.09,-0.166 -0.118,-0.393 -0.204,-0.738 -0.085,-0.343 -0.365,-1.08 -0.577,-1.524 -0.22,-0.445 -0.437,-0.632 -0.481,-0.858 -0.046,-0.224 -0.062,-0.566 0.02,-0.621 0.076,-0.049 0.215,-0.077 0.287,-0.091 0.066,-0.014 0.024,0.303 0.105,0.248 0.076,-0.049 0.126,-0.261 0.255,-0.414 0.136,-0.15 0.34,-0.105 0.628,-0.199 0.291,-0.095 0.503,-0.117 0.565,-0.078 0.062,0.044 -0.809,0.398 -0.79,0.485 0.018,0.089 0.206,0.043 0.399,0.092 0.188,0.053 0.234,0.088 0.418,0.087 0.175,0.001 0.271,0.009 0.383,0.04 0.115,0.031 0.253,0.084 0.232,0.16 -0.023,0.077 -0.176,0.114 -0.342,0.095 -0.165,-0.021 -0.554,-0.128 -0.875,-0.12 -0.319,0.01 -0.41,0.01 -0.468,0.08 -0.061,0.063 -0.056,0.171 -0.086,0.289 -0.031,0.11 0.104,0.698 0.283,1.057 0.183,0.363 0.449,1.047 0.503,1.127 0.049,0.077 0.178,0.082 0.251,0.176 0.073,0.094 0.066,0.317 0.162,0.535 0.097,0.215 0.359,0.523 0.359,0.523 L 0.382,0.191 0,0 Z" /></g></g></g><g
       id="g64"><g
         clip-path="url(#clipPath68)"
         id="g66"><g
           transform="translate(20.2866,21.9175)"
           id="g72"><path
             id="path74"
             style="fill:#408cad;fill-opacity:1;fill-rule:nonzero;stroke:none"
             d="M 0,0 -1.077,-5.317 1.42,-5.824 2.496,-0.505 0,0 Z" /></g></g></g><g
       id="g76"><g
         clip-path="url(#clipPath80)"
         id="g78"><g
           transform="translate(21.3765,21.4282)"
           id="g84"><path
             id="path86"
             style="fill:#408cad;fill-opacity:1;fill-rule:nonzero;stroke:none"
             d="m 0,0 c 0,0 -0.073,-0.272 -0.235,-0.442 -0.157,-0.164 -0.417,-0.276 -0.501,-0.435 -0.09,-0.166 -0.118,-0.393 -0.204,-0.738 -0.085,-0.343 -0.365,-1.08 -0.577,-1.524 -0.219,-0.444 -0.437,-0.632 -0.481,-0.858 -0.046,-0.224 -0.062,-0.566 0.02,-0.621 0.076,-0.049 0.215,-0.077 0.287,-0.091 0.066,-0.014 0.024,0.303 0.105,0.248 0.076,-0.049 0.126,-0.261 0.255,-0.414 0.136,-0.15 0.34,-0.105 0.628,-0.199 0.291,-0.095 0.503,-0.117 0.565,-0.078 0.062,0.044 -0.809,0.398 -0.79,0.485 0.018,0.089 0.206,0.043 0.399,0.092 0.188,0.053 0.234,0.088 0.418,0.087 0.175,0.001 0.271,0.009 0.383,0.04 0.115,0.031 0.253,0.084 0.232,0.16 -0.023,0.077 -0.176,0.114 -0.342,0.095 -0.165,-0.021 -0.554,-0.128 -0.875,-0.12 -0.319,0.01 -0.41,0.01 -0.468,0.08 -0.061,0.063 -0.056,0.171 -0.086,0.289 -0.031,0.11 0.104,0.698 0.283,1.057 0.183,0.363 0.449,1.047 0.503,1.127 0.049,0.077 0.178,0.082 0.251,0.176 0.073,0.094 0.066,0.317 0.162,0.535 0.097,0.215 0.359,0.523 0.359,0.523 L 0.382,0.191 0,0 Z" /></g><g
           transform="translate(22.7432,21.5146)"
           id="g88"><path
             id="path90"
             style="fill:#408cad;fill-opacity:1;fill-rule:nonzero;stroke:none"
             d="m 0,0 c 0.049,-0.02 0.094,0.006 0.145,-0.012 0.045,-0.015 0.076,-0.07 0.109,-0.095 0.018,-0.017 0.036,0 0.054,-0.028 0.015,-0.023 -0.005,-0.076 0.009,-0.11 0.019,-0.044 0.071,-0.071 0.1,-0.117 0.039,-0.069 0.017,-0.263 0.113,-0.127 0.077,0.107 0.12,0.244 0.186,0.358 0.049,0.078 0.102,0.149 0.187,0.174 0.109,0.041 0.235,0.05 0.344,0.102 0.139,0.059 0.312,0.117 0.422,0.233 0.081,0.085 0.114,0.184 0.18,0.273 L 0.42,0.455 0,0 Z" /></g></g></g><g
       id="g92"><g
         clip-path="url(#clipPath96)"
         id="g94"><g
           transform="translate(22.6392,20.998)"
           id="g100"><path
             id="path102"
             style="fill:#408cad;fill-opacity:1;fill-rule:nonzero;stroke:none"
             d="M 0,0 1.648,-0.335 1.953,1.168 0.304,1.502 0,0 Z" /></g></g></g><g
       id="g104"><g
         clip-path="url(#clipPath108)"
         id="g106"><g
           transform="translate(22.7432,21.5146)"
           id="g112"><path
             id="path114"
             style="fill:#408cad;fill-opacity:1;fill-rule:nonzero;stroke:none"
             d="m 0,0 c 0.049,-0.02 0.094,0.006 0.145,-0.012 0.045,-0.015 0.076,-0.07 0.109,-0.095 0.018,-0.017 0.036,0 0.054,-0.028 0.015,-0.023 -0.005,-0.076 0.009,-0.11 0.019,-0.044 0.071,-0.071 0.1,-0.117 0.039,-0.069 0.017,-0.263 0.113,-0.127 0.077,0.107 0.12,0.244 0.186,0.358 0.049,0.078 0.102,0.149 0.187,0.174 0.109,0.041 0.235,0.05 0.344,0.102 0.139,0.059 0.312,0.117 0.422,0.233 0.081,0.085 0.114,0.184 0.18,0.273 L 0.42,0.455 0,0 Z" /></g><g
           transform="translate(17.3892,22.8677)"
           id="g116"><path
             id="path118"
             style="fill:#408cad;fill-opacity:1;fill-rule:nonzero;stroke:none"
             d="M 0,0 -1.558,0.407 -2.625,0.315 c 0.059,0.022 0.119,0.079 0.168,0.112 0.062,0.04 0.131,0.065 0.207,0.088 0.079,0.024 0.153,0.013 0.229,0.023 0.077,0.012 0.155,-0.007 0.227,0.026 -0.026,0.086 -0.391,0.229 -0.318,0.291 0.045,0.038 0.182,0.026 0.237,0.033 0.045,0.005 0.081,0.021 0.133,0.02 0.027,0.001 0.058,-0.013 0.087,0.001 L 6.146,2.634 8.339,3.398 9.597,2.838 9.953,1.557 C 9.937,1.514 9.949,1.459 9.945,1.41 9.931,1.351 9.769,1.02 9.697,0.908 9.578,0.717 9.431,0.467 9.251,0.329 9.08,0.2 9.041,0.023 8.89,-0.125 8.81,-0.208 8.705,-0.271 8.612,-0.336 8.535,-0.393 8.433,-0.421 8.353,-0.47 8.152,-0.579 7.925,-0.668 7.708,-0.733 7.501,-0.798 7.275,-0.815 7.062,-0.856 6.823,-0.902 6.579,-0.923 6.333,-0.96 6.138,-0.995 5.965,-1.052 5.787,-1.138 5.678,-1.19 5.584,-1.255 5.482,-1.31 5.396,-1.358 5.303,-1.399 5.221,-1.456 5.153,-1.502 5.098,-1.562 5.031,-1.615 4.974,-1.666 4.91,-1.745 4.845,-1.772 4.883,-1.719 4.951,-1.677 4.959,-1.606 4.829,-1.666 4.678,-1.692 4.561,-1.793 4.485,-1.868 4.424,-1.972 4.353,-2.054 4.27,-2.143 4.207,-2.219 4.167,-2.337 c 0.016,0.062 0.006,0.113 0.017,0.172 0.012,0.056 0.054,0.111 0.051,0.167 -0.017,10e-4 -0.036,0.015 -0.052,0.017 0.011,0.069 0.02,0.14 0.025,0.208 0.008,0.058 0.126,0.215 0.034,0.231 0,0.054 0.04,0.124 0.013,0.173 C 4.173,-1.4 4.003,-1.496 3.96,-1.579 L 3.853,-1.646 c 0.005,0.04 0.042,0.124 0.055,0.166 0.019,0.039 0.073,0.069 0.059,0.131 C 3.942,-1.257 3.756,-1.193 3.683,-1.163 3.534,-1.095 3.367,-1.053 3.21,-0.995 3.113,-0.957 3.009,-0.933 2.9,-0.912 2.79,-0.891 2.671,-0.848 2.556,-0.846 2.472,-0.848 2.382,-0.863 2.299,-0.875 2.222,-0.891 2.161,-0.924 2.085,-0.945 1.942,-0.987 1.83,-0.961 1.723,-0.855 c -0.091,0.091 -0.179,0.192 -0.291,0.238 -0.126,0.044 -0.261,0.022 -0.381,0.063 0.003,0.021 0,0.049 0.002,0.066 C 0.994,-0.467 0.93,-0.461 0.862,-0.444 0.791,-0.429 0.735,-0.391 0.668,-0.371 0.578,-0.34 0.47,-0.344 0.496,-0.214 0.417,-0.153 0,-0.001 0,-0.001 L 0,0 Z" /></g></g></g><g
       id="g120"><g
         clip-path="url(#clipPath124)"
         id="g122"><g
           transform="translate(14.5151,21.957)"
           id="g128"><path
             id="path130"
             style="fill:#408cad;fill-opacity:1;fill-rule:nonzero;stroke:none"
             d="M 0,0 11.86,-2.402 13.141,3.919 1.28,6.32 0,0 Z" /></g></g></g><g
       id="g132"><g
         clip-path="url(#clipPath136)"
         id="g134"><g
           transform="translate(17.3892,22.8677)"
           id="g140"><path
             id="path142"
             style="fill:#408cad;fill-opacity:1;fill-rule:nonzero;stroke:none"
             d="M 0,0 -1.558,0.407 -2.625,0.315 c 0.059,0.022 0.119,0.079 0.168,0.112 0.062,0.04 0.131,0.065 0.207,0.088 0.079,0.024 0.153,0.013 0.229,0.023 0.077,0.012 0.155,-0.007 0.227,0.026 -0.026,0.086 -0.391,0.229 -0.318,0.291 0.045,0.038 0.182,0.026 0.237,0.033 0.045,0.005 0.081,0.021 0.133,0.02 0.027,0.001 0.058,-0.013 0.087,0.001 L 6.146,2.634 8.339,3.398 9.597,2.838 9.953,1.557 C 9.937,1.514 9.949,1.459 9.945,1.41 9.931,1.351 9.769,1.02 9.697,0.908 9.578,0.717 9.431,0.467 9.251,0.329 9.08,0.2 9.041,0.023 8.89,-0.125 8.81,-0.208 8.705,-0.271 8.612,-0.336 8.535,-0.393 8.433,-0.421 8.353,-0.47 8.152,-0.579 7.925,-0.668 7.708,-0.733 7.501,-0.798 7.275,-0.815 7.062,-0.856 6.823,-0.902 6.579,-0.923 6.333,-0.96 6.138,-0.995 5.965,-1.052 5.787,-1.138 5.678,-1.19 5.584,-1.255 5.482,-1.31 5.396,-1.358 5.303,-1.399 5.221,-1.456 5.153,-1.502 5.098,-1.562 5.031,-1.615 4.974,-1.666 4.91,-1.745 4.845,-1.772 4.883,-1.719 4.951,-1.677 4.959,-1.606 4.829,-1.666 4.678,-1.692 4.561,-1.793 4.485,-1.868 4.424,-1.972 4.347,-2.054 4.27,-2.143 4.207,-2.219 4.167,-2.337 c 0.016,0.062 0.006,0.113 0.017,0.172 0.012,0.056 0.054,0.111 0.051,0.167 -0.017,10e-4 -0.036,0.015 -0.052,0.017 0.011,0.069 0.02,0.14 0.025,0.208 0.008,0.058 0.126,0.215 0.034,0.231 0,0.054 0.04,0.124 0.013,0.173 C 4.173,-1.4 4.003,-1.496 3.96,-1.579 L 3.853,-1.646 c 0.005,0.04 0.042,0.124 0.055,0.166 0.019,0.039 0.073,0.069 0.059,0.131 C 3.942,-1.257 3.756,-1.193 3.683,-1.163 3.534,-1.095 3.367,-1.053 3.21,-0.995 3.113,-0.957 3.009,-0.933 2.9,-0.912 2.79,-0.891 2.665,-0.846 2.556,-0.846 2.472,-0.848 2.382,-0.863 2.299,-0.875 2.222,-0.891 2.161,-0.924 2.085,-0.945 1.942,-0.987 1.833,-0.964 1.723,-0.855 c -0.091,0.091 -0.179,0.192 -0.291,0.238 -0.126,0.044 -0.261,0.022 -0.381,0.063 0.003,0.021 0,0.049 0.002,0.066 C 0.994,-0.467 0.93,-0.461 0.862,-0.444 0.791,-0.429 0.735,-0.391 0.668,-0.371 0.578,-0.34 0.47,-0.344 0.496,-0.214 0.417,-0.153 0,-0.001 0,-0.001 L 0,0 Z" /></g><g
           transform="translate(26.7012,25.2783)"
           id="g144"><path
             id="path146"
             style="fill:#408cad;fill-opacity:1;fill-rule:nonzero;stroke:none"
             d="m 0,0 c 0.018,-0.02 0.035,-0.044 0.047,-0.062 0.019,-0.015 0.045,-0.02 0.062,-0.038 0.053,-0.051 0.026,-0.084 0.039,-0.151 0.02,-0.072 0.069,-0.064 0.104,-0.127 0.033,-0.057 -0.006,-0.13 0.027,-0.187 0.041,-0.063 0.084,-0.026 0.137,-0.064 0.023,-0.018 0.027,-0.053 0.039,-0.079 0.016,-0.031 0.039,-0.069 0.053,-0.103 0.027,-0.055 -0.01,-0.263 0.125,-0.258 0,0 0.824,1.007 1.017,1.331 0.192,0.32 0.272,0.753 0.245,1.067 C 1.865,1.642 1.824,1.884 1.85,2.022 1.879,2.161 1.984,2.229 2.078,2.247 2.174,2.262 2.686,2.213 2.686,2.213 l 0.201,0.723 c 0,0 -0.201,0.253 -0.241,0.385 C 2.609,3.453 2.732,3.614 2.627,3.887 2.52,4.162 2.17,4.466 1.842,4.516 1.506,4.564 1.197,4.662 0.828,4.542 0.465,4.416 0.26,4.076 0.051,3.833 -0.16,3.583 -0.685,3.025 -0.823,2.782 -0.965,2.539 -1,2.365 -1.05,2.197 -1.106,2.026 -2.004,1.948 -2.497,1.829 -2.993,1.715 -3.071,1.757 -3.726,1.71 -4.871,1.58 -7.097,0.497 -7.535,0.296 -7.975,0.098 -8.39,-0.179 -8.39,-0.179 L -6.047,0.158 -0.752,0.909 -0.314,0.675 0,-0.001 0,0 Z" /></g></g></g><g
       id="g148"><g
         clip-path="url(#clipPath152)"
         id="g150"><g
           transform="translate(18.479,22.4028)"
           id="g156"><path
             id="path158"
             style="fill:#408cad;fill-opacity:1;fill-rule:nonzero;stroke:none"
             d="M 0,0 11.781,0.73 11.212,9.837 -0.567,9.107 0,0 Z" /></g></g></g><g
       id="g160"><g
         clip-path="url(#clipPath164)"
         id="g162"><g
           transform="translate(26.7012,25.2783)"
           id="g168"><path
             id="path170"
             style="fill:#408cad;fill-opacity:1;fill-rule:nonzero;stroke:none"
             d="m 0,0 c 0.018,-0.02 0.035,-0.044 0.047,-0.062 0.019,-0.015 0.045,-0.02 0.062,-0.038 0.053,-0.051 0.026,-0.084 0.039,-0.151 0.02,-0.072 0.069,-0.064 0.104,-0.127 0.033,-0.057 -0.006,-0.13 0.027,-0.187 0.041,-0.063 0.084,-0.026 0.137,-0.064 0.023,-0.018 0.027,-0.053 0.039,-0.079 0.016,-0.031 0.039,-0.069 0.053,-0.103 0.027,-0.055 -0.01,-0.263 0.125,-0.258 0,0 0.824,1.007 1.017,1.331 0.192,0.32 0.272,0.753 0.245,1.067 C 1.865,1.642 1.824,1.882 1.85,2.022 1.879,2.161 1.984,2.229 2.078,2.247 2.174,2.262 2.686,2.213 2.686,2.213 l 0.201,0.723 c 0,0 -0.201,0.253 -0.241,0.385 C 2.609,3.453 2.732,3.614 2.627,3.887 2.52,4.162 2.17,4.466 1.842,4.516 1.506,4.564 1.197,4.662 0.828,4.542 0.465,4.416 0.26,4.076 0.051,3.833 -0.16,3.583 -0.685,3.025 -0.823,2.782 -0.965,2.539 -1,2.365 -1.05,2.197 -1.106,2.026 -2.004,1.948 -2.497,1.829 -2.993,1.715 -3.071,1.757 -3.726,1.71 -4.871,1.58 -7.097,0.497 -7.535,0.296 -7.975,0.098 -8.39,-0.179 -8.39,-0.179 L -6.047,0.158 -0.752,0.909 -0.314,0.675 0,-0.001 0,0 Z" /></g><g
           transform="translate(13.5625,23.2788)"
           id="g172"><path
             id="path174"
             style="fill:#408cad;fill-opacity:1;fill-rule:nonzero;stroke:none"
             d="m 0,0 c -0.019,-0.062 -0.049,-0.116 -0.055,-0.184 0.104,-0.046 0.226,-0.084 0.334,-0.105 0.115,-0.025 0.223,-0.013 0.335,0.027 0.151,0.058 0.309,0.089 0.46,0.138 0.068,0.022 0.137,0.042 0.208,0.062 C 1.33,-0.054 1.412,-0.038 1.441,0 L 1.632,0.14 0,0 Z" /></g><g
           transform="translate(13.5625,23.2788)"
           id="g176"><path
             id="path178"
             style="fill:#408cad;fill-opacity:1;fill-rule:nonzero;stroke:none"
             d="m 0,0 c -0.019,-0.062 -0.049,-0.116 -0.055,-0.184 0.104,-0.046 0.226,-0.084 0.334,-0.105 0.115,-0.025 0.223,-0.013 0.335,0.027 0.151,0.058 0.309,0.089 0.46,0.138 0.068,0.022 0.137,0.042 0.208,0.062 C 1.33,-0.054 1.412,-0.038 1.441,0 L 1.632,0.14 0,0 Z" /></g><g
           transform="translate(14.5781,23.7832)"
           id="g180"><path
             id="path182"
             style="fill:#408cad;fill-opacity:1;fill-rule:nonzero;stroke:none"
             d="m 0,0 c -0.058,0.003 -0.117,-0.048 -0.174,-0.063 -0.084,-0.025 -0.163,-0.061 -0.25,-0.094 -0.143,-0.051 -0.299,-0.093 -0.449,-0.146 -0.053,-0.021 -0.342,-0.096 -0.305,-0.201 0.031,-0.093 0.294,-0.008 0.355,-0.004 0.311,0.026 0.621,-0.016 0.937,0.053 0.174,0.036 0.348,0.026 0.53,0.038 0.183,0.009 0.367,0.036 0.539,0.084 l -0.53,0.34 c 0,0 -0.648,0.016 -0.653,-0.008 L 0,0 Z" /></g></g></g><g
       id="g184"><g
         clip-path="url(#clipPath188)"
         id="g186"><g
           transform="translate(13.3276,23.21)"
           id="g192"><path
             id="path194"
             style="fill:#408cad;fill-opacity:1;fill-rule:nonzero;stroke:none"
             d="M 0,0 2.29,-0.466 2.478,0.465 0.187,0.928 0,0 Z" /></g></g></g><g
       id="g196"><g
         clip-path="url(#clipPath200)"
         id="g198"><g
           transform="translate(14.5781,23.7832)"
           id="g204"><path
             id="path206"
             style="fill:#408cad;fill-opacity:1;fill-rule:nonzero;stroke:none"
             d="m 0,0 c -0.058,0.003 -0.117,-0.048 -0.179,-0.062 -0.079,-0.026 -0.158,-0.062 -0.245,-0.095 -0.143,-0.051 -0.299,-0.093 -0.449,-0.146 -0.053,-0.021 -0.342,-0.096 -0.305,-0.201 0.031,-0.093 0.294,-0.008 0.355,-0.004 0.311,0.026 0.621,-0.016 0.937,0.053 0.174,0.036 0.348,0.026 0.53,0.038 0.183,0.009 0.367,0.036 0.539,0.084 l -0.53,0.34 c 0,0 -0.648,0.016 -0.653,-0.008 L 0,0 Z" /></g><g
           transform="translate(14.8657,24.5693)"
           id="g208"><path
             id="path210"
             style="fill:#408cad;fill-opacity:1;fill-rule:nonzero;stroke:none"
             d="M 0,0 C 0,0 -0.454,-0.019 -0.68,-0.061 -0.903,-0.108 -1.028,-0.136 -0.941,-0.245 -0.855,-0.351 0.152,-0.5 0.152,-0.5 L 0.821,-0.15 0,0 Z" /></g><g
           transform="translate(14.8657,24.5693)"
           id="g212"><path
             id="path214"
             style="fill:#408cad;fill-opacity:1;fill-rule:nonzero;stroke:none"
             d="M 0,0 C 0,0 -0.454,-0.019 -0.68,-0.061 -0.903,-0.108 -1.028,-0.136 -0.941,-0.245 -0.855,-0.351 0.152,-0.5 0.152,-0.5 L 0.821,-0.15 0,0 Z" /></g><g
           transform="translate(14.7935,24.0229)"
           id="g216"><path
             id="path218"
             style="fill:#408cad;fill-opacity:1;fill-rule:nonzero;stroke:none"
             d="m 0,0 c 0,0 -0.301,0.025 -0.513,-0.04 -0.213,-0.064 -0.478,-0.137 -0.497,-0.224 -0.018,-0.087 1.207,-0.01 1.207,-0.01 L 0,0 Z" /></g><g
           transform="translate(14.7935,24.0229)"
           id="g220"><path
             id="path222"
             style="fill:#408cad;fill-opacity:1;fill-rule:nonzero;stroke:none"
             d="m 0,0 c 0,0 -0.301,0.025 -0.513,-0.04 -0.213,-0.064 -0.478,-0.137 -0.497,-0.224 -0.018,-0.087 1.207,-0.01 1.207,-0.01 L 0,0 Z" /></g><g
           transform="translate(15.752,24.3896)"
           id="g224"><path
             id="path226"
             style="fill:#408cad;fill-opacity:1;fill-rule:nonzero;stroke:none"
             d="m 0,0 c 0,0 -0.666,-0.063 -0.805,-0.143 -0.144,-0.082 -0.416,-0.351 -0.307,-0.428 0.114,-0.076 0.465,-0.128 0.621,-0.142 0.16,-0.016 1.725,0.3 1.725,0.3 L 1.102,-0.08 0,-0.001 0,0 Z" /></g></g></g><g
       id="g228"><g
         clip-path="url(#clipPath232)"
         id="g230"><g
           transform="translate(14.5112,23.792)"
           id="g236"><path
             id="path238"
             style="fill:#408cad;fill-opacity:1;fill-rule:nonzero;stroke:none"
             d="M 0,0 2.34,-0.475 2.533,0.48 0.193,0.955 0,0 Z" /></g></g></g><g
       id="g240"><g
         clip-path="url(#clipPath244)"
         id="g242"><g
           transform="translate(15.752,24.3896)"
           id="g248"><path
             id="path250"
             style="fill:#408cad;fill-opacity:1;fill-rule:nonzero;stroke:none"
             d="m 0,0 c 0,0 -0.666,-0.063 -0.805,-0.143 -0.144,-0.082 -0.416,-0.351 -0.307,-0.428 0.114,-0.076 0.465,-0.128 0.621,-0.142 0.16,-0.016 1.725,0.3 1.725,0.3 L 1.102,-0.08 0,-0.001 0,0 Z" /></g><g
           transform="translate(16.7935,24.1958)"
           id="g252"><path
             id="path254"
             style="fill:#408cad;fill-opacity:1;fill-rule:nonzero;stroke:none"
             d="m 0,0 c 0,0 -0.746,-0.121 -0.915,-0.23 -0.165,-0.111 -0.373,-0.175 -0.303,-0.263 0.072,-0.087 1,-0.131 1.294,-0.115 0.292,0.011 0.983,0.212 0.983,0.212 L 1.547,0.338 0,0 Z" /></g></g></g><g
       id="g256"><g
         clip-path="url(#clipPath260)"
         id="g258"><g
           transform="translate(15.4775,23.6509)"
           id="g264"><path
             id="path266"
             style="fill:#408cad;fill-opacity:1;fill-rule:nonzero;stroke:none"
             d="M 0,0 2.579,-0.522 2.863,0.883 0.283,1.404 0,0 Z" /></g></g></g><g
       id="g268"><g
         clip-path="url(#clipPath272)"
         id="g270"><g
           transform="translate(16.7935,24.1958)"
           id="g276"><path
             id="path278"
             style="fill:#408cad;fill-opacity:1;fill-rule:nonzero;stroke:none"
             d="m 0,0 c 0,0 -0.746,-0.121 -0.915,-0.23 -0.165,-0.111 -0.373,-0.175 -0.303,-0.263 0.072,-0.087 1,-0.131 1.294,-0.115 0.292,0.011 0.983,0.212 0.983,0.212 L 1.552,0.337 0,0 Z" /></g><g
           transform="translate(17.2769,24.9629)"
           id="g280"><path
             id="path282"
             style="fill:#408cad;fill-opacity:1;fill-rule:nonzero;stroke:none"
             d="m 0,0 c 0,0 -1.979,-0.229 -2.181,-0.243 -0.201,-0.012 -0.289,0.003 -0.345,-0.004 -0.055,-0.007 -0.215,-0.078 -0.135,-0.133 0.082,-0.055 1.145,-0.413 1.821,-0.476 0.668,-0.064 3.799,0.779 3.799,0.779 L 3.068,0.193 0,0 Z" /></g></g></g><g
       id="g284"><g
         clip-path="url(#clipPath288)"
         id="g286"><g
           transform="translate(14.4927,24.4272)"
           id="g292"><path
             id="path294"
             style="fill:#408cad;fill-opacity:1;fill-rule:nonzero;stroke:none"
             d="M 0,0 5.479,-1.11 5.852,0.729 0.373,1.837 0,0 Z" /></g></g></g><g
       id="g296"><g
         clip-path="url(#clipPath300)"
         id="g298"><g
           transform="translate(17.2769,24.9629)"
           id="g304"><path
             id="path306"
             style="fill:#408cad;fill-opacity:1;fill-rule:nonzero;stroke:none"
             d="M 0,0 C 0,0 -1.979,-0.229 -2.181,-0.243 -2.382,-0.255 -2.47,-0.24 -2.526,-0.247 -2.579,-0.25 -2.741,-0.325 -2.661,-0.38 c 0.082,-0.055 1.145,-0.413 1.821,-0.476 0.668,-0.064 3.799,0.779 3.799,0.779 L 3.068,0.193 0,0 Z" /></g><g
           transform="translate(19.5972,23.1592)"
           id="g308"><path
             id="path310"
             style="fill:#408cad;fill-opacity:1;fill-rule:nonzero;stroke:none"
             d="m 0,0 c -0.068,0.016 0.199,0.085 0.028,0.142 -0.169,0.048 -1.678,-0.44 -1.81,-0.484 -0.137,-0.046 0.114,0.21 0.061,0.293 -0.06,0.086 -0.145,0.084 -0.261,0.072 -0.103,-0.013 -0.303,-0.085 -0.4,-0.117 -0.098,-0.033 -0.201,-0.013 -0.098,0.126 0.099,0.141 0.724,0.921 0.724,0.921 0,0 0.139,0.149 0.258,0.217 0.123,0.064 1.979,0.681 1.979,0.681 0,0 -0.168,-0.038 -0.429,-0.074 C -0.209,1.739 -0.529,1.75 -0.717,1.695 -0.912,1.646 -1.486,1.491 -1.714,1.504 c -0.235,0.011 -0.751,0.115 -0.84,0.133 -0.088,0.019 0.209,0.158 0.159,0.256 -0.055,0.099 -0.169,-0.02 -0.209,0.022 -0.046,0.046 0.033,0.086 0.065,0.135 0.019,0.05 0.09,0.106 0.253,0.11 0.163,0.003 1.158,-0.074 1.412,-0.068 0.254,10e-4 0.58,0.206 0.952,0.347 0.373,0.14 1.89,0.86 2.591,1.024 C 3.371,3.63 4.278,3.705 4.751,3.676 5.225,3.645 5.463,3.608 5.504,3.597 5.586,3.58 5.677,3.546 5.757,3.521 5.991,3.45 6.211,3.34 6.412,3.209 6.647,3.056 6.893,2.899 7.073,2.678 7.124,2.612 7.163,2.541 7.178,2.462 7.186,2.424 7.182,2.396 7.209,2.362 7.151,2.314 7.19,2.194 7.206,2.134 7.209,2.1 7.245,2.066 7.202,2.042 7.182,2.022 7.149,2.044 7.135,2.059 7.137,2.097 7.088,2.144 7.067,2.177 7.043,2.217 7.024,2.257 7,2.293 6.948,2.196 7.088,2.046 7.084,1.942 6.909,1.945 6.926,2.119 6.852,2.221 6.807,2.277 6.758,2.343 6.69,2.383 6.647,2.408 6.645,2.392 6.606,2.429 6.59,2.45 6.577,2.469 6.567,2.494 6.543,2.555 6.489,2.932 6.369,2.821 6.303,2.76 6.405,2.712 6.36,2.645 6.33,2.596 6.221,2.618 6.176,2.601 6.115,2.575 6.062,2.528 5.996,2.52 5.93,2.512 5.866,2.538 5.803,2.545 5.666,2.554 5.55,2.512 5.426,2.459 5.365,2.431 5.293,2.392 5.227,2.383 5.165,2.375 5.096,2.401 5.034,2.39 4.95,2.37 4.859,2.323 4.778,2.297 4.704,2.274 4.593,2.259 4.535,2.208 4.635,2.17 4.75,2.18 4.857,2.155 4.945,2.138 5.045,2.173 5.123,2.135 5.166,2.113 5.19,2.071 5.235,2.061 5.289,2.05 5.315,2.079 5.355,2.088 5.39,2.1 5.425,2.106 5.458,2.086 5.494,2.066 5.497,1.996 5.547,2.03 5.564,1.982 5.604,1.984 5.633,1.951 5.666,1.915 5.669,1.865 5.713,1.839 5.813,1.777 5.827,1.923 5.883,1.961 5.893,1.954 5.896,1.945 5.903,1.929 5.917,1.938 5.93,1.929 5.948,1.934 5.932,1.862 5.954,1.75 5.972,1.679 6.033,1.692 6.069,1.763 6.092,1.816 6.117,1.871 6.156,1.921 6.177,1.976 6.28,1.977 6.249,1.695 6.235,1.626 6.268,1.631 6.289,1.657 6.323,1.661 6.324,1.615 6.313,1.533 6.288,1.491 6.272,1.463 6.194,1.423 6.218,1.375 6.249,1.3 6.422,1.485 6.495,1.444 6.469,1.368 6.249,1.136 6.424,1.099 6.43,1.044 6.386,0.992 6.357,0.953 6.349,0.933 6.309,0.89 6.309,0.867 6.31,0.85 6.33,0.844 6.331,0.826 6.34,0.76 6.335,0.736 6.296,0.675 6.273,0.641 6.213,0.586 6.211,0.549 6.295,0.562 6.386,0.645 6.469,0.602 6.471,0.482 6.32,0.261 6.224,0.186 6.154,0.136 6.048,0.112 5.964,0.074 5.84,0.014 5.71,-0.032 5.602,-0.12 5.504,-0.205 5.405,-0.3 5.311,-0.388 5.278,-0.417 5.257,-0.472 5.22,-0.5 5.18,-0.531 5.122,-0.554 5.084,-0.581 5.033,-0.617 4.915,-0.696 4.849,-0.651 4.787,-0.609 4.833,-0.494 4.834,-0.438 4.774,-0.403 4.695,-0.535 4.647,-0.456 c -0.028,0.048 0.028,0.198 0.04,0.248 0.017,0.091 0.021,0.182 0.038,0.278 0.017,0.079 0.04,0.161 0.046,0.244 C 4.741,0.328 4.704,0.308 4.678,0.286 4.614,0.393 4.751,0.613 4.654,0.697 4.64,0.65 4.634,0.597 4.622,0.543 4.612,0.496 4.584,0.458 4.575,0.413 4.448,0.457 4.48,0.289 4.443,0.22 4.407,0.147 4.333,0.018 4.265,-0.029 4.22,-0.058 4.192,-0.062 4.145,-0.044 4.119,-0.037 4.099,-0.026 4.075,-0.015 4.061,-0.002 4.047,0.032 4.034,0.035 3.917,0.057 3.958,-0.141 3.872,-0.132 3.879,0.033 3.719,-0.115 3.66,-0.122 3.642,-0.079 3.653,-0.023 3.634,0.016 3.581,0.025 3.571,-0.006 3.533,-0.029 3.478,-0.063 3.456,-0.069 3.4,-0.072 3.379,-0.073 3.337,-0.064 3.303,-0.077 3.278,-0.085 3.253,-0.111 3.225,-0.115 c -0.1,-0.018 -0.06,0.071 -0.127,0.084 -0.057,0.012 -0.103,-0.097 -0.16,-0.095 0,0.057 0.007,0.109 0.011,0.159 C 2.952,0.08 2.997,0.169 2.974,0.211 2.939,0.258 2.72,0.109 2.667,0.077 2.55,0.004 2.459,-0.042 2.332,0.019 2.234,0.059 2.166,0.107 2.07,0.051 1.966,-0.01 1.892,-0.089 1.762,-0.032 1.673,0.006 1.553,0.102 1.489,0.13 1.425,0.164 1.36,0.032 1.292,0.148 1.27,0.189 1.276,0.251 1.209,0.263 1.141,0.276 1.142,0.281 1.065,0.274 0.995,0.267 1.24,0.418 1.108,0.405 0.982,0.397 0.072,-0.016 0,-0.002 L 0,0 Z" /></g></g></g><g
       id="g312"><g
         clip-path="url(#clipPath316)"
         id="g314"><g
           transform="translate(16.6763,20.5088)"
           id="g320"><path
             id="path322"
             style="fill:#408cad;fill-opacity:1;fill-rule:nonzero;stroke:none"
             d="M 0,0 10.718,0.664 10.24,8.349 -0.479,7.681 0,0 Z" /></g></g></g><g
       id="g324"><g
         clip-path="url(#clipPath328)"
         id="g326"><g
           transform="translate(19.5972,23.1592)"
           id="g332"><path
             id="path334"
             style="fill:#408cad;fill-opacity:1;fill-rule:nonzero;stroke:none"
             d="m 0,0 c -0.068,0.016 0.199,0.085 0.028,0.142 -0.169,0.048 -1.678,-0.44 -1.81,-0.484 -0.137,-0.046 0.114,0.21 0.061,0.293 -0.06,0.086 -0.145,0.084 -0.261,0.072 -0.103,-0.013 -0.303,-0.085 -0.4,-0.117 -0.098,-0.033 -0.201,-0.013 -0.098,0.126 0.099,0.141 0.724,0.921 0.724,0.921 0,0 0.139,0.149 0.258,0.217 0.123,0.064 1.979,0.681 1.979,0.681 0,0 -0.168,-0.038 -0.429,-0.074 C -0.209,1.739 -0.529,1.75 -0.717,1.695 -0.912,1.646 -1.486,1.491 -1.714,1.504 c -0.235,0.011 -0.751,0.115 -0.84,0.133 -0.088,0.019 0.209,0.158 0.159,0.256 -0.055,0.099 -0.169,-0.02 -0.209,0.022 -0.046,0.046 0.033,0.086 0.065,0.135 0.019,0.05 0.09,0.106 0.253,0.11 0.163,0.003 1.158,-0.074 1.412,-0.068 0.254,10e-4 0.58,0.206 0.952,0.347 0.373,0.14 1.89,0.86 2.591,1.024 C 3.371,3.63 4.278,3.705 4.751,3.676 5.225,3.645 5.463,3.608 5.504,3.597 5.586,3.58 5.677,3.546 5.757,3.521 5.991,3.45 6.211,3.34 6.412,3.209 6.647,3.056 6.893,2.899 7.073,2.678 7.124,2.612 7.163,2.541 7.178,2.462 7.186,2.424 7.182,2.392 7.209,2.362 7.151,2.314 7.19,2.194 7.206,2.134 7.209,2.1 7.245,2.066 7.202,2.042 7.182,2.022 7.149,2.044 7.135,2.059 7.137,2.097 7.088,2.144 7.067,2.177 7.043,2.217 7.024,2.257 7,2.293 6.948,2.196 7.088,2.046 7.084,1.942 6.909,1.945 6.926,2.119 6.852,2.221 6.807,2.277 6.758,2.343 6.69,2.383 6.647,2.408 6.645,2.392 6.606,2.429 6.59,2.45 6.577,2.469 6.567,2.494 6.543,2.555 6.489,2.932 6.369,2.821 6.303,2.76 6.405,2.712 6.36,2.645 6.33,2.596 6.221,2.618 6.176,2.601 6.115,2.575 6.062,2.528 5.996,2.52 5.93,2.512 5.866,2.538 5.803,2.545 5.666,2.554 5.55,2.512 5.426,2.459 5.365,2.431 5.293,2.392 5.227,2.383 5.165,2.375 5.096,2.401 5.034,2.39 4.95,2.37 4.859,2.323 4.778,2.297 4.704,2.274 4.593,2.259 4.535,2.208 4.635,2.17 4.75,2.18 4.857,2.155 4.945,2.138 5.045,2.173 5.123,2.135 5.166,2.113 5.19,2.071 5.235,2.061 5.289,2.05 5.315,2.079 5.355,2.088 5.39,2.1 5.425,2.106 5.458,2.086 5.494,2.066 5.497,1.996 5.547,2.03 5.564,1.982 5.604,1.984 5.633,1.951 5.666,1.915 5.669,1.865 5.713,1.839 5.813,1.777 5.827,1.923 5.883,1.961 5.893,1.954 5.896,1.945 5.903,1.929 5.917,1.938 5.93,1.929 5.948,1.934 5.932,1.862 5.954,1.75 5.972,1.679 6.033,1.688 6.069,1.763 6.092,1.816 6.117,1.871 6.156,1.921 6.177,1.976 6.28,1.977 6.249,1.695 6.235,1.626 6.268,1.631 6.289,1.657 6.323,1.661 6.324,1.615 6.313,1.533 6.288,1.491 6.272,1.463 6.194,1.426 6.218,1.375 6.249,1.3 6.422,1.485 6.495,1.444 6.469,1.368 6.249,1.136 6.424,1.099 6.43,1.044 6.386,0.992 6.357,0.953 6.349,0.933 6.309,0.89 6.309,0.867 6.31,0.85 6.33,0.844 6.331,0.826 6.34,0.76 6.335,0.736 6.296,0.675 6.273,0.641 6.213,0.586 6.211,0.549 6.295,0.562 6.386,0.645 6.469,0.602 6.471,0.482 6.32,0.261 6.224,0.186 6.154,0.136 6.048,0.112 5.964,0.074 5.84,0.014 5.71,-0.032 5.602,-0.12 5.504,-0.205 5.405,-0.3 5.311,-0.388 5.278,-0.417 5.257,-0.472 5.22,-0.5 5.18,-0.531 5.122,-0.554 5.084,-0.581 5.033,-0.617 4.915,-0.696 4.849,-0.651 4.787,-0.609 4.833,-0.494 4.834,-0.438 4.774,-0.403 4.695,-0.535 4.647,-0.456 c -0.028,0.048 0.028,0.198 0.04,0.248 0.017,0.091 0.021,0.182 0.038,0.278 0.017,0.079 0.04,0.161 0.046,0.244 C 4.741,0.328 4.704,0.308 4.678,0.286 4.614,0.393 4.751,0.613 4.654,0.697 4.64,0.65 4.634,0.597 4.622,0.543 4.612,0.496 4.584,0.458 4.575,0.413 4.448,0.457 4.48,0.289 4.443,0.22 4.407,0.147 4.333,0.018 4.265,-0.029 4.22,-0.058 4.192,-0.062 4.145,-0.044 4.119,-0.037 4.099,-0.026 4.075,-0.015 4.061,-0.002 4.047,0.032 4.034,0.035 3.917,0.057 3.958,-0.141 3.872,-0.132 3.879,0.033 3.719,-0.115 3.66,-0.122 3.642,-0.079 3.653,-0.023 3.634,0.016 3.581,0.025 3.571,-0.006 3.533,-0.029 3.478,-0.063 3.456,-0.069 3.4,-0.072 3.379,-0.073 3.337,-0.064 3.303,-0.077 3.278,-0.085 3.253,-0.111 3.225,-0.115 c -0.1,-0.018 -0.06,0.071 -0.127,0.084 -0.057,0.012 -0.103,-0.097 -0.16,-0.095 0,0.057 0.007,0.109 0.011,0.159 C 2.952,0.08 2.997,0.169 2.974,0.211 2.939,0.258 2.72,0.109 2.667,0.077 2.55,0.004 2.459,-0.042 2.332,0.019 2.234,0.059 2.166,0.107 2.07,0.051 1.966,-0.01 1.892,-0.089 1.762,-0.032 1.673,0.006 1.553,0.102 1.489,0.13 1.425,0.164 1.36,0.032 1.292,0.148 1.27,0.19 1.276,0.251 1.209,0.263 1.141,0.276 1.142,0.281 1.065,0.274 0.995,0.267 1.24,0.418 1.108,0.405 0.982,0.397 0.072,-0.016 0,-0.002 L 0,0 Z" /></g><g
           transform="translate(29.0625,27.937)"
           id="g336"><path
             id="path338"
             style="fill:#408cad;fill-opacity:1;fill-rule:nonzero;stroke:none"
             d="m 0,0 c -0.043,0.046 0.225,0.117 0.324,0.154 0.09,0.034 0.039,0.312 0.09,0.285 0.047,-0.027 0.44,-0.539 0.758,-0.748 0.322,-0.207 0.822,-0.635 1.246,-1.008 0.434,-0.377 0.93,-0.864 1.125,-1.069 0.197,-0.198 0.355,-0.369 0.346,-0.421 -0.01,-0.052 -0.1,-0.032 -0.1,-0.032 0,0 0.031,-0.089 -0.076,-0.087 -0.111,0.007 -1.318,0.745 -1.969,1.204 -0.648,0.454 -0.859,0.693 -1.131,0.92 -0.265,0.225 -0.461,0.356 -0.539,0.372 -0.076,0.018 0.129,-0.005 0.182,0.092 0.056,0.096 -0.098,0.234 -0.098,0.234 0,0 -0.111,0.06 -0.158,0.104" /></g></g></g><g
       id="g340"><g
         clip-path="url(#clipPath344)"
         id="g342"><g
           transform="translate(27.582,26.731)"
           id="g348"><path
             id="path350"
             style="fill:#408cad;fill-opacity:1;fill-rule:nonzero;stroke:none"
             d="M 0,0 3.875,-3.423 6.871,-0.025 2.996,3.396 0,0 Z" /></g></g></g><g
       id="g352"><g
         clip-path="url(#clipPath356)"
         id="g354"><g
           transform="translate(29.0625,27.937)"
           id="g360"><path
             id="path362"
             style="fill:#408cad;fill-opacity:1;fill-rule:nonzero;stroke:none"
             d="m 0,0 c -0.043,0.046 0.225,0.117 0.324,0.154 0.09,0.034 0.039,0.312 0.09,0.285 0.047,-0.027 0.44,-0.539 0.758,-0.748 0.322,-0.207 0.822,-0.635 1.246,-1.008 0.434,-0.377 0.93,-0.864 1.125,-1.069 0.197,-0.198 0.355,-0.369 0.346,-0.421 -0.01,-0.052 -0.1,-0.032 -0.1,-0.032 0,0 0.031,-0.089 -0.076,-0.087 -0.111,0.007 -1.318,0.745 -1.969,1.204 -0.648,0.454 -0.859,0.693 -1.131,0.924 -0.265,0.221 -0.461,0.352 -0.539,0.368 -0.076,0.018 0.129,-0.005 0.182,0.092 0.056,0.096 -0.098,0.234 -0.098,0.234 0,0 -0.111,0.06 -0.158,0.104" /></g><g
           transform="translate(29.6992,27.8633)"
           id="g364"><path
             id="path366"
             style="fill:#408cad;fill-opacity:1;fill-rule:nonzero;stroke:none"
             d="m 0,0 c -0.123,-0.03 -0.01,-0.163 0.059,-0.215 0.062,-0.047 0.154,-0.247 0.228,-0.148 0.065,0.105 -0.16,0.159 -0.234,0.279 0,0 -0.006,0.069 -0.053,0.084" /></g><g
           transform="translate(29.6992,27.8633)"
           id="g368"><path
             id="path370"
             style="fill:#408cad;fill-opacity:1;fill-rule:nonzero;stroke:none"
             d="m 0,0 c -0.123,-0.03 -0.01,-0.163 0.059,-0.215 0.062,-0.047 0.154,-0.247 0.228,-0.148 0.065,0.105 -0.16,0.159 -0.234,0.279 0,0 -0.006,0.069 -0.053,0.084" /></g><g
           transform="translate(29.2109,27.9448)"
           id="g372"><path
             id="path374"
             style="fill:#408cad;fill-opacity:1;fill-rule:nonzero;stroke:none"
             d="M 0,0 C -0.059,0.027 0.139,0.048 0.182,0.015 0.229,-0.015 0.486,-0.302 0.721,-0.524 1.174,-0.955 2.572,-2.013 2.82,-2.196 3.064,-2.376 3.629,-2.825 3.641,-2.847 3.656,-2.873 3.65,-2.879 3.531,-2.799 3.414,-2.72 1.346,-1.137 1.072,-0.909 0.797,-0.682 0.373,-0.228 0.154,-0.053 0.086,0.007 0.053,-0.027 0,0" /></g></g></g><g
       id="g376"><g
         clip-path="url(#clipPath380)"
         id="g378"><g
           transform="translate(27.9199,26.6201)"
           id="g384"><path
             id="path386"
             style="fill:#408cad;fill-opacity:1;fill-rule:nonzero;stroke:none"
             d="M 0,0 3.551,-3.138 6.195,-0.147 2.639,2.993 0,0 Z" /></g></g></g><g
       id="g388"><g
         clip-path="url(#clipPath392)"
         id="g390"><g
           transform="translate(28.3926,28.9248)"
           id="g396"><path
             id="path398"
             style="fill:#408cad;fill-opacity:1;fill-rule:nonzero;stroke:none"
             d="M 0,0 C 0.016,0.137 0.283,0.304 0.482,0.263 0.684,0.222 0.748,-0.021 0.729,-0.123 0.707,-0.221 0.473,-0.351 0.316,-0.318 0.162,-0.288 -0.018,-0.136 0,0" /></g></g></g><g
       id="g400"><g
         clip-path="url(#clipPath404)"
         id="g402"><g
           transform="translate(28.627,28.2412)"
           id="g408"><path
             id="path410"
             style="fill:#408cad;fill-opacity:1;fill-rule:nonzero;stroke:none"
             d="M 0,0 0.799,0.53 0.266,1.326 -0.529,0.797 0,0 Z" /></g></g></g><g
       id="g412"><g
         clip-path="url(#clipPath416)"
         id="g414"><g
           transform="translate(28.3926,28.9248)"
           id="g420"><path
             id="path422"
             style="fill:#408cad;fill-opacity:1;fill-rule:nonzero;stroke:none"
             d="M 0,0 C 0.016,0.137 0.283,0.304 0.482,0.263 0.684,0.222 0.748,-0.021 0.729,-0.123 0.707,-0.221 0.473,-0.351 0.316,-0.318 0.162,-0.288 -0.018,-0.136 0,0" /></g><g
           transform="translate(28.5332,28.9355)"
           id="g424"><path
             id="path426"
             style="fill:#408cad;fill-opacity:1;fill-rule:nonzero;stroke:none"
             d="M 0,0 C -0.004,-0.128 0.121,-0.204 0.215,-0.222 0.303,-0.24 0.48,-0.156 0.482,-0.089 0.486,-0.018 0.42,0.134 0.322,0.153 0.219,0.173 0.006,0.126 0,0" /></g><g
           transform="translate(28.5332,28.9355)"
           id="g428"><path
             id="path430"
             style="fill:#408cad;fill-opacity:1;fill-rule:nonzero;stroke:none"
             d="M 0,0 C -0.004,-0.128 0.121,-0.204 0.215,-0.222 0.303,-0.24 0.48,-0.156 0.482,-0.089 0.486,-0.018 0.42,0.134 0.322,0.153 0.219,0.173 0.006,0.126 0,0" /></g><g
           transform="translate(28.7539,28.9927)"
           id="g432"><path
             id="path434"
             style="fill:#408cad;fill-opacity:1;fill-rule:nonzero;stroke:none"
             d="M 0,0 C -0.049,-0.033 -0.062,-0.057 -0.047,-0.107 -0.037,-0.14 -0.01,-0.196 0.031,-0.203 0.078,-0.21 0.115,-0.156 0.117,-0.116 0.125,-0.054 0.088,0.001 0.062,0.012 0.033,0.022 0,0 0,0" /></g><g
           transform="translate(28.7539,28.9927)"
           id="g436"><path
             id="path438"
             style="fill:#408cad;fill-opacity:1;fill-rule:nonzero;stroke:none"
             d="M 0,0 C -0.049,-0.033 -0.062,-0.057 -0.047,-0.107 -0.037,-0.14 -0.01,-0.196 0.031,-0.203 0.078,-0.21 0.115,-0.156 0.117,-0.116 0.125,-0.054 0.088,0.001 0.062,0.012 0.033,0.022 0,0 0,0" /></g><g
           transform="translate(28.8496,29.0098)"
           id="g440"><path
             id="path442"
             style="fill:#408cad;fill-opacity:1;fill-rule:nonzero;stroke:none"
             d="M 0,0 C 0.002,-0.023 0.01,-0.037 0.033,-0.049 0.055,-0.056 0.078,-0.065 0.092,-0.056 0.1,-0.041 0.084,-0.008 0.072,0.005 0.043,0.026 0.014,0.034 0.006,0.026 -0.006,0.022 0,0 0,0" /></g><g
           transform="translate(25.6528,27.3047)"
           id="g444"><path
             id="path446"
             style="fill:#408cad;fill-opacity:1;fill-rule:nonzero;stroke:none"
             d="m 0,0 c 0.102,-0.11 0.232,-0.187 0.357,-0.284 0.215,-0.163 0.543,-0.301 0.818,-0.35 0.133,-0.025 0.264,-0.013 0.399,-0.021 0.117,-0.007 0.301,0.027 0.369,0.146 0.068,0.12 0.047,0.24 -0.024,0.34 C 1.789,0.042 1.769,-0.042 1.63,-0.196 1.435,-0.089 1.705,0.305 1.787,0.419 1.845,0.501 1.998,0.617 1.955,0.729 1.927,0.8 1.761,0.855 1.707,0.925 1.644,1.021 1.619,1.157 1.673,1.248 1.761,1.385 1.826,1.283 1.945,1.311 2.138,1.364 1.886,1.765 2.181,1.77 2.205,1.85 2.244,1.85 2.216,1.942 2.191,2.028 2.128,2.04 2.078,2.101 1.976,2.208 1.953,2.412 1.783,2.247 1.683,2.144 1.65,1.974 1.544,1.882 1.443,1.804 1.238,1.783 1.115,1.827 1.107,1.82 1.107,1.812 1.099,1.807 0.882,1.558 0.363,0.999 0.226,0.755 0.083,0.513 0.048,0.338 -0.002,0.17 -0.014,0.145 -0.034,0.121 -0.074,0.104 -0.051,0.063 -0.029,0.03 0,0" /></g><g
           transform="translate(25.6528,27.3047)"
           id="g448"><path
             id="path450"
             style="fill:#408cad;fill-opacity:1;fill-rule:nonzero;stroke:none"
             d="m 0,0 c 0.102,-0.11 0.232,-0.187 0.357,-0.284 0.215,-0.163 0.543,-0.301 0.818,-0.35 0.133,-0.025 0.264,-0.013 0.399,-0.021 0.117,-0.007 0.301,0.027 0.369,0.146 0.068,0.12 0.047,0.24 -0.024,0.34 C 1.789,0.042 1.769,-0.042 1.63,-0.196 1.435,-0.089 1.705,0.305 1.787,0.419 1.845,0.501 1.998,0.617 1.955,0.729 1.927,0.8 1.761,0.855 1.707,0.925 1.644,1.021 1.619,1.157 1.673,1.248 1.761,1.385 1.826,1.283 1.945,1.311 2.138,1.364 1.886,1.765 2.181,1.77 2.205,1.85 2.244,1.85 2.216,1.942 2.191,2.028 2.128,2.04 2.078,2.101 1.976,2.208 1.953,2.412 1.783,2.247 1.683,2.144 1.65,1.974 1.544,1.882 1.443,1.804 1.238,1.783 1.115,1.827 1.107,1.82 1.107,1.812 1.099,1.807 0.882,1.558 0.363,0.999 0.226,0.755 0.083,0.513 0.048,0.338 -0.002,0.17 -0.014,0.145 -0.034,0.121 -0.074,0.104 -0.051,0.063 -0.029,0.03 0,0" /></g></g></g></g></svg>