<?xml version="1.0" encoding="UTF-8" standalone="no"?>
<svg
   xmlns:dc="http://purl.org/dc/elements/1.1/"
   xmlns:cc="http://creativecommons.org/ns#"
   xmlns:rdf="http://www.w3.org/1999/02/22-rdf-syntax-ns#"
   xmlns:svg="http://www.w3.org/2000/svg"
   xmlns="http://www.w3.org/2000/svg"
   viewBox="0 0 54.705734 54.710266"
   height="54.710266"
   width="54.705734"
   xml:space="preserve"
   version="1.1"
   id="svg2"><metadata
     id="metadata8"><rdf:RDF><cc:Work
         rdf:about=""><dc:format>image/svg+xml</dc:format><dc:type
           rdf:resource="http://purl.org/dc/dcmitype/StillImage" /></cc:Work></rdf:RDF></metadata><defs
     id="defs6"><clipPath
       id="clipPath16"
       clipPathUnits="userSpaceOnUse"><path
         id="path18"
         d="m 0,41.033 41.029,0 L 41.029,0 0,0 0,41.033 Z" /></clipPath><clipPath
       id="clipPath28"
       clipPathUnits="userSpaceOnUse"><path
         id="path30"
         d="m 8.56641,16.2031 7.03999,0 0,-2.0068 -7.03999,0 0,2.0068 z" /></clipPath><clipPath
       id="clipPath44"
       clipPathUnits="userSpaceOnUse"><path
         id="path46"
         d="m 30.7754,21.3232 3.1426,0 0,-2.4375 -3.1426,0 0,2.4375 z" /></clipPath><clipPath
       id="clipPath60"
       clipPathUnits="userSpaceOnUse"><path
         id="path62"
         d="m 13.4946,19.5552 4.7115,0 0,-2.8838 -4.7115,0 0,2.8838 z" /></clipPath><clipPath
       id="clipPath76"
       clipPathUnits="userSpaceOnUse"><path
         id="path78"
         d="m 7.98926,18.3882 12.21584,0 0,-7.8023 -12.21584,0 0,7.8023 z" /></clipPath><clipPath
       id="clipPath92"
       clipPathUnits="userSpaceOnUse"><path
         id="path94"
         d="m 3.98926,21.9414 5.49511,0 0,-3.9072 -5.49511,0 0,3.9072 z" /></clipPath><clipPath
       id="clipPath108"
       clipPathUnits="userSpaceOnUse"><path
         id="path110"
         d="m 17.3667,30.8159 14.0532,0 0,-4.0034 -14.0532,0 0,4.0034 z" /></clipPath><clipPath
       id="clipPath124"
       clipPathUnits="userSpaceOnUse"><path
         id="path126"
         d="m 8.21143,30.8491 11.07467,0 0,-8.0205 -11.07467,0 0,8.0205 z" /></clipPath><clipPath
       id="clipPath140"
       clipPathUnits="userSpaceOnUse"><path
         id="path142"
         d="m 28.8945,18.0786 8.2129,0 0,-4.3223 -8.2129,0 0,4.3223 z" /></clipPath><clipPath
       id="clipPath184"
       clipPathUnits="userSpaceOnUse"><path
         id="path186"
         d="m 20.7783,28.5156 3.6153,0 0,-2.7744 -3.6153,0 0,2.7744 z" /></clipPath><clipPath
       id="clipPath200"
       clipPathUnits="userSpaceOnUse"><path
         id="path202"
         d="m 17.5996,28.0903 3.6533,0 0,-1.9756 -3.6533,0 0,1.9756 z" /></clipPath><clipPath
       id="clipPath216"
       clipPathUnits="userSpaceOnUse"><path
         id="path218"
         d="m 28.2031,29.7124 4.5606,0 0,-3.7485 -4.5606,0 0,3.7485 z" /></clipPath><clipPath
       id="clipPath232"
       clipPathUnits="userSpaceOnUse"><path
         id="path234"
         d="m 33.2969,21.8179 4.5068,0 0,-2.6016 -4.5068,0 0,2.6016 z" /></clipPath><clipPath
       id="clipPath248"
       clipPathUnits="userSpaceOnUse"><path
         id="path250"
         d="m 28.0547,21.228 4.1015,0 0,-2.0117 -4.1015,0 0,2.0117 z" /></clipPath><clipPath
       id="clipPath264"
       clipPathUnits="userSpaceOnUse"><path
         id="path266"
         d="m 27.4131,15.4751 5.3203,0 0,-1.9751 -5.3203,0 0,1.9751 z" /></clipPath><clipPath
       id="clipPath280"
       clipPathUnits="userSpaceOnUse"><path
         id="path282"
         d="m 23.0986,23.5703 8.92,0 0,-3.187 -8.92,0 0,3.187 z" /></clipPath><clipPath
       id="clipPath296"
       clipPathUnits="userSpaceOnUse"><path
         id="path298"
         d="m 20.8315,27.9219 10.7789,0 0,-5.4419 -10.7789,0 0,5.4419 z" /></clipPath><clipPath
       id="clipPath312"
       clipPathUnits="userSpaceOnUse"><path
         id="path314"
         d="m 16.6162,19.5171 3.8545,0 0,-4.8389 -3.8545,0 0,4.8389 z" /></clipPath><clipPath
       id="clipPath328"
       clipPathUnits="userSpaceOnUse"><path
         id="path330"
         d="m 12.4199,23.769 6.8599,0 0,-3.9023 -6.8599,0 0,3.9023 z" /></clipPath><clipPath
       id="clipPath344"
       clipPathUnits="userSpaceOnUse"><path
         id="path346"
         d="m 2.0249,26.9414 10.1538,0 0,-6.9971 -10.1538,0 0,6.9971 z" /></clipPath><clipPath
       id="clipPath360"
       clipPathUnits="userSpaceOnUse"><path
         id="path362"
         d="m 15.3823,24.061 11.2593,0 0,-7.4756 -11.2593,0 0,7.4756 z" /></clipPath><clipPath
       id="clipPath376"
       clipPathUnits="userSpaceOnUse"><path
         id="path378"
         d="m 10.4941,24.4355 5.5054,0 0,-4.5024 -5.5054,0 0,4.5024 z" /></clipPath><clipPath
       id="clipPath392"
       clipPathUnits="userSpaceOnUse"><path
         id="path394"
         d="m 24.0503,17.582 2.2397,0 0,-4.2343 -2.2397,0 0,4.2343 z" /></clipPath><clipPath
       id="clipPath408"
       clipPathUnits="userSpaceOnUse"><path
         id="path410"
         d="m 22.5605,26.7217 3.6661,0 0,-3.3169 -3.6661,0 0,3.3169 z" /></clipPath><clipPath
       id="clipPath424"
       clipPathUnits="userSpaceOnUse"><path
         id="path426"
         d="m 29.9717,24.7017 6.9375,0 0,-6.1319 -6.9375,0 0,6.1319 z" /></clipPath><clipPath
       id="clipPath440"
       clipPathUnits="userSpaceOnUse"><path
         id="path442"
         d="m 9.10742,28.0957 4.98978,0 0,-3.6787 -4.98978,0 0,3.6787 z" /></clipPath><clipPath
       id="clipPath456"
       clipPathUnits="userSpaceOnUse"><path
         id="path458"
         d="m 10.9873,26.2563 1.4941,0 0,-1.5839 -1.4941,0 0,1.5839 z" /></clipPath><clipPath
       id="clipPath472"
       clipPathUnits="userSpaceOnUse"><path
         id="path474"
         d="m 26.4756,19.0571 5.1699,0 0,-3.7783 -5.1699,0 0,3.7783 z" /></clipPath><clipPath
       id="clipPath488"
       clipPathUnits="userSpaceOnUse"><path
         id="path490"
         d="m 29.7021,27.7378 6.1192,0 0,-3.9937 -6.1192,0 0,3.9937 z" /></clipPath></defs><g
     transform="matrix(1.3333333,0,0,-1.3333333,0,54.710267)"
     id="g10"><g
       id="g12"><g
         clip-path="url(#clipPath16)"
         id="g14"><g
           transform="translate(20.5161,38.8735)"
           id="g20"><path
             id="path22"
             style="fill:#737577;fill-opacity:1;fill-rule:nonzero;stroke:none"
             d="m 0,0 c -10.122,0 -18.358,-8.237 -18.358,-18.358 0,-10.121 8.236,-18.36 18.358,-18.36 10.123,0 18.357,8.239 18.357,18.36 C 18.357,-8.237 10.123,0 0,0 m 0,-38.876 c -11.313,0 -20.516,9.206 -20.516,20.518 0,11.313 9.203,20.517 20.516,20.517 11.314,0 20.517,-9.204 20.517,-20.517 0,-11.312 -9.203,-20.518 -20.517,-20.518" /></g><g
           id="g24"><g
             id="g26" /><g
             id="g32"><g
               style="opacity:0.89999402"
               id="g34"
               clip-path="url(#clipPath28)"><g
                 id="g36"
                 transform="translate(9.8433,14.7129)"><path
                   id="path38"
                   style="fill:#1d81a4;fill-opacity:1;fill-rule:nonzero;stroke:none"
                   d="m 0,0 c 0.247,-0.429 0.721,-0.297 1.091,-0.395 0.081,-0.018 0,-0.148 0.207,-0.116 0.121,0.016 0.121,0.182 0.225,0.199 0.103,0.032 0.145,-0.101 0.267,-0.083 0.145,0.032 0.145,0.066 0.248,0.116 0.083,0.05 0.164,0.098 0.288,0.131 0.104,0.032 0.185,-0.033 0.288,0.065 C 2.779,0.099 2.387,0.246 2.552,0.395 2.594,0.412 2.862,0.412 2.901,0.378 3.067,0.263 2.901,0.279 2.862,0.181 2.8,0.017 2.614,-0.247 3.067,-0.166 2.984,-0.66 4.261,-0.346 3.788,-0.148 3.973,0.017 4.137,-0.215 4.301,-0.263 4.589,-0.329 4.529,-0.247 4.693,-0.099 4.796,-0.032 5.022,0.198 5.125,0.247 5.331,0.346 5.661,0.198 5.763,0.445 5.558,0.544 5.496,0.346 5.312,0.378 5.104,0.428 5.228,0.593 5.043,0.658 4.754,0.757 4.467,0.428 4.179,0.511 4.364,0.692 4.816,0.807 4.384,0.954 4.179,1.021 3.562,0.907 3.992,0.742 3.726,0.526 3.459,0.988 3.088,0.872 2.922,0.823 2.862,0.643 2.656,0.692 2.449,0.742 2.43,0.954 2.532,1.087 2.286,1.218 2.162,0.89 1.976,1.021 1.79,1.153 2.142,1.398 1.79,1.483 1.564,1.532 1.502,1.317 1.358,1.301 1.172,1.268 0.844,1.564 0.74,1.334 1.091,1.334 1.214,0.89 0.906,0.907 0.74,0.907 0.371,1.317 0.431,1.384 0.33,1.483 0.082,1.466 0,1.35 -0.166,1.137 0.143,1.104 -0.206,0.988 -0.535,0.89 -0.824,1.005 -1.131,1.005 c 0,-0.051 -0.021,-0.115 -0.021,-0.149 -0.041,0.016 -0.083,0.016 -0.124,0.016 0,-0.18 -0.019,-0.214 0.124,-0.312 0.04,-0.034 0.144,0.016 0.185,-0.016 0.081,-0.05 0.081,-0.166 0.123,-0.181 C -0.699,0.247 -0.021,0.329 0,0.066" /></g></g></g></g><g
           id="g40"><g
             id="g42" /><g
             id="g48"><g
               style="opacity:0.89999402"
               id="g50"
               clip-path="url(#clipPath44)"><g
                 id="g52"
                 transform="translate(31.0352,20.0376)"><path
                   id="path54"
                   style="fill:#1d81a4;fill-opacity:1;fill-rule:nonzero;stroke:none"
                   d="m 0,0 c -0.039,-0.854 0.701,0.229 0.824,0.229 0.574,-0.065 0.205,-0.92 -0.123,-1.05 0.287,-0.66 1.192,-0.199 1.6,0.229 0.125,0.163 0.084,0.329 0.166,0.459 0.041,0.032 0.412,0.362 0.412,0.395 C 2.92,0.426 2.59,0.952 2.344,1.083 2.096,1.215 1.564,1.15 1.234,1.15 0.947,1.15 0.455,1.314 0.248,1.281 -0.449,1.25 -0.367,0.196 0.127,0" /></g></g></g></g><g
           id="g56"><g
             id="g58" /><g
             id="g64"><g
               style="opacity:0.89999402"
               id="g66"
               clip-path="url(#clipPath60)"><g
                 id="g68"
                 transform="translate(13.4946,16.8481)"><path
                   id="path70"
                   style="fill:#1d81a4;fill-opacity:1;fill-rule:nonzero;stroke:none"
                   d="m 0,0 c 0,0.198 0.165,0.428 0.371,0.525 0.41,0.231 0.285,0.033 0.698,0 0.903,-0.064 0.821,0.263 1.15,0.691 0.041,0.033 0.246,0 0.329,0.099 0.04,0.065 0,0.165 0.04,0.229 C 2.712,1.708 2.712,1.873 2.877,2.039 3.204,2.335 3.904,2.86 4.436,2.664 5.012,2.466 4.519,2.17 4.436,1.776 4.436,1.643 4.519,1.48 4.478,1.38 4.314,1.019 4.314,1.184 3.986,1.019 3.655,0.887 3.244,0.756 2.958,0.526 2.754,0.361 2.67,0.131 2.465,0 2.013,-0.262 1.396,-0.165 0.863,-0.131 c -0.327,0 -0.575,-0.067 -0.781,0.163" /></g></g></g></g><g
           id="g72"><g
             id="g74" /><g
             id="g80"><g
               style="opacity:0.88999897"
               id="g82"
               clip-path="url(#clipPath76)"><g
                 id="g84"
                 transform="translate(12.4634,13.5059)"><path
                   id="path86"
                   style="fill:#1d81a4;fill-opacity:1;fill-rule:nonzero;stroke:none"
                   d="m 0,0 c 0.492,-0.099 0.903,-0.46 0.369,-0.757 -0.205,-0.132 -0.534,0.034 -0.781,-0.164 -0.248,-0.165 -0.124,-0.262 -0.206,-0.428 -0.205,-0.263 -0.286,-0.657 -0.656,-0.92 -0.658,-0.427 -0.7,0.132 -1.111,0.132 -0.492,-0.034 -0.656,-0.657 -1.19,-0.758 -0.904,-0.163 -0.617,0.495 -0.247,0.857 0.124,0.163 0.411,0.163 0.453,0.33 0.204,0.459 -0.165,0.195 -0.329,0.328 -0.124,0.065 -0.617,0.031 -0.371,0.326 0.124,0.133 0.658,0.067 0.823,0.101 0.122,0.821 -0.986,-0.23 -0.946,0.525 0.084,0.624 0.905,0.461 1.397,0.56 0.452,0.097 1.11,0.524 0.287,0.623 -0.287,0.035 -0.45,-0.163 -0.656,-0.163 -0.287,0 -0.534,0.098 -0.823,0.098 -0.245,0 -0.121,-0.461 -0.45,-0.034 -0.084,0.099 0,0.494 0,0.66 -0.042,0.327 -0.166,0.787 0.492,0.854 0.74,0.099 0.37,-0.723 0.987,-0.92 0.246,-0.1 1.231,-0.033 1.478,0.031 0.206,0.035 0.247,0.23 0.453,0.265 0.123,0.032 0.327,-0.067 0.408,-0.067 0.495,0.164 0.371,0.296 0.66,0.658 0.205,0.23 0.492,0.296 0.657,0.59 C 0.861,3.023 0.492,3.385 0.861,3.615 0.492,3.846 -0.001,4.242 0.574,4.568 1.19,4.897 0.986,4.108 1.683,4.14 2.299,4.14 2.751,4.702 3.327,4.798 3.655,4.865 4.436,4.931 4.724,4.833 5.339,4.702 6.696,3.385 5.792,3.221 4.929,3.056 4.436,4.208 3.492,3.648 3.983,3.419 3.655,3.32 3.531,3.123 3.327,2.86 3.121,2.727 2.957,2.4 3.614,2.17 3.902,2.596 4.519,2.367 4.601,2.334 4.56,2.17 4.724,2.103 c 0.122,-0.034 0.246,0.1 0.37,0.1 0.245,0 0.492,0.066 0.739,0.066 C 6.942,2.235 8.01,1.415 7.681,0.592 7.518,0.065 7.312,-0.065 6.696,-0.099 6.244,-0.132 5.833,-0.198 5.422,-0.198 4.888,-0.198 4.354,0.229 3.861,0.164 3.163,0.099 3.245,-0.362 2.505,-0.132 2.053,-0.001 1.765,0.329 1.272,0.426 0.942,0.493 0.082,0.459 0.041,0.132" /></g></g></g></g><g
           id="g88"><g
             id="g90" /><g
             id="g96"><g
               style="opacity:0.89999402"
               id="g98"
               clip-path="url(#clipPath92)"><g
                 id="g100"
                 transform="translate(8.8032,20.8926)"><path
                   id="path102"
                   style="fill:#1d81a4;fill-opacity:1;fill-rule:nonzero;stroke:none"
                   d="M 0,0 C 0.452,-0.165 0.204,-0.362 0.328,-0.592 0.41,-0.723 0.781,-1.052 0.656,-1.216 0.575,-1.38 -0.042,-1.25 -0.207,-1.38 -0.412,-1.512 -0.289,-1.84 -0.412,-2.005 -0.699,-2.4 -1.316,-2.366 -1.85,-2.366 c -1.026,0 -0.739,0.295 -0.083,0.723 -1.561,0.065 -0.573,-0.79 -1.395,-1.215 -0.124,0.163 -0.248,0.096 -0.206,0.327 -0.123,-0.065 -0.286,-0.065 -0.41,-0.198 -0.576,0.593 0.657,1.053 0.944,1.447 -0.494,0.296 -1.644,-0.822 -1.437,-0.066 0.042,0.066 0.368,0.066 0.41,0.264 0.041,0.131 -0.41,0.229 -0.327,0.426 0.122,0.296 0.778,0.066 1.067,0.23 -0.41,0.461 -1.439,0.165 -1.521,0.988 -0.041,0.261 0.125,0.59 0.535,0.459 0.453,-0.164 0.123,-0.426 0.779,-0.526 0.865,-0.131 1.193,0.362 1.932,0.362 0.658,0 1.273,-0.362 1.52,-0.822" /></g></g></g></g><g
           id="g104"><g
             id="g106" /><g
             id="g112"><g
               style="opacity:0.88999897"
               id="g114"
               clip-path="url(#clipPath108)"><g
                 id="g116"
                 transform="translate(19.916,27.8433)"><path
                   id="path118"
                   style="fill:#1d81a4;fill-opacity:1;fill-rule:nonzero;stroke:none"
                   d="m 0,0 c 0.492,-0.855 1.439,-0.592 2.178,-0.788 0.164,-0.035 0,-0.297 0.411,-0.233 0.246,0.035 0.246,0.363 0.452,0.396 0.205,0.066 0.287,-0.198 0.533,-0.163 0.288,0.064 0.288,0.13 0.495,0.229 0.163,0.098 0.328,0.197 0.575,0.262 0.205,0.067 0.369,-0.065 0.575,0.132 C 5.546,0.196 4.766,0.492 5.095,0.788 5.177,0.82 5.71,0.82 5.793,0.756 6.121,0.526 5.793,0.558 5.71,0.36 5.587,0.032 5.219,-0.493 6.121,-0.329 c -0.163,-0.986 2.383,-0.362 1.44,0.032 0.371,0.329 0.697,-0.131 1.027,-0.229 0.574,-0.132 0.451,0.033 0.779,0.328 0.205,0.133 0.656,0.594 0.863,0.69 0.413,0.199 1.069,-0.096 1.274,0.395 C 11.094,1.085 10.969,0.691 10.6,0.756 10.189,0.855 10.436,1.184 10.066,1.315 9.492,1.513 8.916,0.855 8.342,1.018 8.711,1.381 9.615,1.611 8.752,1.905 8.342,2.038 7.109,1.808 7.971,1.479 7.437,1.053 6.902,1.972 6.162,1.742 5.833,1.643 5.711,1.283 5.3,1.381 4.891,1.479 4.849,1.905 5.054,2.169 4.562,2.432 4.316,1.775 3.945,2.038 3.574,2.302 4.274,2.795 3.574,2.958 3.124,3.057 3.001,2.629 2.713,2.597 2.342,2.53 1.685,3.124 1.481,2.662 2.178,2.662 2.424,1.775 1.809,1.808 1.481,1.808 0.741,2.629 0.864,2.76 0.659,2.958 0.165,2.926 0,2.696 -0.327,2.269 0.288,2.202 -0.409,1.972 -1.067,1.775 -1.641,2.004 -2.258,2.004 c 0,-0.099 -0.041,-0.229 -0.041,-0.296 -0.083,0.034 -0.164,0.034 -0.248,0.034 0,-0.362 -0.04,-0.427 0.248,-0.624 C -2.218,1.053 -2.012,1.151 -1.93,1.085 -1.765,0.986 -1.765,0.756 -1.683,0.723 -1.396,0.492 -0.041,0.657 0,0.13" /></g></g></g></g><g
           id="g120"><g
             id="g122" /><g
             id="g128"><g
               style="opacity:0.89999402"
               id="g130"
               clip-path="url(#clipPath124)"><g
                 id="g132"
                 transform="translate(13.6592,30.6875)"><path
                   id="path134"
                   style="fill:#1d81a4;fill-opacity:1;fill-rule:nonzero;stroke:none"
                   d="m 0,0 c 0.985,0.788 0.738,-1.577 1.849,-1.314 0.822,0.197 0.41,0.855 1.478,0.395 0.985,-0.395 0.247,-0.592 0.411,-1.283 0.616,0.032 0.864,-0.494 0.206,-0.558 -0.165,-0.033 -0.33,0.261 -0.657,0.23 -0.288,-0.033 -0.658,-0.263 -0.616,-0.494 0.245,-0.033 0.574,0.033 0.779,-0.065 0.288,-0.099 0.411,-0.329 0.658,-0.428 0.576,-0.261 1.068,-0.229 1.313,-0.821 0,-0.065 0.206,-0.099 0.206,-0.264 0,-0.099 -0.246,-0.165 -0.246,-0.229 C 5.381,-4.898 5.3,-5.062 5.3,-5.16 5.3,-5.227 5.627,-5.259 5.586,-5.358 5.545,-5.753 4.93,-5.72 4.519,-5.687 3.204,-5.555 4.725,-5.39 4.354,-5.029 4.148,-4.799 3.821,-5.096 3.614,-5.128 3.409,-5.128 3.08,-4.732 2.792,-5.029 2.135,-5.687 3.739,-5.654 3.985,-5.72 4.395,-5.818 5.258,-6.442 4.684,-6.704 4.23,-6.902 3.944,-6.442 3.533,-6.574 3.08,-6.704 3.04,-7.462 2.34,-7.363 1.93,-7.298 1.478,-6.64 1.52,-6.376 c 0,0.129 0.246,0.129 0.246,0.229 l 0,0.296 c 0.041,0.066 -0.124,0.197 -0.083,0.329 0,0.132 0.206,0.197 0.247,0.33 0.041,0.262 -0.328,1.05 -0.863,0.689 C 0.698,-4.732 1.19,-4.767 1.19,-4.997 1.232,-5.457 0.904,-5.293 0.78,-5.555 0.575,-5.949 1.149,-6.376 0.41,-6.607 c -0.903,-0.295 -0.699,0.461 -1.151,0.658 -0.328,-0.723 0.576,-1.084 -0.575,-1.48 -0.411,-0.131 -0.902,-0.461 -1.314,-0.427 -0.289,0.032 -0.289,0.065 -0.493,0.131 0.083,0 -0.452,0.296 -0.411,0.263 -0.288,0.263 -0.205,0.362 -0.657,0.526 -0.205,0.066 -0.41,-0.065 -0.615,0.098 -0.084,0.099 0,0.462 0,0.561 -0.043,0.23 -0.165,0.426 -0.205,0.656 -0.084,0.461 0.121,0.525 0.41,0.92 0.205,-0.197 0.369,-0.592 0.78,-0.296 0.41,0.296 -0.247,0.46 0,0.791 -0.247,0.064 -0.699,-0.035 -0.904,0.064 -0.617,0.23 0.042,0.264 -0.041,0.594 -0.04,0.425 -0.535,0.23 -0.657,0.524 -0.164,0.46 0.533,0.264 0.779,0.328 0.329,0.099 0.453,0.363 0.658,0.462 0.37,0.163 0.575,-0.067 0.946,0 0.575,0.099 0.245,0.492 0.575,0.624 0.492,0.197 0.451,-0.33 0.532,-0.56 0.7,0.494 0.947,0.527 1.07,1.315 0.821,-0.032 0.574,0.429 0.821,0.855" /></g></g></g></g><g
           id="g136"><g
             id="g138" /><g
             id="g144"><g
               style="opacity:0.89999402"
               id="g146"
               clip-path="url(#clipPath140)"><g
                 id="g148"
                 transform="translate(29.5098,17.3809)"><path
                   id="path150"
                   style="fill:#1d81a4;fill-opacity:1;fill-rule:nonzero;stroke:none"
                   d="M 0,0 C -0.191,0.411 0.064,0.72 0.545,0.515 1.027,0.255 0.932,-0.051 1.637,0.309 1.863,0.437 1.83,0.592 2.186,0.54 2.408,0.488 2.441,0.255 2.73,0.231 3.309,0.207 3.531,0.745 4.176,0.694 4.496,0.668 4.914,0.592 5.139,0.411 5.395,0.207 5.236,0.128 5.332,-0.075 5.492,-0.385 5.43,-0.231 5.781,-0.411 6.006,-0.513 6.135,-0.668 6.393,-0.77 6.52,-0.822 6.904,-0.822 7.002,-0.899 7.195,-1.053 7.066,-1.233 7.162,-1.413 7.26,-1.568 7.453,-1.593 7.547,-1.773 7.645,-1.979 7.611,-2.364 7.355,-2.389 7.387,-2.055 7.066,-1.979 6.682,-2.03 6.07,-2.133 6.199,-2.416 6.328,-2.75 6.393,-2.903 6.713,-3.625 6.264,-3.625 c -0.129,0 -0.645,1.133 -0.545,0.285 -0.451,0 -0.451,0.566 -0.805,0.694 -0.064,0.025 -0.353,0.025 -0.449,0 C 4.207,-2.673 4.176,-2.801 3.984,-2.854 3.469,-2.98 3.244,-2.801 2.859,-3.083 2.762,-3.161 2.891,-3.442 2.537,-3.34 c -0.191,0.051 -0.191,0.308 -0.32,0.41 -0.612,0.541 -1.414,0.102 -2.121,0.361 -0.578,0.232 -0.674,1.361 -0.705,1.824 -0.034,0.284 0.064,0.848 0.609,0.77" /></g></g></g></g><g
           transform="translate(22.7788,9.375)"
           id="g152"><path
             id="path154"
             style="fill:#1d81a4;fill-opacity:1;fill-rule:nonzero;stroke:none"
             d="m 0,0 -0.164,0.175 -0.191,0.153 -0.164,0.243 -0.082,0.219 -0.055,0.481 0,0.635 0.028,0.33 0.053,0.305 0,0.264 0.137,0.153 0.274,0.177 0.411,0.152 0.384,0.197 0.22,0.198 L 1.015,3.746 1.26,3.924 1.644,4.186 2,4.381 2.493,4.646 2.905,4.821 3.26,5.019 l 0.905,0.439 0.41,0.065 1.013,0 0.684,0.023 0.357,-0.067 0.33,-0.131 0.272,-0.022 -0.684,0.328 0.246,0.263 0,0.154 L 6.327,5.654 5.836,5.677 4.411,5.677 4.165,5.632 3.836,5.523 3.342,5.236 2.959,5.063 2.384,4.821 1.973,4.646 1.534,4.381 1.232,4.142 0.85,3.944 0.493,3.77 0.301,3.704 0.138,3.66 0.384,3.944 0.631,4.142 0.85,4.273 1.096,4.381 1.343,4.471 1.753,4.668 2.629,5.172 2.878,5.282 2.687,5.415 2.493,5.348 1.728,4.866 1.26,4.668 0.933,4.515 0.658,4.471 0.439,4.537 l 0.082,0.351 0.11,0.348 0,0.332 0.246,0.525 0.438,0.46 L 2.931,7.604 2.767,7.715 2.521,7.562 1.206,6.706 0.877,6.487 0.549,6.136 0.33,5.896 0.275,5.479 0.192,5.084 0.111,4.799 0.192,4.361 -0.217,3.835 -0.519,3.616 l -0.276,-0.02 0,0.174 0.057,0.394 0.082,0.373 0,0.241 0.245,0.197 L 0,5.37 0.111,5.568 0.165,5.83 -0.191,5.611 -0.575,5.236 -0.904,5.041 -1.012,4.888 -1.068,4.734 -1.258,4.515 -1.424,4.493 l -0.081,0.504 0.027,0.285 0.22,0.614 0.3,0.482 0.22,0.373 0.274,0.307 0.191,0.329 L 0,7.628 0.466,7.957 0.742,8.24 1.069,8.679 0.577,9.27 0.303,8.722 0.138,8.437 -0.109,8.219 -0.464,8.022 -0.794,7.693 -1.04,7.43 -1.123,7.211 -1.314,7.058 -1.615,6.86 l -0.082,0.176 0.273,1.27 0.055,0.373 0,0.416 -0.165,0.964 -0.191,0.286 -0.384,-0.57 0.029,-0.371 0.081,-0.353 0.056,-0.35 0,-0.285 L -2.026,8.218 -2.109,7.89 -2.246,7.649 -2.273,7.342 l 0.082,-0.46 0.055,-0.22 0,-0.175 0,2.742 -0.082,0.483 -0.22,0.218 -0.108,-0.087 -0.164,-0.329 -0.111,-0.306 0,-0.263 0.082,-0.286 0,-0.263 -0.11,-0.13 -0.108,-0.374 0.026,-0.371 0.165,-0.374 0,-0.504 -0.109,-0.219 0.054,-0.679 -0.219,-0.372 -0.301,-0.066 -0.41,0.174 -0.273,0.308 -0.111,0.372 -0.22,0.526 -0.272,0.658 -0.356,0.416 -0.494,0.943 -0.219,0.35 -0.438,1.14 -0.111,0.7 c 0,0 -0.547,0.746 -0.547,0.813 0,0.064 -0.273,0.372 -0.273,0.372 l 0.246,0.439 0,0.284 -0.411,-0.569 -0.275,0.088 -0.93,0 -0.412,-0.133 -0.437,-0.133 0.493,0.024 0.548,0.065 0.384,0 0.273,-0.089 0.219,-0.13 0.028,-0.087 -0.357,0.022 -0.356,-0.022 -0.219,-0.045 -0.383,-0.153 -0.356,-0.154 -0.411,0 -0.055,-0.153 0.411,-0.022 0.274,0 0.384,0.198 0.301,0.109 0.41,0 0.275,0.044 0.246,-0.153 0.165,-0.131 0.108,-0.22 0.22,-0.329 0.055,-0.242 0.055,-0.306 0,-0.109 -0.22,0.109 -0.164,0.22 -0.273,0.262 -0.604,0.329 -0.301,0.133 -0.356,0.086 0.109,-0.198 0.438,-0.219 0.276,-0.218 0.355,-0.285 0.273,-0.219 0.056,-0.197 -0.494,0.109 c 0,0 -0.328,0.11 -0.382,0.176 -0.057,0.065 -0.767,0.327 -0.767,0.327 l -0.603,0.112 -0.657,0.044 -0.412,0.064 -0.492,0.176 -0.383,0.13 -0.164,-0.086 0.245,-0.153 0.247,-0.153 -0.632,-0.022 0.14,-0.132 0.272,-0.22 0.22,0.198 0.245,0.109 0.439,0 0.467,-0.067 0.327,-0.042 0.303,-0.132 0.41,-0.11 0.329,-0.087 0.302,-0.11 0.19,-0.131 -0.465,0.064 -0.603,0.088 -0.575,0.154 -0.685,0.089 -0.494,0 -0.765,-0.023 -0.302,0.109 -0.355,0.111 c 0,0 -0.467,0.064 -0.604,0.064 l -0.437,0 -0.384,-0.02 -0.356,-0.088 0.137,-0.132 0.548,0 0.411,0.022 0.63,0 0.245,-0.088 0.439,-0.153 0.328,0 0.33,-0.023 0.355,0 0.438,-0.065 0.439,-0.109 0.576,-0.109 0.272,-0.11 0.467,0 0.384,-0.023 0.493,-0.13 0.245,-0.089 0.248,-0.153 0.301,-0.132 0.11,-0.241 0.081,-0.197 0.027,-0.328 -0.082,-0.241 -0.327,0.087 -0.247,0.153 -0.385,0.066 -0.41,0 -0.182,0.124 -0.202,0.139 -0.246,0.175 -0.494,0.132 0.439,-0.241 0.165,-0.131 0.11,-0.111 -1.123,0 -0.275,-0.109 0.275,-0.044 c 0,0 0.301,-0.023 0.547,-0.044 0.246,-0.022 0.52,-0.065 0.52,-0.065 l 0.328,0 0.466,-0.087 0.329,-0.044 0.275,-0.089 0.191,-0.154 0.301,-0.021 0.274,-0.021 0.191,-0.176 0.083,-0.177 -0.083,-0.108 -0.656,-0.044 -0.52,0.021 -0.63,-0.021 -0.521,-0.021 -0.219,0 c 0,0 -0.356,0.042 -0.439,0.065 -0.081,0.022 -0.328,0.089 -0.328,0.089 l 0.63,-0.352 -1.371,-0.701 0.276,-0.088 0.657,0.329 0.356,0.174 0.356,0.067 0.437,0.067 0.493,0.022 0.467,0.064 0.522,0 0.329,0.022 0.356,0 0.137,-0.086 0.247,-0.243 0.165,-0.239 0.108,-0.286 0.11,-0.374 0.273,-0.415 0.11,-0.088 -0.547,0.132 -0.248,0.064 -0.273,0.023 -0.959,0.088 -0.439,0.131 -0.602,0.09 -0.548,0 0.192,-0.2 0.384,0 0.411,0 0.383,-0.109 0.465,-0.109 0.822,-0.153 0.412,-0.067 0.547,-0.176 0.301,-0.131 0.33,-0.152 0.245,-0.176 0.275,-0.22 0.245,-0.219 0.056,-0.373 0.054,-0.415 0,-0.548 0.027,-0.372 0.029,-0.374 0,-0.702 L -3.038,1.164 -3.119,0.879 -3.201,0.594 -3.42,0.309 -3.64,0.156 l 0.933,0 0.327,-0.089 0.329,0 0.19,-0.065 0.275,-0.13 0.082,-0.154 0.192,0.022 0.165,0.154 0.219,0.152 0.328,-0.066 0.137,0 L -0.49,0.09 -0.298,0.067 0.001,0.004 0,0 Z" /></g><g
           transform="translate(22.2236,24.1113)"
           id="g156"><path
             id="path158"
             style="fill:#1d81a4;fill-opacity:1;fill-rule:nonzero;stroke:none"
             d="m 0,0 -0.335,-0.084 -0.372,-0.143 0.166,-0.084 c 0,0 0.333,-0.03 0.455,-0.059 0.125,-0.028 0.457,-0.112 0.457,-0.112 l 0.291,-0.115 0.291,-0.172 0.042,-0.226 -0.209,0 -0.248,0.256 -0.624,0.113 -0.496,0.029 -0.415,0.086 -0.331,-0.086 -0.418,-0.226 c 0,0 -0.165,-0.058 -0.29,-0.172 C -2.16,-1.108 -2.285,-1.25 -2.285,-1.25 l 0,-0.199 -0.081,-0.228 -0.042,-0.312 0,-0.371 c 0,-0.114 -0.166,-0.538 -0.166,-0.538 l -0.248,0.084 -0.209,0.314 -0.208,0 -0.289,-0.143 -0.292,-0.171 -0.332,0.056 c 0,0 -0.289,0.057 -0.372,0.171 -0.084,0.113 -0.538,0.2 -0.538,0.313 0,0.114 -0.625,0.767 -0.625,0.767 l -0.705,0.57 -2.53,1.25 0.165,0.143 2.49,-1.023 -0.208,1.393 -0.539,0.369 c 0,0 -0.456,0.226 -0.498,0.455 -0.042,0.225 -0.662,0.567 -0.662,0.567 l 0.082,0.314 0.331,-0.258 0.291,-0.284 0.248,-0.311 0.622,-0.399 0.375,-0.114 0.123,0.968 -0.042,0.454 -0.165,0.428 -0.416,0.539 -0.498,0.541 -1.283,0.996 1.077,-0.484 0.041,0.626 0.291,0.311 0,-1.278 0.332,-0.201 0.498,-0.368 0.289,-0.285 0.126,-0.397 0.165,-0.484 -0.083,-0.682 0.044,-0.512 0,-1.051 -0.044,-0.569 0.127,-0.342 0.413,-0.34 0.291,-0.172 -0.042,0.826 0,0.652 -0.207,0.257 -0.417,0.341 -0.038,0.314 0.744,-0.427 0,1.223 0.042,0.482 0,0.398 0.663,-0.228 -0.165,-0.198 -0.207,-0.541 0,-1.676 -0.042,-0.399 0.042,-0.342 0,-0.368 0.042,-0.427 0.207,-0.398 0.208,-0.398 0.498,-0.171 0,0.313 -0.043,0.483 -0.124,0.484 -0.539,0.426 -0.083,0.314 0.374,-0.228 -0.126,1.052 0,0.396 0.374,-0.368 -0.042,-0.654 0.085,-0.341 0.124,-0.285 0.124,-0.228 0.083,-0.311 0.123,-0.342 0,-0.256 0.292,0.682 0.124,0.483 0.127,0.54 0,1.281 -0.166,0.454 -0.335,0.171 -0.455,-0.029 -0.375,0 0.499,0.256 -0.25,0.597 0.748,-0.51 -0.084,0.454 -0.125,0.398 0.334,0.027 0.209,-0.254 0,-0.485 0.33,0.542 0.042,0.254 0.413,0.142 0.25,0.115 -0.498,-0.627 -0.084,-0.226 -0.081,-0.23 0.788,0.287 0.539,0.027 0,-0.113 -0.5,-0.086 -0.497,-0.199 -0.249,-0.198 0,-0.256 0.042,-0.398 0,-0.938 0.127,-0.426 0,-0.598 0.745,0.371 0.414,0.17 0.5,0.17 L -0.085,0.17 0.289,0.257 0.662,0.428 -0.002,0.002 0,0 Z" /></g><g
           transform="translate(23.2183,22.5024)"
           id="g160"><path
             id="path162"
             style="fill:#1d81a4;fill-opacity:1;fill-rule:nonzero;stroke:none"
             d="M 0,0 0.411,0.329 0.767,0.744 1.479,1.601 2.411,3.245 2.466,4.252 2.247,5.04 1.972,5.414 1.972,5.61 2.3,5.173 2.574,4.471 2.603,3.552 c 0,0 0.38,0.371 0.38,0.437 0,0.067 0.086,0.482 0.086,0.482 L 2.958,4.757 2.823,5.128 2.711,5.566 2.877,6.094 3.122,6.312 2.93,5.61 2.93,5.282 3.176,4.799 3.67,5.566 c 0,0 0.055,0.242 0.055,0.309 0,0.065 0.192,0.351 0.192,0.351 L 3.862,5.544 3.67,5.239 3.561,5.019 4.327,5.282 5.012,5.983 4.327,5.173 3.643,4.933 3.45,4.713 3.233,4.515 3.204,4.164 3.149,3.966 2.983,3.682 2.848,3.484 2.656,3.135 1.999,2.125 3.45,2.521 c 0,0 0.328,0.153 0.467,0.22 0.136,0.064 0.712,0.305 0.712,0.305 L 5.78,3.484 7.204,5.282 5.999,3.484 6.135,3.463 7.149,4.034 8.245,4.362 7.094,3.858 6.245,3.354 6.081,3.332 5.833,3.332 5.588,3.245 4.682,2.893 4.026,2.609 3.397,2.323 2.903,2.192 2.273,1.95 1.944,1.775 1.561,1.293 1.26,0.9 0.985,0.374 0.711,-0.022 0.383,-0.35 0.219,-0.702 -0.056,-0.811 0.055,-0.306 -0.002,0 0,0 Z" /></g><g
           transform="translate(25.6528,17.418)"
           id="g164"><path
             id="path166"
             style="fill:#1d81a4;fill-opacity:1;fill-rule:nonzero;stroke:none"
             d="M 0,0 0.382,-0.175 0.693,-0.219 0.9,-0.417 1.177,-0.68 l 0.485,0 c 0.242,0 0.416,0.021 0.519,0 0.104,-0.021 0.522,-0.088 0.522,-0.088 l 0.449,-0.219 0.414,-0.416 0.451,-0.306 0.451,-0.33 0.311,-0.329 0.484,-0.327 0.557,-0.418 0.379,-0.504 0.416,-0.328 0.312,-0.197 0.555,-0.199 0.656,-0.151 -1.039,0.416 -0.484,0.328 -0.416,0.526 -0.139,0.24 -0.379,0.287 -0.66,0.481 -0.379,0.416 -0.277,0.218 -0.416,0.156 0.97,-0.199 0.414,0 0.313,-0.086 0.346,-0.11 0.519,-0.088 -0.519,0.284 0.935,0 0.449,-0.022 0.936,0 0.553,0.111 -0.901,0 -1.175,0.065 -0.797,0.045 -1.11,0 -0.517,0.087 -0.487,0.241 -0.345,0.306 -0.346,0.284 -0.451,0.047 1.074,0.065 1.315,0 0.417,-0.044 0.346,-0.109 0.346,-0.243 0.555,-0.284 -0.694,0.592 0.278,-0.045 0.416,-0.087 0.38,-0.176 c 0,0 0.416,-0.086 0.52,-0.086 l 0.449,0 -0.033,0.153 -0.658,0 L 6.996,-0.547 6.72,-0.351 6.337,-0.264 6.13,-0.154 5.785,-0.175 5.298,-0.11 5.714,0.286 5.851,0.525 5.367,0.175 4.986,-0.066 4.574,-0.088 l -0.557,0 -0.726,-0.044 -0.555,0 L 2.251,-0.219 1.73,-0.264 1.074,-0.154 0.9,0.021 0.519,0.152 0.173,0.218 -0.382,0.152 0.005,-0.001 0,0 Z" /></g><g
           transform="translate(24.645,19.1763)"
           id="g168"><path
             id="path170"
             style="fill:#1d81a4;fill-opacity:1;fill-rule:nonzero;stroke:none"
             d="m 0,0 0.384,0.215 0.307,0.153 0.384,0.03 0.192,0.244 0.5,0.215 0.537,0.151 0.383,0 L 2.767,0.919 3.15,0.642 3.572,0.062 4.3,-0.581 5.339,-1.164 3.957,-0.091 3.687,0.305 3.38,0.827 2.996,1.04 l 0.73,0.245 0.807,0.062 0.615,0 0.383,-0.154 0.578,-0.427 0.728,0 0.885,0 L 9.105,0.857 7.146,0.949 6.224,0.978 5.917,1.133 5.609,1.408 5.302,1.561 6.837,2.265 7.07,2.571 6.646,2.357 5.457,1.836 l -0.309,0 -0.461,0 -0.498,0.031 -0.232,0 0,0.305 0.537,0.489 0.422,0.46 0.347,0.522 0,0.398 0.231,0.427 0.5,0.613 0.039,0.734 -0.194,0.274 0,-0.519 L 5.609,5.112 5.302,4.744 5.109,4.406 4.916,3.918 4.878,3.519 4.38,3.03 3.88,2.601 3.65,2.295 3.035,1.867 2.535,1.653 1.843,1.408 1.382,1.254 0.885,1.071 0.575,0.978 0.46,0.673 0.077,0.521 -0.078,0.46 -0.463,0.336 0,0 Z" /></g><g
           transform="translate(28.2285,24.5625)"
           id="g172"><path
             id="path174"
             style="fill:#1d81a4;fill-opacity:1;fill-rule:nonzero;stroke:none"
             d="m 0,0 0.482,0.087 0.409,0.111 0.517,-0.111 0.52,0 0.705,0 0.963,0.045 0.668,0 L 4.783,0 6.227,0 6.783,0.11 6.043,0.132 5.375,0.132 4.857,0.176 4.895,0.307 4.93,0.525 4.746,0.68 4.746,0.482 4.67,0.263 4.598,0.198 4.115,0.285 3.67,0.307 2.967,0.263 l -0.408,0 -0.592,0 -0.485,0.022 -0.332,0.087 0.889,0.22 0.631,0.198 0.553,0.263 0.781,0.043 0.111,0.131 1.559,0 0.48,0.044 L 6.34,1.358 7.711,1.424 6.303,1.469 6.043,1.403 5.633,1.358 5.041,1.381 l -0.443,0 -0.448,0 L 4.041,1.687 4.004,1.798 3.928,1.469 3.855,1.271 3.633,1.25 3.336,1.227 4.004,2.104 3.152,1.227 2.633,0.965 2.111,0.811 1.742,0.745 1.26,0.57 0.816,0.438 0.406,0.33 0,0.198 -0.52,0.043 0,0 Z" /></g><g
           transform="translate(21.8354,24.7437)"
           id="g176"><path
             id="path178"
             style="fill:#1d81a4;fill-opacity:1;fill-rule:nonzero;stroke:none"
             d="M 0,0 0.19,0.197 0.49,0.505 0.847,0.767 1.178,0.964 1.614,1.228 1.917,1.535 2.272,1.885 2.546,2.41 2.766,2.652 2.738,3.025 2.655,2.783 2.409,2.432 2.163,2.037 1.89,1.709 1.588,1.424 1.286,1.205 0.985,1.095 2.108,2.17 2.163,2.388 0.876,1.25 0.82,1.117 0.685,0.942 0.383,0.725 0.138,0.527 0,0 Z" /></g><g
           id="g180"><g
             id="g182" /><g
             id="g188"><g
               style="opacity:0.89999402"
               id="g190"
               clip-path="url(#clipPath184)"><g
                 id="g192"
                 transform="translate(21.3408,27.6963)"><path
                   id="path194"
                   style="fill:#1d81a4;fill-opacity:1;fill-rule:nonzero;stroke:none"
                   d="M 0,0 C 0.123,-0.493 -0.822,-0.23 -0.492,-0.854 -0.45,-0.92 -0.124,-1.15 0,-1.313 c 0.123,-0.265 -0.04,-0.396 0.328,-0.56 0.618,-0.264 0.864,0.164 1.028,0.493 0.164,0.263 0.04,0.263 0.37,0.493 0.205,0.164 0.328,0.1 0.575,0.23 C 3.327,-0.13 3.37,1.019 2.015,0.789 1.809,0.757 1.644,0.625 1.438,0.591 1.234,0.591 1.027,0.724 0.822,0.724 0.37,0.69 -0.205,0.361 -0.082,-0.033" /></g></g></g></g><g
           id="g196"><g
             id="g198" /><g
             id="g204"><g
               style="opacity:0.80000299"
               id="g206"
               clip-path="url(#clipPath200)"><g
                 id="g208"
                 transform="translate(17.8491,28.0903)"><path
                   id="path210"
                   style="fill:#1d81a4;fill-opacity:1;fill-rule:nonzero;stroke:none"
                   d="m 0,0 c 0.288,0 0.616,-0.099 0.863,-0.099 0.533,0 0.781,0.166 1.273,0.035 0.206,-0.067 0.247,-0.265 0.41,-0.297 0.206,-0.098 0.577,0.032 0.741,-0.098 0.327,-0.297 -0.124,-0.822 -0.245,-1.02 -0.331,-0.327 -0.659,-0.525 -1.193,-0.493 -0.122,0 -0.453,0 -0.577,0.066 -0.162,0.165 -0.041,0.395 -0.162,0.46 -0.288,0.23 -0.74,0.132 -1.069,0.395 -0.287,0.262 -0.493,0.822 0.041,1.018" /></g></g></g></g><g
           id="g212"><g
             id="g214" /><g
             id="g220"><g
               style="opacity:0.80000299"
               id="g222"
               clip-path="url(#clipPath216)"><g
                 id="g224"
                 transform="translate(29.5996,26.019)"><path
                   id="path226"
                   style="fill:#1d81a4;fill-opacity:1;fill-rule:nonzero;stroke:none"
                   d="M 0,0 C 0.369,0.034 0.861,0 1.191,0.131 1.479,0.265 1.52,0.495 1.766,0.592 2.094,0.692 2.465,0.428 2.752,0.659 3,0.855 2.752,1.12 2.547,1.25 2.67,1.415 2.918,1.514 3.164,1.58 2.918,1.875 2.342,2.007 2.094,1.71 1.766,1.35 2.301,1.25 1.602,1.152 1.273,1.085 0.779,1.085 0.822,1.447 0.861,1.644 1.232,1.644 1.273,1.777 1.355,1.972 1.191,2.203 1.232,2.336 1.436,2.696 2.053,2.565 2.219,2.795 2.586,3.157 1.971,3.387 1.52,3.486 1.355,3.519 1.15,3.421 0.986,3.453 0.779,3.486 0.615,3.749 0.328,3.683 -0.328,3.551 0.369,3.157 0.492,2.961 0.082,2.861 0.369,1.742 0.246,1.315 c -0.328,0.067 -0.863,0.362 -1.15,0.362 -0.166,0 -0.492,-0.097 -0.492,-0.327 0,-0.265 0.246,-0.067 0.449,-0.23 0.166,-0.134 0.289,0 0.373,-0.265 C -0.451,0.659 -0.74,0.495 -0.699,0.33 -0.617,-0.032 -0.535,-0.131 -0.002,0" /></g></g></g></g><g
           id="g228"><g
             id="g230" /><g
             id="g236"><g
               style="opacity:0.80000299"
               id="g238"
               clip-path="url(#clipPath232)"><g
                 id="g240"
                 transform="translate(35.1875,19.708)"><path
                   id="path242"
                   style="fill:#1d81a4;fill-opacity:1;fill-rule:nonzero;stroke:none"
                   d="M 0,0 C 0.287,0 0.656,-0.065 0.902,0 1.314,0.1 1.52,0.362 1.889,0.494 2.176,0.197 1.93,-0.329 2.588,-0.492 2.67,-0.329 2.547,-0.164 2.547,0 c 0.041,0.066 0,0.427 0,0.462 C 2.508,0.822 2.508,1.118 1.93,0.921 1.725,1.315 2.629,1.513 1.807,1.809 1.232,2.006 1.066,1.579 0.779,1.448 0.656,1.381 0.328,1.448 0.164,1.413 c 0.082,0 -0.369,-0.657 -0.369,-0.131 0,0.493 0.697,0.396 0.904,0.757 C 0.369,2.269 -0.371,1.875 -0.822,1.775 -1.48,1.646 -1.52,1.413 -1.891,0.921 -1.52,0.756 -1.234,0.854 -0.863,0.558 -0.576,0.362 -0.494,0.133 -0.041,0.034" /></g></g></g></g><g
           id="g244"><g
             id="g246" /><g
             id="g252"><g
               style="opacity:0.85000598"
               id="g254"
               clip-path="url(#clipPath248)"><g
                 id="g256"
                 transform="translate(29.4766,19.8398)"><path
                   id="path258"
                   style="fill:#1d81a4;fill-opacity:1;fill-rule:nonzero;stroke:none"
                   d="m 0,0 c 0.281,-0.14 0.287,-0.619 0.666,-0.624 0.279,-0.004 0.299,0.311 0.5,0.354 0.197,0.044 0.547,-0.169 0.766,-0.191 0.271,-0.027 0.506,-0.146 0.732,-0.158 0.078,0.229 -0.154,0.2 -0.24,0.354 -0.11,0.2 0.01,0.349 -0.041,0.528 C 2.316,0.493 2.076,0.436 1.98,0.599 1.889,0.755 2.102,0.934 2.049,1.112 1.686,1.139 1.467,0.967 1.189,1.076 0.947,1.17 0.982,1.428 0.574,1.383 0.281,1.35 0.238,1.102 0.002,1.017 -0.176,0.953 -0.461,1.056 -0.654,1.021 -0.893,0.978 -1.084,0.819 -1.309,0.749 -1.316,0.436 -1.623,0.155 -1.191,-0.006 -0.82,-0.147 -0.35,0.174 0,0.001 L 0,0 Z" /></g></g></g></g><g
           id="g260"><g
             id="g262" /><g
             id="g268"><g
               style="opacity:0.89999402"
               id="g270"
               clip-path="url(#clipPath264)"><g
                 id="g272"
                 transform="translate(27.709,14.4805)"><path
                   id="path274"
                   style="fill:#1d81a4;fill-opacity:1;fill-rule:nonzero;stroke:none"
                   d="m 0,0 c 0.863,-0.096 1.85,0.099 2.426,-0.46 0.244,-0.23 0.041,-0.361 0.451,-0.493 0.246,-0.065 0.41,0 0.615,0.034 0.289,0.032 0.451,0.131 0.74,0.163 0.205,0.032 0.7,-0.098 0.782,0.164 0.082,0.263 -0.33,0.298 -0.453,0.461 C 4.437,0.131 4.52,0.362 4.357,0.593 3.904,1.283 3.328,0.889 2.67,0.823 2.467,0.823 2.219,0.922 2.057,0.855 1.727,0.756 1.768,0.495 1.521,0.362 1.027,0.166 0.658,0.559 0.207,0.527 -0.205,0.495 -0.574,0.034 0,0.034" /></g></g></g></g><g
           id="g276"><g
             id="g278" /><g
             id="g284"><g
               style="opacity:0.89999402"
               id="g286"
               clip-path="url(#clipPath280)"><g
                 id="g288"
                 transform="translate(25.1216,20.4971)"><path
                   id="path290"
                   style="fill:#1d81a4;fill-opacity:1;fill-rule:nonzero;stroke:none"
                   d="M 0,0 C 0.615,-0.263 1.027,0 1.56,0.099 2.095,0.165 2.546,0 2.958,0.329 3.246,0.525 3,0.69 3.328,0.822 3.494,0.889 4.066,0.79 4.273,0.756 4.806,0.659 5.503,0.362 6.08,0.493 6.615,0.592 7.025,1.15 6.861,1.611 6.779,1.906 6.531,1.94 6.244,2.136 5.957,2.334 5.875,2.4 5.669,2.695 5.382,3.023 5.587,3.059 4.97,2.926 4.56,2.859 4.437,2.663 4.15,2.499 3.285,1.974 3.697,2.563 2.958,2.598 2.669,2.598 2.382,2.334 2.218,2.203 2.177,2.465 1.972,2.959 1.56,3.059 1.396,3.124 0.451,2.959 0.286,2.762 0,2.4 0.615,2.302 -0.042,2.005 -0.493,1.841 -0.946,2.038 -1.314,1.776 -1.727,1.479 -1.357,1.316 -1.48,0.986 -1.603,0.659 -2.261,0.525 -1.932,0.165 -1.687,-0.165 -0.454,0 -0.042,0" /></g></g></g></g><g
           id="g292"><g
             id="g294" /><g
             id="g300"><g
               style="opacity:0.89999402"
               id="g302"
               clip-path="url(#clipPath296)"><g
                 id="g304"
                 transform="translate(22.4102,22.7002)"><path
                   id="path306"
                   style="fill:#1d81a4;fill-opacity:1;fill-rule:nonzero;stroke:none"
                   d="M 0,0 C -0.123,0.525 0.987,0.723 0.905,1.149 0.861,1.347 0.493,1.347 0.287,1.38 -0.164,1.446 -0.042,1.315 -0.412,1.283 -1.069,1.249 -1.438,1.414 -1.561,1.94 -1.603,2.268 -1.603,2.795 -1.193,2.892 -0.699,3.025 -0.206,2.333 0.452,2.531 0.987,2.694 1.025,3.287 1.479,3.517 1.684,3.616 1.93,3.616 2.096,3.714 2.382,3.879 2.506,4.241 2.876,4.305 3.738,4.471 2.998,3.879 3.164,3.55 3.492,2.992 3.777,4.043 3.982,4.142 4.107,4.209 4.355,4.043 4.52,4.109 4.684,4.174 4.725,4.305 4.846,4.404 5.053,4.503 5.299,4.833 5.463,4.931 5.586,5.029 5.586,5.39 5.957,5.128 6.205,4.963 5.914,4.701 5.996,4.536 6.16,4.076 6.572,3.911 6.615,3.353 6.242,3.287 5.67,3.418 5.424,3.188 5.217,3.025 5.135,2.893 5.34,2.729 5.67,2.465 5.793,2.662 6.039,2.795 6.531,2.992 6.82,3.616 7.311,3.22 7.477,3.089 7.311,2.827 7.518,2.695 7.723,2.563 8.012,2.629 8.215,2.465 8.299,2.432 8.135,2.202 8.215,2.169 8.299,2.071 8.422,2.103 8.504,2.038 8.625,1.972 8.873,2.071 8.998,1.972 9.408,1.677 9.119,1.315 8.791,1.216 8.668,1.184 8.504,1.249 8.381,1.216 8.135,1.15 7.969,0.888 7.805,0.888 7.23,0.756 6.9,1.283 6.531,0.689 6.324,0.986 5.834,0.954 5.504,0.888 5.67,0.788 6.367,0.59 5.793,0.492 5.424,0.428 5.053,0.855 4.725,0.855 4.107,0.822 4.477,0.525 4.23,0.395 3.982,0.23 3.615,0.295 3.245,0.197 2.958,0.131 2.792,-0.033 2.424,-0.067 2.054,-0.067 1.93,0.032 1.56,0.067 1.066,0.131 0.123,-0.56 0.041,0" /></g></g></g></g><g
           id="g308"><g
             id="g310" /><g
             id="g316"><g
               style="opacity:0.89999402"
               id="g318"
               clip-path="url(#clipPath312)"><g
                 id="g320"
                 transform="translate(16.6162,19.248)"><path
                   id="path322"
                   style="fill:#1d81a4;fill-opacity:1;fill-rule:nonzero;stroke:none"
                   d="M 0,0 C 0.699,-0.297 0.864,0.329 1.397,0.264 1.889,0.198 2.055,-0.691 2.179,-0.986 2.424,-1.513 2.383,-1.348 2.959,-1.612 3.452,-1.774 3.697,-2.269 3.82,-2.63 3.944,-3.091 3.697,-3.123 3.616,-3.551 3.452,-4.075 4.068,-4.536 3.082,-4.57 2.22,-4.57 2.629,-4.208 2.383,-3.683 2.136,-3.188 1.355,-3.091 1.685,-2.465 1.191,-2.336 0.904,-2.861 0.411,-2.497 0.247,-2.336 0.123,-1.71 0.206,-1.544 0.411,-1.184 1.069,-1.348 0.864,-0.855 0.699,-0.494 0.123,-0.559 0.083,0" /></g></g></g></g><g
           id="g324"><g
             id="g326" /><g
             id="g332"><g
               style="opacity:0.80000299"
               id="g334"
               clip-path="url(#clipPath328)"><g
                 id="g336"
                 transform="translate(16.1245,20.0078)"><path
                   id="path338"
                   style="fill:#1d81a4;fill-opacity:1;fill-rule:nonzero;stroke:none"
                   d="m 0,0 c 0.206,-0.1 0.451,-0.164 0.698,-0.134 0.165,0 0.288,0.167 0.41,0.167 C 1.356,0.066 1.437,-0.033 1.643,-0.033 2.219,-0.065 3.368,0 3.121,0.689 3.08,0.756 2.63,1.083 2.548,1.15 2.382,1.348 2.26,1.61 2.136,1.84 1.972,2.137 2.095,2.069 1.767,2.299 1.52,2.465 1.191,2.564 0.986,2.695 1.274,3.155 2.178,2.99 1.314,3.485 0.903,3.681 0.288,3.845 -0.207,3.714 -0.576,3.583 -0.617,3.385 -0.863,3.155 -1.028,2.99 -1.232,2.893 -1.479,2.695 -1.932,2.367 -1.602,1.907 -2.301,1.677 -2.835,1.511 -3.244,1.677 -3.575,1.182 -3.863,0.657 -3.658,0.329 -3.082,0.196 -2.794,0.098 -2.056,0 -1.767,0.131 c 0.576,0.23 0.123,0.788 1.069,0.887 1.232,0.132 0.369,-1.051 1.067,-1.051" /></g></g></g></g><g
           id="g340"><g
             id="g342" /><g
             id="g348"><g
               style="opacity:0.88999897"
               id="g350"
               clip-path="url(#clipPath344)"><g
                 id="g352"
                 transform="translate(7.6602,21.8452)"><path
                   id="path354"
                   style="fill:#1d81a4;fill-opacity:1;fill-rule:nonzero;stroke:none"
                   d="m 0,0 c 0,-0.032 0.124,-0.132 0.042,-0.263 0.492,-0.066 0.328,-0.196 0.204,-0.362 -0.041,0 -0.37,0 -0.411,-0.033 -0.164,-0.098 -0.123,-0.231 -0.205,-0.363 -0.452,-0.655 -0.164,-0.788 0.699,-0.854 0.904,-0.099 2.712,0.066 3.327,0.724 0.29,0.296 0.863,0.822 0.863,1.183 0,0.691 -0.573,0.329 -1.068,0.492 -0.41,0.133 -0.205,0.363 -0.41,0.462 -0.205,0.131 -0.495,0 -0.7,0.065 C 1.355,1.347 2.26,1.809 1.974,2.301 1.808,2.63 1.109,2.63 0.904,3.023 0.862,3.123 0.988,3.32 0.904,3.418 0.781,3.649 0.576,3.649 0.412,3.845 0.042,4.372 0.288,4.305 -0.37,4.536 -0.862,4.701 -1.273,5.096 -1.808,5.096 -2.177,4.668 -2.177,4.636 -1.93,4.174 -1.889,4.075 -1.725,3.813 -1.643,3.747 -1.478,3.583 -1.15,3.779 -1.15,3.452 -1.561,3.549 -1.93,3.583 -2.218,3.353 -2.301,3.254 -2.177,3.057 -2.301,2.958 -2.465,2.795 -2.875,2.86 -2.998,2.695 -3.328,2.235 -2.465,2.499 -2.218,2.269 -1.85,1.873 -2.587,2.071 -2.587,2.071 -2.875,2.039 -3.041,2.235 -3.328,1.972 -2.917,1.643 -3.575,1.611 -3.819,1.511 c -0.085,0 -0.206,0.1 -0.289,0.067 C -4.232,1.511 -4.19,1.38 -4.271,1.315 -4.56,1.184 -4.56,1.085 -4.888,0.986 -5.136,0.92 -5.998,0.953 -5.464,0.592 c 0.165,-0.132 0.822,-0.034 1.069,0 0.37,0.033 0.739,0.164 1.149,0.097 0.452,-0.097 0.739,-0.293 1.15,-0.362 C -1.438,0.23 -0.615,0.033 0,0.066" /></g></g></g></g><g
           id="g356"><g
             id="g358" /><g
             id="g364"><g
               style="opacity:0.89999402"
               id="g366"
               clip-path="url(#clipPath360)"><g
                 id="g368"
                 transform="translate(20.77,19.0957)"><path
                   id="path370"
                   style="fill:#1d81a4;fill-opacity:1;fill-rule:nonzero;stroke:none"
                   d="m 0,0 c 0.09,-0.251 0.538,-0.713 0.939,-0.677 0.581,0.108 0.313,0.748 0.937,0.498 0.225,-0.106 0.225,-0.284 0.314,-0.39 0.134,-0.144 0.268,-0.287 0.401,-0.393 0.046,-0.037 0.27,0.037 0.313,-0.037 0.135,-0.035 0.09,-0.249 0.135,-0.249 0.09,-0.07 0.582,-0.142 0.625,-0.177 0.403,-0.321 0.67,-1.32 1.654,-1.035 0.625,0.179 0.492,0.534 0.178,0.82 -0.133,0.106 -0.4,0.106 -0.581,0.249 -0.134,0.107 -0.045,0.357 -0.268,0.5 0.223,0.071 0.536,-0.108 0.716,-0.071 0.312,0.071 0.713,0.32 0.222,0.571 C 5.81,-0.072 6.076,0.143 5.63,0.357 5.228,0.57 5.048,0.284 4.69,0.32 3.486,0.391 4.289,1.247 3.664,1.497 4.289,1.78 4.961,1.853 4.021,2.209 3.932,2.246 3.396,2.387 3.262,2.387 2.994,2.352 2.637,1.958 2.368,1.996 1.386,2.067 3.084,2.708 2.949,3.063 2.816,3.421 2.368,3.172 2.146,3.314 1.789,3.563 1.966,3.848 1.7,4.099 1.52,4.24 1.208,4.24 1.03,4.347 0.804,4.526 0.939,4.739 0.716,4.848 0.135,5.167 -0.535,4.775 -0.803,4.383 -0.892,4.277 -0.714,4.099 -0.803,3.99 -0.937,3.848 -1.07,3.921 -1.205,3.848 -1.25,3.777 -1.874,3.457 -1.964,3.457 c -0.446,0 -1.027,0.533 -1.384,0.711 0.357,0.537 -0.627,0.537 -1.028,0.499 -0.223,0 -0.403,0.038 -0.626,-0.035 -0.536,-0.177 -0.356,-0.249 -0.356,-0.57 0.044,-1.139 1.339,-0.89 2.367,-0.926 0.536,0 1.071,0.036 1.117,-0.5 0.044,-0.64 -1.029,-0.39 -0.985,-1.068 0.045,-0.536 0.715,-0.427 1.164,-0.714 0.133,-0.072 -0.047,-0.248 0.133,-0.355 0.133,-0.071 0.357,0.036 0.492,-0.036 0.133,-0.035 0.312,0.036 0.401,0 0.134,-0.035 0.09,-0.32 0.179,-0.357 C -0.266,0 -0.09,-0.036 0.27,0" /></g></g></g></g><g
           id="g372"><g
             id="g374" /><g
             id="g380"><g
               style="opacity:0.88999897"
               id="g382"
               clip-path="url(#clipPath376)"><g
                 id="g384"
                 transform="translate(14.7676,24.3438)"><path
                   id="path386"
                   style="fill:#1d81a4;fill-opacity:1;fill-rule:nonzero;stroke:none"
                   d="m 0,0 c 0.041,-0.23 0.206,-0.296 0.452,-0.428 0.329,-0.197 0.329,-0.031 0.575,-0.328 0,0 0.205,-0.527 0.205,-0.428 C 1.192,-1.611 1.15,-1.349 0.945,-1.546 0.781,-1.678 0.617,-1.71 0.452,-1.873 0.37,-2.005 0.534,-2.203 0.412,-2.335 c -0.33,-0.296 -0.988,-0.196 -1.439,-0.394 -0.205,0.132 -0.329,0.362 -0.329,0.526 -0.657,0.033 -0.575,-0.328 -0.78,-0.624 -0.123,-0.198 -0.123,-0.23 -0.329,-0.427 -0.082,-0.1 -0.327,-0.068 -0.41,-0.132 -0.083,-0.098 0,-0.263 -0.083,-0.395 -0.204,-0.23 -0.739,-0.92 -1.19,-0.493 -0.33,0.263 0.081,0.461 0.205,0.658 0.163,0.163 0.328,0.428 0.451,0.591 0.083,0.067 0.083,0.198 0.124,0.265 0.122,0.096 0.327,-0.035 0.452,0.064 0.205,0.231 0,0.459 0.124,0.691 0.327,0.624 0.984,0.031 1.477,0.428 0.576,0.393 -0.246,0.853 0,1.281 0.207,0.296 0.986,0.493 1.356,0.328" /></g></g></g></g><g
           id="g388"><g
             id="g390" /><g
             id="g396"><g
               style="opacity:0.80000299"
               id="g398"
               clip-path="url(#clipPath392)"><g
                 id="g400"
                 transform="translate(24.0962,17.2236)"><path
                   id="path402"
                   style="fill:#1d81a4;fill-opacity:1;fill-rule:nonzero;stroke:none"
                   d="M 0,0 C 0.104,-0.178 0.357,-0.66 0.341,-0.837 0.3,-1.066 -0.043,-1.043 -0.042,-1.263 -0.035,-1.547 0.555,-1.767 0.586,-2.002 0.622,-2.303 0.095,-2.118 0.389,-2.524 c 0.113,-0.153 0.41,-0.185 0.507,-0.299 0.227,-0.309 -0.017,-0.399 0.402,-0.716 0.203,-0.138 0.621,-0.454 0.787,-0.292 0.151,0.139 -0.238,0.661 -0.347,0.749 0.574,0.197 0.543,0.433 0.252,0.994 -0.053,0.124 -0.045,0.211 -0.096,0.334 -0.072,0.163 -0.215,0.113 -0.229,0.309 -0.044,0.212 0.225,0.351 0.21,0.547 -0.013,1.009 -1.267,1.674 -1.921,0.955" /></g></g></g></g><g
           id="g404"><g
             id="g406" /><g
             id="g412"><g
               style="opacity:0.88999897"
               id="g414"
               clip-path="url(#clipPath408)"><g
                 id="g416"
                 transform="translate(23.9048,26.6875)"><path
                   id="path418"
                   style="fill:#1d81a4;fill-opacity:1;fill-rule:nonzero;stroke:none"
                   d="m 0,0 c 0.944,0.099 0.534,-0.756 0.822,-1.051 0.122,-0.099 0.534,-0.032 0.658,-0.166 0.246,-0.23 0,-0.525 0.123,-0.755 0.165,-0.33 0.943,-0.56 0.656,-1.051 -0.326,-0.626 -0.903,0.064 -1.356,0.163 -0.574,0.132 -0.739,-0.329 -1.229,-0.262 -0.495,0.065 -0.29,0.23 -0.454,0.492 -0.122,0.133 -0.411,0.361 -0.492,0.494 -0.207,0.428 0.081,0.198 0.245,0.493 0.082,0.228 0.041,0.493 0.164,0.69 0.125,0.23 0.411,0.197 0.577,0.362 0.122,0.165 0.039,0.494 0.286,0.625" /></g></g></g></g><g
           id="g420"><g
             id="g422" /><g
             id="g428"><g
               style="opacity:0.80000299"
               id="g430"
               clip-path="url(#clipPath424)"><g
                 id="g432"
                 transform="translate(31.6133,21.5503)"><path
                   id="path434"
                   style="fill:#1d81a4;fill-opacity:1;fill-rule:nonzero;stroke:none"
                   d="m 0,0 c -0.205,-0.263 -0.904,-0.395 -0.205,-0.659 0.328,-0.099 0.699,0.098 0.984,0.098 1.092,0 -0.06,-0.661 0.168,-0.99 0.098,-0.142 0.448,-0.184 0.619,-0.204 0.436,-0.049 0.705,-0.011 1.092,-0.224 0.463,-0.256 0.742,-0.838 1.266,-0.97 0.402,-0.102 0.998,0.066 1.369,0.192 0.045,0.679 -0.508,0.353 -0.867,0.776 -0.149,0.174 -0.09,0.433 -0.278,0.59 C 3.977,-1.247 3.637,-1.22 3.443,-1.119 3.121,-0.951 2.857,-0.73 2.795,-0.429 2.74,-0.175 2.848,0.052 2.467,0.129 2.223,0.18 1.717,-0.108 1.527,0.071 1.354,0.235 1.596,0.483 1.799,0.497 1.832,0.752 1.381,0.606 1.191,0.762 0.988,0.93 1.074,1.212 1.061,1.442 0.738,1.514 0.375,1.464 0.043,1.507 0.057,1.405 0.021,1.288 0.035,1.187 -0.281,1.127 -0.283,1.35 -0.24,1.538 0.213,1.768 0.949,2.208 1.512,2.174 1.588,2.294 1.687,2.569 1.553,2.688 1.318,2.897 1.08,2.635 0.895,2.571 0.543,2.45 0.539,2.554 0.205,2.661 -0.1,2.759 -0.471,2.758 -0.457,3.15 -0.842,3.174 -1.57,2.834 -1.637,2.464 -1.684,2.206 -1.402,2.245 -1.283,2.095 -1.047,1.803 -1.35,1.514 -1.227,1.227 -1.148,1.039 -0.898,0.954 -0.699,0.866 -0.236,0.665 0.318,0.507 0.002,0.001 L 0,0 Z" /></g></g></g></g><g
           id="g436"><g
             id="g438" /><g
             id="g444"><g
               style="opacity:0.80000299"
               id="g446"
               clip-path="url(#clipPath440)"><g
                 id="g448"
                 transform="translate(9.1074,27.6631)"><path
                   id="path450"
                   style="fill:#1d81a4;fill-opacity:1;fill-rule:nonzero;stroke:none"
                   d="m 0,0 c 0.247,0 0.411,0.066 0.657,0.066 0.124,0 0.288,0.1 0.369,0.1 C 1.191,0.13 1.233,-0.032 1.355,-0.032 2.136,-0.165 2.053,0.098 2.711,0.361 3.451,0.625 3.491,0.098 3.985,-0.262 4.232,-0.395 4.438,-0.361 4.6,-0.591 4.683,-0.689 4.52,-0.822 4.559,-0.953 4.6,-1.02 4.806,-1.117 4.848,-1.216 4.971,-1.577 5.093,-1.38 4.848,-1.743 4.765,-1.84 4.355,-2.236 4.232,-2.333 4.025,-2.432 3.737,-2.432 3.533,-2.531 3.245,-2.662 3.204,-2.926 3.041,-3.058 1.931,-3.846 1.148,-1.94 0.862,-1.446 0.697,-1.25 0.697,-0.855 0.576,-0.657 c -0.207,0.262 -0.822,0.23 -0.412,0.69" /></g></g></g></g><g
           id="g452"><g
             id="g454" /><g
             id="g460"><g
               style="opacity:0.88999897"
               id="g462"
               clip-path="url(#clipPath456)"><g
                 id="g464"
                 transform="translate(11.3994,24.6724)"><path
                   id="path466"
                   style="fill:#1d81a4;fill-opacity:1;fill-rule:nonzero;stroke:none"
                   d="m 0,0 c 0.123,0.394 -0.37,0.559 -0.412,0.953 0,0.198 0,0.394 0.247,0.526 0.411,0.263 0.246,-0.033 0.411,-0.196 0.04,-0.035 0,-0.198 0.04,-0.265 C 0.41,0.887 0.576,0.986 0.657,0.887 0.862,0.756 1.15,0.756 1.067,0.427 0.943,0.033 0.286,0.329 0.081,0" /></g></g></g></g><g
           id="g468"><g
             id="g470" /><g
             id="g476"><g
               style="opacity:0.89999402"
               id="g478"
               clip-path="url(#clipPath472)"><g
                 id="g480"
                 transform="translate(27.9961,18.6646)"><path
                   id="path482"
                   style="fill:#1d81a4;fill-opacity:1;fill-rule:nonzero;stroke:none"
                   d="m 0,0 c 0.205,0 0.574,0.067 0.779,0 0.453,-0.131 0.248,-0.263 0.576,-0.427 0.288,-0.132 0.616,0 0.864,-0.132 0.41,-0.23 0.123,-0.195 0.162,-0.493 0,-0.328 0.125,-0.886 0.412,-1.217 0.287,-0.327 1.273,-0.557 0.658,-1.117 -0.289,0.297 -0.453,0.361 -0.945,0.396 -0.244,0 -0.287,-0.067 -0.576,0 -0.246,0.032 -0.41,0.23 -0.616,0.262 -0.287,0.065 -0.986,-0.198 -1.15,0.164 -0.164,0.23 0.246,0.362 0.287,0.56 0.082,0.229 0.041,0.229 -0.082,0.525 -0.164,0.329 0.082,0.164 -0.287,0.362 -0.207,0.131 -0.453,0 -0.699,0.197 -0.164,0.098 -0.164,0.329 -0.248,0.493 -0.08,0.098 0,0.198 -0.08,0.296 -0.041,0.065 -0.287,0.065 -0.33,0.099 -0.121,0.166 -0.411,0.032 -0.121,0.295 0.082,0.066 0.328,0.099 0.451,0.13 0.287,0 0.74,-0.195 0.863,-0.361" /></g></g></g></g><g
           id="g484"><g
             id="g486" /><g
             id="g492"><g
               style="opacity:0.89999402"
               id="g494"
               clip-path="url(#clipPath488)"><g
                 id="g496"
                 transform="translate(33.4316,25.3271)"><path
                   id="path498"
                   style="fill:#1d81a4;fill-opacity:1;fill-rule:nonzero;stroke:none"
                   d="M 0,0 C 0.174,-0.002 0.537,0.109 0.576,0.277 0.6,0.53 0.148,0.521 0.402,0.737 0.506,0.811 0.619,0.784 0.701,0.803 0.814,0.835 0.924,0.868 1.014,0.906 1.043,0.919 1.031,1.021 1.086,1.028 1.129,1.078 1.258,1.026 1.264,1.043 1.324,1.07 1.445,1.258 1.475,1.271 1.742,1.385 2.418,1.339 2.389,1.785 2.371,2.067 2.123,2.067 1.895,1.985 1.805,1.946 1.764,1.836 1.645,1.787 1.557,1.747 1.41,1.824 1.285,1.755 1.275,1.856 1.436,1.955 1.441,2.034 1.443,2.172 1.346,2.375 1.111,2.213 0.941,2.354 0.846,2.496 0.641,2.348 0.441,2.217 0.598,2.1 0.52,1.96 0.289,1.48 -0.135,1.94 -0.391,1.723 -0.475,2.022 -0.418,2.306 -0.791,1.979 -0.826,1.947 -1,1.752 -1.02,1.698 -1.039,1.582 -0.844,1.376 -0.908,1.273 -1.105,0.884 -1.252,1.674 -1.5,1.674 -1.748,1.676 -1.658,1.454 -1.783,1.385 -1.998,1.278 -2.152,1.396 -2.352,1.325 -2.471,1.274 -2.52,1.147 -2.615,1.09 -2.762,1.027 -2.879,1.115 -2.982,1.041 -3.277,0.853 -3.129,0.52 -2.92,0.35 -2.865,0.297 -2.725,0.342 -2.67,0.29 -2.6,0.213 -2.666,0.169 -2.641,0.104 c 0.037,-0.03 0.147,-0.334 0.133,-0.371 -0.068,-0.18 -0.5,-0.336 -0.668,-0.453 -0.287,0.228 -0.437,-0.172 -0.478,-0.341 -0.032,-0.09 -0.082,-0.158 -0.075,-0.261 0.032,-0.245 0.106,-0.183 0.309,-0.234 0.736,-0.158 0.775,0.409 0.959,0.822 0.082,0.218 0.141,0.442 0.49,0.377 0.416,-0.08 0.092,-0.478 0.53,-0.564 0.349,-0.066 0.382,0.225 0.634,0.363 0.067,0.042 0.151,-0.059 0.248,-0.002 0.067,0.044 0.032,0.151 0.098,0.194 0.043,0.05 0.025,0.134 0.063,0.163 0.043,0.05 0.218,-0.011 0.255,0.019 0.104,0.076 0.153,0.142 0.184,0.293" /></g></g></g></g><g
           transform="translate(20.4385,11.9053)"
           id="g500"><path
             id="path502"
             style="fill:#1d81a4;fill-opacity:1;fill-rule:nonzero;stroke:none"
             d="m 0,0 -1.787,0.365 c 0,0 -0.258,0.137 -0.943,0.248 C -3.416,0.722 -3.86,0.398 -3.86,0.398 L -5.135,0.445 -5.734,0.212 -6.727,0.504 -7.943,-0.259 -9.11,-0.217 -10.491,-0.166 -9.557,0.332 -8.123,0.28 -6.592,1.011 -5.2,0.703 -4.203,0.922 -3.07,1.179 -1.636,1.125 -0.629,1.089 0,0 Z" /></g></g></g></g></svg>