<?xml version="1.0" encoding="UTF-8" standalone="no"?>
<svg
   xmlns:dc="http://purl.org/dc/elements/1.1/"
   xmlns:cc="http://creativecommons.org/ns#"
   xmlns:rdf="http://www.w3.org/1999/02/22-rdf-syntax-ns#"
   xmlns:svg="http://www.w3.org/2000/svg"
   xmlns="http://www.w3.org/2000/svg"
   viewBox="0 0 54.705734 54.710266"
   height="54.710266"
   width="54.705734"
   xml:space="preserve"
   version="1.1"
   id="svg2"><metadata
     id="metadata8"><rdf:RDF><cc:Work
         rdf:about=""><dc:format>image/svg+xml</dc:format><dc:type
           rdf:resource="http://purl.org/dc/dcmitype/StillImage" /></cc:Work></rdf:RDF></metadata><defs
     id="defs6"><clipPath
       id="clipPath16"
       clipPathUnits="userSpaceOnUse"><path
         id="path18"
         d="m 29.955,27.102 c -2.202,0.032 -3.944,0.934 -3.944,0.934 l 0,0 c 0,0 -2.314,-0.932 -4.29,-0.934 l 0,0 c -2.283,-0.002 -4.065,0.934 -4.065,0.934 l 0,0 c 0,0 -1.461,-0.897 -4.086,-0.934 l 0,0 c -2.63,-0.026 -4.255,0.934 -4.255,0.934 l 0,0 c 0,0 -1.872,-1.013 -4.263,-0.934 l 0,0 C 2.662,27.184 1.046,27.08 1.046,27.08 l 0,0 0,-12.053 5.693,-9.172 c 0,0 5.378,-5.376 12.97,-5.376 l 0,0 c 7.592,0 17.396,8.855 17.396,8.855 l 0,0 c 0,0 4.431,12.652 1.093,17.768 l 0,0 c -1.659,-0.002 -3.956,0.934 -3.956,0.934 l 0,0 c 0,0 -1.66,-0.971 -4.287,-0.934" /></clipPath><linearGradient
       id="linearGradient24"
       spreadMethod="pad"
       gradientTransform="matrix(38.397949,0,0,-38.397949,1.0454102,14.257324)"
       gradientUnits="userSpaceOnUse"
       y2="0"
       x2="1"
       y1="0"
       x1="0"><stop
         id="stop26"
         offset="0"
         style="stop-opacity:1;stop-color:#bcd8e4" /><stop
         id="stop28"
         offset="0.331055"
         style="stop-opacity:1;stop-color:#a2c6d8" /><stop
         id="stop30"
         offset="0.561224"
         style="stop-opacity:1;stop-color:#93bbcf" /><stop
         id="stop32"
         offset="0.755979"
         style="stop-opacity:1;stop-color:#71a5c0" /><stop
         id="stop34"
         offset="0.910535"
         style="stop-opacity:1;stop-color:#5998b7" /><stop
         id="stop36"
         offset="1"
         style="stop-opacity:1;stop-color:#5998b7" /></linearGradient><clipPath
       id="clipPath44"
       clipPathUnits="userSpaceOnUse"><path
         id="path46"
         d="m 0,41.033 41.029,0 L 41.029,0 0,0 0,41.033 Z" /></clipPath></defs><g
     transform="matrix(1.3333333,0,0,-1.3333333,0,54.710267)"
     id="g10"><g
       id="g12"><g
         clip-path="url(#clipPath16)"
         id="g14"><g
           id="g20"><g
             id="g22"><path
               id="path38"
               style="fill:url(#linearGradient24);stroke:none"
               d="m 29.955,27.102 c -2.202,0.032 -3.944,0.934 -3.944,0.934 l 0,0 c 0,0 -2.314,-0.932 -4.29,-0.934 l 0,0 c -2.283,-0.002 -4.065,0.934 -4.065,0.934 l 0,0 c 0,0 -1.461,-0.897 -4.086,-0.934 l 0,0 c -2.63,-0.026 -4.255,0.934 -4.255,0.934 l 0,0 c 0,0 -1.872,-1.013 -4.263,-0.934 l 0,0 C 2.662,27.184 1.046,27.08 1.046,27.08 l 0,0 0,-12.053 5.693,-9.172 c 0,0 5.378,-5.376 12.97,-5.376 l 0,0 c 7.592,0 17.396,8.855 17.396,8.855 l 0,0 c 0,0 4.431,12.652 1.093,17.768 l 0,0 c -1.659,-0.002 -3.956,0.934 -3.956,0.934 l 0,0 c 0,0 -1.66,-0.971 -4.287,-0.934" /></g></g></g></g><g
       id="g40"><g
         clip-path="url(#clipPath44)"
         id="g42"><g
           transform="translate(37.1406,9.5332)"
           id="g48"><path
             id="path50"
             style="fill:#ffffff;fill-opacity:1;fill-rule:nonzero;stroke:none"
             d="m 0,0 c -4.005,-5.271 -12.022,-8.785 -16.729,-8.785 -5.38,0 -14.308,3.825 -17.967,12.143 C -21.931,-1.475 -7.582,-0.425 0,0" /></g><g
           transform="translate(20.5171,38.874)"
           id="g52"><path
             id="path54"
             style="fill:#737577;fill-opacity:1;fill-rule:nonzero;stroke:none"
             d="m 0,0 c -10.122,0 -18.358,-8.237 -18.358,-18.358 0,-10.12 8.236,-18.357 18.358,-18.357 10.122,0 18.356,8.237 18.356,18.357 C 18.356,-8.237 10.122,0 0,0 m 0,-38.875 c -11.313,0 -20.517,9.206 -20.517,20.517 0,11.314 9.204,20.517 20.517,20.517 11.312,0 20.516,-9.203 20.516,-20.517 0,-11.311 -9.204,-20.517 -20.516,-20.517" /></g><g
           transform="translate(20.4492,12.4482)"
           id="g56"><path
             id="path58"
             style="fill:#1d81a4;fill-opacity:1;fill-rule:nonzero;stroke:none"
             d="m 0,0 c 0.139,0.243 0.41,2.604 0.892,4.328 0.499,1.97 0.903,4.449 1.065,5.065 0.195,1.113 0.428,2.852 1.332,1.293 C 4.318,9.121 0.111,-4.262 -0.551,-4.848 -1.214,-5.431 0,0 0,0" /></g><g
           transform="translate(19.7412,7.1099)"
           id="g60"><path
             id="path62"
             style="fill:#1d81a4;fill-opacity:1;fill-rule:nonzero;stroke:none"
             d="m 0,0 c -0.536,-0.592 -0.259,3.896 -0.635,7.926 -0.134,1.886 -0.291,3.397 -0.47,4.533 -0.171,1.263 0.116,1.873 0.131,2.121 0.038,0.623 0.842,1.451 1.255,0.047 C 0.812,13.092 0.862,5.832 0.77,4.334 0.675,2.837 0.412,0.603 0,0" /></g><g
           transform="translate(30.0586,13.6421)"
           id="g64"><path
             id="path66"
             style="fill:#1d81a4;fill-opacity:1;fill-rule:nonzero;stroke:none"
             d="M 0,0 C -0.089,0.208 -0.077,2.032 -0.293,3.466 -0.487,5.201 -0.565,7.232 -0.54,7.638 -0.578,8.653 -0.593,10.074 -1.576,8.918 -2.46,7.756 -0.415,-3.421 0.059,-3.958 0.531,-4.495 0,0 0,0" /></g><g
           transform="translate(30.1934,9.2734)"
           id="g68"><path
             id="path70"
             style="fill:#1d81a4;fill-opacity:1;fill-rule:nonzero;stroke:none"
             d="m 0,0 c 0.271,-0.524 0.497,3.113 1.201,6.313 0.392,1.395 0.574,2.703 0.833,3.598 0.36,0.889 0.188,1.408 0.2,1.61 0.032,0.505 -0.525,1.35 -1.104,0.17 C 0.65,10.504 -0.109,4.772 -0.184,3.562 -0.259,2.349 -0.27,0.524 0,0" /></g><g
           transform="translate(12.4888,13.1982)"
           id="g72"><path
             id="path74"
             style="fill:#1d81a4;fill-opacity:1;fill-rule:nonzero;stroke:none"
             d="m 0,0 c -0.132,0.312 -0.115,3.022 -0.436,5.153 -0.291,2.58 -0.405,5.6 -0.37,6.201 -0.056,1.511 -0.078,3.623 -1.538,1.902 C -3.656,11.531 -0.618,-5.085 0.085,-5.881 0.79,-6.68 0,0 0,0" /></g><g
           transform="translate(12.689,6.7061)"
           id="g76"><path
             id="path78"
             style="fill:#1d81a4;fill-opacity:1;fill-rule:nonzero;stroke:none"
             d="m 0,0 c 0.403,-0.779 0.738,4.626 1.786,9.385 0.582,2.074 0.851,4.014 1.235,5.348 0.534,1.323 0.282,2.093 0.298,2.393 0.048,0.752 -0.777,2.007 -1.642,0.252 C 0.966,15.614 -0.163,7.093 -0.275,5.292 -0.387,3.492 -0.405,0.778 0,0" /></g></g></g></g></svg>