<?xml version="1.0" encoding="utf-8"?>
<!-- Generator: Adobe Illustrator 16.0.0, SVG Export Plug-In . SVG Version: 6.00 Build 0)  -->
<!DOCTYPE svg PUBLIC "-//W3C//DTD SVG 1.1//EN" "http://www.w3.org/Graphics/SVG/1.1/DTD/svg11.dtd">
<svg version="1.1" xmlns="http://www.w3.org/2000/svg" xmlns:xlink="http://www.w3.org/1999/xlink" x="0px" y="0px" width="256px"
	 height="256px" viewBox="0 0 256 256" enable-background="new 0 0 256 256" xml:space="preserve">
<g id="round_x5F_white" display="none">
	<g id="_x30_6" display="inline">
		<g>
			<path fill-rule="evenodd" clip-rule="evenodd" fill="#FFFFFF" d="M59.388,146.99c-29.998,20.998-13.2,40.796,11.999,47.996
				C43.785,181.189,42.59,163.788,59.388,146.99z M128,0C57.308,0,0,57.308,0,128s57.308,128,128,128s128-57.308,128-128
				S198.692,0,128,0z M144.876,124.491l-3.496-43.853c-2.229-0.633-4.01-2.627-4.384-5.23l-3.656-25.414
				c-0.504-3.506,1.734-6.79,4.998-7.332c0.005-0.001,0.009-0.001,0.014-0.001l-1.01-12.663l2.009,12.596
				c2.861,0.048,5.361,2.298,5.813,5.438l3.65,25.41c0.425,2.922-1.06,5.681-3.452,6.838l7.415,46.497
				c4.982-12.236,15.47-34.601,32.416-54.996c-17.694,33.479-23.929,61.068-23.929,61.068s16.95-28.659,41.868-38.569
				c-22.68,16.07-41.868,54.638-41.868,54.638H140.33c0,0-10.717-43.925-29.904-80.351
				C128.231,88.921,139.3,111.298,144.876,124.491z M134.348,209.985c-137.568,1.072-104.958-69.325-56.82-83.566
				c86.73-22.498,9.972,34.284,68.784,28.929C205.124,149.99,271.917,208.914,134.348,209.985z M197.379,176.988
				c13.2,17.998-39.601,19.797-83.994,23.998C157.778,205.785,221.377,194.986,197.379,176.988z M137.383,161.989
				c-13.124,0.75-26.623-3.375-23.998-17.999C105.51,157.864,123.134,168.738,137.383,161.989z"/>
		</g>
	</g>
</g>
<g id="round_x5F_blue" display="none">
	<g id="_x30_6_8_" display="inline">
		<g>
			<path fill-rule="evenodd" clip-rule="evenodd" fill="#00A3F5" d="M59.388,146.99c-29.998,20.998-13.2,40.796,11.999,47.996
				C43.785,181.189,42.59,163.788,59.388,146.99z M128,0C57.308,0,0,57.308,0,128s57.308,128,128,128s128-57.308,128-128
				S198.692,0,128,0z M144.876,124.491l-3.496-43.853c-2.229-0.633-4.01-2.627-4.384-5.23l-3.656-25.414
				c-0.504-3.506,1.734-6.79,4.998-7.332c0.005-0.001,0.009-0.001,0.014-0.001l-1.01-12.663l2.009,12.596
				c2.861,0.048,5.361,2.298,5.813,5.438l3.65,25.41c0.425,2.922-1.06,5.681-3.452,6.838l7.415,46.497
				c4.982-12.236,15.47-34.601,32.416-54.996c-17.694,33.479-23.929,61.068-23.929,61.068s16.95-28.659,41.868-38.569
				c-22.68,16.07-41.868,54.638-41.868,54.638H140.33c0,0-10.717-43.925-29.904-80.351
				C128.231,88.921,139.3,111.298,144.876,124.491z M134.348,209.985c-137.568,1.072-104.958-69.325-56.82-83.566
				c86.73-22.498,9.972,34.284,68.784,28.929C205.124,149.99,271.917,208.914,134.348,209.985z M197.379,176.988
				c13.2,17.998-39.601,19.797-83.994,23.998C157.778,205.785,221.377,194.986,197.379,176.988z M137.383,161.989
				c-13.124,0.75-26.623-3.375-23.998-17.999C105.51,157.864,123.134,168.738,137.383,161.989z"/>
		</g>
	</g>
</g>
<g id="round_x5F_black" display="none">
	<g id="_x30_6_10_" display="inline">
		<g>
			<path fill-rule="evenodd" clip-rule="evenodd" d="M59.388,146.99c-29.998,20.998-13.2,40.796,11.999,47.996
				C43.785,181.189,42.59,163.788,59.388,146.99z M128,0C57.308,0,0,57.308,0,128s57.308,128,128,128s128-57.308,128-128
				S198.692,0,128,0z M144.876,124.491l-3.496-43.853c-2.229-0.633-4.01-2.627-4.384-5.23l-3.656-25.414
				c-0.504-3.506,1.734-6.79,4.998-7.332c0.005-0.001,0.009-0.001,0.014-0.001l-1.01-12.663l2.009,12.596
				c2.861,0.048,5.361,2.298,5.813,5.438l3.65,25.41c0.425,2.922-1.06,5.681-3.452,6.838l7.415,46.497
				c4.982-12.236,15.47-34.601,32.416-54.996c-17.694,33.479-23.929,61.068-23.929,61.068s16.95-28.659,41.868-38.569
				c-22.68,16.07-41.868,54.638-41.868,54.638H140.33c0,0-10.717-43.925-29.904-80.351
				C128.231,88.921,139.3,111.298,144.876,124.491z M134.348,209.985c-137.568,1.072-104.958-69.325-56.82-83.566
				c86.73-22.498,9.972,34.284,68.784,28.929C205.124,149.99,271.917,208.914,134.348,209.985z M197.379,176.988
				c13.2,17.998-39.601,19.797-83.994,23.998C157.778,205.785,221.377,194.986,197.379,176.988z M137.383,161.989
				c-13.124,0.75-26.623-3.375-23.998-17.999C105.51,157.864,123.134,168.738,137.383,161.989z"/>
		</g>
	</g>
</g>
<g id="base_x5F_white" display="none">
	<g id="_x30_6_2_" display="inline">
		<g>
			<path fill-rule="evenodd" clip-rule="evenodd" fill="#FFFFFF" d="M140.334,148.922h20.934c0,0,19.188-38.567,41.868-54.638
				c-24.918,9.91-41.868,38.569-41.868,38.569s6.234-27.59,23.929-61.068c-16.946,20.395-27.434,42.759-32.416,54.996l-7.415-46.497
				c2.393-1.157,3.877-3.916,3.452-6.837l-3.65-25.41c-0.451-3.14-2.951-5.39-5.813-5.438l-2.009-12.596l1.01,12.663
				c-0.005,0-0.009,0.001-0.014,0.001c-3.264,0.542-5.502,3.826-4.998,7.332L137,75.413c0.374,2.604,2.155,4.597,4.384,5.23
				l3.496,43.853c-5.576-13.193-16.645-35.57-34.45-55.924C129.617,104.998,140.334,148.922,140.334,148.922z M146.315,155.352
				c-58.813,5.355,17.946-51.427-68.784-28.929c-48.138,14.241-80.748,84.639,56.82,83.566
				C271.921,208.918,205.128,149.995,146.315,155.352z M59.392,146.995c-16.798,16.798-15.603,34.199,11.999,47.996
				C46.191,187.791,29.394,167.993,59.392,146.995z M113.389,143.995c-2.625,14.624,10.874,18.749,23.998,17.999
				C123.138,168.743,105.514,157.869,113.389,143.995z M113.389,200.991c44.394-4.201,97.194-6,83.994-23.998
				C221.381,194.991,157.782,205.79,113.389,200.991z"/>
		</g>
	</g>
</g>
<g id="base_x5F_blue" display="none">
	<g id="_x30_6_4_" display="inline">
		<g>
			<path fill-rule="evenodd" clip-rule="evenodd" fill="#00A3F5" d="M140.334,148.922h20.934c0,0,19.188-38.567,41.868-54.638
				c-24.918,9.91-41.868,38.569-41.868,38.569s6.234-27.59,23.929-61.068c-16.946,20.395-27.434,42.759-32.416,54.996l-7.415-46.497
				c2.393-1.157,3.877-3.916,3.452-6.837l-3.65-25.41c-0.451-3.14-2.951-5.39-5.813-5.438l-2.009-12.596l1.01,12.663
				c-0.005,0-0.009,0.001-0.014,0.001c-3.264,0.542-5.502,3.826-4.998,7.332L137,75.413c0.374,2.604,2.155,4.597,4.384,5.23
				l3.496,43.853c-5.576-13.193-16.645-35.57-34.45-55.924C129.617,104.998,140.334,148.922,140.334,148.922z M146.315,155.352
				c-58.813,5.355,17.946-51.427-68.784-28.929c-48.138,14.241-80.748,84.639,56.82,83.566
				C271.921,208.918,205.128,149.995,146.315,155.352z M59.392,146.995c-16.798,16.798-15.603,34.199,11.999,47.996
				C46.191,187.791,29.394,167.993,59.392,146.995z M113.389,143.995c-2.625,14.624,10.874,18.749,23.998,17.999
				C123.138,168.743,105.514,157.869,113.389,143.995z M113.389,200.991c44.394-4.201,97.194-6,83.994-23.998
				C221.381,194.991,157.782,205.79,113.389,200.991z"/>
		</g>
	</g>
</g>
<g id="base_x5F_black">
	<g id="_x30_6_6_">
		<g>
			<path fill-rule="evenodd" clip-rule="evenodd" d="M140.334,148.922h20.934c0,0,19.188-38.567,41.868-54.638
				c-24.918,9.91-41.868,38.569-41.868,38.569s6.234-27.59,23.929-61.068c-16.946,20.395-27.434,42.759-32.416,54.996l-7.415-46.497
				c2.393-1.157,3.877-3.916,3.452-6.837l-3.65-25.41c-0.451-3.14-2.951-5.39-5.813-5.438l-2.009-12.596l1.01,12.663
				c-0.005,0-0.009,0.001-0.014,0.001c-3.264,0.542-5.502,3.826-4.998,7.332L137,75.413c0.374,2.604,2.155,4.597,4.384,5.23
				l3.496,43.853c-5.576-13.193-16.645-35.57-34.45-55.924C129.617,104.998,140.334,148.922,140.334,148.922z M146.315,155.352
				c-58.813,5.355,17.946-51.427-68.784-28.929c-48.138,14.241-80.748,84.639,56.82,83.566
				C271.921,208.918,205.128,149.995,146.315,155.352z M59.392,146.995c-16.798,16.798-15.603,34.199,11.999,47.996
				C46.191,187.791,29.394,167.993,59.392,146.995z M113.389,143.995c-2.625,14.624,10.874,18.749,23.998,17.999
				C123.138,168.743,105.514,157.869,113.389,143.995z M113.389,200.991c44.394-4.201,97.194-6,83.994-23.998
				C221.381,194.991,157.782,205.79,113.389,200.991z"/>
		</g>
	</g>
</g>
</svg>
